<?xml version="1.0" encoding="us-ascii" standalone="no"?><svg xmlns="http://www.w3.org/2000/svg" xmlns:xlink="http://www.w3.org/1999/xlink" contentStyleType="text/css" height="600px" preserveAspectRatio="none" style="width:1111px;height:600px;background:#FFFFFF;" version="1.1" viewBox="0 0 1111 600" width="1111px" zoomAndPan="magnify"><defs/><g><!--class Teacher--><g id="elem_Teacher"><rect codeLine="2" fill="#F1F1F1" height="48" id="Teacher" rx="2.5" ry="2.5" style="stroke:#181818;stroke-width:0.5;" width="87" x="368" y="7"/><ellipse cx="383" cy="23" fill="#ADD1B2" rx="11" ry="11" style="stroke:#181818;stroke-width:1.0;"/><path d="M385.9731,28.6431 Q385.3921,28.9419 384.7529,29.0913 Q384.1138,29.2407 383.4082,29.2407 Q380.9014,29.2407 379.5815,27.5889 Q378.2617,25.937 378.2617,22.8159 Q378.2617,19.6865 379.5815,18.0347 Q380.9014,16.3828 383.4082,16.3828 Q384.1138,16.3828 384.7612,16.5322 Q385.4087,16.6816 385.9731,16.9805 L385.9731,19.7031 Q385.3423,19.1221 384.7488,18.8523 Q384.1553,18.5825 383.5244,18.5825 Q382.1797,18.5825 381.4949,19.6492 Q380.8101,20.7158 380.8101,22.8159 Q380.8101,24.9077 381.4949,25.9744 Q382.1797,27.041 383.5244,27.041 Q384.1553,27.041 384.7488,26.7712 Q385.3423,26.5015 385.9731,25.9204 Z " fill="#000000"/><text fill="#000000" font-family="sans-serif" font-size="14" lengthAdjust="spacing" textLength="55" x="397" y="28.291">Teacher</text><line style="stroke:#181818;stroke-width:0.5;" x1="369" x2="454" y1="39" y2="39"/><line style="stroke:#181818;stroke-width:0.5;" x1="369" x2="454" y1="47" y2="47"/></g><!--class AddExamQuestionUI--><g id="elem_AddExamQuestionUI"><rect codeLine="3" fill="#F1F1F1" height="64.4883" id="AddExamQuestionUI" rx="2.5" ry="2.5" style="stroke:#181818;stroke-width:0.5;" width="174" x="214.5" y="115"/><ellipse cx="229.5" cy="131" fill="#ADD1B2" rx="11" ry="11" style="stroke:#181818;stroke-width:1.0;"/><path d="M232.4731,136.6431 Q231.8921,136.9419 231.2529,137.0913 Q230.6138,137.2407 229.9082,137.2407 Q227.4014,137.2407 226.0815,135.5889 Q224.7617,133.937 224.7617,130.8159 Q224.7617,127.6865 226.0815,126.0347 Q227.4014,124.3828 229.9082,124.3828 Q230.6138,124.3828 231.2612,124.5322 Q231.9087,124.6816 232.4731,124.9805 L232.4731,127.7031 Q231.8423,127.1221 231.2488,126.8523 Q230.6553,126.5825 230.0244,126.5825 Q228.6797,126.5825 227.9949,127.6492 Q227.3101,128.7158 227.3101,130.8159 Q227.3101,132.9077 227.9949,133.9744 Q228.6797,135.041 230.0244,135.041 Q230.6553,135.041 231.2488,134.7712 Q231.8423,134.5015 232.4731,133.9204 Z " fill="#000000"/><text fill="#000000" font-family="sans-serif" font-size="14" lengthAdjust="spacing" textLength="142" x="243.5" y="136.291">AddExamQuestionUI</text><line style="stroke:#181818;stroke-width:0.5;" x1="215.5" x2="387.5" y1="147" y2="147"/><line style="stroke:#181818;stroke-width:0.5;" x1="215.5" x2="387.5" y1="155" y2="155"/><ellipse cx="225.5" cy="168.7441" fill="#84BE84" rx="3" ry="3" style="stroke:#038048;stroke-width:1.0;"/><text fill="#000000" font-family="sans-serif" font-size="14" lengthAdjust="spacing" textLength="64" x="234.5" y="172.5352">doshow()</text></g><!--class UpdateExamQuestionUI--><g id="elem_UpdateExamQuestionUI"><rect codeLine="7" fill="#F1F1F1" height="64.4883" id="UpdateExamQuestionUI" rx="2.5" ry="2.5" style="stroke:#181818;stroke-width:0.5;" width="195" x="438" y="115"/><ellipse cx="453" cy="131" fill="#ADD1B2" rx="11" ry="11" style="stroke:#181818;stroke-width:1.0;"/><path d="M455.9731,136.6431 Q455.3921,136.9419 454.7529,137.0913 Q454.1138,137.2407 453.4082,137.2407 Q450.9014,137.2407 449.5815,135.5889 Q448.2617,133.937 448.2617,130.8159 Q448.2617,127.6865 449.5815,126.0347 Q450.9014,124.3828 453.4082,124.3828 Q454.1138,124.3828 454.7612,124.5322 Q455.4087,124.6816 455.9731,124.9805 L455.9731,127.7031 Q455.3423,127.1221 454.7488,126.8523 Q454.1553,126.5825 453.5244,126.5825 Q452.1797,126.5825 451.4949,127.6492 Q450.8101,128.7158 450.8101,130.8159 Q450.8101,132.9077 451.4949,133.9744 Q452.1797,135.041 453.5244,135.041 Q454.1553,135.041 454.7488,134.7712 Q455.3423,134.5015 455.9731,133.9204 Z " fill="#000000"/><text fill="#000000" font-family="sans-serif" font-size="14" lengthAdjust="spacing" textLength="163" x="467" y="136.291">UpdateExamQuestionUI</text><line style="stroke:#181818;stroke-width:0.5;" x1="439" x2="632" y1="147" y2="147"/><line style="stroke:#181818;stroke-width:0.5;" x1="439" x2="632" y1="155" y2="155"/><ellipse cx="449" cy="168.7441" fill="#84BE84" rx="3" ry="3" style="stroke:#038048;stroke-width:1.0;"/><text fill="#000000" font-family="sans-serif" font-size="14" lengthAdjust="spacing" textLength="64" x="458" y="172.5352">doshow()</text></g><!--class UpdateExamQuestionController--><g id="elem_UpdateExamQuestionController"><rect codeLine="10" fill="#F1F1F1" height="130.4414" id="UpdateExamQuestionController" rx="2.5" ry="2.5" style="stroke:#181818;stroke-width:0.5;" width="251" x="424" y="239.49"/><ellipse cx="439" cy="255.49" fill="#ADD1B2" rx="11" ry="11" style="stroke:#181818;stroke-width:1.0;"/><path d="M441.9731,261.1331 Q441.3921,261.4319 440.7529,261.5813 Q440.1138,261.7307 439.4082,261.7307 Q436.9014,261.7307 435.5815,260.0789 Q434.2617,258.427 434.2617,255.3059 Q434.2617,252.1765 435.5815,250.5247 Q436.9014,248.8728 439.4082,248.8728 Q440.1138,248.8728 440.7612,249.0222 Q441.4087,249.1716 441.9731,249.4705 L441.9731,252.1931 Q441.3423,251.6121 440.7488,251.3423 Q440.1553,251.0725 439.5244,251.0725 Q438.1797,251.0725 437.4949,252.1392 Q436.8101,253.2058 436.8101,255.3059 Q436.8101,257.3977 437.4949,258.4644 Q438.1797,259.531 439.5244,259.531 Q440.1553,259.531 440.7488,259.2612 Q441.3423,258.9915 441.9731,258.4104 Z " fill="#000000"/><text fill="#000000" font-family="sans-serif" font-size="14" lengthAdjust="spacing" textLength="219" x="453" y="260.781">UpdateExamQuestionController</text><line style="stroke:#181818;stroke-width:0.5;" x1="425" x2="674" y1="271.49" y2="271.49"/><line style="stroke:#181818;stroke-width:0.5;" x1="425" x2="674" y1="279.49" y2="279.49"/><ellipse cx="435" cy="293.2341" fill="#84BE84" rx="3" ry="3" style="stroke:#038048;stroke-width:1.0;"/><text fill="#000000" font-family="sans-serif" font-size="14" lengthAdjust="spacing" textLength="125" x="444" y="297.0252">getOpenCourses()</text><ellipse cx="435" cy="309.7224" fill="#84BE84" rx="3" ry="3" style="stroke:#038048;stroke-width:1.0;"/><text fill="#000000" font-family="sans-serif" font-size="14" lengthAdjust="spacing" textLength="152" x="444" y="313.5134">getAllQuestionTypes()</text><ellipse cx="435" cy="326.2107" fill="#84BE84" rx="3" ry="3" style="stroke:#038048;stroke-width:1.0;"/><text fill="#000000" font-family="sans-serif" font-size="14" lengthAdjust="spacing" textLength="127" x="444" y="330.0017">getQuestionType()</text><ellipse cx="435" cy="342.699" fill="#84BE84" rx="3" ry="3" style="stroke:#038048;stroke-width:1.0;"/><text fill="#000000" font-family="sans-serif" font-size="14" lengthAdjust="spacing" textLength="219" x="444" y="346.49">getQuestionByTypeAndCourse()</text><ellipse cx="435" cy="359.1873" fill="#84BE84" rx="3" ry="3" style="stroke:#038048;stroke-width:1.0;"/><text fill="#000000" font-family="sans-serif" font-size="14" lengthAdjust="spacing" textLength="120" x="444" y="362.9783">updateQuestion()</text></g><!--class ListCoursesService--><g id="elem_ListCoursesService"><rect codeLine="18" fill="#F1F1F1" height="80.9766" id="ListCoursesService" rx="2.5" ry="2.5" style="stroke:#181818;stroke-width:0.5;" width="159" x="7" y="471.15"/><ellipse cx="22" cy="487.15" fill="#ADD1B2" rx="11" ry="11" style="stroke:#181818;stroke-width:1.0;"/><path d="M24.9731,492.7931 Q24.3921,493.0919 23.7529,493.2413 Q23.1138,493.3907 22.4082,493.3907 Q19.9014,493.3907 18.5815,491.7389 Q17.2617,490.087 17.2617,486.9659 Q17.2617,483.8365 18.5815,482.1847 Q19.9014,480.5328 22.4082,480.5328 Q23.1138,480.5328 23.7612,480.6822 Q24.4087,480.8316 24.9731,481.1305 L24.9731,483.8531 Q24.3423,483.2721 23.7488,483.0023 Q23.1553,482.7325 22.5244,482.7325 Q21.1797,482.7325 20.4949,483.7992 Q19.8101,484.8658 19.8101,486.9659 Q19.8101,489.0577 20.4949,490.1244 Q21.1797,491.191 22.5244,491.191 Q23.1553,491.191 23.7488,490.9212 Q24.3423,490.6515 24.9731,490.0704 Z " fill="#000000"/><text fill="#000000" font-family="sans-serif" font-size="14" lengthAdjust="spacing" textLength="127" x="36" y="492.441">ListCoursesService</text><line style="stroke:#181818;stroke-width:0.5;" x1="8" x2="165" y1="503.15" y2="503.15"/><line style="stroke:#181818;stroke-width:0.5;" x1="8" x2="165" y1="511.15" y2="511.15"/><ellipse cx="18" cy="524.8941" fill="#84BE84" rx="3" ry="3" style="stroke:#038048;stroke-width:1.0;"/><text fill="#000000" font-family="sans-serif" font-size="14" lengthAdjust="spacing" textLength="125" x="27" y="528.6852">getOpenCourses()</text><ellipse cx="18" cy="541.3824" fill="#84BE84" rx="3" ry="3" style="stroke:#038048;stroke-width:1.0;"/><text fill="#000000" font-family="sans-serif" font-size="14" lengthAdjust="spacing" textLength="82" x="27" y="545.1734">allCourses()</text></g><!--class UpdateExamQuestionService--><g id="elem_UpdateExamQuestionService"><rect codeLine="23" fill="#F1F1F1" height="80.9766" id="UpdateExamQuestionService" rx="2.5" ry="2.5" style="stroke:#181818;stroke-width:0.5;" width="245" x="859" y="471.15"/><ellipse cx="881.2" cy="487.15" fill="#ADD1B2" rx="11" ry="11" style="stroke:#181818;stroke-width:1.0;"/><path d="M884.1731,492.7931 Q883.5921,493.0919 882.9529,493.2413 Q882.3138,493.3907 881.6082,493.3907 Q879.1014,493.3907 877.7815,491.7389 Q876.4617,490.087 876.4617,486.9659 Q876.4617,483.8365 877.7815,482.1847 Q879.1014,480.5328 881.6082,480.5328 Q882.3138,480.5328 882.9612,480.6822 Q883.6087,480.8316 884.1731,481.1305 L884.1731,483.8531 Q883.5423,483.2721 882.9488,483.0023 Q882.3553,482.7325 881.7244,482.7325 Q880.3797,482.7325 879.6949,483.7992 Q879.0101,484.8658 879.0101,486.9659 Q879.0101,489.0577 879.6949,490.1244 Q880.3797,491.191 881.7244,491.191 Q882.3553,491.191 882.9488,490.9212 Q883.5423,490.6515 884.1731,490.0704 Z " fill="#000000"/><text fill="#000000" font-family="sans-serif" font-size="14" lengthAdjust="spacing" textLength="197" x="896.8" y="492.441">UpdateExamQuestionService</text><line style="stroke:#181818;stroke-width:0.5;" x1="860" x2="1103" y1="503.15" y2="503.15"/><line style="stroke:#181818;stroke-width:0.5;" x1="860" x2="1103" y1="511.15" y2="511.15"/><ellipse cx="870" cy="524.8941" fill="#84BE84" rx="3" ry="3" style="stroke:#038048;stroke-width:1.0;"/><text fill="#000000" font-family="sans-serif" font-size="14" lengthAdjust="spacing" textLength="219" x="879" y="528.6852">getQuestionByTypeAndCourse()</text><ellipse cx="870" cy="541.3824" fill="#84BE84" rx="3" ry="3" style="stroke:#038048;stroke-width:1.0;"/><text fill="#000000" font-family="sans-serif" font-size="14" lengthAdjust="spacing" textLength="95" x="879" y="545.1734">allQuestions()</text></g><!--class AddExamQuestionController--><g id="elem_AddExamQuestionController"><rect codeLine="29" fill="#F1F1F1" height="97.4648" id="AddExamQuestionController" rx="2.5" ry="2.5" style="stroke:#181818;stroke-width:0.5;" width="230" x="159.5" y="255.98"/><ellipse cx="174.5" cy="271.98" fill="#ADD1B2" rx="11" ry="11" style="stroke:#181818;stroke-width:1.0;"/><path d="M177.4731,277.6231 Q176.8921,277.9219 176.2529,278.0713 Q175.6138,278.2207 174.9082,278.2207 Q172.4014,278.2207 171.0815,276.5689 Q169.7617,274.917 169.7617,271.7959 Q169.7617,268.6665 171.0815,267.0147 Q172.4014,265.3628 174.9082,265.3628 Q175.6138,265.3628 176.2612,265.5122 Q176.9087,265.6616 177.4731,265.9605 L177.4731,268.6831 Q176.8423,268.1021 176.2488,267.8323 Q175.6553,267.5625 175.0244,267.5625 Q173.6797,267.5625 172.9949,268.6292 Q172.3101,269.6958 172.3101,271.7959 Q172.3101,273.8877 172.9949,274.9544 Q173.6797,276.021 175.0244,276.021 Q175.6553,276.021 176.2488,275.7512 Q176.8423,275.4815 177.4731,274.9004 Z " fill="#000000"/><text fill="#000000" font-family="sans-serif" font-size="14" lengthAdjust="spacing" textLength="198" x="188.5" y="277.271">AddExamQuestionController</text><line style="stroke:#181818;stroke-width:0.5;" x1="160.5" x2="388.5" y1="287.98" y2="287.98"/><line style="stroke:#181818;stroke-width:0.5;" x1="160.5" x2="388.5" y1="295.98" y2="295.98"/><ellipse cx="170.5" cy="309.7241" fill="#84BE84" rx="3" ry="3" style="stroke:#038048;stroke-width:1.0;"/><text fill="#000000" font-family="sans-serif" font-size="14" lengthAdjust="spacing" textLength="125" x="179.5" y="313.5152">getOpenCourses()</text><ellipse cx="170.5" cy="326.2124" fill="#84BE84" rx="3" ry="3" style="stroke:#038048;stroke-width:1.0;"/><text fill="#000000" font-family="sans-serif" font-size="14" lengthAdjust="spacing" textLength="152" x="179.5" y="330.0034">getAllQuestionTypes()</text><ellipse cx="170.5" cy="342.7007" fill="#84BE84" rx="3" ry="3" style="stroke:#038048;stroke-width:1.0;"/><text fill="#000000" font-family="sans-serif" font-size="14" lengthAdjust="spacing" textLength="114" x="179.5" y="346.4917">createQuestion()</text></g><!--class Question--><g id="elem_Question"><rect codeLine="35" fill="#F1F1F1" height="163.418" id="Question" rx="2.5" ry="2.5" style="stroke:#181818;stroke-width:0.5;" width="198" x="200.5" y="429.93"/><ellipse cx="264.25" cy="445.93" fill="#ADD1B2" rx="11" ry="11" style="stroke:#181818;stroke-width:1.0;"/><path d="M267.2231,451.5731 Q266.6421,451.8719 266.0029,452.0213 Q265.3638,452.1707 264.6582,452.1707 Q262.1514,452.1707 260.8315,450.5189 Q259.5117,448.867 259.5117,445.7459 Q259.5117,442.6165 260.8315,440.9647 Q262.1514,439.3128 264.6582,439.3128 Q265.3638,439.3128 266.0112,439.4622 Q266.6587,439.6116 267.2231,439.9105 L267.2231,442.6331 Q266.5923,442.0521 265.9988,441.7823 Q265.4053,441.5125 264.7744,441.5125 Q263.4297,441.5125 262.7449,442.5792 Q262.0601,443.6458 262.0601,445.7459 Q262.0601,447.8377 262.7449,448.9044 Q263.4297,449.971 264.7744,449.971 Q265.4053,449.971 265.9988,449.7012 Q266.5923,449.4315 267.2231,448.8504 Z " fill="#000000"/><text fill="#000000" font-family="sans-serif" font-size="14" lengthAdjust="spacing" textLength="62" x="284.75" y="451.221">Question</text><line style="stroke:#181818;stroke-width:0.5;" x1="201.5" x2="397.5" y1="461.93" y2="461.93"/><rect fill="none" height="6" style="stroke:#C82930;stroke-width:1.0;" width="6" x="208.5" y="472.6741"/><text fill="#000000" font-family="sans-serif" font-size="14" lengthAdjust="spacing" textLength="93" x="220.5" y="479.4652">questionType</text><rect fill="none" height="6" style="stroke:#C82930;stroke-width:1.0;" width="6" x="208.5" y="489.1624"/><text fill="#000000" font-family="sans-serif" font-size="14" lengthAdjust="spacing" textLength="46" x="220.5" y="495.9534">course</text><rect fill="none" height="6" style="stroke:#C82930;stroke-width:1.0;" width="6" x="208.5" y="505.6507"/><text fill="#000000" font-family="sans-serif" font-size="14" lengthAdjust="spacing" textLength="21" x="220.5" y="512.4417">file</text><rect fill="none" height="6" style="stroke:#C82930;stroke-width:1.0;" width="6" x="208.5" y="522.139"/><text fill="#000000" font-family="sans-serif" font-size="14" lengthAdjust="spacing" textLength="77" x="220.5" y="528.93">description</text><line style="stroke:#181818;stroke-width:0.5;" x1="201.5" x2="397.5" y1="535.8831" y2="535.8831"/><ellipse cx="211.5" cy="549.6273" fill="#84BE84" rx="3" ry="3" style="stroke:#038048;stroke-width:1.0;"/><text fill="#000000" font-family="sans-serif" font-size="14" lengthAdjust="spacing" textLength="143" x="220.5" y="553.4183">getQuestionCourse()</text><ellipse cx="211.5" cy="566.1155" fill="#84BE84" rx="3" ry="3" style="stroke:#038048;stroke-width:1.0;"/><text fill="#000000" font-family="sans-serif" font-size="14" lengthAdjust="spacing" textLength="127" x="220.5" y="569.9066">getQuestionType()</text><ellipse cx="211.5" cy="582.6038" fill="#84BE84" rx="3" ry="3" style="stroke:#038048;stroke-width:1.0;"/><text fill="#000000" font-family="sans-serif" font-size="14" lengthAdjust="spacing" textLength="172" x="220.5" y="586.3948">getQuestionDescription()</text></g><!--class QuestionType--><g id="elem_QuestionType"><rect codeLine="45" fill="#F1F1F1" height="146.9297" id="QuestionType" rx="2.5" ry="2.5" style="stroke:#181818;stroke-width:0.5;" width="182" x="433.5" y="438.18"/><ellipse cx="473.25" cy="454.18" fill="#EB937F" rx="11" ry="11" style="stroke:#181818;stroke-width:1.0;"/><path d="M477.3643,460.18 L469.6445,460.18 L469.6445,447.7869 L477.3643,447.7869 L477.3643,449.9451 L472.0933,449.9451 L472.0933,452.618 L476.8662,452.618 L476.8662,454.7762 L472.0933,454.7762 L472.0933,458.0218 L477.3643,458.0218 Z " fill="#000000"/><text fill="#000000" font-family="sans-serif" font-size="14" lengthAdjust="spacing" textLength="95" x="492.75" y="459.471">QuestionType</text><line style="stroke:#181818;stroke-width:0.5;" x1="434.5" x2="614.5" y1="470.18" y2="470.18"/><text fill="#000000" font-family="sans-serif" font-size="14" lengthAdjust="spacing" textLength="75" x="439.5" y="487.7152">MATCHING</text><text fill="#000000" font-family="sans-serif" font-size="14" lengthAdjust="spacing" textLength="125" x="439.5" y="504.2034">MULTIPLE_CHOICE</text><text fill="#000000" font-family="sans-serif" font-size="14" lengthAdjust="spacing" textLength="111" x="439.5" y="520.6917">SHORT_ANSWER</text><text fill="#000000" font-family="sans-serif" font-size="14" lengthAdjust="spacing" textLength="80" x="439.5" y="537.18">NUMERICAL</text><text fill="#000000" font-family="sans-serif" font-size="14" lengthAdjust="spacing" textLength="170" x="439.5" y="553.6683">SELECT_MISSING_WORDS</text><text fill="#000000" font-family="sans-serif" font-size="14" lengthAdjust="spacing" textLength="84" x="439.5" y="570.1566">TRUE_FALSE</text><line style="stroke:#181818;stroke-width:0.5;" x1="434.5" x2="614.5" y1="577.1097" y2="577.1097"/></g><!--class QuestionRepository--><g id="elem_QuestionRepository"><rect codeLine="54" fill="#F1F1F1" height="80.9766" id="QuestionRepository" rx="2.5" ry="2.5" style="stroke:#181818;stroke-width:0.5;" width="173" x="651" y="471.15"/><ellipse cx="668.7" cy="487.15" fill="#ADD1B2" rx="11" ry="11" style="stroke:#181818;stroke-width:1.0;"/><path d="M671.6731,492.7931 Q671.0921,493.0919 670.4529,493.2413 Q669.8138,493.3907 669.1082,493.3907 Q666.6014,493.3907 665.2815,491.7389 Q663.9617,490.087 663.9617,486.9659 Q663.9617,483.8365 665.2815,482.1847 Q666.6014,480.5328 669.1082,480.5328 Q669.8138,480.5328 670.4612,480.6822 Q671.1087,480.8316 671.6731,481.1305 L671.6731,483.8531 Q671.0423,483.2721 670.4488,483.0023 Q669.8553,482.7325 669.2244,482.7325 Q667.8797,482.7325 667.1949,483.7992 Q666.5101,484.8658 666.5101,486.9659 Q666.5101,489.0577 667.1949,490.1244 Q667.8797,491.191 669.2244,491.191 Q669.8553,491.191 670.4488,490.9212 Q671.0423,490.6515 671.6731,490.0704 Z " fill="#000000"/><text fill="#000000" font-family="sans-serif" font-size="14" lengthAdjust="spacing" textLength="135" x="683.3" y="492.441">QuestionRepository</text><line style="stroke:#181818;stroke-width:0.5;" x1="652" x2="823" y1="503.15" y2="503.15"/><line style="stroke:#181818;stroke-width:0.5;" x1="652" x2="823" y1="511.15" y2="511.15"/><ellipse cx="662" cy="524.8941" fill="#84BE84" rx="3" ry="3" style="stroke:#038048;stroke-width:1.0;"/><text fill="#000000" font-family="sans-serif" font-size="14" lengthAdjust="spacing" textLength="40" x="671" y="528.6852">save()</text><ellipse cx="662" cy="541.3824" fill="#84BE84" rx="3" ry="3" style="stroke:#038048;stroke-width:1.0;"/><text fill="#000000" font-family="sans-serif" font-size="14" lengthAdjust="spacing" textLength="147" x="671" y="545.1734">findByQuestionType()</text></g><!--link Teacher to UpdateExamQuestionUI--><g id="link_Teacher_UpdateExamQuestionUI"><path codeLine="59" d="M436.89,55.4 C454.15,71.3 477.31,92.63 496.84,110.63 " fill="none" id="Teacher-to-UpdateExamQuestionUI" style="stroke:#181818;stroke-width:1.0;"/><polygon fill="#181818" points="500.21,113.65,496.3245,104.6,496.5415,110.2527,490.8888,110.4696,500.21,113.65" style="stroke:#181818;stroke-width:1.0;"/></g><!--link UpdateExamQuestionUI to UpdateExamQuestionController--><g id="link_UpdateExamQuestionUI_UpdateExamQuestionController"><path codeLine="60" d="M538.33,179.71 C539.73,195.23 541.48,214.61 543.17,233.41 " fill="none" id="UpdateExamQuestionUI-to-UpdateExamQuestionController" style="stroke:#181818;stroke-width:1.0;"/><polygon fill="#181818" points="543.69,238.23,546.878,228.9114,543.2476,233.2496,538.9094,229.6192,543.69,238.23" style="stroke:#181818;stroke-width:1.0;"/></g><!--link UpdateExamQuestionController to ListCoursesService--><g id="link_UpdateExamQuestionController_ListCoursesService"><path codeLine="61" d="M423.63,363.56 C417.87,365.79 412.14,367.92 406.5,369.93 C309.4,404.49 273.9,382.3 182.5,429.93 C163.79,439.68 145.49,453.61 129.97,467.16 " fill="none" id="UpdateExamQuestionController-to-ListCoursesService" style="stroke:#181818;stroke-width:1.0;"/><polygon fill="#181818" points="126.67,469.97,136.0598,466.9982,130.4133,466.6553,130.7562,461.0088,126.67,469.97" style="stroke:#181818;stroke-width:1.0;"/></g><!--link UpdateExamQuestionController to QuestionType--><g id="link_UpdateExamQuestionController_QuestionType"><path codeLine="62" d="M541.62,370.27 C539.23,389.9 536.57,411.68 534.08,432.12 " fill="none" id="UpdateExamQuestionController-to-QuestionType" style="stroke:#181818;stroke-width:1.0;"/><polygon fill="#181818" points="533.38,436.84,538.4325,428.3859,533.9808,431.8762,530.4904,427.4246,533.38,436.84" style="stroke:#181818;stroke-width:1.0;"/></g><!--link UpdateExamQuestionController to Question--><g id="link_UpdateExamQuestionController_Question"><path codeLine="63" d="M470.74,370.27 C449.27,387.87 425.69,407.2 403.06,425.75 " fill="none" id="UpdateExamQuestionController-to-Question" style="stroke:#181818;stroke-width:1.0;"/><polygon fill="#181818" points="399.55,429.45,409.047,426.841,403.4179,426.2815,403.9774,420.6524,399.55,429.45" style="stroke:#181818;stroke-width:1.0;"/></g><!--link UpdateExamQuestionController to UpdateExamQuestionService--><g id="link_UpdateExamQuestionController_UpdateExamQuestionService"><path codeLine="64" d="M675.33,355.34 C727.41,376.88 788.01,403.26 841.5,429.93 C864.61,441.46 889.2,455.13 911.21,467.91 " fill="none" id="UpdateExamQuestionController-to-UpdateExamQuestionService" style="stroke:#181818;stroke-width:1.0;"/><polygon fill="#181818" points="915.16,470.79,909.3867,462.8107,910.8365,468.2786,905.3685,469.7284,915.16,470.79" style="stroke:#181818;stroke-width:1.0;"/></g><!--link UpdateExamQuestionController to QuestionRepository--><g id="link_UpdateExamQuestionController_QuestionRepository"><path codeLine="65" d="M608.73,370.27 C637.55,401.69 671.46,438.65 697.24,466.76 " fill="none" id="UpdateExamQuestionController-to-QuestionRepository" style="stroke:#181818;stroke-width:1.0;"/><polygon fill="#181818" points="699.98,469.84,696.8373,460.506,696.5975,466.1578,690.9457,465.918,699.98,469.84" style="stroke:#181818;stroke-width:1.0;"/></g><!--link Teacher to AddExamQuestionUI--><g id="link_Teacher_AddExamQuestionUI"><path codeLine="67" d="M388.97,55.4 C373.66,71.3 353.12,92.63 335.79,110.63 " fill="none" id="Teacher-to-AddExamQuestionUI" style="stroke:#181818;stroke-width:1.0;"/><polygon fill="#181818" points="332.92,113.65,342.039,109.9291,336.3833,110.0436,336.2688,104.3879,332.92,113.65" style="stroke:#181818;stroke-width:1.0;"/></g><!--link AddExamQuestionUI to AddExamQuestionController--><g id="link_AddExamQuestionUI_AddExamQuestionController"><path codeLine="68" d="M296.04,179.71 C292.54,199.83 287.92,226.45 283.85,249.87 " fill="none" id="AddExamQuestionUI-to-AddExamQuestionController" style="stroke:#181818;stroke-width:1.0;"/><polygon fill="#181818" points="282.83,254.75,288.3129,246.5685,283.6867,249.8239,280.4312,245.1977,282.83,254.75" style="stroke:#181818;stroke-width:1.0;"/></g><!--link AddExamQuestionController to QuestionType--><g id="link_AddExamQuestionController_QuestionType"><path codeLine="69" d="M333.11,353.76 C362.4,377.76 398.52,407.38 431.47,434.39 " fill="none" id="AddExamQuestionController-to-QuestionType" style="stroke:#181818;stroke-width:1.0;"/><polygon fill="#181818" points="434.89,438.01,430.4432,429.2222,431.0151,434.85,425.3873,435.422,434.89,438.01" style="stroke:#181818;stroke-width:1.0;"/></g><!--link AddExamQuestionController to ListCoursesService--><g id="link_AddExamQuestionController_ListCoursesService"><path codeLine="70" d="M230.42,353.76 C199.16,387.84 157.52,433.23 127.07,466.42 " fill="none" id="AddExamQuestionController-to-ListCoursesService" style="stroke:#181818;stroke-width:1.0;"/><polygon fill="#181818" points="124.04,469.81,133.0743,465.888,127.4225,466.1278,127.1827,460.476,124.04,469.81" style="stroke:#181818;stroke-width:1.0;"/></g><!--link AddExamQuestionController to Question--><g id="link_AddExamQuestionController_Question"><path codeLine="71" d="M280.36,353.76 C282.91,374.68 285.99,399.86 288.91,423.86 " fill="none" id="AddExamQuestionController-to-Question" style="stroke:#181818;stroke-width:1.0;"/><polygon fill="#181818" points="289.61,428.61,292.5028,419.1956,289.0109,423.646,284.5604,420.1541,289.61,428.61" style="stroke:#181818;stroke-width:1.0;"/></g><!--SRC=[hLJBReCm4BpxAtniLUKNAZd4RP18Q7aeHuImao0vcDgG5bNzzpfW5n9UEPGJdfsTtHsp92oM4WOqJevKWAG-8KBmLtnwBwaiKfw5Dlm6K3rFXCiZ_tnu13z0KyESn0MTPO-HBPuLWZD6XKawqCBDgGgKGbAfaWsA63DPGPLVXRhu0BoiBW6KaKRKCCgw6qFg3kMaij0D-5ISquHETnSprY8JrlJ5PbgCsvcrzF0D_OEDYQ0ZRXYiKLx0ZqwwXfAwZ3xiKsPU2PM9IFCBkwa2EpDVZmhdxt7LgZNzqQmymMwIddw30cjjRr-RG-W4zfk38sljsXQkCN_jUa64jluEUpMm3JVOiotaD67iO2k8DhRlAvLevtehlmu4NeYZ5-Juk6-FHtCkquABojo1ZCz_O-pJZ2ohcm6LXbuyk5Wy3-uI608LUMgLm5HGvVO_xxcCRj_tSkTue-jnRu7My6iRUtylq4CKRNI3m6ZareWfue37z-Y2Nm00]--></g></svg>