<?xml version="1.0" encoding="us-ascii" standalone="no"?><svg xmlns="http://www.w3.org/2000/svg" xmlns:xlink="http://www.w3.org/1999/xlink" contentStyleType="text/css" height="781px" preserveAspectRatio="none" style="width:2290px;height:781px;background:#FFFFFF;" version="1.1" viewBox="0 0 2290 781" width="2290px" zoomAndPan="magnify"><defs/><g><rect fill="#FFFFFF" height="234.4844" style="stroke:#181818;stroke-width:1.0;" width="10" x="267" y="112.7988"/><rect fill="#FFFFFF" height="315.1055" style="stroke:#181818;stroke-width:1.0;" width="10" x="267" y="376.5938"/><rect fill="#FFFFFF" height="189.8633" style="stroke:#181818;stroke-width:1.0;" width="10" x="272" y="501.8359"/><rect fill="#FFFFFF" height="155.5527" style="stroke:#181818;stroke-width:1.0;" width="10" x="277" y="536.1465"/><rect fill="#FFFFFF" height="549.5898" style="stroke:#181818;stroke-width:1.0;" width="10" x="989" y="142.1094"/><rect fill="#FFFFFF" height="146.5527" style="stroke:#181818;stroke-width:1.0;" width="10" x="994" y="171.4199"/><rect fill="#FFFFFF" height="285.7949" style="stroke:#181818;stroke-width:1.0;" width="10" x="994" y="405.9043"/><rect fill="#FFFFFF" height="126.2422" style="stroke:#181818;stroke-width:1.0;" width="10" x="999" y="565.457"/><rect fill="#FFFFFF" height="87.9316" style="stroke:#181818;stroke-width:1.0;" width="10" x="1198.5" y="200.7305"/><rect fill="#FFFFFF" height="29.3105" style="stroke:#181818;stroke-width:1.0;" width="10" x="1351.5" y="435.2148"/><rect fill="#FFFFFF" height="29.3105" style="stroke:#181818;stroke-width:1.0;" width="10" x="1554.5" y="594.7676"/><rect fill="#FFFFFF" height="9" style="stroke:#181818;stroke-width:1.0;" width="10" x="2017" y="682.6992"/><rect fill="#FFFFFF" height="29.3105" style="stroke:#181818;stroke-width:1.0;" width="10" x="2220" y="230.041"/><line style="stroke:#181818;stroke-width:0.5;stroke-dasharray:5.0,5.0;" x1="38" x2="38" y1="81.4883" y2="700.6992"/><line style="stroke:#181818;stroke-width:0.5;stroke-dasharray:5.0,5.0;" x1="272" x2="272" y1="81.4883" y2="700.6992"/><line style="stroke:#181818;stroke-width:0.5;stroke-dasharray:5.0,5.0;" x1="994" x2="994" y1="81.4883" y2="700.6992"/><line style="stroke:#181818;stroke-width:0.5;stroke-dasharray:5.0,5.0;" x1="1203" x2="1203" y1="81.4883" y2="700.6992"/><line style="stroke:#181818;stroke-width:0.5;stroke-dasharray:5.0,5.0;" x1="1356" x2="1356" y1="81.4883" y2="700.6992"/><line style="stroke:#181818;stroke-width:0.5;stroke-dasharray:5.0,5.0;" x1="1559" x2="1559" y1="81.4883" y2="700.6992"/><line style="stroke:#181818;stroke-width:0.5;stroke-dasharray:5.0,5.0;" x1="1786" x2="1786" y1="81.4883" y2="700.6992"/><line style="stroke:#181818;stroke-width:0.5;stroke-dasharray:5.0,5.0;" x1="2022" x2="2022" y1="81.4883" y2="700.6992"/><line style="stroke:#181818;stroke-width:0.5;stroke-dasharray:5.0,5.0;" x1="2225" x2="2225" y1="81.4883" y2="700.6992"/><text fill="#000000" font-family="sans-serif" font-size="14" lengthAdjust="spacing" textLength="60" x="5" y="78.5352">Manager</text><ellipse cx="38" cy="13.5" fill="#E2E2F0" rx="8" ry="8" style="stroke:#181818;stroke-width:0.5;"/><path d="M38,21.5 L38,48.5 M25,29.5 L51,29.5 M38,48.5 L25,63.5 M38,48.5 L51,63.5 " fill="none" style="stroke:#181818;stroke-width:0.5;"/><text fill="#000000" font-family="sans-serif" font-size="14" lengthAdjust="spacing" textLength="60" x="5" y="713.2344">Manager</text><ellipse cx="38" cy="724.6875" fill="#E2E2F0" rx="8" ry="8" style="stroke:#181818;stroke-width:0.5;"/><path d="M38,732.6875 L38,759.6875 M25,740.6875 L51,740.6875 M38,759.6875 L25,774.6875 M38,759.6875 L51,774.6875 " fill="none" style="stroke:#181818;stroke-width:0.5;"/><rect fill="#E2E2F0" height="30.4883" rx="2.5" ry="2.5" style="stroke:#181818;stroke-width:0.5;" width="202" x="171" y="50"/><text fill="#000000" font-family="sans-serif" font-size="14" lengthAdjust="spacing" textLength="188" x="178" y="70.5352">ApproveRejectEnrollmentUI</text><rect fill="#E2E2F0" height="30.4883" rx="2.5" ry="2.5" style="stroke:#181818;stroke-width:0.5;" width="202" x="171" y="699.6992"/><text fill="#000000" font-family="sans-serif" font-size="14" lengthAdjust="spacing" textLength="188" x="178" y="720.2344">ApproveRejectEnrollmentUI</text><rect fill="#E2E2F0" height="30.4883" rx="2.5" ry="2.5" style="stroke:#181818;stroke-width:0.5;" width="258" x="865" y="50"/><text fill="#000000" font-family="sans-serif" font-size="14" lengthAdjust="spacing" textLength="244" x="872" y="70.5352">ApproveRejectEnrollmentController</text><rect fill="#E2E2F0" height="30.4883" rx="2.5" ry="2.5" style="stroke:#181818;stroke-width:0.5;" width="258" x="865" y="699.6992"/><text fill="#000000" font-family="sans-serif" font-size="14" lengthAdjust="spacing" textLength="244" x="872" y="720.2344">ApproveRejectEnrollmentController</text><rect fill="#E2E2F0" height="30.4883" rx="2.5" ry="2.5" style="stroke:#181818;stroke-width:0.5;" width="141" x="1133" y="50"/><text fill="#000000" font-family="sans-serif" font-size="14" lengthAdjust="spacing" textLength="127" x="1140" y="70.5352">ListCoursesService</text><rect fill="#E2E2F0" height="30.4883" rx="2.5" ry="2.5" style="stroke:#181818;stroke-width:0.5;" width="141" x="1133" y="699.6992"/><text fill="#000000" font-family="sans-serif" font-size="14" lengthAdjust="spacing" textLength="127" x="1140" y="720.2344">ListCoursesService</text><rect fill="#E2E2F0" height="30.4883" rx="2.5" ry="2.5" style="stroke:#181818;stroke-width:0.5;" width="145" x="1284" y="50"/><text fill="#000000" font-family="sans-serif" font-size="14" lengthAdjust="spacing" textLength="131" x="1291" y="70.5352">ListStudentsService</text><rect fill="#E2E2F0" height="30.4883" rx="2.5" ry="2.5" style="stroke:#181818;stroke-width:0.5;" width="145" x="1284" y="699.6992"/><text fill="#000000" font-family="sans-serif" font-size="14" lengthAdjust="spacing" textLength="131" x="1291" y="720.2344">ListStudentsService</text><rect fill="#E2E2F0" height="30.4883" rx="2.5" ry="2.5" style="stroke:#181818;stroke-width:0.5;" width="241" x="1439" y="50"/><text fill="#000000" font-family="sans-serif" font-size="14" lengthAdjust="spacing" textLength="227" x="1446" y="70.5352">CourseEnrollmentRequestService</text><rect fill="#E2E2F0" height="30.4883" rx="2.5" ry="2.5" style="stroke:#181818;stroke-width:0.5;" width="241" x="1439" y="699.6992"/><text fill="#000000" font-family="sans-serif" font-size="14" lengthAdjust="spacing" textLength="227" x="1446" y="720.2344">CourseEnrollmentRequestService</text><rect fill="#E2E2F0" height="30.4883" rx="2.5" ry="2.5" style="stroke:#181818;stroke-width:0.5;" width="193" x="1690" y="50"/><text fill="#000000" font-family="sans-serif" font-size="14" lengthAdjust="spacing" textLength="179" x="1697" y="70.5352">CourseEnrollmentRequest</text><rect fill="#E2E2F0" height="30.4883" rx="2.5" ry="2.5" style="stroke:#181818;stroke-width:0.5;" width="193" x="1690" y="699.6992"/><text fill="#000000" font-family="sans-serif" font-size="14" lengthAdjust="spacing" textLength="179" x="1697" y="720.2344">CourseEnrollmentRequest</text><text fill="#000000" font-family="sans-serif" font-size="14" lengthAdjust="spacing" textLength="252" x="1893" y="78.5352">CourseEnrollmentRequestRepository</text><path d="M2004,29 C2004,19 2022,19 2022,19 C2022,19 2040,19 2040,29 L2040,55 C2040,65 2022,65 2022,65 C2022,65 2004,65 2004,55 L2004,29 " fill="#E2E2F0" style="stroke:#181818;stroke-width:1.5;"/><path d="M2004,29 C2004,39 2022,39 2022,39 C2022,39 2040,39 2040,29 " fill="none" style="stroke:#181818;stroke-width:1.5;"/><text fill="#000000" font-family="sans-serif" font-size="14" lengthAdjust="spacing" textLength="252" x="1893" y="713.2344">CourseEnrollmentRequestRepository</text><path d="M2004,726.1875 C2004,716.1875 2022,716.1875 2022,716.1875 C2022,716.1875 2040,716.1875 2040,726.1875 L2040,752.1875 C2040,762.1875 2022,762.1875 2022,762.1875 C2022,762.1875 2004,762.1875 2004,752.1875 L2004,726.1875 " fill="#E2E2F0" style="stroke:#181818;stroke-width:1.5;"/><path d="M2004,726.1875 C2004,736.1875 2022,736.1875 2022,736.1875 C2022,736.1875 2040,736.1875 2040,726.1875 " fill="none" style="stroke:#181818;stroke-width:1.5;"/><text fill="#000000" font-family="sans-serif" font-size="14" lengthAdjust="spacing" textLength="122" x="2161" y="78.5352">CourseRepository</text><path d="M2207,29 C2207,19 2225,19 2225,19 C2225,19 2243,19 2243,29 L2243,55 C2243,65 2225,65 2225,65 C2225,65 2207,65 2207,55 L2207,29 " fill="#E2E2F0" style="stroke:#181818;stroke-width:1.5;"/><path d="M2207,29 C2207,39 2225,39 2225,39 C2225,39 2243,39 2243,29 " fill="none" style="stroke:#181818;stroke-width:1.5;"/><text fill="#000000" font-family="sans-serif" font-size="14" lengthAdjust="spacing" textLength="122" x="2161" y="713.2344">CourseRepository</text><path d="M2207,726.1875 C2207,716.1875 2225,716.1875 2225,716.1875 C2225,716.1875 2243,716.1875 2243,726.1875 L2243,752.1875 C2243,762.1875 2225,762.1875 2225,762.1875 C2225,762.1875 2207,762.1875 2207,752.1875 L2207,726.1875 " fill="#E2E2F0" style="stroke:#181818;stroke-width:1.5;"/><path d="M2207,726.1875 C2207,736.1875 2225,736.1875 2225,736.1875 C2225,736.1875 2243,736.1875 2243,726.1875 " fill="none" style="stroke:#181818;stroke-width:1.5;"/><rect fill="#FFFFFF" height="234.4844" style="stroke:#181818;stroke-width:1.0;" width="10" x="267" y="112.7988"/><rect fill="#FFFFFF" height="315.1055" style="stroke:#181818;stroke-width:1.0;" width="10" x="267" y="376.5938"/><rect fill="#FFFFFF" height="189.8633" style="stroke:#181818;stroke-width:1.0;" width="10" x="272" y="501.8359"/><rect fill="#FFFFFF" height="155.5527" style="stroke:#181818;stroke-width:1.0;" width="10" x="277" y="536.1465"/><rect fill="#FFFFFF" height="549.5898" style="stroke:#181818;stroke-width:1.0;" width="10" x="989" y="142.1094"/><rect fill="#FFFFFF" height="146.5527" style="stroke:#181818;stroke-width:1.0;" width="10" x="994" y="171.4199"/><rect fill="#FFFFFF" height="285.7949" style="stroke:#181818;stroke-width:1.0;" width="10" x="994" y="405.9043"/><rect fill="#FFFFFF" height="126.2422" style="stroke:#181818;stroke-width:1.0;" width="10" x="999" y="565.457"/><rect fill="#FFFFFF" height="87.9316" style="stroke:#181818;stroke-width:1.0;" width="10" x="1198.5" y="200.7305"/><rect fill="#FFFFFF" height="29.3105" style="stroke:#181818;stroke-width:1.0;" width="10" x="1351.5" y="435.2148"/><rect fill="#FFFFFF" height="29.3105" style="stroke:#181818;stroke-width:1.0;" width="10" x="1554.5" y="594.7676"/><rect fill="#FFFFFF" height="9" style="stroke:#181818;stroke-width:1.0;" width="10" x="2017" y="682.6992"/><rect fill="#FFFFFF" height="29.3105" style="stroke:#181818;stroke-width:1.0;" width="10" x="2220" y="230.041"/><polygon fill="#181818" points="255,108.7988,265,112.7988,255,116.7988,259,112.7988" style="stroke:#181818;stroke-width:1.0;"/><line style="stroke:#181818;stroke-width:1.0;" x1="38" x2="261" y1="112.7988" y2="112.7988"/><text fill="#000000" font-family="sans-serif" font-size="13" lengthAdjust="spacing" textLength="210" x="45" y="108.0566">Asks to see enrollments requests</text><polygon fill="#181818" points="977,138.1094,987,142.1094,977,146.1094,981,142.1094" style="stroke:#181818;stroke-width:1.0;"/><line style="stroke:#181818;stroke-width:1.0;" x1="277" x2="983" y1="142.1094" y2="142.1094"/><text fill="#000000" font-family="sans-serif" font-size="13" lengthAdjust="spacing" textLength="38" x="284" y="137.3672">create</text><polygon fill="#181818" points="982,167.4199,992,171.4199,982,175.4199,986,171.4199" style="stroke:#181818;stroke-width:1.0;"/><line style="stroke:#181818;stroke-width:1.0;" x1="277" x2="988" y1="171.4199" y2="171.4199"/><text fill="#000000" font-family="sans-serif" font-size="13" lengthAdjust="spacing" textLength="147" x="284" y="166.6777">getEnrollmentCourses()</text><polygon fill="#181818" points="1186.5,196.7305,1196.5,200.7305,1186.5,204.7305,1190.5,200.7305" style="stroke:#181818;stroke-width:1.0;"/><line style="stroke:#181818;stroke-width:1.0;" x1="1004" x2="1192.5" y1="200.7305" y2="200.7305"/><text fill="#000000" font-family="sans-serif" font-size="13" lengthAdjust="spacing" textLength="147" x="1011" y="195.9883">getEnrollmentCourses()</text><polygon fill="#181818" points="2208,226.041,2218,230.041,2208,234.041,2212,230.041" style="stroke:#181818;stroke-width:1.0;"/><line style="stroke:#181818;stroke-width:1.0;" x1="1208.5" x2="2214" y1="230.041" y2="230.041"/><text fill="#000000" font-family="sans-serif" font-size="13" lengthAdjust="spacing" textLength="147" x="1215.5" y="225.2988">getEnrollmentCourses()</text><polygon fill="#181818" points="1219.5,255.3516,1209.5,259.3516,1219.5,263.3516,1215.5,259.3516" style="stroke:#181818;stroke-width:1.0;"/><line style="stroke:#181818;stroke-width:1.0;stroke-dasharray:2.0,2.0;" x1="1213.5" x2="2224" y1="259.3516" y2="259.3516"/><text fill="#000000" font-family="sans-serif" font-size="13" lengthAdjust="spacing" textLength="153" x="1225.5" y="254.6094">lisfOfEnrollStateCourses</text><polygon fill="#181818" points="1015,284.6621,1005,288.6621,1015,292.6621,1011,288.6621" style="stroke:#181818;stroke-width:1.0;"/><line style="stroke:#181818;stroke-width:1.0;stroke-dasharray:2.0,2.0;" x1="1009" x2="1202.5" y1="288.6621" y2="288.6621"/><text fill="#000000" font-family="sans-serif" font-size="13" lengthAdjust="spacing" textLength="153" x="1021" y="283.9199">lisfOfEnrollStateCourses</text><polygon fill="#181818" points="288,313.9727,278,317.9727,288,321.9727,284,317.9727" style="stroke:#181818;stroke-width:1.0;"/><line style="stroke:#181818;stroke-width:1.0;stroke-dasharray:2.0,2.0;" x1="282" x2="988" y1="317.9727" y2="317.9727"/><text fill="#000000" font-family="sans-serif" font-size="13" lengthAdjust="spacing" textLength="153" x="294" y="313.2305">lisfOfEnrollStateCourses</text><polygon fill="#181818" points="49,343.2832,39,347.2832,49,351.2832,45,347.2832" style="stroke:#181818;stroke-width:1.0;"/><line style="stroke:#181818;stroke-width:1.0;stroke-dasharray:2.0,2.0;" x1="43" x2="271" y1="347.2832" y2="347.2832"/><text fill="#000000" font-family="sans-serif" font-size="13" lengthAdjust="spacing" textLength="145" x="55" y="342.541">Shows a list of courses</text><polygon fill="#181818" points="255,372.5938,265,376.5938,255,380.5938,259,376.5938" style="stroke:#181818;stroke-width:1.0;"/><line style="stroke:#181818;stroke-width:1.0;" x1="38" x2="261" y1="376.5938" y2="376.5938"/><text fill="#000000" font-family="sans-serif" font-size="13" lengthAdjust="spacing" textLength="100" x="45" y="371.8516">Chooses course</text><polygon fill="#181818" points="982,401.9043,992,405.9043,982,409.9043,986,405.9043" style="stroke:#181818;stroke-width:1.0;"/><line style="stroke:#181818;stroke-width:1.0;" x1="277" x2="988" y1="405.9043" y2="405.9043"/><text fill="#000000" font-family="sans-serif" font-size="13" lengthAdjust="spacing" textLength="217" x="284" y="401.1621">studentsCourseEnrollment(course)</text><polygon fill="#181818" points="1339.5,431.2148,1349.5,435.2148,1339.5,439.2148,1343.5,435.2148" style="stroke:#181818;stroke-width:1.0;"/><line style="stroke:#181818;stroke-width:1.0;" x1="1004" x2="1345.5" y1="435.2148" y2="435.2148"/><text fill="#000000" font-family="sans-serif" font-size="13" lengthAdjust="spacing" textLength="171" x="1011" y="430.4727">allUsers(), findAllStudents()</text><polygon fill="#181818" points="1015,460.5254,1005,464.5254,1015,468.5254,1011,464.5254" style="stroke:#181818;stroke-width:1.0;"/><line style="stroke:#181818;stroke-width:1.0;stroke-dasharray:2.0,2.0;" x1="1009" x2="1355.5" y1="464.5254" y2="464.5254"/><text fill="#000000" font-family="sans-serif" font-size="13" lengthAdjust="spacing" textLength="70" x="1021" y="459.7832">allStudents</text><line style="stroke:#181818;stroke-width:1.0;" x1="277" x2="324" y1="488.8359" y2="488.8359"/><line style="stroke:#181818;stroke-width:1.0;" x1="324" x2="324" y1="488.8359" y2="501.8359"/><line style="stroke:#181818;stroke-width:1.0;" x1="283" x2="324" y1="501.8359" y2="501.8359"/><polygon fill="#181818" points="293,497.8359,283,501.8359,293,505.8359,289,501.8359" style="stroke:#181818;stroke-width:1.0;"/><text fill="#000000" font-family="sans-serif" font-size="13" lengthAdjust="spacing" textLength="93" x="289" y="484.0938">showAllUsers()</text><polygon fill="#181818" points="265,532.1465,275,536.1465,265,540.1465,269,536.1465" style="stroke:#181818;stroke-width:1.0;"/><line style="stroke:#181818;stroke-width:1.0;" x1="38" x2="271" y1="536.1465" y2="536.1465"/><text fill="#000000" font-family="sans-serif" font-size="13" lengthAdjust="spacing" textLength="93" x="45" y="531.4043">approve, reject</text><polygon fill="#181818" points="987,561.457,997,565.457,987,569.457,991,565.457" style="stroke:#181818;stroke-width:1.0;"/><line style="stroke:#181818;stroke-width:1.0;" x1="287" x2="993" y1="565.457" y2="565.457"/><text fill="#000000" font-family="sans-serif" font-size="13" lengthAdjust="spacing" textLength="678" x="294" y="560.7148">approveStudentsEnrollment(approvals,selectedCourse), rejectStudentsEnrollment(rejections,selectedCourse)</text><polygon fill="#181818" points="1542.5,590.7676,1552.5,594.7676,1542.5,598.7676,1546.5,594.7676" style="stroke:#181818;stroke-width:1.0;"/><line style="stroke:#181818;stroke-width:1.0;" x1="1009" x2="1548.5" y1="594.7676" y2="594.7676"/><text fill="#000000" font-family="sans-serif" font-size="13" lengthAdjust="spacing" textLength="221" x="1016" y="590.0254">getStudentEnrollment(user, course)</text><polygon fill="#181818" points="1774.5,620.0781,1784.5,624.0781,1774.5,628.0781,1778.5,624.0781" style="stroke:#181818;stroke-width:1.0;"/><line style="stroke:#181818;stroke-width:1.0;stroke-dasharray:2.0,2.0;" x1="1559.5" x2="1780.5" y1="624.0781" y2="624.0781"/><text fill="#000000" font-family="sans-serif" font-size="13" lengthAdjust="spacing" textLength="153" x="1566.5" y="619.3359">approveEnrollment(user)</text><polygon fill="#181818" points="1020,649.3887,1010,653.3887,1020,657.3887,1016,653.3887" style="stroke:#181818;stroke-width:1.0;"/><line style="stroke:#181818;stroke-width:1.0;stroke-dasharray:2.0,2.0;" x1="1014" x2="1558.5" y1="653.3887" y2="653.3887"/><text fill="#000000" font-family="sans-serif" font-size="13" lengthAdjust="spacing" textLength="91" x="1026" y="648.6465">requestUpdate</text><polygon fill="#181818" points="2005,678.6992,2015,682.6992,2005,686.6992,2009,682.6992" style="stroke:#181818;stroke-width:1.0;"/><line style="stroke:#181818;stroke-width:1.0;" x1="1009" x2="2011" y1="682.6992" y2="682.6992"/><text fill="#000000" font-family="sans-serif" font-size="13" lengthAdjust="spacing" textLength="127" x="1016" y="677.957">save(requestUpdate)</text><!--SRC=[ZLBBZjim3BpxAuYzD07YpTs7087XGu062rZm1x0sawXr95UKK_JlIrbADeyQM9yiScOqG_7RoVk1Y_LwwD7uyTo_j_QyPlezacafxpGU7Pwp34TliVNwWfx06YcqtZhOey4ZEK26VJQWyxhLWmZ1stOOdBrGJJ-fzPLnjk_FP7opUmlWPlSbT6cD3__a9bRvIFgkMH2ZOs95xg9RYYZr2bD-x4Jl0QUUS57gy_8w346eTvJgQvI8pJhq-0EPPd4r3PQrpF7lnAXV64-0iixas-URPbV0bdynU0jC17HJPd1HcxDcbs_AedKaJvOEHteOxZIwnJ8hfQTccqgwzMotpYToh_dmSOW8vUN61CawkgsDs1Unu0DcuMKUqyq294Y-sHUWJlOF0mQW1tk0DlNJTCgJjN9CvHGVEAt1ytii8coQX585ODytJ4u2hk2WJRSD9Y9LCgif11JuMPqka7jPN6rlvAiPZDkzahS9-vtSfEfLuivDx63FAwPU2DH5mykhmdyuiQ6jUI65KDNql8bsnnh5w0gkwQiGhBhvVSAblemnhLWpT66rHBuk62-qUAWlity0]--></g></svg>