<?xml version="1.0" encoding="us-ascii" standalone="no"?><svg xmlns="http://www.w3.org/2000/svg" xmlns:xlink="http://www.w3.org/1999/xlink" contentStyleType="text/css" height="829px" preserveAspectRatio="none" style="width:1774px;height:829px;background:#FFFFFF;" version="1.1" viewBox="0 0 1774 829" width="1774px" zoomAndPan="magnify"><defs/><g><rect fill="#FFFFFF" height="205.1738" style="stroke:#181818;stroke-width:1.0;" width="10" x="282" y="112.7988"/><rect fill="#FFFFFF" height="205.1738" style="stroke:#181818;stroke-width:1.0;" width="10" x="282" y="347.2832"/><rect fill="#FFFFFF" height="133.2422" style="stroke:#181818;stroke-width:1.0;" width="10" x="282" y="606.0781"/><rect fill="#FFFFFF" height="597.2109" style="stroke:#181818;stroke-width:1.0;" width="10" x="633" y="142.1094"/><rect fill="#FFFFFF" height="117.2422" style="stroke:#181818;stroke-width:1.0;" width="10" x="638" y="171.4199"/><rect fill="#FFFFFF" height="146.5527" style="stroke:#181818;stroke-width:1.0;" width="10" x="638" y="376.5938"/><rect fill="#FFFFFF" height="103.9316" style="stroke:#181818;stroke-width:1.0;" width="10" x="638" y="635.3887"/><rect fill="#FFFFFF" height="87.9316" style="stroke:#181818;stroke-width:1.0;" width="10" x="890" y="405.9043"/><rect fill="#FFFFFF" height="58.6211" style="stroke:#181818;stroke-width:1.0;" width="10" x="1088.5" y="200.7305"/><rect fill="#FFFFFF" height="29.3105" style="stroke:#181818;stroke-width:1.0;" width="10" x="1265.5" y="664.6992"/><rect fill="#FFFFFF" height="29.3105" style="stroke:#181818;stroke-width:1.0;" width="10" x="1501" y="435.2148"/><rect fill="#FFFFFF" height="16" style="stroke:#181818;stroke-width:1.0;" width="10" x="1501" y="723.3203"/><rect fill="#FFFFFF" height="509.2793" style="stroke:#181818;stroke-width:1.0;" width="10" x="1704" y="230.041"/><rect fill="none" height="163.8633" style="stroke:#000000;stroke-width:1.5;" width="1635" x="10" y="567.457"/><line style="stroke:#181818;stroke-width:0.5;stroke-dasharray:5.0,5.0;" x1="53" x2="53" y1="81.4883" y2="748.3203"/><line style="stroke:#181818;stroke-width:0.5;stroke-dasharray:5.0,5.0;" x1="287" x2="287" y1="81.4883" y2="748.3203"/><line style="stroke:#181818;stroke-width:0.5;stroke-dasharray:5.0,5.0;" x1="638" x2="638" y1="81.4883" y2="748.3203"/><line style="stroke:#181818;stroke-width:0.5;stroke-dasharray:5.0,5.0;" x1="895" x2="895" y1="81.4883" y2="748.3203"/><line style="stroke:#181818;stroke-width:0.5;stroke-dasharray:5.0,5.0;" x1="1093" x2="1093" y1="81.4883" y2="748.3203"/><line style="stroke:#181818;stroke-width:0.5;stroke-dasharray:5.0,5.0;" x1="1270" x2="1270" y1="81.4883" y2="748.3203"/><line style="stroke:#181818;stroke-width:0.5;stroke-dasharray:5.0,5.0;" x1="1506" x2="1506" y1="81.4883" y2="748.3203"/><line style="stroke:#181818;stroke-width:0.5;stroke-dasharray:5.0,5.0;" x1="1709" x2="1709" y1="81.4883" y2="748.3203"/><text fill="#000000" font-family="sans-serif" font-size="14" lengthAdjust="spacing" textLength="60" x="20" y="78.5352">Manager</text><ellipse cx="53" cy="13.5" fill="#E2E2F0" rx="8" ry="8" style="stroke:#181818;stroke-width:0.5;"/><path d="M53,21.5 L53,48.5 M40,29.5 L66,29.5 M53,48.5 L40,63.5 M53,48.5 L66,63.5 " fill="none" style="stroke:#181818;stroke-width:0.5;"/><text fill="#000000" font-family="sans-serif" font-size="14" lengthAdjust="spacing" textLength="60" x="20" y="760.8555">Manager</text><ellipse cx="53" cy="772.3086" fill="#E2E2F0" rx="8" ry="8" style="stroke:#181818;stroke-width:0.5;"/><path d="M53,780.3086 L53,807.3086 M40,788.3086 L66,788.3086 M53,807.3086 L40,822.3086 M53,807.3086 L66,822.3086 " fill="none" style="stroke:#181818;stroke-width:0.5;"/><rect fill="#E2E2F0" height="30.4883" rx="2.5" ry="2.5" style="stroke:#181818;stroke-width:0.5;" width="202" x="186" y="50"/><text fill="#000000" font-family="sans-serif" font-size="14" lengthAdjust="spacing" textLength="188" x="193" y="70.5352">ApproveRejectEnrollmentUI</text><rect fill="#E2E2F0" height="30.4883" rx="2.5" ry="2.5" style="stroke:#181818;stroke-width:0.5;" width="202" x="186" y="747.3203"/><text fill="#000000" font-family="sans-serif" font-size="14" lengthAdjust="spacing" textLength="188" x="193" y="767.8555">ApproveRejectEnrollmentUI</text><rect fill="#E2E2F0" height="30.4883" rx="2.5" ry="2.5" style="stroke:#181818;stroke-width:0.5;" width="258" x="509" y="50"/><text fill="#000000" font-family="sans-serif" font-size="14" lengthAdjust="spacing" textLength="244" x="516" y="70.5352">ApproveRejectEnrollmentController</text><rect fill="#E2E2F0" height="30.4883" rx="2.5" ry="2.5" style="stroke:#181818;stroke-width:0.5;" width="258" x="509" y="747.3203"/><text fill="#000000" font-family="sans-serif" font-size="14" lengthAdjust="spacing" textLength="244" x="516" y="767.8555">ApproveRejectEnrollmentController</text><rect fill="#E2E2F0" height="30.4883" rx="2.5" ry="2.5" style="stroke:#181818;stroke-width:0.5;" width="236" x="777" y="50"/><text fill="#000000" font-family="sans-serif" font-size="14" lengthAdjust="spacing" textLength="222" x="784" y="70.5352">ApproveRejectEnrollmentService</text><rect fill="#E2E2F0" height="30.4883" rx="2.5" ry="2.5" style="stroke:#181818;stroke-width:0.5;" width="236" x="777" y="747.3203"/><text fill="#000000" font-family="sans-serif" font-size="14" lengthAdjust="spacing" textLength="222" x="784" y="767.8555">ApproveRejectEnrollmentService</text><rect fill="#E2E2F0" height="30.4883" rx="2.5" ry="2.5" style="stroke:#181818;stroke-width:0.5;" width="141" x="1023" y="50"/><text fill="#000000" font-family="sans-serif" font-size="14" lengthAdjust="spacing" textLength="127" x="1030" y="70.5352">ListCoursesService</text><rect fill="#E2E2F0" height="30.4883" rx="2.5" ry="2.5" style="stroke:#181818;stroke-width:0.5;" width="141" x="1023" y="747.3203"/><text fill="#000000" font-family="sans-serif" font-size="14" lengthAdjust="spacing" textLength="127" x="1030" y="767.8555">ListCoursesService</text><rect fill="#E2E2F0" height="30.4883" rx="2.5" ry="2.5" style="stroke:#181818;stroke-width:0.5;" width="193" x="1174" y="50"/><text fill="#000000" font-family="sans-serif" font-size="14" lengthAdjust="spacing" textLength="179" x="1181" y="70.5352">CourseEnrollmentRequest</text><rect fill="#E2E2F0" height="30.4883" rx="2.5" ry="2.5" style="stroke:#181818;stroke-width:0.5;" width="193" x="1174" y="747.3203"/><text fill="#000000" font-family="sans-serif" font-size="14" lengthAdjust="spacing" textLength="179" x="1181" y="767.8555">CourseEnrollmentRequest</text><text fill="#000000" font-family="sans-serif" font-size="14" lengthAdjust="spacing" textLength="252" x="1377" y="78.5352">CourseEnrollmentRequestRepository</text><path d="M1488,29 C1488,19 1506,19 1506,19 C1506,19 1524,19 1524,29 L1524,55 C1524,65 1506,65 1506,65 C1506,65 1488,65 1488,55 L1488,29 " fill="#E2E2F0" style="stroke:#181818;stroke-width:1.5;"/><path d="M1488,29 C1488,39 1506,39 1506,39 C1506,39 1524,39 1524,29 " fill="none" style="stroke:#181818;stroke-width:1.5;"/><text fill="#000000" font-family="sans-serif" font-size="14" lengthAdjust="spacing" textLength="252" x="1377" y="760.8555">CourseEnrollmentRequestRepository</text><path d="M1488,773.8086 C1488,763.8086 1506,763.8086 1506,763.8086 C1506,763.8086 1524,763.8086 1524,773.8086 L1524,799.8086 C1524,809.8086 1506,809.8086 1506,809.8086 C1506,809.8086 1488,809.8086 1488,799.8086 L1488,773.8086 " fill="#E2E2F0" style="stroke:#181818;stroke-width:1.5;"/><path d="M1488,773.8086 C1488,783.8086 1506,783.8086 1506,783.8086 C1506,783.8086 1524,783.8086 1524,773.8086 " fill="none" style="stroke:#181818;stroke-width:1.5;"/><text fill="#000000" font-family="sans-serif" font-size="14" lengthAdjust="spacing" textLength="122" x="1645" y="78.5352">CourseRepository</text><path d="M1691,29 C1691,19 1709,19 1709,19 C1709,19 1727,19 1727,29 L1727,55 C1727,65 1709,65 1709,65 C1709,65 1691,65 1691,55 L1691,29 " fill="#E2E2F0" style="stroke:#181818;stroke-width:1.5;"/><path d="M1691,29 C1691,39 1709,39 1709,39 C1709,39 1727,39 1727,29 " fill="none" style="stroke:#181818;stroke-width:1.5;"/><text fill="#000000" font-family="sans-serif" font-size="14" lengthAdjust="spacing" textLength="122" x="1645" y="760.8555">CourseRepository</text><path d="M1691,773.8086 C1691,763.8086 1709,763.8086 1709,763.8086 C1709,763.8086 1727,763.8086 1727,773.8086 L1727,799.8086 C1727,809.8086 1709,809.8086 1709,809.8086 C1709,809.8086 1691,809.8086 1691,799.8086 L1691,773.8086 " fill="#E2E2F0" style="stroke:#181818;stroke-width:1.5;"/><path d="M1691,773.8086 C1691,783.8086 1709,783.8086 1709,783.8086 C1709,783.8086 1727,783.8086 1727,773.8086 " fill="none" style="stroke:#181818;stroke-width:1.5;"/><rect fill="#FFFFFF" height="205.1738" style="stroke:#181818;stroke-width:1.0;" width="10" x="282" y="112.7988"/><rect fill="#FFFFFF" height="205.1738" style="stroke:#181818;stroke-width:1.0;" width="10" x="282" y="347.2832"/><rect fill="#FFFFFF" height="133.2422" style="stroke:#181818;stroke-width:1.0;" width="10" x="282" y="606.0781"/><rect fill="#FFFFFF" height="597.2109" style="stroke:#181818;stroke-width:1.0;" width="10" x="633" y="142.1094"/><rect fill="#FFFFFF" height="117.2422" style="stroke:#181818;stroke-width:1.0;" width="10" x="638" y="171.4199"/><rect fill="#FFFFFF" height="146.5527" style="stroke:#181818;stroke-width:1.0;" width="10" x="638" y="376.5938"/><rect fill="#FFFFFF" height="103.9316" style="stroke:#181818;stroke-width:1.0;" width="10" x="638" y="635.3887"/><rect fill="#FFFFFF" height="87.9316" style="stroke:#181818;stroke-width:1.0;" width="10" x="890" y="405.9043"/><rect fill="#FFFFFF" height="58.6211" style="stroke:#181818;stroke-width:1.0;" width="10" x="1088.5" y="200.7305"/><rect fill="#FFFFFF" height="29.3105" style="stroke:#181818;stroke-width:1.0;" width="10" x="1265.5" y="664.6992"/><rect fill="#FFFFFF" height="29.3105" style="stroke:#181818;stroke-width:1.0;" width="10" x="1501" y="435.2148"/><rect fill="#FFFFFF" height="16" style="stroke:#181818;stroke-width:1.0;" width="10" x="1501" y="723.3203"/><rect fill="#FFFFFF" height="509.2793" style="stroke:#181818;stroke-width:1.0;" width="10" x="1704" y="230.041"/><polygon fill="#181818" points="270,108.7988,280,112.7988,270,116.7988,274,112.7988" style="stroke:#181818;stroke-width:1.0;"/><line style="stroke:#181818;stroke-width:1.0;" x1="53" x2="276" y1="112.7988" y2="112.7988"/><text fill="#000000" font-family="sans-serif" font-size="13" lengthAdjust="spacing" textLength="210" x="60" y="108.0566">Asks to see enrollments requests</text><polygon fill="#181818" points="621,138.1094,631,142.1094,621,146.1094,625,142.1094" style="stroke:#181818;stroke-width:1.0;"/><line style="stroke:#181818;stroke-width:1.0;" x1="292" x2="627" y1="142.1094" y2="142.1094"/><text fill="#000000" font-family="sans-serif" font-size="13" lengthAdjust="spacing" textLength="38" x="299" y="137.3672">create</text><polygon fill="#181818" points="626,167.4199,636,171.4199,626,175.4199,630,171.4199" style="stroke:#181818;stroke-width:1.0;"/><line style="stroke:#181818;stroke-width:1.0;" x1="292" x2="632" y1="171.4199" y2="171.4199"/><text fill="#000000" font-family="sans-serif" font-size="13" lengthAdjust="spacing" textLength="146" x="299" y="166.6777">getEnrollStateCourses()</text><polygon fill="#181818" points="1076.5,196.7305,1086.5,200.7305,1076.5,204.7305,1080.5,200.7305" style="stroke:#181818;stroke-width:1.0;"/><line style="stroke:#181818;stroke-width:1.0;" x1="648" x2="1082.5" y1="200.7305" y2="200.7305"/><text fill="#000000" font-family="sans-serif" font-size="13" lengthAdjust="spacing" textLength="146" x="655" y="195.9883">getEnrollStateCourses()</text><polygon fill="#181818" points="1692,226.041,1702,230.041,1692,234.041,1696,230.041" style="stroke:#181818;stroke-width:1.0;"/><line style="stroke:#181818;stroke-width:1.0;" x1="1098.5" x2="1698" y1="230.041" y2="230.041"/><text fill="#000000" font-family="sans-serif" font-size="13" lengthAdjust="spacing" textLength="45" x="1105.5" y="225.2988">getAll()</text><polygon fill="#181818" points="659,255.3516,649,259.3516,659,263.3516,655,259.3516" style="stroke:#181818;stroke-width:1.0;"/><line style="stroke:#181818;stroke-width:1.0;stroke-dasharray:2.0,2.0;" x1="653" x2="1092.5" y1="259.3516" y2="259.3516"/><text fill="#000000" font-family="sans-serif" font-size="13" lengthAdjust="spacing" textLength="153" x="665" y="254.6094">lisfOfEnrollStateCourses</text><polygon fill="#181818" points="303,284.6621,293,288.6621,303,292.6621,299,288.6621" style="stroke:#181818;stroke-width:1.0;"/><line style="stroke:#181818;stroke-width:1.0;stroke-dasharray:2.0,2.0;" x1="297" x2="632" y1="288.6621" y2="288.6621"/><text fill="#000000" font-family="sans-serif" font-size="13" lengthAdjust="spacing" textLength="153" x="309" y="283.9199">lisfOfEnrollStateCourses</text><polygon fill="#181818" points="64,313.9727,54,317.9727,64,321.9727,60,317.9727" style="stroke:#181818;stroke-width:1.0;"/><line style="stroke:#181818;stroke-width:1.0;stroke-dasharray:2.0,2.0;" x1="58" x2="286" y1="317.9727" y2="317.9727"/><text fill="#000000" font-family="sans-serif" font-size="13" lengthAdjust="spacing" textLength="145" x="70" y="313.2305">Shows a list of courses</text><polygon fill="#181818" points="270,343.2832,280,347.2832,270,351.2832,274,347.2832" style="stroke:#181818;stroke-width:1.0;"/><line style="stroke:#181818;stroke-width:1.0;" x1="53" x2="276" y1="347.2832" y2="347.2832"/><text fill="#000000" font-family="sans-serif" font-size="13" lengthAdjust="spacing" textLength="100" x="60" y="342.541">Chooses course</text><polygon fill="#181818" points="626,372.5938,636,376.5938,626,380.5938,630,376.5938" style="stroke:#181818;stroke-width:1.0;"/><line style="stroke:#181818;stroke-width:1.0;" x1="292" x2="632" y1="376.5938" y2="376.5938"/><text fill="#000000" font-family="sans-serif" font-size="13" lengthAdjust="spacing" textLength="195" x="299" y="371.8516">getRequestsEnrollment(course)</text><polygon fill="#181818" points="878,401.9043,888,405.9043,878,409.9043,882,405.9043" style="stroke:#181818;stroke-width:1.0;"/><line style="stroke:#181818;stroke-width:1.0;" x1="648" x2="884" y1="405.9043" y2="405.9043"/><text fill="#000000" font-family="sans-serif" font-size="13" lengthAdjust="spacing" textLength="195" x="655" y="401.1621">getRequestsEnrollment(course)</text><polygon fill="#181818" points="1489,431.2148,1499,435.2148,1489,439.2148,1493,435.2148" style="stroke:#181818;stroke-width:1.0;"/><line style="stroke:#181818;stroke-width:1.0;" x1="900" x2="1495" y1="435.2148" y2="435.2148"/><text fill="#000000" font-family="sans-serif" font-size="13" lengthAdjust="spacing" textLength="195" x="907" y="430.4727">getRequestsEnrollment(course)</text><polygon fill="#181818" points="911,460.5254,901,464.5254,911,468.5254,907,464.5254" style="stroke:#181818;stroke-width:1.0;"/><line style="stroke:#181818;stroke-width:1.0;stroke-dasharray:2.0,2.0;" x1="905" x2="1505" y1="464.5254" y2="464.5254"/><text fill="#000000" font-family="sans-serif" font-size="13" lengthAdjust="spacing" textLength="218" x="917" y="459.7832">listOfEnrollmentsRequestByCourse</text><polygon fill="#181818" points="659,489.8359,649,493.8359,659,497.8359,655,493.8359" style="stroke:#181818;stroke-width:1.0;"/><line style="stroke:#181818;stroke-width:1.0;stroke-dasharray:2.0,2.0;" x1="653" x2="894" y1="493.8359" y2="493.8359"/><text fill="#000000" font-family="sans-serif" font-size="13" lengthAdjust="spacing" textLength="218" x="665" y="489.0938">listOfEnrollmentsRequestByCourse</text><polygon fill="#181818" points="303,519.1465,293,523.1465,303,527.1465,299,523.1465" style="stroke:#181818;stroke-width:1.0;"/><line style="stroke:#181818;stroke-width:1.0;stroke-dasharray:2.0,2.0;" x1="297" x2="632" y1="523.1465" y2="523.1465"/><text fill="#000000" font-family="sans-serif" font-size="13" lengthAdjust="spacing" textLength="218" x="309" y="518.4043">listOfEnrollmentsRequestByCourse</text><polygon fill="#181818" points="64,548.457,54,552.457,64,556.457,60,552.457" style="stroke:#181818;stroke-width:1.0;"/><line style="stroke:#181818;stroke-width:1.0;stroke-dasharray:2.0,2.0;" x1="58" x2="286" y1="552.457" y2="552.457"/><text fill="#000000" font-family="sans-serif" font-size="13" lengthAdjust="spacing" textLength="140" x="70" y="547.7148">Shows list of students</text><path d="M10,567.457 L84,567.457 L84,574.7676 L74,584.7676 L10,584.7676 L10,567.457 " fill="#EEEEEE" style="stroke:#000000;stroke-width:1.5;"/><rect fill="none" height="163.8633" style="stroke:#000000;stroke-width:1.5;" width="1635" x="10" y="567.457"/><text fill="#000000" font-family="sans-serif" font-size="13" font-weight="bold" lengthAdjust="spacing" textLength="29" x="25" y="581.0254">loop</text><text fill="#000000" font-family="sans-serif" font-size="11" font-weight="bold" lengthAdjust="spacing" textLength="169" x="99" y="580.0918">[number of students requests]</text><polygon fill="#181818" points="270,602.0781,280,606.0781,270,610.0781,274,606.0781" style="stroke:#181818;stroke-width:1.0;"/><line style="stroke:#181818;stroke-width:1.0;" x1="53" x2="276" y1="606.0781" y2="606.0781"/><text fill="#000000" font-family="sans-serif" font-size="13" lengthAdjust="spacing" textLength="92" x="60" y="601.3359">approve/reject</text><polygon fill="#181818" points="626,631.3887,636,635.3887,626,639.3887,630,635.3887" style="stroke:#181818;stroke-width:1.0;"/><line style="stroke:#181818;stroke-width:1.0;" x1="292" x2="632" y1="635.3887" y2="635.3887"/><text fill="#000000" font-family="sans-serif" font-size="13" lengthAdjust="spacing" textLength="317" x="299" y="630.6465">updateEnrollments(student,course,approvalStatus)</text><polygon fill="#181818" points="1253.5,660.6992,1263.5,664.6992,1253.5,668.6992,1257.5,664.6992" style="stroke:#181818;stroke-width:1.0;"/><line style="stroke:#181818;stroke-width:1.0;" x1="648" x2="1259.5" y1="664.6992" y2="664.6992"/><text fill="#000000" font-family="sans-serif" font-size="13" lengthAdjust="spacing" textLength="317" x="655" y="659.957">updateEnrollments(student,course,approvalStatus)</text><polygon fill="#181818" points="659,690.0098,649,694.0098,659,698.0098,655,694.0098" style="stroke:#181818;stroke-width:1.0;"/><line style="stroke:#181818;stroke-width:1.0;stroke-dasharray:2.0,2.0;" x1="653" x2="1269.5" y1="694.0098" y2="694.0098"/><text fill="#000000" font-family="sans-serif" font-size="13" lengthAdjust="spacing" textLength="119" x="665" y="689.2676">enrollmentsUpdate</text><polygon fill="#181818" points="1489,719.3203,1499,723.3203,1489,727.3203,1493,723.3203" style="stroke:#181818;stroke-width:1.0;"/><line style="stroke:#181818;stroke-width:1.0;" x1="648" x2="1495" y1="723.3203" y2="723.3203"/><text fill="#000000" font-family="sans-serif" font-size="13" lengthAdjust="spacing" textLength="155" x="655" y="718.5781">save(enrollmentsUpdate)</text><!--SRC=[bLFBRjim4BppAnQvr06Y-gw30KVmmK2D0XJq0GozjfLA9CjTkSZVbo_7JWpdeHEvEpFO6Qv-79WTrVEv6vJXQHn-QZlE2VzEQ3HMsrxjlHg5K1DRfRa_AaQm9XGqMmyRPTGUFIY2ZN3ASwzx5uJWRkcSjqUK-8oQLyRROHZHSBU-Y-1k_ILqOmt7C_h4Qhv4Qj4VUus9qRvb_EefQ4wUa2vHpJjOXfmLPOo3E65NOgjOFId2cpY9pb8Vudb937d5U0Tef0ZVfbfqwngMz8U0BH0YuAioWS_Q9BfrjMXgxJ6yHBdiiTXlEHIBmTczQ4AplTrjGrl6zd8OyZsAmT3JxlVkcXBayeWt0M6QQh6feJtOVmGg0Xdi3dJf5ulDmTfmBUNY0S8S9Jyw9phBc6GbEVa04kp8Jo2oYZ9fhfE1b6wXFBva9-ASnCUuaiYdkBV1d68XdhOHBGPh7PXfV0f_qaNz_EObE9KNVkxJnf-2crpOhuijf5aHUCYs7p9DfRUQA6Mvgh_DMkLCBdQoIn9HJjQaZZYxwjqBD5ln7m00]--></g></svg>