<?xml version="1.0" encoding="us-ascii" standalone="no"?><svg xmlns="http://www.w3.org/2000/svg" xmlns:xlink="http://www.w3.org/1999/xlink" contentStyleType="text/css" height="774px" preserveAspectRatio="none" style="width:1035px;height:774px;background:#FFFFFF;" version="1.1" viewBox="0 0 1035 774" width="1035px" zoomAndPan="magnify"><defs/><g><!--class Manager--><g id="elem_Manager"><rect codeLine="2" fill="#F1F1F1" height="48" id="Manager" rx="2.5" ry="2.5" style="stroke:#181818;stroke-width:0.5;" width="92" x="512.5" y="7"/><ellipse cx="527.5" cy="23" fill="#ADD1B2" rx="11" ry="11" style="stroke:#181818;stroke-width:1.0;"/><path d="M530.4731,28.6431 Q529.8921,28.9419 529.2529,29.0913 Q528.6138,29.2407 527.9082,29.2407 Q525.4014,29.2407 524.0815,27.5889 Q522.7617,25.937 522.7617,22.8159 Q522.7617,19.6865 524.0815,18.0347 Q525.4014,16.3828 527.9082,16.3828 Q528.6138,16.3828 529.2612,16.5322 Q529.9087,16.6816 530.4731,16.9805 L530.4731,19.7031 Q529.8423,19.1221 529.2488,18.8523 Q528.6553,18.5825 528.0244,18.5825 Q526.6797,18.5825 525.9949,19.6492 Q525.3101,20.7158 525.3101,22.8159 Q525.3101,24.9077 525.9949,25.9744 Q526.6797,27.041 528.0244,27.041 Q528.6553,27.041 529.2488,26.7712 Q529.8423,26.5015 530.4731,25.9204 Z " fill="#000000"/><text fill="#000000" font-family="sans-serif" font-size="14" lengthAdjust="spacing" textLength="60" x="541.5" y="28.291">Manager</text><line style="stroke:#181818;stroke-width:0.5;" x1="513.5" x2="603.5" y1="39" y2="39"/><line style="stroke:#181818;stroke-width:0.5;" x1="513.5" x2="603.5" y1="47" y2="47"/></g><!--class ApproveAndRejectEnrollmentsUI--><g id="elem_ApproveAndRejectEnrollmentsUI"><rect codeLine="3" fill="#F1F1F1" height="80.9766" id="ApproveAndRejectEnrollmentsUI" rx="2.5" ry="2.5" style="stroke:#181818;stroke-width:0.5;" width="255" x="431" y="115"/><ellipse cx="446" cy="131" fill="#ADD1B2" rx="11" ry="11" style="stroke:#181818;stroke-width:1.0;"/><path d="M448.9731,136.6431 Q448.3921,136.9419 447.7529,137.0913 Q447.1138,137.2407 446.4082,137.2407 Q443.9014,137.2407 442.5815,135.5889 Q441.2617,133.937 441.2617,130.8159 Q441.2617,127.6865 442.5815,126.0347 Q443.9014,124.3828 446.4082,124.3828 Q447.1138,124.3828 447.7612,124.5322 Q448.4087,124.6816 448.9731,124.9805 L448.9731,127.7031 Q448.3423,127.1221 447.7488,126.8523 Q447.1553,126.5825 446.5244,126.5825 Q445.1797,126.5825 444.4949,127.6492 Q443.8101,128.7158 443.8101,130.8159 Q443.8101,132.9077 444.4949,133.9744 Q445.1797,135.041 446.5244,135.041 Q447.1553,135.041 447.7488,134.7712 Q448.3423,134.5015 448.9731,133.9204 Z " fill="#000000"/><text fill="#000000" font-family="sans-serif" font-size="14" lengthAdjust="spacing" textLength="223" x="460" y="136.291">ApproveAndRejectEnrollmentsUI</text><line style="stroke:#181818;stroke-width:0.5;" x1="432" x2="685" y1="147" y2="147"/><line style="stroke:#181818;stroke-width:0.5;" x1="432" x2="685" y1="155" y2="155"/><ellipse cx="442" cy="168.7441" fill="#84BE84" rx="3" ry="3" style="stroke:#038048;stroke-width:1.0;"/><text fill="#000000" font-family="sans-serif" font-size="14" lengthAdjust="spacing" textLength="64" x="451" y="172.5352">doshow()</text><ellipse cx="442" cy="185.2324" fill="#84BE84" rx="3" ry="3" style="stroke:#038048;stroke-width:1.0;"/><text fill="#000000" font-family="sans-serif" font-size="14" lengthAdjust="spacing" textLength="102" x="451" y="189.0234">showAllUsers()</text></g><!--class ApproveAndRejectEnrollmentsController--><g id="elem_ApproveAndRejectEnrollmentsController"><rect codeLine="8" fill="#F1F1F1" height="146.9297" id="ApproveAndRejectEnrollmentsController" rx="2.5" ry="2.5" style="stroke:#181818;stroke-width:0.5;" width="311" x="403" y="255.98"/><ellipse cx="418" cy="271.98" fill="#ADD1B2" rx="11" ry="11" style="stroke:#181818;stroke-width:1.0;"/><path d="M420.9731,277.6231 Q420.3921,277.9219 419.7529,278.0713 Q419.1138,278.2207 418.4082,278.2207 Q415.9014,278.2207 414.5815,276.5689 Q413.2617,274.917 413.2617,271.7959 Q413.2617,268.6665 414.5815,267.0147 Q415.9014,265.3628 418.4082,265.3628 Q419.1138,265.3628 419.7612,265.5122 Q420.4087,265.6616 420.9731,265.9605 L420.9731,268.6831 Q420.3423,268.1021 419.7488,267.8323 Q419.1553,267.5625 418.5244,267.5625 Q417.1797,267.5625 416.4949,268.6292 Q415.8101,269.6958 415.8101,271.7959 Q415.8101,273.8877 416.4949,274.9544 Q417.1797,276.021 418.5244,276.021 Q419.1553,276.021 419.7488,275.7512 Q420.3423,275.4815 420.9731,274.9004 Z " fill="#000000"/><text fill="#000000" font-family="sans-serif" font-size="14" lengthAdjust="spacing" textLength="279" x="432" y="277.271">ApproveAndRejectEnrollmentsController</text><line style="stroke:#181818;stroke-width:0.5;" x1="404" x2="713" y1="287.98" y2="287.98"/><line style="stroke:#181818;stroke-width:0.5;" x1="404" x2="713" y1="295.98" y2="295.98"/><ellipse cx="414" cy="309.7241" fill="#84BE84" rx="3" ry="3" style="stroke:#038048;stroke-width:1.0;"/><text fill="#000000" font-family="sans-serif" font-size="14" lengthAdjust="spacing" textLength="86" x="423" y="313.5152">allStudents()</text><ellipse cx="414" cy="326.2124" fill="#84BE84" rx="3" ry="3" style="stroke:#038048;stroke-width:1.0;"/><text fill="#000000" font-family="sans-serif" font-size="14" lengthAdjust="spacing" textLength="88" x="423" y="330.0034">allRequests()</text><ellipse cx="414" cy="342.7007" fill="#84BE84" rx="3" ry="3" style="stroke:#038048;stroke-width:1.0;"/><text fill="#000000" font-family="sans-serif" font-size="14" lengthAdjust="spacing" textLength="193" x="423" y="346.4917">studentsCourseEnrollment()</text><ellipse cx="414" cy="359.189" fill="#84BE84" rx="3" ry="3" style="stroke:#038048;stroke-width:1.0;"/><text fill="#000000" font-family="sans-serif" font-size="14" lengthAdjust="spacing" textLength="201" x="423" y="362.98">approveStudentsEnrollment()</text><ellipse cx="414" cy="375.6773" fill="#84BE84" rx="3" ry="3" style="stroke:#038048;stroke-width:1.0;"/><text fill="#000000" font-family="sans-serif" font-size="14" lengthAdjust="spacing" textLength="183" x="423" y="379.4683">rejectStudentsEnrollment()</text><ellipse cx="414" cy="392.1655" fill="#84BE84" rx="3" ry="3" style="stroke:#038048;stroke-width:1.0;"/><text fill="#000000" font-family="sans-serif" font-size="14" lengthAdjust="spacing" textLength="163" x="423" y="395.9566">getEnrollmentCourses()</text></g><!--class CourseEnrollmentRequest--><g id="elem_CourseEnrollmentRequest"><rect codeLine="18" fill="#F1F1F1" height="146.9297" id="CourseEnrollmentRequest" rx="2.5" ry="2.5" style="stroke:#181818;stroke-width:0.5;" width="211" x="7" y="462.91"/><ellipse cx="22" cy="478.91" fill="#ADD1B2" rx="11" ry="11" style="stroke:#181818;stroke-width:1.0;"/><path d="M24.9731,484.5531 Q24.3921,484.8519 23.7529,485.0013 Q23.1138,485.1507 22.4082,485.1507 Q19.9014,485.1507 18.5815,483.4989 Q17.2617,481.847 17.2617,478.7259 Q17.2617,475.5965 18.5815,473.9447 Q19.9014,472.2928 22.4082,472.2928 Q23.1138,472.2928 23.7612,472.4422 Q24.4087,472.5916 24.9731,472.8905 L24.9731,475.6131 Q24.3423,475.0321 23.7488,474.7623 Q23.1553,474.4925 22.5244,474.4925 Q21.1797,474.4925 20.4949,475.5592 Q19.8101,476.6258 19.8101,478.7259 Q19.8101,480.8177 20.4949,481.8844 Q21.1797,482.951 22.5244,482.951 Q23.1553,482.951 23.7488,482.6812 Q24.3423,482.4115 24.9731,481.8304 Z " fill="#000000"/><text fill="#000000" font-family="sans-serif" font-size="14" lengthAdjust="spacing" textLength="179" x="36" y="484.201">CourseEnrollmentRequest</text><line style="stroke:#181818;stroke-width:0.5;" x1="8" x2="217" y1="494.91" y2="494.91"/><rect fill="none" height="6" style="stroke:#C82930;stroke-width:1.0;" width="6" x="15" y="505.6541"/><text fill="#000000" font-family="sans-serif" font-size="14" lengthAdjust="spacing" textLength="46" x="27" y="512.4452">course</text><rect fill="none" height="6" style="stroke:#C82930;stroke-width:1.0;" width="6" x="15" y="522.1424"/><text fill="#000000" font-family="sans-serif" font-size="14" lengthAdjust="spacing" textLength="52" x="27" y="528.9334">student</text><rect fill="none" height="6" style="stroke:#C82930;stroke-width:1.0;" width="6" x="15" y="538.6307"/><text fill="#000000" font-family="sans-serif" font-size="14" lengthAdjust="spacing" textLength="117" x="27" y="545.4217">enrollmentStatus</text><rect fill="none" height="6" style="stroke:#C82930;stroke-width:1.0;" width="6" x="15" y="555.119"/><text fill="#000000" font-family="sans-serif" font-size="14" lengthAdjust="spacing" textLength="71" x="27" y="561.91">createdOn</text><line style="stroke:#181818;stroke-width:0.5;" x1="8" x2="217" y1="568.8631" y2="568.8631"/><ellipse cx="18" cy="582.6073" fill="#84BE84" rx="3" ry="3" style="stroke:#038048;stroke-width:1.0;"/><text fill="#000000" font-family="sans-serif" font-size="14" lengthAdjust="spacing" textLength="141" x="27" y="586.3983">approveEnrollment()</text><ellipse cx="18" cy="599.0955" fill="#84BE84" rx="3" ry="3" style="stroke:#038048;stroke-width:1.0;"/><text fill="#000000" font-family="sans-serif" font-size="14" lengthAdjust="spacing" textLength="123" x="27" y="602.8866">rejectEnrollment()</text></g><!--class StudentUserRepository--><g id="elem_StudentUserRepository"><rect codeLine="27" fill="#F1F1F1" height="64.4883" id="StudentUserRepository" rx="2.5" ry="2.5" style="stroke:#181818;stroke-width:0.5;" width="189" x="349" y="686.32"/><ellipse cx="364" cy="702.32" fill="#ADD1B2" rx="11" ry="11" style="stroke:#181818;stroke-width:1.0;"/><path d="M366.9731,707.9631 Q366.3921,708.2619 365.7529,708.4113 Q365.1138,708.5607 364.4082,708.5607 Q361.9014,708.5607 360.5815,706.9089 Q359.2617,705.257 359.2617,702.1359 Q359.2617,699.0065 360.5815,697.3547 Q361.9014,695.7028 364.4082,695.7028 Q365.1138,695.7028 365.7612,695.8522 Q366.4087,696.0016 366.9731,696.3005 L366.9731,699.0231 Q366.3423,698.4421 365.7488,698.1723 Q365.1553,697.9025 364.5244,697.9025 Q363.1797,697.9025 362.4949,698.9692 Q361.8101,700.0358 361.8101,702.1359 Q361.8101,704.2277 362.4949,705.2944 Q363.1797,706.361 364.5244,706.361 Q365.1553,706.361 365.7488,706.0912 Q366.3423,705.8215 366.9731,705.2404 Z " fill="#000000"/><text fill="#000000" font-family="sans-serif" font-size="14" lengthAdjust="spacing" textLength="157" x="378" y="707.611">StudentUserRepository</text><line style="stroke:#181818;stroke-width:0.5;" x1="350" x2="537" y1="718.32" y2="718.32"/><line style="stroke:#181818;stroke-width:0.5;" x1="350" x2="537" y1="726.32" y2="726.32"/><ellipse cx="360" cy="740.0641" fill="#84BE84" rx="3" ry="3" style="stroke:#038048;stroke-width:1.0;"/><text fill="#000000" font-family="sans-serif" font-size="14" lengthAdjust="spacing" textLength="121" x="369" y="743.8552">findByUsername()</text></g><!--class ListCoursesService--><g id="elem_ListCoursesService"><rect codeLine="31" fill="#F1F1F1" height="80.9766" id="ListCoursesService" rx="2.5" ry="2.5" style="stroke:#181818;stroke-width:0.5;" width="189" x="253" y="495.88"/><ellipse cx="281.5" cy="511.88" fill="#ADD1B2" rx="11" ry="11" style="stroke:#181818;stroke-width:1.0;"/><path d="M284.4731,517.5231 Q283.8921,517.8219 283.2529,517.9713 Q282.6138,518.1207 281.9082,518.1207 Q279.4014,518.1207 278.0815,516.4689 Q276.7617,514.817 276.7617,511.6959 Q276.7617,508.5665 278.0815,506.9147 Q279.4014,505.2628 281.9082,505.2628 Q282.6138,505.2628 283.2612,505.4122 Q283.9087,505.5616 284.4731,505.8605 L284.4731,508.5831 Q283.8423,508.0021 283.2488,507.7323 Q282.6553,507.4625 282.0244,507.4625 Q280.6797,507.4625 279.9949,508.5292 Q279.3101,509.5958 279.3101,511.6959 Q279.3101,513.7877 279.9949,514.8544 Q280.6797,515.921 282.0244,515.921 Q282.6553,515.921 283.2488,515.6512 Q283.8423,515.3815 284.4731,514.8004 Z " fill="#000000"/><text fill="#000000" font-family="sans-serif" font-size="14" lengthAdjust="spacing" textLength="127" x="298.5" y="517.171">ListCoursesService</text><line style="stroke:#181818;stroke-width:0.5;" x1="254" x2="441" y1="527.88" y2="527.88"/><line style="stroke:#181818;stroke-width:0.5;" x1="254" x2="441" y1="535.88" y2="535.88"/><ellipse cx="264" cy="549.6241" fill="#84BE84" rx="3" ry="3" style="stroke:#038048;stroke-width:1.0;"/><text fill="#000000" font-family="sans-serif" font-size="14" lengthAdjust="spacing" textLength="163" x="273" y="553.4152">getEnrollmentCourses()</text><ellipse cx="264" cy="566.1124" fill="#84BE84" rx="3" ry="3" style="stroke:#038048;stroke-width:1.0;"/><text fill="#000000" font-family="sans-serif" font-size="14" lengthAdjust="spacing" textLength="82" x="273" y="569.9034">allCourses()</text></g><!--class ListStudentsService--><g id="elem_ListStudentsService"><rect codeLine="36" fill="#F1F1F1" height="80.9766" id="ListStudentsService" rx="2.5" ry="2.5" style="stroke:#181818;stroke-width:0.5;" width="163" x="477" y="495.88"/><ellipse cx="492" cy="511.88" fill="#ADD1B2" rx="11" ry="11" style="stroke:#181818;stroke-width:1.0;"/><path d="M494.9731,517.5231 Q494.3921,517.8219 493.7529,517.9713 Q493.1138,518.1207 492.4082,518.1207 Q489.9014,518.1207 488.5815,516.4689 Q487.2617,514.817 487.2617,511.6959 Q487.2617,508.5665 488.5815,506.9147 Q489.9014,505.2628 492.4082,505.2628 Q493.1138,505.2628 493.7612,505.4122 Q494.4087,505.5616 494.9731,505.8605 L494.9731,508.5831 Q494.3423,508.0021 493.7488,507.7323 Q493.1553,507.4625 492.5244,507.4625 Q491.1797,507.4625 490.4949,508.5292 Q489.8101,509.5958 489.8101,511.6959 Q489.8101,513.7877 490.4949,514.8544 Q491.1797,515.921 492.5244,515.921 Q493.1553,515.921 493.7488,515.6512 Q494.3423,515.3815 494.9731,514.8004 Z " fill="#000000"/><text fill="#000000" font-family="sans-serif" font-size="14" lengthAdjust="spacing" textLength="131" x="506" y="517.171">ListStudentsService</text><line style="stroke:#181818;stroke-width:0.5;" x1="478" x2="639" y1="527.88" y2="527.88"/><line style="stroke:#181818;stroke-width:0.5;" x1="478" x2="639" y1="535.88" y2="535.88"/><ellipse cx="488" cy="549.6241" fill="#84BE84" rx="3" ry="3" style="stroke:#038048;stroke-width:1.0;"/><text fill="#000000" font-family="sans-serif" font-size="14" lengthAdjust="spacing" textLength="64" x="497" y="553.4152">allUsers()</text><ellipse cx="488" cy="566.1124" fill="#84BE84" rx="3" ry="3" style="stroke:#038048;stroke-width:1.0;"/><text fill="#000000" font-family="sans-serif" font-size="14" lengthAdjust="spacing" textLength="115" x="497" y="569.9034">findAllStudents()</text></g><!--class CourseEnrollmentRequestRepository--><g id="elem_CourseEnrollmentRequestRepository"><rect codeLine="41" fill="#F1F1F1" height="97.4648" id="CourseEnrollmentRequestRepository" rx="2.5" ry="2.5" style="stroke:#181818;stroke-width:0.5;" width="284" x="744.5" y="669.84"/><ellipse cx="759.5" cy="685.84" fill="#ADD1B2" rx="11" ry="11" style="stroke:#181818;stroke-width:1.0;"/><path d="M762.4731,691.4831 Q761.8921,691.7819 761.2529,691.9313 Q760.6138,692.0807 759.9082,692.0807 Q757.4014,692.0807 756.0815,690.4289 Q754.7617,688.777 754.7617,685.6559 Q754.7617,682.5265 756.0815,680.8747 Q757.4014,679.2228 759.9082,679.2228 Q760.6138,679.2228 761.2612,679.3722 Q761.9087,679.5216 762.4731,679.8205 L762.4731,682.5431 Q761.8423,681.9621 761.2488,681.6923 Q760.6553,681.4225 760.0244,681.4225 Q758.6797,681.4225 757.9949,682.4892 Q757.3101,683.5558 757.3101,685.6559 Q757.3101,687.7477 757.9949,688.8144 Q758.6797,689.881 760.0244,689.881 Q760.6553,689.881 761.2488,689.6112 Q761.8423,689.3415 762.4731,688.7604 Z " fill="#000000"/><text fill="#000000" font-family="sans-serif" font-size="14" lengthAdjust="spacing" textLength="252" x="773.5" y="691.131">CourseEnrollmentRequestRepository</text><line style="stroke:#181818;stroke-width:0.5;" x1="745.5" x2="1027.5" y1="701.84" y2="701.84"/><line style="stroke:#181818;stroke-width:0.5;" x1="745.5" x2="1027.5" y1="709.84" y2="709.84"/><ellipse cx="755.5" cy="723.5841" fill="#84BE84" rx="3" ry="3" style="stroke:#038048;stroke-width:1.0;"/><text fill="#000000" font-family="sans-serif" font-size="14" lengthAdjust="spacing" textLength="253" x="764.5" y="727.3752">pendingCourseEnrollmentRequests()</text><ellipse cx="755.5" cy="740.0724" fill="#84BE84" rx="3" ry="3" style="stroke:#038048;stroke-width:1.0;"/><text fill="#000000" font-family="sans-serif" font-size="14" lengthAdjust="spacing" textLength="182" x="764.5" y="743.8634">findByStudentAndCourse()</text><ellipse cx="755.5" cy="756.5607" fill="#84BE84" rx="3" ry="3" style="stroke:#038048;stroke-width:1.0;"/><text fill="#000000" font-family="sans-serif" font-size="14" lengthAdjust="spacing" textLength="40" x="764.5" y="760.3517">save()</text></g><!--class CourseRepository--><g id="elem_CourseRepository"><rect codeLine="47" fill="#F1F1F1" height="80.9766" id="CourseRepository" rx="2.5" ry="2.5" style="stroke:#181818;stroke-width:0.5;" width="154" x="159.5" y="678.08"/><ellipse cx="174.5" cy="694.08" fill="#ADD1B2" rx="11" ry="11" style="stroke:#181818;stroke-width:1.0;"/><path d="M177.4731,699.7231 Q176.8921,700.0219 176.2529,700.1713 Q175.6138,700.3207 174.9082,700.3207 Q172.4014,700.3207 171.0815,698.6689 Q169.7617,697.017 169.7617,693.8959 Q169.7617,690.7665 171.0815,689.1147 Q172.4014,687.4628 174.9082,687.4628 Q175.6138,687.4628 176.2612,687.6122 Q176.9087,687.7616 177.4731,688.0605 L177.4731,690.7831 Q176.8423,690.2021 176.2488,689.9323 Q175.6553,689.6625 175.0244,689.6625 Q173.6797,689.6625 172.9949,690.7292 Q172.3101,691.7958 172.3101,693.8959 Q172.3101,695.9877 172.9949,697.0544 Q173.6797,698.121 175.0244,698.121 Q175.6553,698.121 176.2488,697.8512 Q176.8423,697.5815 177.4731,697.0004 Z " fill="#000000"/><text fill="#000000" font-family="sans-serif" font-size="14" lengthAdjust="spacing" textLength="122" x="188.5" y="699.371">CourseRepository</text><line style="stroke:#181818;stroke-width:0.5;" x1="160.5" x2="312.5" y1="710.08" y2="710.08"/><line style="stroke:#181818;stroke-width:0.5;" x1="160.5" x2="312.5" y1="718.08" y2="718.08"/><ellipse cx="170.5" cy="731.8241" fill="#84BE84" rx="3" ry="3" style="stroke:#038048;stroke-width:1.0;"/><text fill="#000000" font-family="sans-serif" font-size="14" lengthAdjust="spacing" textLength="40" x="179.5" y="735.6152">save()</text><ellipse cx="170.5" cy="748.3124" fill="#84BE84" rx="3" ry="3" style="stroke:#038048;stroke-width:1.0;"/><text fill="#000000" font-family="sans-serif" font-size="14" lengthAdjust="spacing" textLength="55" x="179.5" y="752.1034">findAll()</text></g><!--class CourseEnrollmentRequestService--><g id="elem_CourseEnrollmentRequestService"><rect codeLine="52" fill="#F1F1F1" height="80.9766" id="CourseEnrollmentRequestService" rx="2.5" ry="2.5" style="stroke:#181818;stroke-width:0.5;" width="279" x="747" y="495.88"/><ellipse cx="771" cy="511.88" fill="#ADD1B2" rx="11" ry="11" style="stroke:#181818;stroke-width:1.0;"/><path d="M773.9731,517.5231 Q773.3921,517.8219 772.7529,517.9713 Q772.1138,518.1207 771.4082,518.1207 Q768.9014,518.1207 767.5815,516.4689 Q766.2617,514.817 766.2617,511.6959 Q766.2617,508.5665 767.5815,506.9147 Q768.9014,505.2628 771.4082,505.2628 Q772.1138,505.2628 772.7612,505.4122 Q773.4087,505.5616 773.9731,505.8605 L773.9731,508.5831 Q773.3423,508.0021 772.7488,507.7323 Q772.1553,507.4625 771.5244,507.4625 Q770.1797,507.4625 769.4949,508.5292 Q768.8101,509.5958 768.8101,511.6959 Q768.8101,513.7877 769.4949,514.8544 Q770.1797,515.921 771.5244,515.921 Q772.1553,515.921 772.7488,515.6512 Q773.3423,515.3815 773.9731,514.8004 Z " fill="#000000"/><text fill="#000000" font-family="sans-serif" font-size="14" lengthAdjust="spacing" textLength="227" x="787" y="517.171">CourseEnrollmentRequestService</text><line style="stroke:#181818;stroke-width:0.5;" x1="748" x2="1025" y1="527.88" y2="527.88"/><line style="stroke:#181818;stroke-width:0.5;" x1="748" x2="1025" y1="535.88" y2="535.88"/><ellipse cx="758" cy="549.6241" fill="#84BE84" rx="3" ry="3" style="stroke:#038048;stroke-width:1.0;"/><text fill="#000000" font-family="sans-serif" font-size="14" lengthAdjust="spacing" textLength="160" x="767" y="553.4152">getStudentEnrollment()</text><ellipse cx="758" cy="566.1124" fill="#84BE84" rx="3" ry="3" style="stroke:#038048;stroke-width:1.0;"/><text fill="#000000" font-family="sans-serif" font-size="14" lengthAdjust="spacing" textLength="253" x="767" y="569.9034">pendingCourseEnrollmentRequests()</text></g><!--class UserRepository--><g id="elem_UserRepository"><rect codeLine="57" fill="#F1F1F1" height="64.4883" id="UserRepository" rx="2.5" ry="2.5" style="stroke:#181818;stroke-width:0.5;" width="136" x="573.5" y="686.32"/><ellipse cx="588.5" cy="702.32" fill="#ADD1B2" rx="11" ry="11" style="stroke:#181818;stroke-width:1.0;"/><path d="M591.4731,707.9631 Q590.8921,708.2619 590.2529,708.4113 Q589.6138,708.5607 588.9082,708.5607 Q586.4014,708.5607 585.0815,706.9089 Q583.7617,705.257 583.7617,702.1359 Q583.7617,699.0065 585.0815,697.3547 Q586.4014,695.7028 588.9082,695.7028 Q589.6138,695.7028 590.2612,695.8522 Q590.9087,696.0016 591.4731,696.3005 L591.4731,699.0231 Q590.8423,698.4421 590.2488,698.1723 Q589.6553,697.9025 589.0244,697.9025 Q587.6797,697.9025 586.9949,698.9692 Q586.3101,700.0358 586.3101,702.1359 Q586.3101,704.2277 586.9949,705.2944 Q587.6797,706.361 589.0244,706.361 Q589.6553,706.361 590.2488,706.0912 Q590.8423,705.8215 591.4731,705.2404 Z " fill="#000000"/><text fill="#000000" font-family="sans-serif" font-size="14" lengthAdjust="spacing" textLength="104" x="602.5" y="707.611">UserRepository</text><line style="stroke:#181818;stroke-width:0.5;" x1="574.5" x2="708.5" y1="718.32" y2="718.32"/><line style="stroke:#181818;stroke-width:0.5;" x1="574.5" x2="708.5" y1="726.32" y2="726.32"/><ellipse cx="584.5" cy="740.0641" fill="#84BE84" rx="3" ry="3" style="stroke:#038048;stroke-width:1.0;"/><text fill="#000000" font-family="sans-serif" font-size="14" lengthAdjust="spacing" textLength="55" x="593.5" y="743.8552">findAll()</text></g><!--link Manager to ApproveAndRejectEnrollmentsUI--><g id="link_Manager_ApproveAndRejectEnrollmentsUI"><path codeLine="61" d="M558.5,55.33 C558.5,70.55 558.5,90.93 558.5,109.25 " fill="none" id="Manager-to-ApproveAndRejectEnrollmentsUI" style="stroke:#181818;stroke-width:1.0;"/><polygon fill="#181818" points="558.5,113.86,562.5,104.86,558.5,108.86,554.5,104.86,558.5,113.86" style="stroke:#181818;stroke-width:1.0;"/></g><!--link ApproveAndRejectEnrollmentsUI to ApproveAndRejectEnrollmentsController--><g id="link_ApproveAndRejectEnrollmentsUI_ApproveAndRejectEnrollmentsController"><path codeLine="62" d="M558.5,196.37 C558.5,212.37 558.5,231.4 558.5,249.96 " fill="none" id="ApproveAndRejectEnrollmentsUI-to-ApproveAndRejectEnrollmentsController" style="stroke:#181818;stroke-width:1.0;"/><polygon fill="#181818" points="558.5,254.7,562.5,245.7,558.5,249.7,554.5,245.7,558.5,254.7" style="stroke:#181818;stroke-width:1.0;"/></g><!--link ApproveAndRejectEnrollmentsController to ListCoursesService--><g id="link_ApproveAndRejectEnrollmentsController_ListCoursesService"><path codeLine="63" d="M483.52,403.27 C453.16,432.75 419.11,465.82 392.68,491.49 " fill="none" id="ApproveAndRejectEnrollmentsController-to-ListCoursesService" style="stroke:#181818;stroke-width:1.0;"/><polygon fill="#181818" points="389.5,494.55,398.7415,491.1448,393.0852,491.0648,393.1652,485.4085,389.5,494.55" style="stroke:#181818;stroke-width:1.0;"/></g><!--link ApproveAndRejectEnrollmentsController to ListStudentsService--><g id="link_ApproveAndRejectEnrollmentsController_ListStudentsService"><path codeLine="64" d="M558.5,403.27 C558.5,432.02 558.5,464.19 558.5,489.58 " fill="none" id="ApproveAndRejectEnrollmentsController-to-ListStudentsService" style="stroke:#181818;stroke-width:1.0;"/><polygon fill="#181818" points="558.5,494.55,562.5,485.55,558.5,489.55,554.5,485.55,558.5,494.55" style="stroke:#181818;stroke-width:1.0;"/></g><!--link ListStudentsService to UserRepository--><g id="link_ListStudentsService_UserRepository"><path codeLine="65" d="M576.71,576.92 C590.97,607.86 610.64,650.58 624.56,680.79 " fill="none" id="ListStudentsService-to-UserRepository" style="stroke:#181818;stroke-width:1.0;"/><polygon fill="#181818" points="626.92,684.91,626.7744,675.0622,624.822,680.3715,619.5128,678.419,626.92,684.91" style="stroke:#181818;stroke-width:1.0;"/></g><!--link ListStudentsService to StudentUserRepository--><g id="link_ListStudentsService_StudentUserRepository"><path codeLine="66" d="M533.26,576.92 C513.43,607.99 486.03,650.93 466.73,681.17 " fill="none" id="ListStudentsService-to-StudentUserRepository" style="stroke:#181818;stroke-width:1.0;"/><polygon fill="#181818" points="463.71,684.91,471.9201,679.4699,466.3972,680.6935,465.1736,675.1705,463.71,684.91" style="stroke:#181818;stroke-width:1.0;"/></g><!--link ApproveAndRejectEnrollmentsController to CourseEnrollmentRequestService--><g id="link_ApproveAndRejectEnrollmentsController_CourseEnrollmentRequestService"><path codeLine="67" d="M675.06,403.27 C722.84,433.12 776.49,466.64 817.79,492.44 " fill="none" id="ApproveAndRejectEnrollmentsController-to-CourseEnrollmentRequestService" style="stroke:#181818;stroke-width:1.0;"/><polygon fill="#181818" points="821.77,495.55,816.258,487.388,817.53,492.9,812.018,494.172,821.77,495.55" style="stroke:#181818;stroke-width:1.0;"/></g><!--link CourseEnrollmentRequestService to CourseEnrollmentRequestRepository--><g id="link_CourseEnrollmentRequestService_CourseEnrollmentRequestRepository"><path codeLine="68" d="M886.5,576.92 C886.5,602.35 886.5,635.74 886.5,663.6 " fill="none" id="CourseEnrollmentRequestService-to-CourseEnrollmentRequestRepository" style="stroke:#181818;stroke-width:1.0;"/><polygon fill="#181818" points="886.5,668.46,890.5,659.46,886.5,663.46,882.5,659.46,886.5,668.46" style="stroke:#181818;stroke-width:1.0;"/></g><!--link ListCoursesService to CourseRepository--><g id="link_ListCoursesService_CourseRepository"><path codeLine="69" d="M323.14,576.92 C305.71,605.22 282.21,643.36 264.08,672.79 " fill="none" id="ListCoursesService-to-CourseRepository" style="stroke:#181818;stroke-width:1.0;"/><polygon fill="#181818" points="260.99,676.8,269.1083,671.2239,263.6065,672.5393,262.2911,667.0375,260.99,676.8" style="stroke:#181818;stroke-width:1.0;"/></g><!--link ApproveAndRejectEnrollmentsController to CourseEnrollmentRequest--><g id="link_ApproveAndRejectEnrollmentsController_CourseEnrollmentRequest"><path codeLine="70" d="M402.88,389.02 C349.12,410.63 288.97,436.36 235.5,462.91 C231.52,464.88 227.49,466.94 223.45,469.05 " fill="none" id="ApproveAndRejectEnrollmentsController-to-CourseEnrollmentRequest" style="stroke:#181818;stroke-width:1.0;"/><polygon fill="#181818" points="219.31,471.75,229.1375,471.1019,223.7355,469.423,225.4144,464.021,219.31,471.75" style="stroke:#181818;stroke-width:1.0;"/></g><!--link ApproveAndRejectEnrollmentsController to CourseEnrollmentRequestRepository--><g id="link_ApproveAndRejectEnrollmentsController_CourseEnrollmentRequestRepository"><path codeLine="71" d="M616.77,403.35 C630.83,422.26 645.3,442.94 657.5,462.91 C695.43,524.95 681.96,554.81 729.5,609.84 C747.86,631.09 771.32,650.1 794.48,666.02 " fill="none" id="ApproveAndRejectEnrollmentsController-to-CourseEnrollmentRequestRepository" style="stroke:#181818;stroke-width:1.0;"/><polygon fill="#181818" points="798.42,669.37,793.223,661.004,794.284,666.5604,788.7276,667.6215,798.42,669.37" style="stroke:#181818;stroke-width:1.0;"/></g><!--SRC=[hLF1ReCm3BtdApXkclY5IRJQOTAcILJzW0WynfGcD0cTggd_lb2SX403J1idOZ_RpyzsmQXIoIlbj099YkihQnefJf3nCeTFAFGJbuAn0t2jzi_9DqdCzr0AzI6-xkxxL_UVCRPN89MnNSXoggtWkdk0j2afOplTbftJvZMc78ujA6zI2DcALYhm2Lr8Nz9ccWBabKdSNy60Pby5UyAcnfMH8RQH5bTt_uza-mUuY9sckbK8bq0rb6yye1-Z7TYTpDXC9tyEZL2r5lACghxNlDoSEnUd1nX6lTJAzhS3UQeBi9E8I6174eZYSrb9Hycetmj7A0j6VLbGTj9J0xoiUHM11vKsPonaTh37kqMY9vWMzxKiVyGDkQ_WZ29uGP76TB3BpRXQqG4xJdZ9IPe-pjyncVMQy5MdIrQXJBRfhlqgTBHQv8RD84Dv8g2RjxAQpFoqoRmx7ZzY7IhbmlwFxr_ZFPCV]--></g></svg>