<?xml version="1.0" encoding="us-ascii" standalone="no"?><svg xmlns="http://www.w3.org/2000/svg" xmlns:xlink="http://www.w3.org/1999/xlink" contentStyleType="text/css" height="757px" preserveAspectRatio="none" style="width:809px;height:757px;background:#FFFFFF;" version="1.1" viewBox="0 0 809 757" width="809px" zoomAndPan="magnify"><defs/><g><!--class Manager--><g id="elem_Manager"><rect codeLine="2" fill="#F1F1F1" height="48" id="Manager" rx="2.5" ry="2.5" style="stroke:#181818;stroke-width:0.5;" width="92" x="435" y="7"/><ellipse cx="450" cy="23" fill="#ADD1B2" rx="11" ry="11" style="stroke:#181818;stroke-width:1.0;"/><path d="M452.9731,28.6431 Q452.3921,28.9419 451.7529,29.0913 Q451.1138,29.2407 450.4082,29.2407 Q447.9014,29.2407 446.5815,27.5889 Q445.2617,25.937 445.2617,22.8159 Q445.2617,19.6865 446.5815,18.0347 Q447.9014,16.3828 450.4082,16.3828 Q451.1138,16.3828 451.7612,16.5322 Q452.4087,16.6816 452.9731,16.9805 L452.9731,19.7031 Q452.3423,19.1221 451.7488,18.8523 Q451.1553,18.5825 450.5244,18.5825 Q449.1797,18.5825 448.4949,19.6492 Q447.8101,20.7158 447.8101,22.8159 Q447.8101,24.9077 448.4949,25.9744 Q449.1797,27.041 450.5244,27.041 Q451.1553,27.041 451.7488,26.7712 Q452.3423,26.5015 452.9731,25.9204 Z " fill="#000000"/><text fill="#000000" font-family="sans-serif" font-size="14" lengthAdjust="spacing" textLength="60" x="464" y="28.291">Manager</text><line style="stroke:#181818;stroke-width:0.5;" x1="436" x2="526" y1="39" y2="39"/><line style="stroke:#181818;stroke-width:0.5;" x1="436" x2="526" y1="47" y2="47"/></g><!--class ApproveRejectEnrollmentUI--><g id="elem_ApproveRejectEnrollmentUI"><rect codeLine="3" fill="#F1F1F1" height="64.4883" id="ApproveRejectEnrollmentUI" rx="2.5" ry="2.5" style="stroke:#181818;stroke-width:0.5;" width="220" x="371" y="115"/><ellipse cx="386" cy="131" fill="#ADD1B2" rx="11" ry="11" style="stroke:#181818;stroke-width:1.0;"/><path d="M388.9731,136.6431 Q388.3921,136.9419 387.7529,137.0913 Q387.1138,137.2407 386.4082,137.2407 Q383.9014,137.2407 382.5815,135.5889 Q381.2617,133.937 381.2617,130.8159 Q381.2617,127.6865 382.5815,126.0347 Q383.9014,124.3828 386.4082,124.3828 Q387.1138,124.3828 387.7612,124.5322 Q388.4087,124.6816 388.9731,124.9805 L388.9731,127.7031 Q388.3423,127.1221 387.7488,126.8523 Q387.1553,126.5825 386.5244,126.5825 Q385.1797,126.5825 384.4949,127.6492 Q383.8101,128.7158 383.8101,130.8159 Q383.8101,132.9077 384.4949,133.9744 Q385.1797,135.041 386.5244,135.041 Q387.1553,135.041 387.7488,134.7712 Q388.3423,134.5015 388.9731,133.9204 Z " fill="#000000"/><text fill="#000000" font-family="sans-serif" font-size="14" lengthAdjust="spacing" textLength="188" x="400" y="136.291">ApproveRejectEnrollmentUI</text><line style="stroke:#181818;stroke-width:0.5;" x1="372" x2="590" y1="147" y2="147"/><line style="stroke:#181818;stroke-width:0.5;" x1="372" x2="590" y1="155" y2="155"/><ellipse cx="382" cy="168.7441" fill="#84BE84" rx="3" ry="3" style="stroke:#038048;stroke-width:1.0;"/><text fill="#000000" font-family="sans-serif" font-size="14" lengthAdjust="spacing" textLength="64" x="391" y="172.5352">doshow()</text></g><!--class ApproveRejectEnrollmentController--><g id="elem_ApproveRejectEnrollmentController"><rect codeLine="7" fill="#F1F1F1" height="97.4648" id="ApproveRejectEnrollmentController" rx="2.5" ry="2.5" style="stroke:#181818;stroke-width:0.5;" width="276" x="343" y="239.49"/><ellipse cx="358" cy="255.49" fill="#ADD1B2" rx="11" ry="11" style="stroke:#181818;stroke-width:1.0;"/><path d="M360.9731,261.1331 Q360.3921,261.4319 359.7529,261.5813 Q359.1138,261.7307 358.4082,261.7307 Q355.9014,261.7307 354.5815,260.0789 Q353.2617,258.427 353.2617,255.3059 Q353.2617,252.1765 354.5815,250.5247 Q355.9014,248.8728 358.4082,248.8728 Q359.1138,248.8728 359.7612,249.0222 Q360.4087,249.1716 360.9731,249.4705 L360.9731,252.1931 Q360.3423,251.6121 359.7488,251.3423 Q359.1553,251.0725 358.5244,251.0725 Q357.1797,251.0725 356.4949,252.1392 Q355.8101,253.2058 355.8101,255.3059 Q355.8101,257.3977 356.4949,258.4644 Q357.1797,259.531 358.5244,259.531 Q359.1553,259.531 359.7488,259.2612 Q360.3423,258.9915 360.9731,258.4104 Z " fill="#000000"/><text fill="#000000" font-family="sans-serif" font-size="14" lengthAdjust="spacing" textLength="244" x="372" y="260.781">ApproveRejectEnrollmentController</text><line style="stroke:#181818;stroke-width:0.5;" x1="344" x2="618" y1="271.49" y2="271.49"/><line style="stroke:#181818;stroke-width:0.5;" x1="344" x2="618" y1="279.49" y2="279.49"/><ellipse cx="354" cy="293.2341" fill="#84BE84" rx="3" ry="3" style="stroke:#038048;stroke-width:1.0;"/><text fill="#000000" font-family="sans-serif" font-size="14" lengthAdjust="spacing" textLength="162" x="363" y="297.0252">getEnrollStateCourses()</text><ellipse cx="354" cy="309.7224" fill="#84BE84" rx="3" ry="3" style="stroke:#038048;stroke-width:1.0;"/><text fill="#000000" font-family="sans-serif" font-size="14" lengthAdjust="spacing" textLength="169" x="363" y="313.5134">getRequestsEnrollment()</text><ellipse cx="354" cy="326.2107" fill="#84BE84" rx="3" ry="3" style="stroke:#038048;stroke-width:1.0;"/><text fill="#000000" font-family="sans-serif" font-size="14" lengthAdjust="spacing" textLength="140" x="363" y="330.0017">updateEnrollments()</text></g><!--class ApproveRejectEnrollmentService--><g id="elem_ApproveRejectEnrollmentService"><rect codeLine="14" fill="#F1F1F1" height="64.4883" id="ApproveRejectEnrollmentService" rx="2.5" ry="2.5" style="stroke:#181818;stroke-width:0.5;" width="254" x="7" y="462.9"/><ellipse cx="22" cy="478.9" fill="#ADD1B2" rx="11" ry="11" style="stroke:#181818;stroke-width:1.0;"/><path d="M24.9731,484.5431 Q24.3921,484.8419 23.7529,484.9913 Q23.1138,485.1407 22.4082,485.1407 Q19.9014,485.1407 18.5815,483.4889 Q17.2617,481.837 17.2617,478.7159 Q17.2617,475.5865 18.5815,473.9347 Q19.9014,472.2828 22.4082,472.2828 Q23.1138,472.2828 23.7612,472.4322 Q24.4087,472.5816 24.9731,472.8805 L24.9731,475.6031 Q24.3423,475.0221 23.7488,474.7523 Q23.1553,474.4825 22.5244,474.4825 Q21.1797,474.4825 20.4949,475.5492 Q19.8101,476.6158 19.8101,478.7159 Q19.8101,480.8077 20.4949,481.8744 Q21.1797,482.941 22.5244,482.941 Q23.1553,482.941 23.7488,482.6712 Q24.3423,482.4015 24.9731,481.8204 Z " fill="#000000"/><text fill="#000000" font-family="sans-serif" font-size="14" lengthAdjust="spacing" textLength="222" x="36" y="484.191">ApproveRejectEnrollmentService</text><line style="stroke:#181818;stroke-width:0.5;" x1="8" x2="260" y1="494.9" y2="494.9"/><line style="stroke:#181818;stroke-width:0.5;" x1="8" x2="260" y1="502.9" y2="502.9"/><ellipse cx="18" cy="516.6441" fill="#84BE84" rx="3" ry="3" style="stroke:#038048;stroke-width:1.0;"/><text fill="#000000" font-family="sans-serif" font-size="14" lengthAdjust="spacing" textLength="169" x="27" y="520.4352">getRequestsEnrollment()</text></g><!--class CourseEnrollmentRequest--><g id="elem_CourseEnrollmentRequest"><rect codeLine="19" fill="#F1F1F1" height="196.3945" id="CourseEnrollmentRequest" rx="2.5" ry="2.5" style="stroke:#181818;stroke-width:0.5;" width="211" x="296.5" y="396.95"/><ellipse cx="311.5" cy="412.95" fill="#ADD1B2" rx="11" ry="11" style="stroke:#181818;stroke-width:1.0;"/><path d="M314.4731,418.5931 Q313.8921,418.8919 313.2529,419.0413 Q312.6138,419.1907 311.9082,419.1907 Q309.4014,419.1907 308.0815,417.5389 Q306.7617,415.887 306.7617,412.7659 Q306.7617,409.6365 308.0815,407.9847 Q309.4014,406.3328 311.9082,406.3328 Q312.6138,406.3328 313.2612,406.4822 Q313.9087,406.6316 314.4731,406.9305 L314.4731,409.6531 Q313.8423,409.0721 313.2488,408.8023 Q312.6553,408.5325 312.0244,408.5325 Q310.6797,408.5325 309.9949,409.5992 Q309.3101,410.6658 309.3101,412.7659 Q309.3101,414.8577 309.9949,415.9244 Q310.6797,416.991 312.0244,416.991 Q312.6553,416.991 313.2488,416.7212 Q313.8423,416.4515 314.4731,415.8704 Z " fill="#000000"/><text fill="#000000" font-family="sans-serif" font-size="14" lengthAdjust="spacing" textLength="179" x="325.5" y="418.241">CourseEnrollmentRequest</text><line style="stroke:#181818;stroke-width:0.5;" x1="297.5" x2="506.5" y1="428.95" y2="428.95"/><rect fill="none" height="6" style="stroke:#C82930;stroke-width:1.0;" width="6" x="304.5" y="439.6941"/><text fill="#000000" font-family="sans-serif" font-size="14" lengthAdjust="spacing" textLength="69" x="316.5" y="446.4852">userName</text><rect fill="none" height="6" style="stroke:#C82930;stroke-width:1.0;" width="6" x="304.5" y="456.1824"/><text fill="#000000" font-family="sans-serif" font-size="14" lengthAdjust="spacing" textLength="38" x="316.5" y="462.9734">name</text><rect fill="none" height="6" style="stroke:#C82930;stroke-width:1.0;" width="6" x="304.5" y="472.6707"/><text fill="#000000" font-family="sans-serif" font-size="14" lengthAdjust="spacing" textLength="37" x="316.5" y="479.4617">email</text><rect fill="none" height="6" style="stroke:#C82930;stroke-width:1.0;" width="6" x="304.5" y="489.159"/><text fill="#000000" font-family="sans-serif" font-size="14" lengthAdjust="spacing" textLength="102" x="316.5" y="495.95">approvalStatus</text><rect fill="none" height="6" style="stroke:#C82930;stroke-width:1.0;" width="6" x="304.5" y="505.6473"/><text fill="#000000" font-family="sans-serif" font-size="14" lengthAdjust="spacing" textLength="71" x="316.5" y="512.4383">createdOn</text><rect fill="none" height="6" style="stroke:#C82930;stroke-width:1.0;" width="6" x="304.5" y="522.1355"/><text fill="#000000" font-family="sans-serif" font-size="14" lengthAdjust="spacing" textLength="85" x="316.5" y="528.9266">courseName</text><rect fill="none" height="6" style="stroke:#C82930;stroke-width:1.0;" width="6" x="304.5" y="538.6238"/><text fill="#000000" font-family="sans-serif" font-size="14" lengthAdjust="spacing" textLength="48" x="316.5" y="545.4148">edition</text><rect fill="none" height="6" style="stroke:#C82930;stroke-width:1.0;" width="6" x="304.5" y="555.1121"/><text fill="#000000" font-family="sans-serif" font-size="14" lengthAdjust="spacing" textLength="80" x="316.5" y="561.9031">courseState</text><line style="stroke:#181818;stroke-width:0.5;" x1="297.5" x2="506.5" y1="568.8562" y2="568.8562"/><ellipse cx="307.5" cy="582.6004" fill="#84BE84" rx="3" ry="3" style="stroke:#038048;stroke-width:1.0;"/><text fill="#000000" font-family="sans-serif" font-size="14" lengthAdjust="spacing" textLength="140" x="316.5" y="586.3914">updateEnrollments()</text></g><!--class ListCoursesService--><g id="elem_ListCoursesService"><rect codeLine="31" fill="#F1F1F1" height="80.9766" id="ListCoursesService" rx="2.5" ry="2.5" style="stroke:#181818;stroke-width:0.5;" width="188" x="614" y="454.66"/><ellipse cx="642.05" cy="470.66" fill="#ADD1B2" rx="11" ry="11" style="stroke:#181818;stroke-width:1.0;"/><path d="M645.0231,476.3031 Q644.4421,476.6019 643.8029,476.7513 Q643.1638,476.9007 642.4582,476.9007 Q639.9514,476.9007 638.6315,475.2489 Q637.3117,473.597 637.3117,470.4759 Q637.3117,467.3465 638.6315,465.6947 Q639.9514,464.0428 642.4582,464.0428 Q643.1638,464.0428 643.8112,464.1922 Q644.4587,464.3416 645.0231,464.6405 L645.0231,467.3631 Q644.3923,466.7821 643.7988,466.5123 Q643.2053,466.2425 642.5744,466.2425 Q641.2297,466.2425 640.5449,467.3092 Q639.8601,468.3758 639.8601,470.4759 Q639.8601,472.5677 640.5449,473.6344 Q641.2297,474.701 642.5744,474.701 Q643.2053,474.701 643.7988,474.4312 Q644.3923,474.1615 645.0231,473.5804 Z " fill="#000000"/><text fill="#000000" font-family="sans-serif" font-size="14" lengthAdjust="spacing" textLength="127" x="658.95" y="475.951">ListCoursesService</text><line style="stroke:#181818;stroke-width:0.5;" x1="615" x2="801" y1="486.66" y2="486.66"/><line style="stroke:#181818;stroke-width:0.5;" x1="615" x2="801" y1="494.66" y2="494.66"/><ellipse cx="625" cy="508.4041" fill="#84BE84" rx="3" ry="3" style="stroke:#038048;stroke-width:1.0;"/><text fill="#000000" font-family="sans-serif" font-size="14" lengthAdjust="spacing" textLength="162" x="634" y="512.1952">getEnrollStateCourses()</text><ellipse cx="625" cy="524.8924" fill="#84BE84" rx="3" ry="3" style="stroke:#038048;stroke-width:1.0;"/><text fill="#000000" font-family="sans-serif" font-size="14" lengthAdjust="spacing" textLength="82" x="634" y="528.6834">allCourses()</text></g><!--class CourseEnrollmentRequestRepository--><g id="elem_CourseEnrollmentRequestRepository"><rect codeLine="36" fill="#F1F1F1" height="80.9766" id="CourseEnrollmentRequestRepository" rx="2.5" ry="2.5" style="stroke:#181818;stroke-width:0.5;" width="284" x="151" y="661.59"/><ellipse cx="166" cy="677.59" fill="#ADD1B2" rx="11" ry="11" style="stroke:#181818;stroke-width:1.0;"/><path d="M168.9731,683.2331 Q168.3921,683.5319 167.7529,683.6813 Q167.1138,683.8307 166.4082,683.8307 Q163.9014,683.8307 162.5815,682.1789 Q161.2617,680.527 161.2617,677.4059 Q161.2617,674.2765 162.5815,672.6247 Q163.9014,670.9728 166.4082,670.9728 Q167.1138,670.9728 167.7612,671.1222 Q168.4087,671.2716 168.9731,671.5705 L168.9731,674.2931 Q168.3423,673.7121 167.7488,673.4423 Q167.1553,673.1725 166.5244,673.1725 Q165.1797,673.1725 164.4949,674.2392 Q163.8101,675.3058 163.8101,677.4059 Q163.8101,679.4977 164.4949,680.5644 Q165.1797,681.631 166.5244,681.631 Q167.1553,681.631 167.7488,681.3612 Q168.3423,681.0915 168.9731,680.5104 Z " fill="#000000"/><text fill="#000000" font-family="sans-serif" font-size="14" lengthAdjust="spacing" textLength="252" x="180" y="682.881">CourseEnrollmentRequestRepository</text><line style="stroke:#181818;stroke-width:0.5;" x1="152" x2="434" y1="693.59" y2="693.59"/><line style="stroke:#181818;stroke-width:0.5;" x1="152" x2="434" y1="701.59" y2="701.59"/><ellipse cx="162" cy="715.3341" fill="#84BE84" rx="3" ry="3" style="stroke:#038048;stroke-width:1.0;"/><text fill="#000000" font-family="sans-serif" font-size="14" lengthAdjust="spacing" textLength="169" x="171" y="719.1252">getRequestsEnrollment()</text><ellipse cx="162" cy="731.8224" fill="#84BE84" rx="3" ry="3" style="stroke:#038048;stroke-width:1.0;"/><text fill="#000000" font-family="sans-serif" font-size="14" lengthAdjust="spacing" textLength="40" x="171" y="735.6134">save()</text></g><!--class CourseRepository--><g id="elem_CourseRepository"><rect codeLine="41" fill="#F1F1F1" height="97.4648" id="CourseRepository" rx="2.5" ry="2.5" style="stroke:#181818;stroke-width:0.5;" width="160" x="628" y="653.35"/><ellipse cx="645.7" cy="669.35" fill="#ADD1B2" rx="11" ry="11" style="stroke:#181818;stroke-width:1.0;"/><path d="M648.6731,674.9931 Q648.0921,675.2919 647.4529,675.4413 Q646.8138,675.5907 646.1082,675.5907 Q643.6014,675.5907 642.2815,673.9389 Q640.9617,672.287 640.9617,669.1659 Q640.9617,666.0365 642.2815,664.3847 Q643.6014,662.7328 646.1082,662.7328 Q646.8138,662.7328 647.4612,662.8822 Q648.1087,663.0316 648.6731,663.3305 L648.6731,666.0531 Q648.0423,665.4721 647.4488,665.2023 Q646.8553,664.9325 646.2244,664.9325 Q644.8797,664.9325 644.1949,665.9992 Q643.5101,667.0658 643.5101,669.1659 Q643.5101,671.2577 644.1949,672.3244 Q644.8797,673.391 646.2244,673.391 Q646.8553,673.391 647.4488,673.1212 Q648.0423,672.8515 648.6731,672.2704 Z " fill="#000000"/><text fill="#000000" font-family="sans-serif" font-size="14" lengthAdjust="spacing" textLength="122" x="660.3" y="674.641">CourseRepository</text><line style="stroke:#181818;stroke-width:0.5;" x1="629" x2="787" y1="685.35" y2="685.35"/><line style="stroke:#181818;stroke-width:0.5;" x1="629" x2="787" y1="693.35" y2="693.35"/><ellipse cx="639" cy="707.0941" fill="#84BE84" rx="3" ry="3" style="stroke:#038048;stroke-width:1.0;"/><text fill="#000000" font-family="sans-serif" font-size="14" lengthAdjust="spacing" textLength="40" x="648" y="710.8852">save()</text><ellipse cx="639" cy="723.5824" fill="#84BE84" rx="3" ry="3" style="stroke:#038048;stroke-width:1.0;"/><text fill="#000000" font-family="sans-serif" font-size="14" lengthAdjust="spacing" textLength="134" x="648" y="727.3734">findByDesignation()</text><ellipse cx="639" cy="740.0707" fill="#84BE84" rx="3" ry="3" style="stroke:#038048;stroke-width:1.0;"/><text fill="#000000" font-family="sans-serif" font-size="14" lengthAdjust="spacing" textLength="111" x="648" y="743.8617">findAllCourses()</text></g><!--link Manager to ApproveRejectEnrollmentUI--><g id="link_Manager_ApproveRejectEnrollmentUI"><path codeLine="48" d="M481,55.39 C481,70.76 481,91.2 481,108.8 " fill="none" id="Manager-to-ApproveRejectEnrollmentUI" style="stroke:#181818;stroke-width:1.0;"/><polygon fill="#181818" points="481,113.65,485,104.65,481,108.65,477,104.65,481,113.65" style="stroke:#181818;stroke-width:1.0;"/></g><!--link ApproveRejectEnrollmentUI to ApproveRejectEnrollmentController--><g id="link_ApproveRejectEnrollmentUI_ApproveRejectEnrollmentController"><path codeLine="49" d="M481,179.78 C481,195.67 481,215.39 481,233.57 " fill="none" id="ApproveRejectEnrollmentUI-to-ApproveRejectEnrollmentController" style="stroke:#181818;stroke-width:1.0;"/><polygon fill="#181818" points="481,238.16,485,229.16,481,233.16,477,229.16,481,238.16" style="stroke:#181818;stroke-width:1.0;"/></g><!--link ApproveRejectEnrollmentController to ListCoursesService--><g id="link_ApproveRejectEnrollmentController_ListCoursesService"><path codeLine="50" d="M534.22,337.27 C572.12,371.48 622.66,417.11 659.46,450.33 " fill="none" id="ApproveRejectEnrollmentController-to-ListCoursesService" style="stroke:#181818;stroke-width:1.0;"/><polygon fill="#181818" points="662.88,453.32,658.8662,444.3261,659.1635,449.9752,653.5145,450.2725,662.88,453.32" style="stroke:#181818;stroke-width:1.0;"/></g><!--link ApproveRejectEnrollmentController to ApproveRejectEnrollmentService--><g id="link_ApproveRejectEnrollmentController_ApproveRejectEnrollmentService"><path codeLine="51" d="M385.87,337.44 C351.75,355.39 313.26,376.41 279,396.95 C246.45,416.47 211.04,440.16 183.36,459.26 " fill="none" id="ApproveRejectEnrollmentController-to-ApproveRejectEnrollmentService" style="stroke:#181818;stroke-width:1.0;"/><polygon fill="#181818" points="179.63,462.53,189.3082,460.7046,183.7435,459.6877,184.7605,454.123,179.63,462.53" style="stroke:#181818;stroke-width:1.0;"/></g><!--link ApproveRejectEnrollmentService to CourseEnrollmentRequestRepository--><g id="link_ApproveRejectEnrollmentService_CourseEnrollmentRequestRepository"><path codeLine="52" d="M158.5,527.72 C185.28,562.24 228.41,617.83 258.59,656.72 " fill="none" id="ApproveRejectEnrollmentService-to-CourseEnrollmentRequestRepository" style="stroke:#181818;stroke-width:1.0;"/><polygon fill="#181818" points="262.2,660.38,259.8415,650.8177,259.1342,656.4302,253.5218,655.7229,262.2,660.38" style="stroke:#181818;stroke-width:1.0;"/></g><!--link ApproveRejectEnrollmentController to CourseEnrollmentRequestRepository--><g id="link_ApproveRejectEnrollmentController_CourseEnrollmentRequestRepository"><path codeLine="53" d="M506.38,337.38 C536.11,401.1 575.3,514.53 525,593.35 C505.21,624.35 473.95,646.57 440.7,662.44 " fill="none" id="ApproveRejectEnrollmentController-to-CourseEnrollmentRequestRepository" style="stroke:#181818;stroke-width:1.0;"/><polygon fill="#181818" points="436.35,664.93,446.1972,664.7471,440.8806,662.8148,442.8128,657.4982,436.35,664.93" style="stroke:#181818;stroke-width:1.0;"/></g><!--link ApproveRejectEnrollmentController to CourseEnrollmentRequest--><g id="link_ApproveRejectEnrollmentController_CourseEnrollmentRequest"><path codeLine="54" d="M462.48,337.27 C456.18,353.59 448.89,372.52 441.59,391.46 " fill="none" id="ApproveRejectEnrollmentController-to-CourseEnrollmentRequest" style="stroke:#181818;stroke-width:1.0;"/><polygon fill="#181818" points="439.53,395.79,446.5056,388.8373,441.3326,391.1262,439.0436,385.9532,439.53,395.79" style="stroke:#181818;stroke-width:1.0;"/></g><!--link ListCoursesService to CourseRepository--><g id="link_ListCoursesService_CourseRepository"><path codeLine="55" d="M708,535.66 C708,567.33 708,612.09 708,647.06 " fill="none" id="ListCoursesService-to-CourseRepository" style="stroke:#181818;stroke-width:1.0;"/><polygon fill="#181818" points="708,652.03,712,643.03,708,647.03,704,643.03,708,652.03" style="stroke:#181818;stroke-width:1.0;"/></g><!--SRC=[jLBBJiCm4BpxAtAaGla5f58u8F6GKl41AsS9HeuTl4wggkg_upeE3eGukU3JUcTtTZnUBe4eUm855Hh6_MtRD4PtME07SdklZ9QoHcLV7x8JozovBZMzwyFLXfrPkcMdbRt4Q8RM2WEyjs1nfrj3I8vf00lyR94iHOu1R9lITSGyzVFJ0lPeEi5nDFtF0P6dLnJ1K1u8ygmbDCzGOxYg668DGeOOl1hmZsmf9Bb1zu3oHGrtFsf4XgMmGl-4lKr90thTZu9iS7Fwvdd7GSgOEI-OK62ZILXjZgSL_qNGuPGqSWpwGfsFtuGgRuztIA9ISF5Y36n_QMLXQxCylvdVMJQBkBR5jMMB5OvbwlsgjlJAiZJi-XT_QPMAVsLXKsk-YqSJlW00]--></g></svg>