<?xml version="1.0" encoding="us-ascii" standalone="no"?><svg xmlns="http://www.w3.org/2000/svg" xmlns:xlink="http://www.w3.org/1999/xlink" contentStyleType="text/css" height="1046px" preserveAspectRatio="none" style="width:1816px;height:1046px;background:#FFFFFF;" version="1.1" viewBox="0 0 1816 1046" width="1816px" zoomAndPan="magnify"><defs/><g><!--class Teacher--><g id="elem_Teacher"><rect codeLine="2" fill="#F1F1F1" height="48" id="Teacher" rx="2.5" ry="2.5" style="stroke:#181818;stroke-width:0.5;" width="87" x="516.85" y="7"/><ellipse cx="531.85" cy="23" fill="#ADD1B2" rx="11" ry="11" style="stroke:#181818;stroke-width:1.0;"/><path d="M534.8231,28.6431 Q534.2421,28.9419 533.6029,29.0913 Q532.9638,29.2407 532.2582,29.2407 Q529.7514,29.2407 528.4315,27.5889 Q527.1117,25.937 527.1117,22.8159 Q527.1117,19.6865 528.4315,18.0347 Q529.7514,16.3828 532.2582,16.3828 Q532.9638,16.3828 533.6112,16.5322 Q534.2587,16.6816 534.8231,16.9805 L534.8231,19.7031 Q534.1923,19.1221 533.5988,18.8523 Q533.0053,18.5825 532.3744,18.5825 Q531.0297,18.5825 530.3449,19.6492 Q529.6601,20.7158 529.6601,22.8159 Q529.6601,24.9077 530.3449,25.9744 Q531.0297,27.041 532.3744,27.041 Q533.0053,27.041 533.5988,26.7712 Q534.1923,26.5015 534.8231,25.9204 Z " fill="#000000"/><text fill="#000000" font-family="sans-serif" font-size="14" lengthAdjust="spacing" textLength="55" x="545.85" y="28.291">Teacher</text><line style="stroke:#181818;stroke-width:0.5;" x1="517.85" x2="602.85" y1="39" y2="39"/><line style="stroke:#181818;stroke-width:0.5;" x1="517.85" x2="602.85" y1="47" y2="47"/></g><!--class CreateUpdateExamUI--><g id="elem_CreateUpdateExamUI"><rect codeLine="3" fill="#F1F1F1" height="64.4883" id="CreateUpdateExamUI" rx="2.5" ry="2.5" style="stroke:#181818;stroke-width:0.5;" width="178" x="471.35" y="115"/><ellipse cx="486.35" cy="131" fill="#ADD1B2" rx="11" ry="11" style="stroke:#181818;stroke-width:1.0;"/><path d="M489.3231,136.6431 Q488.7421,136.9419 488.1029,137.0913 Q487.4638,137.2407 486.7582,137.2407 Q484.2514,137.2407 482.9315,135.5889 Q481.6117,133.937 481.6117,130.8159 Q481.6117,127.6865 482.9315,126.0347 Q484.2514,124.3828 486.7582,124.3828 Q487.4638,124.3828 488.1112,124.5322 Q488.7587,124.6816 489.3231,124.9805 L489.3231,127.7031 Q488.6923,127.1221 488.0988,126.8523 Q487.5053,126.5825 486.8744,126.5825 Q485.5297,126.5825 484.8449,127.6492 Q484.1601,128.7158 484.1601,130.8159 Q484.1601,132.9077 484.8449,133.9744 Q485.5297,135.041 486.8744,135.041 Q487.5053,135.041 488.0988,134.7712 Q488.6923,134.5015 489.3231,133.9204 Z " fill="#000000"/><text fill="#000000" font-family="sans-serif" font-size="14" lengthAdjust="spacing" textLength="146" x="500.35" y="136.291">CreateUpdateExamUI</text><line style="stroke:#181818;stroke-width:0.5;" x1="472.35" x2="648.35" y1="147" y2="147"/><line style="stroke:#181818;stroke-width:0.5;" x1="472.35" x2="648.35" y1="155" y2="155"/><ellipse cx="482.35" cy="168.7441" fill="#84BE84" rx="3" ry="3" style="stroke:#038048;stroke-width:1.0;"/><text fill="#000000" font-family="sans-serif" font-size="14" lengthAdjust="spacing" textLength="64" x="491.35" y="172.5352">doshow()</text></g><!--class CreateUpdateExamController--><g id="elem_CreateUpdateExamController"><rect codeLine="6" fill="#F1F1F1" height="130.4414" id="CreateUpdateExamController" rx="2.5" ry="2.5" style="stroke:#181818;stroke-width:0.5;" width="234" x="443.35" y="239"/><ellipse cx="458.35" cy="255" fill="#ADD1B2" rx="11" ry="11" style="stroke:#181818;stroke-width:1.0;"/><path d="M461.3231,260.6431 Q460.7421,260.9419 460.1029,261.0913 Q459.4638,261.2407 458.7582,261.2407 Q456.2514,261.2407 454.9315,259.5889 Q453.6117,257.937 453.6117,254.8159 Q453.6117,251.6865 454.9315,250.0347 Q456.2514,248.3828 458.7582,248.3828 Q459.4638,248.3828 460.1112,248.5322 Q460.7587,248.6816 461.3231,248.9805 L461.3231,251.7031 Q460.6923,251.1221 460.0988,250.8523 Q459.5053,250.5825 458.8744,250.5825 Q457.5297,250.5825 456.8449,251.6492 Q456.1601,252.7158 456.1601,254.8159 Q456.1601,256.9077 456.8449,257.9744 Q457.5297,259.041 458.8744,259.041 Q459.5053,259.041 460.0988,258.7712 Q460.6923,258.5015 461.3231,257.9204 Z " fill="#000000"/><text fill="#000000" font-family="sans-serif" font-size="14" lengthAdjust="spacing" textLength="202" x="472.35" y="260.291">CreateUpdateExamController</text><line style="stroke:#181818;stroke-width:0.5;" x1="444.35" x2="676.35" y1="271" y2="271"/><line style="stroke:#181818;stroke-width:0.5;" x1="444.35" x2="676.35" y1="279" y2="279"/><ellipse cx="454.35" cy="292.7441" fill="#84BE84" rx="3" ry="3" style="stroke:#038048;stroke-width:1.0;"/><text fill="#000000" font-family="sans-serif" font-size="14" lengthAdjust="spacing" textLength="96" x="463.35" y="296.5352">updateExam()</text><ellipse cx="454.35" cy="309.2324" fill="#84BE84" rx="3" ry="3" style="stroke:#038048;stroke-width:1.0;"/><text fill="#000000" font-family="sans-serif" font-size="14" lengthAdjust="spacing" textLength="98" x="463.35" y="313.0234">infoForExam()</text><ellipse cx="454.35" cy="325.7207" fill="#84BE84" rx="3" ry="3" style="stroke:#038048;stroke-width:1.0;"/><text fill="#000000" font-family="sans-serif" font-size="14" lengthAdjust="spacing" textLength="102" x="463.35" y="329.5117">createSection()</text><ellipse cx="454.35" cy="342.209" fill="#84BE84" rx="3" ry="3" style="stroke:#038048;stroke-width:1.0;"/><text fill="#000000" font-family="sans-serif" font-size="14" lengthAdjust="spacing" textLength="114" x="463.35" y="346">createQuestion()</text><ellipse cx="454.35" cy="358.6973" fill="#84BE84" rx="3" ry="3" style="stroke:#038048;stroke-width:1.0;"/><text fill="#000000" font-family="sans-serif" font-size="14" lengthAdjust="spacing" textLength="70" x="463.35" y="362.4883">getExam()</text></g><!--class PersistenceContext--><g id="elem_PersistenceContext"><rect codeLine="13" fill="#F1F1F1" height="97.4648" id="PersistenceContext" rx="2.5" ry="2.5" style="stroke:#181818;stroke-width:0.5;" width="302" x="134.35" y="437.5"/><ellipse cx="215.1" cy="453.5" fill="#ADD1B2" rx="11" ry="11" style="stroke:#181818;stroke-width:1.0;"/><path d="M218.0731,459.1431 Q217.4921,459.4419 216.8529,459.5913 Q216.2138,459.7407 215.5082,459.7407 Q213.0014,459.7407 211.6815,458.0889 Q210.3617,456.437 210.3617,453.3159 Q210.3617,450.1865 211.6815,448.5347 Q213.0014,446.8828 215.5082,446.8828 Q216.2138,446.8828 216.8612,447.0322 Q217.5087,447.1816 218.0731,447.4805 L218.0731,450.2031 Q217.4423,449.6221 216.8488,449.3523 Q216.2553,449.0825 215.6244,449.0825 Q214.2797,449.0825 213.5949,450.1492 Q212.9101,451.2158 212.9101,453.3159 Q212.9101,455.4077 213.5949,456.4744 Q214.2797,457.541 215.6244,457.541 Q216.2553,457.541 216.8488,457.2712 Q217.4423,457.0015 218.0731,456.4204 Z " fill="#000000"/><text fill="#000000" font-family="sans-serif" font-size="14" lengthAdjust="spacing" textLength="132" x="235.6" y="458.791">PersistenceContext</text><line style="stroke:#181818;stroke-width:0.5;" x1="135.35" x2="435.35" y1="469.5" y2="469.5"/><rect fill="none" height="6" style="stroke:#C82930;stroke-width:1.0;" width="6" x="142.35" y="480.2441"/><text fill="#000000" font-family="sans-serif" font-size="14" lengthAdjust="spacing" textLength="230" x="154.35" y="487.0352">examRepository: ExamRepository</text><rect fill="none" height="6" style="stroke:#C82930;stroke-width:1.0;" width="6" x="142.35" y="496.7324"/><text fill="#000000" font-family="sans-serif" font-size="14" lengthAdjust="spacing" textLength="276" x="154.35" y="503.5234">questionRepository: QuestionRepository</text><line style="stroke:#181818;stroke-width:0.5;" x1="135.35" x2="435.35" y1="510.4766" y2="510.4766"/><ellipse cx="145.35" cy="524.2207" fill="#84BE84" rx="3" ry="3" style="stroke:#038048;stroke-width:1.0;"/><text fill="#000000" font-family="sans-serif" font-size="14" lengthAdjust="spacing" textLength="92" x="154.35" y="528.0117">repositories()</text></g><!--class RepositoryFactory--><g id="elem_RepositoryFactory"><rect codeLine="18" fill="#F1F1F1" height="64.4883" id="RepositoryFactory" rx="2.5" ry="2.5" style="stroke:#181818;stroke-width:0.5;" width="155" x="207.85" y="677.5"/><ellipse cx="222.85" cy="693.5" fill="#ADD1B2" rx="11" ry="11" style="stroke:#181818;stroke-width:1.0;"/><path d="M225.8231,699.1431 Q225.2421,699.4419 224.6029,699.5913 Q223.9638,699.7407 223.2582,699.7407 Q220.7514,699.7407 219.4315,698.0889 Q218.1117,696.437 218.1117,693.3159 Q218.1117,690.1865 219.4315,688.5347 Q220.7514,686.8828 223.2582,686.8828 Q223.9638,686.8828 224.6112,687.0322 Q225.2587,687.1816 225.8231,687.4805 L225.8231,690.2031 Q225.1923,689.6221 224.5988,689.3523 Q224.0053,689.0825 223.3744,689.0825 Q222.0297,689.0825 221.3449,690.1492 Q220.6601,691.2158 220.6601,693.3159 Q220.6601,695.4077 221.3449,696.4744 Q222.0297,697.541 223.3744,697.541 Q224.0053,697.541 224.5988,697.2712 Q225.1923,697.0015 225.8231,696.4204 Z " fill="#000000"/><text fill="#000000" font-family="sans-serif" font-size="14" lengthAdjust="spacing" textLength="123" x="236.85" y="698.791">RepositoryFactory</text><line style="stroke:#181818;stroke-width:0.5;" x1="208.85" x2="361.85" y1="709.5" y2="709.5"/><line style="stroke:#181818;stroke-width:0.5;" x1="208.85" x2="361.85" y1="717.5" y2="717.5"/><ellipse cx="218.85" cy="731.2441" fill="#84BE84" rx="3" ry="3" style="stroke:#038048;stroke-width:1.0;"/><text fill="#000000" font-family="sans-serif" font-size="14" lengthAdjust="spacing" textLength="52" x="227.85" y="735.0352">create()</text></g><!--class Header--><g id="elem_Header"><rect codeLine="21" fill="#F1F1F1" height="113.9531" id="Header" rx="2.5" ry="2.5" style="stroke:#181818;stroke-width:0.5;" width="127" x="1603.85" y="429"/><ellipse cx="1639.55" cy="445" fill="#ADD1B2" rx="11" ry="11" style="stroke:#181818;stroke-width:1.0;"/><path d="M1642.5231,450.6431 Q1641.9421,450.9419 1641.3029,451.0913 Q1640.6638,451.2407 1639.9582,451.2407 Q1637.4514,451.2407 1636.1315,449.5889 Q1634.8117,447.937 1634.8117,444.8159 Q1634.8117,441.6865 1636.1315,440.0347 Q1637.4514,438.3828 1639.9582,438.3828 Q1640.6638,438.3828 1641.3112,438.5322 Q1641.9587,438.6816 1642.5231,438.9805 L1642.5231,441.7031 Q1641.8923,441.1221 1641.2988,440.8523 Q1640.7053,440.5825 1640.0744,440.5825 Q1638.7297,440.5825 1638.0449,441.6492 Q1637.3601,442.7158 1637.3601,444.8159 Q1637.3601,446.9077 1638.0449,447.9744 Q1638.7297,449.041 1640.0744,449.041 Q1640.7053,449.041 1641.2988,448.7712 Q1641.8923,448.5015 1642.5231,447.9204 Z " fill="#000000"/><text fill="#000000" font-family="sans-serif" font-size="14" lengthAdjust="spacing" textLength="49" x="1658.15" y="450.291">Header</text><line style="stroke:#181818;stroke-width:0.5;" x1="1604.85" x2="1729.85" y1="461" y2="461"/><rect fill="none" height="6" style="stroke:#C82930;stroke-width:1.0;" width="6" x="1611.85" y="471.7441"/><text fill="#000000" font-family="sans-serif" font-size="14" lengthAdjust="spacing" textLength="95" x="1623.85" y="478.5352">feedbackType</text><rect fill="none" height="6" style="stroke:#C82930;stroke-width:1.0;" width="6" x="1611.85" y="488.2324"/><text fill="#000000" font-family="sans-serif" font-size="14" lengthAdjust="spacing" textLength="73" x="1623.85" y="495.0234">gradeType</text><rect fill="none" height="6" style="stroke:#C82930;stroke-width:1.0;" width="6" x="1611.85" y="504.7207"/><text fill="#000000" font-family="sans-serif" font-size="14" lengthAdjust="spacing" textLength="77" x="1623.85" y="511.5117">description</text><line style="stroke:#181818;stroke-width:0.5;" x1="1604.85" x2="1729.85" y1="518.4648" y2="518.4648"/><ellipse cx="1614.85" cy="532.209" fill="#84BE84" rx="3" ry="3" style="stroke:#038048;stroke-width:1.0;"/><text fill="#000000" font-family="sans-serif" font-size="14" lengthAdjust="spacing" textLength="101" x="1623.85" y="536">createHeader()</text></g><!--class FeedbackType--><g id="elem_FeedbackType"><rect codeLine="27" fill="#F1F1F1" height="97.4648" id="FeedbackType" rx="2.5" ry="2.5" style="stroke:#181818;stroke-width:0.5;" width="130" x="1521.35" y="255.5"/><ellipse cx="1536.35" cy="271.5" fill="#EB937F" rx="11" ry="11" style="stroke:#181818;stroke-width:1.0;"/><path d="M1540.4643,277.5 L1532.7445,277.5 L1532.7445,265.1069 L1540.4643,265.1069 L1540.4643,267.2651 L1535.1933,267.2651 L1535.1933,269.938 L1539.9662,269.938 L1539.9662,272.0962 L1535.1933,272.0962 L1535.1933,275.3418 L1540.4643,275.3418 Z " fill="#000000"/><text fill="#000000" font-family="sans-serif" font-size="14" lengthAdjust="spacing" textLength="98" x="1550.35" y="276.791">FeedbackType</text><line style="stroke:#181818;stroke-width:0.5;" x1="1522.35" x2="1650.35" y1="287.5" y2="287.5"/><text fill="#000000" font-family="sans-serif" font-size="14" lengthAdjust="spacing" textLength="39" x="1527.35" y="305.0352">NONE</text><text fill="#000000" font-family="sans-serif" font-size="14" lengthAdjust="spacing" textLength="111" x="1527.35" y="321.5234">ON_SUBMISSION</text><text fill="#000000" font-family="sans-serif" font-size="14" lengthAdjust="spacing" textLength="111" x="1527.35" y="338.0117">AFTER_CLOSING</text><line style="stroke:#181818;stroke-width:0.5;" x1="1522.35" x2="1650.35" y1="344.9648" y2="344.9648"/></g><!--class GradeType--><g id="elem_GradeType"><rect codeLine="33" fill="#F1F1F1" height="97.4648" id="GradeType" rx="2.5" ry="2.5" style="stroke:#181818;stroke-width:0.5;" width="123" x="1686.85" y="255.5"/><ellipse cx="1709.5" cy="271.5" fill="#EB937F" rx="11" ry="11" style="stroke:#181818;stroke-width:1.0;"/><path d="M1713.6143,277.5 L1705.8945,277.5 L1705.8945,265.1069 L1713.6143,265.1069 L1713.6143,267.2651 L1708.3433,267.2651 L1708.3433,269.938 L1713.1162,269.938 L1713.1162,272.0962 L1708.3433,272.0962 L1708.3433,275.3418 L1713.6143,275.3418 Z " fill="#000000"/><text fill="#000000" font-family="sans-serif" font-size="14" lengthAdjust="spacing" textLength="74" x="1725.2" y="276.791">GradeType</text><line style="stroke:#181818;stroke-width:0.5;" x1="1687.85" x2="1808.85" y1="287.5" y2="287.5"/><text fill="#000000" font-family="sans-serif" font-size="14" lengthAdjust="spacing" textLength="39" x="1692.85" y="305.0352">NONE</text><text fill="#000000" font-family="sans-serif" font-size="14" lengthAdjust="spacing" textLength="111" x="1692.85" y="321.5234">ON_SUBMISSION</text><text fill="#000000" font-family="sans-serif" font-size="14" lengthAdjust="spacing" textLength="111" x="1692.85" y="338.0117">AFTER_CLOSING</text><line style="stroke:#181818;stroke-width:0.5;" x1="1687.85" x2="1808.85" y1="344.9648" y2="344.9648"/></g><!--class QuestionType--><g id="elem_QuestionType"><rect codeLine="39" fill="#F1F1F1" height="64.4883" id="QuestionType" rx="2.5" ry="2.5" style="stroke:#181818;stroke-width:0.5;" width="697" x="613.85" y="454"/><ellipse cx="910.6" cy="470" fill="#EB937F" rx="11" ry="11" style="stroke:#181818;stroke-width:1.0;"/><path d="M914.7143,476 L906.9945,476 L906.9945,463.6069 L914.7143,463.6069 L914.7143,465.7651 L909.4433,465.7651 L909.4433,468.438 L914.2162,468.438 L914.2162,470.5962 L909.4433,470.5962 L909.4433,473.8418 L914.7143,473.8418 Z " fill="#000000"/><text fill="#000000" font-family="sans-serif" font-size="14" lengthAdjust="spacing" textLength="95" x="931.1" y="475.291">QuestionType</text><line style="stroke:#181818;stroke-width:0.5;" x1="614.85" x2="1309.85" y1="486" y2="486"/><text fill="#000000" font-family="sans-serif" font-size="14" lengthAdjust="spacing" textLength="685" x="619.85" y="503.5352">MATCHING, MULTIPLE_CHOICE, SHORT_ANSWER, NUMERICAL, SELECT_MISSING_WORDS, TRUE_FALSE</text><line style="stroke:#181818;stroke-width:0.5;" x1="614.85" x2="1309.85" y1="510.4883" y2="510.4883"/></g><!--class Builder--><g id="elem_Builder"><rect codeLine="43" fill="#F1F1F1" height="64.4883" id="Builder" rx="2.5" ry="2.5" style="stroke:#181818;stroke-width:0.5;" width="80" x="1346.35" y="454"/><ellipse cx="1361.35" cy="470" fill="#ADD1B2" rx="11" ry="11" style="stroke:#181818;stroke-width:1.0;"/><path d="M1364.3231,475.6431 Q1363.7421,475.9419 1363.1029,476.0913 Q1362.4638,476.2407 1361.7582,476.2407 Q1359.2514,476.2407 1357.9315,474.5889 Q1356.6117,472.937 1356.6117,469.8159 Q1356.6117,466.6865 1357.9315,465.0347 Q1359.2514,463.3828 1361.7582,463.3828 Q1362.4638,463.3828 1363.1112,463.5322 Q1363.7587,463.6816 1364.3231,463.9805 L1364.3231,466.7031 Q1363.6923,466.1221 1363.0988,465.8523 Q1362.5053,465.5825 1361.8744,465.5825 Q1360.5297,465.5825 1359.8449,466.6492 Q1359.1601,467.7158 1359.1601,469.8159 Q1359.1601,471.9077 1359.8449,472.9744 Q1360.5297,474.041 1361.8744,474.041 Q1362.5053,474.041 1363.0988,473.7712 Q1363.6923,473.5015 1364.3231,472.9204 Z " fill="#000000"/><text fill="#000000" font-family="sans-serif" font-size="14" lengthAdjust="spacing" textLength="48" x="1375.35" y="475.291">Builder</text><line style="stroke:#181818;stroke-width:0.5;" x1="1347.35" x2="1425.35" y1="486" y2="486"/><line style="stroke:#181818;stroke-width:0.5;" x1="1347.35" x2="1425.35" y1="494" y2="494"/><ellipse cx="1357.35" cy="507.7441" fill="#84BE84" rx="3" ry="3" style="stroke:#038048;stroke-width:1.0;"/><text fill="#000000" font-family="sans-serif" font-size="14" lengthAdjust="spacing" textLength="52" x="1366.35" y="511.5352">create()</text></g><!--class SequenceSection--><g id="elem_SequenceSection"><rect codeLine="46" fill="#F1F1F1" height="163.418" id="SequenceSection" rx="2.5" ry="2.5" style="stroke:#181818;stroke-width:0.5;" width="199" x="1437.85" y="876"/><ellipse cx="1475.8" cy="892" fill="#ADD1B2" rx="11" ry="11" style="stroke:#181818;stroke-width:1.0;"/><path d="M1478.7731,897.6431 Q1478.1921,897.9419 1477.5529,898.0913 Q1476.9138,898.2407 1476.2082,898.2407 Q1473.7014,898.2407 1472.3815,896.5889 Q1471.0617,894.937 1471.0617,891.8159 Q1471.0617,888.6865 1472.3815,887.0347 Q1473.7014,885.3828 1476.2082,885.3828 Q1476.9138,885.3828 1477.5612,885.5322 Q1478.2087,885.6816 1478.7731,885.9805 L1478.7731,888.7031 Q1478.1423,888.1221 1477.5488,887.8523 Q1476.9553,887.5825 1476.3244,887.5825 Q1474.9797,887.5825 1474.2949,888.6492 Q1473.6101,889.7158 1473.6101,891.8159 Q1473.6101,893.9077 1474.2949,894.9744 Q1474.9797,896.041 1476.3244,896.041 Q1476.9553,896.041 1477.5488,895.7712 Q1478.1423,895.5015 1478.7731,894.9204 Z " fill="#000000"/><text fill="#000000" font-family="sans-serif" font-size="14" lengthAdjust="spacing" textLength="116" x="1494.9" y="897.291">SequenceSection</text><line style="stroke:#181818;stroke-width:0.5;" x1="1438.85" x2="1635.85" y1="908" y2="908"/><rect fill="none" height="6" style="stroke:#C82930;stroke-width:1.0;" width="6" x="1445.85" y="918.7441"/><text fill="#000000" font-family="sans-serif" font-size="14" lengthAdjust="spacing" textLength="104" x="1457.85" y="925.5352">sectionNumber</text><rect fill="none" height="6" style="stroke:#C82930;stroke-width:1.0;" width="6" x="1445.85" y="935.2324"/><text fill="#000000" font-family="sans-serif" font-size="14" lengthAdjust="spacing" textLength="77" x="1457.85" y="942.0234">description</text><rect fill="none" height="6" style="stroke:#C82930;stroke-width:1.0;" width="6" x="1445.85" y="951.7207"/><text fill="#000000" font-family="sans-serif" font-size="14" lengthAdjust="spacing" textLength="139" x="1457.85" y="958.5117">numberOfQuestions</text><rect fill="none" height="6" style="stroke:#C82930;stroke-width:1.0;" width="6" x="1445.85" y="968.209"/><text fill="#000000" font-family="sans-serif" font-size="14" lengthAdjust="spacing" textLength="105" x="1457.85" y="975">listOfQuestions</text><line style="stroke:#181818;stroke-width:0.5;" x1="1438.85" x2="1635.85" y1="981.9531" y2="981.9531"/><ellipse cx="1448.85" cy="995.6973" fill="#84BE84" rx="3" ry="3" style="stroke:#038048;stroke-width:1.0;"/><text fill="#000000" font-family="sans-serif" font-size="14" lengthAdjust="spacing" textLength="98" x="1457.85" y="999.4883">addQuestion()</text><ellipse cx="1448.85" cy="1012.1855" fill="#84BE84" rx="3" ry="3" style="stroke:#038048;stroke-width:1.0;"/><text fill="#000000" font-family="sans-serif" font-size="14" lengthAdjust="spacing" textLength="102" x="1457.85" y="1015.9766">createSection()</text><ellipse cx="1448.85" cy="1028.6738" fill="#84BE84" rx="3" ry="3" style="stroke:#038048;stroke-width:1.0;"/><text fill="#000000" font-family="sans-serif" font-size="14" lengthAdjust="spacing" textLength="173" x="1457.85" y="1032.4648">addQuestionsToSection()</text></g><!--class Question--><g id="elem_Question"><rect codeLine="55" fill="#F1F1F1" height="113.9531" id="Question" rx="2.5" ry="2.5" style="stroke:#181818;stroke-width:0.5;" width="140" x="892.35" y="652.5"/><ellipse cx="928.05" cy="668.5" fill="#ADD1B2" rx="11" ry="11" style="stroke:#181818;stroke-width:1.0;"/><path d="M931.0231,674.1431 Q930.4421,674.4419 929.8029,674.5913 Q929.1638,674.7407 928.4582,674.7407 Q925.9514,674.7407 924.6315,673.0889 Q923.3117,671.437 923.3117,668.3159 Q923.3117,665.1865 924.6315,663.5347 Q925.9514,661.8828 928.4582,661.8828 Q929.1638,661.8828 929.8112,662.0322 Q930.4587,662.1816 931.0231,662.4805 L931.0231,665.2031 Q930.3923,664.6221 929.7988,664.3523 Q929.2053,664.0825 928.5744,664.0825 Q927.2297,664.0825 926.5449,665.1492 Q925.8601,666.2158 925.8601,668.3159 Q925.8601,670.4077 926.5449,671.4744 Q927.2297,672.541 928.5744,672.541 Q929.2053,672.541 929.7988,672.2712 Q930.3923,672.0015 931.0231,671.4204 Z " fill="#000000"/><text fill="#000000" font-family="sans-serif" font-size="14" lengthAdjust="spacing" textLength="62" x="946.65" y="673.791">Question</text><line style="stroke:#181818;stroke-width:0.5;" x1="893.35" x2="1031.35" y1="684.5" y2="684.5"/><rect fill="none" height="6" style="stroke:#C82930;stroke-width:1.0;" width="6" x="900.35" y="695.2441"/><text fill="#000000" font-family="sans-serif" font-size="14" lengthAdjust="spacing" textLength="60" x="912.35" y="702.0352">question</text><rect fill="none" height="6" style="stroke:#C82930;stroke-width:1.0;" width="6" x="900.35" y="711.7324"/><text fill="#000000" font-family="sans-serif" font-size="14" lengthAdjust="spacing" textLength="56" x="912.35" y="718.5234">solution</text><rect fill="none" height="6" style="stroke:#C82930;stroke-width:1.0;" width="6" x="900.35" y="728.2207"/><text fill="#000000" font-family="sans-serif" font-size="14" lengthAdjust="spacing" textLength="93" x="912.35" y="735.0117">questionType</text><line style="stroke:#181818;stroke-width:0.5;" x1="893.35" x2="1031.35" y1="741.9648" y2="741.9648"/><ellipse cx="903.35" cy="755.709" fill="#84BE84" rx="3" ry="3" style="stroke:#038048;stroke-width:1.0;"/><text fill="#000000" font-family="sans-serif" font-size="14" lengthAdjust="spacing" textLength="114" x="912.35" y="759.5">createQuestion()</text></g><!--class Exam--><g id="elem_Exam"><rect codeLine="61" fill="#F1F1F1" height="212.8828" id="Exam" rx="2.5" ry="2.5" style="stroke:#181818;stroke-width:0.5;" width="127" x="1532.85" y="603"/><ellipse cx="1573.5" cy="619" fill="#ADD1B2" rx="11" ry="11" style="stroke:#181818;stroke-width:1.0;"/><path d="M1576.4731,624.6431 Q1575.8921,624.9419 1575.2529,625.0913 Q1574.6138,625.2407 1573.9082,625.2407 Q1571.4014,625.2407 1570.0815,623.5889 Q1568.7617,621.937 1568.7617,618.8159 Q1568.7617,615.6865 1570.0815,614.0347 Q1571.4014,612.3828 1573.9082,612.3828 Q1574.6138,612.3828 1575.2612,612.5322 Q1575.9087,612.6816 1576.4731,612.9805 L1576.4731,615.7031 Q1575.8423,615.1221 1575.2488,614.8523 Q1574.6553,614.5825 1574.0244,614.5825 Q1572.6797,614.5825 1571.9949,615.6492 Q1571.3101,616.7158 1571.3101,618.8159 Q1571.3101,620.9077 1571.9949,621.9744 Q1572.6797,623.041 1574.0244,623.041 Q1574.6553,623.041 1575.2488,622.7712 Q1575.8423,622.5015 1576.4731,621.9204 Z " fill="#000000"/><text fill="#000000" font-family="sans-serif" font-size="14" lengthAdjust="spacing" textLength="38" x="1593.2" y="624.291">Exam</text><line style="stroke:#181818;stroke-width:0.5;" x1="1533.85" x2="1658.85" y1="635" y2="635"/><rect fill="none" height="6" style="stroke:#C82930;stroke-width:1.0;" width="6" x="1540.85" y="645.7441"/><text fill="#000000" font-family="sans-serif" font-size="14" lengthAdjust="spacing" textLength="13" x="1552.85" y="652.5352">id</text><rect fill="none" height="6" style="stroke:#C82930;stroke-width:1.0;" width="6" x="1540.85" y="662.2324"/><text fill="#000000" font-family="sans-serif" font-size="14" lengthAdjust="spacing" textLength="46" x="1552.85" y="669.0234">course</text><rect fill="none" height="6" style="stroke:#C82930;stroke-width:1.0;" width="6" x="1540.85" y="678.7207"/><text fill="#000000" font-family="sans-serif" font-size="14" lengthAdjust="spacing" textLength="26" x="1552.85" y="685.5117">title</text><rect fill="none" height="6" style="stroke:#C82930;stroke-width:1.0;" width="6" x="1540.85" y="695.209"/><text fill="#000000" font-family="sans-serif" font-size="14" lengthAdjust="spacing" textLength="48" x="1552.85" y="702">header</text><rect fill="none" height="6" style="stroke:#C82930;stroke-width:1.0;" width="6" x="1540.85" y="711.6973"/><text fill="#000000" font-family="sans-serif" font-size="14" lengthAdjust="spacing" textLength="62" x="1552.85" y="718.4883">startDate</text><rect fill="none" height="6" style="stroke:#C82930;stroke-width:1.0;" width="6" x="1540.85" y="728.1855"/><text fill="#000000" font-family="sans-serif" font-size="14" lengthAdjust="spacing" textLength="57" x="1552.85" y="734.9766">endDate</text><rect fill="none" height="6" style="stroke:#C82930;stroke-width:1.0;" width="6" x="1540.85" y="744.6738"/><text fill="#000000" font-family="sans-serif" font-size="14" lengthAdjust="spacing" textLength="93" x="1552.85" y="751.4648">listOfSections</text><line style="stroke:#181818;stroke-width:0.5;" x1="1533.85" x2="1658.85" y1="758.418" y2="758.418"/><ellipse cx="1543.85" cy="772.1621" fill="#84BE84" rx="3" ry="3" style="stroke:#038048;stroke-width:1.0;"/><text fill="#000000" font-family="sans-serif" font-size="14" lengthAdjust="spacing" textLength="90" x="1552.85" y="775.9531">createExam()</text><ellipse cx="1543.85" cy="788.6504" fill="#84BE84" rx="3" ry="3" style="stroke:#038048;stroke-width:1.0;"/><text fill="#000000" font-family="sans-serif" font-size="14" lengthAdjust="spacing" textLength="96" x="1552.85" y="792.4414">updateExam()</text><ellipse cx="1543.85" cy="805.1387" fill="#84BE84" rx="3" ry="3" style="stroke:#038048;stroke-width:1.0;"/><text fill="#000000" font-family="sans-serif" font-size="14" lengthAdjust="spacing" textLength="101" x="1552.85" y="808.9297">validateExam()</text></g><!--class ExamRepository--><g id="elem_ExamRepository"><rect codeLine="73" fill="#F1F1F1" height="97.4648" id="ExamRepository" rx="2.5" ry="2.5" style="stroke:#181818;stroke-width:0.5;" width="167" x="401.85" y="661"/><ellipse cx="427.65" cy="677" fill="#ADD1B2" rx="11" ry="11" style="stroke:#181818;stroke-width:1.0;"/><path d="M430.6231,682.6431 Q430.0421,682.9419 429.4029,683.0913 Q428.7638,683.2407 428.0582,683.2407 Q425.5514,683.2407 424.2315,681.5889 Q422.9117,679.937 422.9117,676.8159 Q422.9117,673.6865 424.2315,672.0347 Q425.5514,670.3828 428.0582,670.3828 Q428.7638,670.3828 429.4112,670.5322 Q430.0587,670.6816 430.6231,670.9805 L430.6231,673.7031 Q429.9923,673.1221 429.3988,672.8523 Q428.8053,672.5825 428.1744,672.5825 Q426.8297,672.5825 426.1449,673.6492 Q425.4601,674.7158 425.4601,676.8159 Q425.4601,678.9077 426.1449,679.9744 Q426.8297,681.041 428.1744,681.041 Q428.8053,681.041 429.3988,680.7712 Q429.9923,680.5015 430.6231,679.9204 Z " fill="#000000"/><text fill="#000000" font-family="sans-serif" font-size="14" lengthAdjust="spacing" textLength="111" x="444.05" y="682.291">ExamRepository</text><line style="stroke:#181818;stroke-width:0.5;" x1="402.85" x2="567.85" y1="693" y2="693"/><line style="stroke:#181818;stroke-width:0.5;" x1="402.85" x2="567.85" y1="701" y2="701"/><ellipse cx="412.85" cy="714.7441" fill="#84BE84" rx="3" ry="3" style="stroke:#038048;stroke-width:1.0;"/><text fill="#000000" font-family="sans-serif" font-size="14" lengthAdjust="spacing" textLength="40" x="421.85" y="718.5352">save()</text><ellipse cx="412.85" cy="731.2324" fill="#84BE84" rx="3" ry="3" style="stroke:#038048;stroke-width:1.0;"/><text fill="#000000" font-family="sans-serif" font-size="14" lengthAdjust="spacing" textLength="141" x="421.85" y="735.0234">getExamsByCourse()</text><ellipse cx="412.85" cy="747.7207" fill="#84BE84" rx="3" ry="3" style="stroke:#038048;stroke-width:1.0;"/><text fill="#000000" font-family="sans-serif" font-size="14" lengthAdjust="spacing" textLength="70" x="421.85" y="751.5117">getExam()</text></g><!--class QuestionRepository--><g id="elem_QuestionRepository"><rect codeLine="78" fill="#F1F1F1" height="80.9766" id="QuestionRepository" rx="2.5" ry="2.5" style="stroke:#181818;stroke-width:0.5;" width="168" x="70.35" y="917"/><ellipse cx="85.8" cy="933" fill="#ADD1B2" rx="11" ry="11" style="stroke:#181818;stroke-width:1.0;"/><path d="M88.7731,938.6431 Q88.1921,938.9419 87.5529,939.0913 Q86.9138,939.2407 86.2082,939.2407 Q83.7014,939.2407 82.3815,937.5889 Q81.0617,935.937 81.0617,932.8159 Q81.0617,929.6865 82.3815,928.0347 Q83.7014,926.3828 86.2082,926.3828 Q86.9138,926.3828 87.5612,926.5322 Q88.2087,926.6816 88.7731,926.9805 L88.7731,929.7031 Q88.1423,929.1221 87.5488,928.8523 Q86.9553,928.5825 86.3244,928.5825 Q84.9797,928.5825 84.2949,929.6492 Q83.6101,930.7158 83.6101,932.8159 Q83.6101,934.9077 84.2949,935.9744 Q84.9797,937.041 86.3244,937.041 Q86.9553,937.041 87.5488,936.7712 Q88.1423,936.5015 88.7731,935.9204 Z " fill="#000000"/><text fill="#000000" font-family="sans-serif" font-size="14" lengthAdjust="spacing" textLength="135" x="99.9" y="938.291">QuestionRepository</text><line style="stroke:#181818;stroke-width:0.5;" x1="71.35" x2="237.35" y1="949" y2="949"/><line style="stroke:#181818;stroke-width:0.5;" x1="71.35" x2="237.35" y1="957" y2="957"/><ellipse cx="81.35" cy="970.7441" fill="#84BE84" rx="3" ry="3" style="stroke:#038048;stroke-width:1.0;"/><text fill="#000000" font-family="sans-serif" font-size="14" lengthAdjust="spacing" textLength="40" x="90.35" y="974.5352">save()</text><ellipse cx="81.35" cy="987.2324" fill="#84BE84" rx="3" ry="3" style="stroke:#038048;stroke-width:1.0;"/><text fill="#000000" font-family="sans-serif" font-size="14" lengthAdjust="spacing" textLength="142" x="90.35" y="991.0234">getQuestionByType()</text></g><!--link Teacher to CreateUpdateExamUI--><g id="link_Teacher_CreateUpdateExamUI"><path codeLine="83" d="M560.35,55.34 C560.35,70.66 560.35,91.03 560.35,108.58 " fill="none" id="Teacher-to-CreateUpdateExamUI" style="stroke:#181818;stroke-width:1.0;"/><polygon fill="#181818" points="560.35,113.39,564.35,104.39,560.35,108.39,556.35,104.39,560.35,113.39" style="stroke:#181818;stroke-width:1.0;"/></g><!--link CreateUpdateExamUI to CreateUpdateExamController--><g id="link_CreateUpdateExamUI_CreateUpdateExamController"><path codeLine="84" d="M560.35,179.37 C560.35,194.71 560.35,213.83 560.35,232.43 " fill="none" id="CreateUpdateExamUI-to-CreateUpdateExamController" style="stroke:#181818;stroke-width:1.0;"/><polygon fill="#181818" points="560.35,237.19,564.35,228.19,560.35,232.19,556.35,228.19,560.35,237.19" style="stroke:#181818;stroke-width:1.0;"/></g><!--link CreateUpdateExamController to PersistenceContext--><g id="link_CreateUpdateExamController_PersistenceContext"><path codeLine="85" d="M461.84,369.48 C429.64,390.55 394.34,413.66 363.82,433.64 " fill="none" id="CreateUpdateExamController-to-PersistenceContext" style="stroke:#181818;stroke-width:1.0;"/><polygon fill="#181818" points="359.84,436.24,369.5601,434.6528,364.0221,433.4995,365.1754,427.9615,359.84,436.24" style="stroke:#181818;stroke-width:1.0;"/></g><!--link CreateUpdateExamController to SequenceSection--><g id="link_CreateUpdateExamController_SequenceSection"><path codeLine="86" d="M677.83,305.03 C892.58,307.66 1336.28,325.8 1443.35,429 C1451.27,436.64 1498.91,721.64 1523.17,869.46 " fill="none" id="CreateUpdateExamController-to-SequenceSection" style="stroke:#181818;stroke-width:1.0;"/><polygon fill="#181818" points="1523.92,874.04,1526.4039,864.5095,1523.1073,869.1065,1518.5103,865.8099,1523.92,874.04" style="stroke:#181818;stroke-width:1.0;"/></g><!--link CreateUpdateExamController to Question--><g id="link_CreateUpdateExamController_Question"><path codeLine="87" d="M554.24,369.49 C552.77,421.37 558.88,493.53 596.35,543 C666.58,635.75 800.7,677.9 885.62,696.01 " fill="none" id="CreateUpdateExamController-to-Question" style="stroke:#181818;stroke-width:1.0;"/><polygon fill="#181818" points="890.42,697.01,882.4176,691.2687,885.5238,695.9965,880.796,699.1027,890.42,697.01" style="stroke:#181818;stroke-width:1.0;"/></g><!--link CreateUpdateExamController to Exam--><g id="link_CreateUpdateExamController_Exam"><path codeLine="88" d="M677.63,305.24 C902.24,308.08 1381.81,326.36 1505.35,429 C1554.58,469.9 1577.41,537.82 1587.9,596.46 " fill="none" id="CreateUpdateExamController-to-Exam" style="stroke:#181818;stroke-width:1.0;"/><polygon fill="#181818" points="1588.74,601.34,1591.161,591.7933,1587.8948,596.412,1583.2762,593.1457,1588.74,601.34" style="stroke:#181818;stroke-width:1.0;"/></g><!--link CreateUpdateExamController to Builder--><g id="link_CreateUpdateExamController_Builder"><path codeLine="89" d="M677.51,315.28 C863.4,333.02 1216.32,372.94 1328.35,429 C1338.48,434.07 1348.01,441.54 1356.3,449.38 " fill="none" id="CreateUpdateExamController-to-Builder" style="stroke:#181818;stroke-width:1.0;"/><polygon fill="#181818" points="1359.7,452.71,1356.0718,443.5538,1356.1289,449.2104,1350.4724,449.2675,1359.7,452.71" style="stroke:#181818;stroke-width:1.0;"/></g><!--link PersistenceContext to ExamRepository--><g id="link_PersistenceContext_ExamRepository"><path codeLine="90" d="M328.5,534.79 C360.83,570.6 405.03,619.55 438.27,656.37 " fill="none" id="PersistenceContext-to-ExamRepository" style="stroke:#181818;stroke-width:1.0;"/><polygon fill="#181818" points="441.26,659.67,438.2125,650.3045,437.9152,655.9535,432.2661,655.6562,441.26,659.67" style="stroke:#181818;stroke-width:1.0;"/></g><!--link PersistenceContext to QuestionRepository--><g id="link_PersistenceContext_QuestionRepository"><path codeLine="91" d="M235.38,534.96 C218.19,554.4 200.68,578.12 190.35,603 C147.38,706.41 147.24,840.9 150.8,910.4 " fill="none" id="PersistenceContext-to-QuestionRepository" style="stroke:#181818;stroke-width:1.0;"/><polygon fill="#181818" points="151.05,915.01,154.5563,905.8064,150.779,910.0174,146.568,906.2401,151.05,915.01" style="stroke:#181818;stroke-width:1.0;"/></g><!--link PersistenceContext to RepositoryFactory--><g id="link_PersistenceContext_RepositoryFactory"><path codeLine="92" d="M285.35,534.79 C285.35,575.54 285.35,633.33 285.35,670.87 " fill="none" id="PersistenceContext-to-RepositoryFactory" style="stroke:#181818;stroke-width:1.0;"/><polygon fill="#181818" points="285.35,675.66,289.35,666.66,285.35,670.66,281.35,666.66,285.35,675.66" style="stroke:#181818;stroke-width:1.0;"/></g><!--link RepositoryFactory to QuestionRepository--><g id="link_RepositoryFactory_QuestionRepository"><path codeLine="93" d="M268.62,741.91 C245.77,784.81 204.66,862.02 178.48,911.18 " fill="none" id="RepositoryFactory-to-QuestionRepository" style="stroke:#181818;stroke-width:1.0;"/><polygon fill="#181818" points="176.23,915.41,183.9906,909.3459,178.58,910.9966,176.9293,905.586,176.23,915.41" style="stroke:#181818;stroke-width:1.0;"/></g><!--link Builder to Question--><g id="link_Builder_Question"><path codeLine="94" d="M1357.66,518.47 C1348.8,527.1 1338.65,536 1328.35,543 C1235.84,605.78 1115.65,654.84 1038.74,682.74 " fill="none" id="Builder-to-Question" style="stroke:#181818;stroke-width:1.0;"/><polygon fill="#181818" points="1034.24,684.36,1044.062,685.0867,1038.9464,682.672,1041.3612,677.5564,1034.24,684.36" style="stroke:#181818;stroke-width:1.0;"/></g><!--link Builder to Exam--><g id="link_Builder_Exam"><path codeLine="95" d="M1415.99,518.27 C1445.11,548.99 1490.59,596.95 1528.59,637.03 " fill="none" id="Builder-to-Exam" style="stroke:#181818;stroke-width:1.0;"/><polygon fill="#181818" points="1531.67,640.28,1528.377,630.998,1528.2285,636.6529,1522.5736,636.5044,1531.67,640.28" style="stroke:#181818;stroke-width:1.0;"/></g><!--link CreateUpdateExamController to ExamRepository--><g id="link_CreateUpdateExamController_ExamRepository"><path codeLine="96" d="M546.45,369.28 C542.41,388.46 538.09,409.56 534.35,429 C519.31,507.14 503.74,597.95 494.3,654.32 " fill="none" id="CreateUpdateExamController-to-ExamRepository" style="stroke:#181818;stroke-width:1.0;"/><polygon fill="#181818" points="493.48,659.19,498.9167,650.9777,494.3089,654.2592,491.0275,649.6514,493.48,659.19" style="stroke:#181818;stroke-width:1.0;"/></g><!--link CreateUpdateExamController to QuestionRepository--><g id="link_CreateUpdateExamController_QuestionRepository"><path codeLine="97" d="M443.01,321.59 C325.26,340.92 155.81,377 116.35,429 C6,574.39 89.94,812.06 132.97,911.02 " fill="none" id="CreateUpdateExamController-to-QuestionRepository" style="stroke:#181818;stroke-width:1.0;"/><polygon fill="#181818" points="134.88,915.39,134.9115,905.5412,132.8639,910.8145,127.5906,908.7669,134.88,915.39" style="stroke:#181818;stroke-width:1.0;"/></g><!--link Exam to SequenceSection--><g id="link_Exam_SequenceSection"><path codeLine="98" d="M1570.98,816.25 C1566.73,834 1562.35,852.23 1558.23,869.44 " fill="none" id="Exam-to-SequenceSection" style="stroke:#181818;stroke-width:1.0;"/><polygon fill="#181818" points="1557.07,874.26,1563.0686,866.4487,1558.2423,869.3994,1555.2916,864.573,1557.07,874.26" style="stroke:#181818;stroke-width:1.0;"/></g><!--link FeedbackType to Header--><g id="link_FeedbackType_Header"><path codeLine="99" d="M1607.84,352.76 C1617.52,374.27 1629.07,399.94 1639.41,422.92 " fill="none" id="FeedbackType-to-Header" style="stroke:#181818;stroke-width:1.0;"/><polygon fill="#181818" points="1641.39,427.31,1641.3585,417.4612,1639.3447,422.7475,1634.0585,420.7336,1641.39,427.31" style="stroke:#181818;stroke-width:1.0;"/></g><!--link GradeType to Header--><g id="link_GradeType_Header"><path codeLine="100" d="M1726.85,352.76 C1717.17,374.27 1705.62,399.94 1695.28,422.92 " fill="none" id="GradeType-to-Header" style="stroke:#181818;stroke-width:1.0;"/><polygon fill="#181818" points="1693.3,427.31,1700.6315,420.7336,1695.3453,422.7475,1693.3315,417.4612,1693.3,427.31" style="stroke:#181818;stroke-width:1.0;"/></g><!--link Header to Exam--><g id="link_Header_Exam"><path codeLine="101" d="M1649.25,543.47 C1644,559.85 1638.07,578.33 1632.14,596.84 " fill="none" id="Header-to-Exam" style="stroke:#181818;stroke-width:1.0;"/><polygon fill="#181818" points="1630.76,601.15,1637.3215,593.8051,1632.2896,596.3897,1629.705,591.3578,1630.76,601.15" style="stroke:#181818;stroke-width:1.0;"/></g><!--link QuestionType to Question--><g id="link_QuestionType_Question"><path codeLine="102" d="M962.35,518.27 C962.35,551.27 962.35,604.19 962.35,645.84 " fill="none" id="QuestionType-to-Question" style="stroke:#181818;stroke-width:1.0;"/><polygon fill="#181818" points="962.35,650.65,966.35,641.65,962.35,645.65,958.35,641.65,962.35,650.65" style="stroke:#181818;stroke-width:1.0;"/></g><!--SRC=[bLJRRgCm47tdAtZSgiaFzA5IGfq4YK3BHNr4BamQj0IdjkasMks_h_4bE04stJxKcPapLsPEKMF6t1HmiGVg55BoA60EsR4K_z4NFcI- -zjnnTzzITYU_Ffnv_oPW7gauPJKDL3ZqfvjmarggcP7LeJQgaA6IQ3W5MakbIyjC5lx3bnxcXgUWRAASMWAwDB35zUvvo20CHm9gpYXfmSNNSWAyw7ZsxYNWKxbfaQkW5a5zB0LBhh7zAuwi90RmELvDFCTGFc6Yv_fwGXAyqw5lHTBO0MjZbqfTa0LHOQ5fZsuAokEZ1r68H9F5EP9jjpwIU97eP0NgnJ5kHT4YH-kXRFoNfkS_-zgvdJstYvIRoCGCtUR1Qd_7A3SsqI-XsPkiedYD5-4oIkAPswORL7iUuj06520l3INkS9r_Xh5JydCJUCCvQj5aA0kcvhUigtgVdp3wIOWFgRO0hr7PinCYM5xU1ChFZhOUIEDqSvqn9Iw5djrhRp7PNczbAFxQ-5OIdgZATSOJPrc4tNLf6vxwSEQzCHrcB3TafkGLQdUWhIKwQNY5Q_rpxrS99sFOygVH4XzEatP2seCkWDcvxUFU7ZfdxYkB9rTONypvdCo_0bNHywM9qzMFdtymrETY6U0orCtGnd1qRJdpkUF8wJdZF3W6BBdFESVTDXv3fdgbiVLIj-2coPluJhLBOo-DcU4Naq8YnydK2DCEe4SaAWpfDM9Y8ONBYPWAx_JxbK_tnoqvI7lRkoRsVGix8gzdJFjzYhr25dMQvEhq9qR-mi0]--></g></svg>