<?xml version="1.0" encoding="us-ascii" standalone="no"?><svg xmlns="http://www.w3.org/2000/svg" xmlns:xlink="http://www.w3.org/1999/xlink" contentStyleType="text/css" height="1962px" preserveAspectRatio="none" style="width:2490px;height:1962px;background:#FFFFFF;" version="1.1" viewBox="0 0 2490 1962" width="2490px" zoomAndPan="magnify"><defs/><g><rect fill="#FFFFFF" height="58.6211" style="stroke:#181818;stroke-width:1.0;" width="10" x="372.5" y="137.1094"/><rect fill="#FFFFFF" height="1623.4141" style="stroke:#181818;stroke-width:1.0;" width="10" x="372.5" y="249.3516"/><rect fill="#FFFFFF" height="1486.8613" style="stroke:#181818;stroke-width:1.0;" width="10" x="377.5" y="385.9043"/><rect fill="#FFFFFF" height="117.2422" style="stroke:#181818;stroke-width:1.0;" width="10" x="382.5" y="635.3438"/><rect fill="#FFFFFF" height="138.2422" style="stroke:#181818;stroke-width:1.0;" width="10" x="382.5" y="781.8965"/><rect fill="#FFFFFF" height="923.3164" style="stroke:#181818;stroke-width:1.0;" width="10" x="382.5" y="949.4492"/><rect fill="#FFFFFF" height="29.3105" style="stroke:#181818;stroke-width:1.0;" width="10" x="387.5" y="1286.8652"/><rect fill="#FFFFFF" height="205.1738" style="stroke:#181818;stroke-width:1.0;" width="10" x="387.5" y="1345.4863"/><rect fill="#FFFFFF" height="117.2422" style="stroke:#181818;stroke-width:1.0;" width="10" x="387.5" y="1579.9707"/><rect fill="#FFFFFF" height="146.2422" style="stroke:#181818;stroke-width:1.0;" width="10" x="387.5" y="1726.5234"/><rect fill="#FFFFFF" height="1706.3457" style="stroke:#181818;stroke-width:1.0;" width="10" x="924.5" y="166.4199"/><rect fill="#FFFFFF" height="1594.1035" style="stroke:#181818;stroke-width:1.0;" width="10" x="929.5" y="278.6621"/><rect fill="#FFFFFF" height="1457.5508" style="stroke:#181818;stroke-width:1.0;" width="10" x="934.5" y="415.2148"/><rect fill="#FFFFFF" height="58.6211" style="stroke:#181818;stroke-width:1.0;" width="10" x="939.5" y="664.6543"/><rect fill="#FFFFFF" height="1061.5586" style="stroke:#181818;stroke-width:1.0;" width="10" x="939.5" y="811.207"/><rect fill="#FFFFFF" height="689.1426" style="stroke:#181818;stroke-width:1.0;" width="10" x="944.5" y="978.7598"/><rect fill="#FFFFFF" height="146.5527" style="stroke:#181818;stroke-width:1.0;" width="10" x="949.5" y="1374.7969"/><rect fill="#FFFFFF" height="116.9316" style="stroke:#181818;stroke-width:1.0;" width="10" x="944.5" y="1755.834"/><rect fill="#FFFFFF" height="1369.6191" style="stroke:#181818;stroke-width:1.0;" width="10" x="1119" y="503.1465"/><rect fill="#FFFFFF" height="468.6582" style="stroke:#181818;stroke-width:1.0;" width="10" x="1124" y="1404.1074"/><rect fill="#FFFFFF" height="1340.3086" style="stroke:#181818;stroke-width:1.0;" width="10" x="1270.5" y="532.457"/><rect fill="#FFFFFF" height="439.3477" style="stroke:#181818;stroke-width:1.0;" width="10" x="1275.5" y="1433.418"/><rect fill="#FFFFFF" height="1428.2402" style="stroke:#181818;stroke-width:1.0;" width="10" x="1470.5" y="444.5254"/><rect fill="#FFFFFF" height="864.6953" style="stroke:#181818;stroke-width:1.0;" width="10" x="1475.5" y="1008.0703"/><rect fill="#FFFFFF" height="835.3848" style="stroke:#181818;stroke-width:1.0;" width="10" x="1480.5" y="1037.3809"/><rect fill="#FFFFFF" height="806.0742" style="stroke:#181818;stroke-width:1.0;" width="10" x="1485.5" y="1066.6914"/><rect fill="#FFFFFF" height="718.1426" style="stroke:#181818;stroke-width:1.0;" width="10" x="1490.5" y="1154.623"/><rect fill="#FFFFFF" height="1564.793" style="stroke:#181818;stroke-width:1.0;" width="10" x="1576.5" y="307.9727"/><rect fill="#FFFFFF" height="1025.248" style="stroke:#181818;stroke-width:1.0;" width="10" x="1581.5" y="847.5176"/><rect fill="#FFFFFF" height="988.9375" style="stroke:#181818;stroke-width:1.0;" width="10" x="1586.5" y="883.8281"/><rect fill="#FFFFFF" height="29.3105" style="stroke:#181818;stroke-width:1.0;" width="10" x="1887.5" y="1096.002"/><rect fill="#FFFFFF" height="1398.9297" style="stroke:#181818;stroke-width:1.0;" width="10" x="1967" y="473.8359"/><rect fill="#FFFFFF" height="688.832" style="stroke:#181818;stroke-width:1.0;" width="10" x="2041" y="1183.9336"/><rect fill="#FFFFFF" height="651.5215" style="stroke:#181818;stroke-width:1.0;" width="10" x="2046" y="1221.2441"/><rect fill="#FFFFFF" height="234.1738" style="stroke:#181818;stroke-width:1.0;" width="10" x="2051" y="1638.5918"/><rect fill="#FFFFFF" height="87.6211" style="stroke:#181818;stroke-width:1.0;" width="10" x="2056" y="1785.1445"/><rect fill="#FFFFFF" height="50.3105" style="stroke:#181818;stroke-width:1.0;" width="10" x="2061" y="1822.4551"/><rect fill="#FFFFFF" height="617.2109" style="stroke:#181818;stroke-width:1.0;" width="10" x="2229" y="1255.5547"/><rect fill="#FFFFFF" height="410.0371" style="stroke:#181818;stroke-width:1.0;" width="10" x="2234" y="1462.7285"/><rect fill="#FFFFFF" height="380.7266" style="stroke:#181818;stroke-width:1.0;" width="10" x="2239" y="1492.0391"/><rect fill="#FFFFFF" height="263.4844" style="stroke:#181818;stroke-width:1.0;" width="10" x="2244" y="1609.2813"/><rect fill="#FFFFFF" height="16" style="stroke:#181818;stroke-width:1.0;" width="10" x="2249" y="1856.7656"/><rect fill="#FFFFFF" height="1310.998" style="stroke:#181818;stroke-width:1.0;" width="10" x="2368" y="561.7676"/><rect fill="#FFFFFF" height="1281.6875" style="stroke:#181818;stroke-width:1.0;" width="10" x="2373" y="591.0781"/><rect fill="#FFFFFF" height="1178.8008" style="stroke:#181818;stroke-width:1.0;" width="10" x="2378" y="693.9648"/><rect fill="none" height="1766.2773" style="stroke:#000000;stroke-width:1.5;" width="2473.5" x="10" y="98.4883"/><rect fill="none" height="681.0977" style="stroke:#000000;stroke-width:1.5;" width="2453.5" x="20" y="210.7305"/><rect fill="none" height="532.5449" style="stroke:#000000;stroke-width:1.5;" width="2433.5" x="30" y="322.9727"/><rect fill="none" height="471.9238" style="stroke:#000000;stroke-width:1.5;" width="2413.5" x="40" y="347.2832"/><line style="stroke:#181818;stroke-width:0.5;stroke-dasharray:5.0,5.0;" x1="80" x2="80" y1="81.4883" y2="1881.7656"/><line style="stroke:#181818;stroke-width:0.5;stroke-dasharray:5.0,5.0;" x1="377" x2="377" y1="81.4883" y2="1881.7656"/><line style="stroke:#181818;stroke-width:0.5;stroke-dasharray:5.0,5.0;" x1="929" x2="929" y1="81.4883" y2="1881.7656"/><line style="stroke:#181818;stroke-width:0.5;stroke-dasharray:5.0,5.0;" x1="1124" x2="1124" y1="81.4883" y2="1881.7656"/><line style="stroke:#181818;stroke-width:0.5;stroke-dasharray:5.0,5.0;" x1="1275" x2="1275" y1="81.4883" y2="1881.7656"/><line style="stroke:#181818;stroke-width:0.5;stroke-dasharray:5.0,5.0;" x1="1475.5" x2="1475.5" y1="81.4883" y2="1881.7656"/><line style="stroke:#181818;stroke-width:0.5;stroke-dasharray:5.0,5.0;" x1="1581.5" x2="1581.5" y1="81.4883" y2="1881.7656"/><line style="stroke:#181818;stroke-width:0.5;stroke-dasharray:5.0,5.0;" x1="1892" x2="1892" y1="81.4883" y2="1881.7656"/><line style="stroke:#181818;stroke-width:0.5;stroke-dasharray:5.0,5.0;" x1="1972" x2="1972" y1="81.4883" y2="1881.7656"/><line style="stroke:#181818;stroke-width:0.5;stroke-dasharray:5.0,5.0;" x1="2046" x2="2046" y1="81.4883" y2="1881.7656"/><line style="stroke:#181818;stroke-width:0.5;stroke-dasharray:5.0,5.0;" x1="2233.5" x2="2233.5" y1="81.4883" y2="1881.7656"/><line style="stroke:#181818;stroke-width:0.5;stroke-dasharray:5.0,5.0;" x1="2372.5" x2="2372.5" y1="81.4883" y2="1881.7656"/><text fill="#000000" font-family="sans-serif" font-size="14" lengthAdjust="spacing" textLength="55" x="50" y="78.5352">Teacher</text><ellipse cx="80.5" cy="13.5" fill="#E2E2F0" rx="8" ry="8" style="stroke:#181818;stroke-width:0.5;"/><path d="M80.5,21.5 L80.5,48.5 M67.5,29.5 L93.5,29.5 M80.5,48.5 L67.5,63.5 M80.5,48.5 L93.5,63.5 " fill="none" style="stroke:#181818;stroke-width:0.5;"/><text fill="#000000" font-family="sans-serif" font-size="14" lengthAdjust="spacing" textLength="55" x="50" y="1894.3008">Teacher</text><ellipse cx="80.5" cy="1905.7539" fill="#E2E2F0" rx="8" ry="8" style="stroke:#181818;stroke-width:0.5;"/><path d="M80.5,1913.7539 L80.5,1940.7539 M67.5,1921.7539 L93.5,1921.7539 M80.5,1940.7539 L67.5,1955.7539 M80.5,1940.7539 L93.5,1955.7539 " fill="none" style="stroke:#181818;stroke-width:0.5;"/><rect fill="#E2E2F0" height="30.4883" rx="2.5" ry="2.5" style="stroke:#181818;stroke-width:0.5;" width="167" x="294" y="50"/><text fill="#000000" font-family="sans-serif" font-size="14" lengthAdjust="spacing" textLength="153" x="301" y="70.5352">Create/UpdateExamUI</text><rect fill="#E2E2F0" height="30.4883" rx="2.5" ry="2.5" style="stroke:#181818;stroke-width:0.5;" width="167" x="294" y="1880.7656"/><text fill="#000000" font-family="sans-serif" font-size="14" lengthAdjust="spacing" textLength="153" x="301" y="1901.3008">Create/UpdateExamUI</text><rect fill="#E2E2F0" height="30.4883" rx="2.5" ry="2.5" style="stroke:#181818;stroke-width:0.5;" width="223" x="818" y="50"/><text fill="#000000" font-family="sans-serif" font-size="14" lengthAdjust="spacing" textLength="209" x="825" y="70.5352">Create/UpdateExamController</text><rect fill="#E2E2F0" height="30.4883" rx="2.5" ry="2.5" style="stroke:#181818;stroke-width:0.5;" width="223" x="818" y="1880.7656"/><text fill="#000000" font-family="sans-serif" font-size="14" lengthAdjust="spacing" textLength="209" x="825" y="1901.3008">Create/UpdateExamController</text><rect fill="#E2E2F0" height="30.4883" rx="2.5" ry="2.5" style="stroke:#181818;stroke-width:0.5;" width="146" x="1051" y="50"/><text fill="#000000" font-family="sans-serif" font-size="14" lengthAdjust="spacing" textLength="132" x="1058" y="70.5352">PersistenceContext</text><rect fill="#E2E2F0" height="30.4883" rx="2.5" ry="2.5" style="stroke:#181818;stroke-width:0.5;" width="146" x="1051" y="1880.7656"/><text fill="#000000" font-family="sans-serif" font-size="14" lengthAdjust="spacing" textLength="132" x="1058" y="1901.3008">PersistenceContext</text><rect fill="#E2E2F0" height="30.4883" rx="2.5" ry="2.5" style="stroke:#181818;stroke-width:0.5;" width="137" x="1207" y="50"/><text fill="#000000" font-family="sans-serif" font-size="14" lengthAdjust="spacing" textLength="123" x="1214" y="70.5352">RepositoryFactory</text><rect fill="#E2E2F0" height="30.4883" rx="2.5" ry="2.5" style="stroke:#181818;stroke-width:0.5;" width="137" x="1207" y="1880.7656"/><text fill="#000000" font-family="sans-serif" font-size="14" lengthAdjust="spacing" textLength="123" x="1214" y="1901.3008">RepositoryFactory</text><rect fill="#E2E2F0" height="30.4883" rx="2.5" ry="2.5" style="stroke:#181818;stroke-width:0.5;" width="62" x="1444.5" y="50"/><text fill="#000000" font-family="sans-serif" font-size="14" lengthAdjust="spacing" textLength="48" x="1451.5" y="70.5352">Builder</text><rect fill="#E2E2F0" height="30.4883" rx="2.5" ry="2.5" style="stroke:#181818;stroke-width:0.5;" width="62" x="1444.5" y="1880.7656"/><text fill="#000000" font-family="sans-serif" font-size="14" lengthAdjust="spacing" textLength="48" x="1451.5" y="1901.3008">Builder</text><rect fill="#E2E2F0" height="30.4883" rx="2.5" ry="2.5" style="stroke:#181818;stroke-width:0.5;" width="130" x="1516.5" y="50"/><text fill="#000000" font-family="sans-serif" font-size="14" lengthAdjust="spacing" textLength="116" x="1523.5" y="70.5352">SequenceSection</text><rect fill="#E2E2F0" height="30.4883" rx="2.5" ry="2.5" style="stroke:#181818;stroke-width:0.5;" width="130" x="1516.5" y="1880.7656"/><text fill="#000000" font-family="sans-serif" font-size="14" lengthAdjust="spacing" textLength="116" x="1523.5" y="1901.3008">SequenceSection</text><rect fill="#E2E2F0" height="30.4883" rx="2.5" ry="2.5" style="stroke:#181818;stroke-width:0.5;" width="63" x="1861" y="50"/><text fill="#000000" font-family="sans-serif" font-size="14" lengthAdjust="spacing" textLength="49" x="1868" y="70.5352">Header</text><rect fill="#E2E2F0" height="30.4883" rx="2.5" ry="2.5" style="stroke:#181818;stroke-width:0.5;" width="63" x="1861" y="1880.7656"/><text fill="#000000" font-family="sans-serif" font-size="14" lengthAdjust="spacing" textLength="49" x="1868" y="1901.3008">Header</text><rect fill="#E2E2F0" height="30.4883" rx="2.5" ry="2.5" style="stroke:#181818;stroke-width:0.5;" width="76" x="1934" y="50"/><text fill="#000000" font-family="sans-serif" font-size="14" lengthAdjust="spacing" textLength="62" x="1941" y="70.5352">Question</text><rect fill="#E2E2F0" height="30.4883" rx="2.5" ry="2.5" style="stroke:#181818;stroke-width:0.5;" width="76" x="1934" y="1880.7656"/><text fill="#000000" font-family="sans-serif" font-size="14" lengthAdjust="spacing" textLength="62" x="1941" y="1901.3008">Question</text><rect fill="#E2E2F0" height="30.4883" rx="2.5" ry="2.5" style="stroke:#181818;stroke-width:0.5;" width="52" x="2020" y="50"/><text fill="#000000" font-family="sans-serif" font-size="14" lengthAdjust="spacing" textLength="38" x="2027" y="70.5352">Exam</text><rect fill="#E2E2F0" height="30.4883" rx="2.5" ry="2.5" style="stroke:#181818;stroke-width:0.5;" width="52" x="2020" y="1880.7656"/><text fill="#000000" font-family="sans-serif" font-size="14" lengthAdjust="spacing" textLength="38" x="2027" y="1901.3008">Exam</text><text fill="#000000" font-family="sans-serif" font-size="14" lengthAdjust="spacing" textLength="111" x="2175.5" y="78.5352">ExamRepository</text><path d="M2216,29 C2216,19 2234,19 2234,19 C2234,19 2252,19 2252,29 L2252,55 C2252,65 2234,65 2234,65 C2234,65 2216,65 2216,55 L2216,29 " fill="#E2E2F0" style="stroke:#181818;stroke-width:1.5;"/><path d="M2216,29 C2216,39 2234,39 2234,39 C2234,39 2252,39 2252,29 " fill="none" style="stroke:#181818;stroke-width:1.5;"/><text fill="#000000" font-family="sans-serif" font-size="14" lengthAdjust="spacing" textLength="111" x="2175.5" y="1894.3008">ExamRepository</text><path d="M2216,1907.2539 C2216,1897.2539 2234,1897.2539 2234,1897.2539 C2234,1897.2539 2252,1897.2539 2252,1907.2539 L2252,1933.2539 C2252,1943.2539 2234,1943.2539 2234,1943.2539 C2234,1943.2539 2216,1943.2539 2216,1933.2539 L2216,1907.2539 " fill="#E2E2F0" style="stroke:#181818;stroke-width:1.5;"/><path d="M2216,1907.2539 C2216,1917.2539 2234,1917.2539 2234,1917.2539 C2234,1917.2539 2252,1917.2539 2252,1907.2539 " fill="none" style="stroke:#181818;stroke-width:1.5;"/><text fill="#000000" font-family="sans-serif" font-size="14" lengthAdjust="spacing" textLength="135" x="2302.5" y="78.5352">QuestionRepository</text><path d="M2355,29 C2355,19 2373,19 2373,19 C2373,19 2391,19 2391,29 L2391,55 C2391,65 2373,65 2373,65 C2373,65 2355,65 2355,55 L2355,29 " fill="#E2E2F0" style="stroke:#181818;stroke-width:1.5;"/><path d="M2355,29 C2355,39 2373,39 2373,39 C2373,39 2391,39 2391,29 " fill="none" style="stroke:#181818;stroke-width:1.5;"/><text fill="#000000" font-family="sans-serif" font-size="14" lengthAdjust="spacing" textLength="135" x="2302.5" y="1894.3008">QuestionRepository</text><path d="M2355,1907.2539 C2355,1897.2539 2373,1897.2539 2373,1897.2539 C2373,1897.2539 2391,1897.2539 2391,1907.2539 L2391,1933.2539 C2391,1943.2539 2373,1943.2539 2373,1943.2539 C2373,1943.2539 2355,1943.2539 2355,1933.2539 L2355,1907.2539 " fill="#E2E2F0" style="stroke:#181818;stroke-width:1.5;"/><path d="M2355,1907.2539 C2355,1917.2539 2373,1917.2539 2373,1917.2539 C2373,1917.2539 2391,1917.2539 2391,1907.2539 " fill="none" style="stroke:#181818;stroke-width:1.5;"/><rect fill="#FFFFFF" height="58.6211" style="stroke:#181818;stroke-width:1.0;" width="10" x="372.5" y="137.1094"/><rect fill="#FFFFFF" height="1623.4141" style="stroke:#181818;stroke-width:1.0;" width="10" x="372.5" y="249.3516"/><rect fill="#FFFFFF" height="1486.8613" style="stroke:#181818;stroke-width:1.0;" width="10" x="377.5" y="385.9043"/><rect fill="#FFFFFF" height="117.2422" style="stroke:#181818;stroke-width:1.0;" width="10" x="382.5" y="635.3438"/><rect fill="#FFFFFF" height="138.2422" style="stroke:#181818;stroke-width:1.0;" width="10" x="382.5" y="781.8965"/><rect fill="#FFFFFF" height="923.3164" style="stroke:#181818;stroke-width:1.0;" width="10" x="382.5" y="949.4492"/><rect fill="#FFFFFF" height="29.3105" style="stroke:#181818;stroke-width:1.0;" width="10" x="387.5" y="1286.8652"/><rect fill="#FFFFFF" height="205.1738" style="stroke:#181818;stroke-width:1.0;" width="10" x="387.5" y="1345.4863"/><rect fill="#FFFFFF" height="117.2422" style="stroke:#181818;stroke-width:1.0;" width="10" x="387.5" y="1579.9707"/><rect fill="#FFFFFF" height="146.2422" style="stroke:#181818;stroke-width:1.0;" width="10" x="387.5" y="1726.5234"/><rect fill="#FFFFFF" height="1706.3457" style="stroke:#181818;stroke-width:1.0;" width="10" x="924.5" y="166.4199"/><rect fill="#FFFFFF" height="1594.1035" style="stroke:#181818;stroke-width:1.0;" width="10" x="929.5" y="278.6621"/><rect fill="#FFFFFF" height="1457.5508" style="stroke:#181818;stroke-width:1.0;" width="10" x="934.5" y="415.2148"/><rect fill="#FFFFFF" height="58.6211" style="stroke:#181818;stroke-width:1.0;" width="10" x="939.5" y="664.6543"/><rect fill="#FFFFFF" height="1061.5586" style="stroke:#181818;stroke-width:1.0;" width="10" x="939.5" y="811.207"/><rect fill="#FFFFFF" height="689.1426" style="stroke:#181818;stroke-width:1.0;" width="10" x="944.5" y="978.7598"/><rect fill="#FFFFFF" height="146.5527" style="stroke:#181818;stroke-width:1.0;" width="10" x="949.5" y="1374.7969"/><rect fill="#FFFFFF" height="116.9316" style="stroke:#181818;stroke-width:1.0;" width="10" x="944.5" y="1755.834"/><rect fill="#FFFFFF" height="1369.6191" style="stroke:#181818;stroke-width:1.0;" width="10" x="1119" y="503.1465"/><rect fill="#FFFFFF" height="468.6582" style="stroke:#181818;stroke-width:1.0;" width="10" x="1124" y="1404.1074"/><rect fill="#FFFFFF" height="1340.3086" style="stroke:#181818;stroke-width:1.0;" width="10" x="1270.5" y="532.457"/><rect fill="#FFFFFF" height="439.3477" style="stroke:#181818;stroke-width:1.0;" width="10" x="1275.5" y="1433.418"/><rect fill="#FFFFFF" height="1428.2402" style="stroke:#181818;stroke-width:1.0;" width="10" x="1470.5" y="444.5254"/><rect fill="#FFFFFF" height="864.6953" style="stroke:#181818;stroke-width:1.0;" width="10" x="1475.5" y="1008.0703"/><rect fill="#FFFFFF" height="835.3848" style="stroke:#181818;stroke-width:1.0;" width="10" x="1480.5" y="1037.3809"/><rect fill="#FFFFFF" height="806.0742" style="stroke:#181818;stroke-width:1.0;" width="10" x="1485.5" y="1066.6914"/><rect fill="#FFFFFF" height="718.1426" style="stroke:#181818;stroke-width:1.0;" width="10" x="1490.5" y="1154.623"/><rect fill="#FFFFFF" height="1564.793" style="stroke:#181818;stroke-width:1.0;" width="10" x="1576.5" y="307.9727"/><rect fill="#FFFFFF" height="1025.248" style="stroke:#181818;stroke-width:1.0;" width="10" x="1581.5" y="847.5176"/><rect fill="#FFFFFF" height="988.9375" style="stroke:#181818;stroke-width:1.0;" width="10" x="1586.5" y="883.8281"/><rect fill="#FFFFFF" height="29.3105" style="stroke:#181818;stroke-width:1.0;" width="10" x="1887.5" y="1096.002"/><rect fill="#FFFFFF" height="1398.9297" style="stroke:#181818;stroke-width:1.0;" width="10" x="1967" y="473.8359"/><rect fill="#FFFFFF" height="688.832" style="stroke:#181818;stroke-width:1.0;" width="10" x="2041" y="1183.9336"/><rect fill="#FFFFFF" height="651.5215" style="stroke:#181818;stroke-width:1.0;" width="10" x="2046" y="1221.2441"/><rect fill="#FFFFFF" height="234.1738" style="stroke:#181818;stroke-width:1.0;" width="10" x="2051" y="1638.5918"/><rect fill="#FFFFFF" height="87.6211" style="stroke:#181818;stroke-width:1.0;" width="10" x="2056" y="1785.1445"/><rect fill="#FFFFFF" height="50.3105" style="stroke:#181818;stroke-width:1.0;" width="10" x="2061" y="1822.4551"/><rect fill="#FFFFFF" height="617.2109" style="stroke:#181818;stroke-width:1.0;" width="10" x="2229" y="1255.5547"/><rect fill="#FFFFFF" height="410.0371" style="stroke:#181818;stroke-width:1.0;" width="10" x="2234" y="1462.7285"/><rect fill="#FFFFFF" height="380.7266" style="stroke:#181818;stroke-width:1.0;" width="10" x="2239" y="1492.0391"/><rect fill="#FFFFFF" height="263.4844" style="stroke:#181818;stroke-width:1.0;" width="10" x="2244" y="1609.2813"/><rect fill="#FFFFFF" height="16" style="stroke:#181818;stroke-width:1.0;" width="10" x="2249" y="1856.7656"/><rect fill="#FFFFFF" height="1310.998" style="stroke:#181818;stroke-width:1.0;" width="10" x="2368" y="561.7676"/><rect fill="#FFFFFF" height="1281.6875" style="stroke:#181818;stroke-width:1.0;" width="10" x="2373" y="591.0781"/><rect fill="#FFFFFF" height="1178.8008" style="stroke:#181818;stroke-width:1.0;" width="10" x="2378" y="693.9648"/><path d="M10,98.4883 L72,98.4883 L72,105.7988 L62,115.7988 L10,115.7988 L10,98.4883 " fill="#EEEEEE" style="stroke:#000000;stroke-width:1.5;"/><rect fill="none" height="1766.2773" style="stroke:#000000;stroke-width:1.5;" width="2473.5" x="10" y="98.4883"/><text fill="#000000" font-family="sans-serif" font-size="13" font-weight="bold" lengthAdjust="spacing" textLength="17" x="25" y="112.0566">alt</text><text fill="#000000" font-family="sans-serif" font-size="11" font-weight="bold" lengthAdjust="spacing" textLength="77" x="87" y="111.123">[Create Exam]</text><polygon fill="#181818" points="360.5,133.1094,370.5,137.1094,360.5,141.1094,364.5,137.1094" style="stroke:#181818;stroke-width:1.0;"/><line style="stroke:#181818;stroke-width:1.0;" x1="80.5" x2="366.5" y1="137.1094" y2="137.1094"/><text fill="#000000" font-family="sans-serif" font-size="13" lengthAdjust="spacing" textLength="76" x="87.5" y="132.3672">create exam</text><polygon fill="#181818" points="912.5,162.4199,922.5,166.4199,912.5,170.4199,916.5,166.4199" style="stroke:#181818;stroke-width:1.0;"/><line style="stroke:#181818;stroke-width:1.0;" x1="382.5" x2="918.5" y1="166.4199" y2="166.4199"/><text fill="#000000" font-family="sans-serif" font-size="13" lengthAdjust="spacing" textLength="38" x="389.5" y="161.6777">create</text><polygon fill="#181818" points="91.5,191.7305,81.5,195.7305,91.5,199.7305,87.5,195.7305" style="stroke:#181818;stroke-width:1.0;"/><line style="stroke:#181818;stroke-width:1.0;stroke-dasharray:2.0,2.0;" x1="85.5" x2="376.5" y1="195.7305" y2="195.7305"/><text fill="#000000" font-family="sans-serif" font-size="13" lengthAdjust="spacing" textLength="215" x="97.5" y="190.9883">Ask sequence section information</text><path d="M20,210.7305 L94,210.7305 L94,218.041 L84,228.041 L20,228.041 L20,210.7305 " fill="#EEEEEE" style="stroke:#000000;stroke-width:1.5;"/><rect fill="none" height="681.0977" style="stroke:#000000;stroke-width:1.5;" width="2453.5" x="20" y="210.7305"/><text fill="#000000" font-family="sans-serif" font-size="13" font-weight="bold" lengthAdjust="spacing" textLength="29" x="35" y="224.2988">loop</text><text fill="#000000" font-family="sans-serif" font-size="11" font-weight="bold" lengthAdjust="spacing" textLength="74" x="109" y="223.3652">[Add Section]</text><polygon fill="#181818" points="360.5,245.3516,370.5,249.3516,360.5,253.3516,364.5,249.3516" style="stroke:#181818;stroke-width:1.0;"/><line style="stroke:#181818;stroke-width:1.0;" x1="80.5" x2="366.5" y1="249.3516" y2="249.3516"/><text fill="#000000" font-family="sans-serif" font-size="13" lengthAdjust="spacing" textLength="130" x="87.5" y="244.6094">Add section to exam</text><polygon fill="#181818" points="917.5,274.6621,927.5,278.6621,917.5,282.6621,921.5,278.6621" style="stroke:#181818;stroke-width:1.0;"/><line style="stroke:#181818;stroke-width:1.0;" x1="382.5" x2="923.5" y1="278.6621" y2="278.6621"/><text fill="#000000" font-family="sans-serif" font-size="13" lengthAdjust="spacing" textLength="439" x="389.5" y="273.9199">newSQ=createSection(sectionNumber,decription,numberOfQuestions)</text><polygon fill="#181818" points="1564.5,303.9727,1574.5,307.9727,1564.5,311.9727,1568.5,307.9727" style="stroke:#181818;stroke-width:1.0;"/><line style="stroke:#181818;stroke-width:1.0;" x1="939.5" x2="1570.5" y1="307.9727" y2="307.9727"/><text fill="#000000" font-family="sans-serif" font-size="13" lengthAdjust="spacing" textLength="439" x="946.5" y="303.2305">newSQ=createSection(sectionNumber,decription,numberOfQuestions)</text><path d="M30,322.9727 L104,322.9727 L104,330.2832 L94,340.2832 L30,340.2832 L30,322.9727 " fill="#EEEEEE" style="stroke:#000000;stroke-width:1.5;"/><rect fill="none" height="532.5449" style="stroke:#000000;stroke-width:1.5;" width="2433.5" x="30" y="322.9727"/><text fill="#000000" font-family="sans-serif" font-size="13" font-weight="bold" lengthAdjust="spacing" textLength="29" x="45" y="336.541">loop</text><text fill="#000000" font-family="sans-serif" font-size="11" font-weight="bold" lengthAdjust="spacing" textLength="147" x="119" y="335.6074">[Add questions to section]</text><path d="M40,347.2832 L102,347.2832 L102,354.5938 L92,364.5938 L40,364.5938 L40,347.2832 " fill="#EEEEEE" style="stroke:#000000;stroke-width:1.5;"/><rect fill="none" height="471.9238" style="stroke:#000000;stroke-width:1.5;" width="2413.5" x="40" y="347.2832"/><text fill="#000000" font-family="sans-serif" font-size="13" font-weight="bold" lengthAdjust="spacing" textLength="17" x="55" y="360.8516">alt</text><text fill="#000000" font-family="sans-serif" font-size="11" font-weight="bold" lengthAdjust="spacing" textLength="93" x="117" y="359.918">[create question]</text><polygon fill="#181818" points="365.5,381.9043,375.5,385.9043,365.5,389.9043,369.5,385.9043" style="stroke:#181818;stroke-width:1.0;"/><line style="stroke:#181818;stroke-width:1.0;" x1="80.5" x2="371.5" y1="385.9043" y2="385.9043"/><text fill="#000000" font-family="sans-serif" font-size="13" lengthAdjust="spacing" textLength="166" x="87.5" y="381.1621">Create question to section</text><polygon fill="#181818" points="922.5,411.2148,932.5,415.2148,922.5,419.2148,926.5,415.2148" style="stroke:#181818;stroke-width:1.0;"/><line style="stroke:#181818;stroke-width:1.0;" x1="387.5" x2="928.5" y1="415.2148" y2="415.2148"/><text fill="#000000" font-family="sans-serif" font-size="13" lengthAdjust="spacing" textLength="397" x="394.5" y="410.4727">newQuestion=createQuestion(Question,Solution,questionType)</text><polygon fill="#181818" points="1458.5,440.5254,1468.5,444.5254,1458.5,448.5254,1462.5,444.5254" style="stroke:#181818;stroke-width:1.0;"/><line style="stroke:#181818;stroke-width:1.0;" x1="944.5" x2="1464.5" y1="444.5254" y2="444.5254"/><text fill="#000000" font-family="sans-serif" font-size="13" lengthAdjust="spacing" textLength="38" x="951.5" y="439.7832">create</text><polygon fill="#181818" points="1955,469.8359,1965,473.8359,1955,477.8359,1959,473.8359" style="stroke:#181818;stroke-width:1.0;"/><line style="stroke:#181818;stroke-width:1.0;" x1="1480.5" x2="1961" y1="473.8359" y2="473.8359"/><text fill="#000000" font-family="sans-serif" font-size="13" lengthAdjust="spacing" textLength="397" x="1487.5" y="469.0938">newQuestion=createQuestion(Question,Solution,questionType)</text><polygon fill="#181818" points="1107,499.1465,1117,503.1465,1107,507.1465,1111,503.1465" style="stroke:#181818;stroke-width:1.0;"/><line style="stroke:#181818;stroke-width:1.0;" x1="944.5" x2="1113" y1="503.1465" y2="503.1465"/><text fill="#000000" font-family="sans-serif" font-size="13" lengthAdjust="spacing" textLength="83" x="951.5" y="498.4043">repositories()</text><polygon fill="#181818" points="1258.5,528.457,1268.5,532.457,1258.5,536.457,1262.5,532.457" style="stroke:#181818;stroke-width:1.0;"/><line style="stroke:#181818;stroke-width:1.0;" x1="1129" x2="1264.5" y1="532.457" y2="532.457"/><text fill="#000000" font-family="sans-serif" font-size="13" lengthAdjust="spacing" textLength="38" x="1136" y="527.7148">create</text><polygon fill="#181818" points="2356,557.7676,2366,561.7676,2356,565.7676,2360,561.7676" style="stroke:#181818;stroke-width:1.0;"/><line style="stroke:#181818;stroke-width:1.0;" x1="1280.5" x2="2362" y1="561.7676" y2="561.7676"/><text fill="#000000" font-family="sans-serif" font-size="13" lengthAdjust="spacing" textLength="38" x="1287.5" y="557.0254">create</text><polygon fill="#181818" points="2361,587.0781,2371,591.0781,2361,595.0781,2365,591.0781" style="stroke:#181818;stroke-width:1.0;"/><line style="stroke:#181818;stroke-width:1.0;" x1="944.5" x2="2367" y1="591.0781" y2="591.0781"/><text fill="#000000" font-family="sans-serif" font-size="13" lengthAdjust="spacing" textLength="118" x="951.5" y="586.3359">save(newQuestion)</text><line style="stroke:#000000;stroke-width:1.0;stroke-dasharray:2.0,2.0;" x1="40" x2="2453.5" y1="600.0781" y2="600.0781"/><text fill="#000000" font-family="sans-serif" font-size="11" font-weight="bold" lengthAdjust="spacing" textLength="99" x="45" y="610.7129">[choose question]</text><polygon fill="#181818" points="370.5,631.3438,380.5,635.3438,370.5,639.3438,374.5,635.3438" style="stroke:#181818;stroke-width:1.0;"/><line style="stroke:#181818;stroke-width:1.0;" x1="80.5" x2="376.5" y1="635.3438" y2="635.3438"/><text fill="#000000" font-family="sans-serif" font-size="13" lengthAdjust="spacing" textLength="137" x="87.5" y="630.6016">Choose type question</text><polygon fill="#181818" points="927.5,660.6543,937.5,664.6543,927.5,668.6543,931.5,664.6543" style="stroke:#181818;stroke-width:1.0;"/><line style="stroke:#181818;stroke-width:1.0;" x1="392.5" x2="933.5" y1="664.6543" y2="664.6543"/><text fill="#000000" font-family="sans-serif" font-size="13" lengthAdjust="spacing" textLength="85" x="399.5" y="659.9121">questionType</text><polygon fill="#181818" points="2366,689.9648,2376,693.9648,2366,697.9648,2370,693.9648" style="stroke:#181818;stroke-width:1.0;"/><line style="stroke:#181818;stroke-width:1.0;" x1="949.5" x2="2372" y1="693.9648" y2="693.9648"/><text fill="#000000" font-family="sans-serif" font-size="13" lengthAdjust="spacing" textLength="214" x="956.5" y="689.2227">getQuestionByType(questionType)</text><polygon fill="#181818" points="403.5,719.2754,393.5,723.2754,403.5,727.2754,399.5,723.2754" style="stroke:#181818;stroke-width:1.0;"/><line style="stroke:#181818;stroke-width:1.0;stroke-dasharray:2.0,2.0;" x1="397.5" x2="933.5" y1="723.2754" y2="723.2754"/><text fill="#000000" font-family="sans-serif" font-size="13" lengthAdjust="spacing" textLength="62" x="409.5" y="718.5332">questions</text><polygon fill="#181818" points="91.5,748.5859,81.5,752.5859,91.5,756.5859,87.5,752.5859" style="stroke:#181818;stroke-width:1.0;"/><line style="stroke:#181818;stroke-width:1.0;stroke-dasharray:2.0,2.0;" x1="85.5" x2="376.5" y1="752.5859" y2="752.5859"/><text fill="#000000" font-family="sans-serif" font-size="13" lengthAdjust="spacing" textLength="62" x="97.5" y="747.8438">questions</text><polygon fill="#181818" points="370.5,777.8965,380.5,781.8965,370.5,785.8965,374.5,781.8965" style="stroke:#181818;stroke-width:1.0;"/><line style="stroke:#181818;stroke-width:1.0;" x1="80.5" x2="376.5" y1="781.8965" y2="781.8965"/><text fill="#000000" font-family="sans-serif" font-size="13" lengthAdjust="spacing" textLength="163" x="87.5" y="777.1543">Select question to section</text><polygon fill="#181818" points="927.5,807.207,937.5,811.207,927.5,815.207,931.5,811.207" style="stroke:#181818;stroke-width:1.0;"/><line style="stroke:#181818;stroke-width:1.0;" x1="392.5" x2="933.5" y1="811.207" y2="811.207"/><text fill="#000000" font-family="sans-serif" font-size="13" lengthAdjust="spacing" textLength="82" x="399.5" y="806.4648">newQuestion</text><polygon fill="#181818" points="1569.5,843.5176,1579.5,847.5176,1569.5,851.5176,1573.5,847.5176" style="stroke:#181818;stroke-width:1.0;"/><line style="stroke:#181818;stroke-width:1.0;" x1="949.5" x2="1575.5" y1="847.5176" y2="847.5176"/><text fill="#000000" font-family="sans-serif" font-size="13" lengthAdjust="spacing" textLength="279" x="956.5" y="842.7754">listOfQuestions=addQuestion(newQuestion)</text><polygon fill="#181818" points="1574.5,879.8281,1584.5,883.8281,1574.5,887.8281,1578.5,883.8281" style="stroke:#181818;stroke-width:1.0;"/><line style="stroke:#181818;stroke-width:1.0;" x1="949.5" x2="1580.5" y1="883.8281" y2="883.8281"/><text fill="#000000" font-family="sans-serif" font-size="13" lengthAdjust="spacing" textLength="400" x="956.5" y="879.0859">listOfSections=addQuestionsToSection(newSQ,listOfQuestions)</text><polygon fill="#181818" points="91.5,916.1387,81.5,920.1387,91.5,924.1387,87.5,920.1387" style="stroke:#181818;stroke-width:1.0;"/><line style="stroke:#181818;stroke-width:1.0;stroke-dasharray:2.0,2.0;" x1="85.5" x2="376.5" y1="920.1387" y2="920.1387"/><text fill="#000000" font-family="sans-serif" font-size="13" lengthAdjust="spacing" textLength="214" x="97.5" y="915.3965">Ask course, title and exam header</text><polygon fill="#181818" points="370.5,945.4492,380.5,949.4492,370.5,953.4492,374.5,949.4492" style="stroke:#181818;stroke-width:1.0;"/><line style="stroke:#181818;stroke-width:1.0;" x1="80.5" x2="376.5" y1="949.4492" y2="949.4492"/><text fill="#000000" font-family="sans-serif" font-size="13" lengthAdjust="spacing" textLength="268" x="87.5" y="944.707">headerInfo, title, course,startDate,endDate</text><polygon fill="#181818" points="932.5,974.7598,942.5,978.7598,932.5,982.7598,936.5,978.7598" style="stroke:#181818;stroke-width:1.0;"/><line style="stroke:#181818;stroke-width:1.0;" x1="392.5" x2="938.5" y1="978.7598" y2="978.7598"/><text fill="#000000" font-family="sans-serif" font-size="13" lengthAdjust="spacing" textLength="508" x="399.5" y="974.0176">examInfo=infoForExam(course,title,headerInfo,listOfSections,startDate,endDate)</text><polygon fill="#181818" points="1463.5,1004.0703,1473.5,1008.0703,1463.5,1012.0703,1467.5,1008.0703" style="stroke:#181818;stroke-width:1.0;"/><line style="stroke:#181818;stroke-width:1.0;" x1="954.5" x2="1469.5" y1="1008.0703" y2="1008.0703"/><text fill="#000000" font-family="sans-serif" font-size="13" lengthAdjust="spacing" textLength="38" x="961.5" y="1003.3281">create</text><polygon fill="#181818" points="1468.5,1033.3809,1478.5,1037.3809,1468.5,1041.3809,1472.5,1037.3809" style="stroke:#181818;stroke-width:1.0;"/><line style="stroke:#181818;stroke-width:1.0;" x1="954.5" x2="1474.5" y1="1037.3809" y2="1037.3809"/><text fill="#000000" font-family="sans-serif" font-size="13" lengthAdjust="spacing" textLength="373" x="961.5" y="1032.6387">header=createHeader(feedbackType,gradeType,description)</text><polygon fill="#181818" points="1473.5,1062.6914,1483.5,1066.6914,1473.5,1070.6914,1477.5,1066.6914" style="stroke:#181818;stroke-width:1.0;"/><line style="stroke:#181818;stroke-width:1.0;" x1="954.5" x2="1479.5" y1="1066.6914" y2="1066.6914"/><text fill="#000000" font-family="sans-serif" font-size="13" lengthAdjust="spacing" textLength="53" x="961.5" y="1061.9492">setID(id)</text><polygon fill="#181818" points="1875.5,1092.002,1885.5,1096.002,1875.5,1100.002,1879.5,1096.002" style="stroke:#181818;stroke-width:1.0;"/><line style="stroke:#181818;stroke-width:1.0;" x1="1495.5" x2="1881.5" y1="1096.002" y2="1096.002"/><text fill="#000000" font-family="sans-serif" font-size="13" lengthAdjust="spacing" textLength="373" x="1502.5" y="1091.2598">header=createHeader(feedbackType,gradeType,description)</text><polygon fill="#181818" points="1506.5,1121.3125,1496.5,1125.3125,1506.5,1129.3125,1502.5,1125.3125" style="stroke:#181818;stroke-width:1.0;"/><line style="stroke:#181818;stroke-width:1.0;stroke-dasharray:2.0,2.0;" x1="1500.5" x2="1891.5" y1="1125.3125" y2="1125.3125"/><text fill="#000000" font-family="sans-serif" font-size="13" lengthAdjust="spacing" textLength="42" x="1512.5" y="1120.5703">header</text><polygon fill="#181818" points="1478.5,1150.623,1488.5,1154.623,1478.5,1158.623,1482.5,1154.623" style="stroke:#181818;stroke-width:1.0;"/><line style="stroke:#181818;stroke-width:1.0;" x1="954.5" x2="1484.5" y1="1154.623" y2="1154.623"/><text fill="#000000" font-family="sans-serif" font-size="13" lengthAdjust="spacing" textLength="492" x="961.5" y="1149.8809">newExam=createExam(id,course,title,header,listOfSections,startDate,endDate)</text><polygon fill="#181818" points="2029,1179.9336,2039,1183.9336,2029,1187.9336,2033,1183.9336" style="stroke:#181818;stroke-width:1.0;"/><line style="stroke:#181818;stroke-width:1.0;" x1="1500.5" x2="2035" y1="1183.9336" y2="1183.9336"/><text fill="#000000" font-family="sans-serif" font-size="13" lengthAdjust="spacing" textLength="492" x="1507.5" y="1179.1914">newExam=createExam(id,course,title,header,listOfSections,startDate,endDate)</text><line style="stroke:#181818;stroke-width:1.0;" x1="2051" x2="2098" y1="1208.2441" y2="1208.2441"/><line style="stroke:#181818;stroke-width:1.0;" x1="2098" x2="2098" y1="1208.2441" y2="1221.2441"/><line style="stroke:#181818;stroke-width:1.0;" x1="2057" x2="2098" y1="1221.2441" y2="1221.2441"/><polygon fill="#181818" points="2067,1217.2441,2057,1221.2441,2067,1225.2441,2063,1221.2441" style="stroke:#181818;stroke-width:1.0;"/><text fill="#000000" font-family="sans-serif" font-size="13" lengthAdjust="spacing" textLength="150" x="2063" y="1203.502">validateExam(newExam)</text><polygon fill="#181818" points="2217,1251.5547,2227,1255.5547,2217,1259.5547,2221,1255.5547" style="stroke:#181818;stroke-width:1.0;"/><line style="stroke:#181818;stroke-width:1.0;" x1="954.5" x2="2223" y1="1255.5547" y2="1255.5547"/><text fill="#000000" font-family="sans-serif" font-size="13" lengthAdjust="spacing" textLength="95" x="961.5" y="1250.8125">save(newExam)</text><line style="stroke:#000000;stroke-width:1.0;stroke-dasharray:2.0,2.0;" x1="10" x2="2483.5" y1="1264.5547" y2="1264.5547"/><polygon fill="#181818" points="375.5,1282.8652,385.5,1286.8652,375.5,1290.8652,379.5,1286.8652" style="stroke:#181818;stroke-width:1.0;"/><line style="stroke:#181818;stroke-width:1.0;" x1="80.5" x2="381.5" y1="1286.8652" y2="1286.8652"/><text fill="#000000" font-family="sans-serif" font-size="13" lengthAdjust="spacing" textLength="88" x="87.5" y="1282.123">update exame</text><polygon fill="#181818" points="91.5,1312.1758,81.5,1316.1758,91.5,1320.1758,87.5,1316.1758" style="stroke:#181818;stroke-width:1.0;"/><line style="stroke:#181818;stroke-width:1.0;stroke-dasharray:2.0,2.0;" x1="85.5" x2="381.5" y1="1316.1758" y2="1316.1758"/><text fill="#000000" font-family="sans-serif" font-size="13" lengthAdjust="spacing" textLength="70" x="97.5" y="1311.4336">Ask course</text><polygon fill="#181818" points="375.5,1341.4863,385.5,1345.4863,375.5,1349.4863,379.5,1345.4863" style="stroke:#181818;stroke-width:1.0;"/><line style="stroke:#181818;stroke-width:1.0;" x1="80.5" x2="381.5" y1="1345.4863" y2="1345.4863"/><text fill="#000000" font-family="sans-serif" font-size="13" lengthAdjust="spacing" textLength="42" x="87.5" y="1340.7441">course</text><polygon fill="#181818" points="937.5,1370.7969,947.5,1374.7969,937.5,1378.7969,941.5,1374.7969" style="stroke:#181818;stroke-width:1.0;"/><line style="stroke:#181818;stroke-width:1.0;" x1="397.5" x2="943.5" y1="1374.7969" y2="1374.7969"/><text fill="#000000" font-family="sans-serif" font-size="13" lengthAdjust="spacing" textLength="38" x="404.5" y="1370.0547">create</text><polygon fill="#181818" points="1112,1400.1074,1122,1404.1074,1112,1408.1074,1116,1404.1074" style="stroke:#181818;stroke-width:1.0;"/><line style="stroke:#181818;stroke-width:1.0;" x1="959.5" x2="1118" y1="1404.1074" y2="1404.1074"/><text fill="#000000" font-family="sans-serif" font-size="13" lengthAdjust="spacing" textLength="83" x="966.5" y="1399.3652">repositories()</text><polygon fill="#181818" points="1263.5,1429.418,1273.5,1433.418,1263.5,1437.418,1267.5,1433.418" style="stroke:#181818;stroke-width:1.0;"/><line style="stroke:#181818;stroke-width:1.0;" x1="1134" x2="1269.5" y1="1433.418" y2="1433.418"/><text fill="#000000" font-family="sans-serif" font-size="13" lengthAdjust="spacing" textLength="38" x="1141" y="1428.6758">create</text><polygon fill="#181818" points="2222,1458.7285,2232,1462.7285,2222,1466.7285,2226,1462.7285" style="stroke:#181818;stroke-width:1.0;"/><line style="stroke:#181818;stroke-width:1.0;" x1="1285.5" x2="2228" y1="1462.7285" y2="1462.7285"/><text fill="#000000" font-family="sans-serif" font-size="13" lengthAdjust="spacing" textLength="38" x="1292.5" y="1457.9863">create</text><polygon fill="#181818" points="2227,1488.0391,2237,1492.0391,2227,1496.0391,2231,1492.0391" style="stroke:#181818;stroke-width:1.0;"/><line style="stroke:#181818;stroke-width:1.0;" x1="959.5" x2="2233" y1="1492.0391" y2="1492.0391"/><text fill="#000000" font-family="sans-serif" font-size="13" lengthAdjust="spacing" textLength="169" x="966.5" y="1487.2969">getExamsByCourse(course)</text><polygon fill="#181818" points="408.5,1517.3496,398.5,1521.3496,408.5,1525.3496,404.5,1521.3496" style="stroke:#181818;stroke-width:1.0;"/><line style="stroke:#181818;stroke-width:1.0;stroke-dasharray:2.0,2.0;" x1="402.5" x2="943.5" y1="1521.3496" y2="1521.3496"/><text fill="#000000" font-family="sans-serif" font-size="13" lengthAdjust="spacing" textLength="76" x="414.5" y="1516.6074">listOfExams</text><polygon fill="#181818" points="91.5,1546.6602,81.5,1550.6602,91.5,1554.6602,87.5,1550.6602" style="stroke:#181818;stroke-width:1.0;"/><line style="stroke:#181818;stroke-width:1.0;stroke-dasharray:2.0,2.0;" x1="85.5" x2="381.5" y1="1550.6602" y2="1550.6602"/><text fill="#000000" font-family="sans-serif" font-size="13" lengthAdjust="spacing" textLength="78" x="97.5" y="1545.918">show exams</text><polygon fill="#181818" points="375.5,1575.9707,385.5,1579.9707,375.5,1583.9707,379.5,1579.9707" style="stroke:#181818;stroke-width:1.0;"/><line style="stroke:#181818;stroke-width:1.0;" x1="80.5" x2="381.5" y1="1579.9707" y2="1579.9707"/><text fill="#000000" font-family="sans-serif" font-size="13" lengthAdjust="spacing" textLength="75" x="87.5" y="1575.2285">select exam</text><polygon fill="#181818" points="2232,1605.2813,2242,1609.2813,2232,1613.2813,2236,1609.2813" style="stroke:#181818;stroke-width:1.0;"/><line style="stroke:#181818;stroke-width:1.0;" x1="397.5" x2="2238" y1="1609.2813" y2="1609.2813"/><text fill="#000000" font-family="sans-serif" font-size="13" lengthAdjust="spacing" textLength="140" x="404.5" y="1604.5391">exam=getExam(exam)</text><polygon fill="#181818" points="2039,1634.5918,2049,1638.5918,2039,1642.5918,2043,1638.5918" style="stroke:#181818;stroke-width:1.0;"/><line style="stroke:#181818;stroke-width:1.0;" x1="954.5" x2="2045" y1="1638.5918" y2="1638.5918"/><text fill="#000000" font-family="sans-serif" font-size="13" lengthAdjust="spacing" textLength="96" x="961.5" y="1633.8496">getExam(exam)</text><polygon fill="#181818" points="408.5,1663.9023,398.5,1667.9023,408.5,1671.9023,404.5,1667.9023" style="stroke:#181818;stroke-width:1.0;"/><line style="stroke:#181818;stroke-width:1.0;stroke-dasharray:2.0,2.0;" x1="402.5" x2="938.5" y1="1667.9023" y2="1667.9023"/><text fill="#000000" font-family="sans-serif" font-size="13" lengthAdjust="spacing" textLength="34" x="414.5" y="1663.1602">exam</text><polygon fill="#181818" points="91.5,1693.2129,81.5,1697.2129,91.5,1701.2129,87.5,1697.2129" style="stroke:#181818;stroke-width:1.0;"/><line style="stroke:#181818;stroke-width:1.0;stroke-dasharray:2.0,2.0;" x1="85.5" x2="381.5" y1="1697.2129" y2="1697.2129"/><text fill="#000000" font-family="sans-serif" font-size="13" lengthAdjust="spacing" textLength="76" x="97.5" y="1692.4707">return exam</text><polygon fill="#181818" points="375.5,1722.5234,385.5,1726.5234,375.5,1730.5234,379.5,1726.5234" style="stroke:#181818;stroke-width:1.0;"/><line style="stroke:#181818;stroke-width:1.0;" x1="80.5" x2="381.5" y1="1726.5234" y2="1726.5234"/><text fill="#000000" font-family="sans-serif" font-size="13" lengthAdjust="spacing" textLength="81" x="87.5" y="1721.7813">update exam</text><polygon fill="#181818" points="932.5,1751.834,942.5,1755.834,932.5,1759.834,936.5,1755.834" style="stroke:#181818;stroke-width:1.0;"/><line style="stroke:#181818;stroke-width:1.0;" x1="397.5" x2="938.5" y1="1755.834" y2="1755.834"/><text fill="#000000" font-family="sans-serif" font-size="13" lengthAdjust="spacing" textLength="187" x="404.5" y="1751.0918">updExam=updateExam(exam)</text><polygon fill="#181818" points="2044,1781.1445,2054,1785.1445,2044,1789.1445,2048,1785.1445" style="stroke:#181818;stroke-width:1.0;"/><line style="stroke:#181818;stroke-width:1.0;" x1="954.5" x2="2050" y1="1785.1445" y2="1785.1445"/><text fill="#000000" font-family="sans-serif" font-size="13" lengthAdjust="spacing" textLength="187" x="961.5" y="1780.4023">updExam=updateExam(exam)</text><line style="stroke:#181818;stroke-width:1.0;" x1="2066" x2="2113" y1="1809.4551" y2="1809.4551"/><line style="stroke:#181818;stroke-width:1.0;" x1="2113" x2="2113" y1="1809.4551" y2="1822.4551"/><line style="stroke:#181818;stroke-width:1.0;" x1="2072" x2="2113" y1="1822.4551" y2="1822.4551"/><polygon fill="#181818" points="2082,1818.4551,2072,1822.4551,2082,1826.4551,2078,1822.4551" style="stroke:#181818;stroke-width:1.0;"/><text fill="#000000" font-family="sans-serif" font-size="13" lengthAdjust="spacing" textLength="149" x="2078" y="1804.7129">validateExam(updExam)</text><polygon fill="#181818" points="2237,1852.7656,2247,1856.7656,2237,1860.7656,2241,1856.7656" style="stroke:#181818;stroke-width:1.0;"/><line style="stroke:#181818;stroke-width:1.0;" x1="954.5" x2="2243" y1="1856.7656" y2="1856.7656"/><text fill="#000000" font-family="sans-serif" font-size="13" lengthAdjust="spacing" textLength="94" x="961.5" y="1852.0234">save(updExam)</text><!--SRC=[hLRRRgCm47tdAwm-KGcqxv4IgQ54YRJQ3QJv01Uc3Ih5gMtQvkztnXU2oLRRtUvJxBcScJCN4zvhmIlTl78DJ7HHX1SXsHtmwW0oEdAfcwevyawpgqm2MdtR7slyoT_vytvpnRXY-yqVx3BHQIdQ5gInpxFGVWjIDKf3Lm5PmhisPjk9MGb7eHhCxhGoIPwCLRaAhPPzqzOkq39KxU2bfo0xGCAYCoQx8hHP0_VUwr1JzA06juaNaRJK8kJCxxa2AppdRDNbIEy19pP56M4NMiri6Hd1HAuVB5rWjMUiiYeWrNv3qZppKYD0YNEPiHlrn9IZZWV3dJNTWv3FdCvHz5s88xkfQ-OguyEb2mn6Sk-bXO-PBYXY1s-xOcxZEj_OsVxed-z19ZLKiZcI8EcCvEU3vwskepnB5xlYwpXd1YzUIBaw2Apd3TRJ5SrR12IpK3TsTbmnHH_G9UgliJyaEz7svk1nxav7i2oNCzUTPReelWP6xTvYyQMVcmPKV1rjZQ9S3NDGhaXGb8E0yi2hugyGZpB0ya6B0raTX52Z-WG5OfdLQapYRE9gCyxG9KXX7q7x6CiJwU9BAcwWXxOHPBhmitiMZtFPGOkz-MIp8kZgo0zQYy_CQ73clAw7mWSL6Jinw-NcCd1ITyAFgndXP1B00GMSp3vMefSA4gORtGBZNMtsYXtCwnEGjQ8DhgkpJhopqlW4tM9Z4mnoQpVVi2SeSfZJag-4f1SaTauMOWGQahi4dOollLX_DxhsoOmV0EfxNZrHRvD7YJ9pga7vpVLG2lJcDcxgQrg6zJ-3hLC2ypMpqDW5Okl03F6cJdx3_HEyCRdylmBc1FZAsyP_5sE7RWkJuyhutRHIMilfqz-RhweP5_Xmi2QxwuGNNug_VKloy2t1AwuufQgMfyp4S6Dc29dOjYh69inM7SIROQ4coIgxtUVlJ6a6Ukv2nN0ksEn2PY2ywwWq4dGlEmiQXXlLqnQ8weD2q_L- -0iJXFrOVT5XPpfqs3Hu4DBpy0i0]--></g></svg>