<?xml version="1.0" encoding="us-ascii" standalone="no"?><svg xmlns="http://www.w3.org/2000/svg" xmlns:xlink="http://www.w3.org/1999/xlink" contentStyleType="text/css" height="1166px" preserveAspectRatio="none" style="width:2422px;height:1166px;background:#FFFFFF;" version="1.1" viewBox="0 0 2422 1166" width="2422px" zoomAndPan="magnify"><defs/><g><rect fill="#FFFFFF" height="205.1738" style="stroke:#181818;stroke-width:1.0;" width="10" x="181.5" y="112.7988"/><rect fill="#FFFFFF" height="729.4531" style="stroke:#181818;stroke-width:1.0;" width="10" x="181.5" y="347.2832"/><rect fill="#FFFFFF" height="58.6211" style="stroke:#181818;stroke-width:1.0;" width="10" x="186.5" y="560.457"/><rect fill="#FFFFFF" height="29.3105" style="stroke:#181818;stroke-width:1.0;" width="10" x="186.5" y="648.3887"/><rect fill="#FFFFFF" height="369.7266" style="stroke:#181818;stroke-width:1.0;" width="10" x="186.5" y="707.0098"/><rect fill="#FFFFFF" height="146.5527" style="stroke:#181818;stroke-width:1.0;" width="10" x="503.5" y="142.1094"/><rect fill="#FFFFFF" height="146.5527" style="stroke:#181818;stroke-width:1.0;" width="10" x="503.5" y="376.5938"/><rect fill="#FFFFFF" height="333.416" style="stroke:#181818;stroke-width:1.0;" width="10" x="503.5" y="743.3203"/><rect fill="#FFFFFF" height="87.9316" style="stroke:#181818;stroke-width:1.0;" width="10" x="666" y="171.4199"/><rect fill="#FFFFFF" height="236.4844" style="stroke:#181818;stroke-width:1.0;" width="10" x="873.5" y="772.6309"/><rect fill="#FFFFFF" height="146.5527" style="stroke:#181818;stroke-width:1.0;" width="10" x="1209.5" y="826.252"/><rect fill="#FFFFFF" height="29.3105" style="stroke:#181818;stroke-width:1.0;" width="10" x="1329" y="464.5254"/><rect fill="#FFFFFF" height="87.9316" style="stroke:#181818;stroke-width:1.0;" width="10" x="1520.5" y="855.5625"/><rect fill="#FFFFFF" height="29.3105" style="stroke:#181818;stroke-width:1.0;" width="10" x="1906.5" y="884.873"/><rect fill="#FFFFFF" height="29.3105" style="stroke:#181818;stroke-width:1.0;" width="10" x="2021.5" y="405.9043"/><rect fill="#FFFFFF" height="29.3105" style="stroke:#181818;stroke-width:1.0;" width="10" x="2169" y="200.7305"/><rect fill="#FFFFFF" height="38.3105" style="stroke:#181818;stroke-width:1.0;" width="10" x="2169" y="1038.4258"/><rect fill="#FFFFFF" height="9" style="stroke:#181818;stroke-width:1.0;" width="10" x="2337" y="1067.7363"/><rect fill="none" height="134.5527" style="stroke:#000000;stroke-width:1.5;" width="245" x="10" y="580.457"/><rect fill="none" height="193.1738" style="stroke:#000000;stroke-width:1.5;" width="1146" x="822" y="787.6309"/><line style="stroke:#181818;stroke-width:0.5;stroke-dasharray:5.0,5.0;" x1="38" x2="38" y1="81.4883" y2="1085.7363"/><line style="stroke:#181818;stroke-width:0.5;stroke-dasharray:5.0,5.0;" x1="186" x2="186" y1="81.4883" y2="1085.7363"/><line style="stroke:#181818;stroke-width:0.5;stroke-dasharray:5.0,5.0;" x1="508" x2="508" y1="81.4883" y2="1085.7363"/><line style="stroke:#181818;stroke-width:0.5;stroke-dasharray:5.0,5.0;" x1="671" x2="671" y1="81.4883" y2="1085.7363"/><line style="stroke:#181818;stroke-width:0.5;stroke-dasharray:5.0,5.0;" x1="878" x2="878" y1="81.4883" y2="1085.7363"/><line style="stroke:#181818;stroke-width:0.5;stroke-dasharray:5.0,5.0;" x1="1214" x2="1214" y1="81.4883" y2="1085.7363"/><line style="stroke:#181818;stroke-width:0.5;stroke-dasharray:5.0,5.0;" x1="1334" x2="1334" y1="81.4883" y2="1085.7363"/><line style="stroke:#181818;stroke-width:0.5;stroke-dasharray:5.0,5.0;" x1="1525" x2="1525" y1="81.4883" y2="1085.7363"/><line style="stroke:#181818;stroke-width:0.5;stroke-dasharray:5.0,5.0;" x1="1911" x2="1911" y1="81.4883" y2="1085.7363"/><line style="stroke:#181818;stroke-width:0.5;stroke-dasharray:5.0,5.0;" x1="2026" x2="2026" y1="81.4883" y2="1085.7363"/><line style="stroke:#181818;stroke-width:0.5;stroke-dasharray:5.0,5.0;" x1="2174" x2="2174" y1="81.4883" y2="1085.7363"/><line style="stroke:#181818;stroke-width:0.5;stroke-dasharray:5.0,5.0;" x1="2342" x2="2342" y1="81.4883" y2="1085.7363"/><text fill="#000000" font-family="sans-serif" font-size="14" lengthAdjust="spacing" textLength="31" x="20" y="78.5352">User</text><ellipse cx="38.5" cy="13.5" fill="#E2E2F0" rx="8" ry="8" style="stroke:#181818;stroke-width:0.5;"/><path d="M38.5,21.5 L38.5,48.5 M25.5,29.5 L51.5,29.5 M38.5,48.5 L25.5,63.5 M38.5,48.5 L51.5,63.5 " fill="none" style="stroke:#181818;stroke-width:0.5;"/><text fill="#000000" font-family="sans-serif" font-size="14" lengthAdjust="spacing" textLength="31" x="20" y="1098.2715">User</text><ellipse cx="38.5" cy="1109.7246" fill="#E2E2F0" rx="8" ry="8" style="stroke:#181818;stroke-width:0.5;"/><path d="M38.5,1117.7246 L38.5,1144.7246 M25.5,1125.7246 L51.5,1125.7246 M38.5,1144.7246 L25.5,1159.7246 M38.5,1144.7246 L51.5,1159.7246 " fill="none" style="stroke:#181818;stroke-width:0.5;"/><rect fill="#E2E2F0" height="30.4883" rx="2.5" ry="2.5" style="stroke:#181818;stroke-width:0.5;" width="117" x="128" y="50"/><text fill="#000000" font-family="sans-serif" font-size="14" lengthAdjust="spacing" textLength="103" x="135" y="70.5352">ShareABoardUI</text><rect fill="#E2E2F0" height="30.4883" rx="2.5" ry="2.5" style="stroke:#181818;stroke-width:0.5;" width="117" x="128" y="1084.7363"/><text fill="#000000" font-family="sans-serif" font-size="14" lengthAdjust="spacing" textLength="103" x="135" y="1105.2715">ShareABoardUI</text><rect fill="#E2E2F0" height="30.4883" rx="2.5" ry="2.5" style="stroke:#181818;stroke-width:0.5;" width="173" x="422" y="50"/><text fill="#000000" font-family="sans-serif" font-size="14" lengthAdjust="spacing" textLength="159" x="429" y="70.5352">ShareABoardController</text><rect fill="#E2E2F0" height="30.4883" rx="2.5" ry="2.5" style="stroke:#181818;stroke-width:0.5;" width="173" x="422" y="1084.7363"/><text fill="#000000" font-family="sans-serif" font-size="14" lengthAdjust="spacing" textLength="159" x="429" y="1105.2715">ShareABoardController</text><rect fill="#E2E2F0" height="30.4883" rx="2.5" ry="2.5" style="stroke:#181818;stroke-width:0.5;" width="132" x="605" y="50"/><text fill="#000000" font-family="sans-serif" font-size="14" lengthAdjust="spacing" textLength="118" x="612" y="70.5352">ListBoardsService</text><rect fill="#E2E2F0" height="30.4883" rx="2.5" ry="2.5" style="stroke:#181818;stroke-width:0.5;" width="132" x="605" y="1084.7363"/><text fill="#000000" font-family="sans-serif" font-size="14" lengthAdjust="spacing" textLength="118" x="612" y="1105.2715">ListBoardsService</text><rect fill="#E2E2F0" height="30.4883" rx="2.5" ry="2.5" style="stroke:#181818;stroke-width:0.5;" width="93" x="832" y="50"/><text fill="#000000" font-family="sans-serif" font-size="14" lengthAdjust="spacing" textLength="79" x="839" y="70.5352">ShareBoard</text><rect fill="#E2E2F0" height="30.4883" rx="2.5" ry="2.5" style="stroke:#181818;stroke-width:0.5;" width="93" x="832" y="1084.7363"/><text fill="#000000" font-family="sans-serif" font-size="14" lengthAdjust="spacing" textLength="79" x="839" y="1105.2715">ShareBoard</text><rect fill="#E2E2F0" height="30.4883" rx="2.5" ry="2.5" style="stroke:#181818;stroke-width:0.5;" width="133" x="1148" y="50"/><text fill="#000000" font-family="sans-serif" font-size="14" lengthAdjust="spacing" textLength="119" x="1155" y="70.5352">SharedBoardUser</text><rect fill="#E2E2F0" height="30.4883" rx="2.5" ry="2.5" style="stroke:#181818;stroke-width:0.5;" width="133" x="1148" y="1084.7363"/><text fill="#000000" font-family="sans-serif" font-size="14" lengthAdjust="spacing" textLength="119" x="1155" y="1105.2715">SharedBoardUser</text><rect fill="#E2E2F0" height="30.4883" rx="2.5" ry="2.5" style="stroke:#181818;stroke-width:0.5;" width="86" x="1291" y="50"/><text fill="#000000" font-family="sans-serif" font-size="14" lengthAdjust="spacing" textLength="72" x="1298" y="70.5352">AcessType</text><rect fill="#E2E2F0" height="30.4883" rx="2.5" ry="2.5" style="stroke:#181818;stroke-width:0.5;" width="86" x="1291" y="1084.7363"/><text fill="#000000" font-family="sans-serif" font-size="14" lengthAdjust="spacing" textLength="72" x="1298" y="1105.2715">AcessType</text><rect fill="#E2E2F0" height="30.4883" rx="2.5" ry="2.5" style="stroke:#181818;stroke-width:0.5;" width="139" x="1456" y="50"/><text fill="#000000" font-family="sans-serif" font-size="14" lengthAdjust="spacing" textLength="125" x="1463" y="70.5352">BoardSharedEvent</text><rect fill="#E2E2F0" height="30.4883" rx="2.5" ry="2.5" style="stroke:#181818;stroke-width:0.5;" width="139" x="1456" y="1084.7363"/><text fill="#000000" font-family="sans-serif" font-size="14" lengthAdjust="spacing" textLength="125" x="1463" y="1105.2715">BoardSharedEvent</text><rect fill="#E2E2F0" height="30.4883" rx="2.5" ry="2.5" style="stroke:#181818;stroke-width:0.5;" width="93" x="1865" y="50"/><text fill="#000000" font-family="sans-serif" font-size="14" lengthAdjust="spacing" textLength="79" x="1872" y="70.5352">Notification</text><rect fill="#E2E2F0" height="30.4883" rx="2.5" ry="2.5" style="stroke:#181818;stroke-width:0.5;" width="93" x="1865" y="1084.7363"/><text fill="#000000" font-family="sans-serif" font-size="14" lengthAdjust="spacing" textLength="79" x="1872" y="1105.2715">Notification</text><text fill="#000000" font-family="sans-serif" font-size="14" lengthAdjust="spacing" textLength="111" x="1968" y="78.5352">UsersRepository</text><path d="M2008.5,29 C2008.5,19 2026.5,19 2026.5,19 C2026.5,19 2044.5,19 2044.5,29 L2044.5,55 C2044.5,65 2026.5,65 2026.5,65 C2026.5,65 2008.5,65 2008.5,55 L2008.5,29 " fill="#E2E2F0" style="stroke:#181818;stroke-width:1.5;"/><path d="M2008.5,29 C2008.5,39 2026.5,39 2026.5,39 C2026.5,39 2044.5,39 2044.5,29 " fill="none" style="stroke:#181818;stroke-width:1.5;"/><text fill="#000000" font-family="sans-serif" font-size="14" lengthAdjust="spacing" textLength="111" x="1968" y="1098.2715">UsersRepository</text><path d="M2008.5,1111.2246 C2008.5,1101.2246 2026.5,1101.2246 2026.5,1101.2246 C2026.5,1101.2246 2044.5,1101.2246 2044.5,1111.2246 L2044.5,1137.2246 C2044.5,1147.2246 2026.5,1147.2246 2026.5,1147.2246 C2026.5,1147.2246 2008.5,1147.2246 2008.5,1137.2246 L2008.5,1111.2246 " fill="#E2E2F0" style="stroke:#181818;stroke-width:1.5;"/><path d="M2008.5,1111.2246 C2008.5,1121.2246 2026.5,1121.2246 2026.5,1121.2246 C2026.5,1121.2246 2044.5,1121.2246 2044.5,1111.2246 " fill="none" style="stroke:#181818;stroke-width:1.5;"/><text fill="#000000" font-family="sans-serif" font-size="14" lengthAdjust="spacing" textLength="152" x="2095" y="78.5352">ShareBoardRepository</text><path d="M2156,29 C2156,19 2174,19 2174,19 C2174,19 2192,19 2192,29 L2192,55 C2192,65 2174,65 2174,65 C2174,65 2156,65 2156,55 L2156,29 " fill="#E2E2F0" style="stroke:#181818;stroke-width:1.5;"/><path d="M2156,29 C2156,39 2174,39 2174,39 C2174,39 2192,39 2192,29 " fill="none" style="stroke:#181818;stroke-width:1.5;"/><text fill="#000000" font-family="sans-serif" font-size="14" lengthAdjust="spacing" textLength="152" x="2095" y="1098.2715">ShareBoardRepository</text><path d="M2156,1111.2246 C2156,1101.2246 2174,1101.2246 2174,1101.2246 C2174,1101.2246 2192,1101.2246 2192,1111.2246 L2192,1137.2246 C2192,1147.2246 2174,1147.2246 2174,1147.2246 C2174,1147.2246 2156,1147.2246 2156,1137.2246 L2156,1111.2246 " fill="#E2E2F0" style="stroke:#181818;stroke-width:1.5;"/><path d="M2156,1111.2246 C2156,1121.2246 2174,1121.2246 2174,1121.2246 C2174,1121.2246 2192,1121.2246 2192,1111.2246 " fill="none" style="stroke:#181818;stroke-width:1.5;"/><text fill="#000000" font-family="sans-serif" font-size="14" lengthAdjust="spacing" textLength="152" x="2263" y="78.5352">NotificationRepository</text><path d="M2324,29 C2324,19 2342,19 2342,19 C2342,19 2360,19 2360,29 L2360,55 C2360,65 2342,65 2342,65 C2342,65 2324,65 2324,55 L2324,29 " fill="#E2E2F0" style="stroke:#181818;stroke-width:1.5;"/><path d="M2324,29 C2324,39 2342,39 2342,39 C2342,39 2360,39 2360,29 " fill="none" style="stroke:#181818;stroke-width:1.5;"/><text fill="#000000" font-family="sans-serif" font-size="14" lengthAdjust="spacing" textLength="152" x="2263" y="1098.2715">NotificationRepository</text><path d="M2324,1111.2246 C2324,1101.2246 2342,1101.2246 2342,1101.2246 C2342,1101.2246 2360,1101.2246 2360,1111.2246 L2360,1137.2246 C2360,1147.2246 2342,1147.2246 2342,1147.2246 C2342,1147.2246 2324,1147.2246 2324,1137.2246 L2324,1111.2246 " fill="#E2E2F0" style="stroke:#181818;stroke-width:1.5;"/><path d="M2324,1111.2246 C2324,1121.2246 2342,1121.2246 2342,1121.2246 C2342,1121.2246 2360,1121.2246 2360,1111.2246 " fill="none" style="stroke:#181818;stroke-width:1.5;"/><rect fill="#FFFFFF" height="205.1738" style="stroke:#181818;stroke-width:1.0;" width="10" x="181.5" y="112.7988"/><rect fill="#FFFFFF" height="729.4531" style="stroke:#181818;stroke-width:1.0;" width="10" x="181.5" y="347.2832"/><rect fill="#FFFFFF" height="58.6211" style="stroke:#181818;stroke-width:1.0;" width="10" x="186.5" y="560.457"/><rect fill="#FFFFFF" height="29.3105" style="stroke:#181818;stroke-width:1.0;" width="10" x="186.5" y="648.3887"/><rect fill="#FFFFFF" height="369.7266" style="stroke:#181818;stroke-width:1.0;" width="10" x="186.5" y="707.0098"/><rect fill="#FFFFFF" height="146.5527" style="stroke:#181818;stroke-width:1.0;" width="10" x="503.5" y="142.1094"/><rect fill="#FFFFFF" height="146.5527" style="stroke:#181818;stroke-width:1.0;" width="10" x="503.5" y="376.5938"/><rect fill="#FFFFFF" height="333.416" style="stroke:#181818;stroke-width:1.0;" width="10" x="503.5" y="743.3203"/><rect fill="#FFFFFF" height="87.9316" style="stroke:#181818;stroke-width:1.0;" width="10" x="666" y="171.4199"/><rect fill="#FFFFFF" height="236.4844" style="stroke:#181818;stroke-width:1.0;" width="10" x="873.5" y="772.6309"/><rect fill="#FFFFFF" height="146.5527" style="stroke:#181818;stroke-width:1.0;" width="10" x="1209.5" y="826.252"/><rect fill="#FFFFFF" height="29.3105" style="stroke:#181818;stroke-width:1.0;" width="10" x="1329" y="464.5254"/><rect fill="#FFFFFF" height="87.9316" style="stroke:#181818;stroke-width:1.0;" width="10" x="1520.5" y="855.5625"/><rect fill="#FFFFFF" height="29.3105" style="stroke:#181818;stroke-width:1.0;" width="10" x="1906.5" y="884.873"/><rect fill="#FFFFFF" height="29.3105" style="stroke:#181818;stroke-width:1.0;" width="10" x="2021.5" y="405.9043"/><rect fill="#FFFFFF" height="29.3105" style="stroke:#181818;stroke-width:1.0;" width="10" x="2169" y="200.7305"/><rect fill="#FFFFFF" height="38.3105" style="stroke:#181818;stroke-width:1.0;" width="10" x="2169" y="1038.4258"/><rect fill="#FFFFFF" height="9" style="stroke:#181818;stroke-width:1.0;" width="10" x="2337" y="1067.7363"/><polygon fill="#181818" points="169.5,108.7988,179.5,112.7988,169.5,116.7988,173.5,112.7988" style="stroke:#181818;stroke-width:1.0;"/><line style="stroke:#181818;stroke-width:1.0;" x1="38.5" x2="175.5" y1="112.7988" y2="112.7988"/><text fill="#000000" font-family="sans-serif" font-size="13" lengthAdjust="spacing" textLength="85" x="45.5" y="108.0566">Share a board</text><polygon fill="#181818" points="491.5,138.1094,501.5,142.1094,491.5,146.1094,495.5,142.1094" style="stroke:#181818;stroke-width:1.0;"/><line style="stroke:#181818;stroke-width:1.0;" x1="191.5" x2="497.5" y1="142.1094" y2="142.1094"/><text fill="#000000" font-family="sans-serif" font-size="13" lengthAdjust="spacing" textLength="116" x="198.5" y="137.3672">getMyBoards(User)</text><polygon fill="#181818" points="654,167.4199,664,171.4199,654,175.4199,658,171.4199" style="stroke:#181818;stroke-width:1.0;"/><line style="stroke:#181818;stroke-width:1.0;" x1="513.5" x2="660" y1="171.4199" y2="171.4199"/><text fill="#000000" font-family="sans-serif" font-size="13" lengthAdjust="spacing" textLength="116" x="520.5" y="166.6777">getMyBoards(User)</text><polygon fill="#181818" points="2157,196.7305,2167,200.7305,2157,204.7305,2161,200.7305" style="stroke:#181818;stroke-width:1.0;"/><line style="stroke:#181818;stroke-width:1.0;" x1="676" x2="2163" y1="200.7305" y2="200.7305"/><text fill="#000000" font-family="sans-serif" font-size="13" lengthAdjust="spacing" textLength="45" x="683" y="195.9883">getAll()</text><polygon fill="#181818" points="687,226.041,677,230.041,687,234.041,683,230.041" style="stroke:#181818;stroke-width:1.0;"/><line style="stroke:#181818;stroke-width:1.0;stroke-dasharray:2.0,2.0;" x1="681" x2="2173" y1="230.041" y2="230.041"/><text fill="#000000" font-family="sans-serif" font-size="13" lengthAdjust="spacing" textLength="77" x="693" y="225.2988">listOfBoards</text><polygon fill="#181818" points="524.5,255.3516,514.5,259.3516,524.5,263.3516,520.5,259.3516" style="stroke:#181818;stroke-width:1.0;"/><line style="stroke:#181818;stroke-width:1.0;stroke-dasharray:2.0,2.0;" x1="518.5" x2="670" y1="259.3516" y2="259.3516"/><text fill="#000000" font-family="sans-serif" font-size="13" lengthAdjust="spacing" textLength="84" x="530.5" y="254.6094">myBoardsList</text><polygon fill="#181818" points="202.5,284.6621,192.5,288.6621,202.5,292.6621,198.5,288.6621" style="stroke:#181818;stroke-width:1.0;"/><line style="stroke:#181818;stroke-width:1.0;stroke-dasharray:2.0,2.0;" x1="196.5" x2="507.5" y1="288.6621" y2="288.6621"/><text fill="#000000" font-family="sans-serif" font-size="13" lengthAdjust="spacing" textLength="84" x="208.5" y="283.9199">myBoardsList</text><polygon fill="#181818" points="49.5,313.9727,39.5,317.9727,49.5,321.9727,45.5,317.9727" style="stroke:#181818;stroke-width:1.0;"/><line style="stroke:#181818;stroke-width:1.0;stroke-dasharray:2.0,2.0;" x1="43.5" x2="185.5" y1="317.9727" y2="317.9727"/><text fill="#000000" font-family="sans-serif" font-size="13" lengthAdjust="spacing" textLength="76" x="55.5" y="313.2305">Select Board</text><polygon fill="#181818" points="169.5,343.2832,179.5,347.2832,169.5,351.2832,173.5,347.2832" style="stroke:#181818;stroke-width:1.0;"/><line style="stroke:#181818;stroke-width:1.0;" x1="38.5" x2="175.5" y1="347.2832" y2="347.2832"/><text fill="#000000" font-family="sans-serif" font-size="13" lengthAdjust="spacing" textLength="35" x="45.5" y="342.541">Board</text><polygon fill="#181818" points="491.5,372.5938,501.5,376.5938,491.5,380.5938,495.5,376.5938" style="stroke:#181818;stroke-width:1.0;"/><line style="stroke:#181818;stroke-width:1.0;" x1="191.5" x2="497.5" y1="376.5938" y2="376.5938"/><text fill="#000000" font-family="sans-serif" font-size="13" lengthAdjust="spacing" textLength="247" x="198.5" y="371.8516">BoardID, getAllUsers(), getAccessType()</text><polygon fill="#181818" points="2009.5,401.9043,2019.5,405.9043,2009.5,409.9043,2013.5,405.9043" style="stroke:#181818;stroke-width:1.0;"/><line style="stroke:#181818;stroke-width:1.0;" x1="513.5" x2="2015.5" y1="405.9043" y2="405.9043"/><text fill="#000000" font-family="sans-serif" font-size="13" lengthAdjust="spacing" textLength="80" x="520.5" y="401.1621">getAllUsers()</text><polygon fill="#181818" points="524.5,431.2148,514.5,435.2148,524.5,439.2148,520.5,435.2148" style="stroke:#181818;stroke-width:1.0;"/><line style="stroke:#181818;stroke-width:1.0;stroke-dasharray:2.0,2.0;" x1="518.5" x2="2025.5" y1="435.2148" y2="435.2148"/><text fill="#000000" font-family="sans-serif" font-size="13" lengthAdjust="spacing" textLength="70" x="530.5" y="430.4727">listOfUsers</text><polygon fill="#181818" points="1317,460.5254,1327,464.5254,1317,468.5254,1321,464.5254" style="stroke:#181818;stroke-width:1.0;"/><line style="stroke:#181818;stroke-width:1.0;" x1="513.5" x2="1323" y1="464.5254" y2="464.5254"/><text fill="#000000" font-family="sans-serif" font-size="13" lengthAdjust="spacing" textLength="102" x="520.5" y="459.7832">getAccessType()</text><polygon fill="#181818" points="524.5,489.8359,514.5,493.8359,524.5,497.8359,520.5,493.8359" style="stroke:#181818;stroke-width:1.0;"/><line style="stroke:#181818;stroke-width:1.0;stroke-dasharray:2.0,2.0;" x1="518.5" x2="1333" y1="493.8359" y2="493.8359"/><text fill="#000000" font-family="sans-serif" font-size="13" lengthAdjust="spacing" textLength="79" x="530.5" y="489.0938">accessTypes</text><polygon fill="#181818" points="202.5,519.1465,192.5,523.1465,202.5,527.1465,198.5,523.1465" style="stroke:#181818;stroke-width:1.0;"/><line style="stroke:#181818;stroke-width:1.0;stroke-dasharray:2.0,2.0;" x1="196.5" x2="507.5" y1="523.1465" y2="523.1465"/><text fill="#000000" font-family="sans-serif" font-size="13" lengthAdjust="spacing" textLength="153" x="208.5" y="518.4043">listOfUsers,accessTypes</text><line style="stroke:#181818;stroke-width:1.0;" x1="191.5" x2="238.5" y1="547.457" y2="547.457"/><line style="stroke:#181818;stroke-width:1.0;" x1="238.5" x2="238.5" y1="547.457" y2="560.457"/><line style="stroke:#181818;stroke-width:1.0;" x1="197.5" x2="238.5" y1="560.457" y2="560.457"/><polygon fill="#181818" points="207.5,556.457,197.5,560.457,207.5,564.457,203.5,560.457" style="stroke:#181818;stroke-width:1.0;"/><text fill="#000000" font-family="sans-serif" font-size="13" lengthAdjust="spacing" textLength="93" x="203.5" y="542.7148">showAllUsers()</text><path d="M10,580.457 L84,580.457 L84,587.7676 L74,597.7676 L10,597.7676 L10,580.457 " fill="#EEEEEE" style="stroke:#000000;stroke-width:1.5;"/><rect fill="none" height="134.5527" style="stroke:#000000;stroke-width:1.5;" width="245" x="10" y="580.457"/><text fill="#000000" font-family="sans-serif" font-size="13" font-weight="bold" lengthAdjust="spacing" textLength="29" x="25" y="594.0254">loop</text><text fill="#000000" font-family="sans-serif" font-size="11" font-weight="bold" lengthAdjust="spacing" textLength="147" x="99" y="593.0918">[user select option 0(exit)]</text><polygon fill="#181818" points="49.5,615.0781,39.5,619.0781,49.5,623.0781,45.5,619.0781" style="stroke:#181818;stroke-width:1.0;"/><line style="stroke:#181818;stroke-width:1.0;stroke-dasharray:2.0,2.0;" x1="43.5" x2="180.5" y1="619.0781" y2="619.0781"/><text fill="#000000" font-family="sans-serif" font-size="13" lengthAdjust="spacing" textLength="69" x="55.5" y="614.3359">Select User</text><polygon fill="#181818" points="174.5,644.3887,184.5,648.3887,174.5,652.3887,178.5,648.3887" style="stroke:#181818;stroke-width:1.0;"/><line style="stroke:#181818;stroke-width:1.0;" x1="38.5" x2="180.5" y1="648.3887" y2="648.3887"/><text fill="#000000" font-family="sans-serif" font-size="13" lengthAdjust="spacing" textLength="28" x="45.5" y="643.6465">User</text><polygon fill="#181818" points="49.5,673.6992,39.5,677.6992,49.5,681.6992,45.5,677.6992" style="stroke:#181818;stroke-width:1.0;"/><line style="stroke:#181818;stroke-width:1.0;stroke-dasharray:2.0,2.0;" x1="43.5" x2="180.5" y1="677.6992" y2="677.6992"/><text fill="#000000" font-family="sans-serif" font-size="13" lengthAdjust="spacing" textLength="119" x="55.5" y="672.957">Select Access Type</text><polygon fill="#181818" points="174.5,703.0098,184.5,707.0098,174.5,711.0098,178.5,707.0098" style="stroke:#181818;stroke-width:1.0;"/><line style="stroke:#181818;stroke-width:1.0;" x1="38.5" x2="180.5" y1="707.0098" y2="707.0098"/><text fill="#000000" font-family="sans-serif" font-size="13" lengthAdjust="spacing" textLength="78" x="45.5" y="702.2676">Access Type</text><polygon fill="#181818" points="491.5,739.3203,501.5,743.3203,491.5,747.3203,495.5,743.3203" style="stroke:#181818;stroke-width:1.0;"/><line style="stroke:#181818;stroke-width:1.0;" x1="196.5" x2="497.5" y1="743.3203" y2="743.3203"/><text fill="#000000" font-family="sans-serif" font-size="13" lengthAdjust="spacing" textLength="288" x="203.5" y="738.5781">createShareBoardUsers(UsersList, accessType)</text><polygon fill="#181818" points="861.5,768.6309,871.5,772.6309,861.5,776.6309,865.5,772.6309" style="stroke:#181818;stroke-width:1.0;"/><line style="stroke:#181818;stroke-width:1.0;" x1="513.5" x2="867.5" y1="772.6309" y2="772.6309"/><text fill="#000000" font-family="sans-serif" font-size="13" lengthAdjust="spacing" textLength="341" x="520.5" y="767.8887">createShareBoardUsers(UsersList,accessType, BoardID)</text><path d="M822,787.6309 L896,787.6309 L896,794.9414 L886,804.9414 L822,804.9414 L822,787.6309 " fill="#EEEEEE" style="stroke:#000000;stroke-width:1.5;"/><rect fill="none" height="193.1738" style="stroke:#000000;stroke-width:1.5;" width="1146" x="822" y="787.6309"/><text fill="#000000" font-family="sans-serif" font-size="13" font-weight="bold" lengthAdjust="spacing" textLength="29" x="837" y="801.1992">loop</text><text fill="#000000" font-family="sans-serif" font-size="11" font-weight="bold" lengthAdjust="spacing" textLength="151" x="911" y="800.2656">[number of selected Users]</text><polygon fill="#181818" points="1197.5,822.252,1207.5,826.252,1197.5,830.252,1201.5,826.252" style="stroke:#181818;stroke-width:1.0;"/><line style="stroke:#181818;stroke-width:1.0;" x1="883.5" x2="1203.5" y1="826.252" y2="826.252"/><text fill="#000000" font-family="sans-serif" font-size="13" lengthAdjust="spacing" textLength="307" x="890.5" y="821.5098">createShareBoardUsers(User,accessType,BoardID)</text><polygon fill="#181818" points="1508.5,851.5625,1518.5,855.5625,1508.5,859.5625,1512.5,855.5625" style="stroke:#181818;stroke-width:1.0;"/><line style="stroke:#181818;stroke-width:1.0;" x1="1219.5" x2="1514.5" y1="855.5625" y2="855.5625"/><text fill="#000000" font-family="sans-serif" font-size="13" lengthAdjust="spacing" textLength="282" x="1226.5" y="850.8203">createNotification(User,accessType,BoardID);</text><polygon fill="#181818" points="1894.5,880.873,1904.5,884.873,1894.5,888.873,1898.5,884.873" style="stroke:#181818;stroke-width:1.0;"/><line style="stroke:#181818;stroke-width:1.0;" x1="1530.5" x2="1900.5" y1="884.873" y2="884.873"/><text fill="#000000" font-family="sans-serif" font-size="13" lengthAdjust="spacing" textLength="357" x="1537.5" y="880.1309">createNotification(User,accessType, timestamp,BoardID);</text><polygon fill="#181818" points="1541.5,910.1836,1531.5,914.1836,1541.5,918.1836,1537.5,914.1836" style="stroke:#181818;stroke-width:1.0;"/><line style="stroke:#181818;stroke-width:1.0;stroke-dasharray:2.0,2.0;" x1="1535.5" x2="1910.5" y1="914.1836" y2="914.1836"/><text fill="#000000" font-family="sans-serif" font-size="13" lengthAdjust="spacing" textLength="80" x="1547.5" y="909.4414">notifications</text><polygon fill="#181818" points="1230.5,939.4941,1220.5,943.4941,1230.5,947.4941,1226.5,943.4941" style="stroke:#181818;stroke-width:1.0;"/><line style="stroke:#181818;stroke-width:1.0;stroke-dasharray:2.0,2.0;" x1="1224.5" x2="1524.5" y1="943.4941" y2="943.4941"/><text fill="#000000" font-family="sans-serif" font-size="13" lengthAdjust="spacing" textLength="80" x="1236.5" y="938.752">notifications</text><polygon fill="#181818" points="894.5,968.8047,884.5,972.8047,894.5,976.8047,890.5,972.8047" style="stroke:#181818;stroke-width:1.0;"/><line style="stroke:#181818;stroke-width:1.0;stroke-dasharray:2.0,2.0;" x1="888.5" x2="1213.5" y1="972.8047" y2="972.8047"/><text fill="#000000" font-family="sans-serif" font-size="13" lengthAdjust="spacing" textLength="166" x="900.5" y="968.0625">shareABoard, notifications</text><polygon fill="#181818" points="524.5,1005.1152,514.5,1009.1152,524.5,1013.1152,520.5,1009.1152" style="stroke:#181818;stroke-width:1.0;"/><line style="stroke:#181818;stroke-width:1.0;stroke-dasharray:2.0,2.0;" x1="518.5" x2="877.5" y1="1009.1152" y2="1009.1152"/><text fill="#000000" font-family="sans-serif" font-size="13" lengthAdjust="spacing" textLength="162" x="530.5" y="1004.373">shareABoard,notifications</text><polygon fill="#181818" points="2157,1034.4258,2167,1038.4258,2157,1042.4258,2161,1038.4258" style="stroke:#181818;stroke-width:1.0;"/><line style="stroke:#181818;stroke-width:1.0;" x1="513.5" x2="2163" y1="1038.4258" y2="1038.4258"/><text fill="#000000" font-family="sans-serif" font-size="13" lengthAdjust="spacing" textLength="114" x="520.5" y="1033.6836">save(shareABoard)</text><polygon fill="#181818" points="2325,1063.7363,2335,1067.7363,2325,1071.7363,2329,1067.7363" style="stroke:#181818;stroke-width:1.0;"/><line style="stroke:#181818;stroke-width:1.0;" x1="513.5" x2="2331" y1="1067.7363" y2="1067.7363"/><text fill="#000000" font-family="sans-serif" font-size="13" lengthAdjust="spacing" textLength="116" x="520.5" y="1062.9941">save(notifications)</text><!--SRC=[ZLJ1Zfim4BtxAqOv4Gcadba92MWEI2qhGVW0XpXTImGZxAJDtzSp1cBOtNOlaJn-xysRDpZyPXHlZRnp8q3rZDc36g7HOWIkeM437urivS1x0xlwZOyYpHGVpqsn8q3nAI9NlHbLrucHaFaQ-4DgGp1TY_4kMq6W-WCrGhdRx8FhixEZfpPrjl6SjaBhusDm3TBZ-fR8JkTm5xqXq66DAPMH5zbo8rLFzoKxSyDFN0lOOMDTYK5fQODxk50g3_2SOOEgCn_cDza0ouenra2KsBHZaWCE9rHaJO7bF8PVmlnyk3m3jBHdUPJKyVjoRSjPHOIqwm9RoAe8eT3PZRnU7DZ2eiJANYSoRiigHebri2us1LPZg4KdMWDqOzqICbjxf6FnFPnwKtB1tXtRUKlMKKwZBXud76igY9oGSqfrXdEcn_YTI7fq4_2bg57OXUWhX3vYCeiG_QP-UzrPfzG0DtmNsesg1jmLV0l47sdsn4Jg4WKobxLDftLOpZ1WwocnLKdqc6I1OxIZi0_q-IavL_IBMmYzCTtcinZ-ntbImdaryvZzxNgoWwhBDAiuWqkxpkmuzedzIzqNNdGj9qeECyt_s3_blB13b9HVee2HLw4DlmuUkuoeO-yHjPN4S9fj6UsvrFJp3opSW6WVDW5SY0zRe_BfWMb-5u47exsKyyMAisT_0G00]--></g></svg>