<?xml version="1.0" encoding="us-ascii" standalone="no"?><svg xmlns="http://www.w3.org/2000/svg" xmlns:xlink="http://www.w3.org/1999/xlink" contentStyleType="text/css" height="924px" preserveAspectRatio="none" style="width:1008px;height:924px;background:#FFFFFF;" version="1.1" viewBox="0 0 1008 924" width="1008px" zoomAndPan="magnify"><defs/><g><!--class User--><g id="elem_User"><rect codeLine="2" fill="#F1F1F1" height="48" id="User" rx="2.5" ry="2.5" style="stroke:#181818;stroke-width:0.5;" width="63" x="554" y="7"/><ellipse cx="569" cy="23" fill="#ADD1B2" rx="11" ry="11" style="stroke:#181818;stroke-width:1.0;"/><path d="M571.9731,28.6431 Q571.3921,28.9419 570.7529,29.0913 Q570.1138,29.2407 569.4082,29.2407 Q566.9014,29.2407 565.5815,27.5889 Q564.2617,25.937 564.2617,22.8159 Q564.2617,19.6865 565.5815,18.0347 Q566.9014,16.3828 569.4082,16.3828 Q570.1138,16.3828 570.7612,16.5322 Q571.4087,16.6816 571.9731,16.9805 L571.9731,19.7031 Q571.3423,19.1221 570.7488,18.8523 Q570.1553,18.5825 569.5244,18.5825 Q568.1797,18.5825 567.4949,19.6492 Q566.8101,20.7158 566.8101,22.8159 Q566.8101,24.9077 567.4949,25.9744 Q568.1797,27.041 569.5244,27.041 Q570.1553,27.041 570.7488,26.7712 Q571.3423,26.5015 571.9731,25.9204 Z " fill="#000000"/><text fill="#000000" font-family="sans-serif" font-size="14" lengthAdjust="spacing" textLength="31" x="583" y="28.291">User</text><line style="stroke:#181818;stroke-width:0.5;" x1="555" x2="616" y1="39" y2="39"/><line style="stroke:#181818;stroke-width:0.5;" x1="555" x2="616" y1="47" y2="47"/></g><!--class ShareABoardUI--><g id="elem_ShareABoardUI"><rect codeLine="4" fill="#F1F1F1" height="80.9766" id="ShareABoardUI" rx="2.5" ry="2.5" style="stroke:#181818;stroke-width:0.5;" width="135" x="518" y="115"/><ellipse cx="533" cy="131" fill="#ADD1B2" rx="11" ry="11" style="stroke:#181818;stroke-width:1.0;"/><path d="M535.9731,136.6431 Q535.3921,136.9419 534.7529,137.0913 Q534.1138,137.2407 533.4082,137.2407 Q530.9014,137.2407 529.5815,135.5889 Q528.2617,133.937 528.2617,130.8159 Q528.2617,127.6865 529.5815,126.0347 Q530.9014,124.3828 533.4082,124.3828 Q534.1138,124.3828 534.7612,124.5322 Q535.4087,124.6816 535.9731,124.9805 L535.9731,127.7031 Q535.3423,127.1221 534.7488,126.8523 Q534.1553,126.5825 533.5244,126.5825 Q532.1797,126.5825 531.4949,127.6492 Q530.8101,128.7158 530.8101,130.8159 Q530.8101,132.9077 531.4949,133.9744 Q532.1797,135.041 533.5244,135.041 Q534.1553,135.041 534.7488,134.7712 Q535.3423,134.5015 535.9731,133.9204 Z " fill="#000000"/><text fill="#000000" font-family="sans-serif" font-size="14" lengthAdjust="spacing" textLength="103" x="547" y="136.291">ShareABoardUI</text><line style="stroke:#181818;stroke-width:0.5;" x1="519" x2="652" y1="147" y2="147"/><line style="stroke:#181818;stroke-width:0.5;" x1="519" x2="652" y1="155" y2="155"/><ellipse cx="529" cy="168.7441" fill="#84BE84" rx="3" ry="3" style="stroke:#038048;stroke-width:1.0;"/><text fill="#000000" font-family="sans-serif" font-size="14" lengthAdjust="spacing" textLength="65" x="538" y="172.5352">doShow()</text><ellipse cx="529" cy="185.2324" fill="#84BE84" rx="3" ry="3" style="stroke:#038048;stroke-width:1.0;"/><text fill="#000000" font-family="sans-serif" font-size="14" lengthAdjust="spacing" textLength="102" x="538" y="189.0234">showAllUsers()</text></g><!--class ShareABoardController--><g id="elem_ShareABoardController"><rect codeLine="9" fill="#F1F1F1" height="113.9531" id="ShareABoardController" rx="2.5" ry="2.5" style="stroke:#181818;stroke-width:0.5;" width="195" x="488" y="255.98"/><ellipse cx="504.8" cy="271.98" fill="#ADD1B2" rx="11" ry="11" style="stroke:#181818;stroke-width:1.0;"/><path d="M507.7731,277.6231 Q507.1921,277.9219 506.5529,278.0713 Q505.9138,278.2207 505.2082,278.2207 Q502.7014,278.2207 501.3815,276.5689 Q500.0617,274.917 500.0617,271.7959 Q500.0617,268.6665 501.3815,267.0147 Q502.7014,265.3628 505.2082,265.3628 Q505.9138,265.3628 506.5612,265.5122 Q507.2087,265.6616 507.7731,265.9605 L507.7731,268.6831 Q507.1423,268.1021 506.5488,267.8323 Q505.9553,267.5625 505.3244,267.5625 Q503.9797,267.5625 503.2949,268.6292 Q502.6101,269.6958 502.6101,271.7959 Q502.6101,273.8877 503.2949,274.9544 Q503.9797,276.021 505.3244,276.021 Q505.9553,276.021 506.5488,275.7512 Q507.1423,275.4815 507.7731,274.9004 Z " fill="#000000"/><text fill="#000000" font-family="sans-serif" font-size="14" lengthAdjust="spacing" textLength="159" x="519.2" y="277.271">ShareABoardController</text><line style="stroke:#181818;stroke-width:0.5;" x1="489" x2="682" y1="287.98" y2="287.98"/><line style="stroke:#181818;stroke-width:0.5;" x1="489" x2="682" y1="295.98" y2="295.98"/><ellipse cx="499" cy="309.7241" fill="#84BE84" rx="3" ry="3" style="stroke:#038048;stroke-width:1.0;"/><text fill="#000000" font-family="sans-serif" font-size="14" lengthAdjust="spacing" textLength="98" x="508" y="313.5152">getMyBoards()</text><ellipse cx="499" cy="326.2124" fill="#84BE84" rx="3" ry="3" style="stroke:#038048;stroke-width:1.0;"/><text fill="#000000" font-family="sans-serif" font-size="14" lengthAdjust="spacing" textLength="88" x="508" y="330.0034">getAllUsers()</text><ellipse cx="499" cy="342.7007" fill="#84BE84" rx="3" ry="3" style="stroke:#038048;stroke-width:1.0;"/><text fill="#000000" font-family="sans-serif" font-size="14" lengthAdjust="spacing" textLength="111" x="508" y="346.4917">getAccessType()</text><ellipse cx="499" cy="359.189" fill="#84BE84" rx="3" ry="3" style="stroke:#038048;stroke-width:1.0;"/><text fill="#000000" font-family="sans-serif" font-size="14" lengthAdjust="spacing" textLength="169" x="508" y="362.98">createShareBoardUsers()</text></g><!--class ListBoardsService--><g id="elem_ListBoardsService"><rect codeLine="16" fill="#F1F1F1" height="80.9766" id="ListBoardsService" rx="2.5" ry="2.5" style="stroke:#181818;stroke-width:0.5;" width="150" x="236.5" y="438.18"/><ellipse cx="251.5" cy="454.18" fill="#ADD1B2" rx="11" ry="11" style="stroke:#181818;stroke-width:1.0;"/><path d="M254.4731,459.8231 Q253.8921,460.1219 253.2529,460.2713 Q252.6138,460.4207 251.9082,460.4207 Q249.4014,460.4207 248.0815,458.7689 Q246.7617,457.117 246.7617,453.9959 Q246.7617,450.8665 248.0815,449.2147 Q249.4014,447.5628 251.9082,447.5628 Q252.6138,447.5628 253.2612,447.7122 Q253.9087,447.8616 254.4731,448.1605 L254.4731,450.8831 Q253.8423,450.3021 253.2488,450.0323 Q252.6553,449.7625 252.0244,449.7625 Q250.6797,449.7625 249.9949,450.8292 Q249.3101,451.8958 249.3101,453.9959 Q249.3101,456.0877 249.9949,457.1544 Q250.6797,458.221 252.0244,458.221 Q252.6553,458.221 253.2488,457.9512 Q253.8423,457.6815 254.4731,457.1004 Z " fill="#000000"/><text fill="#000000" font-family="sans-serif" font-size="14" lengthAdjust="spacing" textLength="118" x="265.5" y="459.471">ListBoardsService</text><line style="stroke:#181818;stroke-width:0.5;" x1="237.5" x2="385.5" y1="470.18" y2="470.18"/><line style="stroke:#181818;stroke-width:0.5;" x1="237.5" x2="385.5" y1="478.18" y2="478.18"/><ellipse cx="247.5" cy="491.9241" fill="#84BE84" rx="3" ry="3" style="stroke:#038048;stroke-width:1.0;"/><text fill="#000000" font-family="sans-serif" font-size="14" lengthAdjust="spacing" textLength="50" x="256.5" y="495.7152">getAll()</text><ellipse cx="247.5" cy="508.4124" fill="#84BE84" rx="3" ry="3" style="stroke:#038048;stroke-width:1.0;"/><text fill="#000000" font-family="sans-serif" font-size="14" lengthAdjust="spacing" textLength="98" x="256.5" y="512.2034">getMyBoards()</text></g><!--class ShareBoard--><g id="elem_ShareBoard"><rect codeLine="21" fill="#F1F1F1" height="97.4648" id="ShareBoard" rx="2.5" ry="2.5" style="stroke:#181818;stroke-width:0.5;" width="195" x="7" y="429.93"/><ellipse cx="60.75" cy="445.93" fill="#ADD1B2" rx="11" ry="11" style="stroke:#181818;stroke-width:1.0;"/><path d="M63.7231,451.5731 Q63.1421,451.8719 62.5029,452.0213 Q61.8638,452.1707 61.1582,452.1707 Q58.6514,452.1707 57.3315,450.5189 Q56.0117,448.867 56.0117,445.7459 Q56.0117,442.6165 57.3315,440.9647 Q58.6514,439.3128 61.1582,439.3128 Q61.8638,439.3128 62.5112,439.4622 Q63.1587,439.6116 63.7231,439.9105 L63.7231,442.6331 Q63.0923,442.0521 62.4988,441.7823 Q61.9053,441.5125 61.2744,441.5125 Q59.9297,441.5125 59.2449,442.5792 Q58.5601,443.6458 58.5601,445.7459 Q58.5601,447.8377 59.2449,448.9044 Q59.9297,449.971 61.2744,449.971 Q61.9053,449.971 62.4988,449.7012 Q63.0923,449.4315 63.7231,448.8504 Z " fill="#000000"/><text fill="#000000" font-family="sans-serif" font-size="14" lengthAdjust="spacing" textLength="79" x="81.25" y="451.221">ShareBoard</text><line style="stroke:#181818;stroke-width:0.5;" x1="8" x2="201" y1="461.93" y2="461.93"/><line style="stroke:#181818;stroke-width:0.5;" x1="8" x2="201" y1="469.93" y2="469.93"/><ellipse cx="18" cy="483.6741" fill="#84BE84" rx="3" ry="3" style="stroke:#038048;stroke-width:1.0;"/><text fill="#000000" font-family="sans-serif" font-size="14" lengthAdjust="spacing" textLength="169" x="27" y="487.4652">createShareBoardUsers()</text><ellipse cx="18" cy="500.1624" fill="#84BE84" rx="3" ry="3" style="stroke:#038048;stroke-width:1.0;"/><text fill="#000000" font-family="sans-serif" font-size="14" lengthAdjust="spacing" textLength="131" x="27" y="503.9534">createNotification()</text><ellipse cx="18" cy="516.6507" fill="#84BE84" rx="3" ry="3" style="stroke:#038048;stroke-width:1.0;"/><text fill="#000000" font-family="sans-serif" font-size="14" lengthAdjust="spacing" textLength="169" x="27" y="520.4417">createShareBoardUsers()</text></g><!--class Notification--><g id="elem_Notification"><rect codeLine="28" fill="#F1F1F1" height="64.4883" id="Notification" rx="2.5" ry="2.5" style="stroke:#181818;stroke-width:0.5;" width="157" x="26" y="852.86"/><ellipse cx="61.7" cy="868.86" fill="#ADD1B2" rx="11" ry="11" style="stroke:#181818;stroke-width:1.0;"/><path d="M64.6731,874.5031 Q64.0921,874.8019 63.4529,874.9513 Q62.8138,875.1007 62.1082,875.1007 Q59.6014,875.1007 58.2815,873.4489 Q56.9617,871.797 56.9617,868.6759 Q56.9617,865.5465 58.2815,863.8947 Q59.6014,862.2428 62.1082,862.2428 Q62.8138,862.2428 63.4612,862.3922 Q64.1087,862.5416 64.6731,862.8405 L64.6731,865.5631 Q64.0423,864.9821 63.4488,864.7123 Q62.8553,864.4425 62.2244,864.4425 Q60.8797,864.4425 60.1949,865.5092 Q59.5101,866.5758 59.5101,868.6759 Q59.5101,870.7677 60.1949,871.8344 Q60.8797,872.901 62.2244,872.901 Q62.8553,872.901 63.4488,872.6312 Q64.0423,872.3615 64.6731,871.7804 Z " fill="#000000"/><text fill="#000000" font-family="sans-serif" font-size="14" lengthAdjust="spacing" textLength="79" x="80.3" y="874.151">Notification</text><line style="stroke:#181818;stroke-width:0.5;" x1="27" x2="182" y1="884.86" y2="884.86"/><line style="stroke:#181818;stroke-width:0.5;" x1="27" x2="182" y1="892.86" y2="892.86"/><ellipse cx="37" cy="906.6041" fill="#84BE84" rx="3" ry="3" style="stroke:#038048;stroke-width:1.0;"/><text fill="#000000" font-family="sans-serif" font-size="14" lengthAdjust="spacing" textLength="131" x="46" y="910.3952">createNotification()</text></g><!--class NotificationRepository--><g id="elem_NotificationRepository"><rect codeLine="32" fill="#F1F1F1" height="80.9766" id="NotificationRepository" rx="2.5" ry="2.5" style="stroke:#181818;stroke-width:0.5;" width="184" x="421.5" y="438.18"/><ellipse cx="436.5" cy="454.18" fill="#ADD1B2" rx="11" ry="11" style="stroke:#181818;stroke-width:1.0;"/><path d="M439.4731,459.8231 Q438.8921,460.1219 438.2529,460.2713 Q437.6138,460.4207 436.9082,460.4207 Q434.4014,460.4207 433.0815,458.7689 Q431.7617,457.117 431.7617,453.9959 Q431.7617,450.8665 433.0815,449.2147 Q434.4014,447.5628 436.9082,447.5628 Q437.6138,447.5628 438.2612,447.7122 Q438.9087,447.8616 439.4731,448.1605 L439.4731,450.8831 Q438.8423,450.3021 438.2488,450.0323 Q437.6553,449.7625 437.0244,449.7625 Q435.6797,449.7625 434.9949,450.8292 Q434.3101,451.8958 434.3101,453.9959 Q434.3101,456.0877 434.9949,457.1544 Q435.6797,458.221 437.0244,458.221 Q437.6553,458.221 438.2488,457.9512 Q438.8423,457.6815 439.4731,457.1004 Z " fill="#000000"/><text fill="#000000" font-family="sans-serif" font-size="14" lengthAdjust="spacing" textLength="152" x="450.5" y="459.471">NotificationRepository</text><line style="stroke:#181818;stroke-width:0.5;" x1="422.5" x2="604.5" y1="470.18" y2="470.18"/><line style="stroke:#181818;stroke-width:0.5;" x1="422.5" x2="604.5" y1="478.18" y2="478.18"/><ellipse cx="432.5" cy="491.9241" fill="#84BE84" rx="3" ry="3" style="stroke:#038048;stroke-width:1.0;"/><text fill="#000000" font-family="sans-serif" font-size="14" lengthAdjust="spacing" textLength="137" x="441.5" y="495.7152">getMyNotifications()</text><ellipse cx="432.5" cy="508.4124" fill="#84BE84" rx="3" ry="3" style="stroke:#038048;stroke-width:1.0;"/><text fill="#000000" font-family="sans-serif" font-size="14" lengthAdjust="spacing" textLength="40" x="441.5" y="512.2034">save()</text></g><!--class ShareBoardRepository--><g id="elem_ShareBoardRepository"><rect codeLine="37" fill="#F1F1F1" height="64.4883" id="ShareBoardRepository" rx="2.5" ry="2.5" style="stroke:#181818;stroke-width:0.5;" width="184" x="401.5" y="587.4"/><ellipse cx="416.5" cy="603.4" fill="#ADD1B2" rx="11" ry="11" style="stroke:#181818;stroke-width:1.0;"/><path d="M419.4731,609.0431 Q418.8921,609.3419 418.2529,609.4913 Q417.6138,609.6407 416.9082,609.6407 Q414.4014,609.6407 413.0815,607.9889 Q411.7617,606.337 411.7617,603.2159 Q411.7617,600.0865 413.0815,598.4347 Q414.4014,596.7828 416.9082,596.7828 Q417.6138,596.7828 418.2612,596.9322 Q418.9087,597.0816 419.4731,597.3805 L419.4731,600.1031 Q418.8423,599.5221 418.2488,599.2523 Q417.6553,598.9825 417.0244,598.9825 Q415.6797,598.9825 414.9949,600.0492 Q414.3101,601.1158 414.3101,603.2159 Q414.3101,605.3077 414.9949,606.3744 Q415.6797,607.441 417.0244,607.441 Q417.6553,607.441 418.2488,607.1712 Q418.8423,606.9015 419.4731,606.3204 Z " fill="#000000"/><text fill="#000000" font-family="sans-serif" font-size="14" lengthAdjust="spacing" textLength="152" x="430.5" y="608.691">ShareBoardRepository</text><line style="stroke:#181818;stroke-width:0.5;" x1="402.5" x2="584.5" y1="619.4" y2="619.4"/><line style="stroke:#181818;stroke-width:0.5;" x1="402.5" x2="584.5" y1="627.4" y2="627.4"/><ellipse cx="412.5" cy="641.1441" fill="#84BE84" rx="3" ry="3" style="stroke:#038048;stroke-width:1.0;"/><text fill="#000000" font-family="sans-serif" font-size="14" lengthAdjust="spacing" textLength="40" x="421.5" y="644.9352">save()</text></g><!--class AccessType--><g id="elem_AccessType"><rect codeLine="41" fill="#F1F1F1" height="80.9766" id="AccessType" rx="2.5" ry="2.5" style="stroke:#181818;stroke-width:0.5;" width="111" x="712" y="438.18"/><ellipse cx="727" cy="454.18" fill="#EB937F" rx="11" ry="11" style="stroke:#181818;stroke-width:1.0;"/><path d="M731.1143,460.18 L723.3945,460.18 L723.3945,447.7869 L731.1143,447.7869 L731.1143,449.9451 L725.8433,449.9451 L725.8433,452.618 L730.6162,452.618 L730.6162,454.7762 L725.8433,454.7762 L725.8433,458.0218 L731.1143,458.0218 Z " fill="#000000"/><text fill="#000000" font-family="sans-serif" font-size="14" lengthAdjust="spacing" textLength="79" x="741" y="459.471">AccessType</text><line style="stroke:#181818;stroke-width:0.5;" x1="713" x2="822" y1="470.18" y2="470.18"/><text fill="#000000" font-family="sans-serif" font-size="14" lengthAdjust="spacing" textLength="37" x="718" y="487.7152">READ</text><text fill="#000000" font-family="sans-serif" font-size="14" lengthAdjust="spacing" textLength="42" x="718" y="504.2034">WRITE</text><line style="stroke:#181818;stroke-width:0.5;" x1="713" x2="822" y1="511.1566" y2="511.1566"/></g><!--class BoardSharedEvent--><g id="elem_BoardSharedEvent"><rect codeLine="46" fill="#F1F1F1" height="80.9766" id="BoardSharedEvent" rx="2.5" ry="2.5" style="stroke:#181818;stroke-width:0.5;" width="157" x="26" y="711.89"/><ellipse cx="41" cy="727.89" fill="#ADD1B2" rx="11" ry="11" style="stroke:#181818;stroke-width:1.0;"/><path d="M43.9731,733.5331 Q43.3921,733.8319 42.7529,733.9813 Q42.1138,734.1307 41.4082,734.1307 Q38.9014,734.1307 37.5815,732.4789 Q36.2617,730.827 36.2617,727.7059 Q36.2617,724.5765 37.5815,722.9247 Q38.9014,721.2728 41.4082,721.2728 Q42.1138,721.2728 42.7612,721.4222 Q43.4087,721.5716 43.9731,721.8705 L43.9731,724.5931 Q43.3423,724.0121 42.7488,723.7423 Q42.1553,723.4725 41.5244,723.4725 Q40.1797,723.4725 39.4949,724.5392 Q38.8101,725.6058 38.8101,727.7059 Q38.8101,729.7977 39.4949,730.8644 Q40.1797,731.931 41.5244,731.931 Q42.1553,731.931 42.7488,731.6612 Q43.3423,731.3915 43.9731,730.8104 Z " fill="#000000"/><text fill="#000000" font-family="sans-serif" font-size="14" lengthAdjust="spacing" textLength="125" x="55" y="733.181">BoardSharedEvent</text><line style="stroke:#181818;stroke-width:0.5;" x1="27" x2="182" y1="743.89" y2="743.89"/><rect fill="none" height="6" style="stroke:#C82930;stroke-width:1.0;" width="6" x="34" y="754.6341"/><text fill="#000000" font-family="sans-serif" font-size="14" lengthAdjust="spacing" textLength="72" x="46" y="761.4252">timestamp</text><line style="stroke:#181818;stroke-width:0.5;" x1="27" x2="182" y1="768.3783" y2="768.3783"/><ellipse cx="37" cy="782.1224" fill="#84BE84" rx="3" ry="3" style="stroke:#038048;stroke-width:1.0;"/><text fill="#000000" font-family="sans-serif" font-size="14" lengthAdjust="spacing" textLength="131" x="46" y="785.9134">createNotification()</text></g><!--class ShareBoardUser--><g id="elem_ShareBoardUser"><rect codeLine="52" fill="#F1F1F1" height="64.4883" id="ShareBoardUser" rx="2.5" ry="2.5" style="stroke:#181818;stroke-width:0.5;" width="195" x="7" y="587.4"/><ellipse cx="45.85" cy="603.4" fill="#ADD1B2" rx="11" ry="11" style="stroke:#181818;stroke-width:1.0;"/><path d="M48.8231,609.0431 Q48.2421,609.3419 47.6029,609.4913 Q46.9638,609.6407 46.2582,609.6407 Q43.7514,609.6407 42.4315,607.9889 Q41.1117,606.337 41.1117,603.2159 Q41.1117,600.0865 42.4315,598.4347 Q43.7514,596.7828 46.2582,596.7828 Q46.9638,596.7828 47.6112,596.9322 Q48.2587,597.0816 48.8231,597.3805 L48.8231,600.1031 Q48.1923,599.5221 47.5988,599.2523 Q47.0053,598.9825 46.3744,598.9825 Q45.0297,598.9825 44.3449,600.0492 Q43.6601,601.1158 43.6601,603.2159 Q43.6601,605.3077 44.3449,606.3744 Q45.0297,607.441 46.3744,607.441 Q47.0053,607.441 47.5988,607.1712 Q48.1923,606.9015 48.8231,606.3204 Z " fill="#000000"/><text fill="#000000" font-family="sans-serif" font-size="14" lengthAdjust="spacing" textLength="110" x="65.15" y="608.691">ShareBoardUser</text><line style="stroke:#181818;stroke-width:0.5;" x1="8" x2="201" y1="619.4" y2="619.4"/><line style="stroke:#181818;stroke-width:0.5;" x1="8" x2="201" y1="627.4" y2="627.4"/><ellipse cx="18" cy="641.1441" fill="#84BE84" rx="3" ry="3" style="stroke:#038048;stroke-width:1.0;"/><text fill="#000000" font-family="sans-serif" font-size="14" lengthAdjust="spacing" textLength="169" x="27" y="644.9352">createShareBoardUsers()</text></g><!--class UsersRepository--><g id="elem_UsersRepository"><rect codeLine="56" fill="#F1F1F1" height="64.4883" id="UsersRepository" rx="2.5" ry="2.5" style="stroke:#181818;stroke-width:0.5;" width="143" x="858" y="446.42"/><ellipse cx="873" cy="462.42" fill="#ADD1B2" rx="11" ry="11" style="stroke:#181818;stroke-width:1.0;"/><path d="M875.9731,468.0631 Q875.3921,468.3619 874.7529,468.5113 Q874.1138,468.6607 873.4082,468.6607 Q870.9014,468.6607 869.5815,467.0089 Q868.2617,465.357 868.2617,462.2359 Q868.2617,459.1065 869.5815,457.4547 Q870.9014,455.8028 873.4082,455.8028 Q874.1138,455.8028 874.7612,455.9522 Q875.4087,456.1016 875.9731,456.4005 L875.9731,459.1231 Q875.3423,458.5421 874.7488,458.2723 Q874.1553,458.0025 873.5244,458.0025 Q872.1797,458.0025 871.4949,459.0692 Q870.8101,460.1358 870.8101,462.2359 Q870.8101,464.3277 871.4949,465.3944 Q872.1797,466.461 873.5244,466.461 Q874.1553,466.461 874.7488,466.1912 Q875.3423,465.9215 875.9731,465.3404 Z " fill="#000000"/><text fill="#000000" font-family="sans-serif" font-size="14" lengthAdjust="spacing" textLength="111" x="887" y="467.711">UsersRepository</text><line style="stroke:#181818;stroke-width:0.5;" x1="859" x2="1000" y1="478.42" y2="478.42"/><line style="stroke:#181818;stroke-width:0.5;" x1="859" x2="1000" y1="486.42" y2="486.42"/><ellipse cx="869" cy="500.1641" fill="#84BE84" rx="3" ry="3" style="stroke:#038048;stroke-width:1.0;"/><text fill="#000000" font-family="sans-serif" font-size="14" lengthAdjust="spacing" textLength="88" x="878" y="503.9552">getAllUsers()</text></g><!--link User to ShareABoardUI--><g id="link_User_ShareABoardUI"><path codeLine="60" d="M585.5,55.33 C585.5,70.55 585.5,90.93 585.5,109.25 " fill="none" id="User-to-ShareABoardUI" style="stroke:#181818;stroke-width:1.0;"/><polygon fill="#181818" points="585.5,113.86,589.5,104.86,585.5,108.86,581.5,104.86,585.5,113.86" style="stroke:#181818;stroke-width:1.0;"/></g><!--link ShareABoardUI to ShareABoardController--><g id="link_ShareABoardUI_ShareABoardController"><path codeLine="61" d="M585.5,196.12 C585.5,212.51 585.5,231.9 585.5,250.08 " fill="none" id="ShareABoardUI-to-ShareABoardController" style="stroke:#181818;stroke-width:1.0;"/><polygon fill="#181818" points="585.5,254.68,589.5,245.68,585.5,249.68,581.5,245.68,585.5,254.68" style="stroke:#181818;stroke-width:1.0;"/></g><!--link ShareABoardController to ListBoardsService--><g id="link_ShareABoardController_ListBoardsService"><path codeLine="62" d="M491.2,370.29 C455.79,391.45 416.15,415.14 383.13,434.87 " fill="none" id="ShareABoardController-to-ListBoardsService" style="stroke:#181818;stroke-width:1.0;"/><polygon fill="#181818" points="379.31,437.75,389.0872,436.5639,383.6012,435.1838,384.9813,429.6979,379.31,437.75" style="stroke:#181818;stroke-width:1.0;"/></g><!--link ShareABoardController to UsersRepository--><g id="link_ShareABoardController_UsersRepository"><path codeLine="63" d="M683.38,356.67 C731.12,377.96 789.17,404.53 840.5,429.93 C849.12,434.2 858.13,438.83 866.97,443.47 " fill="none" id="ShareABoardController-to-UsersRepository" style="stroke:#181818;stroke-width:1.0;"/><polygon fill="#181818" points="870.86,446.04,864.7556,438.311,866.4345,443.713,861.0325,445.3919,870.86,446.04" style="stroke:#181818;stroke-width:1.0;"/></g><!--link ShareABoardController to AccessType--><g id="link_ShareABoardController_AccessType"><path codeLine="64" d="M648.13,370.29 C671.27,391.11 697.12,414.36 718.84,433.89 " fill="none" id="ShareABoardController-to-AccessType" style="stroke:#181818;stroke-width:1.0;"/><polygon fill="#181818" points="722.12,436.75,718.1062,427.7561,718.4035,433.4052,712.7545,433.7025,722.12,436.75" style="stroke:#181818;stroke-width:1.0;"/></g><!--link ShareABoardController to ShareBoard--><g id="link_ShareABoardController_ShareBoard"><path codeLine="65" d="M487.63,342.45 C413.47,364.65 309.35,397.12 219.5,429.93 C215.66,431.33 211.76,432.79 207.83,434.28 " fill="none" id="ShareABoardController-to-ShareBoard" style="stroke:#181818;stroke-width:1.0;"/><polygon fill="#181818" points="203.46,436.34,213.295,436.8627,208.1304,434.5547,210.4385,429.3901,203.46,436.34" style="stroke:#181818;stroke-width:1.0;"/></g><!--link ShareABoardController to NotificationRepository--><g id="link_ShareABoardController_NotificationRepository"><path codeLine="66" d="M560.72,370.29 C551.8,390.58 541.85,413.2 533.4,432.42 " fill="none" id="ShareABoardController-to-NotificationRepository" style="stroke:#181818;stroke-width:1.0;"/><polygon fill="#181818" points="531.06,436.75,538.3494,430.1269,533.0761,432.1745,531.0285,426.9012,531.06,436.75" style="stroke:#181818;stroke-width:1.0;"/></g><!--link ShareABoardController to ShareBoardRepository--><g id="link_ShareABoardController_ShareBoardRepository"><path codeLine="67" d="M614.18,370.39 C632.7,415.22 649.02,478.31 623.5,527.4 C611.26,550.94 589.86,569.67 567.91,583.89 " fill="none" id="ShareABoardController-to-ShareBoardRepository" style="stroke:#181818;stroke-width:1.0;"/><polygon fill="#181818" points="563.92,587.04,573.6652,585.6148,568.1471,584.3695,569.3924,578.8514,563.92,587.04" style="stroke:#181818;stroke-width:1.0;"/></g><!--link ListBoardsService to ShareBoardRepository--><g id="link_ListBoardsService_ShareBoardRepository"><path codeLine="68" d="M363.65,519.49 C390.06,539.65 421.83,563.91 447.34,583.39 " fill="none" id="ListBoardsService-to-ShareBoardRepository" style="stroke:#181818;stroke-width:1.0;"/><polygon fill="#181818" points="451.02,586.97,446.2741,578.34,447.0389,583.9449,441.434,584.7098,451.02,586.97" style="stroke:#181818;stroke-width:1.0;"/></g><!--link ShareBoard to ShareBoardUser--><g id="link_ShareBoard_ShareBoardUser"><path codeLine="69" d="M104.5,527.88 C104.5,545.34 104.5,564.78 104.5,581.17 " fill="none" id="ShareBoard-to-ShareBoardUser" style="stroke:#181818;stroke-width:1.0;"/><polygon fill="#181818" points="104.5,586.06,108.5,577.06,104.5,581.06,100.5,577.06,104.5,586.06" style="stroke:#181818;stroke-width:1.0;"/></g><!--link ShareBoardUser to BoardSharedEvent--><g id="link_ShareBoardUser_BoardSharedEvent"><path codeLine="70" d="M104.5,652.29 C104.5,668.31 104.5,688.06 104.5,705.69 " fill="none" id="ShareBoardUser-to-BoardSharedEvent" style="stroke:#181818;stroke-width:1.0;"/><polygon fill="#181818" points="104.5,710.58,108.5,701.58,104.5,705.58,100.5,701.58,104.5,710.58" style="stroke:#181818;stroke-width:1.0;"/></g><!--link BoardSharedEvent to Notification--><g id="link_BoardSharedEvent_Notification"><path codeLine="71" d="M104.5,793.31 C104.5,810.44 104.5,830.34 104.5,847.14 " fill="none" id="BoardSharedEvent-to-Notification" style="stroke:#181818;stroke-width:1.0;"/><polygon fill="#181818" points="104.5,851.7,108.5,842.7,104.5,846.7,100.5,842.7,104.5,851.7" style="stroke:#181818;stroke-width:1.0;"/></g><!--SRC=[ZLHDRuCm3BtdLt3SDF4N9h6DGwMj1sYrSnIyDH8bACwOqDJ_lX0A-I3PoibvVdv-jYnOIn6p8u8aX9cuFb49nPEWiZdkiX-IwU-X4VL9VD_Tpo_KST6sKnLgx18fVHQTag9jGIuIdw3UHfF3HKT3ZimACGQ8Xx671MGIg0AZFliA6xzoLBDq3NBW39ockeCZxbZmRHjuAKirT99xeVW7PrHnqTtWyzhAhVAR1NgNM4K5lK2kX1pTdRgCrIJI0U8pRaGi5RglSsRNVpLObSMB2TwhtQ6qaaRDw3Rb09sQsRdYPq15p_tVqsryJSlwR_zhRmF4rk6VvHJc-QDtqiHx-LbxjIIAQlRcr9BCm6EIPnUUfDXD92dnExb1qI5lPaiHBUWnp6_4V-fyU2Sa10Btlm00]--></g></svg>