<?xml version="1.0" encoding="us-ascii" standalone="no"?><svg xmlns="http://www.w3.org/2000/svg" xmlns:xlink="http://www.w3.org/1999/xlink" contentStyleType="text/css" height="1166px" preserveAspectRatio="none" style="width:2201px;height:1166px;background:#FFFFFF;" version="1.1" viewBox="0 0 2201 1166" width="2201px" zoomAndPan="magnify"><defs/><g><rect fill="#FFFFFF" height="205.1738" style="stroke:#181818;stroke-width:1.0;" width="10" x="181.5" y="112.7988"/><rect fill="#FFFFFF" height="729.4531" style="stroke:#181818;stroke-width:1.0;" width="10" x="181.5" y="347.2832"/><rect fill="#FFFFFF" height="58.6211" style="stroke:#181818;stroke-width:1.0;" width="10" x="186.5" y="560.457"/><rect fill="#FFFFFF" height="29.3105" style="stroke:#181818;stroke-width:1.0;" width="10" x="186.5" y="648.3887"/><rect fill="#FFFFFF" height="369.7266" style="stroke:#181818;stroke-width:1.0;" width="10" x="186.5" y="707.0098"/><rect fill="#FFFFFF" height="146.5527" style="stroke:#181818;stroke-width:1.0;" width="10" x="556.5" y="142.1094"/><rect fill="#FFFFFF" height="146.5527" style="stroke:#181818;stroke-width:1.0;" width="10" x="556.5" y="376.5938"/><rect fill="#FFFFFF" height="333.416" style="stroke:#181818;stroke-width:1.0;" width="10" x="556.5" y="743.3203"/><rect fill="#FFFFFF" height="87.9316" style="stroke:#181818;stroke-width:1.0;" width="10" x="719" y="171.4199"/><rect fill="#FFFFFF" height="236.4844" style="stroke:#181818;stroke-width:1.0;" width="10" x="897.5" y="772.6309"/><rect fill="#FFFFFF" height="146.5527" style="stroke:#181818;stroke-width:1.0;" width="10" x="1090.5" y="826.252"/><rect fill="#FFFFFF" height="29.3105" style="stroke:#181818;stroke-width:1.0;" width="10" x="1210" y="464.5254"/><rect fill="#FFFFFF" height="87.9316" style="stroke:#181818;stroke-width:1.0;" width="10" x="1332.5" y="855.5625"/><rect fill="#FFFFFF" height="29.3105" style="stroke:#181818;stroke-width:1.0;" width="10" x="1486.5" y="884.873"/><rect fill="#FFFFFF" height="29.3105" style="stroke:#181818;stroke-width:1.0;" width="10" x="1601.5" y="405.9043"/><rect fill="#FFFFFF" height="29.3105" style="stroke:#181818;stroke-width:1.0;" width="10" x="1749" y="200.7305"/><rect fill="#FFFFFF" height="9" style="stroke:#181818;stroke-width:1.0;" width="10" x="1917" y="1067.7363"/><rect fill="#FFFFFF" height="38.3105" style="stroke:#181818;stroke-width:1.0;" width="10" x="2100.5" y="1038.4258"/><rect fill="none" height="134.5527" style="stroke:#000000;stroke-width:1.5;" width="245" x="10" y="580.457"/><rect fill="none" height="193.1738" style="stroke:#000000;stroke-width:1.5;" width="702" x="846" y="787.6309"/><line style="stroke:#181818;stroke-width:0.5;stroke-dasharray:5.0,5.0;" x1="38" x2="38" y1="81.4883" y2="1085.7363"/><line style="stroke:#181818;stroke-width:0.5;stroke-dasharray:5.0,5.0;" x1="186" x2="186" y1="81.4883" y2="1085.7363"/><line style="stroke:#181818;stroke-width:0.5;stroke-dasharray:5.0,5.0;" x1="561" x2="561" y1="81.4883" y2="1085.7363"/><line style="stroke:#181818;stroke-width:0.5;stroke-dasharray:5.0,5.0;" x1="724" x2="724" y1="81.4883" y2="1085.7363"/><line style="stroke:#181818;stroke-width:0.5;stroke-dasharray:5.0,5.0;" x1="902" x2="902" y1="81.4883" y2="1085.7363"/><line style="stroke:#181818;stroke-width:0.5;stroke-dasharray:5.0,5.0;" x1="1095" x2="1095" y1="81.4883" y2="1085.7363"/><line style="stroke:#181818;stroke-width:0.5;stroke-dasharray:5.0,5.0;" x1="1215" x2="1215" y1="81.4883" y2="1085.7363"/><line style="stroke:#181818;stroke-width:0.5;stroke-dasharray:5.0,5.0;" x1="1337" x2="1337" y1="81.4883" y2="1085.7363"/><line style="stroke:#181818;stroke-width:0.5;stroke-dasharray:5.0,5.0;" x1="1491" x2="1491" y1="81.4883" y2="1085.7363"/><line style="stroke:#181818;stroke-width:0.5;stroke-dasharray:5.0,5.0;" x1="1606" x2="1606" y1="81.4883" y2="1085.7363"/><line style="stroke:#181818;stroke-width:0.5;stroke-dasharray:5.0,5.0;" x1="1754" x2="1754" y1="81.4883" y2="1085.7363"/><line style="stroke:#181818;stroke-width:0.5;stroke-dasharray:5.0,5.0;" x1="1922" x2="1922" y1="81.4883" y2="1085.7363"/><line style="stroke:#181818;stroke-width:0.5;stroke-dasharray:5.0,5.0;" x1="2105" x2="2105" y1="81.4883" y2="1085.7363"/><text fill="#000000" font-family="sans-serif" font-size="14" lengthAdjust="spacing" textLength="31" x="20" y="78.5352">User</text><ellipse cx="38.5" cy="13.5" fill="#E2E2F0" rx="8" ry="8" style="stroke:#181818;stroke-width:0.5;"/><path d="M38.5,21.5 L38.5,48.5 M25.5,29.5 L51.5,29.5 M38.5,48.5 L25.5,63.5 M38.5,48.5 L51.5,63.5 " fill="none" style="stroke:#181818;stroke-width:0.5;"/><text fill="#000000" font-family="sans-serif" font-size="14" lengthAdjust="spacing" textLength="31" x="20" y="1098.2715">User</text><ellipse cx="38.5" cy="1109.7246" fill="#E2E2F0" rx="8" ry="8" style="stroke:#181818;stroke-width:0.5;"/><path d="M38.5,1117.7246 L38.5,1144.7246 M25.5,1125.7246 L51.5,1125.7246 M38.5,1144.7246 L25.5,1159.7246 M38.5,1144.7246 L51.5,1159.7246 " fill="none" style="stroke:#181818;stroke-width:0.5;"/><rect fill="#E2E2F0" height="30.4883" rx="2.5" ry="2.5" style="stroke:#181818;stroke-width:0.5;" width="117" x="128" y="50"/><text fill="#000000" font-family="sans-serif" font-size="14" lengthAdjust="spacing" textLength="103" x="135" y="70.5352">ShareABoardUI</text><rect fill="#E2E2F0" height="30.4883" rx="2.5" ry="2.5" style="stroke:#181818;stroke-width:0.5;" width="117" x="128" y="1084.7363"/><text fill="#000000" font-family="sans-serif" font-size="14" lengthAdjust="spacing" textLength="103" x="135" y="1105.2715">ShareABoardUI</text><rect fill="#E2E2F0" height="30.4883" rx="2.5" ry="2.5" style="stroke:#181818;stroke-width:0.5;" width="173" x="475" y="50"/><text fill="#000000" font-family="sans-serif" font-size="14" lengthAdjust="spacing" textLength="159" x="482" y="70.5352">ShareABoardController</text><rect fill="#E2E2F0" height="30.4883" rx="2.5" ry="2.5" style="stroke:#181818;stroke-width:0.5;" width="173" x="475" y="1084.7363"/><text fill="#000000" font-family="sans-serif" font-size="14" lengthAdjust="spacing" textLength="159" x="482" y="1105.2715">ShareABoardController</text><rect fill="#E2E2F0" height="30.4883" rx="2.5" ry="2.5" style="stroke:#181818;stroke-width:0.5;" width="132" x="658" y="50"/><text fill="#000000" font-family="sans-serif" font-size="14" lengthAdjust="spacing" textLength="118" x="665" y="70.5352">ListBoardsService</text><rect fill="#E2E2F0" height="30.4883" rx="2.5" ry="2.5" style="stroke:#181818;stroke-width:0.5;" width="132" x="658" y="1084.7363"/><text fill="#000000" font-family="sans-serif" font-size="14" lengthAdjust="spacing" textLength="118" x="665" y="1105.2715">ListBoardsService</text><rect fill="#E2E2F0" height="30.4883" rx="2.5" ry="2.5" style="stroke:#181818;stroke-width:0.5;" width="93" x="856" y="50"/><text fill="#000000" font-family="sans-serif" font-size="14" lengthAdjust="spacing" textLength="79" x="863" y="70.5352">ShareBoard</text><rect fill="#E2E2F0" height="30.4883" rx="2.5" ry="2.5" style="stroke:#181818;stroke-width:0.5;" width="93" x="856" y="1084.7363"/><text fill="#000000" font-family="sans-serif" font-size="14" lengthAdjust="spacing" textLength="79" x="863" y="1105.2715">ShareBoard</text><rect fill="#E2E2F0" height="30.4883" rx="2.5" ry="2.5" style="stroke:#181818;stroke-width:0.5;" width="133" x="1029" y="50"/><text fill="#000000" font-family="sans-serif" font-size="14" lengthAdjust="spacing" textLength="119" x="1036" y="70.5352">SharedBoardUser</text><rect fill="#E2E2F0" height="30.4883" rx="2.5" ry="2.5" style="stroke:#181818;stroke-width:0.5;" width="133" x="1029" y="1084.7363"/><text fill="#000000" font-family="sans-serif" font-size="14" lengthAdjust="spacing" textLength="119" x="1036" y="1105.2715">SharedBoardUser</text><rect fill="#E2E2F0" height="30.4883" rx="2.5" ry="2.5" style="stroke:#181818;stroke-width:0.5;" width="86" x="1172" y="50"/><text fill="#000000" font-family="sans-serif" font-size="14" lengthAdjust="spacing" textLength="72" x="1179" y="70.5352">AcessType</text><rect fill="#E2E2F0" height="30.4883" rx="2.5" ry="2.5" style="stroke:#181818;stroke-width:0.5;" width="86" x="1172" y="1084.7363"/><text fill="#000000" font-family="sans-serif" font-size="14" lengthAdjust="spacing" textLength="72" x="1179" y="1105.2715">AcessType</text><rect fill="#E2E2F0" height="30.4883" rx="2.5" ry="2.5" style="stroke:#181818;stroke-width:0.5;" width="139" x="1268" y="50"/><text fill="#000000" font-family="sans-serif" font-size="14" lengthAdjust="spacing" textLength="125" x="1275" y="70.5352">BoardSharedEvent</text><rect fill="#E2E2F0" height="30.4883" rx="2.5" ry="2.5" style="stroke:#181818;stroke-width:0.5;" width="139" x="1268" y="1084.7363"/><text fill="#000000" font-family="sans-serif" font-size="14" lengthAdjust="spacing" textLength="125" x="1275" y="1105.2715">BoardSharedEvent</text><rect fill="#E2E2F0" height="30.4883" rx="2.5" ry="2.5" style="stroke:#181818;stroke-width:0.5;" width="93" x="1445" y="50"/><text fill="#000000" font-family="sans-serif" font-size="14" lengthAdjust="spacing" textLength="79" x="1452" y="70.5352">Notification</text><rect fill="#E2E2F0" height="30.4883" rx="2.5" ry="2.5" style="stroke:#181818;stroke-width:0.5;" width="93" x="1445" y="1084.7363"/><text fill="#000000" font-family="sans-serif" font-size="14" lengthAdjust="spacing" textLength="79" x="1452" y="1105.2715">Notification</text><text fill="#000000" font-family="sans-serif" font-size="14" lengthAdjust="spacing" textLength="111" x="1548" y="78.5352">UsersRepository</text><path d="M1588.5,29 C1588.5,19 1606.5,19 1606.5,19 C1606.5,19 1624.5,19 1624.5,29 L1624.5,55 C1624.5,65 1606.5,65 1606.5,65 C1606.5,65 1588.5,65 1588.5,55 L1588.5,29 " fill="#E2E2F0" style="stroke:#181818;stroke-width:1.5;"/><path d="M1588.5,29 C1588.5,39 1606.5,39 1606.5,39 C1606.5,39 1624.5,39 1624.5,29 " fill="none" style="stroke:#181818;stroke-width:1.5;"/><text fill="#000000" font-family="sans-serif" font-size="14" lengthAdjust="spacing" textLength="111" x="1548" y="1098.2715">UsersRepository</text><path d="M1588.5,1111.2246 C1588.5,1101.2246 1606.5,1101.2246 1606.5,1101.2246 C1606.5,1101.2246 1624.5,1101.2246 1624.5,1111.2246 L1624.5,1137.2246 C1624.5,1147.2246 1606.5,1147.2246 1606.5,1147.2246 C1606.5,1147.2246 1588.5,1147.2246 1588.5,1137.2246 L1588.5,1111.2246 " fill="#E2E2F0" style="stroke:#181818;stroke-width:1.5;"/><path d="M1588.5,1111.2246 C1588.5,1121.2246 1606.5,1121.2246 1606.5,1121.2246 C1606.5,1121.2246 1624.5,1121.2246 1624.5,1111.2246 " fill="none" style="stroke:#181818;stroke-width:1.5;"/><text fill="#000000" font-family="sans-serif" font-size="14" lengthAdjust="spacing" textLength="152" x="1675" y="78.5352">ShareBoardRepository</text><path d="M1736,29 C1736,19 1754,19 1754,19 C1754,19 1772,19 1772,29 L1772,55 C1772,65 1754,65 1754,65 C1754,65 1736,65 1736,55 L1736,29 " fill="#E2E2F0" style="stroke:#181818;stroke-width:1.5;"/><path d="M1736,29 C1736,39 1754,39 1754,39 C1754,39 1772,39 1772,29 " fill="none" style="stroke:#181818;stroke-width:1.5;"/><text fill="#000000" font-family="sans-serif" font-size="14" lengthAdjust="spacing" textLength="152" x="1675" y="1098.2715">ShareBoardRepository</text><path d="M1736,1111.2246 C1736,1101.2246 1754,1101.2246 1754,1101.2246 C1754,1101.2246 1772,1101.2246 1772,1111.2246 L1772,1137.2246 C1772,1147.2246 1754,1147.2246 1754,1147.2246 C1754,1147.2246 1736,1147.2246 1736,1137.2246 L1736,1111.2246 " fill="#E2E2F0" style="stroke:#181818;stroke-width:1.5;"/><path d="M1736,1111.2246 C1736,1121.2246 1754,1121.2246 1754,1121.2246 C1754,1121.2246 1772,1121.2246 1772,1111.2246 " fill="none" style="stroke:#181818;stroke-width:1.5;"/><text fill="#000000" font-family="sans-serif" font-size="14" lengthAdjust="spacing" textLength="152" x="1843" y="78.5352">NotificationRepository</text><path d="M1904,29 C1904,19 1922,19 1922,19 C1922,19 1940,19 1940,29 L1940,55 C1940,65 1922,65 1922,65 C1922,65 1904,65 1904,55 L1904,29 " fill="#E2E2F0" style="stroke:#181818;stroke-width:1.5;"/><path d="M1904,29 C1904,39 1922,39 1922,39 C1922,39 1940,39 1940,29 " fill="none" style="stroke:#181818;stroke-width:1.5;"/><text fill="#000000" font-family="sans-serif" font-size="14" lengthAdjust="spacing" textLength="152" x="1843" y="1098.2715">NotificationRepository</text><path d="M1904,1111.2246 C1904,1101.2246 1922,1101.2246 1922,1101.2246 C1922,1101.2246 1940,1101.2246 1940,1111.2246 L1940,1137.2246 C1940,1147.2246 1922,1147.2246 1922,1147.2246 C1922,1147.2246 1904,1147.2246 1904,1137.2246 L1904,1111.2246 " fill="#E2E2F0" style="stroke:#181818;stroke-width:1.5;"/><path d="M1904,1111.2246 C1904,1121.2246 1922,1121.2246 1922,1121.2246 C1922,1121.2246 1940,1121.2246 1940,1111.2246 " fill="none" style="stroke:#181818;stroke-width:1.5;"/><text fill="#000000" font-family="sans-serif" font-size="14" lengthAdjust="spacing" textLength="183" x="2011" y="78.5352">ShareBoardUserRepository</text><path d="M2087.5,29 C2087.5,19 2105.5,19 2105.5,19 C2105.5,19 2123.5,19 2123.5,29 L2123.5,55 C2123.5,65 2105.5,65 2105.5,65 C2105.5,65 2087.5,65 2087.5,55 L2087.5,29 " fill="#E2E2F0" style="stroke:#181818;stroke-width:1.5;"/><path d="M2087.5,29 C2087.5,39 2105.5,39 2105.5,39 C2105.5,39 2123.5,39 2123.5,29 " fill="none" style="stroke:#181818;stroke-width:1.5;"/><text fill="#000000" font-family="sans-serif" font-size="14" lengthAdjust="spacing" textLength="183" x="2011" y="1098.2715">ShareBoardUserRepository</text><path d="M2087.5,1111.2246 C2087.5,1101.2246 2105.5,1101.2246 2105.5,1101.2246 C2105.5,1101.2246 2123.5,1101.2246 2123.5,1111.2246 L2123.5,1137.2246 C2123.5,1147.2246 2105.5,1147.2246 2105.5,1147.2246 C2105.5,1147.2246 2087.5,1147.2246 2087.5,1137.2246 L2087.5,1111.2246 " fill="#E2E2F0" style="stroke:#181818;stroke-width:1.5;"/><path d="M2087.5,1111.2246 C2087.5,1121.2246 2105.5,1121.2246 2105.5,1121.2246 C2105.5,1121.2246 2123.5,1121.2246 2123.5,1111.2246 " fill="none" style="stroke:#181818;stroke-width:1.5;"/><rect fill="#FFFFFF" height="205.1738" style="stroke:#181818;stroke-width:1.0;" width="10" x="181.5" y="112.7988"/><rect fill="#FFFFFF" height="729.4531" style="stroke:#181818;stroke-width:1.0;" width="10" x="181.5" y="347.2832"/><rect fill="#FFFFFF" height="58.6211" style="stroke:#181818;stroke-width:1.0;" width="10" x="186.5" y="560.457"/><rect fill="#FFFFFF" height="29.3105" style="stroke:#181818;stroke-width:1.0;" width="10" x="186.5" y="648.3887"/><rect fill="#FFFFFF" height="369.7266" style="stroke:#181818;stroke-width:1.0;" width="10" x="186.5" y="707.0098"/><rect fill="#FFFFFF" height="146.5527" style="stroke:#181818;stroke-width:1.0;" width="10" x="556.5" y="142.1094"/><rect fill="#FFFFFF" height="146.5527" style="stroke:#181818;stroke-width:1.0;" width="10" x="556.5" y="376.5938"/><rect fill="#FFFFFF" height="333.416" style="stroke:#181818;stroke-width:1.0;" width="10" x="556.5" y="743.3203"/><rect fill="#FFFFFF" height="87.9316" style="stroke:#181818;stroke-width:1.0;" width="10" x="719" y="171.4199"/><rect fill="#FFFFFF" height="236.4844" style="stroke:#181818;stroke-width:1.0;" width="10" x="897.5" y="772.6309"/><rect fill="#FFFFFF" height="146.5527" style="stroke:#181818;stroke-width:1.0;" width="10" x="1090.5" y="826.252"/><rect fill="#FFFFFF" height="29.3105" style="stroke:#181818;stroke-width:1.0;" width="10" x="1210" y="464.5254"/><rect fill="#FFFFFF" height="87.9316" style="stroke:#181818;stroke-width:1.0;" width="10" x="1332.5" y="855.5625"/><rect fill="#FFFFFF" height="29.3105" style="stroke:#181818;stroke-width:1.0;" width="10" x="1486.5" y="884.873"/><rect fill="#FFFFFF" height="29.3105" style="stroke:#181818;stroke-width:1.0;" width="10" x="1601.5" y="405.9043"/><rect fill="#FFFFFF" height="29.3105" style="stroke:#181818;stroke-width:1.0;" width="10" x="1749" y="200.7305"/><rect fill="#FFFFFF" height="9" style="stroke:#181818;stroke-width:1.0;" width="10" x="1917" y="1067.7363"/><rect fill="#FFFFFF" height="38.3105" style="stroke:#181818;stroke-width:1.0;" width="10" x="2100.5" y="1038.4258"/><polygon fill="#181818" points="169.5,108.7988,179.5,112.7988,169.5,116.7988,173.5,112.7988" style="stroke:#181818;stroke-width:1.0;"/><line style="stroke:#181818;stroke-width:1.0;" x1="38.5" x2="175.5" y1="112.7988" y2="112.7988"/><text fill="#000000" font-family="sans-serif" font-size="13" lengthAdjust="spacing" textLength="85" x="45.5" y="108.0566">Share a board</text><polygon fill="#181818" points="544.5,138.1094,554.5,142.1094,544.5,146.1094,548.5,142.1094" style="stroke:#181818;stroke-width:1.0;"/><line style="stroke:#181818;stroke-width:1.0;" x1="191.5" x2="550.5" y1="142.1094" y2="142.1094"/><text fill="#000000" font-family="sans-serif" font-size="13" lengthAdjust="spacing" textLength="88" x="198.5" y="137.3672">getMyBoards()</text><polygon fill="#181818" points="707,167.4199,717,171.4199,707,175.4199,711,171.4199" style="stroke:#181818;stroke-width:1.0;"/><line style="stroke:#181818;stroke-width:1.0;" x1="566.5" x2="713" y1="171.4199" y2="171.4199"/><text fill="#000000" font-family="sans-serif" font-size="13" lengthAdjust="spacing" textLength="112" x="573.5" y="166.6777">listBoardsByUser()</text><polygon fill="#181818" points="1737,196.7305,1747,200.7305,1737,204.7305,1741,200.7305" style="stroke:#181818;stroke-width:1.0;"/><line style="stroke:#181818;stroke-width:1.0;" x1="729" x2="1743" y1="200.7305" y2="200.7305"/><text fill="#000000" font-family="sans-serif" font-size="13" lengthAdjust="spacing" textLength="109" x="736" y="195.9883">findByUsername()</text><polygon fill="#181818" points="740,226.041,730,230.041,740,234.041,736,230.041" style="stroke:#181818;stroke-width:1.0;"/><line style="stroke:#181818;stroke-width:1.0;stroke-dasharray:2.0,2.0;" x1="734" x2="1753" y1="230.041" y2="230.041"/><text fill="#000000" font-family="sans-serif" font-size="13" lengthAdjust="spacing" textLength="77" x="746" y="225.2988">listOfBoards</text><polygon fill="#181818" points="577.5,255.3516,567.5,259.3516,577.5,263.3516,573.5,259.3516" style="stroke:#181818;stroke-width:1.0;"/><line style="stroke:#181818;stroke-width:1.0;stroke-dasharray:2.0,2.0;" x1="571.5" x2="723" y1="259.3516" y2="259.3516"/><text fill="#000000" font-family="sans-serif" font-size="13" lengthAdjust="spacing" textLength="84" x="583.5" y="254.6094">myBoardsList</text><polygon fill="#181818" points="202.5,284.6621,192.5,288.6621,202.5,292.6621,198.5,288.6621" style="stroke:#181818;stroke-width:1.0;"/><line style="stroke:#181818;stroke-width:1.0;stroke-dasharray:2.0,2.0;" x1="196.5" x2="560.5" y1="288.6621" y2="288.6621"/><text fill="#000000" font-family="sans-serif" font-size="13" lengthAdjust="spacing" textLength="84" x="208.5" y="283.9199">myBoardsList</text><polygon fill="#181818" points="49.5,313.9727,39.5,317.9727,49.5,321.9727,45.5,317.9727" style="stroke:#181818;stroke-width:1.0;"/><line style="stroke:#181818;stroke-width:1.0;stroke-dasharray:2.0,2.0;" x1="43.5" x2="185.5" y1="317.9727" y2="317.9727"/><text fill="#000000" font-family="sans-serif" font-size="13" lengthAdjust="spacing" textLength="76" x="55.5" y="313.2305">Select Board</text><polygon fill="#181818" points="169.5,343.2832,179.5,347.2832,169.5,351.2832,173.5,347.2832" style="stroke:#181818;stroke-width:1.0;"/><line style="stroke:#181818;stroke-width:1.0;" x1="38.5" x2="175.5" y1="347.2832" y2="347.2832"/><text fill="#000000" font-family="sans-serif" font-size="13" lengthAdjust="spacing" textLength="35" x="45.5" y="342.541">Board</text><polygon fill="#181818" points="544.5,372.5938,554.5,376.5938,544.5,380.5938,548.5,376.5938" style="stroke:#181818;stroke-width:1.0;"/><line style="stroke:#181818;stroke-width:1.0;" x1="191.5" x2="550.5" y1="376.5938" y2="376.5938"/><text fill="#000000" font-family="sans-serif" font-size="13" lengthAdjust="spacing" textLength="175" x="198.5" y="371.8516">allUsers(), getAccessTypes()</text><polygon fill="#181818" points="1589.5,401.9043,1599.5,405.9043,1589.5,409.9043,1593.5,405.9043" style="stroke:#181818;stroke-width:1.0;"/><line style="stroke:#181818;stroke-width:1.0;" x1="566.5" x2="1595.5" y1="405.9043" y2="405.9043"/><text fill="#000000" font-family="sans-serif" font-size="13" lengthAdjust="spacing" textLength="50" x="573.5" y="401.1621">findAll()</text><polygon fill="#181818" points="577.5,431.2148,567.5,435.2148,577.5,439.2148,573.5,435.2148" style="stroke:#181818;stroke-width:1.0;"/><line style="stroke:#181818;stroke-width:1.0;stroke-dasharray:2.0,2.0;" x1="571.5" x2="1605.5" y1="435.2148" y2="435.2148"/><text fill="#000000" font-family="sans-serif" font-size="13" lengthAdjust="spacing" textLength="70" x="583.5" y="430.4727">listOfUsers</text><polygon fill="#181818" points="1198,460.5254,1208,464.5254,1198,468.5254,1202,464.5254" style="stroke:#181818;stroke-width:1.0;"/><line style="stroke:#181818;stroke-width:1.0;" x1="566.5" x2="1204" y1="464.5254" y2="464.5254"/><text fill="#000000" font-family="sans-serif" font-size="13" lengthAdjust="spacing" textLength="109" x="573.5" y="459.7832">getAccessTypes()</text><polygon fill="#181818" points="577.5,489.8359,567.5,493.8359,577.5,497.8359,573.5,493.8359" style="stroke:#181818;stroke-width:1.0;"/><line style="stroke:#181818;stroke-width:1.0;stroke-dasharray:2.0,2.0;" x1="571.5" x2="1214" y1="493.8359" y2="493.8359"/><text fill="#000000" font-family="sans-serif" font-size="13" lengthAdjust="spacing" textLength="79" x="583.5" y="489.0938">accessTypes</text><polygon fill="#181818" points="202.5,519.1465,192.5,523.1465,202.5,527.1465,198.5,523.1465" style="stroke:#181818;stroke-width:1.0;"/><line style="stroke:#181818;stroke-width:1.0;stroke-dasharray:2.0,2.0;" x1="196.5" x2="560.5" y1="523.1465" y2="523.1465"/><text fill="#000000" font-family="sans-serif" font-size="13" lengthAdjust="spacing" textLength="153" x="208.5" y="518.4043">listOfUsers,accessTypes</text><line style="stroke:#181818;stroke-width:1.0;" x1="191.5" x2="238.5" y1="547.457" y2="547.457"/><line style="stroke:#181818;stroke-width:1.0;" x1="238.5" x2="238.5" y1="547.457" y2="560.457"/><line style="stroke:#181818;stroke-width:1.0;" x1="197.5" x2="238.5" y1="560.457" y2="560.457"/><polygon fill="#181818" points="207.5,556.457,197.5,560.457,207.5,564.457,203.5,560.457" style="stroke:#181818;stroke-width:1.0;"/><text fill="#000000" font-family="sans-serif" font-size="13" lengthAdjust="spacing" textLength="93" x="203.5" y="542.7148">showAllUsers()</text><path d="M10,580.457 L84,580.457 L84,587.7676 L74,597.7676 L10,597.7676 L10,580.457 " fill="#EEEEEE" style="stroke:#000000;stroke-width:1.5;"/><rect fill="none" height="134.5527" style="stroke:#000000;stroke-width:1.5;" width="245" x="10" y="580.457"/><text fill="#000000" font-family="sans-serif" font-size="13" font-weight="bold" lengthAdjust="spacing" textLength="29" x="25" y="594.0254">loop</text><text fill="#000000" font-family="sans-serif" font-size="11" font-weight="bold" lengthAdjust="spacing" textLength="147" x="99" y="593.0918">[user select option 0(exit)]</text><polygon fill="#181818" points="49.5,615.0781,39.5,619.0781,49.5,623.0781,45.5,619.0781" style="stroke:#181818;stroke-width:1.0;"/><line style="stroke:#181818;stroke-width:1.0;stroke-dasharray:2.0,2.0;" x1="43.5" x2="180.5" y1="619.0781" y2="619.0781"/><text fill="#000000" font-family="sans-serif" font-size="13" lengthAdjust="spacing" textLength="69" x="55.5" y="614.3359">Select User</text><polygon fill="#181818" points="174.5,644.3887,184.5,648.3887,174.5,652.3887,178.5,648.3887" style="stroke:#181818;stroke-width:1.0;"/><line style="stroke:#181818;stroke-width:1.0;" x1="38.5" x2="180.5" y1="648.3887" y2="648.3887"/><text fill="#000000" font-family="sans-serif" font-size="13" lengthAdjust="spacing" textLength="28" x="45.5" y="643.6465">User</text><polygon fill="#181818" points="49.5,673.6992,39.5,677.6992,49.5,681.6992,45.5,677.6992" style="stroke:#181818;stroke-width:1.0;"/><line style="stroke:#181818;stroke-width:1.0;stroke-dasharray:2.0,2.0;" x1="43.5" x2="180.5" y1="677.6992" y2="677.6992"/><text fill="#000000" font-family="sans-serif" font-size="13" lengthAdjust="spacing" textLength="119" x="55.5" y="672.957">Select Access Type</text><polygon fill="#181818" points="174.5,703.0098,184.5,707.0098,174.5,711.0098,178.5,707.0098" style="stroke:#181818;stroke-width:1.0;"/><line style="stroke:#181818;stroke-width:1.0;" x1="38.5" x2="180.5" y1="707.0098" y2="707.0098"/><text fill="#000000" font-family="sans-serif" font-size="13" lengthAdjust="spacing" textLength="78" x="45.5" y="702.2676">Access Type</text><polygon fill="#181818" points="544.5,739.3203,554.5,743.3203,544.5,747.3203,548.5,743.3203" style="stroke:#181818;stroke-width:1.0;"/><line style="stroke:#181818;stroke-width:1.0;" x1="196.5" x2="550.5" y1="743.3203" y2="743.3203"/><text fill="#000000" font-family="sans-serif" font-size="13" lengthAdjust="spacing" textLength="341" x="203.5" y="738.5781">createShareBoardUsers(usersWithPermissions,BoardID)</text><polygon fill="#181818" points="885.5,768.6309,895.5,772.6309,885.5,776.6309,889.5,772.6309" style="stroke:#181818;stroke-width:1.0;"/><line style="stroke:#181818;stroke-width:1.0;" x1="566.5" x2="891.5" y1="772.6309" y2="772.6309"/><text fill="#000000" font-family="sans-serif" font-size="13" lengthAdjust="spacing" textLength="312" x="573.5" y="767.8887">createShareBoardUsers(user, BoardID, permission)</text><path d="M846,787.6309 L920,787.6309 L920,794.9414 L910,804.9414 L846,804.9414 L846,787.6309 " fill="#EEEEEE" style="stroke:#000000;stroke-width:1.5;"/><rect fill="none" height="193.1738" style="stroke:#000000;stroke-width:1.5;" width="702" x="846" y="787.6309"/><text fill="#000000" font-family="sans-serif" font-size="13" font-weight="bold" lengthAdjust="spacing" textLength="29" x="861" y="801.1992">loop</text><text fill="#000000" font-family="sans-serif" font-size="11" font-weight="bold" lengthAdjust="spacing" textLength="151" x="935" y="800.2656">[number of selected Users]</text><polygon fill="#181818" points="1078.5,822.252,1088.5,826.252,1078.5,830.252,1082.5,826.252" style="stroke:#181818;stroke-width:1.0;"/><line style="stroke:#181818;stroke-width:1.0;" x1="907.5" x2="1084.5" y1="826.252" y2="826.252"/><text fill="#000000" font-family="sans-serif" font-size="13" lengthAdjust="spacing" textLength="38" x="914.5" y="821.5098">create</text><polygon fill="#181818" points="1320.5,851.5625,1330.5,855.5625,1320.5,859.5625,1324.5,855.5625" style="stroke:#181818;stroke-width:1.0;"/><line style="stroke:#181818;stroke-width:1.0;" x1="1100.5" x2="1326.5" y1="855.5625" y2="855.5625"/><text fill="#000000" font-family="sans-serif" font-size="13" lengthAdjust="spacing" textLength="38" x="1107.5" y="850.8203">create</text><polygon fill="#181818" points="1474.5,880.873,1484.5,884.873,1474.5,888.873,1478.5,884.873" style="stroke:#181818;stroke-width:1.0;"/><line style="stroke:#181818;stroke-width:1.0;" x1="1342.5" x2="1480.5" y1="884.873" y2="884.873"/><text fill="#000000" font-family="sans-serif" font-size="13" lengthAdjust="spacing" textLength="125" x="1349.5" y="880.1309">createNotification();</text><polygon fill="#181818" points="1353.5,910.1836,1343.5,914.1836,1353.5,918.1836,1349.5,914.1836" style="stroke:#181818;stroke-width:1.0;"/><line style="stroke:#181818;stroke-width:1.0;stroke-dasharray:2.0,2.0;" x1="1347.5" x2="1490.5" y1="914.1836" y2="914.1836"/><text fill="#000000" font-family="sans-serif" font-size="13" lengthAdjust="spacing" textLength="73" x="1359.5" y="909.4414">notification</text><polygon fill="#181818" points="1111.5,939.4941,1101.5,943.4941,1111.5,947.4941,1107.5,943.4941" style="stroke:#181818;stroke-width:1.0;"/><line style="stroke:#181818;stroke-width:1.0;stroke-dasharray:2.0,2.0;" x1="1105.5" x2="1336.5" y1="943.4941" y2="943.4941"/><text fill="#000000" font-family="sans-serif" font-size="13" lengthAdjust="spacing" textLength="73" x="1117.5" y="938.752">notification</text><polygon fill="#181818" points="918.5,968.8047,908.5,972.8047,918.5,976.8047,914.5,972.8047" style="stroke:#181818;stroke-width:1.0;"/><line style="stroke:#181818;stroke-width:1.0;stroke-dasharray:2.0,2.0;" x1="912.5" x2="1094.5" y1="972.8047" y2="972.8047"/><text fill="#000000" font-family="sans-serif" font-size="13" lengthAdjust="spacing" textLength="159" x="924.5" y="968.0625">shareABoard, notification</text><polygon fill="#181818" points="577.5,1005.1152,567.5,1009.1152,577.5,1013.1152,573.5,1009.1152" style="stroke:#181818;stroke-width:1.0;"/><line style="stroke:#181818;stroke-width:1.0;stroke-dasharray:2.0,2.0;" x1="571.5" x2="901.5" y1="1009.1152" y2="1009.1152"/><text fill="#000000" font-family="sans-serif" font-size="13" lengthAdjust="spacing" textLength="162" x="583.5" y="1004.373">shareABoard,notifications</text><polygon fill="#181818" points="2088.5,1034.4258,2098.5,1038.4258,2088.5,1042.4258,2092.5,1038.4258" style="stroke:#181818;stroke-width:1.0;"/><line style="stroke:#181818;stroke-width:1.0;" x1="566.5" x2="2094.5" y1="1038.4258" y2="1038.4258"/><text fill="#000000" font-family="sans-serif" font-size="13" lengthAdjust="spacing" textLength="114" x="573.5" y="1033.6836">save(shareABoard)</text><polygon fill="#181818" points="1905,1063.7363,1915,1067.7363,1905,1071.7363,1909,1067.7363" style="stroke:#181818;stroke-width:1.0;"/><line style="stroke:#181818;stroke-width:1.0;" x1="566.5" x2="1911" y1="1067.7363" y2="1067.7363"/><text fill="#000000" font-family="sans-serif" font-size="13" lengthAdjust="spacing" textLength="116" x="573.5" y="1062.9941">save(notifications)</text><!--SRC=[TPH1pvim38Rl-HLMJo21j3EJa4ZN0zB69YZQEQNf6eacYAJT-kzd9vH2ltx7s8_VlBO9ukgCw9ow2IV1QCRmO4PehHn1M6ZP84QdEZK8xM3JdCKe2sx4U6pBZGVAJucjqMuqVIz7JsxNu7TbdSTi8yURwgI7cZTgdWfP_YPz37RiT4t3NpmNdRHsVn_21SL-dVN5GMTtazfvQBTcAkFKINN2AQDzlc97uSH1M0aRkjZMSZ1MuU3kOIZr0dZsy48rV8ajBta1g_ToTFD7oPOnraAQusOopuA00-6iBIcypU2FT3_kOVPHpBPftcJzl0r-9rsCDnZdTGOdfOyXgCL5KeBNATK05VqyXJB4qnorBvCmhHUbqnnjh8DjIT4C6jdBpe7Fe6LFyhLHqVT-l56SaEcYUwpI-_PDJWQBliTGMqCQAeCrNyoemsAVVLGezi6pU4P9DSnkAP4iYSaU8VPi_XQpHyPwOmQuqjEneJapq3hXIoJ_AHVxIYgTcwVAULlJQJsUu1Zewcb6gv3KDBkIskX6YMzu_NdOYDpOtygTVydnegn5EpRn-V9Rs3tFuFFI12OsWM4MU7IghvS3zcfEKxlo267Y3SUEy24-b360tdVpSPVcrUEm_EwZ-2khKa_gHHXvyjc-H4aq-BVFdqwoPlnyq0uDQ4aj8Hl6KAE-5JSPBJW_eQgU4gkYcFq7]--></g></svg>