<?xml version="1.0" encoding="us-ascii" standalone="no"?><svg xmlns="http://www.w3.org/2000/svg" xmlns:xlink="http://www.w3.org/1999/xlink" contentStyleType="text/css" height="658px" preserveAspectRatio="none" style="width:984px;height:658px;background:#FFFFFF;" version="1.1" viewBox="0 0 984 658" width="984px" zoomAndPan="magnify"><defs/><g><!--class User--><g id="elem_User"><rect codeLine="2" fill="#F1F1F1" height="48" id="User" rx="2.5" ry="2.5" style="stroke:#181818;stroke-width:0.5;" width="63" x="390.06" y="7"/><ellipse cx="405.06" cy="23" fill="#ADD1B2" rx="11" ry="11" style="stroke:#181818;stroke-width:1.0;"/><path d="M408.0331,28.6431 Q407.4521,28.9419 406.8129,29.0913 Q406.1738,29.2407 405.4682,29.2407 Q402.9614,29.2407 401.6415,27.5889 Q400.3217,25.937 400.3217,22.8159 Q400.3217,19.6865 401.6415,18.0347 Q402.9614,16.3828 405.4682,16.3828 Q406.1738,16.3828 406.8212,16.5322 Q407.4687,16.6816 408.0331,16.9805 L408.0331,19.7031 Q407.4023,19.1221 406.8088,18.8523 Q406.2153,18.5825 405.5844,18.5825 Q404.2397,18.5825 403.5549,19.6492 Q402.8701,20.7158 402.8701,22.8159 Q402.8701,24.9077 403.5549,25.9744 Q404.2397,27.041 405.5844,27.041 Q406.2153,27.041 406.8088,26.7712 Q407.4023,26.5015 408.0331,25.9204 Z " fill="#000000"/><text fill="#000000" font-family="sans-serif" font-size="14" lengthAdjust="spacing" textLength="31" x="419.06" y="28.291">User</text><line style="stroke:#181818;stroke-width:0.5;" x1="391.06" x2="452.06" y1="39" y2="39"/><line style="stroke:#181818;stroke-width:0.5;" x1="391.06" x2="452.06" y1="47" y2="47"/></g><!--class ArchiveABoardUI--><g id="elem_ArchiveABoardUI"><rect codeLine="4" fill="#F1F1F1" height="80.9766" id="ArchiveABoardUI" rx="2.5" ry="2.5" style="stroke:#181818;stroke-width:0.5;" width="147" x="348.06" y="115"/><ellipse cx="363.06" cy="131" fill="#ADD1B2" rx="11" ry="11" style="stroke:#181818;stroke-width:1.0;"/><path d="M366.0331,136.6431 Q365.4521,136.9419 364.8129,137.0913 Q364.1738,137.2407 363.4682,137.2407 Q360.9614,137.2407 359.6415,135.5889 Q358.3217,133.937 358.3217,130.8159 Q358.3217,127.6865 359.6415,126.0347 Q360.9614,124.3828 363.4682,124.3828 Q364.1738,124.3828 364.8212,124.5322 Q365.4687,124.6816 366.0331,124.9805 L366.0331,127.7031 Q365.4023,127.1221 364.8088,126.8523 Q364.2153,126.5825 363.5844,126.5825 Q362.2397,126.5825 361.5549,127.6492 Q360.8701,128.7158 360.8701,130.8159 Q360.8701,132.9077 361.5549,133.9744 Q362.2397,135.041 363.5844,135.041 Q364.2153,135.041 364.8088,134.7712 Q365.4023,134.5015 366.0331,133.9204 Z " fill="#000000"/><text fill="#000000" font-family="sans-serif" font-size="14" lengthAdjust="spacing" textLength="115" x="377.06" y="136.291">ArchiveABoardUI</text><line style="stroke:#181818;stroke-width:0.5;" x1="349.06" x2="494.06" y1="147" y2="147"/><line style="stroke:#181818;stroke-width:0.5;" x1="349.06" x2="494.06" y1="155" y2="155"/><ellipse cx="359.06" cy="168.7441" fill="#84BE84" rx="3" ry="3" style="stroke:#038048;stroke-width:1.0;"/><text fill="#000000" font-family="sans-serif" font-size="14" lengthAdjust="spacing" textLength="65" x="368.06" y="172.5352">doShow()</text><ellipse cx="359.06" cy="185.2324" fill="#84BE84" rx="3" ry="3" style="stroke:#038048;stroke-width:1.0;"/><text fill="#000000" font-family="sans-serif" font-size="14" lengthAdjust="spacing" textLength="73" x="368.06" y="189.0234">showInfo()</text></g><!--class ArchiveABoardController--><g id="elem_ArchiveABoardController"><rect codeLine="9" fill="#F1F1F1" height="113.9531" id="ArchiveABoardController" rx="2.5" ry="2.5" style="stroke:#181818;stroke-width:0.5;" width="203" x="320.06" y="255.97"/><ellipse cx="335.06" cy="271.97" fill="#ADD1B2" rx="11" ry="11" style="stroke:#181818;stroke-width:1.0;"/><path d="M338.0331,277.6131 Q337.4521,277.9119 336.8129,278.0613 Q336.1738,278.2107 335.4682,278.2107 Q332.9614,278.2107 331.6415,276.5589 Q330.3217,274.907 330.3217,271.7859 Q330.3217,268.6565 331.6415,267.0047 Q332.9614,265.3528 335.4682,265.3528 Q336.1738,265.3528 336.8212,265.5022 Q337.4687,265.6516 338.0331,265.9505 L338.0331,268.6731 Q337.4023,268.0921 336.8088,267.8223 Q336.2153,267.5525 335.5844,267.5525 Q334.2397,267.5525 333.5549,268.6192 Q332.8701,269.6858 332.8701,271.7859 Q332.8701,273.8777 333.5549,274.9444 Q334.2397,276.011 335.5844,276.011 Q336.2153,276.011 336.8088,275.7412 Q337.4023,275.4715 338.0331,274.8904 Z " fill="#000000"/><text fill="#000000" font-family="sans-serif" font-size="14" lengthAdjust="spacing" textLength="171" x="349.06" y="277.261">ArchiveABoardController</text><line style="stroke:#181818;stroke-width:0.5;" x1="321.06" x2="522.06" y1="287.97" y2="287.97"/><line style="stroke:#181818;stroke-width:0.5;" x1="321.06" x2="522.06" y1="295.97" y2="295.97"/><ellipse cx="331.06" cy="309.7141" fill="#84BE84" rx="3" ry="3" style="stroke:#038048;stroke-width:1.0;"/><text fill="#000000" font-family="sans-serif" font-size="14" lengthAdjust="spacing" textLength="123" x="340.06" y="313.5052">listBoardsByUser()</text><ellipse cx="331.06" cy="326.2024" fill="#84BE84" rx="3" ry="3" style="stroke:#038048;stroke-width:1.0;"/><text fill="#000000" font-family="sans-serif" font-size="14" lengthAdjust="spacing" textLength="73" x="340.06" y="329.9934">showInfo()</text><ellipse cx="331.06" cy="342.6907" fill="#84BE84" rx="3" ry="3" style="stroke:#038048;stroke-width:1.0;"/><text fill="#000000" font-family="sans-serif" font-size="14" lengthAdjust="spacing" textLength="111" x="340.06" y="346.4817">changeArchive()</text><ellipse cx="331.06" cy="359.179" fill="#84BE84" rx="3" ry="3" style="stroke:#038048;stroke-width:1.0;"/><text fill="#000000" font-family="sans-serif" font-size="14" lengthAdjust="spacing" textLength="99" x="340.06" y="362.97">archiveBoard()</text></g><!--class ListSharedBoardService--><g id="elem_ListSharedBoardService"><rect codeLine="16" fill="#F1F1F1" height="64.4883" id="ListSharedBoardService" rx="2.5" ry="2.5" style="stroke:#181818;stroke-width:0.5;" width="191" x="215.06" y="438.17"/><ellipse cx="230.06" cy="454.17" fill="#ADD1B2" rx="11" ry="11" style="stroke:#181818;stroke-width:1.0;"/><path d="M233.0331,459.8131 Q232.4521,460.1119 231.8129,460.2613 Q231.1738,460.4107 230.4682,460.4107 Q227.9614,460.4107 226.6415,458.7589 Q225.3217,457.107 225.3217,453.9859 Q225.3217,450.8565 226.6415,449.2047 Q227.9614,447.5528 230.4682,447.5528 Q231.1738,447.5528 231.8212,447.7022 Q232.4687,447.8516 233.0331,448.1505 L233.0331,450.8731 Q232.4023,450.2921 231.8088,450.0223 Q231.2153,449.7525 230.5844,449.7525 Q229.2397,449.7525 228.5549,450.8192 Q227.8701,451.8858 227.8701,453.9859 Q227.8701,456.0777 228.5549,457.1444 Q229.2397,458.211 230.5844,458.211 Q231.2153,458.211 231.8088,457.9412 Q232.4023,457.6715 233.0331,457.0904 Z " fill="#000000"/><text fill="#000000" font-family="sans-serif" font-size="14" lengthAdjust="spacing" textLength="159" x="244.06" y="459.461">ListSharedBoardService</text><line style="stroke:#181818;stroke-width:0.5;" x1="216.06" x2="405.06" y1="470.17" y2="470.17"/><line style="stroke:#181818;stroke-width:0.5;" x1="216.06" x2="405.06" y1="478.17" y2="478.17"/><ellipse cx="226.06" cy="491.9141" fill="#84BE84" rx="3" ry="3" style="stroke:#038048;stroke-width:1.0;"/><text fill="#000000" font-family="sans-serif" font-size="14" lengthAdjust="spacing" textLength="123" x="235.06" y="495.7052">listBoardsByUser()</text></g><!--class ShareBoard--><g id="elem_ShareBoard"><rect codeLine="20" fill="#F1F1F1" height="64.4883" id="ShareBoard" rx="2.5" ry="2.5" style="stroke:#181818;stroke-width:0.5;" width="135" x="45.06" y="438.17"/><ellipse cx="70.86" cy="454.17" fill="#ADD1B2" rx="11" ry="11" style="stroke:#181818;stroke-width:1.0;"/><path d="M73.8331,459.8131 Q73.2521,460.1119 72.6129,460.2613 Q71.9738,460.4107 71.2682,460.4107 Q68.7614,460.4107 67.4415,458.7589 Q66.1217,457.107 66.1217,453.9859 Q66.1217,450.8565 67.4415,449.2047 Q68.7614,447.5528 71.2682,447.5528 Q71.9738,447.5528 72.6212,447.7022 Q73.2687,447.8516 73.8331,448.1505 L73.8331,450.8731 Q73.2023,450.2921 72.6088,450.0223 Q72.0153,449.7525 71.3844,449.7525 Q70.0397,449.7525 69.3549,450.8192 Q68.6701,451.8858 68.6701,453.9859 Q68.6701,456.0777 69.3549,457.1444 Q70.0397,458.211 71.3844,458.211 Q72.0153,458.211 72.6088,457.9412 Q73.2023,457.6715 73.8331,457.0904 Z " fill="#000000"/><text fill="#000000" font-family="sans-serif" font-size="14" lengthAdjust="spacing" textLength="79" x="87.26" y="459.461">ShareBoard</text><line style="stroke:#181818;stroke-width:0.5;" x1="46.06" x2="179.06" y1="470.17" y2="470.17"/><line style="stroke:#181818;stroke-width:0.5;" x1="46.06" x2="179.06" y1="478.17" y2="478.17"/><ellipse cx="56.06" cy="491.9141" fill="#84BE84" rx="3" ry="3" style="stroke:#038048;stroke-width:1.0;"/><text fill="#000000" font-family="sans-serif" font-size="14" lengthAdjust="spacing" textLength="109" x="65.06" y="495.7052">updateArchive()</text></g><!--class Notification--><g id="elem_Notification"><rect codeLine="25" fill="#F1F1F1" height="48" id="Notification" rx="2.5" ry="2.5" style="stroke:#181818;stroke-width:0.5;" width="111" x="711.06" y="587.39"/><ellipse cx="726.06" cy="603.39" fill="#ADD1B2" rx="11" ry="11" style="stroke:#181818;stroke-width:1.0;"/><path d="M729.0331,609.0331 Q728.4521,609.3319 727.8129,609.4813 Q727.1738,609.6307 726.4682,609.6307 Q723.9614,609.6307 722.6415,607.9789 Q721.3217,606.327 721.3217,603.2059 Q721.3217,600.0765 722.6415,598.4247 Q723.9614,596.7728 726.4682,596.7728 Q727.1738,596.7728 727.8212,596.9222 Q728.4687,597.0716 729.0331,597.3705 L729.0331,600.0931 Q728.4023,599.5121 727.8088,599.2423 Q727.2153,598.9725 726.5844,598.9725 Q725.2397,598.9725 724.5549,600.0392 Q723.8701,601.1058 723.8701,603.2059 Q723.8701,605.2977 724.5549,606.3644 Q725.2397,607.431 726.5844,607.431 Q727.2153,607.431 727.8088,607.1612 Q728.4023,606.8915 729.0331,606.3104 Z " fill="#000000"/><text fill="#000000" font-family="sans-serif" font-size="14" lengthAdjust="spacing" textLength="79" x="740.06" y="608.681">Notification</text><line style="stroke:#181818;stroke-width:0.5;" x1="712.06" x2="821.06" y1="619.39" y2="619.39"/><line style="stroke:#181818;stroke-width:0.5;" x1="712.06" x2="821.06" y1="627.39" y2="627.39"/></g><!--class NotificationRepository--><g id="elem_NotificationRepository"><rect codeLine="28" fill="#F1F1F1" height="64.4883" id="NotificationRepository" rx="2.5" ry="2.5" style="stroke:#181818;stroke-width:0.5;" width="184" x="441.56" y="438.17"/><ellipse cx="456.56" cy="454.17" fill="#ADD1B2" rx="11" ry="11" style="stroke:#181818;stroke-width:1.0;"/><path d="M459.5331,459.8131 Q458.9521,460.1119 458.3129,460.2613 Q457.6738,460.4107 456.9682,460.4107 Q454.4614,460.4107 453.1415,458.7589 Q451.8217,457.107 451.8217,453.9859 Q451.8217,450.8565 453.1415,449.2047 Q454.4614,447.5528 456.9682,447.5528 Q457.6738,447.5528 458.3212,447.7022 Q458.9687,447.8516 459.5331,448.1505 L459.5331,450.8731 Q458.9023,450.2921 458.3088,450.0223 Q457.7153,449.7525 457.0844,449.7525 Q455.7397,449.7525 455.0549,450.8192 Q454.3701,451.8858 454.3701,453.9859 Q454.3701,456.0777 455.0549,457.1444 Q455.7397,458.211 457.0844,458.211 Q457.7153,458.211 458.3088,457.9412 Q458.9023,457.6715 459.5331,457.0904 Z " fill="#000000"/><text fill="#000000" font-family="sans-serif" font-size="14" lengthAdjust="spacing" textLength="152" x="470.56" y="459.461">NotificationRepository</text><line style="stroke:#181818;stroke-width:0.5;" x1="442.56" x2="624.56" y1="470.17" y2="470.17"/><line style="stroke:#181818;stroke-width:0.5;" x1="442.56" x2="624.56" y1="478.17" y2="478.17"/><ellipse cx="452.56" cy="491.9141" fill="#84BE84" rx="3" ry="3" style="stroke:#038048;stroke-width:1.0;"/><text fill="#000000" font-family="sans-serif" font-size="14" lengthAdjust="spacing" textLength="40" x="461.56" y="495.7052">save()</text></g><!--class ShareBoardRepository--><g id="elem_ShareBoardRepository"><rect codeLine="32" fill="#F1F1F1" height="80.9766" id="ShareBoardRepository" rx="2.5" ry="2.5" style="stroke:#181818;stroke-width:0.5;" width="184" x="59.56" y="570.9"/><ellipse cx="74.56" cy="586.9" fill="#ADD1B2" rx="11" ry="11" style="stroke:#181818;stroke-width:1.0;"/><path d="M77.5331,592.5431 Q76.9521,592.8419 76.3129,592.9913 Q75.6738,593.1407 74.9682,593.1407 Q72.4614,593.1407 71.1415,591.4889 Q69.8217,589.837 69.8217,586.7159 Q69.8217,583.5865 71.1415,581.9347 Q72.4614,580.2828 74.9682,580.2828 Q75.6738,580.2828 76.3212,580.4322 Q76.9687,580.5816 77.5331,580.8805 L77.5331,583.6031 Q76.9023,583.0221 76.3088,582.7523 Q75.7153,582.4825 75.0844,582.4825 Q73.7397,582.4825 73.0549,583.5492 Q72.3701,584.6158 72.3701,586.7159 Q72.3701,588.8077 73.0549,589.8744 Q73.7397,590.941 75.0844,590.941 Q75.7153,590.941 76.3088,590.6712 Q76.9023,590.4015 77.5331,589.8204 Z " fill="#000000"/><text fill="#000000" font-family="sans-serif" font-size="14" lengthAdjust="spacing" textLength="152" x="88.56" y="592.191">ShareBoardRepository</text><line style="stroke:#181818;stroke-width:0.5;" x1="60.56" x2="242.56" y1="602.9" y2="602.9"/><line style="stroke:#181818;stroke-width:0.5;" x1="60.56" x2="242.56" y1="610.9" y2="610.9"/><ellipse cx="70.56" cy="624.6441" fill="#84BE84" rx="3" ry="3" style="stroke:#038048;stroke-width:1.0;"/><text fill="#000000" font-family="sans-serif" font-size="14" lengthAdjust="spacing" textLength="40" x="79.56" y="628.4352">save()</text><ellipse cx="70.56" cy="641.1324" fill="#84BE84" rx="3" ry="3" style="stroke:#038048;stroke-width:1.0;"/><text fill="#000000" font-family="sans-serif" font-size="14" lengthAdjust="spacing" textLength="121" x="79.56" y="644.9234">findByUsername()</text></g><!--class BoardUpdateEvent--><g id="elem_BoardUpdateEvent"><rect codeLine="38" fill="#F1F1F1" height="80.9766" id="BoardUpdateEvent" rx="2.5" ry="2.5" style="stroke:#181818;stroke-width:0.5;" width="246" x="731.56" y="429.93"/><ellipse cx="787.31" cy="445.93" fill="#ADD1B2" rx="11" ry="11" style="stroke:#181818;stroke-width:1.0;"/><path d="M790.2831,451.5731 Q789.7021,451.8719 789.0629,452.0213 Q788.4238,452.1707 787.7182,452.1707 Q785.2114,452.1707 783.8915,450.5189 Q782.5717,448.867 782.5717,445.7459 Q782.5717,442.6165 783.8915,440.9647 Q785.2114,439.3128 787.7182,439.3128 Q788.4238,439.3128 789.0712,439.4622 Q789.7187,439.6116 790.2831,439.9105 L790.2831,442.6331 Q789.6523,442.0521 789.0588,441.7823 Q788.4653,441.5125 787.8344,441.5125 Q786.4897,441.5125 785.8049,442.5792 Q785.1201,443.6458 785.1201,445.7459 Q785.1201,447.8377 785.8049,448.9044 Q786.4897,449.971 787.8344,449.971 Q788.4653,449.971 789.0588,449.7012 Q789.6523,449.4315 790.2831,448.8504 Z " fill="#000000"/><text fill="#000000" font-family="sans-serif" font-size="14" lengthAdjust="spacing" textLength="126" x="807.81" y="451.221">BoardUpdateEvent</text><line style="stroke:#181818;stroke-width:0.5;" x1="732.56" x2="976.56" y1="461.93" y2="461.93"/><rect fill="none" height="6" style="stroke:#C82930;stroke-width:1.0;" width="6" x="739.56" y="472.6741"/><text fill="#000000" font-family="sans-serif" font-size="14" lengthAdjust="spacing" textLength="72" x="751.56" y="479.4652">timestamp</text><line style="stroke:#181818;stroke-width:0.5;" x1="732.56" x2="976.56" y1="486.4183" y2="486.4183"/><ellipse cx="742.56" cy="500.1624" fill="#84BE84" rx="3" ry="3" style="stroke:#038048;stroke-width:1.0;"/><text fill="#000000" font-family="sans-serif" font-size="14" lengthAdjust="spacing" textLength="220" x="751.56" y="503.9534">createUpdateBoardNotification()</text></g><!--link User to ArchiveABoardUI--><g id="link_User_ArchiveABoardUI"><path codeLine="44" d="M421.56,55.32 C421.56,70.55 421.56,90.92 421.56,109.24 " fill="none" id="User-to-ArchiveABoardUI" style="stroke:#181818;stroke-width:1.0;"/><polygon fill="#181818" points="421.56,113.86,425.56,104.86,421.56,108.86,417.56,104.86,421.56,113.86" style="stroke:#181818;stroke-width:1.0;"/></g><!--link ArchiveABoardUI to ArchiveABoardController--><g id="link_ArchiveABoardUI_ArchiveABoardController"><path codeLine="45" d="M421.56,196.12 C421.56,212.51 421.56,231.89 421.56,250.07 " fill="none" id="ArchiveABoardUI-to-ArchiveABoardController" style="stroke:#181818;stroke-width:1.0;"/><polygon fill="#181818" points="421.56,254.67,425.56,245.67,421.56,249.67,417.56,245.67,421.56,254.67" style="stroke:#181818;stroke-width:1.0;"/></g><!--link ArchiveABoardController to ListSharedBoardService--><g id="link_ArchiveABoardController_ListSharedBoardService"><path codeLine="46" d="M381.48,370.08 C366.48,391.08 349.85,414.38 336.47,433.13 " fill="none" id="ArchiveABoardController-to-ListSharedBoardService" style="stroke:#181818;stroke-width:1.0;"/><polygon fill="#181818" points="333.14,436.79,341.631,431.7998,336.0502,432.7242,335.1258,427.1434,333.14,436.79" style="stroke:#181818;stroke-width:1.0;"/></g><!--link ArchiveABoardController to ShareBoard--><g id="link_ArchiveABoardController_ShareBoard"><path codeLine="47" d="M319.95,365.07 C274.14,388.12 221.28,414.71 180.39,435.29 " fill="none" id="ArchiveABoardController-to-ShareBoard" style="stroke:#181818;stroke-width:1.0;"/><polygon fill="#181818" points="176.46,437.76,186.2969,437.2751,180.9235,435.5068,182.6919,430.1335,176.46,437.76" style="stroke:#181818;stroke-width:1.0;"/></g><!--link ArchiveABoardController to Notification--><g id="link_ArchiveABoardController_Notification"><path codeLine="48" d="M523.46,354.26 C563.68,373.31 608.55,398.79 643.56,429.93 C693.58,474.42 733.11,543.39 752.83,581.9 " fill="none" id="ArchiveABoardController-to-Notification" style="stroke:#181818;stroke-width:1.0;"/><polygon fill="#181818" points="755.36,585.9,754.8374,576.065,753.0897,581.4451,747.7096,579.6974,755.36,585.9" style="stroke:#181818;stroke-width:1.0;"/></g><!--link ArchiveABoardController to BoardUpdateEvent--><g id="link_ArchiveABoardController_BoardUpdateEvent"><path codeLine="49" d="M523.35,350.5 C587.67,373.59 670.97,403.5 737.94,427.55 " fill="none" id="ArchiveABoardController-to-BoardUpdateEvent" style="stroke:#181818;stroke-width:1.0;"/><polygon fill="#181818" points="742.55,429.56,735.4405,422.7442,737.8465,427.8639,732.7268,430.2698,742.55,429.56" style="stroke:#181818;stroke-width:1.0;"/></g><!--link ArchiveABoardController to NotificationRepository--><g id="link_ArchiveABoardController_NotificationRepository"><path codeLine="50" d="M461.99,370.08 C477.12,391.08 493.91,414.38 507.41,433.13 " fill="none" id="ArchiveABoardController-to-NotificationRepository" style="stroke:#181818;stroke-width:1.0;"/><polygon fill="#181818" points="510.77,436.79,508.7458,427.1514,507.8436,432.7359,502.2591,431.8337,510.77,436.79" style="stroke:#181818;stroke-width:1.0;"/></g><!--link ArchiveABoardController to ShareBoardRepository--><g id="link_ArchiveABoardController_ShareBoardRepository"><path codeLine="51" d="M320,329.81 C215.35,348.47 62.69,382.96 27.56,429.93 C6,458.75 11.99,478.45 27.56,510.9 C38.27,533.23 56.7,552.12 76.13,567.25 " fill="none" id="ArchiveABoardController-to-ShareBoardRepository" style="stroke:#181818;stroke-width:1.0;"/><polygon fill="#181818" points="79.55,570.62,74.819,561.9818,75.5742,567.5881,69.9679,568.3432,79.55,570.62" style="stroke:#181818;stroke-width:1.0;"/></g><!--link ListSharedBoardService to ShareBoardRepository--><g id="link_ListSharedBoardService_ShareBoardRepository"><path codeLine="52" d="M274.48,502.95 C252.91,521.8 225.2,546.02 201.55,566.69 " fill="none" id="ListSharedBoardService-to-ShareBoardRepository" style="stroke:#181818;stroke-width:1.0;"/><polygon fill="#181818" points="198.18,570.51,207.5935,567.614,201.95,567.2256,202.3384,561.5821,198.18,570.51" style="stroke:#181818;stroke-width:1.0;"/></g><!--link BoardUpdateEvent to Notification--><g id="link_BoardUpdateEvent_Notification"><path codeLine="53" d="M829.34,511.24 C815.01,533.87 797.41,561.66 784.5,582.06 " fill="none" id="BoardUpdateEvent-to-Notification" style="stroke:#181818;stroke-width:1.0;"/><polygon fill="#181818" points="781.32,586.08,789.5301,580.6399,784.0072,581.8635,782.7836,576.3405,781.32,586.08" style="stroke:#181818;stroke-width:1.0;"/></g><!--SRC=[ZL7BQiCm4BphAtniAVw5Gb9w29GUQl81YxIk1RRMIAfBAFdtAYkvLeLjejC-PcP7kx87vwgpGok4vFXWPQSdF1m9h3gVgXzHXVUagEde- -4nPYx49zDIoA-hn1SotbBVevq5UkqyjzpnSfkt8iMvxC1yOXARYn1JvkSptu9equ55nQq6xQGbxepyOpABcpFwQrJWiy41ch3lv7Mh9NXD9g2lQ_KF7CbfJ_QIv1pCAkN0BIZ7hJOgkZKm_BSHBy8kNoSqFh9hhmTq7eOnxSzY04GOCtANIUycNzVFnQb5aPU8vQPYenuOwnVP8InxsG7bVzY1bHkwKt4vo5q-C_ZwRxVGfRt2nYy0]--></g></svg>