<?xml version="1.0" encoding="us-ascii" standalone="no"?><svg xmlns="http://www.w3.org/2000/svg" xmlns:xlink="http://www.w3.org/1999/xlink" contentStyleType="text/css" height="948px" preserveAspectRatio="none" style="width:1385px;height:948px;background:#FFFFFF;" version="1.1" viewBox="0 0 1385 948" width="1385px" zoomAndPan="magnify"><defs/><g><rect fill="#FFFFFF" height="745.5215" style="stroke:#181818;stroke-width:1.0;" width="10" x="140.5" y="112.7988"/><rect fill="#FFFFFF" height="34.3105" style="stroke:#181818;stroke-width:1.0;" width="10" x="145.5" y="325.9727"/><rect fill="#FFFFFF" height="64.6211" style="stroke:#181818;stroke-width:1.0;" width="10" x="145.5" y="389.5938"/><rect fill="#FFFFFF" height="146.5527" style="stroke:#181818;stroke-width:1.0;" width="10" x="350.5" y="142.1094"/><rect fill="#FFFFFF" height="217.8633" style="stroke:#181818;stroke-width:1.0;" width="10" x="350.5" y="389.5938"/><rect fill="#FFFFFF" height="59.3105" style="stroke:#181818;stroke-width:1.0;" width="10" x="355.5" y="548.1465"/><rect fill="#FFFFFF" height="29.3105" style="stroke:#181818;stroke-width:1.0;" width="10" x="350.5" y="672.0781"/><rect fill="#FFFFFF" height="118.6211" style="stroke:#181818;stroke-width:1.0;" width="10" x="350.5" y="730.6992"/><rect fill="#FFFFFF" height="87.9316" style="stroke:#181818;stroke-width:1.0;" width="10" x="519" y="171.4199"/><rect fill="#FFFFFF" height="94.6211" style="stroke:#181818;stroke-width:1.0;" width="10" x="641.5" y="483.5254"/><rect fill="#FFFFFF" height="88.6211" style="stroke:#181818;stroke-width:1.0;" width="10" x="768" y="672.0781"/><rect fill="#FFFFFF" height="127.6211" style="stroke:#181818;stroke-width:1.0;" width="10" x="997" y="730.6992"/><rect fill="#FFFFFF" height="29.3105" style="stroke:#181818;stroke-width:1.0;" width="10" x="1132.5" y="200.7305"/><rect fill="#FFFFFF" height="68.3105" style="stroke:#181818;stroke-width:1.0;" width="10" x="1132.5" y="790.0098"/><rect fill="#FFFFFF" height="39" style="stroke:#181818;stroke-width:1.0;" width="10" x="1300.5" y="819.3203"/><line style="stroke:#181818;stroke-width:0.5;stroke-dasharray:5.0,5.0;" x1="23" x2="23" y1="81.4883" y2="867.3203"/><line style="stroke:#181818;stroke-width:0.5;stroke-dasharray:5.0,5.0;" x1="145" x2="145" y1="81.4883" y2="867.3203"/><line style="stroke:#181818;stroke-width:0.5;stroke-dasharray:5.0,5.0;" x1="355" x2="355" y1="81.4883" y2="867.3203"/><line style="stroke:#181818;stroke-width:0.5;stroke-dasharray:5.0,5.0;" x1="524" x2="524" y1="81.4883" y2="867.3203"/><line style="stroke:#181818;stroke-width:0.5;stroke-dasharray:5.0,5.0;" x1="646" x2="646" y1="81.4883" y2="867.3203"/><line style="stroke:#181818;stroke-width:0.5;stroke-dasharray:5.0,5.0;" x1="773" x2="773" y1="81.4883" y2="867.3203"/><line style="stroke:#181818;stroke-width:0.5;stroke-dasharray:5.0,5.0;" x1="1001.5" x2="1001.5" y1="81.4883" y2="867.3203"/><line style="stroke:#181818;stroke-width:0.5;stroke-dasharray:5.0,5.0;" x1="1137.5" x2="1137.5" y1="81.4883" y2="867.3203"/><line style="stroke:#181818;stroke-width:0.5;stroke-dasharray:5.0,5.0;" x1="1305.5" x2="1305.5" y1="81.4883" y2="867.3203"/><text fill="#000000" font-family="sans-serif" font-size="14" lengthAdjust="spacing" textLength="31" x="5" y="78.5352">User</text><ellipse cx="23.5" cy="13.5" fill="#E2E2F0" rx="8" ry="8" style="stroke:#181818;stroke-width:0.5;"/><path d="M23.5,21.5 L23.5,48.5 M10.5,29.5 L36.5,29.5 M23.5,48.5 L10.5,63.5 M23.5,48.5 L36.5,63.5 " fill="none" style="stroke:#181818;stroke-width:0.5;"/><text fill="#000000" font-family="sans-serif" font-size="14" lengthAdjust="spacing" textLength="31" x="5" y="879.8555">User</text><ellipse cx="23.5" cy="891.3086" fill="#E2E2F0" rx="8" ry="8" style="stroke:#181818;stroke-width:0.5;"/><path d="M23.5,899.3086 L23.5,926.3086 M10.5,907.3086 L36.5,907.3086 M23.5,926.3086 L10.5,941.3086 M23.5,926.3086 L36.5,941.3086 " fill="none" style="stroke:#181818;stroke-width:0.5;"/><rect fill="#E2E2F0" height="30.4883" rx="2.5" ry="2.5" style="stroke:#181818;stroke-width:0.5;" width="129" x="81" y="50"/><text fill="#000000" font-family="sans-serif" font-size="14" lengthAdjust="spacing" textLength="115" x="88" y="70.5352">ArchiveABoardUI</text><rect fill="#E2E2F0" height="30.4883" rx="2.5" ry="2.5" style="stroke:#181818;stroke-width:0.5;" width="129" x="81" y="866.3203"/><text fill="#000000" font-family="sans-serif" font-size="14" lengthAdjust="spacing" textLength="115" x="88" y="886.8555">ArchiveABoardUI</text><rect fill="#E2E2F0" height="30.4883" rx="2.5" ry="2.5" style="stroke:#181818;stroke-width:0.5;" width="185" x="263" y="50"/><text fill="#000000" font-family="sans-serif" font-size="14" lengthAdjust="spacing" textLength="171" x="270" y="70.5352">ArchiveABoardController</text><rect fill="#E2E2F0" height="30.4883" rx="2.5" ry="2.5" style="stroke:#181818;stroke-width:0.5;" width="185" x="263" y="866.3203"/><text fill="#000000" font-family="sans-serif" font-size="14" lengthAdjust="spacing" textLength="171" x="270" y="886.8555">ArchiveABoardController</text><rect fill="#E2E2F0" height="30.4883" rx="2.5" ry="2.5" style="stroke:#181818;stroke-width:0.5;" width="132" x="458" y="50"/><text fill="#000000" font-family="sans-serif" font-size="14" lengthAdjust="spacing" textLength="118" x="465" y="70.5352">ListBoardsService</text><rect fill="#E2E2F0" height="30.4883" rx="2.5" ry="2.5" style="stroke:#181818;stroke-width:0.5;" width="132" x="458" y="866.3203"/><text fill="#000000" font-family="sans-serif" font-size="14" lengthAdjust="spacing" textLength="118" x="465" y="886.8555">ListBoardsService</text><rect fill="#E2E2F0" height="30.4883" rx="2.5" ry="2.5" style="stroke:#181818;stroke-width:0.5;" width="93" x="600" y="50"/><text fill="#000000" font-family="sans-serif" font-size="14" lengthAdjust="spacing" textLength="79" x="607" y="70.5352">ShareBoard</text><rect fill="#E2E2F0" height="30.4883" rx="2.5" ry="2.5" style="stroke:#181818;stroke-width:0.5;" width="93" x="600" y="866.3203"/><text fill="#000000" font-family="sans-serif" font-size="14" lengthAdjust="spacing" textLength="79" x="607" y="886.8555">ShareBoard</text><rect fill="#E2E2F0" height="30.4883" rx="2.5" ry="2.5" style="stroke:#181818;stroke-width:0.5;" width="140" x="703" y="50"/><text fill="#000000" font-family="sans-serif" font-size="14" lengthAdjust="spacing" textLength="126" x="710" y="70.5352">BoardUpdateEvent</text><rect fill="#E2E2F0" height="30.4883" rx="2.5" ry="2.5" style="stroke:#181818;stroke-width:0.5;" width="140" x="703" y="866.3203"/><text fill="#000000" font-family="sans-serif" font-size="14" lengthAdjust="spacing" textLength="126" x="710" y="886.8555">BoardUpdateEvent</text><rect fill="#E2E2F0" height="30.4883" rx="2.5" ry="2.5" style="stroke:#181818;stroke-width:0.5;" width="93" x="955.5" y="50"/><text fill="#000000" font-family="sans-serif" font-size="14" lengthAdjust="spacing" textLength="79" x="962.5" y="70.5352">Notification</text><rect fill="#E2E2F0" height="30.4883" rx="2.5" ry="2.5" style="stroke:#181818;stroke-width:0.5;" width="93" x="955.5" y="866.3203"/><text fill="#000000" font-family="sans-serif" font-size="14" lengthAdjust="spacing" textLength="79" x="962.5" y="886.8555">Notification</text><text fill="#000000" font-family="sans-serif" font-size="14" lengthAdjust="spacing" textLength="152" x="1058.5" y="78.5352">ShareBoardRepository</text><path d="M1119.5,29 C1119.5,19 1137.5,19 1137.5,19 C1137.5,19 1155.5,19 1155.5,29 L1155.5,55 C1155.5,65 1137.5,65 1137.5,65 C1137.5,65 1119.5,65 1119.5,55 L1119.5,29 " fill="#E2E2F0" style="stroke:#181818;stroke-width:1.5;"/><path d="M1119.5,29 C1119.5,39 1137.5,39 1137.5,39 C1137.5,39 1155.5,39 1155.5,29 " fill="none" style="stroke:#181818;stroke-width:1.5;"/><text fill="#000000" font-family="sans-serif" font-size="14" lengthAdjust="spacing" textLength="152" x="1058.5" y="879.8555">ShareBoardRepository</text><path d="M1119.5,892.8086 C1119.5,882.8086 1137.5,882.8086 1137.5,882.8086 C1137.5,882.8086 1155.5,882.8086 1155.5,892.8086 L1155.5,918.8086 C1155.5,928.8086 1137.5,928.8086 1137.5,928.8086 C1137.5,928.8086 1119.5,928.8086 1119.5,918.8086 L1119.5,892.8086 " fill="#E2E2F0" style="stroke:#181818;stroke-width:1.5;"/><path d="M1119.5,892.8086 C1119.5,902.8086 1137.5,902.8086 1137.5,902.8086 C1137.5,902.8086 1155.5,902.8086 1155.5,892.8086 " fill="none" style="stroke:#181818;stroke-width:1.5;"/><text fill="#000000" font-family="sans-serif" font-size="14" lengthAdjust="spacing" textLength="152" x="1226.5" y="78.5352">NotificationRepository</text><path d="M1287.5,29 C1287.5,19 1305.5,19 1305.5,19 C1305.5,19 1323.5,19 1323.5,29 L1323.5,55 C1323.5,65 1305.5,65 1305.5,65 C1305.5,65 1287.5,65 1287.5,55 L1287.5,29 " fill="#E2E2F0" style="stroke:#181818;stroke-width:1.5;"/><path d="M1287.5,29 C1287.5,39 1305.5,39 1305.5,39 C1305.5,39 1323.5,39 1323.5,29 " fill="none" style="stroke:#181818;stroke-width:1.5;"/><text fill="#000000" font-family="sans-serif" font-size="14" lengthAdjust="spacing" textLength="152" x="1226.5" y="879.8555">NotificationRepository</text><path d="M1287.5,892.8086 C1287.5,882.8086 1305.5,882.8086 1305.5,882.8086 C1305.5,882.8086 1323.5,882.8086 1323.5,892.8086 L1323.5,918.8086 C1323.5,928.8086 1305.5,928.8086 1305.5,928.8086 C1305.5,928.8086 1287.5,928.8086 1287.5,918.8086 L1287.5,892.8086 " fill="#E2E2F0" style="stroke:#181818;stroke-width:1.5;"/><path d="M1287.5,892.8086 C1287.5,902.8086 1305.5,902.8086 1305.5,902.8086 C1305.5,902.8086 1323.5,902.8086 1323.5,892.8086 " fill="none" style="stroke:#181818;stroke-width:1.5;"/><rect fill="#FFFFFF" height="745.5215" style="stroke:#181818;stroke-width:1.0;" width="10" x="140.5" y="112.7988"/><rect fill="#FFFFFF" height="34.3105" style="stroke:#181818;stroke-width:1.0;" width="10" x="145.5" y="325.9727"/><rect fill="#FFFFFF" height="64.6211" style="stroke:#181818;stroke-width:1.0;" width="10" x="145.5" y="389.5938"/><rect fill="#FFFFFF" height="146.5527" style="stroke:#181818;stroke-width:1.0;" width="10" x="350.5" y="142.1094"/><rect fill="#FFFFFF" height="217.8633" style="stroke:#181818;stroke-width:1.0;" width="10" x="350.5" y="389.5938"/><rect fill="#FFFFFF" height="59.3105" style="stroke:#181818;stroke-width:1.0;" width="10" x="355.5" y="548.1465"/><rect fill="#FFFFFF" height="29.3105" style="stroke:#181818;stroke-width:1.0;" width="10" x="350.5" y="672.0781"/><rect fill="#FFFFFF" height="118.6211" style="stroke:#181818;stroke-width:1.0;" width="10" x="350.5" y="730.6992"/><rect fill="#FFFFFF" height="87.9316" style="stroke:#181818;stroke-width:1.0;" width="10" x="519" y="171.4199"/><rect fill="#FFFFFF" height="94.6211" style="stroke:#181818;stroke-width:1.0;" width="10" x="641.5" y="483.5254"/><rect fill="#FFFFFF" height="88.6211" style="stroke:#181818;stroke-width:1.0;" width="10" x="768" y="672.0781"/><rect fill="#FFFFFF" height="127.6211" style="stroke:#181818;stroke-width:1.0;" width="10" x="997" y="730.6992"/><rect fill="#FFFFFF" height="29.3105" style="stroke:#181818;stroke-width:1.0;" width="10" x="1132.5" y="200.7305"/><rect fill="#FFFFFF" height="68.3105" style="stroke:#181818;stroke-width:1.0;" width="10" x="1132.5" y="790.0098"/><rect fill="#FFFFFF" height="39" style="stroke:#181818;stroke-width:1.0;" width="10" x="1300.5" y="819.3203"/><polygon fill="#181818" points="128.5,108.7988,138.5,112.7988,128.5,116.7988,132.5,112.7988" style="stroke:#181818;stroke-width:1.0;"/><line style="stroke:#181818;stroke-width:1.0;" x1="23.5" x2="134.5" y1="112.7988" y2="112.7988"/><text fill="#000000" font-family="sans-serif" font-size="13" lengthAdjust="spacing" textLength="98" x="30.5" y="108.0566">Archive a board</text><polygon fill="#181818" points="338.5,138.1094,348.5,142.1094,338.5,146.1094,342.5,142.1094" style="stroke:#181818;stroke-width:1.0;"/><line style="stroke:#181818;stroke-width:1.0;" x1="150.5" x2="344.5" y1="142.1094" y2="142.1094"/><text fill="#000000" font-family="sans-serif" font-size="13" lengthAdjust="spacing" textLength="112" x="157.5" y="137.3672">listBoardsByUser()</text><polygon fill="#181818" points="507,167.4199,517,171.4199,507,175.4199,511,171.4199" style="stroke:#181818;stroke-width:1.0;"/><line style="stroke:#181818;stroke-width:1.0;" x1="360.5" x2="513" y1="171.4199" y2="171.4199"/><text fill="#000000" font-family="sans-serif" font-size="13" lengthAdjust="spacing" textLength="112" x="367.5" y="166.6777">listBoardsByUser()</text><polygon fill="#181818" points="1120.5,196.7305,1130.5,200.7305,1120.5,204.7305,1124.5,200.7305" style="stroke:#181818;stroke-width:1.0;"/><line style="stroke:#181818;stroke-width:1.0;" x1="529" x2="1126.5" y1="200.7305" y2="200.7305"/><text fill="#000000" font-family="sans-serif" font-size="13" lengthAdjust="spacing" textLength="109" x="536" y="195.9883">findByUsername()</text><polygon fill="#181818" points="540,226.041,530,230.041,540,234.041,536,230.041" style="stroke:#181818;stroke-width:1.0;"/><line style="stroke:#181818;stroke-width:1.0;stroke-dasharray:2.0,2.0;" x1="534" x2="1136.5" y1="230.041" y2="230.041"/><text fill="#000000" font-family="sans-serif" font-size="13" lengthAdjust="spacing" textLength="101" x="546" y="225.2988">boardListByUser</text><polygon fill="#181818" points="371.5,255.3516,361.5,259.3516,371.5,263.3516,367.5,259.3516" style="stroke:#181818;stroke-width:1.0;"/><line style="stroke:#181818;stroke-width:1.0;stroke-dasharray:2.0,2.0;" x1="365.5" x2="523" y1="259.3516" y2="259.3516"/><text fill="#000000" font-family="sans-serif" font-size="13" lengthAdjust="spacing" textLength="101" x="377.5" y="254.6094">boardListByUser</text><polygon fill="#181818" points="161.5,284.6621,151.5,288.6621,161.5,292.6621,157.5,288.6621" style="stroke:#181818;stroke-width:1.0;"/><line style="stroke:#181818;stroke-width:1.0;stroke-dasharray:2.0,2.0;" x1="155.5" x2="354.5" y1="288.6621" y2="288.6621"/><text fill="#000000" font-family="sans-serif" font-size="13" lengthAdjust="spacing" textLength="101" x="167.5" y="283.9199">boardListByUser</text><line style="stroke:#181818;stroke-width:1.0;" x1="150.5" x2="197.5" y1="312.9727" y2="312.9727"/><line style="stroke:#181818;stroke-width:1.0;" x1="197.5" x2="197.5" y1="312.9727" y2="325.9727"/><line style="stroke:#181818;stroke-width:1.0;" x1="156.5" x2="197.5" y1="325.9727" y2="325.9727"/><polygon fill="#181818" points="166.5,321.9727,156.5,325.9727,166.5,329.9727,162.5,325.9727" style="stroke:#181818;stroke-width:1.0;"/><text fill="#000000" font-family="sans-serif" font-size="13" lengthAdjust="spacing" textLength="80" x="162.5" y="308.2305">Show boards</text><polygon fill="#181818" points="34.5,356.2832,24.5,360.2832,34.5,364.2832,30.5,360.2832" style="stroke:#181818;stroke-width:1.0;"/><line style="stroke:#181818;stroke-width:1.0;stroke-dasharray:2.0,2.0;" x1="28.5" x2="139.5" y1="360.2832" y2="360.2832"/><text fill="#000000" font-family="sans-serif" font-size="13" lengthAdjust="spacing" textLength="76" x="40.5" y="355.541">Select Board</text><polygon fill="#181818" points="133.5,385.5938,143.5,389.5938,133.5,393.5938,137.5,389.5938" style="stroke:#181818;stroke-width:1.0;"/><line style="stroke:#181818;stroke-width:1.0;" x1="23.5" x2="139.5" y1="389.5938" y2="389.5938"/><text fill="#000000" font-family="sans-serif" font-size="13" lengthAdjust="spacing" textLength="36" x="30.5" y="384.8516">board</text><path d="M160,402.5938 L160,427.5938 L295,427.5938 L295,412.5938 L285,402.5938 L160,402.5938 " fill="#FEFFDD" style="stroke:#181818;stroke-width:0.5;"/><path d="M285,402.5938 L285,412.5938 L295,412.5938 L285,402.5938 " fill="#FEFFDD" style="stroke:#181818;stroke-width:0.5;"/><text fill="#000000" font-family="sans-serif" font-size="13" lengthAdjust="spacing" textLength="114" x="166" y="420.1621">If not archived yet</text><polygon fill="#181818" points="338.5,450.2148,348.5,454.2148,338.5,458.2148,342.5,454.2148" style="stroke:#181818;stroke-width:1.0;"/><line style="stroke:#181818;stroke-width:1.0;stroke-dasharray:2.0,2.0;" x1="150.5" x2="344.5" y1="454.2148" y2="454.2148"/><text fill="#000000" font-family="sans-serif" font-size="13" lengthAdjust="spacing" textLength="171" x="157.5" y="449.4727">changeArchive(user, board)</text><polygon fill="#181818" points="629.5,479.5254,639.5,483.5254,629.5,487.5254,633.5,483.5254" style="stroke:#181818;stroke-width:1.0;"/><line style="stroke:#181818;stroke-width:1.0;" x1="360.5" x2="635.5" y1="483.5254" y2="483.5254"/><text fill="#000000" font-family="sans-serif" font-size="13" lengthAdjust="spacing" textLength="158" x="367.5" y="478.7832">updateArchive(true, user)</text><path d="M656,496.5254 L656,521.5254 L983,521.5254 L983,506.5254 L973,496.5254 L656,496.5254 " fill="#FEFFDD" style="stroke:#181818;stroke-width:0.5;"/><path d="M973,496.5254 L973,506.5254 L983,506.5254 L973,496.5254 " fill="#FEFFDD" style="stroke:#181818;stroke-width:0.5;"/><text fill="#000000" font-family="sans-serif" font-size="13" lengthAdjust="spacing" textLength="306" x="662" y="514.0938">Only owners of the board may archive the board.</text><polygon fill="#181818" points="376.5,544.1465,366.5,548.1465,376.5,552.1465,372.5,548.1465" style="stroke:#181818;stroke-width:1.0;"/><line style="stroke:#181818;stroke-width:1.0;" x1="370.5" x2="640.5" y1="548.1465" y2="548.1465"/><text fill="#000000" font-family="sans-serif" font-size="13" lengthAdjust="spacing" textLength="63" x="382.5" y="543.4043">isUpdated</text><polygon fill="#181818" points="161.5,603.457,151.5,607.457,161.5,611.457,157.5,607.457" style="stroke:#181818;stroke-width:1.0;"/><line style="stroke:#181818;stroke-width:1.0;stroke-dasharray:2.0,2.0;" x1="155.5" x2="354.5" y1="607.457" y2="607.457"/><text fill="#000000" font-family="sans-serif" font-size="13" lengthAdjust="spacing" textLength="63" x="167.5" y="602.7148">isUpdated</text><path d="M155,620.457 L155,645.457 L323,645.457 L323,630.457 L313,620.457 L155,620.457 " fill="#FEFFDD" style="stroke:#181818;stroke-width:0.5;"/><path d="M313,620.457 L313,630.457 L323,630.457 L313,620.457 " fill="#FEFFDD" style="stroke:#181818;stroke-width:0.5;"/><text fill="#000000" font-family="sans-serif" font-size="13" lengthAdjust="spacing" textLength="147" x="161" y="638.0254">If user is board's owner</text><polygon fill="#181818" points="338.5,668.0781,348.5,672.0781,338.5,676.0781,342.5,672.0781" style="stroke:#181818;stroke-width:1.0;"/><line style="stroke:#181818;stroke-width:1.0;" x1="150.5" x2="344.5" y1="672.0781" y2="672.0781"/><text fill="#000000" font-family="sans-serif" font-size="13" lengthAdjust="spacing" textLength="159" x="157.5" y="667.3359">archiveBoard(user, board)</text><polygon fill="#181818" points="756,697.3887,766,701.3887,756,705.3887,760,701.3887" style="stroke:#181818;stroke-width:1.0;"/><line style="stroke:#181818;stroke-width:1.0;stroke-dasharray:2.0,2.0;" x1="355.5" x2="762" y1="701.3887" y2="701.3887"/><text fill="#000000" font-family="sans-serif" font-size="13" lengthAdjust="spacing" textLength="38" x="362.5" y="696.6465">create</text><polygon fill="#181818" points="985,726.6992,995,730.6992,985,734.6992,989,730.6992" style="stroke:#181818;stroke-width:1.0;"/><line style="stroke:#181818;stroke-width:1.0;" x1="778" x2="991" y1="730.6992" y2="730.6992"/><text fill="#000000" font-family="sans-serif" font-size="13" lengthAdjust="spacing" textLength="200" x="785" y="725.957">createUpdateBoardNotification()</text><polygon fill="#181818" points="1120.5,786.0098,1130.5,790.0098,1120.5,794.0098,1124.5,790.0098" style="stroke:#181818;stroke-width:1.0;"/><line style="stroke:#181818;stroke-width:1.0;" x1="360.5" x2="1126.5" y1="790.0098" y2="790.0098"/><text fill="#000000" font-family="sans-serif" font-size="13" lengthAdjust="spacing" textLength="72" x="367.5" y="785.2676">save(board)</text><polygon fill="#181818" points="1288.5,815.3203,1298.5,819.3203,1288.5,823.3203,1292.5,819.3203" style="stroke:#181818;stroke-width:1.0;"/><line style="stroke:#181818;stroke-width:1.0;" x1="360.5" x2="1294.5" y1="819.3203" y2="819.3203"/><text fill="#000000" font-family="sans-serif" font-size="13" lengthAdjust="spacing" textLength="109" x="367.5" y="814.5781">save(notification)</text><!--SRC=[VLBBReCm4BpxArQzj9LAFu13f69nGAge1E83jh0fbeWTsKuY_hvhcwJGrobXTZoU6I-UlC7UgpDw0gE5u0zZeNDa0HrqueZMgruTKNkuUx7zgCxqKXYqGrVTHKhr3qSQxQsP9hAHAxVKL-LyfBcMx5dr54djbjIEQ2coqhJOZfELuy3-opDf7qdbbbCRh_QgHw-CZlDQC1_VqT5Qlw6ZSOhZpyjDpOgsrlX6h1iXH0VPZhl8b_Y0y1uqHLU5WSodMzPY3kq-F0gPxThVy9RneibXh_IGG8q72eEYoSAP91tRYsC-aUtaJrWop9P-u5qLyNOqbpHp0M8iXvOcwZqKoVlgUDoCj2PIQCC_LdsC7im-f8Pg3mm2flG3pEIJ9jlgHzGVj1JpS687JqapLL3aS8hlTsLuUw8d2Bn7yUsgG7xJqmpceicw0FcHaXeSSBuQ-4AVkRNeGhcq9OCOw1Q5jsafwTVn7qc3DTPB5zoxP2QsAlF5G2nmc_McMiOxIox64d-BCjlLUVgVFCJ3wuNZjr-vAjTF8PTbSSZDVRLQNo6zak4wD-4-0G00]--></g></svg>