<?xml version="1.0" encoding="UTF-8" standalone="no"?><svg xmlns="http://www.w3.org/2000/svg" xmlns:xlink="http://www.w3.org/1999/xlink" contentStyleType="text/css" height="1147px" preserveAspectRatio="none" style="width:1114px;height:1147px;background:#FFFFFF;" version="1.1" viewBox="0 0 1114 1147" width="1114px" zoomAndPan="magnify"><defs/><g><!--class ListExamsUI--><g id="elem_ListExamsUI"><rect codeLine="2" fill="#F1F1F1" height="146.9297" id="ListExamsUI" rx="2.5" ry="2.5" style="stroke:#181818;stroke-width:0.5;" width="137" x="552" y="7"/><ellipse cx="577.35" cy="23" fill="#ADD1B2" rx="11" ry="11" style="stroke:#181818;stroke-width:1.0;"/><path d="M580.3231,28.6431 Q579.7421,28.9419 579.1029,29.0913 Q578.4638,29.2407 577.7582,29.2407 Q575.2514,29.2407 573.9315,27.5889 Q572.6117,25.937 572.6117,22.8159 Q572.6117,19.6865 573.9315,18.0347 Q575.2514,16.3828 577.7582,16.3828 Q578.4638,16.3828 579.1112,16.5322 Q579.7587,16.6816 580.3231,16.9805 L580.3231,19.7031 Q579.6923,19.1221 579.0988,18.8523 Q578.5053,18.5825 577.8744,18.5825 Q576.5297,18.5825 575.8449,19.6492 Q575.1601,20.7158 575.1601,22.8159 Q575.1601,24.9077 575.8449,25.9744 Q576.5297,27.041 577.8744,27.041 Q578.5053,27.041 579.0988,26.7712 Q579.6923,26.5015 580.3231,25.9204 Z " fill="#000000"/><text fill="#000000" font-family="sans-serif" font-size="14" lengthAdjust="spacing" textLength="82" x="593.65" y="28.291">ListExamsUI</text><line style="stroke:#181818;stroke-width:0.5;" x1="553" x2="688" y1="39" y2="39"/><line style="stroke:#181818;stroke-width:0.5;" x1="553" x2="688" y1="47" y2="47"/><ellipse cx="563" cy="60.7441" fill="#84BE84" rx="3" ry="3" style="stroke:#038048;stroke-width:1.0;"/><text fill="#000000" font-family="sans-serif" font-size="14" lengthAdjust="spacing" textLength="69" x="572" y="64.5352">headline()</text><ellipse cx="563" cy="77.2324" fill="#84BE84" rx="3" ry="3" style="stroke:#038048;stroke-width:1.0;"/><text fill="#000000" font-family="sans-serif" font-size="14" lengthAdjust="spacing" textLength="111" x="572" y="81.0234">emptyMessage()</text><ellipse cx="563" cy="93.7207" fill="#84BE84" rx="3" ry="3" style="stroke:#038048;stroke-width:1.0;"/><text fill="#000000" font-family="sans-serif" font-size="14" lengthAdjust="spacing" textLength="72" x="572" y="97.5117">elements()</text><ellipse cx="563" cy="110.209" fill="#84BE84" rx="3" ry="3" style="stroke:#038048;stroke-width:1.0;"/><text fill="#000000" font-family="sans-serif" font-size="14" lengthAdjust="spacing" textLength="111" x="572" y="114">elementPrinter()</text><ellipse cx="563" cy="126.6973" fill="#84BE84" rx="3" ry="3" style="stroke:#038048;stroke-width:1.0;"/><text fill="#000000" font-family="sans-serif" font-size="14" lengthAdjust="spacing" textLength="104" x="572" y="130.4883">elementName()</text><ellipse cx="563" cy="143.1855" fill="#84BE84" rx="3" ry="3" style="stroke:#038048;stroke-width:1.0;"/><text fill="#000000" font-family="sans-serif" font-size="14" lengthAdjust="spacing" textLength="79" x="572" y="146.9766">listHeader()</text></g><!--class ListStudentExamsController--><g id="elem_ListStudentExamsController"><rect codeLine="11" fill="#F1F1F1" height="80.9766" id="ListStudentExamsController" rx="2.5" ry="2.5" style="stroke:#181818;stroke-width:0.5;" width="223" x="509" y="213.93"/><ellipse cx="524" cy="229.93" fill="#ADD1B2" rx="11" ry="11" style="stroke:#181818;stroke-width:1.0;"/><path d="M526.9731,235.5731 Q526.3921,235.8719 525.7529,236.0213 Q525.1138,236.1707 524.4082,236.1707 Q521.9014,236.1707 520.5815,234.5189 Q519.2617,232.867 519.2617,229.7459 Q519.2617,226.6165 520.5815,224.9647 Q521.9014,223.3128 524.4082,223.3128 Q525.1138,223.3128 525.7612,223.4622 Q526.4087,223.6116 526.9731,223.9105 L526.9731,226.6331 Q526.3423,226.0521 525.7488,225.7823 Q525.1553,225.5125 524.5244,225.5125 Q523.1797,225.5125 522.4949,226.5792 Q521.8101,227.6458 521.8101,229.7459 Q521.8101,231.8377 522.4949,232.9044 Q523.1797,233.971 524.5244,233.971 Q525.1553,233.971 525.7488,233.7012 Q526.3423,233.4315 526.9731,232.8504 Z " fill="#000000"/><text fill="#000000" font-family="sans-serif" font-size="14" lengthAdjust="spacing" textLength="191" x="538" y="235.221">ListStudentExamsController</text><line style="stroke:#181818;stroke-width:0.5;" x1="510" x2="731" y1="245.93" y2="245.93"/><line style="stroke:#181818;stroke-width:0.5;" x1="510" x2="731" y1="253.93" y2="253.93"/><ellipse cx="520" cy="267.6741" fill="#84BE84" rx="3" ry="3" style="stroke:#038048;stroke-width:1.0;"/><text fill="#000000" font-family="sans-serif" font-size="14" lengthAdjust="spacing" textLength="168" x="529" y="271.4652">examOfLoggedStudent()</text><ellipse cx="520" cy="284.1624" fill="#84BE84" rx="3" ry="3" style="stroke:#038048;stroke-width:1.0;"/><text fill="#000000" font-family="sans-serif" font-size="14" lengthAdjust="spacing" textLength="111" x="529" y="287.9534">loggedStudent()</text></g><!--class ListExamsService--><g id="elem_ListExamsService"><rect codeLine="16" fill="#F1F1F1" height="97.4648" id="ListExamsService" rx="2.5" ry="2.5" style="stroke:#181818;stroke-width:0.5;" width="303" x="7" y="545.35"/><ellipse cx="96.25" cy="561.35" fill="#ADD1B2" rx="11" ry="11" style="stroke:#181818;stroke-width:1.0;"/><path d="M99.2231,566.9931 Q98.6421,567.2919 98.0029,567.4413 Q97.3638,567.5907 96.6582,567.5907 Q94.1514,567.5907 92.8315,565.9389 Q91.5117,564.287 91.5117,561.1659 Q91.5117,558.0365 92.8315,556.3847 Q94.1514,554.7328 96.6582,554.7328 Q97.3638,554.7328 98.0112,554.8822 Q98.6587,555.0316 99.2231,555.3305 L99.2231,558.0531 Q98.5923,557.4721 97.9988,557.2023 Q97.4053,556.9325 96.7744,556.9325 Q95.4297,556.9325 94.7449,557.9992 Q94.0601,559.0658 94.0601,561.1659 Q94.0601,563.2577 94.7449,564.3244 Q95.4297,565.391 96.7744,565.391 Q97.4053,565.391 97.9988,565.1212 Q98.5923,564.8515 99.2231,564.2704 Z " fill="#000000"/><text fill="#000000" font-family="sans-serif" font-size="14" lengthAdjust="spacing" textLength="116" x="116.75" y="566.641">ListExamsService</text><line style="stroke:#181818;stroke-width:0.5;" x1="8" x2="309" y1="577.35" y2="577.35"/><line style="stroke:#181818;stroke-width:0.5;" x1="8" x2="309" y1="585.35" y2="585.35"/><ellipse cx="18" cy="599.0941" fill="#84BE84" rx="3" ry="3" style="stroke:#038048;stroke-width:1.0;"/><text fill="#000000" font-family="sans-serif" font-size="14" lengthAdjust="spacing" textLength="71" x="27" y="602.8852">allExams()</text><ellipse cx="18" cy="615.5824" fill="#84BE84" rx="3" ry="3" style="stroke:#038048;stroke-width:1.0;"/><text fill="#000000" font-family="sans-serif" font-size="14" lengthAdjust="spacing" textLength="277" x="27" y="619.3734">examOfLoggedStudent(Student student)</text><ellipse cx="18" cy="632.0707" fill="#84BE84" rx="3" ry="3" style="stroke:#038048;stroke-width:1.0;"/><text fill="#000000" font-family="sans-serif" font-size="14" lengthAdjust="spacing" textLength="233" x="27" y="635.8617">getExamByCourse(Course course)</text></g><!--class AuthorizationService--><g id="elem_AuthorizationService"><rect codeLine="22" fill="#F1F1F1" height="64.4883" id="AuthorizationService" rx="2.5" ry="2.5" style="stroke:#181818;stroke-width:0.5;" width="175" x="212" y="387.89"/><ellipse cx="227" cy="403.89" fill="#ADD1B2" rx="11" ry="11" style="stroke:#181818;stroke-width:1.0;"/><path d="M229.9731,409.5331 Q229.3921,409.8319 228.7529,409.9813 Q228.1138,410.1307 227.4082,410.1307 Q224.9014,410.1307 223.5815,408.4789 Q222.2617,406.827 222.2617,403.7059 Q222.2617,400.5765 223.5815,398.9247 Q224.9014,397.2728 227.4082,397.2728 Q228.1138,397.2728 228.7612,397.4222 Q229.4087,397.5716 229.9731,397.8705 L229.9731,400.5931 Q229.3423,400.0121 228.7488,399.7423 Q228.1553,399.4725 227.5244,399.4725 Q226.1797,399.4725 225.4949,400.5392 Q224.8101,401.6058 224.8101,403.7059 Q224.8101,405.7977 225.4949,406.8644 Q226.1797,407.931 227.5244,407.931 Q228.1553,407.931 228.7488,407.6612 Q229.3423,407.3915 229.9731,406.8104 Z " fill="#000000"/><text fill="#000000" font-family="sans-serif" font-size="14" lengthAdjust="spacing" textLength="143" x="241" y="409.181">AuthorizationService</text><line style="stroke:#181818;stroke-width:0.5;" x1="213" x2="386" y1="419.89" y2="419.89"/><line style="stroke:#181818;stroke-width:0.5;" x1="213" x2="386" y1="427.89" y2="427.89"/><ellipse cx="223" cy="441.6341" fill="#84BE84" rx="3" ry="3" style="stroke:#038048;stroke-width:1.0;"/><text fill="#000000" font-family="sans-serif" font-size="14" lengthAdjust="spacing" textLength="61" x="232" y="445.4252">session()</text></g><!--class ExamRepository--><g id="elem_ExamRepository"><rect codeLine="45" fill="#F1F1F1" height="80.9766" id="ExamRepository" rx="2.5" ry="2.5" style="stroke:#181818;stroke-width:0.5;" width="143" x="50" y="1059.79"/><ellipse cx="65" cy="1075.79" fill="#ADD1B2" rx="11" ry="11" style="stroke:#181818;stroke-width:1.0;"/><path d="M67.9731,1081.4331 Q67.3921,1081.7319 66.7529,1081.8813 Q66.1138,1082.0307 65.4082,1082.0307 Q62.9014,1082.0307 61.5815,1080.3789 Q60.2617,1078.727 60.2617,1075.6059 Q60.2617,1072.4765 61.5815,1070.8247 Q62.9014,1069.1728 65.4082,1069.1728 Q66.1138,1069.1728 66.7612,1069.3222 Q67.4087,1069.4716 67.9731,1069.7705 L67.9731,1072.4931 Q67.3423,1071.9121 66.7488,1071.6423 Q66.1553,1071.3725 65.5244,1071.3725 Q64.1797,1071.3725 63.4949,1072.4392 Q62.8101,1073.5058 62.8101,1075.6059 Q62.8101,1077.6977 63.4949,1078.7644 Q64.1797,1079.831 65.5244,1079.831 Q66.1553,1079.831 66.7488,1079.5612 Q67.3423,1079.2915 67.9731,1078.7104 Z " fill="#000000"/><text fill="#000000" font-family="sans-serif" font-size="14" lengthAdjust="spacing" textLength="111" x="79" y="1081.081">ExamRepository</text><line style="stroke:#181818;stroke-width:0.5;" x1="51" x2="192" y1="1091.79" y2="1091.79"/><line style="stroke:#181818;stroke-width:0.5;" x1="51" x2="192" y1="1099.79" y2="1099.79"/><ellipse cx="61" cy="1113.5341" fill="#84BE84" rx="3" ry="3" style="stroke:#038048;stroke-width:1.0;"/><text fill="#000000" font-family="sans-serif" font-size="14" lengthAdjust="spacing" textLength="52" x="70" y="1117.3252">create()</text><ellipse cx="61" cy="1130.0224" fill="#84BE84" rx="3" ry="3" style="stroke:#038048;stroke-width:1.0;"/><text fill="#000000" font-family="sans-serif" font-size="14" lengthAdjust="spacing" textLength="55" x="70" y="1133.8134">findAll()</text></g><!--class StudentUserRepository--><g id="elem_StudentUserRepository"><rect codeLine="29" fill="#F1F1F1" height="64.4883" id="StudentUserRepository" rx="2.5" ry="2.5" style="stroke:#181818;stroke-width:0.5;" width="189" x="228" y="1068.04"/><ellipse cx="243" cy="1084.04" fill="#ADD1B2" rx="11" ry="11" style="stroke:#181818;stroke-width:1.0;"/><path d="M245.9731,1089.6831 Q245.3921,1089.9819 244.7529,1090.1313 Q244.1138,1090.2807 243.4082,1090.2807 Q240.9014,1090.2807 239.5815,1088.6289 Q238.2617,1086.977 238.2617,1083.8559 Q238.2617,1080.7265 239.5815,1079.0747 Q240.9014,1077.4228 243.4082,1077.4228 Q244.1138,1077.4228 244.7612,1077.5722 Q245.4087,1077.7216 245.9731,1078.0205 L245.9731,1080.7431 Q245.3423,1080.1621 244.7488,1079.8923 Q244.1553,1079.6225 243.5244,1079.6225 Q242.1797,1079.6225 241.4949,1080.6892 Q240.8101,1081.7558 240.8101,1083.8559 Q240.8101,1085.9477 241.4949,1087.0144 Q242.1797,1088.081 243.5244,1088.081 Q244.1553,1088.081 244.7488,1087.8112 Q245.3423,1087.5415 245.9731,1086.9604 Z " fill="#000000"/><text fill="#000000" font-family="sans-serif" font-size="14" lengthAdjust="spacing" textLength="157" x="257" y="1089.331">StudentUserRepository</text><line style="stroke:#181818;stroke-width:0.5;" x1="229" x2="416" y1="1100.04" y2="1100.04"/><line style="stroke:#181818;stroke-width:0.5;" x1="229" x2="416" y1="1108.04" y2="1108.04"/><ellipse cx="239" cy="1121.7841" fill="#84BE84" rx="3" ry="3" style="stroke:#038048;stroke-width:1.0;"/><text fill="#000000" font-family="sans-serif" font-size="14" lengthAdjust="spacing" textLength="121" x="248" y="1125.5752">findByUsername()</text></g><!--class SystemUser--><g id="elem_SystemUser"><rect codeLine="33" fill="#F1F1F1" height="64.4883" id="SystemUser" rx="2.5" ry="2.5" style="stroke:#181818;stroke-width:0.5;" width="161" x="345" y="561.84"/><ellipse cx="382.5" cy="577.84" fill="#ADD1B2" rx="11" ry="11" style="stroke:#181818;stroke-width:1.0;"/><path d="M385.4731,583.4831 Q384.8921,583.7819 384.2529,583.9313 Q383.6138,584.0807 382.9082,584.0807 Q380.4014,584.0807 379.0815,582.4289 Q377.7617,580.777 377.7617,577.6559 Q377.7617,574.5265 379.0815,572.8747 Q380.4014,571.2228 382.9082,571.2228 Q383.6138,571.2228 384.2612,571.3722 Q384.9087,571.5216 385.4731,571.8205 L385.4731,574.5431 Q384.8423,573.9621 384.2488,573.6923 Q383.6553,573.4225 383.0244,573.4225 Q381.6797,573.4225 380.9949,574.4892 Q380.3101,575.5558 380.3101,577.6559 Q380.3101,579.7477 380.9949,580.8144 Q381.6797,581.881 383.0244,581.881 Q383.6553,581.881 384.2488,581.6112 Q384.8423,581.3415 385.4731,580.7604 Z " fill="#000000"/><text fill="#000000" font-family="sans-serif" font-size="14" lengthAdjust="spacing" textLength="79" x="401.5" y="583.131">SystemUser</text><line style="stroke:#181818;stroke-width:0.5;" x1="346" x2="505" y1="593.84" y2="593.84"/><line style="stroke:#181818;stroke-width:0.5;" x1="346" x2="505" y1="601.84" y2="601.84"/><ellipse cx="356" cy="615.5841" fill="#84BE84" rx="3" ry="3" style="stroke:#038048;stroke-width:1.0;"/><text fill="#000000" font-family="sans-serif" font-size="14" lengthAdjust="spacing" textLength="135" x="365" y="619.3752">authenticatedUser()</text></g><!--class Username--><g id="elem_Username"><rect codeLine="37" fill="#F1F1F1" height="64.4883" id="Username" rx="2.5" ry="2.5" style="stroke:#181818;stroke-width:0.5;" width="104" x="373.5" y="702.82"/><ellipse cx="389.85" cy="718.82" fill="#ADD1B2" rx="11" ry="11" style="stroke:#181818;stroke-width:1.0;"/><path d="M392.8231,724.4631 Q392.2421,724.7619 391.6029,724.9113 Q390.9638,725.0607 390.2582,725.0607 Q387.7514,725.0607 386.4315,723.4089 Q385.1117,721.757 385.1117,718.6359 Q385.1117,715.5065 386.4315,713.8547 Q387.7514,712.2028 390.2582,712.2028 Q390.9638,712.2028 391.6112,712.3522 Q392.2587,712.5016 392.8231,712.8005 L392.8231,715.5231 Q392.1923,714.9421 391.5988,714.6723 Q391.0053,714.4025 390.3744,714.4025 Q389.0297,714.4025 388.3449,715.4692 Q387.6601,716.5358 387.6601,718.6359 Q387.6601,720.7277 388.3449,721.7944 Q389.0297,722.861 390.3744,722.861 Q391.0053,722.861 391.5988,722.5912 Q392.1923,722.3215 392.8231,721.7404 Z " fill="#000000"/><text fill="#000000" font-family="sans-serif" font-size="14" lengthAdjust="spacing" textLength="69" x="404.15" y="724.111">Username</text><line style="stroke:#181818;stroke-width:0.5;" x1="374.5" x2="476.5" y1="734.82" y2="734.82"/><line style="stroke:#181818;stroke-width:0.5;" x1="374.5" x2="476.5" y1="742.82" y2="742.82"/><ellipse cx="384.5" cy="756.5641" fill="#84BE84" rx="3" ry="3" style="stroke:#038048;stroke-width:1.0;"/><text fill="#000000" font-family="sans-serif" font-size="14" lengthAdjust="spacing" textLength="78" x="393.5" y="760.3552">username()</text></g><!--class PersistenceContext--><g id="elem_PersistenceContext"><rect codeLine="41" fill="#F1F1F1" height="64.4883" id="PersistenceContext" rx="2.5" ry="2.5" style="stroke:#181818;stroke-width:0.5;" width="164" x="343.5" y="827.31"/><ellipse cx="358.5" cy="843.31" fill="#ADD1B2" rx="11" ry="11" style="stroke:#181818;stroke-width:1.0;"/><path d="M361.4731,848.9531 Q360.8921,849.2519 360.2529,849.4013 Q359.6138,849.5507 358.9082,849.5507 Q356.4014,849.5507 355.0815,847.8989 Q353.7617,846.247 353.7617,843.1259 Q353.7617,839.9965 355.0815,838.3447 Q356.4014,836.6928 358.9082,836.6928 Q359.6138,836.6928 360.2612,836.8422 Q360.9087,836.9916 361.4731,837.2905 L361.4731,840.0131 Q360.8423,839.4321 360.2488,839.1623 Q359.6553,838.8925 359.0244,838.8925 Q357.6797,838.8925 356.9949,839.9592 Q356.3101,841.0258 356.3101,843.1259 Q356.3101,845.2177 356.9949,846.2844 Q357.6797,847.351 359.0244,847.351 Q359.6553,847.351 360.2488,847.0812 Q360.8423,846.8115 361.4731,846.2304 Z " fill="#000000"/><text fill="#000000" font-family="sans-serif" font-size="14" lengthAdjust="spacing" textLength="132" x="372.5" y="848.601">PersistenceContext</text><line style="stroke:#181818;stroke-width:0.5;" x1="344.5" x2="506.5" y1="859.31" y2="859.31"/><line style="stroke:#181818;stroke-width:0.5;" x1="344.5" x2="506.5" y1="867.31" y2="867.31"/><ellipse cx="354.5" cy="881.0541" fill="#84BE84" rx="3" ry="3" style="stroke:#038048;stroke-width:1.0;"/><text fill="#000000" font-family="sans-serif" font-size="14" lengthAdjust="spacing" textLength="92" x="363.5" y="884.8452">repositories()</text></g><!--class CourseRepository--><g id="elem_CourseRepository"><rect codeLine="50" fill="#F1F1F1" height="64.4883" id="CourseRepository" rx="2.5" ry="2.5" style="stroke:#181818;stroke-width:0.5;" width="154" x="452.5" y="1068.04"/><ellipse cx="467.5" cy="1084.04" fill="#ADD1B2" rx="11" ry="11" style="stroke:#181818;stroke-width:1.0;"/><path d="M470.4731,1089.6831 Q469.8921,1089.9819 469.2529,1090.1313 Q468.6138,1090.2807 467.9082,1090.2807 Q465.4014,1090.2807 464.0815,1088.6289 Q462.7617,1086.977 462.7617,1083.8559 Q462.7617,1080.7265 464.0815,1079.0747 Q465.4014,1077.4228 467.9082,1077.4228 Q468.6138,1077.4228 469.2612,1077.5722 Q469.9087,1077.7216 470.4731,1078.0205 L470.4731,1080.7431 Q469.8423,1080.1621 469.2488,1079.8923 Q468.6553,1079.6225 468.0244,1079.6225 Q466.6797,1079.6225 465.9949,1080.6892 Q465.3101,1081.7558 465.3101,1083.8559 Q465.3101,1085.9477 465.9949,1087.0144 Q466.6797,1088.081 468.0244,1088.081 Q468.6553,1088.081 469.2488,1087.8112 Q469.8423,1087.5415 470.4731,1086.9604 Z " fill="#000000"/><text fill="#000000" font-family="sans-serif" font-size="14" lengthAdjust="spacing" textLength="122" x="481.5" y="1089.331">CourseRepository</text><line style="stroke:#181818;stroke-width:0.5;" x1="453.5" x2="605.5" y1="1100.04" y2="1100.04"/><line style="stroke:#181818;stroke-width:0.5;" x1="453.5" x2="605.5" y1="1108.04" y2="1108.04"/><ellipse cx="463.5" cy="1121.7841" fill="#84BE84" rx="3" ry="3" style="stroke:#038048;stroke-width:1.0;"/><text fill="#000000" font-family="sans-serif" font-size="14" lengthAdjust="spacing" textLength="55" x="472.5" y="1125.5752">findAll()</text></g><!--class Student--><g id="elem_Student"><rect codeLine="54" fill="#F1F1F1" height="130.4414" id="Student" rx="2.5" ry="2.5" style="stroke:#181818;stroke-width:0.5;" width="197" x="422" y="354.91"/><ellipse cx="489.75" cy="370.91" fill="#ADD1B2" rx="11" ry="11" style="stroke:#181818;stroke-width:1.0;"/><path d="M492.7231,376.5531 Q492.1421,376.8519 491.5029,377.0013 Q490.8638,377.1507 490.1582,377.1507 Q487.6514,377.1507 486.3315,375.4989 Q485.0117,373.847 485.0117,370.7259 Q485.0117,367.5965 486.3315,365.9447 Q487.6514,364.2928 490.1582,364.2928 Q490.8638,364.2928 491.5112,364.4422 Q492.1587,364.5916 492.7231,364.8905 L492.7231,367.6131 Q492.0923,367.0321 491.4988,366.7623 Q490.9053,366.4925 490.2744,366.4925 Q488.9297,366.4925 488.2449,367.5592 Q487.5601,368.6258 487.5601,370.7259 Q487.5601,372.8177 488.2449,373.8844 Q488.9297,374.951 490.2744,374.951 Q490.9053,374.951 491.4988,374.6812 Q492.0923,374.4115 492.7231,373.8304 Z " fill="#000000"/><text fill="#000000" font-family="sans-serif" font-size="14" lengthAdjust="spacing" textLength="53" x="510.25" y="376.201">Student</text><line style="stroke:#181818;stroke-width:0.5;" x1="423" x2="618" y1="386.91" y2="386.91"/><line style="stroke:#181818;stroke-width:0.5;" x1="423" x2="618" y1="394.91" y2="394.91"/><ellipse cx="433" cy="408.6541" fill="#84BE84" rx="3" ry="3" style="stroke:#038048;stroke-width:1.0;"/><text fill="#000000" font-family="sans-serif" font-size="14" lengthAdjust="spacing" textLength="40" x="442" y="412.4452">user()</text><ellipse cx="433" cy="425.1424" fill="#84BE84" rx="3" ry="3" style="stroke:#038048;stroke-width:1.0;"/><text fill="#000000" font-family="sans-serif" font-size="14" lengthAdjust="spacing" textLength="171" x="442" y="428.9334">mecanographicNumber()</text><ellipse cx="433" cy="441.6307" fill="#84BE84" rx="3" ry="3" style="stroke:#038048;stroke-width:1.0;"/><text fill="#000000" font-family="sans-serif" font-size="14" lengthAdjust="spacing" textLength="61" x="442" y="445.4217">identity()</text><ellipse cx="433" cy="458.119" fill="#84BE84" rx="3" ry="3" style="stroke:#038048;stroke-width:1.0;"/><text fill="#000000" font-family="sans-serif" font-size="14" lengthAdjust="spacing" textLength="110" x="442" y="461.91">taxPayNumber()</text><ellipse cx="433" cy="474.6073" fill="#84BE84" rx="3" ry="3" style="stroke:#038048;stroke-width:1.0;"/><text fill="#000000" font-family="sans-serif" font-size="14" lengthAdjust="spacing" textLength="73" x="442" y="478.3983">birthdate()</text></g><!--class Course--><g id="elem_Course"><rect codeLine="62" fill="#F1F1F1" height="64.4883" id="Course" rx="2.5" ry="2.5" style="stroke:#181818;stroke-width:0.5;" width="135" x="654" y="387.89"/><ellipse cx="693.3" cy="403.89" fill="#ADD1B2" rx="11" ry="11" style="stroke:#181818;stroke-width:1.0;"/><path d="M696.2731,409.5331 Q695.6921,409.8319 695.0529,409.9813 Q694.4138,410.1307 693.7082,410.1307 Q691.2014,410.1307 689.8815,408.4789 Q688.5617,406.827 688.5617,403.7059 Q688.5617,400.5765 689.8815,398.9247 Q691.2014,397.2728 693.7082,397.2728 Q694.4138,397.2728 695.0612,397.4222 Q695.7087,397.5716 696.2731,397.8705 L696.2731,400.5931 Q695.6423,400.0121 695.0488,399.7423 Q694.4553,399.4725 693.8244,399.4725 Q692.4797,399.4725 691.7949,400.5392 Q691.1101,401.6058 691.1101,403.7059 Q691.1101,405.7977 691.7949,406.8644 Q692.4797,407.931 693.8244,407.931 Q694.4553,407.931 695.0488,407.6612 Q695.6423,407.3915 696.2731,406.8104 Z " fill="#000000"/><text fill="#000000" font-family="sans-serif" font-size="14" lengthAdjust="spacing" textLength="49" x="712.7" y="409.181">Course</text><line style="stroke:#181818;stroke-width:0.5;" x1="655" x2="788" y1="419.89" y2="419.89"/><line style="stroke:#181818;stroke-width:0.5;" x1="655" x2="788" y1="427.89" y2="427.89"/><ellipse cx="665" cy="441.6341" fill="#84BE84" rx="3" ry="3" style="stroke:#038048;stroke-width:1.0;"/><text fill="#000000" font-family="sans-serif" font-size="14" lengthAdjust="spacing" textLength="109" x="674" y="445.4252">getActualState()</text></g><!--class CourseEnrollmentRequestService--><g id="elem_CourseEnrollmentRequestService"><rect codeLine="66" fill="#F1F1F1" height="64.4883" id="CourseEnrollmentRequestService" rx="2.5" ry="2.5" style="stroke:#181818;stroke-width:0.5;" width="292" x="604.5" y="702.82"/><ellipse cx="634.35" cy="718.82" fill="#ADD1B2" rx="11" ry="11" style="stroke:#181818;stroke-width:1.0;"/><path d="M637.3231,724.4631 Q636.7421,724.7619 636.1029,724.9113 Q635.4638,725.0607 634.7582,725.0607 Q632.2514,725.0607 630.9315,723.4089 Q629.6117,721.757 629.6117,718.6359 Q629.6117,715.5065 630.9315,713.8547 Q632.2514,712.2028 634.7582,712.2028 Q635.4638,712.2028 636.1112,712.3522 Q636.7587,712.5016 637.3231,712.8005 L637.3231,715.5231 Q636.6923,714.9421 636.0988,714.6723 Q635.5053,714.4025 634.8744,714.4025 Q633.5297,714.4025 632.8449,715.4692 Q632.1601,716.5358 632.1601,718.6359 Q632.1601,720.7277 632.8449,721.7944 Q633.5297,722.861 634.8744,722.861 Q635.5053,722.861 636.0988,722.5912 Q636.6923,722.3215 637.3231,721.7404 Z " fill="#000000"/><text fill="#000000" font-family="sans-serif" font-size="14" lengthAdjust="spacing" textLength="227" x="651.65" y="724.111">CourseEnrollmentRequestService</text><line style="stroke:#181818;stroke-width:0.5;" x1="605.5" x2="895.5" y1="734.82" y2="734.82"/><line style="stroke:#181818;stroke-width:0.5;" x1="605.5" x2="895.5" y1="742.82" y2="742.82"/><ellipse cx="615.5" cy="756.5641" fill="#84BE84" rx="3" ry="3" style="stroke:#038048;stroke-width:1.0;"/><text fill="#000000" font-family="sans-serif" font-size="14" lengthAdjust="spacing" textLength="266" x="624.5" y="760.3552">getStudentEnrollment(student, course)</text></g><!--class CourseEnrollmentRequestRepository--><g id="elem_CourseEnrollmentRequestRepository"><rect codeLine="70" fill="#F1F1F1" height="64.4883" id="CourseEnrollmentRequestRepository" rx="2.5" ry="2.5" style="stroke:#181818;stroke-width:0.5;" width="292" x="641.5" y="1068.04"/><ellipse cx="660.1" cy="1084.04" fill="#ADD1B2" rx="11" ry="11" style="stroke:#181818;stroke-width:1.0;"/><path d="M663.0731,1089.6831 Q662.4921,1089.9819 661.8529,1090.1313 Q661.2138,1090.2807 660.5082,1090.2807 Q658.0014,1090.2807 656.6815,1088.6289 Q655.3617,1086.977 655.3617,1083.8559 Q655.3617,1080.7265 656.6815,1079.0747 Q658.0014,1077.4228 660.5082,1077.4228 Q661.2138,1077.4228 661.8612,1077.5722 Q662.5087,1077.7216 663.0731,1078.0205 L663.0731,1080.7431 Q662.4423,1080.1621 661.8488,1079.8923 Q661.2553,1079.6225 660.6244,1079.6225 Q659.2797,1079.6225 658.5949,1080.6892 Q657.9101,1081.7558 657.9101,1083.8559 Q657.9101,1085.9477 658.5949,1087.0144 Q659.2797,1088.081 660.6244,1088.081 Q661.2553,1088.081 661.8488,1087.8112 Q662.4423,1087.5415 663.0731,1086.9604 Z " fill="#000000"/><text fill="#000000" font-family="sans-serif" font-size="14" lengthAdjust="spacing" textLength="252" x="674.9" y="1089.331">CourseEnrollmentRequestRepository</text><line style="stroke:#181818;stroke-width:0.5;" x1="642.5" x2="932.5" y1="1100.04" y2="1100.04"/><line style="stroke:#181818;stroke-width:0.5;" x1="642.5" x2="932.5" y1="1108.04" y2="1108.04"/><ellipse cx="652.5" cy="1121.7841" fill="#84BE84" rx="3" ry="3" style="stroke:#038048;stroke-width:1.0;"/><text fill="#000000" font-family="sans-serif" font-size="14" lengthAdjust="spacing" textLength="266" x="661.5" y="1125.5752">findByStudentAndCourse(user, course)</text></g><!--class CourseEnrollmentRequest--><g id="elem_CourseEnrollmentRequest"><rect codeLine="74" fill="#F1F1F1" height="64.4883" id="CourseEnrollmentRequest" rx="2.5" ry="2.5" style="stroke:#181818;stroke-width:0.5;" width="211" x="896" y="387.89"/><ellipse cx="911" cy="403.89" fill="#ADD1B2" rx="11" ry="11" style="stroke:#181818;stroke-width:1.0;"/><path d="M913.9731,409.5331 Q913.3921,409.8319 912.7529,409.9813 Q912.1138,410.1307 911.4082,410.1307 Q908.9014,410.1307 907.5815,408.4789 Q906.2617,406.827 906.2617,403.7059 Q906.2617,400.5765 907.5815,398.9247 Q908.9014,397.2728 911.4082,397.2728 Q912.1138,397.2728 912.7612,397.4222 Q913.4087,397.5716 913.9731,397.8705 L913.9731,400.5931 Q913.3423,400.0121 912.7488,399.7423 Q912.1553,399.4725 911.5244,399.4725 Q910.1797,399.4725 909.4949,400.5392 Q908.8101,401.6058 908.8101,403.7059 Q908.8101,405.7977 909.4949,406.8644 Q910.1797,407.931 911.5244,407.931 Q912.1553,407.931 912.7488,407.6612 Q913.3423,407.3915 913.9731,406.8104 Z " fill="#000000"/><text fill="#000000" font-family="sans-serif" font-size="14" lengthAdjust="spacing" textLength="179" x="925" y="409.181">CourseEnrollmentRequest</text><line style="stroke:#181818;stroke-width:0.5;" x1="897" x2="1106" y1="419.89" y2="419.89"/><line style="stroke:#181818;stroke-width:0.5;" x1="897" x2="1106" y1="427.89" y2="427.89"/><ellipse cx="907" cy="441.6341" fill="#84BE84" rx="3" ry="3" style="stroke:#038048;stroke-width:1.0;"/><text fill="#000000" font-family="sans-serif" font-size="14" lengthAdjust="spacing" textLength="173" x="916" y="445.4252">courseEnrollmentStatus()</text></g><!--class repositories--><g id="elem_repositories"><rect fill="#F1F1F1" height="48" id="repositories" rx="2.5" ry="2.5" style="stroke:#181818;stroke-width:0.5;" width="114" x="368.5" y="951.79"/><ellipse cx="383.5" cy="967.79" fill="#ADD1B2" rx="11" ry="11" style="stroke:#181818;stroke-width:1.0;"/><path d="M386.4731,973.4331 Q385.8921,973.7319 385.2529,973.8813 Q384.6138,974.0307 383.9082,974.0307 Q381.4014,974.0307 380.0815,972.3789 Q378.7617,970.727 378.7617,967.6059 Q378.7617,964.4765 380.0815,962.8247 Q381.4014,961.1728 383.9082,961.1728 Q384.6138,961.1728 385.2612,961.3222 Q385.9087,961.4716 386.4731,961.7705 L386.4731,964.4931 Q385.8423,963.9121 385.2488,963.6423 Q384.6553,963.3725 384.0244,963.3725 Q382.6797,963.3725 381.9949,964.4392 Q381.3101,965.5058 381.3101,967.6059 Q381.3101,969.6977 381.9949,970.7644 Q382.6797,971.831 384.0244,971.831 Q384.6553,971.831 385.2488,971.5612 Q385.8423,971.2915 386.4731,970.7104 Z " fill="#000000"/><text fill="#000000" font-family="sans-serif" font-size="14" lengthAdjust="spacing" textLength="82" x="397.5" y="973.081">repositories</text><line style="stroke:#181818;stroke-width:0.5;" x1="369.5" x2="481.5" y1="983.79" y2="983.79"/><line style="stroke:#181818;stroke-width:0.5;" x1="369.5" x2="481.5" y1="991.79" y2="991.79"/></g><!--link ListExamsUI to ListStudentExamsController--><g id="link_ListExamsUI_ListStudentExamsController"><path codeLine="79" d="M620.5,154.39 C620.5,172.49 620.5,191.38 620.5,207.75 " fill="none" id="ListExamsUI-to-ListStudentExamsController" style="stroke:#181818;stroke-width:1.0;"/><polygon fill="#181818" points="620.5,212.66,624.5,203.66,620.5,207.66,616.5,203.66,620.5,212.66" style="stroke:#181818;stroke-width:1.0;"/></g><!--link ListStudentExamsController to ListExamsService--><g id="link_ListStudentExamsController_ListExamsService"><path codeLine="80" d="M508.54,267.37 C396.98,281.67 236.4,309.54 194.5,354.91 C148.92,404.26 146.37,485.47 150.79,539.11 " fill="none" id="ListStudentExamsController-to-ListExamsService" style="stroke:#181818;stroke-width:1.0;"/><polygon fill="#181818" points="151.3,543.86,154.4857,534.5406,150.8564,538.8797,146.5172,535.2504,151.3,543.86" style="stroke:#181818;stroke-width:1.0;"/></g><!--link ListStudentExamsController to AuthorizationService--><g id="link_ListStudentExamsController_AuthorizationService"><path codeLine="81" d="M527.64,295.32 C489.05,312.64 444.11,333.77 404.5,354.91 C387.59,363.94 369.63,374.53 353.44,384.47 " fill="none" id="ListStudentExamsController-to-AuthorizationService" style="stroke:#181818;stroke-width:1.0;"/><polygon fill="#181818" points="349.48,387.53,359.2393,386.2052,353.7344,384.9031,355.0364,379.3982,349.48,387.53" style="stroke:#181818;stroke-width:1.0;"/></g><!--link AuthorizationService to SystemUser--><g id="link_AuthorizationService_SystemUser"><path codeLine="82" d="M322.61,452.67 C344.12,482.03 376.18,525.77 398.78,556.62 " fill="none" id="AuthorizationService-to-SystemUser" style="stroke:#181818;stroke-width:1.0;"/><polygon fill="#181818" points="402.32,560.45,400.2189,550.8279,399.3613,556.4193,393.7699,555.5618,402.32,560.45" style="stroke:#181818;stroke-width:1.0;"/></g><!--link SystemUser to Username--><g id="link_SystemUser_Username"><path codeLine="83" d="M425.5,626.62 C425.5,647.5 425.5,674.97 425.5,696.91 " fill="none" id="SystemUser-to-Username" style="stroke:#181818;stroke-width:1.0;"/><polygon fill="#181818" points="425.5,701.65,429.5,692.65,425.5,696.65,421.5,692.65,425.5,701.65" style="stroke:#181818;stroke-width:1.0;"/></g><!--link Username to PersistenceContext--><g id="link_Username_PersistenceContext"><path codeLine="84" d="M425.5,767.6 C425.5,784.04 425.5,804.23 425.5,821.41 " fill="none" id="Username-to-PersistenceContext" style="stroke:#181818;stroke-width:1.0;"/><polygon fill="#181818" points="425.5,826.11,429.5,817.11,425.5,821.11,421.5,817.11,425.5,826.11" style="stroke:#181818;stroke-width:1.0;"/></g><!--link PersistenceContext to repositories--><g id="link_PersistenceContext_repositories"><path codeLine="85" d="M425.5,892.07 C425.5,908.77 425.5,929.16 425.5,945.52 " fill="none" id="PersistenceContext-to-repositories" style="stroke:#181818;stroke-width:1.0;"/><polygon fill="#181818" points="425.5,950.35,429.5,941.35,425.5,945.35,421.5,941.35,425.5,950.35" style="stroke:#181818;stroke-width:1.0;"/></g><!--link repositories to ExamRepository--><g id="link_repositories_ExamRepository"><path codeLine="86" d="M368.16,998.05 C324.67,1014.39 263.54,1037.8 210.5,1059.79 C206.64,1061.4 202.69,1063.06 198.7,1064.75 " fill="none" id="repositories-to-ExamRepository" style="stroke:#181818;stroke-width:1.0;"/><polygon fill="#181818" points="194.26,1067.08,204.108,1067.2113,198.8557,1065.1104,200.9566,1059.8581,194.26,1067.08" style="stroke:#181818;stroke-width:1.0;"/></g><!--link repositories to StudentUserRepository--><g id="link_repositories_StudentUserRepository"><path codeLine="87" d="M405.88,1000.12 C390.91,1017.93 370,1042.8 352.87,1063.17 " fill="none" id="repositories-to-StudentUserRepository" style="stroke:#181818;stroke-width:1.0;"/><polygon fill="#181818" points="349.05,1066.71,357.9004,1062.3891,352.265,1062.8806,351.7734,1057.2452,349.05,1066.71" style="stroke:#181818;stroke-width:1.0;"/></g><!--link ListStudentExamsController to Student--><g id="link_ListStudentExamsController_Student"><path codeLine="88" d="M596.29,295.05 C586.22,311.54 574.23,331.17 562.79,349.91 " fill="none" id="ListStudentExamsController-to-Student" style="stroke:#181818;stroke-width:1.0;"/><polygon fill="#181818" points="559.89,353.65,567.9863,348.042,562.4897,349.379,561.1527,343.8824,559.89,353.65" style="stroke:#181818;stroke-width:1.0;"/></g><!--link ListExamsService to PersistenceContext--><g id="link_ListExamsService_PersistenceContext"><path codeLine="89" d="M207.16,643.1 C259.72,694.97 342.25,776.4 389.35,822.88 " fill="none" id="ListExamsService-to-PersistenceContext" style="stroke:#181818;stroke-width:1.0;"/><polygon fill="#181818" points="392.51,825.99,388.9002,816.8265,388.946,822.4832,383.2893,822.529,392.51,825.99" style="stroke:#181818;stroke-width:1.0;"/></g><!--link repositories to CourseRepository--><g id="link_repositories_CourseRepository"><path codeLine="90" d="M445.31,1000.12 C460.43,1017.93 481.54,1042.8 498.84,1063.17 " fill="none" id="repositories-to-CourseRepository" style="stroke:#181818;stroke-width:1.0;"/><polygon fill="#181818" points="502.69,1066.71,499.9285,1057.2562,499.4596,1062.8936,493.8223,1062.4248,502.69,1066.71" style="stroke:#181818;stroke-width:1.0;"/></g><!--link ListStudentExamsController to Course--><g id="link_ListStudentExamsController_Course"><path codeLine="91" d="M644.95,295.05 C661.37,321.67 682.85,356.48 698.87,382.46 " fill="none" id="ListStudentExamsController-to-Course" style="stroke:#181818;stroke-width:1.0;"/><polygon fill="#181818" points="702,386.53,700.6989,376.7675,699.3835,382.2693,693.8817,380.9539,702,386.53" style="stroke:#181818;stroke-width:1.0;"/></g><!--link ListStudentExamsController to CourseEnrollmentRequestService--><g id="link_ListStudentExamsController_CourseEnrollmentRequestService"><path codeLine="92" d="M732.33,291 C761.54,305.95 789.56,326.64 806.5,354.91 C872.79,465.55 806.58,626.03 770.52,697.43 " fill="none" id="ListStudentExamsController-to-CourseEnrollmentRequestService" style="stroke:#181818;stroke-width:1.0;"/><polygon fill="#181818" points="767.98,701.42,775.6304,695.2174,770.2503,696.9651,768.5026,691.585,767.98,701.42" style="stroke:#181818;stroke-width:1.0;"/></g><!--link CourseEnrollmentRequestService to PersistenceContext--><g id="link_CourseEnrollmentRequestService_PersistenceContext"><path codeLine="93" d="M666.38,767.76 C619.39,785.48 560.89,807.52 513.31,825.45 " fill="none" id="CourseEnrollmentRequestService-to-PersistenceContext" style="stroke:#181818;stroke-width:1.0;"/><polygon fill="#181818" points="508.86,827.51,518.6935,828.059,513.5352,825.7372,515.857,820.5788,508.86,827.51" style="stroke:#181818;stroke-width:1.0;"/></g><!--link repositories to CourseEnrollmentRequestRepository--><g id="link_repositories_CourseEnrollmentRequestRepository"><path codeLine="94" d="M482.86,996.2 C537.93,1014.84 622.25,1043.37 688.23,1065.69 " fill="none" id="repositories-to-CourseEnrollmentRequestRepository" style="stroke:#181818;stroke-width:1.0;"/><polygon fill="#181818" points="692.75,1067.56,685.5008,1060.893,688.0123,1065.9617,682.9436,1068.4733,692.75,1067.56" style="stroke:#181818;stroke-width:1.0;"/></g><!--link ListStudentExamsController to CourseEnrollmentRequest--><g id="link_ListStudentExamsController_CourseEnrollmentRequest"><path codeLine="95" d="M724.63,295.36 C769.22,312.94 821.71,334.26 868.5,354.91 C889.69,364.26 912.49,375.02 933.12,385.01 " fill="none" id="ListStudentExamsController-to-CourseEnrollmentRequest" style="stroke:#181818;stroke-width:1.0;"/><polygon fill="#181818" points="937.32,387.53,930.9815,379.9919,932.8252,385.3399,927.4772,387.1836,937.32,387.53" style="stroke:#181818;stroke-width:1.0;"/></g><!--SRC=[dLJRJWCX47tdA_QnHlq5azQOQEAbiUa783jkILYeC6kw6lzTO86obrvqNmWpXpDduCmoGOqf7hd1knsjpVgX-2Q5_IutG4l19SmkkZtKMsoVm1XQxMC2Qf1e1lkbvX913wBFj4u7XQrtRmjuq0yXBAbOOLDQi1TpgoHg9GJeA0fi-ENzKLKLb06PA0V17gkdMu7-v0mY5nN2XvFC2Uwm5gPR0x82JxXeRrMZ3SowfM1-oIhF6zmepRyeSYK7rOszIHlDXJhELzWgmr7frW9J9iXO6z0zW6Twvx9Sj2udknlU7siDGkqogMUho19nHX5AbyZXaIA2cmdA9MXZxnCa0_SwiCE8rb4O1tEqAuzc6go4UFMkXRaG-R7kJgUx7K3Z8sMo8t4DZ4fLQRhTSFRSr6_x57TdEBPnZtItf6qVyyOrRifEw41Ph6QzC6VOKB72IToTT0vs_d-5ZmQimVi-iEUZvHDo5knsDRRK0T93hWZKSra6gxhBEPyslTOWxNfjmYkJ_DznVNrpP8h9aG6F9_D9FOMVcYyoENGElPy6aWs6oqJZapG1BZgsEfbmlqFcrYVvncVx0p3EJmxtgTP3Yen-RWUKZweEv-jKmGv_7kgGvyc9aVYRzYD3y4-Pv1S0]--></g></svg>