<?xml version="1.0" encoding="UTF-8" standalone="no"?><svg xmlns="http://www.w3.org/2000/svg" xmlns:xlink="http://www.w3.org/1999/xlink" contentStyleType="text/css" height="1210px" preserveAspectRatio="none" style="width:2874px;height:1210px;background:#FFFFFF;" version="1.1" viewBox="0 0 2874 1210" width="2874px" zoomAndPan="magnify"><defs/><g><rect fill="#FFFFFF" height="982.248" style="stroke:#181818;stroke-width:1.0;" width="10" x="163.5" y="115.2871"/><rect fill="#FFFFFF" height="923.627" style="stroke:#181818;stroke-width:1.0;" width="10" x="356.5" y="144.5977"/><rect fill="#FFFFFF" height="29.3105" style="stroke:#181818;stroke-width:1.0;" width="10" x="653.5" y="173.9082"/><rect fill="#FFFFFF" height="747.7637" style="stroke:#181818;stroke-width:1.0;" width="10" x="807" y="291.1504"/><rect fill="#FFFFFF" height="205.1738" style="stroke:#181818;stroke-width:1.0;" width="10" x="1100" y="549.9453"/><rect fill="#FFFFFF" height="146.5527" style="stroke:#181818;stroke-width:1.0;" width="10" x="1318" y="320.4609"/><rect fill="#FFFFFF" height="146.5527" style="stroke:#181818;stroke-width:1.0;" width="10" x="1318" y="579.2559"/><rect fill="#FFFFFF" height="146.5527" style="stroke:#181818;stroke-width:1.0;" width="10" x="1318" y="856.0508"/><rect fill="#FFFFFF" height="87.9316" style="stroke:#181818;stroke-width:1.0;" width="10" x="1610" y="349.7715"/><rect fill="#FFFFFF" height="87.9316" style="stroke:#181818;stroke-width:1.0;" width="10" x="1610" y="608.5664"/><rect fill="#FFFFFF" height="87.9316" style="stroke:#181818;stroke-width:1.0;" width="10" x="1610" y="885.3613"/><rect fill="#FFFFFF" height="29.3105" style="stroke:#181818;stroke-width:1.0;" width="10" x="1754.5" y="232.5293"/><rect fill="#FFFFFF" height="29.3105" style="stroke:#181818;stroke-width:1.0;" width="10" x="2028.5" y="379.082"/><rect fill="#FFFFFF" height="29.3105" style="stroke:#181818;stroke-width:1.0;" width="10" x="2231.5" y="637.877"/><rect fill="#FFFFFF" height="29.3105" style="stroke:#181818;stroke-width:1.0;" width="10" x="2787.5" y="914.6719"/><rect fill="none" height="528.5898" style="stroke:#000000;stroke-width:1.5;" width="2131.5" x="737" y="482.0137"/><line style="stroke:#181818;stroke-width:0.5;stroke-dasharray:5.0,5.0;" x1="34" x2="34" y1="83.9766" y2="1115.5352"/><line style="stroke:#181818;stroke-width:0.5;stroke-dasharray:5.0,5.0;" x1="168" x2="168" y1="83.9766" y2="1115.5352"/><line style="stroke:#181818;stroke-width:0.5;stroke-dasharray:5.0,5.0;" x1="361.5" x2="361.5" y1="83.9766" y2="1115.5352"/><line style="stroke:#181818;stroke-width:0.5;stroke-dasharray:5.0,5.0;" x1="658" x2="658" y1="83.9766" y2="1115.5352"/><line style="stroke:#181818;stroke-width:0.5;stroke-dasharray:5.0,5.0;" x1="812" x2="812" y1="83.9766" y2="1115.5352"/><line style="stroke:#181818;stroke-width:0.5;stroke-dasharray:5.0,5.0;" x1="1104.5" x2="1104.5" y1="83.9766" y2="1115.5352"/><line style="stroke:#181818;stroke-width:0.5;stroke-dasharray:5.0,5.0;" x1="1323" x2="1323" y1="83.9766" y2="1115.5352"/><line style="stroke:#181818;stroke-width:0.5;stroke-dasharray:5.0,5.0;" x1="1614.5" x2="1614.5" y1="83.9766" y2="1115.5352"/><line style="stroke:#181818;stroke-width:0.5;stroke-dasharray:5.0,5.0;" x1="1759.5" x2="1759.5" y1="83.9766" y2="1115.5352"/><line style="stroke:#181818;stroke-width:0.5;stroke-dasharray:5.0,5.0;" x1="1897.5" x2="1897.5" y1="83.9766" y2="1115.5352"/><line style="stroke:#181818;stroke-width:0.5;stroke-dasharray:5.0,5.0;" x1="2033.5" x2="2033.5" y1="83.9766" y2="1115.5352"/><line style="stroke:#181818;stroke-width:0.5;stroke-dasharray:5.0,5.0;" x1="2236.5" x2="2236.5" y1="83.9766" y2="1115.5352"/><line style="stroke:#181818;stroke-width:0.5;stroke-dasharray:5.0,5.0;" x1="2444.5" x2="2444.5" y1="83.9766" y2="1115.5352"/><line style="stroke:#181818;stroke-width:0.5;stroke-dasharray:5.0,5.0;" x1="2619.5" x2="2619.5" y1="83.9766" y2="1115.5352"/><line style="stroke:#181818;stroke-width:0.5;stroke-dasharray:5.0,5.0;" x1="2792.5" x2="2792.5" y1="83.9766" y2="1115.5352"/><text fill="#000000" font-family="sans-serif" font-size="14" lengthAdjust="spacing" textLength="53" x="5" y="81.0234">Student</text><ellipse cx="34.5" cy="15.9883" fill="#E2E2F0" rx="8" ry="8" style="stroke:#181818;stroke-width:0.5;"/><path d="M34.5,23.9883 L34.5,50.9883 M21.5,31.9883 L47.5,31.9883 M34.5,50.9883 L21.5,65.9883 M34.5,50.9883 L47.5,65.9883 " fill="none" style="stroke:#181818;stroke-width:0.5;"/><text fill="#000000" font-family="sans-serif" font-size="14" lengthAdjust="spacing" textLength="53" x="5" y="1128.0703">Student</text><ellipse cx="34.5" cy="1139.5234" fill="#E2E2F0" rx="8" ry="8" style="stroke:#181818;stroke-width:0.5;"/><path d="M34.5,1147.5234 L34.5,1174.5234 M21.5,1155.5234 L47.5,1155.5234 M34.5,1174.5234 L21.5,1189.5234 M34.5,1174.5234 L47.5,1189.5234 " fill="none" style="stroke:#181818;stroke-width:0.5;"/><rect fill="#E2E2F0" height="46.9766" rx="2.5" ry="2.5" style="stroke:#181818;stroke-width:0.5;" width="115" x="111" y="36"/><text fill="#000000" font-family="sans-serif" font-size="14" font-style="italic" lengthAdjust="spacing" textLength="101" x="118" y="56.5352">«presentation»</text><text fill="#000000" font-family="sans-serif" font-size="14" lengthAdjust="spacing" textLength="82" x="127.5" y="73.0234">ListExamsUI</text><rect fill="#E2E2F0" height="46.9766" rx="2.5" ry="2.5" style="stroke:#181818;stroke-width:0.5;" width="115" x="111" y="1114.5352"/><text fill="#000000" font-family="sans-serif" font-size="14" font-style="italic" lengthAdjust="spacing" textLength="101" x="118" y="1135.0703">«presentation»</text><text fill="#000000" font-family="sans-serif" font-size="14" lengthAdjust="spacing" textLength="82" x="127.5" y="1151.5586">ListExamsUI</text><rect fill="#E2E2F0" height="46.9766" rx="2.5" ry="2.5" style="stroke:#181818;stroke-width:0.5;" width="152" x="285.5" y="36"/><text fill="#000000" font-family="sans-serif" font-size="14" font-style="italic" lengthAdjust="spacing" textLength="81" x="321" y="56.5352">«aplication»</text><text fill="#000000" font-family="sans-serif" font-size="14" lengthAdjust="spacing" textLength="138" x="292.5" y="73.0234">ListExamsController</text><rect fill="#E2E2F0" height="46.9766" rx="2.5" ry="2.5" style="stroke:#181818;stroke-width:0.5;" width="152" x="285.5" y="1114.5352"/><text fill="#000000" font-family="sans-serif" font-size="14" font-style="italic" lengthAdjust="spacing" textLength="81" x="321" y="1135.0703">«aplication»</text><text fill="#000000" font-family="sans-serif" font-size="14" lengthAdjust="spacing" textLength="138" x="292.5" y="1151.5586">ListExamsController</text><rect fill="#E2E2F0" height="46.9766" rx="2.5" ry="2.5" style="stroke:#181818;stroke-width:0.5;" width="157" x="580" y="36"/><text fill="#000000" font-family="sans-serif" font-size="14" font-style="italic" lengthAdjust="spacing" textLength="92" x="612.5" y="56.5352">«Application»</text><text fill="#000000" font-family="sans-serif" font-size="14" lengthAdjust="spacing" textLength="143" x="587" y="73.0234">AuthorizationService</text><rect fill="#E2E2F0" height="46.9766" rx="2.5" ry="2.5" style="stroke:#181818;stroke-width:0.5;" width="157" x="580" y="1114.5352"/><text fill="#000000" font-family="sans-serif" font-size="14" font-style="italic" lengthAdjust="spacing" textLength="92" x="612.5" y="1135.0703">«Application»</text><text fill="#000000" font-family="sans-serif" font-size="14" lengthAdjust="spacing" textLength="143" x="587" y="1151.5586">AuthorizationService</text><rect fill="#E2E2F0" height="46.9766" rx="2.5" ry="2.5" style="stroke:#181818;stroke-width:0.5;" width="130" x="747" y="36"/><text fill="#000000" font-family="sans-serif" font-size="14" font-style="italic" lengthAdjust="spacing" textLength="61" x="781.5" y="56.5352">«service»</text><text fill="#000000" font-family="sans-serif" font-size="14" lengthAdjust="spacing" textLength="116" x="754" y="73.0234">ListExamsService</text><rect fill="#E2E2F0" height="46.9766" rx="2.5" ry="2.5" style="stroke:#181818;stroke-width:0.5;" width="130" x="747" y="1114.5352"/><text fill="#000000" font-family="sans-serif" font-size="14" font-style="italic" lengthAdjust="spacing" textLength="61" x="781.5" y="1135.0703">«service»</text><text fill="#000000" font-family="sans-serif" font-size="14" lengthAdjust="spacing" textLength="116" x="754" y="1151.5586">ListExamsService</text><rect fill="#E2E2F0" height="46.9766" rx="2.5" ry="2.5" style="stroke:#181818;stroke-width:0.5;" width="241" x="984.5" y="36"/><text fill="#000000" font-family="sans-serif" font-size="14" font-style="italic" lengthAdjust="spacing" textLength="61" x="1074.5" y="56.5352">«service»</text><text fill="#000000" font-family="sans-serif" font-size="14" lengthAdjust="spacing" textLength="227" x="991.5" y="73.0234">CourseEnrollmentRequestService</text><rect fill="#E2E2F0" height="46.9766" rx="2.5" ry="2.5" style="stroke:#181818;stroke-width:0.5;" width="241" x="984.5" y="1114.5352"/><text fill="#000000" font-family="sans-serif" font-size="14" font-style="italic" lengthAdjust="spacing" textLength="61" x="1074.5" y="1135.0703">«service»</text><text fill="#000000" font-family="sans-serif" font-size="14" lengthAdjust="spacing" textLength="227" x="991.5" y="1151.5586">CourseEnrollmentRequestService</text><rect fill="#E2E2F0" height="46.9766" rx="2.5" ry="2.5" style="stroke:#181818;stroke-width:0.5;" width="146" x="1250" y="36"/><text fill="#000000" font-family="sans-serif" font-size="14" font-style="italic" lengthAdjust="spacing" textLength="92" x="1277" y="56.5352">«persistence»</text><text fill="#000000" font-family="sans-serif" font-size="14" lengthAdjust="spacing" textLength="132" x="1257" y="73.0234">PersistenceContext</text><rect fill="#E2E2F0" height="46.9766" rx="2.5" ry="2.5" style="stroke:#181818;stroke-width:0.5;" width="146" x="1250" y="1114.5352"/><text fill="#000000" font-family="sans-serif" font-size="14" font-style="italic" lengthAdjust="spacing" textLength="92" x="1277" y="1135.0703">«persistence»</text><text fill="#000000" font-family="sans-serif" font-size="14" lengthAdjust="spacing" textLength="132" x="1257" y="1151.5586">PersistenceContext</text><rect fill="#E2E2F0" height="46.9766" rx="2.5" ry="2.5" style="stroke:#181818;stroke-width:0.5;" width="137" x="1546.5" y="36"/><text fill="#000000" font-family="sans-serif" font-size="14" font-style="italic" lengthAdjust="spacing" textLength="61" x="1584.5" y="56.5352">«factory»</text><text fill="#000000" font-family="sans-serif" font-size="14" lengthAdjust="spacing" textLength="123" x="1553.5" y="73.0234">RepositoryFactory</text><rect fill="#E2E2F0" height="46.9766" rx="2.5" ry="2.5" style="stroke:#181818;stroke-width:0.5;" width="137" x="1546.5" y="1114.5352"/><text fill="#000000" font-family="sans-serif" font-size="14" font-style="italic" lengthAdjust="spacing" textLength="61" x="1584.5" y="1135.0703">«factory»</text><text fill="#000000" font-family="sans-serif" font-size="14" lengthAdjust="spacing" textLength="123" x="1553.5" y="1151.5586">RepositoryFactory</text><text fill="#000000" font-family="sans-serif" font-size="14" font-style="italic" lengthAdjust="spacing" textLength="84" x="1714.5" y="64.5352">«repository»</text><text fill="#000000" font-family="sans-serif" font-size="14" lengthAdjust="spacing" textLength="126" x="1693.5" y="81.0234">StudentRepository</text><path d="M1741.5,15 C1741.5,5 1759.5,5 1759.5,5 C1759.5,5 1777.5,5 1777.5,15 L1777.5,41 C1777.5,51 1759.5,51 1759.5,51 C1759.5,51 1741.5,51 1741.5,41 L1741.5,15 " fill="#E2E2F0" style="stroke:#181818;stroke-width:1.5;"/><path d="M1741.5,15 C1741.5,25 1759.5,25 1759.5,25 C1759.5,25 1777.5,25 1777.5,15 " fill="none" style="stroke:#181818;stroke-width:1.5;"/><text fill="#000000" font-family="sans-serif" font-size="14" font-style="italic" lengthAdjust="spacing" textLength="84" x="1714.5" y="1128.0703">«repository»</text><text fill="#000000" font-family="sans-serif" font-size="14" lengthAdjust="spacing" textLength="126" x="1693.5" y="1144.5586">StudentRepository</text><path d="M1741.5,1157.5117 C1741.5,1147.5117 1759.5,1147.5117 1759.5,1147.5117 C1759.5,1147.5117 1777.5,1147.5117 1777.5,1157.5117 L1777.5,1183.5117 C1777.5,1193.5117 1759.5,1193.5117 1759.5,1193.5117 C1759.5,1193.5117 1741.5,1193.5117 1741.5,1183.5117 L1741.5,1157.5117 " fill="#E2E2F0" style="stroke:#181818;stroke-width:1.5;"/><path d="M1741.5,1157.5117 C1741.5,1167.5117 1759.5,1167.5117 1759.5,1167.5117 C1759.5,1167.5117 1777.5,1167.5117 1777.5,1157.5117 " fill="none" style="stroke:#181818;stroke-width:1.5;"/><text fill="#000000" font-family="sans-serif" font-size="14" font-style="italic" lengthAdjust="spacing" textLength="84" x="1852.5" y="64.5352">«repository»</text><text fill="#000000" font-family="sans-serif" font-size="14" lengthAdjust="spacing" textLength="118" x="1835.5" y="81.0234">ExamsRepository</text><path d="M1879.5,15 C1879.5,5 1897.5,5 1897.5,5 C1897.5,5 1915.5,5 1915.5,15 L1915.5,41 C1915.5,51 1897.5,51 1897.5,51 C1897.5,51 1879.5,51 1879.5,41 L1879.5,15 " fill="#E2E2F0" style="stroke:#181818;stroke-width:1.5;"/><path d="M1879.5,15 C1879.5,25 1897.5,25 1897.5,25 C1897.5,25 1915.5,25 1915.5,15 " fill="none" style="stroke:#181818;stroke-width:1.5;"/><text fill="#000000" font-family="sans-serif" font-size="14" font-style="italic" lengthAdjust="spacing" textLength="84" x="1852.5" y="1128.0703">«repository»</text><text fill="#000000" font-family="sans-serif" font-size="14" lengthAdjust="spacing" textLength="118" x="1835.5" y="1144.5586">ExamsRepository</text><path d="M1879.5,1157.5117 C1879.5,1147.5117 1897.5,1147.5117 1897.5,1147.5117 C1897.5,1147.5117 1915.5,1147.5117 1915.5,1157.5117 L1915.5,1183.5117 C1915.5,1193.5117 1897.5,1193.5117 1897.5,1193.5117 C1897.5,1193.5117 1879.5,1193.5117 1879.5,1183.5117 L1879.5,1157.5117 " fill="#E2E2F0" style="stroke:#181818;stroke-width:1.5;"/><path d="M1879.5,1157.5117 C1879.5,1167.5117 1897.5,1167.5117 1897.5,1167.5117 C1897.5,1167.5117 1915.5,1167.5117 1915.5,1157.5117 " fill="none" style="stroke:#181818;stroke-width:1.5;"/><text fill="#000000" font-family="sans-serif" font-size="14" font-style="italic" lengthAdjust="spacing" textLength="84" x="1988.5" y="64.5352">«repository»</text><text fill="#000000" font-family="sans-serif" font-size="14" lengthAdjust="spacing" textLength="122" x="1969.5" y="81.0234">CourseRepository</text><path d="M2015.5,15 C2015.5,5 2033.5,5 2033.5,5 C2033.5,5 2051.5,5 2051.5,15 L2051.5,41 C2051.5,51 2033.5,51 2033.5,51 C2033.5,51 2015.5,51 2015.5,41 L2015.5,15 " fill="#E2E2F0" style="stroke:#181818;stroke-width:1.5;"/><path d="M2015.5,15 C2015.5,25 2033.5,25 2033.5,25 C2033.5,25 2051.5,25 2051.5,15 " fill="none" style="stroke:#181818;stroke-width:1.5;"/><text fill="#000000" font-family="sans-serif" font-size="14" font-style="italic" lengthAdjust="spacing" textLength="84" x="1988.5" y="1128.0703">«repository»</text><text fill="#000000" font-family="sans-serif" font-size="14" lengthAdjust="spacing" textLength="122" x="1969.5" y="1144.5586">CourseRepository</text><path d="M2015.5,1157.5117 C2015.5,1147.5117 2033.5,1147.5117 2033.5,1147.5117 C2033.5,1147.5117 2051.5,1147.5117 2051.5,1157.5117 L2051.5,1183.5117 C2051.5,1193.5117 2033.5,1193.5117 2033.5,1193.5117 C2033.5,1193.5117 2015.5,1193.5117 2015.5,1183.5117 L2015.5,1157.5117 " fill="#E2E2F0" style="stroke:#181818;stroke-width:1.5;"/><path d="M2015.5,1157.5117 C2015.5,1167.5117 2033.5,1167.5117 2033.5,1167.5117 C2033.5,1167.5117 2051.5,1167.5117 2051.5,1157.5117 " fill="none" style="stroke:#181818;stroke-width:1.5;"/><text fill="#000000" font-family="sans-serif" font-size="14" font-style="italic" lengthAdjust="spacing" textLength="84" x="2191.5" y="64.5352">«repository»</text><text fill="#000000" font-family="sans-serif" font-size="14" lengthAdjust="spacing" textLength="252" x="2107.5" y="81.0234">CourseEnrollmentRequestRepository</text><path d="M2218.5,15 C2218.5,5 2236.5,5 2236.5,5 C2236.5,5 2254.5,5 2254.5,15 L2254.5,41 C2254.5,51 2236.5,51 2236.5,51 C2236.5,51 2218.5,51 2218.5,41 L2218.5,15 " fill="#E2E2F0" style="stroke:#181818;stroke-width:1.5;"/><path d="M2218.5,15 C2218.5,25 2236.5,25 2236.5,25 C2236.5,25 2254.5,25 2254.5,15 " fill="none" style="stroke:#181818;stroke-width:1.5;"/><text fill="#000000" font-family="sans-serif" font-size="14" font-style="italic" lengthAdjust="spacing" textLength="84" x="2191.5" y="1128.0703">«repository»</text><text fill="#000000" font-family="sans-serif" font-size="14" lengthAdjust="spacing" textLength="252" x="2107.5" y="1144.5586">CourseEnrollmentRequestRepository</text><path d="M2218.5,1157.5117 C2218.5,1147.5117 2236.5,1147.5117 2236.5,1147.5117 C2236.5,1147.5117 2254.5,1147.5117 2254.5,1157.5117 L2254.5,1183.5117 C2254.5,1193.5117 2236.5,1193.5117 2236.5,1193.5117 C2236.5,1193.5117 2218.5,1193.5117 2218.5,1183.5117 L2218.5,1157.5117 " fill="#E2E2F0" style="stroke:#181818;stroke-width:1.5;"/><path d="M2218.5,1157.5117 C2218.5,1167.5117 2236.5,1167.5117 2236.5,1167.5117 C2236.5,1167.5117 2254.5,1167.5117 2254.5,1157.5117 " fill="none" style="stroke:#181818;stroke-width:1.5;"/><rect fill="#E2E2F0" height="46.9766" rx="2.5" ry="2.5" style="stroke:#181818;stroke-width:0.5;" width="138" x="2375.5" y="36"/><text fill="#000000" font-family="sans-serif" font-size="14" font-style="italic" lengthAdjust="spacing" textLength="67" x="2411" y="56.5352">«Domain»</text><text fill="#000000" font-family="sans-serif" font-size="14" lengthAdjust="spacing" textLength="124" x="2382.5" y="73.0234">theCourse:Course</text><rect fill="#E2E2F0" height="46.9766" rx="2.5" ry="2.5" style="stroke:#181818;stroke-width:0.5;" width="138" x="2375.5" y="1114.5352"/><text fill="#000000" font-family="sans-serif" font-size="14" font-style="italic" lengthAdjust="spacing" textLength="67" x="2411" y="1135.0703">«Domain»</text><text fill="#000000" font-family="sans-serif" font-size="14" lengthAdjust="spacing" textLength="124" x="2382.5" y="1151.5586">theCourse:Course</text><rect fill="#E2E2F0" height="30.4883" rx="2.5" ry="2.5" style="stroke:#181818;stroke-width:0.5;" width="193" x="2523.5" y="52.4883"/><text fill="#000000" font-family="sans-serif" font-size="14" lengthAdjust="spacing" textLength="179" x="2530.5" y="73.0234">CourseEnrollmentRequest</text><rect fill="#E2E2F0" height="30.4883" rx="2.5" ry="2.5" style="stroke:#181818;stroke-width:0.5;" width="193" x="2523.5" y="1114.5352"/><text fill="#000000" font-family="sans-serif" font-size="14" lengthAdjust="spacing" textLength="179" x="2530.5" y="1135.0703">CourseEnrollmentRequest</text><rect fill="#E2E2F0" height="30.4883" rx="2.5" ry="2.5" style="stroke:#181818;stroke-width:0.5;" width="132" x="2726.5" y="52.4883"/><text fill="#000000" font-family="sans-serif" font-size="14" lengthAdjust="spacing" textLength="118" x="2733.5" y="73.0234">ExamsRepository</text><rect fill="#E2E2F0" height="30.4883" rx="2.5" ry="2.5" style="stroke:#181818;stroke-width:0.5;" width="132" x="2726.5" y="1114.5352"/><text fill="#000000" font-family="sans-serif" font-size="14" lengthAdjust="spacing" textLength="118" x="2733.5" y="1135.0703">ExamsRepository</text><rect fill="#FFFFFF" height="982.248" style="stroke:#181818;stroke-width:1.0;" width="10" x="163.5" y="115.2871"/><rect fill="#FFFFFF" height="923.627" style="stroke:#181818;stroke-width:1.0;" width="10" x="356.5" y="144.5977"/><rect fill="#FFFFFF" height="29.3105" style="stroke:#181818;stroke-width:1.0;" width="10" x="653.5" y="173.9082"/><rect fill="#FFFFFF" height="747.7637" style="stroke:#181818;stroke-width:1.0;" width="10" x="807" y="291.1504"/><rect fill="#FFFFFF" height="205.1738" style="stroke:#181818;stroke-width:1.0;" width="10" x="1100" y="549.9453"/><rect fill="#FFFFFF" height="146.5527" style="stroke:#181818;stroke-width:1.0;" width="10" x="1318" y="320.4609"/><rect fill="#FFFFFF" height="146.5527" style="stroke:#181818;stroke-width:1.0;" width="10" x="1318" y="579.2559"/><rect fill="#FFFFFF" height="146.5527" style="stroke:#181818;stroke-width:1.0;" width="10" x="1318" y="856.0508"/><rect fill="#FFFFFF" height="87.9316" style="stroke:#181818;stroke-width:1.0;" width="10" x="1610" y="349.7715"/><rect fill="#FFFFFF" height="87.9316" style="stroke:#181818;stroke-width:1.0;" width="10" x="1610" y="608.5664"/><rect fill="#FFFFFF" height="87.9316" style="stroke:#181818;stroke-width:1.0;" width="10" x="1610" y="885.3613"/><rect fill="#FFFFFF" height="29.3105" style="stroke:#181818;stroke-width:1.0;" width="10" x="1754.5" y="232.5293"/><rect fill="#FFFFFF" height="29.3105" style="stroke:#181818;stroke-width:1.0;" width="10" x="2028.5" y="379.082"/><rect fill="#FFFFFF" height="29.3105" style="stroke:#181818;stroke-width:1.0;" width="10" x="2231.5" y="637.877"/><rect fill="#FFFFFF" height="29.3105" style="stroke:#181818;stroke-width:1.0;" width="10" x="2787.5" y="914.6719"/><polygon fill="#181818" points="151.5,111.2871,161.5,115.2871,151.5,119.2871,155.5,115.2871" style="stroke:#181818;stroke-width:1.0;"/><line style="stroke:#181818;stroke-width:1.0;" x1="34.5" x2="157.5" y1="115.2871" y2="115.2871"/><text fill="#000000" font-family="sans-serif" font-size="13" font-weight="bold" lengthAdjust="spacing" textLength="9" x="41.5" y="110.5449">1</text><text fill="#000000" font-family="sans-serif" font-size="13" lengthAdjust="spacing" textLength="65" x="54.5" y="110.5449">elements()</text><polygon fill="#181818" points="344.5,140.5977,354.5,144.5977,344.5,148.5977,348.5,144.5977" style="stroke:#181818;stroke-width:1.0;"/><line style="stroke:#181818;stroke-width:1.0;" x1="173.5" x2="350.5" y1="144.5977" y2="144.5977"/><text fill="#000000" font-family="sans-serif" font-size="13" font-weight="bold" lengthAdjust="spacing" textLength="9" x="180.5" y="139.8555">2</text><text fill="#000000" font-family="sans-serif" font-size="13" lengthAdjust="spacing" textLength="151" x="193.5" y="139.8555">examOfLoggedStudent()</text><polygon fill="#181818" points="641.5,169.9082,651.5,173.9082,641.5,177.9082,645.5,173.9082" style="stroke:#181818;stroke-width:1.0;"/><line style="stroke:#181818;stroke-width:1.0;" x1="366.5" x2="647.5" y1="173.9082" y2="173.9082"/><text fill="#000000" font-family="sans-serif" font-size="13" font-weight="bold" lengthAdjust="spacing" textLength="9" x="373.5" y="169.166">3</text><text fill="#000000" font-family="sans-serif" font-size="13" lengthAdjust="spacing" textLength="255" x="386.5" y="169.166">session().authenticatedUser().username()</text><polygon fill="#181818" points="377.5,199.2188,367.5,203.2188,377.5,207.2188,373.5,203.2188" style="stroke:#181818;stroke-width:1.0;"/><line style="stroke:#181818;stroke-width:1.0;" x1="371.5" x2="657.5" y1="203.2188" y2="203.2188"/><text fill="#000000" font-family="sans-serif" font-size="13" font-weight="bold" lengthAdjust="spacing" textLength="9" x="383.5" y="198.4766">4</text><text fill="#000000" font-family="sans-serif" font-size="13" lengthAdjust="spacing" textLength="61" x="396.5" y="198.4766">username</text><polygon fill="#181818" points="1742.5,228.5293,1752.5,232.5293,1742.5,236.5293,1746.5,232.5293" style="stroke:#181818;stroke-width:1.0;"/><line style="stroke:#181818;stroke-width:1.0;" x1="366.5" x2="1748.5" y1="232.5293" y2="232.5293"/><text fill="#000000" font-family="sans-serif" font-size="13" font-weight="bold" lengthAdjust="spacing" textLength="9" x="373.5" y="227.7871">5</text><text fill="#000000" font-family="sans-serif" font-size="13" lengthAdjust="spacing" textLength="170" x="386.5" y="227.7871">findByUsername(username)</text><polygon fill="#181818" points="377.5,257.8398,367.5,261.8398,377.5,265.8398,373.5,261.8398" style="stroke:#181818;stroke-width:1.0;"/><line style="stroke:#181818;stroke-width:1.0;" x1="371.5" x2="1758.5" y1="261.8398" y2="261.8398"/><text fill="#000000" font-family="sans-serif" font-size="13" font-weight="bold" lengthAdjust="spacing" textLength="9" x="383.5" y="257.0977">6</text><text fill="#000000" font-family="sans-serif" font-size="13" lengthAdjust="spacing" textLength="48" x="396.5" y="257.0977">student</text><polygon fill="#181818" points="795,287.1504,805,291.1504,795,295.1504,799,291.1504" style="stroke:#181818;stroke-width:1.0;"/><line style="stroke:#181818;stroke-width:1.0;" x1="366.5" x2="801" y1="291.1504" y2="291.1504"/><text fill="#000000" font-family="sans-serif" font-size="13" font-weight="bold" lengthAdjust="spacing" textLength="9" x="373.5" y="286.4082">7</text><text fill="#000000" font-family="sans-serif" font-size="13" lengthAdjust="spacing" textLength="199" x="386.5" y="286.4082">examOfLoggedStudent(student)</text><polygon fill="#181818" points="1306,316.4609,1316,320.4609,1306,324.4609,1310,320.4609" style="stroke:#181818;stroke-width:1.0;"/><line style="stroke:#181818;stroke-width:1.0;" x1="817" x2="1312" y1="320.4609" y2="320.4609"/><text fill="#000000" font-family="sans-serif" font-size="13" font-weight="bold" lengthAdjust="spacing" textLength="9" x="824" y="315.7188">8</text><text fill="#000000" font-family="sans-serif" font-size="13" lengthAdjust="spacing" textLength="86" x="837" y="315.7188">Repositories()</text><polygon fill="#181818" points="1598,345.7715,1608,349.7715,1598,353.7715,1602,349.7715" style="stroke:#181818;stroke-width:1.0;"/><line style="stroke:#181818;stroke-width:1.0;" x1="1328" x2="1604" y1="349.7715" y2="349.7715"/><text fill="#000000" font-family="sans-serif" font-size="13" font-weight="bold" lengthAdjust="spacing" textLength="9" x="1335" y="345.0293">9</text><text fill="#000000" font-family="sans-serif" font-size="13" lengthAdjust="spacing" textLength="59" x="1348" y="345.0293">Courses()</text><polygon fill="#181818" points="2016.5,375.082,2026.5,379.082,2016.5,383.082,2020.5,379.082" style="stroke:#181818;stroke-width:1.0;"/><line style="stroke:#181818;stroke-width:1.0;" x1="1620" x2="2022.5" y1="379.082" y2="379.082"/><text fill="#000000" font-family="sans-serif" font-size="13" font-weight="bold" lengthAdjust="spacing" textLength="18" x="1627" y="374.3398">10</text><text fill="#000000" font-family="sans-serif" font-size="13" lengthAdjust="spacing" textLength="50" x="1649" y="374.3398">findAll()</text><polygon fill="#181818" points="1631,404.3926,1621,408.3926,1631,412.3926,1627,408.3926" style="stroke:#181818;stroke-width:1.0;"/><line style="stroke:#181818;stroke-width:1.0;" x1="1625" x2="2032.5" y1="408.3926" y2="408.3926"/><text fill="#000000" font-family="sans-serif" font-size="13" font-weight="bold" lengthAdjust="spacing" textLength="18" x="1637" y="403.6504">11</text><text fill="#000000" font-family="sans-serif" font-size="13" lengthAdjust="spacing" textLength="217" x="1659" y="403.6504">Iterable&lt;Course&gt; enrolledCourses</text><polygon fill="#181818" points="1339,433.7031,1329,437.7031,1339,441.7031,1335,437.7031" style="stroke:#181818;stroke-width:1.0;"/><line style="stroke:#181818;stroke-width:1.0;" x1="1333" x2="1614" y1="437.7031" y2="437.7031"/><text fill="#000000" font-family="sans-serif" font-size="13" font-weight="bold" lengthAdjust="spacing" textLength="18" x="1345" y="432.9609">12</text><text fill="#000000" font-family="sans-serif" font-size="13" lengthAdjust="spacing" textLength="217" x="1367" y="432.9609">Iterable&lt;Course&gt; enrolledCourses</text><polygon fill="#181818" points="828,463.0137,818,467.0137,828,471.0137,824,467.0137" style="stroke:#181818;stroke-width:1.0;"/><line style="stroke:#181818;stroke-width:1.0;" x1="822" x2="1322" y1="467.0137" y2="467.0137"/><text fill="#000000" font-family="sans-serif" font-size="13" font-weight="bold" lengthAdjust="spacing" textLength="18" x="834" y="462.2715">13</text><text fill="#000000" font-family="sans-serif" font-size="13" lengthAdjust="spacing" textLength="217" x="856" y="462.2715">Iterable&lt;Course&gt; enrolledCourses</text><path d="M737,482.0137 L811,482.0137 L811,489.3242 L801,499.3242 L737,499.3242 L737,482.0137 " fill="#EEEEEE" style="stroke:#000000;stroke-width:1.5;"/><rect fill="none" height="528.5898" style="stroke:#000000;stroke-width:1.5;" width="2131.5" x="737" y="482.0137"/><text fill="#000000" font-family="sans-serif" font-size="13" font-weight="bold" lengthAdjust="spacing" textLength="29" x="752" y="495.582">loop</text><text fill="#000000" font-family="sans-serif" font-size="11" font-weight="bold" lengthAdjust="spacing" textLength="107" x="826" y="494.6484">[Iterable&lt;Course&gt;]</text><polygon fill="#181818" points="2432.5,516.6348,2442.5,520.6348,2432.5,524.6348,2436.5,520.6348" style="stroke:#181818;stroke-width:1.0;"/><line style="stroke:#181818;stroke-width:1.0;" x1="817" x2="2438.5" y1="520.6348" y2="520.6348"/><text fill="#000000" font-family="sans-serif" font-size="13" font-weight="bold" lengthAdjust="spacing" textLength="18" x="824" y="515.8926">14</text><text fill="#000000" font-family="sans-serif" font-size="13" lengthAdjust="spacing" textLength="216" x="846" y="515.8926">getActualState().equals("Progress")</text><polygon fill="#181818" points="1088,545.9453,1098,549.9453,1088,553.9453,1092,549.9453" style="stroke:#181818;stroke-width:1.0;"/><line style="stroke:#181818;stroke-width:1.0;" x1="817" x2="1094" y1="549.9453" y2="549.9453"/><text fill="#000000" font-family="sans-serif" font-size="13" font-weight="bold" lengthAdjust="spacing" textLength="18" x="824" y="545.2031">15</text><text fill="#000000" font-family="sans-serif" font-size="13" lengthAdjust="spacing" textLength="242" x="846" y="545.2031">getStudentEnrollment(student, course)</text><polygon fill="#181818" points="1306,575.2559,1316,579.2559,1306,583.2559,1310,579.2559" style="stroke:#181818;stroke-width:1.0;"/><line style="stroke:#181818;stroke-width:1.0;" x1="1110" x2="1312" y1="579.2559" y2="579.2559"/><text fill="#000000" font-family="sans-serif" font-size="13" font-weight="bold" lengthAdjust="spacing" textLength="18" x="1117" y="574.5137">16</text><text fill="#000000" font-family="sans-serif" font-size="13" lengthAdjust="spacing" textLength="83" x="1139" y="574.5137">repositories()</text><polygon fill="#181818" points="1598,604.5664,1608,608.5664,1598,612.5664,1602,608.5664" style="stroke:#181818;stroke-width:1.0;"/><line style="stroke:#181818;stroke-width:1.0;" x1="1328" x2="1604" y1="608.5664" y2="608.5664"/><text fill="#000000" font-family="sans-serif" font-size="13" font-weight="bold" lengthAdjust="spacing" textLength="18" x="1335" y="603.8242">17</text><text fill="#000000" font-family="sans-serif" font-size="13" lengthAdjust="spacing" textLength="241" x="1357" y="603.8242">findByStudentAndCourse(user, course)</text><polygon fill="#181818" points="2219.5,633.877,2229.5,637.877,2219.5,641.877,2223.5,637.877" style="stroke:#181818;stroke-width:1.0;"/><line style="stroke:#181818;stroke-width:1.0;" x1="1620" x2="2225.5" y1="637.877" y2="637.877"/><text fill="#000000" font-family="sans-serif" font-size="13" font-weight="bold" lengthAdjust="spacing" textLength="18" x="1627" y="633.1348">18</text><text fill="#000000" font-family="sans-serif" font-size="13" lengthAdjust="spacing" textLength="241" x="1649" y="633.1348">findByStudentAndCourse(user, course)</text><polygon fill="#181818" points="1631,663.1875,1621,667.1875,1631,671.1875,1627,667.1875" style="stroke:#181818;stroke-width:1.0;"/><line style="stroke:#181818;stroke-width:1.0;" x1="1625" x2="2235.5" y1="667.1875" y2="667.1875"/><text fill="#000000" font-family="sans-serif" font-size="13" font-weight="bold" lengthAdjust="spacing" textLength="18" x="1637" y="662.4453">19</text><text fill="#000000" font-family="sans-serif" font-size="13" lengthAdjust="spacing" textLength="162" x="1659" y="662.4453">CourseEnrollmentRequest</text><polygon fill="#181818" points="1339,692.498,1329,696.498,1339,700.498,1335,696.498" style="stroke:#181818;stroke-width:1.0;"/><line style="stroke:#181818;stroke-width:1.0;" x1="1333" x2="1614" y1="696.498" y2="696.498"/><text fill="#000000" font-family="sans-serif" font-size="13" font-weight="bold" lengthAdjust="spacing" textLength="18" x="1345" y="691.7559">20</text><text fill="#000000" font-family="sans-serif" font-size="13" lengthAdjust="spacing" textLength="162" x="1367" y="691.7559">CourseEnrollmentRequest</text><polygon fill="#181818" points="1121,721.8086,1111,725.8086,1121,729.8086,1117,725.8086" style="stroke:#181818;stroke-width:1.0;"/><line style="stroke:#181818;stroke-width:1.0;" x1="1115" x2="1322" y1="725.8086" y2="725.8086"/><text fill="#000000" font-family="sans-serif" font-size="13" font-weight="bold" lengthAdjust="spacing" textLength="18" x="1127" y="721.0664">21</text><text fill="#000000" font-family="sans-serif" font-size="13" lengthAdjust="spacing" textLength="162" x="1149" y="721.0664">CourseEnrollmentRequest</text><polygon fill="#181818" points="828,751.1191,818,755.1191,828,759.1191,824,755.1191" style="stroke:#181818;stroke-width:1.0;"/><line style="stroke:#181818;stroke-width:1.0;" x1="822" x2="1104" y1="755.1191" y2="755.1191"/><text fill="#000000" font-family="sans-serif" font-size="13" font-weight="bold" lengthAdjust="spacing" textLength="18" x="834" y="750.377">22</text><text fill="#000000" font-family="sans-serif" font-size="13" lengthAdjust="spacing" textLength="162" x="856" y="750.377">CourseEnrollmentRequest</text><polygon fill="#181818" points="2608,780.4297,2618,784.4297,2608,788.4297,2612,784.4297" style="stroke:#181818;stroke-width:1.0;"/><line style="stroke:#181818;stroke-width:1.0;" x1="817" x2="2614" y1="784.4297" y2="784.4297"/><text fill="#000000" font-family="sans-serif" font-size="13" font-weight="bold" lengthAdjust="spacing" textLength="18" x="824" y="779.6875">23</text><text fill="#000000" font-family="sans-serif" font-size="13" lengthAdjust="spacing" textLength="157" x="846" y="779.6875">courseEnrollmentStatus()</text><line style="stroke:#181818;stroke-width:1.0;" x1="817" x2="859" y1="813.7402" y2="813.7402"/><line style="stroke:#181818;stroke-width:1.0;" x1="859" x2="859" y1="813.7402" y2="826.7402"/><line style="stroke:#181818;stroke-width:1.0;" x1="818" x2="859" y1="826.7402" y2="826.7402"/><polygon fill="#181818" points="828,822.7402,818,826.7402,828,830.7402,824,826.7402" style="stroke:#181818;stroke-width:1.0;"/><text fill="#000000" font-family="sans-serif" font-size="13" font-weight="bold" lengthAdjust="spacing" textLength="18" x="824" y="808.998">24</text><text fill="#000000" font-family="sans-serif" font-size="13" lengthAdjust="spacing" textLength="210" x="846" y="808.998">getExamByCourse(Course course)</text><polygon fill="#181818" points="1306,852.0508,1316,856.0508,1306,860.0508,1310,856.0508" style="stroke:#181818;stroke-width:1.0;"/><line style="stroke:#181818;stroke-width:1.0;" x1="817" x2="1312" y1="856.0508" y2="856.0508"/><text fill="#000000" font-family="sans-serif" font-size="13" font-weight="bold" lengthAdjust="spacing" textLength="18" x="824" y="851.3086">25</text><text fill="#000000" font-family="sans-serif" font-size="13" lengthAdjust="spacing" textLength="83" x="846" y="851.3086">repositories()</text><polygon fill="#181818" points="1598,881.3613,1608,885.3613,1598,889.3613,1602,885.3613" style="stroke:#181818;stroke-width:1.0;"/><line style="stroke:#181818;stroke-width:1.0;" x1="1328" x2="1604" y1="885.3613" y2="885.3613"/><text fill="#000000" font-family="sans-serif" font-size="13" font-weight="bold" lengthAdjust="spacing" textLength="18" x="1335" y="880.6191">26</text><text fill="#000000" font-family="sans-serif" font-size="13" lengthAdjust="spacing" textLength="50" x="1357" y="880.6191">findAll()</text><polygon fill="#181818" points="2775.5,910.6719,2785.5,914.6719,2775.5,918.6719,2779.5,914.6719" style="stroke:#181818;stroke-width:1.0;"/><line style="stroke:#181818;stroke-width:1.0;" x1="1620" x2="2781.5" y1="914.6719" y2="914.6719"/><text fill="#000000" font-family="sans-serif" font-size="13" font-weight="bold" lengthAdjust="spacing" textLength="18" x="1627" y="909.9297">27</text><text fill="#000000" font-family="sans-serif" font-size="13" lengthAdjust="spacing" textLength="50" x="1649" y="909.9297">findAll()</text><polygon fill="#181818" points="1631,939.9824,1621,943.9824,1631,947.9824,1627,943.9824" style="stroke:#181818;stroke-width:1.0;"/><line style="stroke:#181818;stroke-width:1.0;" x1="1625" x2="2791.5" y1="943.9824" y2="943.9824"/><text fill="#000000" font-family="sans-serif" font-size="13" font-weight="bold" lengthAdjust="spacing" textLength="18" x="1637" y="939.2402">28</text><text fill="#000000" font-family="sans-serif" font-size="13" lengthAdjust="spacing" textLength="41" x="1659" y="939.2402">exams</text><polygon fill="#181818" points="1339,969.293,1329,973.293,1339,977.293,1335,973.293" style="stroke:#181818;stroke-width:1.0;"/><line style="stroke:#181818;stroke-width:1.0;" x1="1333" x2="1614" y1="973.293" y2="973.293"/><text fill="#000000" font-family="sans-serif" font-size="13" font-weight="bold" lengthAdjust="spacing" textLength="18" x="1345" y="968.5508">29</text><text fill="#000000" font-family="sans-serif" font-size="13" lengthAdjust="spacing" textLength="41" x="1367" y="968.5508">exams</text><polygon fill="#181818" points="828,998.6035,818,1002.6035,828,1006.6035,824,1002.6035" style="stroke:#181818;stroke-width:1.0;"/><line style="stroke:#181818;stroke-width:1.0;" x1="822" x2="1322" y1="1002.6035" y2="1002.6035"/><text fill="#000000" font-family="sans-serif" font-size="13" font-weight="bold" lengthAdjust="spacing" textLength="18" x="834" y="997.8613">30</text><text fill="#000000" font-family="sans-serif" font-size="13" lengthAdjust="spacing" textLength="41" x="856" y="997.8613">exams</text><polygon fill="#181818" points="377.5,1034.9141,367.5,1038.9141,377.5,1042.9141,373.5,1038.9141" style="stroke:#181818;stroke-width:1.0;"/><line style="stroke:#181818;stroke-width:1.0;" x1="371.5" x2="811" y1="1038.9141" y2="1038.9141"/><text fill="#000000" font-family="sans-serif" font-size="13" font-weight="bold" lengthAdjust="spacing" textLength="18" x="383.5" y="1034.1719">31</text><text fill="#000000" font-family="sans-serif" font-size="13" lengthAdjust="spacing" textLength="41" x="405.5" y="1034.1719">exams</text><polygon fill="#181818" points="184.5,1064.2246,174.5,1068.2246,184.5,1072.2246,180.5,1068.2246" style="stroke:#181818;stroke-width:1.0;"/><line style="stroke:#181818;stroke-width:1.0;" x1="178.5" x2="360.5" y1="1068.2246" y2="1068.2246"/><text fill="#000000" font-family="sans-serif" font-size="13" font-weight="bold" lengthAdjust="spacing" textLength="18" x="190.5" y="1063.4824">32</text><text fill="#000000" font-family="sans-serif" font-size="13" lengthAdjust="spacing" textLength="41" x="212.5" y="1063.4824">exams</text><polygon fill="#181818" points="45.5,1093.5352,35.5,1097.5352,45.5,1101.5352,41.5,1097.5352" style="stroke:#181818;stroke-width:1.0;"/><line style="stroke:#181818;stroke-width:1.0;" x1="39.5" x2="167.5" y1="1097.5352" y2="1097.5352"/><text fill="#000000" font-family="sans-serif" font-size="13" font-weight="bold" lengthAdjust="spacing" textLength="18" x="51.5" y="1092.793">33</text><text fill="#000000" font-family="sans-serif" font-size="13" lengthAdjust="spacing" textLength="83" x="73.5" y="1092.793">ExamPrinter()</text><!--SRC=[lLR1RgCm4BtxAr1EgRJR3q0eKjhDIf4gRPKe7-26QMg9ODOsLTEltx6nOMoWRNfO3WcOUS_3cpUsUMjatPwVG376ZqQgR6_Q4cgJSPsjxG1hk3BYA1gEWmz2cyqRF-l3rWRWRr4q2ZG2k16oNgscm-zbRPIiAb0MHfwAWZULE4w1rwrvaKgyktTxKA_Y22uh77z7uBgPG_RJ4bIuBGhTtIMOUzag3PlQvdN6pzd1tnQq8Gptczrd98-WDCuDzH7iDyARav6CMhc6fmIzWqPgWP9VVhjIN2mut1R5StU7e98R_iGrX5eDG8lGey6YKFq3XJkDOl0NK9rICUoOZdqC7iaSiw7IyrHKiOLvWOunx_uMdRtiBU9-oJCNrXpCEJdxkKB7vXbKOAVMonjhUV7A3U0uGpDZmE1D34Hz_Zm_oDC9IYyrnGoXZ3WQEPn3yqo3rcZEvSqjnm44MxT2UK3lu5YBVpK_0sLqGDOPFCabXBCIal1uxb7ry-nPrENTvH3c2qnatX68ZKsKvEC3Q3fZbZWrtptJkdemISg7iz1qo40wAH-iAY0g9GbYjFKGxvifznQ9OFuT2ms7uQchEodNLKLnQH0RzGATU6j0yQSAYYw3LGQk5Q3q6L4zHymajKY9QqZ3PoRAzBMvXeigdU5LITcC2DmRUv4w-fxDJc2mCrjUxN7xm4wunTM0LtgvU5JoXDkANjnCmlkLs55u2msBIZ3J3o_XG3BqRa_HloFhUogmYgqsOak5iDUSzRfkz3clQw-hwyeFyWrb2o-85QBLyhly4GcLPCR7C-juZoGkcQQUy_8LnAacYUBK9LUmJjKojiPtM2VyDkg74L7kwpMyi7tIKWjEfOKjONVskuillTyFqzh_BxDtw-KrZaxE9H_I9B5zG7gseLdP_KTFLMcERCwiiqIVM3FQ2VLNN0XroIB3nAUKQ5aEHejtNtVoIKF94QOx_hY3Kkw4U5G2Zx1uLA60m_OV]--></g></svg>