<?xml version="1.0" encoding="UTF-8" standalone="no"?><svg xmlns="http://www.w3.org/2000/svg" xmlns:xlink="http://www.w3.org/1999/xlink" contentStyleType="text/css" height="611px" preserveAspectRatio="none" style="width:225px;height:611px;background:#FFFFFF;" version="1.1" viewBox="0 0 225 611" width="225px" zoomAndPan="magnify"><defs/><g><!--class ListExamsUI--><g id="elem_ListExamsUI"><rect codeLine="2" fill="#F1F1F1" height="64.4883" id="ListExamsUI" rx="2.5" ry="2.5" style="stroke:#181818;stroke-width:0.5;" width="114" x="35" y="7"/><ellipse cx="50" cy="23" fill="#ADD1B2" rx="11" ry="11" style="stroke:#181818;stroke-width:1.0;"/><path d="M52.9731,28.6431 Q52.3921,28.9419 51.7529,29.0913 Q51.1138,29.2407 50.4082,29.2407 Q47.9014,29.2407 46.5815,27.5889 Q45.2617,25.937 45.2617,22.8159 Q45.2617,19.6865 46.5815,18.0347 Q47.9014,16.3828 50.4082,16.3828 Q51.1138,16.3828 51.7612,16.5322 Q52.4087,16.6816 52.9731,16.9805 L52.9731,19.7031 Q52.3423,19.1221 51.7488,18.8523 Q51.1553,18.5825 50.5244,18.5825 Q49.1797,18.5825 48.4949,19.6492 Q47.8101,20.7158 47.8101,22.8159 Q47.8101,24.9077 48.4949,25.9744 Q49.1797,27.041 50.5244,27.041 Q51.1553,27.041 51.7488,26.7712 Q52.3423,26.5015 52.9731,25.9204 Z " fill="#000000"/><text fill="#000000" font-family="sans-serif" font-size="14" lengthAdjust="spacing" textLength="82" x="64" y="28.291">ListExamsUI</text><line style="stroke:#181818;stroke-width:0.5;" x1="36" x2="148" y1="39" y2="39"/><line style="stroke:#181818;stroke-width:0.5;" x1="36" x2="148" y1="47" y2="47"/><text fill="#000000" font-family="sans-serif" font-size="14" lengthAdjust="spacing" textLength="65" x="41" y="64.5352">doShow()</text></g><!--class ListExamsController--><g id="elem_ListExamsController"><rect codeLine="6" fill="#F1F1F1" height="64.4883" id="ListExamsController" rx="2.5" ry="2.5" style="stroke:#181818;stroke-width:0.5;" width="170" x="7" y="148.48"/><ellipse cx="22" cy="164.48" fill="#ADD1B2" rx="11" ry="11" style="stroke:#181818;stroke-width:1.0;"/><path d="M24.9731,170.1231 Q24.3921,170.4219 23.7529,170.5713 Q23.1138,170.7207 22.4082,170.7207 Q19.9014,170.7207 18.5815,169.0689 Q17.2617,167.417 17.2617,164.2959 Q17.2617,161.1665 18.5815,159.5147 Q19.9014,157.8628 22.4082,157.8628 Q23.1138,157.8628 23.7612,158.0122 Q24.4087,158.1616 24.9731,158.4605 L24.9731,161.1831 Q24.3423,160.6021 23.7488,160.3323 Q23.1553,160.0625 22.5244,160.0625 Q21.1797,160.0625 20.4949,161.1292 Q19.8101,162.1958 19.8101,164.2959 Q19.8101,166.3877 20.4949,167.4544 Q21.1797,168.521 22.5244,168.521 Q23.1553,168.521 23.7488,168.2512 Q24.3423,167.9815 24.9731,167.4004 Z " fill="#000000"/><text fill="#000000" font-family="sans-serif" font-size="14" lengthAdjust="spacing" textLength="138" x="36" y="169.771">ListExamsController</text><line style="stroke:#181818;stroke-width:0.5;" x1="8" x2="176" y1="180.48" y2="180.48"/><line style="stroke:#181818;stroke-width:0.5;" x1="8" x2="176" y1="188.48" y2="188.48"/><text fill="#000000" font-family="sans-serif" font-size="14" lengthAdjust="spacing" textLength="114" x="13" y="206.0152">getOpenExams()</text></g><!--class ListExamsService--><g id="elem_ListExamsService"><rect codeLine="10" fill="#F1F1F1" height="64.4883" id="ListExamsService" rx="2.5" ry="2.5" style="stroke:#181818;stroke-width:0.5;" width="148" x="18" y="289.97"/><ellipse cx="33" cy="305.97" fill="#ADD1B2" rx="11" ry="11" style="stroke:#181818;stroke-width:1.0;"/><path d="M35.9731,311.6131 Q35.3921,311.9119 34.7529,312.0613 Q34.1138,312.2107 33.4082,312.2107 Q30.9014,312.2107 29.5815,310.5589 Q28.2617,308.907 28.2617,305.7859 Q28.2617,302.6565 29.5815,301.0047 Q30.9014,299.3528 33.4082,299.3528 Q34.1138,299.3528 34.7612,299.5022 Q35.4087,299.6516 35.9731,299.9505 L35.9731,302.6731 Q35.3423,302.0921 34.7488,301.8223 Q34.1553,301.5525 33.5244,301.5525 Q32.1797,301.5525 31.4949,302.6192 Q30.8101,303.6858 30.8101,305.7859 Q30.8101,307.8777 31.4949,308.9444 Q32.1797,310.011 33.5244,310.011 Q34.1553,310.011 34.7488,309.7412 Q35.3423,309.4715 35.9731,308.8904 Z " fill="#000000"/><text fill="#000000" font-family="sans-serif" font-size="14" lengthAdjust="spacing" textLength="116" x="47" y="311.261">ListExamsService</text><line style="stroke:#181818;stroke-width:0.5;" x1="19" x2="165" y1="321.97" y2="321.97"/><line style="stroke:#181818;stroke-width:0.5;" x1="19" x2="165" y1="329.97" y2="329.97"/><text fill="#000000" font-family="sans-serif" font-size="14" lengthAdjust="spacing" textLength="125" x="24" y="347.5052">getOpenCourses()</text></g><!--class ExamRepository--><g id="elem_ExamRepository"><rect codeLine="14" fill="#F1F1F1" height="48" id="ExamRepository" rx="2.5" ry="2.5" style="stroke:#181818;stroke-width:0.5;" width="143" x="20.5" y="431.46"/><ellipse cx="35.5" cy="447.46" fill="#ADD1B2" rx="11" ry="11" style="stroke:#181818;stroke-width:1.0;"/><path d="M38.4731,453.1031 Q37.8921,453.4019 37.2529,453.5513 Q36.6138,453.7007 35.9082,453.7007 Q33.4014,453.7007 32.0815,452.0489 Q30.7617,450.397 30.7617,447.2759 Q30.7617,444.1465 32.0815,442.4947 Q33.4014,440.8428 35.9082,440.8428 Q36.6138,440.8428 37.2612,440.9922 Q37.9087,441.1416 38.4731,441.4405 L38.4731,444.1631 Q37.8423,443.5821 37.2488,443.3123 Q36.6553,443.0425 36.0244,443.0425 Q34.6797,443.0425 33.9949,444.1092 Q33.3101,445.1758 33.3101,447.2759 Q33.3101,449.3677 33.9949,450.4344 Q34.6797,451.501 36.0244,451.501 Q36.6553,451.501 37.2488,451.2312 Q37.8423,450.9615 38.4731,450.3804 Z " fill="#000000"/><text fill="#000000" font-family="sans-serif" font-size="14" lengthAdjust="spacing" textLength="111" x="49.5" y="452.751">ExamRepository</text><line style="stroke:#181818;stroke-width:0.5;" x1="21.5" x2="162.5" y1="463.46" y2="463.46"/><line style="stroke:#181818;stroke-width:0.5;" x1="21.5" x2="162.5" y1="471.46" y2="471.46"/></g><!--class Exam--><g id="elem_Exam"><rect codeLine="17" fill="#F1F1F1" height="48" id="Exam" rx="2.5" ry="2.5" style="stroke:#181818;stroke-width:0.5;" width="70" x="57" y="556.46"/><ellipse cx="72" cy="572.46" fill="#ADD1B2" rx="11" ry="11" style="stroke:#181818;stroke-width:1.0;"/><path d="M74.9731,578.1031 Q74.3921,578.4019 73.7529,578.5513 Q73.1138,578.7007 72.4082,578.7007 Q69.9014,578.7007 68.5815,577.0489 Q67.2617,575.397 67.2617,572.2759 Q67.2617,569.1465 68.5815,567.4947 Q69.9014,565.8428 72.4082,565.8428 Q73.1138,565.8428 73.7612,565.9922 Q74.4087,566.1416 74.9731,566.4405 L74.9731,569.1631 Q74.3423,568.5821 73.7488,568.3123 Q73.1553,568.0425 72.5244,568.0425 Q71.1797,568.0425 70.4949,569.1092 Q69.8101,570.1758 69.8101,572.2759 Q69.8101,574.3677 70.4949,575.4344 Q71.1797,576.501 72.5244,576.501 Q73.1553,576.501 73.7488,576.2312 Q74.3423,575.9615 74.9731,575.3804 Z " fill="#000000"/><text fill="#000000" font-family="sans-serif" font-size="14" lengthAdjust="spacing" textLength="38" x="86" y="577.751">Exam</text><line style="stroke:#181818;stroke-width:0.5;" x1="58" x2="126" y1="588.46" y2="588.46"/><line style="stroke:#181818;stroke-width:0.5;" x1="58" x2="126" y1="596.46" y2="596.46"/></g><!--link ListExamsUI to ListExamsController--><g id="link_ListExamsUI_ListExamsController"><path codeLine="20" d="M92,71.89 C92,92.85 92,120.42 92,142.44 " fill="none" id="ListExamsUI-to-ListExamsController" style="stroke:#181818;stroke-width:1.0;"/><polygon fill="#181818" points="92,147.2,96,138.2,92,142.2,88,138.2,92,147.2" style="stroke:#181818;stroke-width:1.0;"/><text fill="#000000" font-family="sans-serif" font-size="13" lengthAdjust="spacing" textLength="29" x="93" y="115.0484">uses</text></g><!--link ListExamsController to ListExamsService--><g id="link_ListExamsController_ListExamsService"><path codeLine="21" d="M92,213.38 C92,234.34 92,261.91 92,283.93 " fill="none" id="ListExamsController-to-ListExamsService" style="stroke:#181818;stroke-width:1.0;"/><polygon fill="#181818" points="92,288.69,96,279.69,92,283.69,88,279.69,92,288.69" style="stroke:#181818;stroke-width:1.0;"/><text fill="#000000" font-family="sans-serif" font-size="13" lengthAdjust="spacing" textLength="29" x="93" y="256.5384">uses</text></g><!--link ListExamsService to ExamRepository--><g id="link_ListExamsService_ExamRepository"><path codeLine="22" d="M92,354.65 C92,376.05 92,404.17 92,425.11 " fill="none" id="ListExamsService-to-ExamRepository" style="stroke:#181818;stroke-width:1.0;"/><polygon fill="#181818" points="92,430.09,96,421.09,92,425.09,88,421.09,92,430.09" style="stroke:#181818;stroke-width:1.0;"/><text fill="#000000" font-family="sans-serif" font-size="13" lengthAdjust="spacing" textLength="121" x="93" y="398.0284">uses the repository</text></g><!--link ExamRepository to Exam--><g id="link_ExamRepository_Exam"><path codeLine="23" d="M92,479.88 C92,499.89 92,528.76 92,550.26 " fill="none" id="ExamRepository-to-Exam" style="stroke:#181818;stroke-width:1.0;"/><polygon fill="#181818" points="92,555.12,96,546.12,92,550.12,88,546.12,92,555.12" style="stroke:#181818;stroke-width:1.0;"/><text fill="#000000" font-family="sans-serif" font-size="13" lengthAdjust="spacing" textLength="124" x="93" y="523.0284">gets student exams</text></g><!--SRC=[ROz12i9034NtEKMMkkW5kd1JN0Y2OF40PHfiOPoKILeLyUvsR2jEcUoIl1zUZAr4yDYAxX_LJIu7V06ELNFPy7spXJU0YPc2dNgsblpCNabF7RdlCfaeoG-jeHWlkFT2KI30P-fOMcN_7F5eC_N_gbcsIsdbs8-78IKS9MQjDRxO1ZOscaZKXj3_Xh2oNc9vU5HGjA_9AL8u3Hy0]--></g></svg>