<?xml version="1.0" encoding="UTF-8" standalone="no"?><svg xmlns="http://www.w3.org/2000/svg" xmlns:xlink="http://www.w3.org/1999/xlink" contentStyleType="text/css" height="1093px" preserveAspectRatio="none" style="width:2215px;height:1093px;background:#FFFFFF;" version="1.1" viewBox="0 0 2215 1093" width="2215px" zoomAndPan="magnify"><defs/><g><rect fill="#FFFFFF" height="865.0059" style="stroke:#181818;stroke-width:1.0;" width="10" x="141.5" y="115.2871"/><rect fill="#FFFFFF" height="806.3848" style="stroke:#181818;stroke-width:1.0;" width="10" x="321.5" y="144.5977"/><rect fill="#FFFFFF" height="29.3105" style="stroke:#181818;stroke-width:1.0;" width="10" x="605.5" y="173.9082"/><rect fill="#FFFFFF" height="630.5215" style="stroke:#181818;stroke-width:1.0;" width="10" x="759" y="291.1504"/><rect fill="#FFFFFF" height="146.5527" style="stroke:#181818;stroke-width:1.0;" width="10" x="1030" y="549.9453"/><rect fill="#FFFFFF" height="146.5527" style="stroke:#181818;stroke-width:1.0;" width="10" x="1233.5" y="320.4609"/><rect fill="#FFFFFF" height="87.9316" style="stroke:#181818;stroke-width:1.0;" width="10" x="1233.5" y="579.2559"/><rect fill="#FFFFFF" height="87.9316" style="stroke:#181818;stroke-width:1.0;" width="10" x="1233.5" y="797.4297"/><rect fill="#FFFFFF" height="87.9316" style="stroke:#181818;stroke-width:1.0;" width="10" x="1498.5" y="349.7715"/><rect fill="#FFFFFF" height="29.3105" style="stroke:#181818;stroke-width:1.0;" width="10" x="1498.5" y="608.5664"/><rect fill="#FFFFFF" height="29.3105" style="stroke:#181818;stroke-width:1.0;" width="10" x="1498.5" y="826.7402"/><rect fill="#FFFFFF" height="29.3105" style="stroke:#181818;stroke-width:1.0;" width="10" x="1643" y="232.5293"/><rect fill="#FFFFFF" height="29.3105" style="stroke:#181818;stroke-width:1.0;" width="10" x="1781" y="379.082"/><rect fill="none" height="411.3477" style="stroke:#000000;stroke-width:1.5;" width="1520" x="689" y="482.0137"/><line style="stroke:#181818;stroke-width:0.5;stroke-dasharray:5.0,5.0;" x1="34" x2="34" y1="83.9766" y2="998.293"/><line style="stroke:#181818;stroke-width:0.5;stroke-dasharray:5.0,5.0;" x1="146" x2="146" y1="83.9766" y2="998.293"/><line style="stroke:#181818;stroke-width:0.5;stroke-dasharray:5.0,5.0;" x1="326.5" x2="326.5" y1="83.9766" y2="998.293"/><line style="stroke:#181818;stroke-width:0.5;stroke-dasharray:5.0,5.0;" x1="610" x2="610" y1="83.9766" y2="998.293"/><line style="stroke:#181818;stroke-width:0.5;stroke-dasharray:5.0,5.0;" x1="764" x2="764" y1="83.9766" y2="998.293"/><line style="stroke:#181818;stroke-width:0.5;stroke-dasharray:5.0,5.0;" x1="1034.5" x2="1034.5" y1="83.9766" y2="998.293"/><line style="stroke:#181818;stroke-width:0.5;stroke-dasharray:5.0,5.0;" x1="1238.5" x2="1238.5" y1="83.9766" y2="998.293"/><line style="stroke:#181818;stroke-width:0.5;stroke-dasharray:5.0,5.0;" x1="1503" x2="1503" y1="83.9766" y2="998.293"/><line style="stroke:#181818;stroke-width:0.5;stroke-dasharray:5.0,5.0;" x1="1648" x2="1648" y1="83.9766" y2="998.293"/><line style="stroke:#181818;stroke-width:0.5;stroke-dasharray:5.0,5.0;" x1="1786" x2="1786" y1="83.9766" y2="998.293"/><line style="stroke:#181818;stroke-width:0.5;stroke-dasharray:5.0,5.0;" x1="1927" x2="1927" y1="83.9766" y2="998.293"/><line style="stroke:#181818;stroke-width:0.5;stroke-dasharray:5.0,5.0;" x1="2102" x2="2102" y1="83.9766" y2="998.293"/><text fill="#000000" font-family="sans-serif" font-size="14" lengthAdjust="spacing" textLength="53" x="5" y="81.0234">Student</text><ellipse cx="34.5" cy="15.9883" fill="#E2E2F0" rx="8" ry="8" style="stroke:#181818;stroke-width:0.5;"/><path d="M34.5,23.9883 L34.5,50.9883 M21.5,31.9883 L47.5,31.9883 M34.5,50.9883 L21.5,65.9883 M34.5,50.9883 L47.5,65.9883 " fill="none" style="stroke:#181818;stroke-width:0.5;"/><text fill="#000000" font-family="sans-serif" font-size="14" lengthAdjust="spacing" textLength="53" x="5" y="1010.8281">Student</text><ellipse cx="34.5" cy="1022.2813" fill="#E2E2F0" rx="8" ry="8" style="stroke:#181818;stroke-width:0.5;"/><path d="M34.5,1030.2813 L34.5,1057.2813 M21.5,1038.2813 L47.5,1038.2813 M34.5,1057.2813 L21.5,1072.2813 M34.5,1057.2813 L47.5,1072.2813 " fill="none" style="stroke:#181818;stroke-width:0.5;"/><rect fill="#E2E2F0" height="46.9766" rx="2.5" ry="2.5" style="stroke:#181818;stroke-width:0.5;" width="115" x="89" y="36"/><text fill="#000000" font-family="sans-serif" font-size="14" font-style="italic" lengthAdjust="spacing" textLength="101" x="96" y="56.5352">«presentation»</text><text fill="#000000" font-family="sans-serif" font-size="14" lengthAdjust="spacing" textLength="82" x="105.5" y="73.0234">ListExamsUI</text><rect fill="#E2E2F0" height="46.9766" rx="2.5" ry="2.5" style="stroke:#181818;stroke-width:0.5;" width="115" x="89" y="997.293"/><text fill="#000000" font-family="sans-serif" font-size="14" font-style="italic" lengthAdjust="spacing" textLength="101" x="96" y="1017.8281">«presentation»</text><text fill="#000000" font-family="sans-serif" font-size="14" lengthAdjust="spacing" textLength="82" x="105.5" y="1034.3164">ListExamsUI</text><rect fill="#E2E2F0" height="46.9766" rx="2.5" ry="2.5" style="stroke:#181818;stroke-width:0.5;" width="152" x="250.5" y="36"/><text fill="#000000" font-family="sans-serif" font-size="14" font-style="italic" lengthAdjust="spacing" textLength="81" x="286" y="56.5352">«aplication»</text><text fill="#000000" font-family="sans-serif" font-size="14" lengthAdjust="spacing" textLength="138" x="257.5" y="73.0234">ListExamsController</text><rect fill="#E2E2F0" height="46.9766" rx="2.5" ry="2.5" style="stroke:#181818;stroke-width:0.5;" width="152" x="250.5" y="997.293"/><text fill="#000000" font-family="sans-serif" font-size="14" font-style="italic" lengthAdjust="spacing" textLength="81" x="286" y="1017.8281">«aplication»</text><text fill="#000000" font-family="sans-serif" font-size="14" lengthAdjust="spacing" textLength="138" x="257.5" y="1034.3164">ListExamsController</text><rect fill="#E2E2F0" height="46.9766" rx="2.5" ry="2.5" style="stroke:#181818;stroke-width:0.5;" width="157" x="532" y="36"/><text fill="#000000" font-family="sans-serif" font-size="14" font-style="italic" lengthAdjust="spacing" textLength="92" x="564.5" y="56.5352">«Application»</text><text fill="#000000" font-family="sans-serif" font-size="14" lengthAdjust="spacing" textLength="143" x="539" y="73.0234">AuthorizationService</text><rect fill="#E2E2F0" height="46.9766" rx="2.5" ry="2.5" style="stroke:#181818;stroke-width:0.5;" width="157" x="532" y="997.293"/><text fill="#000000" font-family="sans-serif" font-size="14" font-style="italic" lengthAdjust="spacing" textLength="92" x="564.5" y="1017.8281">«Application»</text><text fill="#000000" font-family="sans-serif" font-size="14" lengthAdjust="spacing" textLength="143" x="539" y="1034.3164">AuthorizationService</text><rect fill="#E2E2F0" height="46.9766" rx="2.5" ry="2.5" style="stroke:#181818;stroke-width:0.5;" width="130" x="699" y="36"/><text fill="#000000" font-family="sans-serif" font-size="14" font-style="italic" lengthAdjust="spacing" textLength="61" x="733.5" y="56.5352">«service»</text><text fill="#000000" font-family="sans-serif" font-size="14" lengthAdjust="spacing" textLength="116" x="706" y="73.0234">ListExamsService</text><rect fill="#E2E2F0" height="46.9766" rx="2.5" ry="2.5" style="stroke:#181818;stroke-width:0.5;" width="130" x="699" y="997.293"/><text fill="#000000" font-family="sans-serif" font-size="14" font-style="italic" lengthAdjust="spacing" textLength="61" x="733.5" y="1017.8281">«service»</text><text fill="#000000" font-family="sans-serif" font-size="14" lengthAdjust="spacing" textLength="116" x="706" y="1034.3164">ListExamsService</text><rect fill="#E2E2F0" height="46.9766" rx="2.5" ry="2.5" style="stroke:#181818;stroke-width:0.5;" width="241" x="914.5" y="36"/><text fill="#000000" font-family="sans-serif" font-size="14" font-style="italic" lengthAdjust="spacing" textLength="61" x="1004.5" y="56.5352">«service»</text><text fill="#000000" font-family="sans-serif" font-size="14" lengthAdjust="spacing" textLength="227" x="921.5" y="73.0234">CourseEnrollmentRequestService</text><rect fill="#E2E2F0" height="46.9766" rx="2.5" ry="2.5" style="stroke:#181818;stroke-width:0.5;" width="241" x="914.5" y="997.293"/><text fill="#000000" font-family="sans-serif" font-size="14" font-style="italic" lengthAdjust="spacing" textLength="61" x="1004.5" y="1017.8281">«service»</text><text fill="#000000" font-family="sans-serif" font-size="14" lengthAdjust="spacing" textLength="227" x="921.5" y="1034.3164">CourseEnrollmentRequestService</text><rect fill="#E2E2F0" height="46.9766" rx="2.5" ry="2.5" style="stroke:#181818;stroke-width:0.5;" width="146" x="1165.5" y="36"/><text fill="#000000" font-family="sans-serif" font-size="14" font-style="italic" lengthAdjust="spacing" textLength="92" x="1192.5" y="56.5352">«persistence»</text><text fill="#000000" font-family="sans-serif" font-size="14" lengthAdjust="spacing" textLength="132" x="1172.5" y="73.0234">PersistenceContext</text><rect fill="#E2E2F0" height="46.9766" rx="2.5" ry="2.5" style="stroke:#181818;stroke-width:0.5;" width="146" x="1165.5" y="997.293"/><text fill="#000000" font-family="sans-serif" font-size="14" font-style="italic" lengthAdjust="spacing" textLength="92" x="1192.5" y="1017.8281">«persistence»</text><text fill="#000000" font-family="sans-serif" font-size="14" lengthAdjust="spacing" textLength="132" x="1172.5" y="1034.3164">PersistenceContext</text><rect fill="#E2E2F0" height="46.9766" rx="2.5" ry="2.5" style="stroke:#181818;stroke-width:0.5;" width="137" x="1435" y="36"/><text fill="#000000" font-family="sans-serif" font-size="14" font-style="italic" lengthAdjust="spacing" textLength="61" x="1473" y="56.5352">«factory»</text><text fill="#000000" font-family="sans-serif" font-size="14" lengthAdjust="spacing" textLength="123" x="1442" y="73.0234">RepositoryFactory</text><rect fill="#E2E2F0" height="46.9766" rx="2.5" ry="2.5" style="stroke:#181818;stroke-width:0.5;" width="137" x="1435" y="997.293"/><text fill="#000000" font-family="sans-serif" font-size="14" font-style="italic" lengthAdjust="spacing" textLength="61" x="1473" y="1017.8281">«factory»</text><text fill="#000000" font-family="sans-serif" font-size="14" lengthAdjust="spacing" textLength="123" x="1442" y="1034.3164">RepositoryFactory</text><text fill="#000000" font-family="sans-serif" font-size="14" font-style="italic" lengthAdjust="spacing" textLength="84" x="1603" y="64.5352">«repository»</text><text fill="#000000" font-family="sans-serif" font-size="14" lengthAdjust="spacing" textLength="126" x="1582" y="81.0234">StudentRepository</text><path d="M1630,15 C1630,5 1648,5 1648,5 C1648,5 1666,5 1666,15 L1666,41 C1666,51 1648,51 1648,51 C1648,51 1630,51 1630,41 L1630,15 " fill="#E2E2F0" style="stroke:#181818;stroke-width:1.5;"/><path d="M1630,15 C1630,25 1648,25 1648,25 C1648,25 1666,25 1666,15 " fill="none" style="stroke:#181818;stroke-width:1.5;"/><text fill="#000000" font-family="sans-serif" font-size="14" font-style="italic" lengthAdjust="spacing" textLength="84" x="1603" y="1010.8281">«repository»</text><text fill="#000000" font-family="sans-serif" font-size="14" lengthAdjust="spacing" textLength="126" x="1582" y="1027.3164">StudentRepository</text><path d="M1630,1040.2695 C1630,1030.2695 1648,1030.2695 1648,1030.2695 C1648,1030.2695 1666,1030.2695 1666,1040.2695 L1666,1066.2695 C1666,1076.2695 1648,1076.2695 1648,1076.2695 C1648,1076.2695 1630,1076.2695 1630,1066.2695 L1630,1040.2695 " fill="#E2E2F0" style="stroke:#181818;stroke-width:1.5;"/><path d="M1630,1040.2695 C1630,1050.2695 1648,1050.2695 1648,1050.2695 C1648,1050.2695 1666,1050.2695 1666,1040.2695 " fill="none" style="stroke:#181818;stroke-width:1.5;"/><text fill="#000000" font-family="sans-serif" font-size="14" font-style="italic" lengthAdjust="spacing" textLength="84" x="1741" y="64.5352">«repository»</text><text fill="#000000" font-family="sans-serif" font-size="14" lengthAdjust="spacing" textLength="118" x="1724" y="81.0234">ExamsRepository</text><path d="M1768,15 C1768,5 1786,5 1786,5 C1786,5 1804,5 1804,15 L1804,41 C1804,51 1786,51 1786,51 C1786,51 1768,51 1768,41 L1768,15 " fill="#E2E2F0" style="stroke:#181818;stroke-width:1.5;"/><path d="M1768,15 C1768,25 1786,25 1786,25 C1786,25 1804,25 1804,15 " fill="none" style="stroke:#181818;stroke-width:1.5;"/><text fill="#000000" font-family="sans-serif" font-size="14" font-style="italic" lengthAdjust="spacing" textLength="84" x="1741" y="1010.8281">«repository»</text><text fill="#000000" font-family="sans-serif" font-size="14" lengthAdjust="spacing" textLength="118" x="1724" y="1027.3164">ExamsRepository</text><path d="M1768,1040.2695 C1768,1030.2695 1786,1030.2695 1786,1030.2695 C1786,1030.2695 1804,1030.2695 1804,1040.2695 L1804,1066.2695 C1804,1076.2695 1786,1076.2695 1786,1076.2695 C1786,1076.2695 1768,1076.2695 1768,1066.2695 L1768,1040.2695 " fill="#E2E2F0" style="stroke:#181818;stroke-width:1.5;"/><path d="M1768,1040.2695 C1768,1050.2695 1786,1050.2695 1786,1050.2695 C1786,1050.2695 1804,1050.2695 1804,1040.2695 " fill="none" style="stroke:#181818;stroke-width:1.5;"/><rect fill="#E2E2F0" height="46.9766" rx="2.5" ry="2.5" style="stroke:#181818;stroke-width:0.5;" width="138" x="1858" y="36"/><text fill="#000000" font-family="sans-serif" font-size="14" font-style="italic" lengthAdjust="spacing" textLength="67" x="1893.5" y="56.5352">«Domain»</text><text fill="#000000" font-family="sans-serif" font-size="14" lengthAdjust="spacing" textLength="124" x="1865" y="73.0234">theCourse:Course</text><rect fill="#E2E2F0" height="46.9766" rx="2.5" ry="2.5" style="stroke:#181818;stroke-width:0.5;" width="138" x="1858" y="997.293"/><text fill="#000000" font-family="sans-serif" font-size="14" font-style="italic" lengthAdjust="spacing" textLength="67" x="1893.5" y="1017.8281">«Domain»</text><text fill="#000000" font-family="sans-serif" font-size="14" lengthAdjust="spacing" textLength="124" x="1865" y="1034.3164">theCourse:Course</text><rect fill="#E2E2F0" height="30.4883" rx="2.5" ry="2.5" style="stroke:#181818;stroke-width:0.5;" width="193" x="2006" y="52.4883"/><text fill="#000000" font-family="sans-serif" font-size="14" lengthAdjust="spacing" textLength="179" x="2013" y="73.0234">CourseEnrollmentRequest</text><rect fill="#E2E2F0" height="30.4883" rx="2.5" ry="2.5" style="stroke:#181818;stroke-width:0.5;" width="193" x="2006" y="997.293"/><text fill="#000000" font-family="sans-serif" font-size="14" lengthAdjust="spacing" textLength="179" x="2013" y="1017.8281">CourseEnrollmentRequest</text><rect fill="#FFFFFF" height="865.0059" style="stroke:#181818;stroke-width:1.0;" width="10" x="141.5" y="115.2871"/><rect fill="#FFFFFF" height="806.3848" style="stroke:#181818;stroke-width:1.0;" width="10" x="321.5" y="144.5977"/><rect fill="#FFFFFF" height="29.3105" style="stroke:#181818;stroke-width:1.0;" width="10" x="605.5" y="173.9082"/><rect fill="#FFFFFF" height="630.5215" style="stroke:#181818;stroke-width:1.0;" width="10" x="759" y="291.1504"/><rect fill="#FFFFFF" height="146.5527" style="stroke:#181818;stroke-width:1.0;" width="10" x="1030" y="549.9453"/><rect fill="#FFFFFF" height="146.5527" style="stroke:#181818;stroke-width:1.0;" width="10" x="1233.5" y="320.4609"/><rect fill="#FFFFFF" height="87.9316" style="stroke:#181818;stroke-width:1.0;" width="10" x="1233.5" y="579.2559"/><rect fill="#FFFFFF" height="87.9316" style="stroke:#181818;stroke-width:1.0;" width="10" x="1233.5" y="797.4297"/><rect fill="#FFFFFF" height="87.9316" style="stroke:#181818;stroke-width:1.0;" width="10" x="1498.5" y="349.7715"/><rect fill="#FFFFFF" height="29.3105" style="stroke:#181818;stroke-width:1.0;" width="10" x="1498.5" y="608.5664"/><rect fill="#FFFFFF" height="29.3105" style="stroke:#181818;stroke-width:1.0;" width="10" x="1498.5" y="826.7402"/><rect fill="#FFFFFF" height="29.3105" style="stroke:#181818;stroke-width:1.0;" width="10" x="1643" y="232.5293"/><rect fill="#FFFFFF" height="29.3105" style="stroke:#181818;stroke-width:1.0;" width="10" x="1781" y="379.082"/><polygon fill="#181818" points="129.5,111.2871,139.5,115.2871,129.5,119.2871,133.5,115.2871" style="stroke:#181818;stroke-width:1.0;"/><line style="stroke:#181818;stroke-width:1.0;" x1="34.5" x2="135.5" y1="115.2871" y2="115.2871"/><text fill="#000000" font-family="sans-serif" font-size="13" lengthAdjust="spacing" textLength="65" x="41.5" y="110.5449">elements()</text><polygon fill="#181818" points="309.5,140.5977,319.5,144.5977,309.5,148.5977,313.5,144.5977" style="stroke:#181818;stroke-width:1.0;"/><line style="stroke:#181818;stroke-width:1.0;" x1="151.5" x2="315.5" y1="144.5977" y2="144.5977"/><text fill="#000000" font-family="sans-serif" font-size="13" lengthAdjust="spacing" textLength="151" x="158.5" y="139.8555">examOfLoggedStudent()</text><polygon fill="#181818" points="593.5,169.9082,603.5,173.9082,593.5,177.9082,597.5,173.9082" style="stroke:#181818;stroke-width:1.0;"/><line style="stroke:#181818;stroke-width:1.0;" x1="331.5" x2="599.5" y1="173.9082" y2="173.9082"/><text fill="#000000" font-family="sans-serif" font-size="13" lengthAdjust="spacing" textLength="255" x="338.5" y="169.166">session().authenticatedUser().username()</text><polygon fill="#181818" points="342.5,199.2188,332.5,203.2188,342.5,207.2188,338.5,203.2188" style="stroke:#181818;stroke-width:1.0;"/><line style="stroke:#181818;stroke-width:1.0;" x1="336.5" x2="609.5" y1="203.2188" y2="203.2188"/><text fill="#000000" font-family="sans-serif" font-size="13" lengthAdjust="spacing" textLength="61" x="348.5" y="198.4766">username</text><polygon fill="#181818" points="1631,228.5293,1641,232.5293,1631,236.5293,1635,232.5293" style="stroke:#181818;stroke-width:1.0;"/><line style="stroke:#181818;stroke-width:1.0;" x1="331.5" x2="1637" y1="232.5293" y2="232.5293"/><text fill="#000000" font-family="sans-serif" font-size="13" lengthAdjust="spacing" textLength="170" x="338.5" y="227.7871">findByUsername(username)</text><polygon fill="#181818" points="342.5,257.8398,332.5,261.8398,342.5,265.8398,338.5,261.8398" style="stroke:#181818;stroke-width:1.0;"/><line style="stroke:#181818;stroke-width:1.0;" x1="336.5" x2="1647" y1="261.8398" y2="261.8398"/><text fill="#000000" font-family="sans-serif" font-size="13" lengthAdjust="spacing" textLength="48" x="348.5" y="257.0977">student</text><polygon fill="#181818" points="747,287.1504,757,291.1504,747,295.1504,751,291.1504" style="stroke:#181818;stroke-width:1.0;"/><line style="stroke:#181818;stroke-width:1.0;" x1="331.5" x2="753" y1="291.1504" y2="291.1504"/><text fill="#000000" font-family="sans-serif" font-size="13" lengthAdjust="spacing" textLength="199" x="338.5" y="286.4082">examOfLoggedStudent(student)</text><polygon fill="#181818" points="1221.5,316.4609,1231.5,320.4609,1221.5,324.4609,1225.5,320.4609" style="stroke:#181818;stroke-width:1.0;"/><line style="stroke:#181818;stroke-width:1.0;" x1="769" x2="1227.5" y1="320.4609" y2="320.4609"/><text fill="#000000" font-family="sans-serif" font-size="13" lengthAdjust="spacing" textLength="86" x="776" y="315.7188">Repositories()</text><polygon fill="#181818" points="1486.5,345.7715,1496.5,349.7715,1486.5,353.7715,1490.5,349.7715" style="stroke:#181818;stroke-width:1.0;"/><line style="stroke:#181818;stroke-width:1.0;" x1="1243.5" x2="1492.5" y1="349.7715" y2="349.7715"/><text fill="#000000" font-family="sans-serif" font-size="13" lengthAdjust="spacing" textLength="59" x="1250.5" y="345.0293">Courses()</text><polygon fill="#181818" points="1769,375.082,1779,379.082,1769,383.082,1773,379.082" style="stroke:#181818;stroke-width:1.0;"/><line style="stroke:#181818;stroke-width:1.0;" x1="1508.5" x2="1775" y1="379.082" y2="379.082"/><text fill="#000000" font-family="sans-serif" font-size="13" lengthAdjust="spacing" textLength="50" x="1515.5" y="374.3398">findAll()</text><polygon fill="#181818" points="1519.5,404.3926,1509.5,408.3926,1519.5,412.3926,1515.5,408.3926" style="stroke:#181818;stroke-width:1.0;"/><line style="stroke:#181818;stroke-width:1.0;" x1="1513.5" x2="1785" y1="408.3926" y2="408.3926"/><text fill="#000000" font-family="sans-serif" font-size="13" lengthAdjust="spacing" textLength="217" x="1525.5" y="403.6504">Iterable&lt;Course&gt; enrolledCourses</text><polygon fill="#181818" points="1254.5,433.7031,1244.5,437.7031,1254.5,441.7031,1250.5,437.7031" style="stroke:#181818;stroke-width:1.0;"/><line style="stroke:#181818;stroke-width:1.0;" x1="1248.5" x2="1502.5" y1="437.7031" y2="437.7031"/><text fill="#000000" font-family="sans-serif" font-size="13" lengthAdjust="spacing" textLength="217" x="1260.5" y="432.9609">Iterable&lt;Course&gt; enrolledCourses</text><polygon fill="#181818" points="780,463.0137,770,467.0137,780,471.0137,776,467.0137" style="stroke:#181818;stroke-width:1.0;"/><line style="stroke:#181818;stroke-width:1.0;" x1="774" x2="1237.5" y1="467.0137" y2="467.0137"/><text fill="#000000" font-family="sans-serif" font-size="13" lengthAdjust="spacing" textLength="217" x="786" y="462.2715">Iterable&lt;Course&gt; enrolledCourses</text><path d="M689,482.0137 L763,482.0137 L763,489.3242 L753,499.3242 L689,499.3242 L689,482.0137 " fill="#EEEEEE" style="stroke:#000000;stroke-width:1.5;"/><rect fill="none" height="411.3477" style="stroke:#000000;stroke-width:1.5;" width="1520" x="689" y="482.0137"/><text fill="#000000" font-family="sans-serif" font-size="13" font-weight="bold" lengthAdjust="spacing" textLength="29" x="704" y="495.582">loop</text><text fill="#000000" font-family="sans-serif" font-size="11" font-weight="bold" lengthAdjust="spacing" textLength="107" x="778" y="494.6484">[Iterable&lt;Course&gt;]</text><polygon fill="#181818" points="1915,516.6348,1925,520.6348,1915,524.6348,1919,520.6348" style="stroke:#181818;stroke-width:1.0;"/><line style="stroke:#181818;stroke-width:1.0;" x1="769" x2="1921" y1="520.6348" y2="520.6348"/><text fill="#000000" font-family="sans-serif" font-size="13" lengthAdjust="spacing" textLength="216" x="776" y="515.8926">getActualState().equals("Progress")</text><polygon fill="#181818" points="1018,545.9453,1028,549.9453,1018,553.9453,1022,549.9453" style="stroke:#181818;stroke-width:1.0;"/><line style="stroke:#181818;stroke-width:1.0;" x1="769" x2="1024" y1="549.9453" y2="549.9453"/><text fill="#000000" font-family="sans-serif" font-size="13" lengthAdjust="spacing" textLength="242" x="776" y="545.2031">getStudentEnrollment(student, course)</text><polygon fill="#181818" points="1221.5,575.2559,1231.5,579.2559,1221.5,583.2559,1225.5,579.2559" style="stroke:#181818;stroke-width:1.0;"/><line style="stroke:#181818;stroke-width:1.0;" x1="1040" x2="1227.5" y1="579.2559" y2="579.2559"/><text fill="#000000" font-family="sans-serif" font-size="13" lengthAdjust="spacing" textLength="83" x="1047" y="574.5137">repositories()</text><polygon fill="#181818" points="1486.5,604.5664,1496.5,608.5664,1486.5,612.5664,1490.5,608.5664" style="stroke:#181818;stroke-width:1.0;"/><line style="stroke:#181818;stroke-width:1.0;" x1="1243.5" x2="1492.5" y1="608.5664" y2="608.5664"/><text fill="#000000" font-family="sans-serif" font-size="13" lengthAdjust="spacing" textLength="236" x="1250.5" y="603.8242">indByStudentAndCourse(user, course)</text><polygon fill="#181818" points="1254.5,633.877,1244.5,637.877,1254.5,641.877,1250.5,637.877" style="stroke:#181818;stroke-width:1.0;"/><line style="stroke:#181818;stroke-width:1.0;" x1="1248.5" x2="1502.5" y1="637.877" y2="637.877"/><text fill="#000000" font-family="sans-serif" font-size="13" lengthAdjust="spacing" textLength="162" x="1260.5" y="633.1348">CourseEnrollmentRequest</text><polygon fill="#181818" points="1051,663.1875,1041,667.1875,1051,671.1875,1047,667.1875" style="stroke:#181818;stroke-width:1.0;"/><line style="stroke:#181818;stroke-width:1.0;" x1="1045" x2="1237.5" y1="667.1875" y2="667.1875"/><text fill="#000000" font-family="sans-serif" font-size="13" lengthAdjust="spacing" textLength="162" x="1057" y="662.4453">CourseEnrollmentRequest</text><polygon fill="#181818" points="780,692.498,770,696.498,780,700.498,776,696.498" style="stroke:#181818;stroke-width:1.0;"/><line style="stroke:#181818;stroke-width:1.0;" x1="774" x2="1034" y1="696.498" y2="696.498"/><text fill="#000000" font-family="sans-serif" font-size="13" lengthAdjust="spacing" textLength="162" x="786" y="691.7559">CourseEnrollmentRequest</text><polygon fill="#181818" points="2090.5,721.8086,2100.5,725.8086,2090.5,729.8086,2094.5,725.8086" style="stroke:#181818;stroke-width:1.0;"/><line style="stroke:#181818;stroke-width:1.0;" x1="769" x2="2096.5" y1="725.8086" y2="725.8086"/><text fill="#000000" font-family="sans-serif" font-size="13" lengthAdjust="spacing" textLength="157" x="776" y="721.0664">courseEnrollmentStatus()</text><line style="stroke:#181818;stroke-width:1.0;" x1="769" x2="811" y1="755.1191" y2="755.1191"/><line style="stroke:#181818;stroke-width:1.0;" x1="811" x2="811" y1="755.1191" y2="768.1191"/><line style="stroke:#181818;stroke-width:1.0;" x1="770" x2="811" y1="768.1191" y2="768.1191"/><polygon fill="#181818" points="780,764.1191,770,768.1191,780,772.1191,776,768.1191" style="stroke:#181818;stroke-width:1.0;"/><text fill="#000000" font-family="sans-serif" font-size="13" lengthAdjust="spacing" textLength="210" x="776" y="750.377">getExamByCourse(Course course)</text><polygon fill="#181818" points="1221.5,793.4297,1231.5,797.4297,1221.5,801.4297,1225.5,797.4297" style="stroke:#181818;stroke-width:1.0;"/><line style="stroke:#181818;stroke-width:1.0;" x1="769" x2="1227.5" y1="797.4297" y2="797.4297"/><text fill="#000000" font-family="sans-serif" font-size="13" lengthAdjust="spacing" textLength="83" x="776" y="792.6875">repositories()</text><polygon fill="#181818" points="1486.5,822.7402,1496.5,826.7402,1486.5,830.7402,1490.5,826.7402" style="stroke:#181818;stroke-width:1.0;"/><line style="stroke:#181818;stroke-width:1.0;" x1="1243.5" x2="1492.5" y1="826.7402" y2="826.7402"/><text fill="#000000" font-family="sans-serif" font-size="13" lengthAdjust="spacing" textLength="50" x="1250.5" y="821.998">findAll()</text><polygon fill="#181818" points="1254.5,852.0508,1244.5,856.0508,1254.5,860.0508,1250.5,856.0508" style="stroke:#181818;stroke-width:1.0;"/><line style="stroke:#181818;stroke-width:1.0;" x1="1248.5" x2="1502.5" y1="856.0508" y2="856.0508"/><text fill="#000000" font-family="sans-serif" font-size="13" lengthAdjust="spacing" textLength="41" x="1260.5" y="851.3086">exams</text><polygon fill="#181818" points="780,881.3613,770,885.3613,780,889.3613,776,885.3613" style="stroke:#181818;stroke-width:1.0;"/><line style="stroke:#181818;stroke-width:1.0;" x1="774" x2="1237.5" y1="885.3613" y2="885.3613"/><text fill="#000000" font-family="sans-serif" font-size="13" lengthAdjust="spacing" textLength="41" x="786" y="880.6191">exams</text><polygon fill="#181818" points="342.5,917.6719,332.5,921.6719,342.5,925.6719,338.5,921.6719" style="stroke:#181818;stroke-width:1.0;"/><line style="stroke:#181818;stroke-width:1.0;" x1="336.5" x2="763" y1="921.6719" y2="921.6719"/><text fill="#000000" font-family="sans-serif" font-size="13" lengthAdjust="spacing" textLength="41" x="348.5" y="916.9297">exams</text><polygon fill="#181818" points="162.5,946.9824,152.5,950.9824,162.5,954.9824,158.5,950.9824" style="stroke:#181818;stroke-width:1.0;"/><line style="stroke:#181818;stroke-width:1.0;" x1="156.5" x2="325.5" y1="950.9824" y2="950.9824"/><text fill="#000000" font-family="sans-serif" font-size="13" lengthAdjust="spacing" textLength="41" x="168.5" y="946.2402">exams</text><polygon fill="#181818" points="45.5,976.293,35.5,980.293,45.5,984.293,41.5,980.293" style="stroke:#181818;stroke-width:1.0;"/><line style="stroke:#181818;stroke-width:1.0;" x1="39.5" x2="145.5" y1="980.293" y2="980.293"/><text fill="#000000" font-family="sans-serif" font-size="13" lengthAdjust="spacing" textLength="83" x="51.5" y="975.5508">ExamPrinter()</text><!--SRC=[lLRRZjem47ttLqGyWTJk1qGH4akfXBHI4OWFy9A1jHJYr7PMotvznuwTZ7Ff5XwQ1t3iEUFncUEPy9EHAZcOEeVI95mdApl1AgwCE8cAu-IBq6RpmQ_wkBK6-9jbbGAD06w4B9VBSVErB8sIHG7AmiXRbl6g4ASnyAesRrA9JxTs0FKkJk2YmlbF1AwgAMIxBK65OPRfPjJ3h6MjD6nA6zSLZxE7tpLeGpoiD_kldEn0QTmRoXFOCyA7ev7CMhgwjnvw3vNK0Yc__UIM-Pi5Xs6MdPiHWd9k-2lN47BL0Ir23oQpJBKl5EuuYi7JA1hfpBn1GrZQ_CsQjDeXudx8AnSsASmfAFc-HAMa2HHWcTNp1SEZY7Tk0ESPYWWDEasW8SRrw_mYBnV8_H4ffZDbH4demoaZJJHeZQAOBvuuJY3OgWJo8-OCvshyA_aLg4S7P8smUh44SvP3pppUUy1wcfn5cJ_VZc6_u8diEm2nOV9wyNW36ixGInoQL-quhnvCWlBcB8WTFH05fvr414If94QCIXxnNiIfbqW4ysii21tD-oIkYe8Yo45ZdjfjjWOKVoqWQ_PR9k3kDUH-VyeUyKP2Y4vyZxjmd1u3RGxkyKKPJV0ffAm63joAVKY-_DrCBc3m1jQyE61vHiK_OL7ZXPxFTafUi6phsM8KtbOwvy9BfQkDGJJVafFRg7FItT7MHRj6wcUVO1LBQk2jJuHzfYJcBfqFULLwMjtb-qku8MjXOKe94rsYnOq8OI9Uol4TNiUOY8bznEj8jWPg6ZXAFPtTWbLPJHCu5XOAolQTvvlFZEyQ_TJy3wbqjULXGTYIgXz8VrIJzRza6igSHKc9-sLKE48oupxWUd3Vb3JJfX6xbfswRuET4lWHWqsJ0exRFm00]--></g></svg>