<?xml version="1.0" encoding="UTF-8" standalone="no"?><svg xmlns="http://www.w3.org/2000/svg" xmlns:xlink="http://www.w3.org/1999/xlink" contentStyleType="text/css" height="503px" preserveAspectRatio="none" style="width:929px;height:503px;background:#FFFFFF;" version="1.1" viewBox="0 0 929 503" width="929px" zoomAndPan="magnify"><defs/><g><rect fill="#FFFFFF" height="268.4844" style="stroke:#181818;stroke-width:1.0;" width="10" x="126.5" y="115.2871"/><rect fill="#FFFFFF" height="203.8633" style="stroke:#181818;stroke-width:1.0;" width="10" x="270" y="144.5977"/><rect fill="#FFFFFF" height="145.2422" style="stroke:#181818;stroke-width:1.0;" width="10" x="421" y="173.9082"/><rect fill="#FFFFFF" height="196.5527" style="stroke:#181818;stroke-width:1.0;" width="10" x="569" y="203.2188"/><rect fill="#FFFFFF" height="29.3105" style="stroke:#181818;stroke-width:1.0;" width="10" x="720.5" y="232.5293"/><rect fill="#FFFFFF" height="14" style="stroke:#181818;stroke-width:1.0;" width="10" x="861" y="291.1504"/><line style="stroke:#181818;stroke-width:0.5;stroke-dasharray:5.0,5.0;" x1="34" x2="34" y1="83.9766" y2="408.7715"/><line style="stroke:#181818;stroke-width:0.5;stroke-dasharray:5.0,5.0;" x1="131" x2="131" y1="83.9766" y2="408.7715"/><line style="stroke:#181818;stroke-width:0.5;stroke-dasharray:5.0,5.0;" x1="275" x2="275" y1="83.9766" y2="408.7715"/><line style="stroke:#181818;stroke-width:0.5;stroke-dasharray:5.0,5.0;" x1="426" x2="426" y1="83.9766" y2="408.7715"/><line style="stroke:#181818;stroke-width:0.5;stroke-dasharray:5.0,5.0;" x1="574" x2="574" y1="83.9766" y2="408.7715"/><line style="stroke:#181818;stroke-width:0.5;stroke-dasharray:5.0,5.0;" x1="725" x2="725" y1="83.9766" y2="408.7715"/><line style="stroke:#181818;stroke-width:0.5;stroke-dasharray:5.0,5.0;" x1="866" x2="866" y1="83.9766" y2="408.7715"/><text fill="#000000" font-family="sans-serif" font-size="14" lengthAdjust="spacing" textLength="53" x="5" y="81.0234">Student</text><ellipse cx="34.5" cy="15.9883" fill="#E2E2F0" rx="8" ry="8" style="stroke:#181818;stroke-width:0.5;"/><path d="M34.5,23.9883 L34.5,50.9883 M21.5,31.9883 L47.5,31.9883 M34.5,50.9883 L21.5,65.9883 M34.5,50.9883 L47.5,65.9883 " fill="none" style="stroke:#181818;stroke-width:0.5;"/><text fill="#000000" font-family="sans-serif" font-size="14" lengthAdjust="spacing" textLength="53" x="5" y="421.3066">Student</text><ellipse cx="34.5" cy="432.7598" fill="#E2E2F0" rx="8" ry="8" style="stroke:#181818;stroke-width:0.5;"/><path d="M34.5,440.7598 L34.5,467.7598 M21.5,448.7598 L47.5,448.7598 M34.5,467.7598 L21.5,482.7598 M34.5,467.7598 L47.5,482.7598 " fill="none" style="stroke:#181818;stroke-width:0.5;"/><rect fill="#E2E2F0" height="46.9766" rx="2.5" ry="2.5" style="stroke:#181818;stroke-width:0.5;" width="115" x="74" y="36"/><text fill="#000000" font-family="sans-serif" font-size="14" font-style="italic" lengthAdjust="spacing" textLength="101" x="81" y="56.5352">«presentation»</text><text fill="#000000" font-family="sans-serif" font-size="14" lengthAdjust="spacing" textLength="82" x="90.5" y="73.0234">ListExamsUI</text><rect fill="#E2E2F0" height="46.9766" rx="2.5" ry="2.5" style="stroke:#181818;stroke-width:0.5;" width="115" x="74" y="407.7715"/><text fill="#000000" font-family="sans-serif" font-size="14" font-style="italic" lengthAdjust="spacing" textLength="101" x="81" y="428.3066">«presentation»</text><text fill="#000000" font-family="sans-serif" font-size="14" lengthAdjust="spacing" textLength="82" x="90.5" y="444.7949">ListExamsUI</text><rect fill="#E2E2F0" height="46.9766" rx="2.5" ry="2.5" style="stroke:#181818;stroke-width:0.5;" width="152" x="199" y="36"/><text fill="#000000" font-family="sans-serif" font-size="14" font-style="italic" lengthAdjust="spacing" textLength="81" x="234.5" y="56.5352">«aplication»</text><text fill="#000000" font-family="sans-serif" font-size="14" lengthAdjust="spacing" textLength="138" x="206" y="73.0234">ListExamsController</text><rect fill="#E2E2F0" height="46.9766" rx="2.5" ry="2.5" style="stroke:#181818;stroke-width:0.5;" width="152" x="199" y="407.7715"/><text fill="#000000" font-family="sans-serif" font-size="14" font-style="italic" lengthAdjust="spacing" textLength="81" x="234.5" y="428.3066">«aplication»</text><text fill="#000000" font-family="sans-serif" font-size="14" lengthAdjust="spacing" textLength="138" x="206" y="444.7949">ListExamsController</text><rect fill="#E2E2F0" height="46.9766" rx="2.5" ry="2.5" style="stroke:#181818;stroke-width:0.5;" width="130" x="361" y="36"/><text fill="#000000" font-family="sans-serif" font-size="14" font-style="italic" lengthAdjust="spacing" textLength="61" x="395.5" y="56.5352">«service»</text><text fill="#000000" font-family="sans-serif" font-size="14" lengthAdjust="spacing" textLength="116" x="368" y="73.0234">ListExamsService</text><rect fill="#E2E2F0" height="46.9766" rx="2.5" ry="2.5" style="stroke:#181818;stroke-width:0.5;" width="130" x="361" y="407.7715"/><text fill="#000000" font-family="sans-serif" font-size="14" font-style="italic" lengthAdjust="spacing" textLength="61" x="395.5" y="428.3066">«service»</text><text fill="#000000" font-family="sans-serif" font-size="14" lengthAdjust="spacing" textLength="116" x="368" y="444.7949">ListExamsService</text><rect fill="#E2E2F0" height="46.9766" rx="2.5" ry="2.5" style="stroke:#181818;stroke-width:0.5;" width="146" x="501" y="36"/><text fill="#000000" font-family="sans-serif" font-size="14" font-style="italic" lengthAdjust="spacing" textLength="92" x="528" y="56.5352">«persistence»</text><text fill="#000000" font-family="sans-serif" font-size="14" lengthAdjust="spacing" textLength="132" x="508" y="73.0234">PersistenceContext</text><rect fill="#E2E2F0" height="46.9766" rx="2.5" ry="2.5" style="stroke:#181818;stroke-width:0.5;" width="146" x="501" y="407.7715"/><text fill="#000000" font-family="sans-serif" font-size="14" font-style="italic" lengthAdjust="spacing" textLength="92" x="528" y="428.3066">«persistence»</text><text fill="#000000" font-family="sans-serif" font-size="14" lengthAdjust="spacing" textLength="132" x="508" y="444.7949">PersistenceContext</text><rect fill="#E2E2F0" height="46.9766" rx="2.5" ry="2.5" style="stroke:#181818;stroke-width:0.5;" width="137" x="657" y="36"/><text fill="#000000" font-family="sans-serif" font-size="14" font-style="italic" lengthAdjust="spacing" textLength="61" x="695" y="56.5352">«factory»</text><text fill="#000000" font-family="sans-serif" font-size="14" lengthAdjust="spacing" textLength="123" x="664" y="73.0234">RepositoryFactory</text><rect fill="#E2E2F0" height="46.9766" rx="2.5" ry="2.5" style="stroke:#181818;stroke-width:0.5;" width="137" x="657" y="407.7715"/><text fill="#000000" font-family="sans-serif" font-size="14" font-style="italic" lengthAdjust="spacing" textLength="61" x="695" y="428.3066">«factory»</text><text fill="#000000" font-family="sans-serif" font-size="14" lengthAdjust="spacing" textLength="123" x="664" y="444.7949">RepositoryFactory</text><text fill="#000000" font-family="sans-serif" font-size="14" font-style="italic" lengthAdjust="spacing" textLength="84" x="821" y="64.5352">«repository»</text><text fill="#000000" font-family="sans-serif" font-size="14" lengthAdjust="spacing" textLength="118" x="804" y="81.0234">ExamsRepository</text><path d="M848,15 C848,5 866,5 866,5 C866,5 884,5 884,15 L884,41 C884,51 866,51 866,51 C866,51 848,51 848,41 L848,15 " fill="#E2E2F0" style="stroke:#181818;stroke-width:1.5;"/><path d="M848,15 C848,25 866,25 866,25 C866,25 884,25 884,15 " fill="none" style="stroke:#181818;stroke-width:1.5;"/><text fill="#000000" font-family="sans-serif" font-size="14" font-style="italic" lengthAdjust="spacing" textLength="84" x="821" y="421.3066">«repository»</text><text fill="#000000" font-family="sans-serif" font-size="14" lengthAdjust="spacing" textLength="118" x="804" y="437.7949">ExamsRepository</text><path d="M848,450.748 C848,440.748 866,440.748 866,440.748 C866,440.748 884,440.748 884,450.748 L884,476.748 C884,486.748 866,486.748 866,486.748 C866,486.748 848,486.748 848,476.748 L848,450.748 " fill="#E2E2F0" style="stroke:#181818;stroke-width:1.5;"/><path d="M848,450.748 C848,460.748 866,460.748 866,460.748 C866,460.748 884,460.748 884,450.748 " fill="none" style="stroke:#181818;stroke-width:1.5;"/><rect fill="#FFFFFF" height="268.4844" style="stroke:#181818;stroke-width:1.0;" width="10" x="126.5" y="115.2871"/><rect fill="#FFFFFF" height="203.8633" style="stroke:#181818;stroke-width:1.0;" width="10" x="270" y="144.5977"/><rect fill="#FFFFFF" height="145.2422" style="stroke:#181818;stroke-width:1.0;" width="10" x="421" y="173.9082"/><rect fill="#FFFFFF" height="196.5527" style="stroke:#181818;stroke-width:1.0;" width="10" x="569" y="203.2188"/><rect fill="#FFFFFF" height="29.3105" style="stroke:#181818;stroke-width:1.0;" width="10" x="720.5" y="232.5293"/><rect fill="#FFFFFF" height="14" style="stroke:#181818;stroke-width:1.0;" width="10" x="861" y="291.1504"/><polygon fill="#181818" points="114.5,111.2871,124.5,115.2871,114.5,119.2871,118.5,115.2871" style="stroke:#181818;stroke-width:1.0;"/><line style="stroke:#181818;stroke-width:1.0;" x1="34.5" x2="120.5" y1="115.2871" y2="115.2871"/><text fill="#000000" font-family="sans-serif" font-size="13" lengthAdjust="spacing" textLength="41" x="41.5" y="110.5449">show()</text><polygon fill="#181818" points="258,140.5977,268,144.5977,258,148.5977,262,144.5977" style="stroke:#181818;stroke-width:1.0;"/><line style="stroke:#181818;stroke-width:1.0;" x1="136.5" x2="264" y1="144.5977" y2="144.5977"/><text fill="#000000" font-family="sans-serif" font-size="13" lengthAdjust="spacing" textLength="102" x="143.5" y="139.8555">getOpenExams()</text><polygon fill="#181818" points="409,169.9082,419,173.9082,409,177.9082,413,173.9082" style="stroke:#181818;stroke-width:1.0;"/><line style="stroke:#181818;stroke-width:1.0;" x1="280" x2="415" y1="173.9082" y2="173.9082"/><text fill="#000000" font-family="sans-serif" font-size="13" lengthAdjust="spacing" textLength="102" x="287" y="169.166">getOpenExams()</text><polygon fill="#181818" points="557,199.2188,567,203.2188,557,207.2188,561,203.2188" style="stroke:#181818;stroke-width:1.0;"/><line style="stroke:#181818;stroke-width:1.0;" x1="431" x2="563" y1="203.2188" y2="203.2188"/><text fill="#000000" font-family="sans-serif" font-size="13" lengthAdjust="spacing" textLength="86" x="438" y="198.4766">Repositories()</text><polygon fill="#181818" points="708.5,228.5293,718.5,232.5293,708.5,236.5293,712.5,232.5293" style="stroke:#181818;stroke-width:1.0;"/><line style="stroke:#181818;stroke-width:1.0;" x1="579" x2="714.5" y1="232.5293" y2="232.5293"/><text fill="#000000" font-family="sans-serif" font-size="13" lengthAdjust="spacing" textLength="49" x="586" y="227.7871">Exams()</text><polygon fill="#181818" points="854,257.8398,864,261.8398,854,265.8398,858,261.8398" style="stroke:#181818;stroke-width:1.0;"/><line style="stroke:#181818;stroke-width:1.0;" x1="725.5" x2="860" y1="261.8398" y2="261.8398"/><text fill="#000000" font-family="sans-serif" font-size="13" lengthAdjust="spacing" textLength="38" x="732.5" y="257.0977">create</text><polygon fill="#181818" points="849,287.1504,859,291.1504,849,295.1504,853,291.1504" style="stroke:#181818;stroke-width:1.0;"/><line style="stroke:#181818;stroke-width:1.0;" x1="431" x2="855" y1="291.1504" y2="291.1504"/><text fill="#000000" font-family="sans-serif" font-size="13" lengthAdjust="spacing" textLength="102" x="438" y="286.4082">getOpenExams()</text><polygon fill="#181818" points="442,301.1504,432,305.1504,442,309.1504,438,305.1504" style="stroke:#181818;stroke-width:1.0;"/><line style="stroke:#181818;stroke-width:1.0;stroke-dasharray:2.0,2.0;" x1="436" x2="865" y1="305.1504" y2="305.1504"/><polygon fill="#181818" points="291,315.1504,281,319.1504,291,323.1504,287,319.1504" style="stroke:#181818;stroke-width:1.0;"/><line style="stroke:#181818;stroke-width:1.0;stroke-dasharray:2.0,2.0;" x1="285" x2="425" y1="319.1504" y2="319.1504"/><polygon fill="#181818" points="147.5,344.4609,137.5,348.4609,147.5,352.4609,143.5,348.4609" style="stroke:#181818;stroke-width:1.0;"/><line style="stroke:#181818;stroke-width:1.0;stroke-dasharray:2.0,2.0;" x1="141.5" x2="274" y1="348.4609" y2="348.4609"/><text fill="#000000" font-family="sans-serif" font-size="13" lengthAdjust="spacing" textLength="23" x="153.5" y="343.7188">List</text><line style="stroke:#181818;stroke-width:1.0;" x1="136.5" x2="178.5" y1="382.7715" y2="382.7715"/><line style="stroke:#181818;stroke-width:1.0;" x1="178.5" x2="178.5" y1="382.7715" y2="395.7715"/><line style="stroke:#181818;stroke-width:1.0;" x1="131.5" x2="178.5" y1="395.7715" y2="395.7715"/><polygon fill="#181818" points="141.5,391.7715,131.5,395.7715,141.5,399.7715,137.5,395.7715" style="stroke:#181818;stroke-width:1.0;"/><text fill="#000000" font-family="sans-serif" font-size="13" lengthAdjust="spacing" textLength="33" x="143.5" y="378.0293">Show</text><!--SRC=[XPFTJiGW48NlUGekzQ8lq90cncYoYOaRctq0fAEIh8K0hhjlxz1Ic69NkTZmSxxJcGChLJ2Ez-5hW35mwVbTt61Mkg2LjX8tdxGF3sVvwG-xAC1V8Qm3Zu0CsenTjos_DsDmvdW45p6o4aBQerP_mZsuarOGoMKgX9zd5RC7vn63KK7y29odFiXkhBUiAle5hF4QUxuyojZw9SBBL8YtUORG88DybHxuL5_1efwiX71vWHIRykHDXxcrt7-OxvjRXfxw90FW7kCuC58Kb8HQ_WxXsS8uVGe1daO6YpQVaO3HB8NslrCIveCbRVGW4RQbHGsRFaIS3-aTe5zAjULrCNHamwHUYPPxGRCIUSkL0oJOIZh0LIVI8dMvajIlmWgJDUJ-cn8-swXb0qxgPlK4jjZQbjvuUc3n_yCgh3AT7nkAUtoCZEWEkny0]--></g></svg>