<?xml version="1.0" encoding="us-ascii" standalone="no"?><svg xmlns="http://www.w3.org/2000/svg" xmlns:xlink="http://www.w3.org/1999/xlink" contentStyleType="text/css" height="500px" preserveAspectRatio="none" style="width:354px;height:500px;background:#FFFFFF;" version="1.1" viewBox="0 0 354 500" width="354px" zoomAndPan="magnify"><defs/><g><!--class ListMeetingsUI--><g id="elem_ListMeetingsUI"><rect codeLine="3" fill="#F1F1F1" height="66.6211" id="ListMeetingsUI" rx="2.5" ry="2.5" style="stroke:#181818;stroke-width:0.5;" width="123" x="118" y="7"/><ellipse cx="133" cy="23" fill="#ADD1B2" rx="11" ry="11" style="stroke:#181818;stroke-width:1.0;"/><path d="M135.7656,18.875 Q135.9219,18.6563 136.1094,18.5469 Q136.2969,18.4375 136.5156,18.4375 Q136.8906,18.4375 137.125,18.7031 Q137.3594,18.9531 137.3594,19.5625 L137.3594,21.0156 Q137.3594,21.625 137.125,21.8906 Q136.8906,22.1563 136.5156,22.1563 Q136.1719,22.1563 135.9688,21.9531 Q135.7656,21.7656 135.6563,21.25 Q135.6094,20.8906 135.4219,20.7031 Q135.0938,20.3281 134.4844,20.1094 Q133.875,19.8906 133.25,19.8906 Q132.4844,19.8906 131.8438,20.2188 Q131.2188,20.5469 130.7188,21.2969 Q130.2344,22.0469 130.2344,23.0781 L130.2344,24.1719 Q130.2344,25.4063 131.125,26.2344 Q132.0156,27.0469 133.6094,27.0469 Q134.5469,27.0469 135.2031,26.7969 Q135.5938,26.6406 136.0156,26.2031 Q136.2813,25.9375 136.4219,25.8594 Q136.5781,25.7813 136.7813,25.7813 Q137.1094,25.7813 137.3594,26.0469 Q137.625,26.2969 137.625,26.6406 Q137.625,26.9844 137.2813,27.3906 Q136.7813,27.9688 135.9844,28.2969 Q134.9063,28.75 133.6094,28.75 Q132.0938,28.75 130.8906,28.125 Q129.9063,27.625 129.2188,26.5625 Q128.5313,25.4844 128.5313,24.2031 L128.5313,23.0469 Q128.5313,21.7188 129.1406,20.5781 Q129.7656,19.4219 130.8594,18.8125 Q131.9531,18.1875 133.1875,18.1875 Q133.9219,18.1875 134.5625,18.3594 Q135.2188,18.5156 135.7656,18.875 Z " fill="#000000"/><text fill="#000000" font-family="sans-serif" font-size="14" lengthAdjust="spacing" textLength="91" x="147" y="28.7969">ListMeetingsUI</text><line style="stroke:#181818;stroke-width:0.5;" x1="119" x2="240" y1="39" y2="39"/><line style="stroke:#181818;stroke-width:0.5;" x1="119" x2="240" y1="47" y2="47"/><text fill="#000000" font-family="sans-serif" font-size="14" lengthAdjust="spacing" textLength="60" x="124" y="66.1074">doShow()</text></g><!--class ListMeetingsController--><g id="elem_ListMeetingsController"><rect codeLine="7" fill="#F1F1F1" height="66.6211" id="ListMeetingsController" rx="2.5" ry="2.5" style="stroke:#181818;stroke-width:0.5;" width="173" x="93" y="153"/><ellipse cx="108" cy="169" fill="#ADD1B2" rx="11" ry="11" style="stroke:#181818;stroke-width:1.0;"/><path d="M110.7656,164.875 Q110.9219,164.6563 111.1094,164.5469 Q111.2969,164.4375 111.5156,164.4375 Q111.8906,164.4375 112.125,164.7031 Q112.3594,164.9531 112.3594,165.5625 L112.3594,167.0156 Q112.3594,167.625 112.125,167.8906 Q111.8906,168.1563 111.5156,168.1563 Q111.1719,168.1563 110.9688,167.9531 Q110.7656,167.7656 110.6563,167.25 Q110.6094,166.8906 110.4219,166.7031 Q110.0938,166.3281 109.4844,166.1094 Q108.875,165.8906 108.25,165.8906 Q107.4844,165.8906 106.8438,166.2188 Q106.2188,166.5469 105.7188,167.2969 Q105.2344,168.0469 105.2344,169.0781 L105.2344,170.1719 Q105.2344,171.4063 106.125,172.2344 Q107.0156,173.0469 108.6094,173.0469 Q109.5469,173.0469 110.2031,172.7969 Q110.5938,172.6406 111.0156,172.2031 Q111.2813,171.9375 111.4219,171.8594 Q111.5781,171.7813 111.7813,171.7813 Q112.1094,171.7813 112.3594,172.0469 Q112.625,172.2969 112.625,172.6406 Q112.625,172.9844 112.2813,173.3906 Q111.7813,173.9688 110.9844,174.2969 Q109.9063,174.75 108.6094,174.75 Q107.0938,174.75 105.8906,174.125 Q104.9063,173.625 104.2188,172.5625 Q103.5313,171.4844 103.5313,170.2031 L103.5313,169.0469 Q103.5313,167.7188 104.1406,166.5781 Q104.7656,165.4219 105.8594,164.8125 Q106.9531,164.1875 108.1875,164.1875 Q108.9219,164.1875 109.5625,164.3594 Q110.2188,164.5156 110.7656,164.875 Z " fill="#000000"/><text fill="#000000" font-family="sans-serif" font-size="14" lengthAdjust="spacing" textLength="141" x="122" y="174.7969">ListMeetingsController</text><line style="stroke:#181818;stroke-width:0.5;" x1="94" x2="265" y1="185" y2="185"/><line style="stroke:#181818;stroke-width:0.5;" x1="94" x2="265" y1="193" y2="193"/><text fill="#000000" font-family="sans-serif" font-size="14" lengthAdjust="spacing" textLength="129" x="99" y="212.1074">listMeetingsByUser()</text></g><!--class ListMeetingsService--><g id="elem_ListMeetingsService"><rect codeLine="11" fill="#F1F1F1" height="66.6211" id="ListMeetingsService" rx="2.5" ry="2.5" style="stroke:#181818;stroke-width:0.5;" width="158" x="100.5" y="299"/><ellipse cx="115.5" cy="315" fill="#ADD1B2" rx="11" ry="11" style="stroke:#181818;stroke-width:1.0;"/><path d="M118.2656,310.875 Q118.4219,310.6563 118.6094,310.5469 Q118.7969,310.4375 119.0156,310.4375 Q119.3906,310.4375 119.625,310.7031 Q119.8594,310.9531 119.8594,311.5625 L119.8594,313.0156 Q119.8594,313.625 119.625,313.8906 Q119.3906,314.1563 119.0156,314.1563 Q118.6719,314.1563 118.4688,313.9531 Q118.2656,313.7656 118.1563,313.25 Q118.1094,312.8906 117.9219,312.7031 Q117.5938,312.3281 116.9844,312.1094 Q116.375,311.8906 115.75,311.8906 Q114.9844,311.8906 114.3438,312.2188 Q113.7188,312.5469 113.2188,313.2969 Q112.7344,314.0469 112.7344,315.0781 L112.7344,316.1719 Q112.7344,317.4063 113.625,318.2344 Q114.5156,319.0469 116.1094,319.0469 Q117.0469,319.0469 117.7031,318.7969 Q118.0938,318.6406 118.5156,318.2031 Q118.7813,317.9375 118.9219,317.8594 Q119.0781,317.7813 119.2813,317.7813 Q119.6094,317.7813 119.8594,318.0469 Q120.125,318.2969 120.125,318.6406 Q120.125,318.9844 119.7813,319.3906 Q119.2813,319.9688 118.4844,320.2969 Q117.4063,320.75 116.1094,320.75 Q114.5938,320.75 113.3906,320.125 Q112.4063,319.625 111.7188,318.5625 Q111.0313,317.4844 111.0313,316.2031 L111.0313,315.0469 Q111.0313,313.7188 111.6406,312.5781 Q112.2656,311.4219 113.3594,310.8125 Q114.4531,310.1875 115.6875,310.1875 Q116.4219,310.1875 117.0625,310.3594 Q117.7188,310.5156 118.2656,310.875 Z " fill="#000000"/><text fill="#000000" font-family="sans-serif" font-size="14" lengthAdjust="spacing" textLength="126" x="129.5" y="320.7969">ListMeetingsService</text><line style="stroke:#181818;stroke-width:0.5;" x1="101.5" x2="257.5" y1="331" y2="331"/><line style="stroke:#181818;stroke-width:0.5;" x1="101.5" x2="257.5" y1="339" y2="339"/><text fill="#000000" font-family="sans-serif" font-size="14" lengthAdjust="spacing" textLength="132" x="106.5" y="358.1074">getMeetingsByUser()</text></g><!--class MeetingsRepository--><g id="elem_MeetingsRepository"><rect codeLine="15" fill="#F1F1F1" height="48" id="MeetingsRepository" rx="2.5" ry="2.5" style="stroke:#181818;stroke-width:0.5;" width="157" x="7" y="445"/><ellipse cx="22" cy="461" fill="#ADD1B2" rx="11" ry="11" style="stroke:#181818;stroke-width:1.0;"/><path d="M24.7656,456.875 Q24.9219,456.6563 25.1094,456.5469 Q25.2969,456.4375 25.5156,456.4375 Q25.8906,456.4375 26.125,456.7031 Q26.3594,456.9531 26.3594,457.5625 L26.3594,459.0156 Q26.3594,459.625 26.125,459.8906 Q25.8906,460.1563 25.5156,460.1563 Q25.1719,460.1563 24.9688,459.9531 Q24.7656,459.7656 24.6563,459.25 Q24.6094,458.8906 24.4219,458.7031 Q24.0938,458.3281 23.4844,458.1094 Q22.875,457.8906 22.25,457.8906 Q21.4844,457.8906 20.8438,458.2188 Q20.2188,458.5469 19.7188,459.2969 Q19.2344,460.0469 19.2344,461.0781 L19.2344,462.1719 Q19.2344,463.4063 20.125,464.2344 Q21.0156,465.0469 22.6094,465.0469 Q23.5469,465.0469 24.2031,464.7969 Q24.5938,464.6406 25.0156,464.2031 Q25.2813,463.9375 25.4219,463.8594 Q25.5781,463.7813 25.7813,463.7813 Q26.1094,463.7813 26.3594,464.0469 Q26.625,464.2969 26.625,464.6406 Q26.625,464.9844 26.2813,465.3906 Q25.7813,465.9688 24.9844,466.2969 Q23.9063,466.75 22.6094,466.75 Q21.0938,466.75 19.8906,466.125 Q18.9063,465.625 18.2188,464.5625 Q17.5313,463.4844 17.5313,462.2031 L17.5313,461.0469 Q17.5313,459.7188 18.1406,458.5781 Q18.7656,457.4219 19.8594,456.8125 Q20.9531,456.1875 22.1875,456.1875 Q22.9219,456.1875 23.5625,456.3594 Q24.2188,456.5156 24.7656,456.875 Z " fill="#000000"/><text fill="#000000" font-family="sans-serif" font-size="14" lengthAdjust="spacing" textLength="125" x="36" y="466.7969">MeetingsRepository</text><line style="stroke:#181818;stroke-width:0.5;" x1="8" x2="163" y1="477" y2="477"/><line style="stroke:#181818;stroke-width:0.5;" x1="8" x2="163" y1="485" y2="485"/></g><!--class RepositoryFactory--><g id="elem_RepositoryFactory"><rect codeLine="18" fill="#F1F1F1" height="48" id="RepositoryFactory" rx="2.5" ry="2.5" style="stroke:#181818;stroke-width:0.5;" width="148" x="199.5" y="445"/><ellipse cx="214.5" cy="461" fill="#ADD1B2" rx="11" ry="11" style="stroke:#181818;stroke-width:1.0;"/><path d="M217.2656,456.875 Q217.4219,456.6563 217.6094,456.5469 Q217.7969,456.4375 218.0156,456.4375 Q218.3906,456.4375 218.625,456.7031 Q218.8594,456.9531 218.8594,457.5625 L218.8594,459.0156 Q218.8594,459.625 218.625,459.8906 Q218.3906,460.1563 218.0156,460.1563 Q217.6719,460.1563 217.4688,459.9531 Q217.2656,459.7656 217.1563,459.25 Q217.1094,458.8906 216.9219,458.7031 Q216.5938,458.3281 215.9844,458.1094 Q215.375,457.8906 214.75,457.8906 Q213.9844,457.8906 213.3438,458.2188 Q212.7188,458.5469 212.2188,459.2969 Q211.7344,460.0469 211.7344,461.0781 L211.7344,462.1719 Q211.7344,463.4063 212.625,464.2344 Q213.5156,465.0469 215.1094,465.0469 Q216.0469,465.0469 216.7031,464.7969 Q217.0938,464.6406 217.5156,464.2031 Q217.7813,463.9375 217.9219,463.8594 Q218.0781,463.7813 218.2813,463.7813 Q218.6094,463.7813 218.8594,464.0469 Q219.125,464.2969 219.125,464.6406 Q219.125,464.9844 218.7813,465.3906 Q218.2813,465.9688 217.4844,466.2969 Q216.4063,466.75 215.1094,466.75 Q213.5938,466.75 212.3906,466.125 Q211.4063,465.625 210.7188,464.5625 Q210.0313,463.4844 210.0313,462.2031 L210.0313,461.0469 Q210.0313,459.7188 210.6406,458.5781 Q211.2656,457.4219 212.3594,456.8125 Q213.4531,456.1875 214.6875,456.1875 Q215.4219,456.1875 216.0625,456.3594 Q216.7188,456.5156 217.2656,456.875 Z " fill="#000000"/><text fill="#000000" font-family="sans-serif" font-size="14" lengthAdjust="spacing" textLength="116" x="228.5" y="466.7969">RepositoryFactory</text><line style="stroke:#181818;stroke-width:0.5;" x1="200.5" x2="346.5" y1="477" y2="477"/><line style="stroke:#181818;stroke-width:0.5;" x1="200.5" x2="346.5" y1="485" y2="485"/></g><!--link ListMeetingsUI to ListMeetingsController--><g id="link_ListMeetingsUI_ListMeetingsController"><path codeLine="21" d="M179.5,74.18 C179.5,96.09 179.5,125 179.5,147.87 " fill="none" id="ListMeetingsUI-to-ListMeetingsController" style="stroke:#181818;stroke-width:1.0;"/><polygon fill="#181818" points="179.5,152.95,183.5,143.95,179.5,147.95,175.5,143.95,179.5,152.95" style="stroke:#181818;stroke-width:1.0;"/><text fill="#000000" font-family="sans-serif" font-size="13" lengthAdjust="spacing" textLength="107" x="180.5" y="119.0283">uses the controller</text></g><!--link ListMeetingsController to ListMeetingsService--><g id="link_ListMeetingsController_ListMeetingsService"><path codeLine="22" d="M179.5,220.18 C179.5,242.09 179.5,271 179.5,293.87 " fill="none" id="ListMeetingsController-to-ListMeetingsService" style="stroke:#181818;stroke-width:1.0;"/><polygon fill="#181818" points="179.5,298.95,183.5,289.95,179.5,293.95,175.5,289.95,179.5,298.95" style="stroke:#181818;stroke-width:1.0;"/><text fill="#000000" font-family="sans-serif" font-size="13" lengthAdjust="spacing" textLength="65" x="180.5" y="265.0283">get the List</text></g><!--link ListMeetingsService to RepositoryFactory--><g id="link_ListMeetingsService_RepositoryFactory"><path codeLine="23" d="M224.94,366.09 C234.79,374.89 244.38,385.04 251.5,396 C260.06,409.18 265.44,425.86 268.73,439.85 " fill="none" id="ListMeetingsService-to-RepositoryFactory" style="stroke:#181818;stroke-width:1.0;"/><polygon fill="#181818" points="269.85,444.87,271.7964,435.2154,268.7623,439.9897,263.988,436.9557,269.85,444.87" style="stroke:#181818;stroke-width:1.0;"/></g><!--link ListMeetingsService to MeetingsRepository--><g id="link_ListMeetingsService_MeetingsRepository"><path codeLine="24" d="M108.75,366.01 C97.81,374.21 88,384.14 81.5,396 C74.26,409.2 74.71,425.88 77.21,439.86 " fill="none" id="ListMeetingsService-to-MeetingsRepository" style="stroke:#181818;stroke-width:1.0;"/><polygon fill="#181818" points="78.22,444.88,80.3934,435.274,77.2477,439.9755,72.5462,436.8297,78.22,444.88" style="stroke:#181818;stroke-width:1.0;"/><text fill="#000000" font-family="sans-serif" font-size="13" lengthAdjust="spacing" textLength="160" x="82.5" y="411.0283">find Meetings By Username</text></g><!--SRC=[VP3D3e8m48JlVOgzgGVapi439YOcUf7m04rPeKbfIRT8YF7TBOGVe-3Ukj_CPAURmhcAeZ2i5DUkBjLUc38KYXC5cUIvvILZ_HCkajmLqKcTKtg69mC_cKaAqsntxBKaEnhjh54AxI1N7p1kKqAxPatGFgJ0mPVZ7zj8RbWPaixOrhicEczFNCpmgqsGcKO7XxNh0IAe2GbSWI2cFLkH1rz9OncVuflq8HrcIvhE-tFpgdAXUpyHtANE9Wnn2zstQLuYUmC0]--></g></svg>