<?xml version="1.0" encoding="us-ascii" standalone="no"?><svg xmlns="http://www.w3.org/2000/svg" xmlns:xlink="http://www.w3.org/1999/xlink" contentStyleType="text/css" height="555px" preserveAspectRatio="none" style="width:592px;height:555px;background:#FFFFFF;" version="1.1" viewBox="0 0 592 555" width="592px" zoomAndPan="magnify"><defs/><g><!--class ListMeetingsUI--><g id="elem_ListMeetingsUI"><rect codeLine="3" fill="#F1F1F1" height="103.8633" id="ListMeetingsUI" rx="2.5" ry="2.5" style="stroke:#181818;stroke-width:0.5;" width="143" x="229" y="7"/><ellipse cx="253" cy="23" fill="#ADD1B2" rx="11" ry="11" style="stroke:#181818;stroke-width:1.0;"/><path d="M255.7656,18.875 Q255.9219,18.6563 256.1094,18.5469 Q256.2969,18.4375 256.5156,18.4375 Q256.8906,18.4375 257.125,18.7031 Q257.3594,18.9531 257.3594,19.5625 L257.3594,21.0156 Q257.3594,21.625 257.125,21.8906 Q256.8906,22.1563 256.5156,22.1563 Q256.1719,22.1563 255.9688,21.9531 Q255.7656,21.7656 255.6563,21.25 Q255.6094,20.8906 255.4219,20.7031 Q255.0938,20.3281 254.4844,20.1094 Q253.875,19.8906 253.25,19.8906 Q252.4844,19.8906 251.8438,20.2188 Q251.2188,20.5469 250.7188,21.2969 Q250.2344,22.0469 250.2344,23.0781 L250.2344,24.1719 Q250.2344,25.4063 251.125,26.2344 Q252.0156,27.0469 253.6094,27.0469 Q254.5469,27.0469 255.2031,26.7969 Q255.5938,26.6406 256.0156,26.2031 Q256.2813,25.9375 256.4219,25.8594 Q256.5781,25.7813 256.7813,25.7813 Q257.1094,25.7813 257.3594,26.0469 Q257.625,26.2969 257.625,26.6406 Q257.625,26.9844 257.2813,27.3906 Q256.7813,27.9688 255.9844,28.2969 Q254.9063,28.75 253.6094,28.75 Q252.0938,28.75 250.8906,28.125 Q249.9063,27.625 249.2188,26.5625 Q248.5313,25.4844 248.5313,24.2031 L248.5313,23.0469 Q248.5313,21.7188 249.1406,20.5781 Q249.7656,19.4219 250.8594,18.8125 Q251.9531,18.1875 253.1875,18.1875 Q253.9219,18.1875 254.5625,18.3594 Q255.2188,18.5156 255.7656,18.875 Z " fill="#000000"/><text fill="#000000" font-family="sans-serif" font-size="14" lengthAdjust="spacing" textLength="91" x="269" y="28.7969">ListMeetingsUI</text><line style="stroke:#181818;stroke-width:0.5;" x1="230" x2="371" y1="39" y2="39"/><line style="stroke:#181818;stroke-width:0.5;" x1="230" x2="371" y1="47" y2="47"/><ellipse cx="240" cy="61.8105" fill="#84BE84" rx="3" ry="3" style="stroke:#038048;stroke-width:1.0;"/><text fill="#000000" font-family="sans-serif" font-size="14" lengthAdjust="spacing" textLength="60" x="249" y="66.1074">doShow()</text><ellipse cx="240" cy="80.4316" fill="#84BE84" rx="3" ry="3" style="stroke:#038048;stroke-width:1.0;"/><text fill="#000000" font-family="sans-serif" font-size="14" lengthAdjust="spacing" textLength="117" x="249" y="84.7285">showMyMeetings()</text><ellipse cx="240" cy="99.0527" fill="#84BE84" rx="3" ry="3" style="stroke:#038048;stroke-width:1.0;"/><text fill="#000000" font-family="sans-serif" font-size="14" lengthAdjust="spacing" textLength="116" x="249" y="103.3496">showParticipants()</text></g><!--class ListMeetingsController--><g id="elem_ListMeetingsController"><rect codeLine="9" fill="#F1F1F1" height="85.2422" id="ListMeetingsController" rx="2.5" ry="2.5" style="stroke:#181818;stroke-width:0.5;" width="174" x="213.5" y="190"/><ellipse cx="228.95" cy="206" fill="#ADD1B2" rx="11" ry="11" style="stroke:#181818;stroke-width:1.0;"/><path d="M231.7156,201.875 Q231.8719,201.6563 232.0594,201.5469 Q232.2469,201.4375 232.4656,201.4375 Q232.8406,201.4375 233.075,201.7031 Q233.3094,201.9531 233.3094,202.5625 L233.3094,204.0156 Q233.3094,204.625 233.075,204.8906 Q232.8406,205.1563 232.4656,205.1563 Q232.1219,205.1563 231.9188,204.9531 Q231.7156,204.7656 231.6063,204.25 Q231.5594,203.8906 231.3719,203.7031 Q231.0438,203.3281 230.4344,203.1094 Q229.825,202.8906 229.2,202.8906 Q228.4344,202.8906 227.7938,203.2188 Q227.1688,203.5469 226.6688,204.2969 Q226.1844,205.0469 226.1844,206.0781 L226.1844,207.1719 Q226.1844,208.4063 227.075,209.2344 Q227.9656,210.0469 229.5594,210.0469 Q230.4969,210.0469 231.1531,209.7969 Q231.5438,209.6406 231.9656,209.2031 Q232.2313,208.9375 232.3719,208.8594 Q232.5281,208.7813 232.7313,208.7813 Q233.0594,208.7813 233.3094,209.0469 Q233.575,209.2969 233.575,209.6406 Q233.575,209.9844 233.2313,210.3906 Q232.7313,210.9688 231.9344,211.2969 Q230.8563,211.75 229.5594,211.75 Q228.0438,211.75 226.8406,211.125 Q225.8563,210.625 225.1688,209.5625 Q224.4813,208.4844 224.4813,207.2031 L224.4813,206.0469 Q224.4813,204.7188 225.0906,203.5781 Q225.7156,202.4219 226.8094,201.8125 Q227.9031,201.1875 229.1375,201.1875 Q229.8719,201.1875 230.5125,201.3594 Q231.1688,201.5156 231.7156,201.875 Z " fill="#000000"/><text fill="#000000" font-family="sans-serif" font-size="14" lengthAdjust="spacing" textLength="141" x="243.05" y="211.7969">ListMeetingsController</text><line style="stroke:#181818;stroke-width:0.5;" x1="214.5" x2="386.5" y1="222" y2="222"/><line style="stroke:#181818;stroke-width:0.5;" x1="214.5" x2="386.5" y1="230" y2="230"/><ellipse cx="224.5" cy="244.8105" fill="#84BE84" rx="3" ry="3" style="stroke:#038048;stroke-width:1.0;"/><text fill="#000000" font-family="sans-serif" font-size="14" lengthAdjust="spacing" textLength="129" x="233.5" y="249.1074">listMeetingsByUser()</text><ellipse cx="224.5" cy="263.4316" fill="#84BE84" rx="3" ry="3" style="stroke:#038048;stroke-width:1.0;"/><text fill="#000000" font-family="sans-serif" font-size="14" lengthAdjust="spacing" textLength="148" x="233.5" y="267.7285">participantsOfMeeting()</text></g><!--class ListMeetingsService--><g id="elem_ListMeetingsService"><rect codeLine="14" fill="#F1F1F1" height="85.2422" id="ListMeetingsService" rx="2.5" ry="2.5" style="stroke:#181818;stroke-width:0.5;" width="195" x="203" y="336"/><ellipse cx="234.65" cy="352" fill="#ADD1B2" rx="11" ry="11" style="stroke:#181818;stroke-width:1.0;"/><path d="M237.4156,347.875 Q237.5719,347.6563 237.7594,347.5469 Q237.9469,347.4375 238.1656,347.4375 Q238.5406,347.4375 238.775,347.7031 Q239.0094,347.9531 239.0094,348.5625 L239.0094,350.0156 Q239.0094,350.625 238.775,350.8906 Q238.5406,351.1563 238.1656,351.1563 Q237.8219,351.1563 237.6188,350.9531 Q237.4156,350.7656 237.3063,350.25 Q237.2594,349.8906 237.0719,349.7031 Q236.7438,349.3281 236.1344,349.1094 Q235.525,348.8906 234.9,348.8906 Q234.1344,348.8906 233.4938,349.2188 Q232.8688,349.5469 232.3688,350.2969 Q231.8844,351.0469 231.8844,352.0781 L231.8844,353.1719 Q231.8844,354.4063 232.775,355.2344 Q233.6656,356.0469 235.2594,356.0469 Q236.1969,356.0469 236.8531,355.7969 Q237.2438,355.6406 237.6656,355.2031 Q237.9313,354.9375 238.0719,354.8594 Q238.2281,354.7813 238.4313,354.7813 Q238.7594,354.7813 239.0094,355.0469 Q239.275,355.2969 239.275,355.6406 Q239.275,355.9844 238.9313,356.3906 Q238.4313,356.9688 237.6344,357.2969 Q236.5563,357.75 235.2594,357.75 Q233.7438,357.75 232.5406,357.125 Q231.5563,356.625 230.8688,355.5625 Q230.1813,354.4844 230.1813,353.2031 L230.1813,352.0469 Q230.1813,350.7188 230.7906,349.5781 Q231.4156,348.4219 232.5094,347.8125 Q233.6031,347.1875 234.8375,347.1875 Q235.5719,347.1875 236.2125,347.3594 Q236.8688,347.5156 237.4156,347.875 Z " fill="#000000"/><text fill="#000000" font-family="sans-serif" font-size="14" lengthAdjust="spacing" textLength="126" x="252.35" y="357.7969">ListMeetingsService</text><line style="stroke:#181818;stroke-width:0.5;" x1="204" x2="397" y1="368" y2="368"/><line style="stroke:#181818;stroke-width:0.5;" x1="204" x2="397" y1="376" y2="376"/><ellipse cx="214" cy="390.8105" fill="#84BE84" rx="3" ry="3" style="stroke:#038048;stroke-width:1.0;"/><text fill="#000000" font-family="sans-serif" font-size="14" lengthAdjust="spacing" textLength="132" x="223" y="395.1074">getMeetingsByUser()</text><ellipse cx="214" cy="409.4316" fill="#84BE84" rx="3" ry="3" style="stroke:#038048;stroke-width:1.0;"/><text fill="#000000" font-family="sans-serif" font-size="14" lengthAdjust="spacing" textLength="169" x="223" y="413.7285">getParticipantsOfMeeting()</text></g><!--class MeetingsRepository--><g id="elem_MeetingsRepository"><rect codeLine="19" fill="#F1F1F1" height="48" id="MeetingsRepository" rx="2.5" ry="2.5" style="stroke:#181818;stroke-width:0.5;" width="157" x="7" y="500"/><ellipse cx="22" cy="516" fill="#ADD1B2" rx="11" ry="11" style="stroke:#181818;stroke-width:1.0;"/><path d="M24.7656,511.875 Q24.9219,511.6563 25.1094,511.5469 Q25.2969,511.4375 25.5156,511.4375 Q25.8906,511.4375 26.125,511.7031 Q26.3594,511.9531 26.3594,512.5625 L26.3594,514.0156 Q26.3594,514.625 26.125,514.8906 Q25.8906,515.1563 25.5156,515.1563 Q25.1719,515.1563 24.9688,514.9531 Q24.7656,514.7656 24.6563,514.25 Q24.6094,513.8906 24.4219,513.7031 Q24.0938,513.3281 23.4844,513.1094 Q22.875,512.8906 22.25,512.8906 Q21.4844,512.8906 20.8438,513.2188 Q20.2188,513.5469 19.7188,514.2969 Q19.2344,515.0469 19.2344,516.0781 L19.2344,517.1719 Q19.2344,518.4063 20.125,519.2344 Q21.0156,520.0469 22.6094,520.0469 Q23.5469,520.0469 24.2031,519.7969 Q24.5938,519.6406 25.0156,519.2031 Q25.2813,518.9375 25.4219,518.8594 Q25.5781,518.7813 25.7813,518.7813 Q26.1094,518.7813 26.3594,519.0469 Q26.625,519.2969 26.625,519.6406 Q26.625,519.9844 26.2813,520.3906 Q25.7813,520.9688 24.9844,521.2969 Q23.9063,521.75 22.6094,521.75 Q21.0938,521.75 19.8906,521.125 Q18.9063,520.625 18.2188,519.5625 Q17.5313,518.4844 17.5313,517.2031 L17.5313,516.0469 Q17.5313,514.7188 18.1406,513.5781 Q18.7656,512.4219 19.8594,511.8125 Q20.9531,511.1875 22.1875,511.1875 Q22.9219,511.1875 23.5625,511.3594 Q24.2188,511.5156 24.7656,511.875 Z " fill="#000000"/><text fill="#000000" font-family="sans-serif" font-size="14" lengthAdjust="spacing" textLength="125" x="36" y="521.7969">MeetingsRepository</text><line style="stroke:#181818;stroke-width:0.5;" x1="8" x2="163" y1="532" y2="532"/><line style="stroke:#181818;stroke-width:0.5;" x1="8" x2="163" y1="540" y2="540"/></g><!--class MeetingRequestRepository--><g id="elem_MeetingRequestRepository"><rect codeLine="22" fill="#F1F1F1" height="48" id="MeetingRequestRepository" rx="2.5" ry="2.5" style="stroke:#181818;stroke-width:0.5;" width="203" x="199" y="500"/><ellipse cx="214" cy="516" fill="#ADD1B2" rx="11" ry="11" style="stroke:#181818;stroke-width:1.0;"/><path d="M216.7656,511.875 Q216.9219,511.6563 217.1094,511.5469 Q217.2969,511.4375 217.5156,511.4375 Q217.8906,511.4375 218.125,511.7031 Q218.3594,511.9531 218.3594,512.5625 L218.3594,514.0156 Q218.3594,514.625 218.125,514.8906 Q217.8906,515.1563 217.5156,515.1563 Q217.1719,515.1563 216.9688,514.9531 Q216.7656,514.7656 216.6563,514.25 Q216.6094,513.8906 216.4219,513.7031 Q216.0938,513.3281 215.4844,513.1094 Q214.875,512.8906 214.25,512.8906 Q213.4844,512.8906 212.8438,513.2188 Q212.2188,513.5469 211.7188,514.2969 Q211.2344,515.0469 211.2344,516.0781 L211.2344,517.1719 Q211.2344,518.4063 212.125,519.2344 Q213.0156,520.0469 214.6094,520.0469 Q215.5469,520.0469 216.2031,519.7969 Q216.5938,519.6406 217.0156,519.2031 Q217.2813,518.9375 217.4219,518.8594 Q217.5781,518.7813 217.7813,518.7813 Q218.1094,518.7813 218.3594,519.0469 Q218.625,519.2969 218.625,519.6406 Q218.625,519.9844 218.2813,520.3906 Q217.7813,520.9688 216.9844,521.2969 Q215.9063,521.75 214.6094,521.75 Q213.0938,521.75 211.8906,521.125 Q210.9063,520.625 210.2188,519.5625 Q209.5313,518.4844 209.5313,517.2031 L209.5313,516.0469 Q209.5313,514.7188 210.1406,513.5781 Q210.7656,512.4219 211.8594,511.8125 Q212.9531,511.1875 214.1875,511.1875 Q214.9219,511.1875 215.5625,511.3594 Q216.2188,511.5156 216.7656,511.875 Z " fill="#000000"/><text fill="#000000" font-family="sans-serif" font-size="14" lengthAdjust="spacing" textLength="171" x="228" y="521.7969">MeetingRequestRepository</text><line style="stroke:#181818;stroke-width:0.5;" x1="200" x2="401" y1="532" y2="532"/><line style="stroke:#181818;stroke-width:0.5;" x1="200" x2="401" y1="540" y2="540"/></g><!--class RepositoryFactory--><g id="elem_RepositoryFactory"><rect codeLine="25" fill="#F1F1F1" height="48" id="RepositoryFactory" rx="2.5" ry="2.5" style="stroke:#181818;stroke-width:0.5;" width="148" x="437.5" y="500"/><ellipse cx="452.5" cy="516" fill="#ADD1B2" rx="11" ry="11" style="stroke:#181818;stroke-width:1.0;"/><path d="M455.2656,511.875 Q455.4219,511.6563 455.6094,511.5469 Q455.7969,511.4375 456.0156,511.4375 Q456.3906,511.4375 456.625,511.7031 Q456.8594,511.9531 456.8594,512.5625 L456.8594,514.0156 Q456.8594,514.625 456.625,514.8906 Q456.3906,515.1563 456.0156,515.1563 Q455.6719,515.1563 455.4688,514.9531 Q455.2656,514.7656 455.1563,514.25 Q455.1094,513.8906 454.9219,513.7031 Q454.5938,513.3281 453.9844,513.1094 Q453.375,512.8906 452.75,512.8906 Q451.9844,512.8906 451.3438,513.2188 Q450.7188,513.5469 450.2188,514.2969 Q449.7344,515.0469 449.7344,516.0781 L449.7344,517.1719 Q449.7344,518.4063 450.625,519.2344 Q451.5156,520.0469 453.1094,520.0469 Q454.0469,520.0469 454.7031,519.7969 Q455.0938,519.6406 455.5156,519.2031 Q455.7813,518.9375 455.9219,518.8594 Q456.0781,518.7813 456.2813,518.7813 Q456.6094,518.7813 456.8594,519.0469 Q457.125,519.2969 457.125,519.6406 Q457.125,519.9844 456.7813,520.3906 Q456.2813,520.9688 455.4844,521.2969 Q454.4063,521.75 453.1094,521.75 Q451.5938,521.75 450.3906,521.125 Q449.4063,520.625 448.7188,519.5625 Q448.0313,518.4844 448.0313,517.2031 L448.0313,516.0469 Q448.0313,514.7188 448.6406,513.5781 Q449.2656,512.4219 450.3594,511.8125 Q451.4531,511.1875 452.6875,511.1875 Q453.4219,511.1875 454.0625,511.3594 Q454.7188,511.5156 455.2656,511.875 Z " fill="#000000"/><text fill="#000000" font-family="sans-serif" font-size="14" lengthAdjust="spacing" textLength="116" x="466.5" y="521.7969">RepositoryFactory</text><line style="stroke:#181818;stroke-width:0.5;" x1="438.5" x2="584.5" y1="532" y2="532"/><line style="stroke:#181818;stroke-width:0.5;" x1="438.5" x2="584.5" y1="540" y2="540"/></g><!--link ListMeetingsUI to ListMeetingsController--><g id="link_ListMeetingsUI_ListMeetingsController"><path codeLine="28" d="M300.5,111.46 C300.5,134.75 300.5,162.1 300.5,184.8 " fill="none" id="ListMeetingsUI-to-ListMeetingsController" style="stroke:#181818;stroke-width:1.0;"/><polygon fill="#181818" points="300.5,189.86,304.5,180.86,300.5,184.86,296.5,180.86,300.5,189.86" style="stroke:#181818;stroke-width:1.0;"/><text fill="#000000" font-family="sans-serif" font-size="13" lengthAdjust="spacing" textLength="107" x="301.5" y="156.0283">uses the controller</text></g><!--link ListMeetingsController to ListMeetingsService--><g id="link_ListMeetingsController_ListMeetingsService"><path codeLine="29" d="M300.5,275.15 C300.5,292.46 300.5,312.64 300.5,330.49 " fill="none" id="ListMeetingsController-to-ListMeetingsService" style="stroke:#181818;stroke-width:1.0;"/><polygon fill="#181818" points="300.5,335.94,304.5,326.94,300.5,330.94,296.5,326.94,300.5,335.94" style="stroke:#181818;stroke-width:1.0;"/></g><!--link ListMeetingsService to RepositoryFactory--><g id="link_ListMeetingsService_RepositoryFactory"><path codeLine="30" d="M398.41,415.47 C418.7,425.3 439.16,437.15 456.5,451 C471.87,463.28 485.35,480.74 495.12,495.4 " fill="none" id="ListMeetingsService-to-RepositoryFactory" style="stroke:#181818;stroke-width:1.0;"/><polygon fill="#181818" points="498.03,499.85,496.4428,490.1299,495.2895,495.6679,489.7515,494.5146,498.03,499.85" style="stroke:#181818;stroke-width:1.0;"/></g><!--link ListMeetingsService to MeetingsRepository--><g id="link_ListMeetingsService_MeetingsRepository"><path codeLine="31" d="M224.34,421.07 C208.27,430.48 191.61,440.74 176.5,451 C155.91,464.97 134,482.23 116.84,496.34 " fill="none" id="ListMeetingsService-to-MeetingsRepository" style="stroke:#181818;stroke-width:1.0;"/><polygon fill="#181818" points="112.58,499.86,122.0664,497.2128,116.4351,496.676,116.972,491.0446,112.58,499.86" style="stroke:#181818;stroke-width:1.0;"/><text fill="#000000" font-family="sans-serif" font-size="13" lengthAdjust="spacing" textLength="114" x="177.5" y="466.0283">getMeetingsByUser</text></g><!--link ListMeetingsService to MeetingRequestRepository--><g id="link_ListMeetingsService_MeetingRequestRepository"><path codeLine="32" d="M300.5,421.01 C300.5,444.66 300.5,473.69 300.5,494.72 " fill="none" id="ListMeetingsService-to-MeetingRequestRepository" style="stroke:#181818;stroke-width:1.0;"/><polygon fill="#181818" points="300.5,499.88,304.5,490.88,300.5,494.88,296.5,490.88,300.5,499.88" style="stroke:#181818;stroke-width:1.0;"/><text fill="#000000" font-family="sans-serif" font-size="13" lengthAdjust="spacing" textLength="146" x="301.5" y="466.0283">getParticipantsOfMeeting</text></g><!--SRC=[XP71QiCm38RlVWhTjbAot7FeeOF2e66bfGzW72qnEB5dAIjXxDtdbZHjavZg9ls_FudVBnMpeonDdP4DjxLvKxPEbP54IQ5bwMKjnAM5hIRE4Lat9Hq_u5T0g2KKzb3Pq-kYRoaqUNVrFOntqhDMseL5P-5l3lnk6_RM6FJ30dCdhxiZeH-exexu-TMROkW3-X-jSE2M6CC6PVUCV7swHsT9i_LT08_LFNwtI3plkKqtKjt4KSn9OKzDieg51911IqZ05O8QvY9YJqQaFXCnbzFPExanwfp9urBPDETdZ4bgMVH7n3y0]--></g></svg>