<?xml version="1.0" encoding="us-ascii" standalone="no"?><svg xmlns="http://www.w3.org/2000/svg" xmlns:xlink="http://www.w3.org/1999/xlink" contentStyleType="text/css" height="551px" preserveAspectRatio="none" style="width:1173px;height:551px;background:#FFFFFF;" version="1.1" viewBox="0 0 1173 551" width="1173px" zoomAndPan="magnify"><defs/><g><rect fill="#FFFFFF" height="345.2012" style="stroke:#181818;stroke-width:1.0;" width="10" x="17.5" y="98.2422"/><rect fill="#FFFFFF" height="321.9102" style="stroke:#181818;stroke-width:1.0;" width="10" x="244.5" y="121.5332"/><rect fill="#FFFFFF" height="250.3281" style="stroke:#181818;stroke-width:1.0;" width="10" x="409.5" y="152.8242"/><rect fill="#FFFFFF" height="187.7461" style="stroke:#181818;stroke-width:1.0;" width="10" x="576.5" y="184.1152"/><rect fill="#FFFFFF" height="31.291" style="stroke:#181818;stroke-width:1.0;" width="10" x="724.5" y="215.4063"/><rect fill="#FFFFFF" height="31.291" style="stroke:#181818;stroke-width:1.0;" width="10" x="867.5" y="277.9883"/><rect fill="#FFFFFF" height="31.291" style="stroke:#181818;stroke-width:1.0;" width="10" x="1010.5" y="309.2793"/><line style="stroke:#181818;stroke-width:0.5;stroke-dasharray:5.0,5.0;" x1="22" x2="22" y1="88.2422" y2="452.4434"/><line style="stroke:#181818;stroke-width:0.5;stroke-dasharray:5.0,5.0;" x1="249.5" x2="249.5" y1="88.2422" y2="452.4434"/><line style="stroke:#181818;stroke-width:0.5;stroke-dasharray:5.0,5.0;" x1="414" x2="414" y1="88.2422" y2="452.4434"/><line style="stroke:#181818;stroke-width:0.5;stroke-dasharray:5.0,5.0;" x1="581.5" x2="581.5" y1="88.2422" y2="452.4434"/><line style="stroke:#181818;stroke-width:0.5;stroke-dasharray:5.0,5.0;" x1="729.5" x2="729.5" y1="88.2422" y2="452.4434"/><line style="stroke:#181818;stroke-width:0.5;stroke-dasharray:5.0,5.0;" x1="872.5" x2="872.5" y1="88.2422" y2="452.4434"/><line style="stroke:#181818;stroke-width:0.5;stroke-dasharray:5.0,5.0;" x1="1015" x2="1015" y1="88.2422" y2="452.4434"/><line style="stroke:#181818;stroke-width:0.5;stroke-dasharray:5.0,5.0;" x1="1128" x2="1128" y1="88.2422" y2="452.4434"/><text fill="#000000" font-family="sans-serif" font-size="14" lengthAdjust="spacing" textLength="29" x="5" y="84.7285">User</text><ellipse cx="22.5" cy="18.1211" fill="#E2E2F0" rx="8" ry="8" style="stroke:#181818;stroke-width:0.5;"/><path d="M22.5,26.1211 L22.5,53.1211 M9.5,34.1211 L35.5,34.1211 M22.5,53.1211 L9.5,68.1211 M22.5,53.1211 L35.5,68.1211 " fill="none" style="stroke:#181818;stroke-width:0.5;"/><text fill="#000000" font-family="sans-serif" font-size="14" lengthAdjust="spacing" textLength="29" x="5" y="466.5508">User</text><ellipse cx="22.5" cy="478.5645" fill="#E2E2F0" rx="8" ry="8" style="stroke:#181818;stroke-width:0.5;"/><path d="M22.5,486.5645 L22.5,513.5645 M9.5,494.5645 L35.5,494.5645 M22.5,513.5645 L9.5,528.5645 M22.5,513.5645 L35.5,528.5645 " fill="none" style="stroke:#181818;stroke-width:0.5;"/><rect fill="#E2E2F0" height="51.2422" rx="2.5" ry="2.5" style="stroke:#181818;stroke-width:0.5;" width="110" x="194.5" y="36"/><text fill="#000000" font-family="sans-serif" font-size="14" font-style="italic" lengthAdjust="spacing" textLength="96" x="201.5" y="58.1074">&#171;Presentation&#187;</text><text fill="#000000" font-family="sans-serif" font-size="14" lengthAdjust="spacing" textLength="91" x="204" y="76.7285">ListMeetingsUI</text><rect fill="#E2E2F0" height="51.2422" rx="2.5" ry="2.5" style="stroke:#181818;stroke-width:0.5;" width="110" x="194.5" y="451.4434"/><text fill="#000000" font-family="sans-serif" font-size="14" font-style="italic" lengthAdjust="spacing" textLength="96" x="201.5" y="473.5508">&#171;Presentation&#187;</text><text fill="#000000" font-family="sans-serif" font-size="14" lengthAdjust="spacing" textLength="91" x="204" y="492.1719">ListMeetingsUI</text><text fill="#000000" font-family="sans-serif" font-size="14" font-style="italic" lengthAdjust="spacing" textLength="85" x="369" y="66.1074">&#171;Application&#187;</text><text fill="#000000" font-family="sans-serif" font-size="14" lengthAdjust="spacing" textLength="137" x="343" y="84.7285">ListMettingsController</text><ellipse cx="414.5" cy="35" fill="#E2E2F0" rx="12" ry="12" style="stroke:#181818;stroke-width:0.5;"/><polygon fill="#181818" points="410.5,23,416.5,18,414.5,23,416.5,28,410.5,23" style="stroke:#181818;stroke-width:1.0;"/><text fill="#000000" font-family="sans-serif" font-size="14" font-style="italic" lengthAdjust="spacing" textLength="85" x="369" y="466.5508">&#171;Application&#187;</text><text fill="#000000" font-family="sans-serif" font-size="14" lengthAdjust="spacing" textLength="137" x="343" y="485.1719">ListMettingsController</text><ellipse cx="414.5" cy="504.6855" fill="#E2E2F0" rx="12" ry="12" style="stroke:#181818;stroke-width:0.5;"/><polygon fill="#181818" points="410.5,492.6855,416.5,487.6855,414.5,492.6855,416.5,497.6855,410.5,492.6855" style="stroke:#181818;stroke-width:1.0;"/><rect fill="#E2E2F0" height="51.2422" rx="2.5" ry="2.5" style="stroke:#181818;stroke-width:0.5;" width="140" x="511.5" y="36"/><text fill="#000000" font-family="sans-serif" font-size="14" font-style="italic" lengthAdjust="spacing" textLength="85" x="539" y="58.1074">&#171;Application&#187;</text><text fill="#000000" font-family="sans-serif" font-size="14" lengthAdjust="spacing" textLength="126" x="518.5" y="76.7285">ListMeetingsService</text><rect fill="#E2E2F0" height="51.2422" rx="2.5" ry="2.5" style="stroke:#181818;stroke-width:0.5;" width="140" x="511.5" y="451.4434"/><text fill="#000000" font-family="sans-serif" font-size="14" font-style="italic" lengthAdjust="spacing" textLength="85" x="539" y="473.5508">&#171;Application&#187;</text><text fill="#000000" font-family="sans-serif" font-size="14" lengthAdjust="spacing" textLength="126" x="518.5" y="492.1719">ListMeetingsService</text><rect fill="#E2E2F0" height="51.2422" rx="2.5" ry="2.5" style="stroke:#181818;stroke-width:0.5;" width="136" x="661.5" y="36"/><text fill="#000000" font-family="sans-serif" font-size="14" font-style="italic" lengthAdjust="spacing" textLength="89" x="685" y="58.1074">&#171;persistence&#187;</text><text fill="#000000" font-family="sans-serif" font-size="14" lengthAdjust="spacing" textLength="122" x="668.5" y="76.7285">PersistenceContext</text><rect fill="#E2E2F0" height="51.2422" rx="2.5" ry="2.5" style="stroke:#181818;stroke-width:0.5;" width="136" x="661.5" y="451.4434"/><text fill="#000000" font-family="sans-serif" font-size="14" font-style="italic" lengthAdjust="spacing" textLength="89" x="685" y="473.5508">&#171;persistence&#187;</text><text fill="#000000" font-family="sans-serif" font-size="14" lengthAdjust="spacing" textLength="122" x="668.5" y="492.1719">PersistenceContext</text><rect fill="#E2E2F0" height="51.2422" rx="2.5" ry="2.5" style="stroke:#181818;stroke-width:0.5;" width="130" x="807.5" y="36"/><text fill="#000000" font-family="sans-serif" font-size="14" font-style="italic" lengthAdjust="spacing" textLength="59" x="843" y="58.1074">&#171;factory&#187;</text><text fill="#000000" font-family="sans-serif" font-size="14" lengthAdjust="spacing" textLength="116" x="814.5" y="76.7285">RepositoryFactory</text><rect fill="#E2E2F0" height="51.2422" rx="2.5" ry="2.5" style="stroke:#181818;stroke-width:0.5;" width="130" x="807.5" y="451.4434"/><text fill="#000000" font-family="sans-serif" font-size="14" font-style="italic" lengthAdjust="spacing" textLength="59" x="843" y="473.5508">&#171;factory&#187;</text><text fill="#000000" font-family="sans-serif" font-size="14" lengthAdjust="spacing" textLength="116" x="814.5" y="492.1719">RepositoryFactory</text><text fill="#000000" font-family="sans-serif" font-size="14" font-style="italic" lengthAdjust="spacing" textLength="84" x="970.5" y="66.1074">&#171;Repository&#187;</text><text fill="#000000" font-family="sans-serif" font-size="14" lengthAdjust="spacing" textLength="121" x="952" y="84.7285">MettingsRepository</text><path d="M997.5,15 C997.5,5 1015.5,5 1015.5,5 C1015.5,5 1033.5,5 1033.5,15 L1033.5,41 C1033.5,51 1015.5,51 1015.5,51 C1015.5,51 997.5,51 997.5,41 L997.5,15 " fill="#E2E2F0" style="stroke:#181818;stroke-width:1.5;"/><path d="M997.5,15 C997.5,25 1015.5,25 1015.5,25 C1015.5,25 1033.5,25 1033.5,15 " fill="none" style="stroke:#181818;stroke-width:1.5;"/><text fill="#000000" font-family="sans-serif" font-size="14" font-style="italic" lengthAdjust="spacing" textLength="84" x="970.5" y="466.5508">&#171;Repository&#187;</text><text fill="#000000" font-family="sans-serif" font-size="14" lengthAdjust="spacing" textLength="121" x="952" y="485.1719">MettingsRepository</text><path d="M997.5,498.6855 C997.5,488.6855 1015.5,488.6855 1015.5,488.6855 C1015.5,488.6855 1033.5,488.6855 1033.5,498.6855 L1033.5,524.6855 C1033.5,534.6855 1015.5,534.6855 1015.5,534.6855 C1015.5,534.6855 997.5,534.6855 997.5,524.6855 L997.5,498.6855 " fill="#E2E2F0" style="stroke:#181818;stroke-width:1.5;"/><path d="M997.5,498.6855 C997.5,508.6855 1015.5,508.6855 1015.5,508.6855 C1015.5,508.6855 1033.5,508.6855 1033.5,498.6855 " fill="none" style="stroke:#181818;stroke-width:1.5;"/><rect fill="#E2E2F0" height="51.2422" rx="2.5" ry="2.5" style="stroke:#181818;stroke-width:0.5;" width="78" x="1089" y="36"/><text fill="#000000" font-family="sans-serif" font-size="14" font-style="italic" lengthAdjust="spacing" textLength="64" x="1096" y="58.1074">&#171;Domain&#187;</text><text fill="#000000" font-family="sans-serif" font-size="14" lengthAdjust="spacing" textLength="53" x="1101.5" y="76.7285">Mettings</text><rect fill="#E2E2F0" height="51.2422" rx="2.5" ry="2.5" style="stroke:#181818;stroke-width:0.5;" width="78" x="1089" y="451.4434"/><text fill="#000000" font-family="sans-serif" font-size="14" font-style="italic" lengthAdjust="spacing" textLength="64" x="1096" y="473.5508">&#171;Domain&#187;</text><text fill="#000000" font-family="sans-serif" font-size="14" lengthAdjust="spacing" textLength="53" x="1101.5" y="492.1719">Mettings</text><rect fill="#FFFFFF" height="345.2012" style="stroke:#181818;stroke-width:1.0;" width="10" x="17.5" y="98.2422"/><rect fill="#FFFFFF" height="321.9102" style="stroke:#181818;stroke-width:1.0;" width="10" x="244.5" y="121.5332"/><rect fill="#FFFFFF" height="250.3281" style="stroke:#181818;stroke-width:1.0;" width="10" x="409.5" y="152.8242"/><rect fill="#FFFFFF" height="187.7461" style="stroke:#181818;stroke-width:1.0;" width="10" x="576.5" y="184.1152"/><rect fill="#FFFFFF" height="31.291" style="stroke:#181818;stroke-width:1.0;" width="10" x="724.5" y="215.4063"/><rect fill="#FFFFFF" height="31.291" style="stroke:#181818;stroke-width:1.0;" width="10" x="867.5" y="277.9883"/><rect fill="#FFFFFF" height="31.291" style="stroke:#181818;stroke-width:1.0;" width="10" x="1010.5" y="309.2793"/><polygon fill="#181818" points="232.5,117.5332,242.5,121.5332,232.5,125.5332,236.5,121.5332" style="stroke:#181818;stroke-width:1.0;"/><line style="stroke:#181818;stroke-width:1.0;" x1="27.5" x2="238.5" y1="121.5332" y2="121.5332"/><text fill="#000000" font-family="sans-serif" font-size="13" font-weight="bold" lengthAdjust="spacing" textLength="7" x="34.5" y="116.2705">1</text><text fill="#000000" font-family="sans-serif" font-size="13" lengthAdjust="spacing" textLength="167" x="45.5" y="116.2705">Select the option - 8.Meeting</text><polygon fill="#181818" points="397.5,148.8242,407.5,152.8242,397.5,156.8242,401.5,152.8242" style="stroke:#181818;stroke-width:1.0;"/><line style="stroke:#181818;stroke-width:1.0;" x1="254.5" x2="403.5" y1="152.8242" y2="152.8242"/><text fill="#000000" font-family="sans-serif" font-size="13" font-weight="bold" lengthAdjust="spacing" textLength="7" x="261.5" y="147.5615">2</text><text fill="#000000" font-family="sans-serif" font-size="13" lengthAdjust="spacing" textLength="121" x="272.5" y="147.5615">listMeetingsByUser()</text><polygon fill="#181818" points="564.5,180.1152,574.5,184.1152,564.5,188.1152,568.5,184.1152" style="stroke:#181818;stroke-width:1.0;"/><line style="stroke:#181818;stroke-width:1.0;" x1="419.5" x2="570.5" y1="184.1152" y2="184.1152"/><text fill="#000000" font-family="sans-serif" font-size="13" font-weight="bold" lengthAdjust="spacing" textLength="7" x="426.5" y="178.8525">3</text><text fill="#000000" font-family="sans-serif" font-size="13" lengthAdjust="spacing" textLength="122" x="437.5" y="178.8525">getMeetingsByUser()</text><polygon fill="#181818" points="712.5,211.4063,722.5,215.4063,712.5,219.4063,716.5,215.4063" style="stroke:#181818;stroke-width:1.0;"/><line style="stroke:#181818;stroke-width:1.0;" x1="586.5" x2="718.5" y1="215.4063" y2="215.4063"/><text fill="#000000" font-family="sans-serif" font-size="13" font-weight="bold" lengthAdjust="spacing" textLength="7" x="593.5" y="210.1436">4</text><text fill="#000000" font-family="sans-serif" font-size="13" lengthAdjust="spacing" textLength="75" x="604.5" y="210.1436">repositories()</text><polygon fill="#181818" points="597.5,242.6973,587.5,246.6973,597.5,250.6973,593.5,246.6973" style="stroke:#181818;stroke-width:1.0;"/><line style="stroke:#181818;stroke-width:1.0;stroke-dasharray:2.0,2.0;" x1="591.5" x2="728.5" y1="246.6973" y2="246.6973"/><text fill="#000000" font-family="sans-serif" font-size="13" font-weight="bold" lengthAdjust="spacing" textLength="7" x="603.5" y="241.4346">5</text><text fill="#000000" font-family="sans-serif" font-size="13" lengthAdjust="spacing" textLength="62" x="614.5" y="241.4346">theFactory</text><polygon fill="#181818" points="855.5,273.9883,865.5,277.9883,855.5,281.9883,859.5,277.9883" style="stroke:#181818;stroke-width:1.0;"/><line style="stroke:#181818;stroke-width:1.0;" x1="586.5" x2="861.5" y1="277.9883" y2="277.9883"/><text fill="#000000" font-family="sans-serif" font-size="13" font-weight="bold" lengthAdjust="spacing" textLength="7" x="593.5" y="272.7256">6</text><text fill="#000000" font-family="sans-serif" font-size="13" lengthAdjust="spacing" textLength="61" x="604.5" y="272.7256">meetings()</text><polygon fill="#181818" points="998.5,305.2793,1008.5,309.2793,998.5,313.2793,1002.5,309.2793" style="stroke:#181818;stroke-width:1.0;"/><line style="stroke:#181818;stroke-width:1.0;" x1="872.5" x2="1004.5" y1="309.2793" y2="309.2793"/><text fill="#000000" font-family="sans-serif" font-size="13" font-weight="bold" lengthAdjust="spacing" textLength="7" x="879.5" y="304.0166">7</text><text fill="#000000" font-family="sans-serif" font-size="13" lengthAdjust="spacing" textLength="103" x="890.5" y="304.0166">findByUsername()</text><polygon fill="#181818" points="597.5,336.5703,587.5,340.5703,597.5,344.5703,593.5,340.5703" style="stroke:#181818;stroke-width:1.0;"/><line style="stroke:#181818;stroke-width:1.0;stroke-dasharray:2.0,2.0;" x1="591.5" x2="1014.5" y1="340.5703" y2="340.5703"/><text fill="#000000" font-family="sans-serif" font-size="13" font-weight="bold" lengthAdjust="spacing" textLength="7" x="603.5" y="335.3076">8</text><text fill="#000000" font-family="sans-serif" font-size="13" lengthAdjust="spacing" textLength="110" x="614.5" y="335.3076">meetingListByUser</text><polygon fill="#181818" points="430.5,367.8613,420.5,371.8613,430.5,375.8613,426.5,371.8613" style="stroke:#181818;stroke-width:1.0;"/><line style="stroke:#181818;stroke-width:1.0;stroke-dasharray:2.0,2.0;" x1="424.5" x2="580.5" y1="371.8613" y2="371.8613"/><text fill="#000000" font-family="sans-serif" font-size="13" font-weight="bold" lengthAdjust="spacing" textLength="7" x="436.5" y="366.5986">9</text><text fill="#000000" font-family="sans-serif" font-size="13" lengthAdjust="spacing" textLength="122" x="447.5" y="366.5986">getMeetingsByUser()</text><polygon fill="#181818" points="265.5,399.1523,255.5,403.1523,265.5,407.1523,261.5,403.1523" style="stroke:#181818;stroke-width:1.0;"/><line style="stroke:#181818;stroke-width:1.0;stroke-dasharray:2.0,2.0;" x1="259.5" x2="413.5" y1="403.1523" y2="403.1523"/><text fill="#000000" font-family="sans-serif" font-size="13" font-weight="bold" lengthAdjust="spacing" textLength="14" x="271.5" y="397.8896">10</text><text fill="#000000" font-family="sans-serif" font-size="13" lengthAdjust="spacing" textLength="113" x="289.5" y="397.8896">listMeetingsByUser</text><polygon fill="#181818" points="38.5,430.4434,28.5,434.4434,38.5,438.4434,34.5,434.4434" style="stroke:#181818;stroke-width:1.0;"/><line style="stroke:#181818;stroke-width:1.0;stroke-dasharray:2.0,2.0;" x1="32.5" x2="243.5" y1="434.4434" y2="434.4434"/><text fill="#000000" font-family="sans-serif" font-size="13" font-weight="bold" lengthAdjust="spacing" textLength="14" x="44.5" y="429.1807">11</text><text fill="#000000" font-family="sans-serif" font-size="13" lengthAdjust="spacing" textLength="175" x="62.5" y="429.1807">Shows the meetingListByUser</text><!--SRC=[VPFBQiCm44Nt-WgHJTk5asqn9j07XK0BeIKVe3YJH61BgZHEcx_loBRYgUDMYo0DFdSUTt9pH7GXNonSfGmsTJKlRRq8yDc0AI7RQNNmgXP2DMXDKs_1qxr4w-KcqDqfZxhKZbZvgWE-0Q0sXx1PoVQe8EbQ56iF0GmgrDOibwAq1hsjUWHRvAcBLU1RZ3sBui6vIfU9_Ylf1_YJBY7IwVeVkWOVY8vzncJmZMrY5YRS3QyH_WxE1asJEB-q0pbtxL8ulOjYtzs8t2bKMnL0fdO7F0sAHOfYU8pIpfB0J5uEmIbAwBEjbOxDHgFqII5qNiKVcIrbyeQVd2PMGOaIZo2jYzEIcRoVzwDbIYj1FAbmkxXEnGnvFCUSjtS3Fb222P1SCYp97E1QPP3flnQ98W5kMw_Xqmmr15u4-rHmB1lLaSTfz6QA7Kpoh0BcVAgWxblWsOVF12Cwdcr4BlVQxBhUZQg195W9J8J7UbumgN5JGrNnhzFfZvIJogMt2Rkd7M8woI9kytZvfhQ5Qx1j4UtQHO7mU-FI-XxjLsYtzxgxU7u0]--></g></svg>