<?xml version="1.0" encoding="us-ascii" standalone="no"?><svg xmlns="http://www.w3.org/2000/svg" xmlns:xlink="http://www.w3.org/1999/xlink" contentStyleType="text/css" height="913px" preserveAspectRatio="none" style="width:1447px;height:913px;background:#FFFFFF;" version="1.1" viewBox="0 0 1447 913" width="1447px" zoomAndPan="magnify"><defs/><g><rect fill="#FFFFFF" height="706.6934" style="stroke:#181818;stroke-width:1.0;" width="10" x="17.5" y="98.2422"/><rect fill="#FFFFFF" height="683.4023" style="stroke:#181818;stroke-width:1.0;" width="10" x="260.5" y="121.5332"/><rect fill="#FFFFFF" height="250.3281" style="stroke:#181818;stroke-width:1.0;" width="10" x="457.5" y="152.8242"/><rect fill="#FFFFFF" height="250.3281" style="stroke:#181818;stroke-width:1.0;" width="10" x="457.5" y="514.3164"/><rect fill="#FFFFFF" height="187.7461" style="stroke:#181818;stroke-width:1.0;" width="10" x="663.5" y="184.1152"/><rect fill="#FFFFFF" height="187.7461" style="stroke:#181818;stroke-width:1.0;" width="10" x="663.5" y="545.6074"/><rect fill="#FFFFFF" height="31.291" style="stroke:#181818;stroke-width:1.0;" width="10" x="811.5" y="215.4063"/><rect fill="#FFFFFF" height="31.291" style="stroke:#181818;stroke-width:1.0;" width="10" x="811.5" y="576.8984"/><rect fill="#FFFFFF" height="31.291" style="stroke:#181818;stroke-width:1.0;" width="10" x="954.5" y="277.9883"/><rect fill="#FFFFFF" height="31.291" style="stroke:#181818;stroke-width:1.0;" width="10" x="954.5" y="639.4805"/><rect fill="#FFFFFF" height="31.291" style="stroke:#181818;stroke-width:1.0;" width="10" x="1097.5" y="309.2793"/><rect fill="#FFFFFF" height="31.291" style="stroke:#181818;stroke-width:1.0;" width="10" x="1259.5" y="670.7715"/><line style="stroke:#181818;stroke-width:0.5;stroke-dasharray:5.0,5.0;" x1="22" x2="22" y1="88.2422" y2="813.9355"/><line style="stroke:#181818;stroke-width:0.5;stroke-dasharray:5.0,5.0;" x1="265.5" x2="265.5" y1="88.2422" y2="813.9355"/><line style="stroke:#181818;stroke-width:0.5;stroke-dasharray:5.0,5.0;" x1="462" x2="462" y1="88.2422" y2="813.9355"/><line style="stroke:#181818;stroke-width:0.5;stroke-dasharray:5.0,5.0;" x1="668.5" x2="668.5" y1="88.2422" y2="813.9355"/><line style="stroke:#181818;stroke-width:0.5;stroke-dasharray:5.0,5.0;" x1="816.5" x2="816.5" y1="88.2422" y2="813.9355"/><line style="stroke:#181818;stroke-width:0.5;stroke-dasharray:5.0,5.0;" x1="959.5" x2="959.5" y1="88.2422" y2="813.9355"/><line style="stroke:#181818;stroke-width:0.5;stroke-dasharray:5.0,5.0;" x1="1102" x2="1102" y1="88.2422" y2="813.9355"/><line style="stroke:#181818;stroke-width:0.5;stroke-dasharray:5.0,5.0;" x1="1264" x2="1264" y1="88.2422" y2="813.9355"/><line style="stroke:#181818;stroke-width:0.5;stroke-dasharray:5.0,5.0;" x1="1402" x2="1402" y1="88.2422" y2="813.9355"/><text fill="#000000" font-family="sans-serif" font-size="14" lengthAdjust="spacing" textLength="29" x="5" y="84.7285">User</text><ellipse cx="22.5" cy="18.1211" fill="#E2E2F0" rx="8" ry="8" style="stroke:#181818;stroke-width:0.5;"/><path d="M22.5,26.1211 L22.5,53.1211 M9.5,34.1211 L35.5,34.1211 M22.5,53.1211 L9.5,68.1211 M22.5,53.1211 L35.5,68.1211 " fill="none" style="stroke:#181818;stroke-width:0.5;"/><text fill="#000000" font-family="sans-serif" font-size="14" lengthAdjust="spacing" textLength="29" x="5" y="828.043">User</text><ellipse cx="22.5" cy="840.0566" fill="#E2E2F0" rx="8" ry="8" style="stroke:#181818;stroke-width:0.5;"/><path d="M22.5,848.0566 L22.5,875.0566 M9.5,856.0566 L35.5,856.0566 M22.5,875.0566 L9.5,890.0566 M22.5,875.0566 L35.5,890.0566 " fill="none" style="stroke:#181818;stroke-width:0.5;"/><rect fill="#E2E2F0" height="51.2422" rx="2.5" ry="2.5" style="stroke:#181818;stroke-width:0.5;" width="110" x="210.5" y="36"/><text fill="#000000" font-family="sans-serif" font-size="14" font-style="italic" lengthAdjust="spacing" textLength="96" x="217.5" y="58.1074">&#171;Presentation&#187;</text><text fill="#000000" font-family="sans-serif" font-size="14" lengthAdjust="spacing" textLength="91" x="220" y="76.7285">ListMeetingsUI</text><rect fill="#E2E2F0" height="51.2422" rx="2.5" ry="2.5" style="stroke:#181818;stroke-width:0.5;" width="110" x="210.5" y="812.9355"/><text fill="#000000" font-family="sans-serif" font-size="14" font-style="italic" lengthAdjust="spacing" textLength="96" x="217.5" y="835.043">&#171;Presentation&#187;</text><text fill="#000000" font-family="sans-serif" font-size="14" lengthAdjust="spacing" textLength="91" x="220" y="853.6641">ListMeetingsUI</text><text fill="#000000" font-family="sans-serif" font-size="14" font-style="italic" lengthAdjust="spacing" textLength="85" x="417" y="66.1074">&#171;Application&#187;</text><text fill="#000000" font-family="sans-serif" font-size="14" lengthAdjust="spacing" textLength="137" x="391" y="84.7285">ListMettingsController</text><ellipse cx="462.5" cy="35" fill="#E2E2F0" rx="12" ry="12" style="stroke:#181818;stroke-width:0.5;"/><polygon fill="#181818" points="458.5,23,464.5,18,462.5,23,464.5,28,458.5,23" style="stroke:#181818;stroke-width:1.0;"/><text fill="#000000" font-family="sans-serif" font-size="14" font-style="italic" lengthAdjust="spacing" textLength="85" x="417" y="828.043">&#171;Application&#187;</text><text fill="#000000" font-family="sans-serif" font-size="14" lengthAdjust="spacing" textLength="137" x="391" y="846.6641">ListMettingsController</text><ellipse cx="462.5" cy="866.1777" fill="#E2E2F0" rx="12" ry="12" style="stroke:#181818;stroke-width:0.5;"/><polygon fill="#181818" points="458.5,854.1777,464.5,849.1777,462.5,854.1777,464.5,859.1777,458.5,854.1777" style="stroke:#181818;stroke-width:1.0;"/><rect fill="#E2E2F0" height="51.2422" rx="2.5" ry="2.5" style="stroke:#181818;stroke-width:0.5;" width="140" x="598.5" y="36"/><text fill="#000000" font-family="sans-serif" font-size="14" font-style="italic" lengthAdjust="spacing" textLength="85" x="626" y="58.1074">&#171;Application&#187;</text><text fill="#000000" font-family="sans-serif" font-size="14" lengthAdjust="spacing" textLength="126" x="605.5" y="76.7285">ListMeetingsService</text><rect fill="#E2E2F0" height="51.2422" rx="2.5" ry="2.5" style="stroke:#181818;stroke-width:0.5;" width="140" x="598.5" y="812.9355"/><text fill="#000000" font-family="sans-serif" font-size="14" font-style="italic" lengthAdjust="spacing" textLength="85" x="626" y="835.043">&#171;Application&#187;</text><text fill="#000000" font-family="sans-serif" font-size="14" lengthAdjust="spacing" textLength="126" x="605.5" y="853.6641">ListMeetingsService</text><rect fill="#E2E2F0" height="51.2422" rx="2.5" ry="2.5" style="stroke:#181818;stroke-width:0.5;" width="136" x="748.5" y="36"/><text fill="#000000" font-family="sans-serif" font-size="14" font-style="italic" lengthAdjust="spacing" textLength="89" x="772" y="58.1074">&#171;persistence&#187;</text><text fill="#000000" font-family="sans-serif" font-size="14" lengthAdjust="spacing" textLength="122" x="755.5" y="76.7285">PersistenceContext</text><rect fill="#E2E2F0" height="51.2422" rx="2.5" ry="2.5" style="stroke:#181818;stroke-width:0.5;" width="136" x="748.5" y="812.9355"/><text fill="#000000" font-family="sans-serif" font-size="14" font-style="italic" lengthAdjust="spacing" textLength="89" x="772" y="835.043">&#171;persistence&#187;</text><text fill="#000000" font-family="sans-serif" font-size="14" lengthAdjust="spacing" textLength="122" x="755.5" y="853.6641">PersistenceContext</text><rect fill="#E2E2F0" height="51.2422" rx="2.5" ry="2.5" style="stroke:#181818;stroke-width:0.5;" width="130" x="894.5" y="36"/><text fill="#000000" font-family="sans-serif" font-size="14" font-style="italic" lengthAdjust="spacing" textLength="59" x="930" y="58.1074">&#171;factory&#187;</text><text fill="#000000" font-family="sans-serif" font-size="14" lengthAdjust="spacing" textLength="116" x="901.5" y="76.7285">RepositoryFactory</text><rect fill="#E2E2F0" height="51.2422" rx="2.5" ry="2.5" style="stroke:#181818;stroke-width:0.5;" width="130" x="894.5" y="812.9355"/><text fill="#000000" font-family="sans-serif" font-size="14" font-style="italic" lengthAdjust="spacing" textLength="59" x="930" y="835.043">&#171;factory&#187;</text><text fill="#000000" font-family="sans-serif" font-size="14" lengthAdjust="spacing" textLength="116" x="901.5" y="853.6641">RepositoryFactory</text><text fill="#000000" font-family="sans-serif" font-size="14" font-style="italic" lengthAdjust="spacing" textLength="84" x="1057.5" y="66.1074">&#171;Repository&#187;</text><text fill="#000000" font-family="sans-serif" font-size="14" lengthAdjust="spacing" textLength="121" x="1039" y="84.7285">MettingsRepository</text><path d="M1084.5,15 C1084.5,5 1102.5,5 1102.5,5 C1102.5,5 1120.5,5 1120.5,15 L1120.5,41 C1120.5,51 1102.5,51 1102.5,51 C1102.5,51 1084.5,51 1084.5,41 L1084.5,15 " fill="#E2E2F0" style="stroke:#181818;stroke-width:1.5;"/><path d="M1084.5,15 C1084.5,25 1102.5,25 1102.5,25 C1102.5,25 1120.5,25 1120.5,15 " fill="none" style="stroke:#181818;stroke-width:1.5;"/><text fill="#000000" font-family="sans-serif" font-size="14" font-style="italic" lengthAdjust="spacing" textLength="84" x="1057.5" y="828.043">&#171;Repository&#187;</text><text fill="#000000" font-family="sans-serif" font-size="14" lengthAdjust="spacing" textLength="121" x="1039" y="846.6641">MettingsRepository</text><path d="M1084.5,860.1777 C1084.5,850.1777 1102.5,850.1777 1102.5,850.1777 C1102.5,850.1777 1120.5,850.1777 1120.5,860.1777 L1120.5,886.1777 C1120.5,896.1777 1102.5,896.1777 1102.5,896.1777 C1102.5,896.1777 1084.5,896.1777 1084.5,886.1777 L1084.5,860.1777 " fill="#E2E2F0" style="stroke:#181818;stroke-width:1.5;"/><path d="M1084.5,860.1777 C1084.5,870.1777 1102.5,870.1777 1102.5,870.1777 C1102.5,870.1777 1120.5,870.1777 1120.5,860.1777 " fill="none" style="stroke:#181818;stroke-width:1.5;"/><text fill="#000000" font-family="sans-serif" font-size="14" font-style="italic" lengthAdjust="spacing" textLength="84" x="1219.5" y="66.1074">&#171;Repository&#187;</text><text fill="#000000" font-family="sans-serif" font-size="14" lengthAdjust="spacing" textLength="171" x="1176" y="84.7285">MeetingRequestRepository</text><path d="M1246.5,15 C1246.5,5 1264.5,5 1264.5,5 C1264.5,5 1282.5,5 1282.5,15 L1282.5,41 C1282.5,51 1264.5,51 1264.5,51 C1264.5,51 1246.5,51 1246.5,41 L1246.5,15 " fill="#E2E2F0" style="stroke:#181818;stroke-width:1.5;"/><path d="M1246.5,15 C1246.5,25 1264.5,25 1264.5,25 C1264.5,25 1282.5,25 1282.5,15 " fill="none" style="stroke:#181818;stroke-width:1.5;"/><text fill="#000000" font-family="sans-serif" font-size="14" font-style="italic" lengthAdjust="spacing" textLength="84" x="1219.5" y="828.043">&#171;Repository&#187;</text><text fill="#000000" font-family="sans-serif" font-size="14" lengthAdjust="spacing" textLength="171" x="1176" y="846.6641">MeetingRequestRepository</text><path d="M1246.5,860.1777 C1246.5,850.1777 1264.5,850.1777 1264.5,850.1777 C1264.5,850.1777 1282.5,850.1777 1282.5,860.1777 L1282.5,886.1777 C1282.5,896.1777 1264.5,896.1777 1264.5,896.1777 C1264.5,896.1777 1246.5,896.1777 1246.5,886.1777 L1246.5,860.1777 " fill="#E2E2F0" style="stroke:#181818;stroke-width:1.5;"/><path d="M1246.5,860.1777 C1246.5,870.1777 1264.5,870.1777 1264.5,870.1777 C1264.5,870.1777 1282.5,870.1777 1282.5,860.1777 " fill="none" style="stroke:#181818;stroke-width:1.5;"/><rect fill="#E2E2F0" height="51.2422" rx="2.5" ry="2.5" style="stroke:#181818;stroke-width:0.5;" width="78" x="1363" y="36"/><text fill="#000000" font-family="sans-serif" font-size="14" font-style="italic" lengthAdjust="spacing" textLength="64" x="1370" y="58.1074">&#171;Domain&#187;</text><text fill="#000000" font-family="sans-serif" font-size="14" lengthAdjust="spacing" textLength="53" x="1375.5" y="76.7285">Mettings</text><rect fill="#E2E2F0" height="51.2422" rx="2.5" ry="2.5" style="stroke:#181818;stroke-width:0.5;" width="78" x="1363" y="812.9355"/><text fill="#000000" font-family="sans-serif" font-size="14" font-style="italic" lengthAdjust="spacing" textLength="64" x="1370" y="835.043">&#171;Domain&#187;</text><text fill="#000000" font-family="sans-serif" font-size="14" lengthAdjust="spacing" textLength="53" x="1375.5" y="853.6641">Mettings</text><rect fill="#FFFFFF" height="706.6934" style="stroke:#181818;stroke-width:1.0;" width="10" x="17.5" y="98.2422"/><rect fill="#FFFFFF" height="683.4023" style="stroke:#181818;stroke-width:1.0;" width="10" x="260.5" y="121.5332"/><rect fill="#FFFFFF" height="250.3281" style="stroke:#181818;stroke-width:1.0;" width="10" x="457.5" y="152.8242"/><rect fill="#FFFFFF" height="250.3281" style="stroke:#181818;stroke-width:1.0;" width="10" x="457.5" y="514.3164"/><rect fill="#FFFFFF" height="187.7461" style="stroke:#181818;stroke-width:1.0;" width="10" x="663.5" y="184.1152"/><rect fill="#FFFFFF" height="187.7461" style="stroke:#181818;stroke-width:1.0;" width="10" x="663.5" y="545.6074"/><rect fill="#FFFFFF" height="31.291" style="stroke:#181818;stroke-width:1.0;" width="10" x="811.5" y="215.4063"/><rect fill="#FFFFFF" height="31.291" style="stroke:#181818;stroke-width:1.0;" width="10" x="811.5" y="576.8984"/><rect fill="#FFFFFF" height="31.291" style="stroke:#181818;stroke-width:1.0;" width="10" x="954.5" y="277.9883"/><rect fill="#FFFFFF" height="31.291" style="stroke:#181818;stroke-width:1.0;" width="10" x="954.5" y="639.4805"/><rect fill="#FFFFFF" height="31.291" style="stroke:#181818;stroke-width:1.0;" width="10" x="1097.5" y="309.2793"/><rect fill="#FFFFFF" height="31.291" style="stroke:#181818;stroke-width:1.0;" width="10" x="1259.5" y="670.7715"/><polygon fill="#181818" points="248.5,117.5332,258.5,121.5332,248.5,125.5332,252.5,121.5332" style="stroke:#181818;stroke-width:1.0;"/><line style="stroke:#181818;stroke-width:1.0;" x1="27.5" x2="254.5" y1="121.5332" y2="121.5332"/><text fill="#000000" font-family="sans-serif" font-size="13" font-weight="bold" lengthAdjust="spacing" textLength="7" x="34.5" y="116.2705">1</text><text fill="#000000" font-family="sans-serif" font-size="13" lengthAdjust="spacing" textLength="167" x="45.5" y="116.2705">Select the option - 7.Meeting</text><polygon fill="#181818" points="445.5,148.8242,455.5,152.8242,445.5,156.8242,449.5,152.8242" style="stroke:#181818;stroke-width:1.0;"/><line style="stroke:#181818;stroke-width:1.0;" x1="270.5" x2="451.5" y1="152.8242" y2="152.8242"/><text fill="#000000" font-family="sans-serif" font-size="13" font-weight="bold" lengthAdjust="spacing" textLength="7" x="277.5" y="147.5615">2</text><text fill="#000000" font-family="sans-serif" font-size="13" lengthAdjust="spacing" textLength="121" x="288.5" y="147.5615">listMeetingsByUser()</text><polygon fill="#181818" points="651.5,180.1152,661.5,184.1152,651.5,188.1152,655.5,184.1152" style="stroke:#181818;stroke-width:1.0;"/><line style="stroke:#181818;stroke-width:1.0;" x1="467.5" x2="657.5" y1="184.1152" y2="184.1152"/><text fill="#000000" font-family="sans-serif" font-size="13" font-weight="bold" lengthAdjust="spacing" textLength="7" x="474.5" y="178.8525">3</text><text fill="#000000" font-family="sans-serif" font-size="13" lengthAdjust="spacing" textLength="122" x="485.5" y="178.8525">getMeetingsByUser()</text><polygon fill="#181818" points="799.5,211.4063,809.5,215.4063,799.5,219.4063,803.5,215.4063" style="stroke:#181818;stroke-width:1.0;"/><line style="stroke:#181818;stroke-width:1.0;" x1="673.5" x2="805.5" y1="215.4063" y2="215.4063"/><text fill="#000000" font-family="sans-serif" font-size="13" font-weight="bold" lengthAdjust="spacing" textLength="7" x="680.5" y="210.1436">4</text><text fill="#000000" font-family="sans-serif" font-size="13" lengthAdjust="spacing" textLength="75" x="691.5" y="210.1436">repositories()</text><polygon fill="#181818" points="684.5,242.6973,674.5,246.6973,684.5,250.6973,680.5,246.6973" style="stroke:#181818;stroke-width:1.0;"/><line style="stroke:#181818;stroke-width:1.0;stroke-dasharray:2.0,2.0;" x1="678.5" x2="815.5" y1="246.6973" y2="246.6973"/><text fill="#000000" font-family="sans-serif" font-size="13" font-weight="bold" lengthAdjust="spacing" textLength="7" x="690.5" y="241.4346">5</text><text fill="#000000" font-family="sans-serif" font-size="13" lengthAdjust="spacing" textLength="62" x="701.5" y="241.4346">theFactory</text><polygon fill="#181818" points="942.5,273.9883,952.5,277.9883,942.5,281.9883,946.5,277.9883" style="stroke:#181818;stroke-width:1.0;"/><line style="stroke:#181818;stroke-width:1.0;" x1="673.5" x2="948.5" y1="277.9883" y2="277.9883"/><text fill="#000000" font-family="sans-serif" font-size="13" font-weight="bold" lengthAdjust="spacing" textLength="7" x="680.5" y="272.7256">6</text><text fill="#000000" font-family="sans-serif" font-size="13" lengthAdjust="spacing" textLength="61" x="691.5" y="272.7256">meetings()</text><polygon fill="#181818" points="1085.5,305.2793,1095.5,309.2793,1085.5,313.2793,1089.5,309.2793" style="stroke:#181818;stroke-width:1.0;"/><line style="stroke:#181818;stroke-width:1.0;" x1="959.5" x2="1091.5" y1="309.2793" y2="309.2793"/><text fill="#000000" font-family="sans-serif" font-size="13" font-weight="bold" lengthAdjust="spacing" textLength="7" x="966.5" y="304.0166">7</text><text fill="#000000" font-family="sans-serif" font-size="13" lengthAdjust="spacing" textLength="103" x="977.5" y="304.0166">findByUsername()</text><polygon fill="#181818" points="684.5,336.5703,674.5,340.5703,684.5,344.5703,680.5,340.5703" style="stroke:#181818;stroke-width:1.0;"/><line style="stroke:#181818;stroke-width:1.0;stroke-dasharray:2.0,2.0;" x1="678.5" x2="1101.5" y1="340.5703" y2="340.5703"/><text fill="#000000" font-family="sans-serif" font-size="13" font-weight="bold" lengthAdjust="spacing" textLength="7" x="690.5" y="335.3076">8</text><text fill="#000000" font-family="sans-serif" font-size="13" lengthAdjust="spacing" textLength="110" x="701.5" y="335.3076">meetingListByUser</text><polygon fill="#181818" points="478.5,367.8613,468.5,371.8613,478.5,375.8613,474.5,371.8613" style="stroke:#181818;stroke-width:1.0;"/><line style="stroke:#181818;stroke-width:1.0;stroke-dasharray:2.0,2.0;" x1="472.5" x2="667.5" y1="371.8613" y2="371.8613"/><text fill="#000000" font-family="sans-serif" font-size="13" font-weight="bold" lengthAdjust="spacing" textLength="7" x="484.5" y="366.5986">9</text><text fill="#000000" font-family="sans-serif" font-size="13" lengthAdjust="spacing" textLength="122" x="495.5" y="366.5986">getMeetingsByUser()</text><polygon fill="#181818" points="281.5,399.1523,271.5,403.1523,281.5,407.1523,277.5,403.1523" style="stroke:#181818;stroke-width:1.0;"/><line style="stroke:#181818;stroke-width:1.0;stroke-dasharray:2.0,2.0;" x1="275.5" x2="461.5" y1="403.1523" y2="403.1523"/><text fill="#000000" font-family="sans-serif" font-size="13" font-weight="bold" lengthAdjust="spacing" textLength="14" x="287.5" y="397.8896">10</text><text fill="#000000" font-family="sans-serif" font-size="13" lengthAdjust="spacing" textLength="113" x="305.5" y="397.8896">listMeetingsByUser</text><polygon fill="#181818" points="38.5,430.4434,28.5,434.4434,38.5,438.4434,34.5,434.4434" style="stroke:#181818;stroke-width:1.0;"/><line style="stroke:#181818;stroke-width:1.0;stroke-dasharray:2.0,2.0;" x1="32.5" x2="259.5" y1="434.4434" y2="434.4434"/><text fill="#000000" font-family="sans-serif" font-size="13" font-weight="bold" lengthAdjust="spacing" textLength="14" x="44.5" y="429.1807">11</text><text fill="#000000" font-family="sans-serif" font-size="13" lengthAdjust="spacing" textLength="175" x="62.5" y="429.1807">Shows the meetingListByUser</text><polygon fill="#181818" points="248.5,479.0254,258.5,483.0254,248.5,487.0254,252.5,483.0254" style="stroke:#181818;stroke-width:1.0;"/><line style="stroke:#181818;stroke-width:1.0;" x1="27.5" x2="254.5" y1="483.0254" y2="483.0254"/><text fill="#000000" font-family="sans-serif" font-size="13" font-weight="bold" lengthAdjust="spacing" textLength="14" x="34.5" y="469.1172">12</text><text fill="#000000" font-family="sans-serif" font-size="13" lengthAdjust="spacing" textLength="172" x="52.5" y="460.4717">Selects the meeting to shows</text><text fill="#000000" font-family="sans-serif" font-size="13" lengthAdjust="spacing" textLength="154" x="56.5" y="477.7627">the participants and status</text><polygon fill="#181818" points="445.5,510.3164,455.5,514.3164,445.5,518.3164,449.5,514.3164" style="stroke:#181818;stroke-width:1.0;"/><line style="stroke:#181818;stroke-width:1.0;" x1="270.5" x2="451.5" y1="514.3164" y2="514.3164"/><text fill="#000000" font-family="sans-serif" font-size="13" font-weight="bold" lengthAdjust="spacing" textLength="14" x="277.5" y="509.0537">13</text><text fill="#000000" font-family="sans-serif" font-size="13" lengthAdjust="spacing" textLength="137" x="295.5" y="509.0537">participantsByMeeting()</text><polygon fill="#181818" points="651.5,541.6074,661.5,545.6074,651.5,549.6074,655.5,545.6074" style="stroke:#181818;stroke-width:1.0;"/><line style="stroke:#181818;stroke-width:1.0;" x1="467.5" x2="657.5" y1="545.6074" y2="545.6074"/><text fill="#000000" font-family="sans-serif" font-size="13" font-weight="bold" lengthAdjust="spacing" textLength="14" x="474.5" y="540.3447">14</text><text fill="#000000" font-family="sans-serif" font-size="13" lengthAdjust="spacing" textLength="154" x="492.5" y="540.3447">getParticipantsOfMeeting()</text><polygon fill="#181818" points="799.5,572.8984,809.5,576.8984,799.5,580.8984,803.5,576.8984" style="stroke:#181818;stroke-width:1.0;"/><line style="stroke:#181818;stroke-width:1.0;" x1="673.5" x2="805.5" y1="576.8984" y2="576.8984"/><text fill="#000000" font-family="sans-serif" font-size="13" font-weight="bold" lengthAdjust="spacing" textLength="14" x="680.5" y="571.6357">15</text><text fill="#000000" font-family="sans-serif" font-size="13" lengthAdjust="spacing" textLength="75" x="698.5" y="571.6357">repositories()</text><polygon fill="#181818" points="684.5,604.1895,674.5,608.1895,684.5,612.1895,680.5,608.1895" style="stroke:#181818;stroke-width:1.0;"/><line style="stroke:#181818;stroke-width:1.0;stroke-dasharray:2.0,2.0;" x1="678.5" x2="815.5" y1="608.1895" y2="608.1895"/><text fill="#000000" font-family="sans-serif" font-size="13" font-weight="bold" lengthAdjust="spacing" textLength="14" x="690.5" y="602.9268">16</text><text fill="#000000" font-family="sans-serif" font-size="13" lengthAdjust="spacing" textLength="62" x="708.5" y="602.9268">theFactory</text><polygon fill="#181818" points="942.5,635.4805,952.5,639.4805,942.5,643.4805,946.5,639.4805" style="stroke:#181818;stroke-width:1.0;"/><line style="stroke:#181818;stroke-width:1.0;" x1="673.5" x2="948.5" y1="639.4805" y2="639.4805"/><text fill="#000000" font-family="sans-serif" font-size="13" font-weight="bold" lengthAdjust="spacing" textLength="14" x="680.5" y="634.2178">17</text><text fill="#000000" font-family="sans-serif" font-size="13" lengthAdjust="spacing" textLength="104" x="698.5" y="634.2178">requestMeetings()</text><polygon fill="#181818" points="1247.5,666.7715,1257.5,670.7715,1247.5,674.7715,1251.5,670.7715" style="stroke:#181818;stroke-width:1.0;"/><line style="stroke:#181818;stroke-width:1.0;" x1="959.5" x2="1253.5" y1="670.7715" y2="670.7715"/><text fill="#000000" font-family="sans-serif" font-size="13" font-weight="bold" lengthAdjust="spacing" textLength="14" x="966.5" y="665.5088">18</text><text fill="#000000" font-family="sans-serif" font-size="13" lengthAdjust="spacing" textLength="90" x="984.5" y="665.5088">findByMeeting()</text><polygon fill="#181818" points="684.5,698.0625,674.5,702.0625,684.5,706.0625,680.5,702.0625" style="stroke:#181818;stroke-width:1.0;"/><line style="stroke:#181818;stroke-width:1.0;stroke-dasharray:2.0,2.0;" x1="678.5" x2="1263.5" y1="702.0625" y2="702.0625"/><text fill="#000000" font-family="sans-serif" font-size="13" font-weight="bold" lengthAdjust="spacing" textLength="14" x="690.5" y="696.7998">19</text><text fill="#000000" font-family="sans-serif" font-size="13" lengthAdjust="spacing" textLength="154" x="708.5" y="696.7998">participantsOfMeetingsList</text><polygon fill="#181818" points="478.5,729.3535,468.5,733.3535,478.5,737.3535,474.5,733.3535" style="stroke:#181818;stroke-width:1.0;"/><line style="stroke:#181818;stroke-width:1.0;stroke-dasharray:2.0,2.0;" x1="472.5" x2="667.5" y1="733.3535" y2="733.3535"/><text fill="#000000" font-family="sans-serif" font-size="13" font-weight="bold" lengthAdjust="spacing" textLength="14" x="484.5" y="728.0908">20</text><text fill="#000000" font-family="sans-serif" font-size="13" lengthAdjust="spacing" textLength="154" x="502.5" y="728.0908">getParticipantsOfMeeting()</text><polygon fill="#181818" points="281.5,760.6445,271.5,764.6445,281.5,768.6445,277.5,764.6445" style="stroke:#181818;stroke-width:1.0;"/><line style="stroke:#181818;stroke-width:1.0;stroke-dasharray:2.0,2.0;" x1="275.5" x2="461.5" y1="764.6445" y2="764.6445"/><text fill="#000000" font-family="sans-serif" font-size="13" font-weight="bold" lengthAdjust="spacing" textLength="14" x="287.5" y="759.3818">21</text><text fill="#000000" font-family="sans-serif" font-size="13" lengthAdjust="spacing" textLength="145" x="305.5" y="759.3818">listParticipantsOfMeeting</text><polygon fill="#181818" points="38.5,791.9355,28.5,795.9355,38.5,799.9355,34.5,795.9355" style="stroke:#181818;stroke-width:1.0;"/><line style="stroke:#181818;stroke-width:1.0;stroke-dasharray:2.0,2.0;" x1="32.5" x2="259.5" y1="795.9355" y2="795.9355"/><text fill="#000000" font-family="sans-serif" font-size="13" font-weight="bold" lengthAdjust="spacing" textLength="14" x="44.5" y="790.6729">22</text><text fill="#000000" font-family="sans-serif" font-size="13" lengthAdjust="spacing" textLength="191" x="62.5" y="790.6729">Shows the participantsOfMeeting</text><!--SRC=[rPGzRzim48Pt_WeYIzl1CU2bW24OQ1eK2D2WHefiNHZfR1EGI9PtIkj_Nr8IhPF2VC2Tmi4GARqFx-CzVpWGELmlbwvMXjgclYnjiqJutO8fOL5fjVUg4KArP4tRF80FpoLPB-ynF3lbIPVQ1Qtyhf5k0KYRFTxVoDDIACEsABOU40mfqjPiDgAqXhoj1nbrig_zMGt-96L7HV75kLgNYV3SvJ_1F-eI4Y5jNv9lmMCWn9pZXV2NJW6mLm7XnjqCSGVEeWwLENxh2dGSqm-lqbbHxFgdeAuKgGU585Fw8u8NZvqMnRYP0hhCxsBRa2QO2M0r9_04Bb8O5tAo0Y6z2V9hsoWTonTje1yLGU-4-2CN6yaxdzOwzA26aYGTG5eNwoyNylFb43OZtOYW3vIv4HAdPcs-EiOxFtuQvQDAC430SKT4p1wUKaRCyBL8gW3W9XWOFjLH0_8WsAU2onQpEDQn6eCjH0LPFOk0UIX5q0mfyDl7pmHJz7hchRNSQLFrkHlLG42m41Y4dmrwmL3pfCQeua3s_1avKKwvPTgTxn3Zf1RnDi_DbtCBPp2tHDD5EKxzbinxi7-my-xJtDxa-ubOafKOYRzCTyn64AKobSJm5zdYAuF0LLV78SbpPs7BO3zs6TXxcGZV_m7UdZSOApuPOnNUF1WhmLcPqN2vEcDqKtv6LgyFoNEjEsjMih3_79bipYAiVm00]--></g></svg>