<?xml version="1.0" encoding="UTF-8" standalone="no"?><svg xmlns="http://www.w3.org/2000/svg" xmlns:xlink="http://www.w3.org/1999/xlink" contentStyleType="text/css" height="799px" preserveAspectRatio="none" style="width:2224px;height:799px;background:#FFFFFF;" version="1.1" viewBox="0 0 2224 799" width="2224px" zoomAndPan="magnify"><defs/><g><rect fill="#FFFFFF" height="601.2109" style="stroke:#181818;stroke-width:1.0;" width="10" x="30.5" y="93.9766"/><rect fill="#FFFFFF" height="555.5898" style="stroke:#181818;stroke-width:1.0;" width="10" x="372.5" y="130.5977"/><rect fill="#FFFFFF" height="438.3477" style="stroke:#181818;stroke-width:1.0;" width="10" x="609.5" y="159.9082"/><rect fill="#FFFFFF" height="379.7266" style="stroke:#181818;stroke-width:1.0;" width="10" x="846.5" y="189.2188"/><rect fill="#FFFFFF" height="29.3105" style="stroke:#181818;stroke-width:1.0;" width="10" x="1094.5" y="218.5293"/><rect fill="#FFFFFF" height="87.9316" style="stroke:#181818;stroke-width:1.0;" width="10" x="1255" y="277.1504"/><rect fill="#FFFFFF" height="29.3105" style="stroke:#181818;stroke-width:1.0;" width="10" x="1403" y="306.4609"/><rect fill="#FFFFFF" height="71.6211" style="stroke:#181818;stroke-width:1.0;" width="10" x="1716" y="418.7031"/><rect fill="#FFFFFF" height="29.3105" style="stroke:#181818;stroke-width:1.0;" width="10" x="2156" y="627.5664"/><rect fill="none" height="160.5527" style="stroke:#000000;stroke-width:1.5;" width="1384.5" x="776.5" y="380.082"/><line style="stroke:#181818;stroke-width:0.5;stroke-dasharray:5.0,5.0;" x1="35" x2="35" y1="83.9766" y2="704.1875"/><line style="stroke:#181818;stroke-width:0.5;stroke-dasharray:5.0,5.0;" x1="377.5" x2="377.5" y1="83.9766" y2="704.1875"/><line style="stroke:#181818;stroke-width:0.5;stroke-dasharray:5.0,5.0;" x1="614.5" x2="614.5" y1="83.9766" y2="704.1875"/><line style="stroke:#181818;stroke-width:0.5;stroke-dasharray:5.0,5.0;" x1="851.5" x2="851.5" y1="83.9766" y2="704.1875"/><line style="stroke:#181818;stroke-width:0.5;stroke-dasharray:5.0,5.0;" x1="1099" x2="1099" y1="83.9766" y2="704.1875"/><line style="stroke:#181818;stroke-width:0.5;stroke-dasharray:5.0,5.0;" x1="1260" x2="1260" y1="83.9766" y2="704.1875"/><line style="stroke:#181818;stroke-width:0.5;stroke-dasharray:5.0,5.0;" x1="1408" x2="1408" y1="83.9766" y2="704.1875"/><line style="stroke:#181818;stroke-width:0.5;stroke-dasharray:5.0,5.0;" x1="1538" x2="1538" y1="83.9766" y2="704.1875"/><line style="stroke:#181818;stroke-width:0.5;stroke-dasharray:5.0,5.0;" x1="1721" x2="1721" y1="83.9766" y2="704.1875"/><line style="stroke:#181818;stroke-width:0.5;stroke-dasharray:5.0,5.0;" x1="2160.5" x2="2160.5" y1="83.9766" y2="704.1875"/><text fill="#000000" font-family="sans-serif" font-size="14" lengthAdjust="spacing" textLength="55" x="5" y="81.0234">Teacher</text><ellipse cx="35.5" cy="15.9883" fill="#E2E2F0" rx="8" ry="8" style="stroke:#181818;stroke-width:0.5;"/><path d="M35.5,23.9883 L35.5,50.9883 M22.5,31.9883 L48.5,31.9883 M35.5,50.9883 L22.5,65.9883 M35.5,50.9883 L48.5,65.9883 " fill="none" style="stroke:#181818;stroke-width:0.5;"/><text fill="#000000" font-family="sans-serif" font-size="14" lengthAdjust="spacing" textLength="55" x="5" y="716.7227">Teacher</text><ellipse cx="35.5" cy="728.1758" fill="#E2E2F0" rx="8" ry="8" style="stroke:#181818;stroke-width:0.5;"/><path d="M35.5,736.1758 L35.5,763.1758 M22.5,744.1758 L48.5,744.1758 M35.5,763.1758 L22.5,778.1758 M35.5,763.1758 L48.5,778.1758 " fill="none" style="stroke:#181818;stroke-width:0.5;"/><rect fill="#E2E2F0" height="46.9766" rx="2.5" ry="2.5" style="stroke:#181818;stroke-width:0.5;" width="192" x="281.5" y="36"/><text fill="#000000" font-family="sans-serif" font-size="14" font-style="italic" lengthAdjust="spacing" textLength="100" x="327.5" y="56.5352">«Presentation»</text><text fill="#000000" font-family="sans-serif" font-size="14" lengthAdjust="spacing" textLength="178" x="288.5" y="73.0234">TeacherListExamGradesUI</text><rect fill="#E2E2F0" height="46.9766" rx="2.5" ry="2.5" style="stroke:#181818;stroke-width:0.5;" width="192" x="281.5" y="703.1875"/><text fill="#000000" font-family="sans-serif" font-size="14" font-style="italic" lengthAdjust="spacing" textLength="100" x="327.5" y="723.7227">«Presentation»</text><text fill="#000000" font-family="sans-serif" font-size="14" lengthAdjust="spacing" textLength="178" x="288.5" y="740.2109">TeacherListExamGradesUI</text><text fill="#000000" font-family="sans-serif" font-size="14" font-style="italic" lengthAdjust="spacing" textLength="92" x="565.5" y="64.5352">«Application»</text><text fill="#000000" font-family="sans-serif" font-size="14" lengthAdjust="spacing" textLength="234" x="494.5" y="81.0234">ListTeacherExamGradesController</text><ellipse cx="614.5" cy="35" fill="#E2E2F0" rx="12" ry="12" style="stroke:#181818;stroke-width:0.5;"/><polygon fill="#181818" points="610.5,23,616.5,18,614.5,23,616.5,28,610.5,23" style="stroke:#181818;stroke-width:1.0;"/><text fill="#000000" font-family="sans-serif" font-size="14" font-style="italic" lengthAdjust="spacing" textLength="92" x="565.5" y="716.7227">«Application»</text><text fill="#000000" font-family="sans-serif" font-size="14" lengthAdjust="spacing" textLength="234" x="494.5" y="733.2109">ListTeacherExamGradesController</text><ellipse cx="614.5" cy="752.1641" fill="#E2E2F0" rx="12" ry="12" style="stroke:#181818;stroke-width:0.5;"/><polygon fill="#181818" points="610.5,740.1641,616.5,735.1641,614.5,740.1641,616.5,745.1641,610.5,740.1641" style="stroke:#181818;stroke-width:1.0;"/><rect fill="#E2E2F0" height="46.9766" rx="2.5" ry="2.5" style="stroke:#181818;stroke-width:0.5;" width="130" x="786.5" y="36"/><text fill="#000000" font-family="sans-serif" font-size="14" font-style="italic" lengthAdjust="spacing" textLength="92" x="805.5" y="56.5352">«Application»</text><text fill="#000000" font-family="sans-serif" font-size="14" lengthAdjust="spacing" textLength="116" x="793.5" y="73.0234">ListExamsService</text><rect fill="#E2E2F0" height="46.9766" rx="2.5" ry="2.5" style="stroke:#181818;stroke-width:0.5;" width="130" x="786.5" y="703.1875"/><text fill="#000000" font-family="sans-serif" font-size="14" font-style="italic" lengthAdjust="spacing" textLength="92" x="805.5" y="723.7227">«Application»</text><text fill="#000000" font-family="sans-serif" font-size="14" lengthAdjust="spacing" textLength="116" x="793.5" y="740.2109">ListExamsService</text><rect fill="#E2E2F0" height="46.9766" rx="2.5" ry="2.5" style="stroke:#181818;stroke-width:0.5;" width="155" x="1022" y="36"/><text fill="#000000" font-family="sans-serif" font-size="14" font-style="italic" lengthAdjust="spacing" textLength="92" x="1053.5" y="56.5352">«Application»</text><text fill="#000000" font-family="sans-serif" font-size="14" lengthAdjust="spacing" textLength="141" x="1029" y="73.0234">authorizationService</text><rect fill="#E2E2F0" height="46.9766" rx="2.5" ry="2.5" style="stroke:#181818;stroke-width:0.5;" width="155" x="1022" y="703.1875"/><text fill="#000000" font-family="sans-serif" font-size="14" font-style="italic" lengthAdjust="spacing" textLength="92" x="1053.5" y="723.7227">«Application»</text><text fill="#000000" font-family="sans-serif" font-size="14" lengthAdjust="spacing" textLength="141" x="1029" y="740.2109">authorizationService</text><rect fill="#E2E2F0" height="46.9766" rx="2.5" ry="2.5" style="stroke:#181818;stroke-width:0.5;" width="146" x="1187" y="36"/><text fill="#000000" font-family="sans-serif" font-size="14" font-style="italic" lengthAdjust="spacing" textLength="92" x="1214" y="56.5352">«persistence»</text><text fill="#000000" font-family="sans-serif" font-size="14" lengthAdjust="spacing" textLength="132" x="1194" y="73.0234">PersistenceContext</text><rect fill="#E2E2F0" height="46.9766" rx="2.5" ry="2.5" style="stroke:#181818;stroke-width:0.5;" width="146" x="1187" y="703.1875"/><text fill="#000000" font-family="sans-serif" font-size="14" font-style="italic" lengthAdjust="spacing" textLength="92" x="1214" y="723.7227">«persistence»</text><text fill="#000000" font-family="sans-serif" font-size="14" lengthAdjust="spacing" textLength="132" x="1194" y="740.2109">PersistenceContext</text><text fill="#000000" font-family="sans-serif" font-size="14" font-style="italic" lengthAdjust="spacing" textLength="87" x="1361.5" y="64.5352">«Repository»</text><text fill="#000000" font-family="sans-serif" font-size="14" lengthAdjust="spacing" textLength="118" x="1346" y="81.0234">ExamsRepository</text><path d="M1390,15 C1390,5 1408,5 1408,5 C1408,5 1426,5 1426,15 L1426,41 C1426,51 1408,51 1408,51 C1408,51 1390,51 1390,41 L1390,15 " fill="#E2E2F0" style="stroke:#181818;stroke-width:1.5;"/><path d="M1390,15 C1390,25 1408,25 1408,25 C1408,25 1426,25 1426,15 " fill="none" style="stroke:#181818;stroke-width:1.5;"/><text fill="#000000" font-family="sans-serif" font-size="14" font-style="italic" lengthAdjust="spacing" textLength="87" x="1361.5" y="716.7227">«Repository»</text><text fill="#000000" font-family="sans-serif" font-size="14" lengthAdjust="spacing" textLength="118" x="1346" y="733.2109">ExamsRepository</text><path d="M1390,746.1641 C1390,736.1641 1408,736.1641 1408,736.1641 C1408,736.1641 1426,736.1641 1426,746.1641 L1426,772.1641 C1426,782.1641 1408,782.1641 1408,782.1641 C1408,782.1641 1390,782.1641 1390,772.1641 L1390,746.1641 " fill="#E2E2F0" style="stroke:#181818;stroke-width:1.5;"/><path d="M1390,746.1641 C1390,756.1641 1408,756.1641 1408,756.1641 C1408,756.1641 1426,756.1641 1426,746.1641 " fill="none" style="stroke:#181818;stroke-width:1.5;"/><rect fill="#E2E2F0" height="46.9766" rx="2.5" ry="2.5" style="stroke:#181818;stroke-width:0.5;" width="116" x="1480" y="36"/><text fill="#000000" font-family="sans-serif" font-size="14" font-style="italic" lengthAdjust="spacing" textLength="67" x="1504.5" y="56.5352">«Domain»</text><text fill="#000000" font-family="sans-serif" font-size="14" lengthAdjust="spacing" textLength="102" x="1487" y="73.0234">theExam:Exam</text><rect fill="#E2E2F0" height="46.9766" rx="2.5" ry="2.5" style="stroke:#181818;stroke-width:0.5;" width="116" x="1480" y="703.1875"/><text fill="#000000" font-family="sans-serif" font-size="14" font-style="italic" lengthAdjust="spacing" textLength="67" x="1504.5" y="723.7227">«Domain»</text><text fill="#000000" font-family="sans-serif" font-size="14" lengthAdjust="spacing" textLength="102" x="1487" y="740.2109">theExam:Exam</text><rect fill="#E2E2F0" height="46.9766" rx="2.5" ry="2.5" style="stroke:#181818;stroke-width:0.5;" width="230" x="1606" y="36"/><text fill="#000000" font-family="sans-serif" font-size="14" font-style="italic" lengthAdjust="spacing" textLength="67" x="1687.5" y="56.5352">«Domain»</text><text fill="#000000" font-family="sans-serif" font-size="14" lengthAdjust="spacing" textLength="216" x="1613" y="73.0234">theGradeOfExam:GradeOfExam</text><rect fill="#E2E2F0" height="46.9766" rx="2.5" ry="2.5" style="stroke:#181818;stroke-width:0.5;" width="230" x="1606" y="703.1875"/><text fill="#000000" font-family="sans-serif" font-size="14" font-style="italic" lengthAdjust="spacing" textLength="67" x="1687.5" y="723.7227">«Domain»</text><text fill="#000000" font-family="sans-serif" font-size="14" lengthAdjust="spacing" textLength="216" x="1613" y="740.2109">theGradeOfExam:GradeOfExam</text><rect fill="#E2E2F0" height="46.9766" rx="2.5" ry="2.5" style="stroke:#181818;stroke-width:0.5;" width="115" x="2103.5" y="36"/><text fill="#000000" font-family="sans-serif" font-size="14" font-style="italic" lengthAdjust="spacing" textLength="100" x="2111" y="56.5352">«Presentation»</text><text fill="#000000" font-family="sans-serif" font-size="14" lengthAdjust="spacing" textLength="101" x="2110.5" y="73.0234">elementPrinter</text><rect fill="#E2E2F0" height="46.9766" rx="2.5" ry="2.5" style="stroke:#181818;stroke-width:0.5;" width="115" x="2103.5" y="703.1875"/><text fill="#000000" font-family="sans-serif" font-size="14" font-style="italic" lengthAdjust="spacing" textLength="100" x="2111" y="723.7227">«Presentation»</text><text fill="#000000" font-family="sans-serif" font-size="14" lengthAdjust="spacing" textLength="101" x="2110.5" y="740.2109">elementPrinter</text><rect fill="#FFFFFF" height="601.2109" style="stroke:#181818;stroke-width:1.0;" width="10" x="30.5" y="93.9766"/><rect fill="#FFFFFF" height="555.5898" style="stroke:#181818;stroke-width:1.0;" width="10" x="372.5" y="130.5977"/><rect fill="#FFFFFF" height="438.3477" style="stroke:#181818;stroke-width:1.0;" width="10" x="609.5" y="159.9082"/><rect fill="#FFFFFF" height="379.7266" style="stroke:#181818;stroke-width:1.0;" width="10" x="846.5" y="189.2188"/><rect fill="#FFFFFF" height="29.3105" style="stroke:#181818;stroke-width:1.0;" width="10" x="1094.5" y="218.5293"/><rect fill="#FFFFFF" height="87.9316" style="stroke:#181818;stroke-width:1.0;" width="10" x="1255" y="277.1504"/><rect fill="#FFFFFF" height="29.3105" style="stroke:#181818;stroke-width:1.0;" width="10" x="1403" y="306.4609"/><rect fill="#FFFFFF" height="71.6211" style="stroke:#181818;stroke-width:1.0;" width="10" x="1716" y="418.7031"/><rect fill="#FFFFFF" height="29.3105" style="stroke:#181818;stroke-width:1.0;" width="10" x="2156" y="627.5664"/><polygon fill="#181818" points="360.5,126.5977,370.5,130.5977,360.5,134.5977,364.5,130.5977" style="stroke:#181818;stroke-width:1.0;"/><line style="stroke:#181818;stroke-width:1.0;" x1="40.5" x2="366.5" y1="130.5977" y2="130.5977"/><text fill="#000000" font-family="sans-serif" font-size="13" font-weight="bold" lengthAdjust="spacing" textLength="9" x="47.5" y="118.2002">1</text><text fill="#000000" font-family="sans-serif" font-size="13" lengthAdjust="spacing" textLength="106" x="60.5" y="110.5449">Select the option</text><text fill="#000000" font-family="sans-serif" font-size="13" lengthAdjust="spacing" textLength="143" x="60.5" y="125.8555">to update Course state</text><polygon fill="#181818" points="597.5,155.9082,607.5,159.9082,597.5,163.9082,601.5,159.9082" style="stroke:#181818;stroke-width:1.0;"/><line style="stroke:#181818;stroke-width:1.0;" x1="382.5" x2="603.5" y1="159.9082" y2="159.9082"/><text fill="#000000" font-family="sans-serif" font-size="13" font-weight="bold" lengthAdjust="spacing" textLength="9" x="389.5" y="155.166">2</text><text fill="#000000" font-family="sans-serif" font-size="13" lengthAdjust="spacing" textLength="195" x="402.5" y="155.166">examGradesOfLoggedTeacher()</text><polygon fill="#181818" points="834.5,185.2188,844.5,189.2188,834.5,193.2188,838.5,189.2188" style="stroke:#181818;stroke-width:1.0;"/><line style="stroke:#181818;stroke-width:1.0;" x1="619.5" x2="840.5" y1="189.2188" y2="189.2188"/><text fill="#000000" font-family="sans-serif" font-size="13" font-weight="bold" lengthAdjust="spacing" textLength="9" x="626.5" y="184.4766">3</text><text fill="#000000" font-family="sans-serif" font-size="13" lengthAdjust="spacing" textLength="195" x="639.5" y="184.4766">examGradesOfLoggedTeacher()</text><polygon fill="#181818" points="1082.5,214.5293,1092.5,218.5293,1082.5,222.5293,1086.5,218.5293" style="stroke:#181818;stroke-width:1.0;"/><line style="stroke:#181818;stroke-width:1.0;" x1="856.5" x2="1088.5" y1="218.5293" y2="218.5293"/><text fill="#000000" font-family="sans-serif" font-size="13" font-weight="bold" lengthAdjust="spacing" textLength="9" x="863.5" y="213.7871">4</text><text fill="#000000" font-family="sans-serif" font-size="13" lengthAdjust="spacing" textLength="206" x="876.5" y="213.7871">session.get().authenticatedUser()</text><polygon fill="#181818" points="867.5,243.8398,857.5,247.8398,867.5,251.8398,863.5,247.8398" style="stroke:#181818;stroke-width:1.0;"/><line style="stroke:#181818;stroke-width:1.0;" x1="861.5" x2="1098.5" y1="247.8398" y2="247.8398"/><text fill="#000000" font-family="sans-serif" font-size="13" font-weight="bold" lengthAdjust="spacing" textLength="9" x="873.5" y="243.0977">5</text><text fill="#000000" font-family="sans-serif" font-size="13" lengthAdjust="spacing" textLength="71" x="886.5" y="243.0977">loggedUser</text><polygon fill="#181818" points="1243,273.1504,1253,277.1504,1243,281.1504,1247,277.1504" style="stroke:#181818;stroke-width:1.0;"/><line style="stroke:#181818;stroke-width:1.0;" x1="856.5" x2="1249" y1="277.1504" y2="277.1504"/><text fill="#000000" font-family="sans-serif" font-size="13" font-weight="bold" lengthAdjust="spacing" textLength="9" x="863.5" y="272.4082">6</text><text fill="#000000" font-family="sans-serif" font-size="13" lengthAdjust="spacing" textLength="50" x="876.5" y="272.4082">findAll()</text><polygon fill="#181818" points="1391,302.4609,1401,306.4609,1391,310.4609,1395,306.4609" style="stroke:#181818;stroke-width:1.0;"/><line style="stroke:#181818;stroke-width:1.0;" x1="1265" x2="1397" y1="306.4609" y2="306.4609"/><text fill="#000000" font-family="sans-serif" font-size="13" font-weight="bold" lengthAdjust="spacing" textLength="9" x="1272" y="301.7188">7</text><text fill="#000000" font-family="sans-serif" font-size="13" lengthAdjust="spacing" textLength="48" x="1285" y="301.7188">findall()</text><polygon fill="#181818" points="1276,331.7715,1266,335.7715,1276,339.7715,1272,335.7715" style="stroke:#181818;stroke-width:1.0;"/><line style="stroke:#181818;stroke-width:1.0;" x1="1270" x2="1407" y1="335.7715" y2="335.7715"/><text fill="#000000" font-family="sans-serif" font-size="13" font-weight="bold" lengthAdjust="spacing" textLength="9" x="1282" y="331.0293">8</text><text fill="#000000" font-family="sans-serif" font-size="13" lengthAdjust="spacing" textLength="101" x="1295" y="331.0293">Iterable&lt;Exam&gt;</text><polygon fill="#181818" points="867.5,361.082,857.5,365.082,867.5,369.082,863.5,365.082" style="stroke:#181818;stroke-width:1.0;"/><line style="stroke:#181818;stroke-width:1.0;" x1="861.5" x2="1259" y1="365.082" y2="365.082"/><text fill="#000000" font-family="sans-serif" font-size="13" font-weight="bold" lengthAdjust="spacing" textLength="9" x="873.5" y="360.3398">9</text><text fill="#000000" font-family="sans-serif" font-size="13" lengthAdjust="spacing" textLength="101" x="886.5" y="360.3398">Iterable&lt;Exam&gt;</text><path d="M776.5,380.082 L850.5,380.082 L850.5,387.3926 L840.5,397.3926 L776.5,397.3926 L776.5,380.082 " fill="#EEEEEE" style="stroke:#000000;stroke-width:1.5;"/><rect fill="none" height="160.5527" style="stroke:#000000;stroke-width:1.5;" width="1384.5" x="776.5" y="380.082"/><text fill="#000000" font-family="sans-serif" font-size="13" font-weight="bold" lengthAdjust="spacing" textLength="29" x="791.5" y="393.6504">loop</text><text fill="#000000" font-family="sans-serif" font-size="11" font-weight="bold" lengthAdjust="spacing" textLength="144" x="865.5" y="392.7168">[Iterable&lt;GradeOfExam&gt;]</text><polygon fill="#181818" points="1704,414.7031,1714,418.7031,1704,422.7031,1708,418.7031" style="stroke:#181818;stroke-width:1.0;"/><line style="stroke:#181818;stroke-width:1.0;" x1="856.5" x2="1710" y1="418.7031" y2="418.7031"/><text fill="#000000" font-family="sans-serif" font-size="13" font-weight="bold" lengthAdjust="spacing" textLength="18" x="863.5" y="413.9609">10</text><text fill="#000000" font-family="sans-serif" font-size="13" lengthAdjust="spacing" textLength="746" x="885.5" y="413.9609">exam.getExamGrades().stream().filter(grade -&gt; grade.studentWhoDidExam().equals(loggedUser)).findFirst().orElse(null);</text><line style="stroke:#181818;stroke-width:1.0;" x1="1726" x2="1768" y1="448.0137" y2="448.0137"/><line style="stroke:#181818;stroke-width:1.0;" x1="1768" x2="1768" y1="448.0137" y2="461.0137"/><line style="stroke:#181818;stroke-width:1.0;" x1="1727" x2="1768" y1="461.0137" y2="461.0137"/><polygon fill="#181818" points="1737,457.0137,1727,461.0137,1737,465.0137,1733,461.0137" style="stroke:#181818;stroke-width:1.0;"/><text fill="#000000" font-family="sans-serif" font-size="13" font-weight="bold" lengthAdjust="spacing" textLength="18" x="1733" y="443.2715">11</text><text fill="#000000" font-family="sans-serif" font-size="13" lengthAdjust="spacing" textLength="394" x="1755" y="443.2715">gradeOfExam.theExam().getTeacher().user().equals(loggedUser)</text><polygon fill="#181818" points="867.5,486.3242,857.5,490.3242,867.5,494.3242,863.5,490.3242" style="stroke:#181818;stroke-width:1.0;"/><line style="stroke:#181818;stroke-width:1.0;" x1="861.5" x2="1720" y1="490.3242" y2="490.3242"/><text fill="#000000" font-family="sans-serif" font-size="13" font-weight="bold" lengthAdjust="spacing" textLength="18" x="873.5" y="485.582">12</text><text fill="#000000" font-family="sans-serif" font-size="13" lengthAdjust="spacing" textLength="85" x="895.5" y="485.582">GradeOfExam</text><line style="stroke:#181818;stroke-width:1.0;" x1="856.5" x2="898.5" y1="519.6348" y2="519.6348"/><line style="stroke:#181818;stroke-width:1.0;" x1="898.5" x2="898.5" y1="519.6348" y2="532.6348"/><line style="stroke:#181818;stroke-width:1.0;" x1="857.5" x2="898.5" y1="532.6348" y2="532.6348"/><polygon fill="#181818" points="867.5,528.6348,857.5,532.6348,867.5,536.6348,863.5,532.6348" style="stroke:#181818;stroke-width:1.0;"/><text fill="#000000" font-family="sans-serif" font-size="13" font-weight="bold" lengthAdjust="spacing" textLength="18" x="863.5" y="514.8926">13</text><text fill="#000000" font-family="sans-serif" font-size="13" lengthAdjust="spacing" textLength="116" x="885.5" y="514.8926">add(GradeOfExam)</text><polygon fill="#181818" points="630.5,564.9453,620.5,568.9453,630.5,572.9453,626.5,568.9453" style="stroke:#181818;stroke-width:1.0;"/><line style="stroke:#181818;stroke-width:1.0;" x1="624.5" x2="850.5" y1="568.9453" y2="568.9453"/><text fill="#000000" font-family="sans-serif" font-size="13" font-weight="bold" lengthAdjust="spacing" textLength="18" x="636.5" y="564.2031">14</text><text fill="#000000" font-family="sans-serif" font-size="13" lengthAdjust="spacing" textLength="132" x="658.5" y="564.2031">loggedStudentExams</text><polygon fill="#181818" points="393.5,594.2559,383.5,598.2559,393.5,602.2559,389.5,598.2559" style="stroke:#181818;stroke-width:1.0;"/><line style="stroke:#181818;stroke-width:1.0;" x1="387.5" x2="613.5" y1="598.2559" y2="598.2559"/><text fill="#000000" font-family="sans-serif" font-size="13" font-weight="bold" lengthAdjust="spacing" textLength="18" x="399.5" y="593.5137">15</text><text fill="#000000" font-family="sans-serif" font-size="13" lengthAdjust="spacing" textLength="132" x="421.5" y="593.5137">loggedStudentExams</text><polygon fill="#181818" points="2144,623.5664,2154,627.5664,2144,631.5664,2148,627.5664" style="stroke:#181818;stroke-width:1.0;"/><line style="stroke:#181818;stroke-width:1.0;" x1="382.5" x2="2150" y1="627.5664" y2="627.5664"/><text fill="#000000" font-family="sans-serif" font-size="13" font-weight="bold" lengthAdjust="spacing" textLength="18" x="389.5" y="622.8242">16</text><text fill="#000000" font-family="sans-serif" font-size="13" lengthAdjust="spacing" textLength="99" x="411.5" y="622.8242">elementPrinter()</text><polygon fill="#181818" points="393.5,652.877,383.5,656.877,393.5,660.877,389.5,656.877" style="stroke:#181818;stroke-width:1.0;"/><line style="stroke:#181818;stroke-width:1.0;" x1="387.5" x2="2160" y1="656.877" y2="656.877"/><text fill="#000000" font-family="sans-serif" font-size="13" font-weight="bold" lengthAdjust="spacing" textLength="18" x="399.5" y="652.1348">17</text><text fill="#000000" font-family="sans-serif" font-size="13" lengthAdjust="spacing" textLength="123" x="421.5" y="652.1348">Prints each element</text><polygon fill="#181818" points="51.5,682.1875,41.5,686.1875,51.5,690.1875,47.5,686.1875" style="stroke:#181818;stroke-width:1.0;"/><line style="stroke:#181818;stroke-width:1.0;" x1="45.5" x2="376.5" y1="686.1875" y2="686.1875"/><text fill="#000000" font-family="sans-serif" font-size="13" font-weight="bold" lengthAdjust="spacing" textLength="18" x="57.5" y="681.4453">18</text><text fill="#000000" font-family="sans-serif" font-size="13" lengthAdjust="spacing" textLength="286" x="79.5" y="681.4453">Shows the Grade of each exam of the Teacher</text><!--SRC=[ZLHDRzim3BthLmYzB3aqkNj6WA3jXW056gmBTjb5jPX4W6nvajnr-_KZvGynMLBK1qCKzKYAxucVZZ6seLWkMwkQsDLsKRbw6U1N1qq5jzgeWrUr4AgBhkdg5_2uhgBpyZkewWXUgY3Nj47RvbL56CnM-MWgqsBOyUoZ2V7XJTLVlT8GTXl2uhyijnu2D555uvhLIbIkYTvPIUS7Q8RTzKxRfsPMMQxRrffgZC8B63E7P_2lfWA2ZiltS7Zje_FcR_8nx1htFuBVWW-Ocdf9bS9R93JRHNIRBKHh5TMB2Y1JkT-WTS5WE_yGZbbbcOspd3Vn20Gkw7T3E5eWujxLoZGNJgV6FkqJYAqJbjdNGe256jdRUeCtJAoCo_-O5KaRydQ5l1V8W8KgIgn0kfPEo9zDTB9hDSdepdKU-n0G35bSkur0oM20p7mXOLB7q_xH7GwW1zdCvXcP0OAf1YCDH7ump71QZFHZ0AQ6GWO80Q-oE42SpHSa8Bm_gGFqBfo6OZZ15SLhigaEGWeD5v4CnOHLoBrfzDfQdf3v1HSXGhESUgGwHMQtO2eyJxb1qjMBXPBaik85C_nPukccry6yR8cVTQxDnvb2LybD7siALtUYcAZ9ymH92j63gd6nDnQZpWxa86XQeBlJoE6Fexitce1u4WUaic6MsPaJkj5VZ0_4k_CFDi2iwQoTVvwgccx4QfgS_AMTbtt8nc9utfW4xp49TD4bSLqex5g2gV6NYc7Tl-I-f5IbzOoTxVD2exb0-QFjItpkcvkc7UTyLFVfKwMfyJwElV9-JWopg3WRKoVFejyIuzWQ4YKpIEhm23vHvO3gqwJ1XYFjw7w7DD5IAwJR3tXgEXha6JZZiN2gYNy0]--></g></svg>