<?xml version="1.0" encoding="UTF-8" standalone="no"?><svg xmlns="http://www.w3.org/2000/svg" xmlns:xlink="http://www.w3.org/1999/xlink" contentStyleType="text/css" height="816px" preserveAspectRatio="none" style="width:841px;height:816px;background:#FFFFFF;" version="1.1" viewBox="0 0 841 816" width="841px" zoomAndPan="magnify"><defs/><g><!--class TeacherListExamGradesUI--><g id="elem_TeacherListExamGradesUI"><rect codeLine="2" fill="#F1F1F1" height="146.9297" id="TeacherListExamGradesUI" rx="2.5" ry="2.5" style="stroke:#181818;stroke-width:0.5;" width="210" x="349.5" y="7"/><ellipse cx="364.5" cy="23" fill="#ADD1B2" rx="11" ry="11" style="stroke:#181818;stroke-width:1.0;"/><path d="M367.4731,28.6431 Q366.8921,28.9419 366.2529,29.0913 Q365.6138,29.2407 364.9082,29.2407 Q362.4014,29.2407 361.0815,27.5889 Q359.7617,25.937 359.7617,22.8159 Q359.7617,19.6865 361.0815,18.0347 Q362.4014,16.3828 364.9082,16.3828 Q365.6138,16.3828 366.2612,16.5322 Q366.9087,16.6816 367.4731,16.9805 L367.4731,19.7031 Q366.8423,19.1221 366.2488,18.8523 Q365.6553,18.5825 365.0244,18.5825 Q363.6797,18.5825 362.9949,19.6492 Q362.3101,20.7158 362.3101,22.8159 Q362.3101,24.9077 362.9949,25.9744 Q363.6797,27.041 365.0244,27.041 Q365.6553,27.041 366.2488,26.7712 Q366.8423,26.5015 367.4731,25.9204 Z " fill="#000000"/><text fill="#000000" font-family="sans-serif" font-size="14" lengthAdjust="spacing" textLength="178" x="378.5" y="28.291">TeacherListExamGradesUI</text><line style="stroke:#181818;stroke-width:0.5;" x1="350.5" x2="558.5" y1="39" y2="39"/><line style="stroke:#181818;stroke-width:0.5;" x1="350.5" x2="558.5" y1="47" y2="47"/><ellipse cx="360.5" cy="60.7441" fill="#84BE84" rx="3" ry="3" style="stroke:#038048;stroke-width:1.0;"/><text fill="#000000" font-family="sans-serif" font-size="14" lengthAdjust="spacing" textLength="69" x="369.5" y="64.5352">headline()</text><ellipse cx="360.5" cy="77.2324" fill="#84BE84" rx="3" ry="3" style="stroke:#038048;stroke-width:1.0;"/><text fill="#000000" font-family="sans-serif" font-size="14" lengthAdjust="spacing" textLength="111" x="369.5" y="81.0234">emptyMessage()</text><ellipse cx="360.5" cy="93.7207" fill="#84BE84" rx="3" ry="3" style="stroke:#038048;stroke-width:1.0;"/><text fill="#000000" font-family="sans-serif" font-size="14" lengthAdjust="spacing" textLength="72" x="369.5" y="97.5117">elements()</text><ellipse cx="360.5" cy="110.209" fill="#84BE84" rx="3" ry="3" style="stroke:#038048;stroke-width:1.0;"/><text fill="#000000" font-family="sans-serif" font-size="14" lengthAdjust="spacing" textLength="111" x="369.5" y="114">elementPrinter()</text><ellipse cx="360.5" cy="126.6973" fill="#84BE84" rx="3" ry="3" style="stroke:#038048;stroke-width:1.0;"/><text fill="#000000" font-family="sans-serif" font-size="14" lengthAdjust="spacing" textLength="104" x="369.5" y="130.4883">elementName()</text><ellipse cx="360.5" cy="143.1855" fill="#84BE84" rx="3" ry="3" style="stroke:#038048;stroke-width:1.0;"/><text fill="#000000" font-family="sans-serif" font-size="14" lengthAdjust="spacing" textLength="79" x="369.5" y="146.9766">listHeader()</text></g><!--class ListTeacherExamGradesController--><g id="elem_ListTeacherExamGradesController"><rect codeLine="11" fill="#F1F1F1" height="64.4883" id="ListTeacherExamGradesController" rx="2.5" ry="2.5" style="stroke:#181818;stroke-width:0.5;" width="266" x="321.5" y="213.93"/><ellipse cx="336.5" cy="229.93" fill="#ADD1B2" rx="11" ry="11" style="stroke:#181818;stroke-width:1.0;"/><path d="M339.4731,235.5731 Q338.8921,235.8719 338.2529,236.0213 Q337.6138,236.1707 336.9082,236.1707 Q334.4014,236.1707 333.0815,234.5189 Q331.7617,232.867 331.7617,229.7459 Q331.7617,226.6165 333.0815,224.9647 Q334.4014,223.3128 336.9082,223.3128 Q337.6138,223.3128 338.2612,223.4622 Q338.9087,223.6116 339.4731,223.9105 L339.4731,226.6331 Q338.8423,226.0521 338.2488,225.7823 Q337.6553,225.5125 337.0244,225.5125 Q335.6797,225.5125 334.9949,226.5792 Q334.3101,227.6458 334.3101,229.7459 Q334.3101,231.8377 334.9949,232.9044 Q335.6797,233.971 337.0244,233.971 Q337.6553,233.971 338.2488,233.7012 Q338.8423,233.4315 339.4731,232.8504 Z " fill="#000000"/><text fill="#000000" font-family="sans-serif" font-size="14" lengthAdjust="spacing" textLength="234" x="350.5" y="235.221">ListTeacherExamGradesController</text><line style="stroke:#181818;stroke-width:0.5;" x1="322.5" x2="586.5" y1="245.93" y2="245.93"/><line style="stroke:#181818;stroke-width:0.5;" x1="322.5" x2="586.5" y1="253.93" y2="253.93"/><ellipse cx="332.5" cy="267.6741" fill="#84BE84" rx="3" ry="3" style="stroke:#038048;stroke-width:1.0;"/><text fill="#000000" font-family="sans-serif" font-size="14" lengthAdjust="spacing" textLength="168" x="341.5" y="271.4652">examOfLoggedStudent()</text></g><!--class GradesOfExamRepository--><g id="elem_GradesOfExamRepository"><rect codeLine="15" fill="#F1F1F1" height="48" id="GradesOfExamRepository" rx="2.5" ry="2.5" style="stroke:#181818;stroke-width:0.5;" width="207" x="7" y="753.11"/><ellipse cx="22" cy="769.11" fill="#ADD1B2" rx="11" ry="11" style="stroke:#181818;stroke-width:1.0;"/><path d="M24.9731,774.7531 Q24.3921,775.0519 23.7529,775.2013 Q23.1138,775.3507 22.4082,775.3507 Q19.9014,775.3507 18.5815,773.6989 Q17.2617,772.047 17.2617,768.9259 Q17.2617,765.7965 18.5815,764.1447 Q19.9014,762.4928 22.4082,762.4928 Q23.1138,762.4928 23.7612,762.6422 Q24.4087,762.7916 24.9731,763.0905 L24.9731,765.8131 Q24.3423,765.2321 23.7488,764.9623 Q23.1553,764.6925 22.5244,764.6925 Q21.1797,764.6925 20.4949,765.7592 Q19.8101,766.8258 19.8101,768.9259 Q19.8101,771.0177 20.4949,772.0844 Q21.1797,773.151 22.5244,773.151 Q23.1553,773.151 23.7488,772.8812 Q24.3423,772.6115 24.9731,772.0304 Z " fill="#000000"/><text fill="#000000" font-family="sans-serif" font-size="14" lengthAdjust="spacing" textLength="175" x="36" y="774.401">GradesOfExamRepository</text><line style="stroke:#181818;stroke-width:0.5;" x1="8" x2="213" y1="785.11" y2="785.11"/><line style="stroke:#181818;stroke-width:0.5;" x1="8" x2="213" y1="793.11" y2="793.11"/></g><!--class PersistenceContext--><g id="elem_PersistenceContext"><rect codeLine="18" fill="#F1F1F1" height="80.9766" id="PersistenceContext" rx="2.5" ry="2.5" style="stroke:#181818;stroke-width:0.5;" width="377" x="27" y="479.4"/><ellipse cx="145.25" cy="495.4" fill="#ADD1B2" rx="11" ry="11" style="stroke:#181818;stroke-width:1.0;"/><path d="M148.2231,501.0431 Q147.6421,501.3419 147.0029,501.4913 Q146.3638,501.6407 145.6582,501.6407 Q143.1514,501.6407 141.8315,499.9889 Q140.5117,498.337 140.5117,495.2159 Q140.5117,492.0865 141.8315,490.4347 Q143.1514,488.7828 145.6582,488.7828 Q146.3638,488.7828 147.0112,488.9322 Q147.6587,489.0816 148.2231,489.3805 L148.2231,492.1031 Q147.5923,491.5221 146.9988,491.2523 Q146.4053,490.9825 145.7744,490.9825 Q144.4297,490.9825 143.7449,492.0492 Q143.0601,493.1158 143.0601,495.2159 Q143.0601,497.3077 143.7449,498.3744 Q144.4297,499.441 145.7744,499.441 Q146.4053,499.441 146.9988,499.1712 Q147.5923,498.9015 148.2231,498.3204 Z " fill="#000000"/><text fill="#000000" font-family="sans-serif" font-size="14" lengthAdjust="spacing" textLength="132" x="165.75" y="500.691">PersistenceContext</text><line style="stroke:#181818;stroke-width:0.5;" x1="28" x2="403" y1="511.4" y2="511.4"/><rect fill="none" height="6" style="stroke:#C82930;stroke-width:1.0;" width="6" x="35" y="522.1441"/><text fill="#000000" font-family="sans-serif" font-size="14" lengthAdjust="spacing" textLength="351" x="47" y="528.9352">GradeOfExamRepository: GradesOfExamRepository</text><line style="stroke:#181818;stroke-width:0.5;" x1="28" x2="403" y1="535.8883" y2="535.8883"/><ellipse cx="38" cy="549.6324" fill="#84BE84" rx="3" ry="3" style="stroke:#038048;stroke-width:1.0;"/><text fill="#000000" font-family="sans-serif" font-size="14" lengthAdjust="spacing" textLength="92" x="47" y="553.4234">repositories()</text></g><!--class AuthorizationService--><g id="elem_AuthorizationService"><rect codeLine="23" fill="#F1F1F1" height="64.4883" id="AuthorizationService" rx="2.5" ry="2.5" style="stroke:#181818;stroke-width:0.5;" width="175" x="490" y="346.66"/><ellipse cx="505" cy="362.66" fill="#ADD1B2" rx="11" ry="11" style="stroke:#181818;stroke-width:1.0;"/><path d="M507.9731,368.3031 Q507.3921,368.6019 506.7529,368.7513 Q506.1138,368.9007 505.4082,368.9007 Q502.9014,368.9007 501.5815,367.2489 Q500.2617,365.597 500.2617,362.4759 Q500.2617,359.3465 501.5815,357.6947 Q502.9014,356.0428 505.4082,356.0428 Q506.1138,356.0428 506.7612,356.1922 Q507.4087,356.3416 507.9731,356.6405 L507.9731,359.3631 Q507.3423,358.7821 506.7488,358.5123 Q506.1553,358.2425 505.5244,358.2425 Q504.1797,358.2425 503.4949,359.3092 Q502.8101,360.3758 502.8101,362.4759 Q502.8101,364.5677 503.4949,365.6344 Q504.1797,366.701 505.5244,366.701 Q506.1553,366.701 506.7488,366.4312 Q507.3423,366.1615 507.9731,365.5804 Z " fill="#000000"/><text fill="#000000" font-family="sans-serif" font-size="14" lengthAdjust="spacing" textLength="143" x="519" y="367.951">AuthorizationService</text><line style="stroke:#181818;stroke-width:0.5;" x1="491" x2="664" y1="378.66" y2="378.66"/><line style="stroke:#181818;stroke-width:0.5;" x1="491" x2="664" y1="386.66" y2="386.66"/><ellipse cx="501" cy="400.4041" fill="#84BE84" rx="3" ry="3" style="stroke:#038048;stroke-width:1.0;"/><text fill="#000000" font-family="sans-serif" font-size="14" lengthAdjust="spacing" textLength="61" x="510" y="404.1952">session()</text></g><!--class SystemUser--><g id="elem_SystemUser"><rect codeLine="27" fill="#F1F1F1" height="64.4883" id="SystemUser" rx="2.5" ry="2.5" style="stroke:#181818;stroke-width:0.5;" width="161" x="497" y="487.64"/><ellipse cx="534.5" cy="503.64" fill="#ADD1B2" rx="11" ry="11" style="stroke:#181818;stroke-width:1.0;"/><path d="M537.4731,509.2831 Q536.8921,509.5819 536.2529,509.7313 Q535.6138,509.8807 534.9082,509.8807 Q532.4014,509.8807 531.0815,508.2289 Q529.7617,506.577 529.7617,503.4559 Q529.7617,500.3265 531.0815,498.6747 Q532.4014,497.0228 534.9082,497.0228 Q535.6138,497.0228 536.2612,497.1722 Q536.9087,497.3216 537.4731,497.6205 L537.4731,500.3431 Q536.8423,499.7621 536.2488,499.4923 Q535.6553,499.2225 535.0244,499.2225 Q533.6797,499.2225 532.9949,500.2892 Q532.3101,501.3558 532.3101,503.4559 Q532.3101,505.5477 532.9949,506.6144 Q533.6797,507.681 535.0244,507.681 Q535.6553,507.681 536.2488,507.4112 Q536.8423,507.1415 537.4731,506.5604 Z " fill="#000000"/><text fill="#000000" font-family="sans-serif" font-size="14" lengthAdjust="spacing" textLength="79" x="553.5" y="508.931">SystemUser</text><line style="stroke:#181818;stroke-width:0.5;" x1="498" x2="657" y1="519.64" y2="519.64"/><line style="stroke:#181818;stroke-width:0.5;" x1="498" x2="657" y1="527.64" y2="527.64"/><ellipse cx="508" cy="541.3841" fill="#84BE84" rx="3" ry="3" style="stroke:#038048;stroke-width:1.0;"/><text fill="#000000" font-family="sans-serif" font-size="14" lengthAdjust="spacing" textLength="135" x="517" y="545.1752">authenticatedUser()</text></g><!--class ListExamsService--><g id="elem_ListExamsService"><rect codeLine="31" fill="#F1F1F1" height="80.9766" id="ListExamsService" rx="2.5" ry="2.5" style="stroke:#181818;stroke-width:0.5;" width="244" x="210.5" y="338.42"/><ellipse cx="270.25" cy="354.42" fill="#ADD1B2" rx="11" ry="11" style="stroke:#181818;stroke-width:1.0;"/><path d="M273.2231,360.0631 Q272.6421,360.3619 272.0029,360.5113 Q271.3638,360.6607 270.6582,360.6607 Q268.1514,360.6607 266.8315,359.0089 Q265.5117,357.357 265.5117,354.2359 Q265.5117,351.1065 266.8315,349.4547 Q268.1514,347.8028 270.6582,347.8028 Q271.3638,347.8028 272.0112,347.9522 Q272.6587,348.1016 273.2231,348.4005 L273.2231,351.1231 Q272.5923,350.5421 271.9988,350.2723 Q271.4053,350.0025 270.7744,350.0025 Q269.4297,350.0025 268.7449,351.0692 Q268.0601,352.1358 268.0601,354.2359 Q268.0601,356.3277 268.7449,357.3944 Q269.4297,358.461 270.7744,358.461 Q271.4053,358.461 271.9988,358.1912 Q272.5923,357.9215 273.2231,357.3404 Z " fill="#000000"/><text fill="#000000" font-family="sans-serif" font-size="14" lengthAdjust="spacing" textLength="116" x="290.75" y="359.711">ListExamsService</text><line style="stroke:#181818;stroke-width:0.5;" x1="211.5" x2="453.5" y1="370.42" y2="370.42"/><line style="stroke:#181818;stroke-width:0.5;" x1="211.5" x2="453.5" y1="378.42" y2="378.42"/><ellipse cx="221.5" cy="392.1641" fill="#84BE84" rx="3" ry="3" style="stroke:#038048;stroke-width:1.0;"/><text fill="#000000" font-family="sans-serif" font-size="14" lengthAdjust="spacing" textLength="71" x="230.5" y="395.9552">allExams()</text><ellipse cx="221.5" cy="408.6524" fill="#84BE84" rx="3" ry="3" style="stroke:#038048;stroke-width:1.0;"/><text fill="#000000" font-family="sans-serif" font-size="14" lengthAdjust="spacing" textLength="218" x="230.5" y="412.4434">examGradesOfLoggedTeacher()</text></g><!--class RepositoryFactory--><g id="elem_RepositoryFactory"><rect codeLine="36" fill="#F1F1F1" height="64.4883" id="RepositoryFactory" rx="2.5" ry="2.5" style="stroke:#181818;stroke-width:0.5;" width="155" x="138" y="620.37"/><ellipse cx="153" cy="636.37" fill="#ADD1B2" rx="11" ry="11" style="stroke:#181818;stroke-width:1.0;"/><path d="M155.9731,642.0131 Q155.3921,642.3119 154.7529,642.4613 Q154.1138,642.6107 153.4082,642.6107 Q150.9014,642.6107 149.5815,640.9589 Q148.2617,639.307 148.2617,636.1859 Q148.2617,633.0565 149.5815,631.4047 Q150.9014,629.7528 153.4082,629.7528 Q154.1138,629.7528 154.7612,629.9022 Q155.4087,630.0516 155.9731,630.3505 L155.9731,633.0731 Q155.3423,632.4921 154.7488,632.2223 Q154.1553,631.9525 153.5244,631.9525 Q152.1797,631.9525 151.4949,633.0192 Q150.8101,634.0858 150.8101,636.1859 Q150.8101,638.2777 151.4949,639.3444 Q152.1797,640.411 153.5244,640.411 Q154.1553,640.411 154.7488,640.1412 Q155.3423,639.8715 155.9731,639.2904 Z " fill="#000000"/><text fill="#000000" font-family="sans-serif" font-size="14" lengthAdjust="spacing" textLength="123" x="167" y="641.661">RepositoryFactory</text><line style="stroke:#181818;stroke-width:0.5;" x1="139" x2="292" y1="652.37" y2="652.37"/><line style="stroke:#181818;stroke-width:0.5;" x1="139" x2="292" y1="660.37" y2="660.37"/><ellipse cx="149" cy="674.1141" fill="#84BE84" rx="3" ry="3" style="stroke:#038048;stroke-width:1.0;"/><text fill="#000000" font-family="sans-serif" font-size="14" lengthAdjust="spacing" textLength="52" x="158" y="677.9052">create()</text></g><!--class GradesOfExam--><g id="elem_GradesOfExam"><rect codeLine="40" fill="#F1F1F1" height="48" id="GradesOfExam" rx="2.5" ry="2.5" style="stroke:#181818;stroke-width:0.5;" width="134" x="700.5" y="354.91"/><ellipse cx="715.5" cy="370.91" fill="#ADD1B2" rx="11" ry="11" style="stroke:#181818;stroke-width:1.0;"/><path d="M718.4731,376.5531 Q717.8921,376.8519 717.2529,377.0013 Q716.6138,377.1507 715.9082,377.1507 Q713.4014,377.1507 712.0815,375.4989 Q710.7617,373.847 710.7617,370.7259 Q710.7617,367.5965 712.0815,365.9447 Q713.4014,364.2928 715.9082,364.2928 Q716.6138,364.2928 717.2612,364.4422 Q717.9087,364.5916 718.4731,364.8905 L718.4731,367.6131 Q717.8423,367.0321 717.2488,366.7623 Q716.6553,366.4925 716.0244,366.4925 Q714.6797,366.4925 713.9949,367.5592 Q713.3101,368.6258 713.3101,370.7259 Q713.3101,372.8177 713.9949,373.8844 Q714.6797,374.951 716.0244,374.951 Q716.6553,374.951 717.2488,374.6812 Q717.8423,374.4115 718.4731,373.8304 Z " fill="#000000"/><text fill="#000000" font-family="sans-serif" font-size="14" lengthAdjust="spacing" textLength="102" x="729.5" y="376.201">GradesOfExam</text><line style="stroke:#181818;stroke-width:0.5;" x1="701.5" x2="833.5" y1="386.91" y2="386.91"/><line style="stroke:#181818;stroke-width:0.5;" x1="701.5" x2="833.5" y1="394.91" y2="394.91"/></g><!--class ExamRepository--><g id="elem_ExamRepository"><rect codeLine="43" fill="#F1F1F1" height="64.4883" id="ExamRepository" rx="2.5" ry="2.5" style="stroke:#181818;stroke-width:0.5;" width="143" x="249" y="744.86"/><ellipse cx="264" cy="760.86" fill="#ADD1B2" rx="11" ry="11" style="stroke:#181818;stroke-width:1.0;"/><path d="M266.9731,766.5031 Q266.3921,766.8019 265.7529,766.9513 Q265.1138,767.1007 264.4082,767.1007 Q261.9014,767.1007 260.5815,765.4489 Q259.2617,763.797 259.2617,760.6759 Q259.2617,757.5465 260.5815,755.8947 Q261.9014,754.2428 264.4082,754.2428 Q265.1138,754.2428 265.7612,754.3922 Q266.4087,754.5416 266.9731,754.8405 L266.9731,757.5631 Q266.3423,756.9821 265.7488,756.7123 Q265.1553,756.4425 264.5244,756.4425 Q263.1797,756.4425 262.4949,757.5092 Q261.8101,758.5758 261.8101,760.6759 Q261.8101,762.7677 262.4949,763.8344 Q263.1797,764.901 264.5244,764.901 Q265.1553,764.901 265.7488,764.6312 Q266.3423,764.3615 266.9731,763.7804 Z " fill="#000000"/><text fill="#000000" font-family="sans-serif" font-size="14" lengthAdjust="spacing" textLength="111" x="278" y="766.151">ExamRepository</text><line style="stroke:#181818;stroke-width:0.5;" x1="250" x2="391" y1="776.86" y2="776.86"/><line style="stroke:#181818;stroke-width:0.5;" x1="250" x2="391" y1="784.86" y2="784.86"/><ellipse cx="260" cy="798.6041" fill="#84BE84" rx="3" ry="3" style="stroke:#038048;stroke-width:1.0;"/><text fill="#000000" font-family="sans-serif" font-size="14" lengthAdjust="spacing" textLength="55" x="269" y="802.3952">findAll()</text></g><!--link TeacherListExamGradesUI to ListTeacherExamGradesController--><g id="link_TeacherListExamGradesUI_ListTeacherExamGradesController"><path codeLine="47" d="M454.5,154.23 C454.5,172.78 454.5,191.97 454.5,207.91 " fill="none" id="TeacherListExamGradesUI-to-ListTeacherExamGradesController" style="stroke:#181818;stroke-width:1.0;"/><polygon fill="#181818" points="454.5,212.63,458.5,203.63,454.5,207.63,450.5,203.63,454.5,212.63" style="stroke:#181818;stroke-width:1.0;"/></g><!--link ListTeacherExamGradesController to PersistenceContext--><g id="link_ListTeacherExamGradesController_PersistenceContext"><path codeLine="48" d="M321.21,261.4 C272.55,273.79 222.21,296.61 192.5,338.42 C164.48,377.84 178.21,434.67 193.77,473.98 " fill="none" id="ListTeacherExamGradesController-to-PersistenceContext" style="stroke:#181818;stroke-width:1.0;"/><polygon fill="#181818" points="195.87,478.16,196.1893,468.3163,193.9885,473.5275,188.7773,471.3267,195.87,478.16" style="stroke:#181818;stroke-width:1.0;"/></g><!--link ListTeacherExamGradesController to ListExamsService--><g id="link_ListTeacherExamGradesController_ListExamsService"><path codeLine="49" d="M424.97,278.82 C409.49,295.4 390.3,315.97 373.42,334.06 " fill="none" id="ListTeacherExamGradesController-to-ListExamsService" style="stroke:#181818;stroke-width:1.0;"/><polygon fill="#181818" points="370.63,337.12,379.6956,333.271,374.0421,333.4652,373.8479,327.8117,370.63,337.12" style="stroke:#181818;stroke-width:1.0;"/></g><!--link ListTeacherExamGradesController to AuthorizationService--><g id="link_ListTeacherExamGradesController_AuthorizationService"><path codeLine="50" d="M484.27,278.82 C502.33,298.01 525.41,322.54 544.08,342.39 " fill="none" id="ListTeacherExamGradesController-to-AuthorizationService" style="stroke:#181818;stroke-width:1.0;"/><polygon fill="#181818" points="547,345.55,543.7445,336.2547,543.5732,341.909,537.9189,341.7377,547,345.55" style="stroke:#181818;stroke-width:1.0;"/></g><!--link ListTeacherExamGradesController to GradesOfExam--><g id="link_ListTeacherExamGradesController_GradesOfExam"><path codeLine="51" d="M536.73,278.84 C580.29,295.92 634.55,317.71 682.5,338.42 C692.42,342.71 702.92,347.43 713.02,352.07 " fill="none" id="ListTeacherExamGradesController-to-GradesOfExam" style="stroke:#181818;stroke-width:1.0;"/><polygon fill="#181818" points="717.26,354.48,710.7498,347.0896,712.716,352.3938,707.4119,354.36,717.26,354.48" style="stroke:#181818;stroke-width:1.0;"/></g><!--link AuthorizationService to SystemUser--><g id="link_AuthorizationService_SystemUser"><path codeLine="52" d="M577.5,411.44 C577.5,432.32 577.5,459.8 577.5,481.73 " fill="none" id="AuthorizationService-to-SystemUser" style="stroke:#181818;stroke-width:1.0;"/><polygon fill="#181818" points="577.5,486.47,581.5,477.47,577.5,481.47,573.5,477.47,577.5,486.47" style="stroke:#181818;stroke-width:1.0;"/></g><!--link PersistenceContext to RepositoryFactory--><g id="link_PersistenceContext_RepositoryFactory"><path codeLine="53" d="M215.5,560.82 C215.5,577.96 215.5,597.85 215.5,614.65 " fill="none" id="PersistenceContext-to-RepositoryFactory" style="stroke:#181818;stroke-width:1.0;"/><polygon fill="#181818" points="215.5,619.22,219.5,610.22,215.5,614.22,211.5,610.22,215.5,619.22" style="stroke:#181818;stroke-width:1.0;"/></g><!--link RepositoryFactory to GradesOfExamRepository--><g id="link_RepositoryFactory_GradesOfExamRepository"><path codeLine="54" d="M188.46,685.16 C171.63,704.8 150.18,729.81 134.05,748.63 " fill="none" id="RepositoryFactory-to-GradesOfExamRepository" style="stroke:#181818;stroke-width:1.0;"/><polygon fill="#181818" points="130.48,751.79,139.3741,747.5599,133.734,747.9937,133.3001,742.3535,130.48,751.79" style="stroke:#181818;stroke-width:1.0;"/></g><!--link RepositoryFactory to ExamRepository--><g id="link_RepositoryFactory_ExamRepository"><path codeLine="55" d="M242.54,685.16 C256.99,702.02 274.84,722.84 289.81,740.31 " fill="none" id="RepositoryFactory-to-ExamRepository" style="stroke:#181818;stroke-width:1.0;"/><polygon fill="#181818" points="293.55,743.67,290.7299,734.2335,290.296,739.8737,284.6559,739.4399,293.55,743.67" style="stroke:#181818;stroke-width:1.0;"/></g><!--link ListExamsService to PersistenceContext--><g id="link_ListExamsService_PersistenceContext"><path codeLine="56" d="M298.97,419.73 C284.53,436.89 267.59,457.01 252.76,474.63 " fill="none" id="ListExamsService-to-PersistenceContext" style="stroke:#181818;stroke-width:1.0;"/><polygon fill="#181818" points="249.03,478.05,257.8898,473.7484,252.2533,474.2277,251.7741,468.5911,249.03,478.05" style="stroke:#181818;stroke-width:1.0;"/></g><!--SRC=[ZLBBQiCm4BphAtniAVw17WgXz0Lf4-hc0uIqjWMo7BHAYLlwxrtvAMIRn3UjTsPdPqTeZfXy0HSbsAr2ztJcrOlb4l3mblooXBwx4hZKoi3DRVU6wkYQTq3anLJJK85n6BttLXa7Dgf-y6e4QXhwIWFQfZ_6HAl8I-bLJOeUQ-DihJNOGHdGlrs-hOi2PEPEahX3bWwsopt59nnhLAws3O77ZZrOf55W17XsEBkUEcsnCVH-XR9JOuUt0WnbR4wkfE8FTwes6TXl9M3O0Cb6geRjMKE2gWDEQt8YeDMKu0wa_n5RvTLWnCorRikZzwEFWsEzmI7PjD8p5xrPBLfOeE5hveQMpinkyRaoSgDrHx2MjpHzk7HvTYaPdcD-rQjWiPDNWPQEUnKmz8yjHiHtJM5W2rdr7REJiVaHutb1SfURewPPnbPS_WS0]--></g></svg>