<?xml version="1.0" encoding="us-ascii" standalone="no"?><svg xmlns="http://www.w3.org/2000/svg" xmlns:xlink="http://www.w3.org/1999/xlink" contentStyleType="text/css" height="624px" preserveAspectRatio="none" style="width:1135px;height:624px;background:#FFFFFF;" version="1.1" viewBox="0 0 1135 624" width="1135px" zoomAndPan="magnify"><defs/><g><rect fill="#FFFFFF" height="415.7832" style="stroke:#181818;stroke-width:1.0;" width="10" x="288.5" y="116.9121"/><rect fill="#FFFFFF" height="219.0371" style="stroke:#181818;stroke-width:1.0;" width="10" x="472.5" y="210.7852"/><line style="stroke:#181818;stroke-width:0.5;stroke-dasharray:5.0,5.0;" x1="22" x2="22" y1="83.6211" y2="541.6953"/><line style="stroke:#181818;stroke-width:0.5;stroke-dasharray:5.0,5.0;" x1="293" x2="293" y1="83.6211" y2="541.6953"/><line style="stroke:#181818;stroke-width:0.5;stroke-dasharray:5.0,5.0;" x1="477" x2="477" y1="83.6211" y2="541.6953"/><line style="stroke:#181818;stroke-width:0.5;stroke-dasharray:5.0,5.0;" x1="653" x2="653" y1="83.6211" y2="541.6953"/><line style="stroke:#181818;stroke-width:0.5;stroke-dasharray:5.0,5.0;" x1="792" x2="792" y1="83.6211" y2="541.6953"/><line style="stroke:#181818;stroke-width:0.5;stroke-dasharray:5.0,5.0;" x1="942" x2="942" y1="83.6211" y2="541.6953"/><line style="stroke:#181818;stroke-width:0.5;stroke-dasharray:5.0,5.0;" x1="1080" x2="1080" y1="83.6211" y2="541.6953"/><text fill="#000000" font-family="sans-serif" font-size="14" lengthAdjust="spacing" textLength="29" x="5" y="80.1074">User</text><ellipse cx="22.5" cy="13.5" fill="#E2E2F0" rx="8" ry="8" style="stroke:#181818;stroke-width:0.5;"/><path d="M22.5,21.5 L22.5,48.5 M9.5,29.5 L35.5,29.5 M22.5,48.5 L9.5,63.5 M22.5,48.5 L35.5,63.5 " fill="none" style="stroke:#181818;stroke-width:0.5;"/><text fill="#000000" font-family="sans-serif" font-size="14" lengthAdjust="spacing" textLength="29" x="5" y="555.8027">User</text><ellipse cx="22.5" cy="567.8164" fill="#E2E2F0" rx="8" ry="8" style="stroke:#181818;stroke-width:0.5;"/><path d="M22.5,575.8164 L22.5,602.8164 M9.5,583.8164 L35.5,583.8164 M22.5,602.8164 L9.5,617.8164 M22.5,602.8164 L35.5,617.8164 " fill="none" style="stroke:#181818;stroke-width:0.5;"/><rect fill="#E2E2F0" height="32.6211" rx="2.5" ry="2.5" style="stroke:#181818;stroke-width:0.5;" width="153" x="217" y="50"/><text fill="#000000" font-family="sans-serif" font-size="14" lengthAdjust="spacing" textLength="139" x="224" y="72.1074">CreateSharedBoardUI</text><rect fill="#E2E2F0" height="32.6211" rx="2.5" ry="2.5" style="stroke:#181818;stroke-width:0.5;" width="153" x="217" y="540.6953"/><text fill="#000000" font-family="sans-serif" font-size="14" lengthAdjust="spacing" textLength="139" x="224" y="562.8027">CreateSharedBoardUI</text><text fill="#000000" font-family="sans-serif" font-size="14" lengthAdjust="spacing" textLength="189" x="380" y="80.1074">CreateSharedBoardController</text><ellipse cx="477.5" cy="49" fill="#E2E2F0" rx="12" ry="12" style="stroke:#181818;stroke-width:0.5;"/><polygon fill="#181818" points="473.5,37,479.5,32,477.5,37,479.5,42,473.5,37" style="stroke:#181818;stroke-width:1.0;"/><text fill="#000000" font-family="sans-serif" font-size="14" lengthAdjust="spacing" textLength="189" x="380" y="555.8027">CreateSharedBoardController</text><ellipse cx="477.5" cy="575.3164" fill="#E2E2F0" rx="12" ry="12" style="stroke:#181818;stroke-width:0.5;"/><polygon fill="#181818" points="473.5,563.3164,479.5,558.3164,477.5,563.3164,479.5,568.3164,473.5,563.3164" style="stroke:#181818;stroke-width:1.0;"/><rect fill="#E2E2F0" height="32.6211" rx="2.5" ry="2.5" style="stroke:#181818;stroke-width:0.5;" width="136" x="585" y="50"/><text fill="#000000" font-family="sans-serif" font-size="14" lengthAdjust="spacing" textLength="122" x="592" y="72.1074">PersistenceContext</text><rect fill="#E2E2F0" height="32.6211" rx="2.5" ry="2.5" style="stroke:#181818;stroke-width:0.5;" width="136" x="585" y="540.6953"/><text fill="#000000" font-family="sans-serif" font-size="14" lengthAdjust="spacing" textLength="122" x="592" y="562.8027">PersistenceContext</text><text fill="#000000" font-family="sans-serif" font-size="14" lengthAdjust="spacing" textLength="116" x="731" y="80.1074">RepositoryFactory</text><path d="M774,29 C774,19 792,19 792,19 C792,19 810,19 810,29 L810,55 C810,65 792,65 792,65 C792,65 774,65 774,55 L774,29 " fill="#E2E2F0" style="stroke:#181818;stroke-width:1.5;"/><path d="M774,29 C774,39 792,39 792,39 C792,39 810,39 810,29 " fill="none" style="stroke:#181818;stroke-width:1.5;"/><text fill="#000000" font-family="sans-serif" font-size="14" lengthAdjust="spacing" textLength="116" x="731" y="555.8027">RepositoryFactory</text><path d="M774,569.3164 C774,559.3164 792,559.3164 792,559.3164 C792,559.3164 810,559.3164 810,569.3164 L810,595.3164 C810,605.3164 792,605.3164 792,605.3164 C792,605.3164 774,605.3164 774,595.3164 L774,569.3164 " fill="#E2E2F0" style="stroke:#181818;stroke-width:1.5;"/><path d="M774,569.3164 C774,579.3164 792,579.3164 792,579.3164 C792,579.3164 810,579.3164 810,569.3164 " fill="none" style="stroke:#181818;stroke-width:1.5;"/><text fill="#000000" font-family="sans-serif" font-size="14" lengthAdjust="spacing" textLength="152" x="863" y="80.1074">SharedBoardRepository</text><path d="M924,29 C924,19 942,19 942,19 C942,19 960,19 960,29 L960,55 C960,65 942,65 942,65 C942,65 924,65 924,55 L924,29 " fill="#E2E2F0" style="stroke:#181818;stroke-width:1.5;"/><path d="M924,29 C924,39 942,39 942,39 C942,39 960,39 960,29 " fill="none" style="stroke:#181818;stroke-width:1.5;"/><text fill="#000000" font-family="sans-serif" font-size="14" lengthAdjust="spacing" textLength="152" x="863" y="555.8027">SharedBoardRepository</text><path d="M924,569.3164 C924,559.3164 942,559.3164 942,559.3164 C942,559.3164 960,559.3164 960,569.3164 L960,595.3164 C960,605.3164 942,605.3164 942,605.3164 C942,605.3164 924,605.3164 924,595.3164 L924,569.3164 " fill="#E2E2F0" style="stroke:#181818;stroke-width:1.5;"/><path d="M924,569.3164 C924,579.3164 942,579.3164 942,579.3164 C942,579.3164 960,579.3164 960,569.3164 " fill="none" style="stroke:#181818;stroke-width:1.5;"/><rect fill="#E2E2F0" height="32.6211" rx="2.5" ry="2.5" style="stroke:#181818;stroke-width:0.5;" width="98" x="1031" y="50"/><text fill="#000000" font-family="sans-serif" font-size="14" lengthAdjust="spacing" textLength="84" x="1038" y="72.1074">SharedBoard</text><rect fill="#E2E2F0" height="32.6211" rx="2.5" ry="2.5" style="stroke:#181818;stroke-width:0.5;" width="98" x="1031" y="540.6953"/><text fill="#000000" font-family="sans-serif" font-size="14" lengthAdjust="spacing" textLength="84" x="1038" y="562.8027">SharedBoard</text><rect fill="#FFFFFF" height="415.7832" style="stroke:#181818;stroke-width:1.0;" width="10" x="288.5" y="116.9121"/><rect fill="#FFFFFF" height="219.0371" style="stroke:#181818;stroke-width:1.0;" width="10" x="472.5" y="210.7852"/><polygon fill="#181818" points="276.5,112.9121,286.5,116.9121,276.5,120.9121,280.5,116.9121" style="stroke:#181818;stroke-width:1.0;"/><line style="stroke:#181818;stroke-width:1.0;" x1="22.5" x2="282.5" y1="116.9121" y2="116.9121"/><text fill="#000000" font-family="sans-serif" font-size="13" font-weight="bold" lengthAdjust="spacing" textLength="7" x="29.5" y="111.6494">1</text><text fill="#000000" font-family="sans-serif" font-size="13" lengthAdjust="spacing" textLength="236" x="40.5" y="111.6494">Select the option to create Shared Board</text><polygon fill="#181818" points="33.5,144.2031,23.5,148.2031,33.5,152.2031,29.5,148.2031" style="stroke:#181818;stroke-width:1.0;"/><line style="stroke:#181818;stroke-width:1.0;stroke-dasharray:2.0,2.0;" x1="27.5" x2="287.5" y1="148.2031" y2="148.2031"/><text fill="#000000" font-family="sans-serif" font-size="13" font-weight="bold" lengthAdjust="spacing" textLength="7" x="39.5" y="142.9404">2</text><text fill="#000000" font-family="sans-serif" font-size="13" lengthAdjust="spacing" textLength="84" x="50.5" y="142.9404">Requests data</text><polygon fill="#181818" points="276.5,175.4941,286.5,179.4941,276.5,183.4941,280.5,179.4941" style="stroke:#181818;stroke-width:1.0;"/><line style="stroke:#181818;stroke-width:1.0;" x1="22.5" x2="282.5" y1="179.4941" y2="179.4941"/><text fill="#000000" font-family="sans-serif" font-size="13" font-weight="bold" lengthAdjust="spacing" textLength="7" x="29.5" y="174.2314">3</text><text fill="#000000" font-family="sans-serif" font-size="13" lengthAdjust="spacing" textLength="148" x="40.5" y="174.2314">Answer the resquest data</text><polygon fill="#181818" points="460.5,206.7852,470.5,210.7852,460.5,214.7852,464.5,210.7852" style="stroke:#181818;stroke-width:1.0;"/><line style="stroke:#181818;stroke-width:1.0;" x1="298.5" x2="466.5" y1="210.7852" y2="210.7852"/><text fill="#000000" font-family="sans-serif" font-size="13" font-weight="bold" lengthAdjust="spacing" textLength="7" x="305.5" y="205.5225">4</text><text fill="#000000" font-family="sans-serif" font-size="13" lengthAdjust="spacing" textLength="44" x="316.5" y="205.5225">create()</text><polygon fill="#181818" points="460.5,238.0762,470.5,242.0762,460.5,246.0762,464.5,242.0762" style="stroke:#181818;stroke-width:1.0;"/><line style="stroke:#181818;stroke-width:1.0;" x1="298.5" x2="466.5" y1="242.0762" y2="242.0762"/><text fill="#000000" font-family="sans-serif" font-size="13" font-weight="bold" lengthAdjust="spacing" textLength="7" x="305.5" y="236.8135">5</text><text fill="#000000" font-family="sans-serif" font-size="13" lengthAdjust="spacing" textLength="119" x="316.5" y="236.8135">createSharedBoard()</text><polygon fill="#181818" points="641,269.3672,651,273.3672,641,277.3672,645,273.3672" style="stroke:#181818;stroke-width:1.0;"/><line style="stroke:#181818;stroke-width:1.0;" x1="482.5" x2="647" y1="273.3672" y2="273.3672"/><text fill="#000000" font-family="sans-serif" font-size="13" font-weight="bold" lengthAdjust="spacing" textLength="7" x="489.5" y="268.1045">6</text><text fill="#000000" font-family="sans-serif" font-size="13" lengthAdjust="spacing" textLength="75" x="500.5" y="268.1045">repositories()</text><polygon fill="#181818" points="780,300.6582,790,304.6582,780,308.6582,784,304.6582" style="stroke:#181818;stroke-width:1.0;"/><line style="stroke:#181818;stroke-width:1.0;" x1="653" x2="786" y1="304.6582" y2="304.6582"/><text fill="#000000" font-family="sans-serif" font-size="13" font-weight="bold" lengthAdjust="spacing" textLength="7" x="660" y="299.3955">7</text><text fill="#000000" font-family="sans-serif" font-size="13" lengthAdjust="spacing" textLength="44" x="671" y="299.3955">create()</text><polygon fill="#181818" points="930,331.9492,940,335.9492,930,339.9492,934,335.9492" style="stroke:#181818;stroke-width:1.0;"/><line style="stroke:#181818;stroke-width:1.0;" x1="792" x2="936" y1="335.9492" y2="335.9492"/><text fill="#000000" font-family="sans-serif" font-size="13" font-weight="bold" lengthAdjust="spacing" textLength="7" x="799" y="330.6865">8</text><text fill="#000000" font-family="sans-serif" font-size="13" lengthAdjust="spacing" textLength="44" x="810" y="330.6865">create()</text><polygon fill="#181818" points="1068,363.2402,1078,367.2402,1068,371.2402,1072,367.2402" style="stroke:#181818;stroke-width:1.0;"/><line style="stroke:#181818;stroke-width:1.0;" x1="482.5" x2="1074" y1="367.2402" y2="367.2402"/><text fill="#000000" font-family="sans-serif" font-size="13" font-weight="bold" lengthAdjust="spacing" textLength="7" x="489.5" y="361.9775">9</text><text fill="#000000" font-family="sans-serif" font-size="13" lengthAdjust="spacing" textLength="158" x="500.5" y="361.9775">newSharedBoard = create()</text><polygon fill="#181818" points="930,394.5313,940,398.5313,930,402.5313,934,398.5313" style="stroke:#181818;stroke-width:1.0;"/><line style="stroke:#181818;stroke-width:1.0;" x1="482.5" x2="936" y1="398.5313" y2="398.5313"/><text fill="#000000" font-family="sans-serif" font-size="13" font-weight="bold" lengthAdjust="spacing" textLength="14" x="489.5" y="393.2686">10</text><text fill="#000000" font-family="sans-serif" font-size="13" lengthAdjust="spacing" textLength="132" x="507.5" y="393.2686">save(newSharedBoard)</text><polygon fill="#181818" points="309.5,425.8223,299.5,429.8223,309.5,433.8223,305.5,429.8223" style="stroke:#181818;stroke-width:1.0;"/><line style="stroke:#181818;stroke-width:1.0;stroke-dasharray:2.0,2.0;" x1="303.5" x2="476.5" y1="429.8223" y2="429.8223"/><text fill="#000000" font-family="sans-serif" font-size="13" font-weight="bold" lengthAdjust="spacing" textLength="14" x="315.5" y="424.5596">11</text><text fill="#000000" font-family="sans-serif" font-size="13" lengthAdjust="spacing" textLength="4" x="333.5" y="424.5596">&#160;</text><polygon fill="#181818" points="33.5,457.1133,23.5,461.1133,33.5,465.1133,29.5,461.1133" style="stroke:#181818;stroke-width:1.0;"/><line style="stroke:#181818;stroke-width:1.0;stroke-dasharray:2.0,2.0;" x1="27.5" x2="287.5" y1="461.1133" y2="461.1133"/><text fill="#000000" font-family="sans-serif" font-size="13" font-weight="bold" lengthAdjust="spacing" textLength="14" x="39.5" y="455.8506">12</text><text fill="#000000" font-family="sans-serif" font-size="13" lengthAdjust="spacing" textLength="94" x="57.5" y="455.8506">Request confirm</text><polygon fill="#181818" points="276.5,488.4043,286.5,492.4043,276.5,496.4043,280.5,492.4043" style="stroke:#181818;stroke-width:1.0;"/><line style="stroke:#181818;stroke-width:1.0;" x1="22.5" x2="282.5" y1="492.4043" y2="492.4043"/><text fill="#000000" font-family="sans-serif" font-size="13" font-weight="bold" lengthAdjust="spacing" textLength="14" x="29.5" y="487.1416">13</text><text fill="#000000" font-family="sans-serif" font-size="13" lengthAdjust="spacing" textLength="51" x="47.5" y="487.1416">Confirms</text><polygon fill="#181818" points="33.5,519.6953,23.5,523.6953,33.5,527.6953,29.5,523.6953" style="stroke:#181818;stroke-width:1.0;"/><line style="stroke:#181818;stroke-width:1.0;stroke-dasharray:2.0,2.0;" x1="27.5" x2="287.5" y1="523.6953" y2="523.6953"/><text fill="#000000" font-family="sans-serif" font-size="13" font-weight="bold" lengthAdjust="spacing" textLength="14" x="39.5" y="518.4326">14</text><text fill="#000000" font-family="sans-serif" font-size="13" lengthAdjust="spacing" textLength="193" x="57.5" y="518.4326">Shows info Shared Board created</text><!--SRC=[hLF1JiCm3BtdAtnZ74RlaPW4av2u8QfzGDPwD5ARbDZTsDyJjnDaj7HeubAbyNlFpuvzKp6tfBEihOtZhgdl2jzaXEyTkWANfJLlmJHAcOwzwvejXdWks0VOa9pb2yiLh0CQnhmo0Sj7RqAvUTQGOuq50rS8lcNh7R27eaV208KUAufsBxSJCchY3fOnfQJMy2fMYGbAmsRUpeEZGmoBdO3KqmQMAhpZuEinRJq4wbZgf8tL74MVQbtSpXJuBncIO4ocPXWY-8A1BB4yi0JmWtLiIEl9ndUrI552sh8rXB6zf_lZK__iHpLcY-O8bnJ_9POu-iQh4LNq9g69veKIau06XuVa7-wlKKbDaDdZubpqWjGl4wbAl7umVcu0n27UsT3Cxy1w0D45pRpo1mBhTlviKK-TA_zgN7q2]--></g></svg>