<?xml version="1.0" encoding="us-ascii" standalone="no"?><svg xmlns="http://www.w3.org/2000/svg" xmlns:xlink="http://www.w3.org/1999/xlink" contentStyleType="text/css" height="316px" preserveAspectRatio="none" style="width:306px;height:316px;background:#FFFFFF;" version="1.1" viewBox="0 0 306 316" width="306px" zoomAndPan="magnify"><defs/><g><!--class OpenAndCloseCoursesUI--><g id="elem_OpenAndCloseCoursesUI"><rect codeLine="3" fill="#F1F1F1" height="48" id="OpenAndCloseCoursesUI" rx="2.5" ry="2.5" style="stroke:#181818;stroke-width:0.5;" width="193" x="64" y="7"/><ellipse cx="79" cy="23" fill="#ADD1B2" rx="11" ry="11" style="stroke:#181818;stroke-width:1.0;"/><path d="M81.7656,18.875 Q81.9219,18.6563 82.1094,18.5469 Q82.2969,18.4375 82.5156,18.4375 Q82.8906,18.4375 83.125,18.7031 Q83.3594,18.9531 83.3594,19.5625 L83.3594,21.0156 Q83.3594,21.625 83.125,21.8906 Q82.8906,22.1563 82.5156,22.1563 Q82.1719,22.1563 81.9688,21.9531 Q81.7656,21.7656 81.6563,21.25 Q81.6094,20.8906 81.4219,20.7031 Q81.0938,20.3281 80.4844,20.1094 Q79.875,19.8906 79.25,19.8906 Q78.4844,19.8906 77.8438,20.2188 Q77.2188,20.5469 76.7188,21.2969 Q76.2344,22.0469 76.2344,23.0781 L76.2344,24.1719 Q76.2344,25.4063 77.125,26.2344 Q78.0156,27.0469 79.6094,27.0469 Q80.5469,27.0469 81.2031,26.7969 Q81.5938,26.6406 82.0156,26.2031 Q82.2813,25.9375 82.4219,25.8594 Q82.5781,25.7813 82.7813,25.7813 Q83.1094,25.7813 83.3594,26.0469 Q83.625,26.2969 83.625,26.6406 Q83.625,26.9844 83.2813,27.3906 Q82.7813,27.9688 81.9844,28.2969 Q80.9063,28.75 79.6094,28.75 Q78.0938,28.75 76.8906,28.125 Q75.9063,27.625 75.2188,26.5625 Q74.5313,25.4844 74.5313,24.2031 L74.5313,23.0469 Q74.5313,21.7188 75.1406,20.5781 Q75.7656,19.4219 76.8594,18.8125 Q77.9531,18.1875 79.1875,18.1875 Q79.9219,18.1875 80.5625,18.3594 Q81.2188,18.5156 81.7656,18.875 Z " fill="#000000"/><text fill="#000000" font-family="sans-serif" font-size="14" lengthAdjust="spacing" textLength="161" x="93" y="28.7969">OpenAndCloseCoursesUI</text><line style="stroke:#181818;stroke-width:0.5;" x1="65" x2="256" y1="39" y2="39"/><line style="stroke:#181818;stroke-width:0.5;" x1="65" x2="256" y1="47" y2="47"/></g><!--class OpenAndCloseCoursesController--><g id="elem_OpenAndCloseCoursesController"><rect codeLine="7" fill="#F1F1F1" height="48" id="OpenAndCloseCoursesController" rx="2.5" ry="2.5" style="stroke:#181818;stroke-width:0.5;" width="243" x="39" y="134"/><ellipse cx="54" cy="150" fill="#ADD1B2" rx="11" ry="11" style="stroke:#181818;stroke-width:1.0;"/><path d="M56.7656,145.875 Q56.9219,145.6563 57.1094,145.5469 Q57.2969,145.4375 57.5156,145.4375 Q57.8906,145.4375 58.125,145.7031 Q58.3594,145.9531 58.3594,146.5625 L58.3594,148.0156 Q58.3594,148.625 58.125,148.8906 Q57.8906,149.1563 57.5156,149.1563 Q57.1719,149.1563 56.9688,148.9531 Q56.7656,148.7656 56.6563,148.25 Q56.6094,147.8906 56.4219,147.7031 Q56.0938,147.3281 55.4844,147.1094 Q54.875,146.8906 54.25,146.8906 Q53.4844,146.8906 52.8438,147.2188 Q52.2188,147.5469 51.7188,148.2969 Q51.2344,149.0469 51.2344,150.0781 L51.2344,151.1719 Q51.2344,152.4063 52.125,153.2344 Q53.0156,154.0469 54.6094,154.0469 Q55.5469,154.0469 56.2031,153.7969 Q56.5938,153.6406 57.0156,153.2031 Q57.2813,152.9375 57.4219,152.8594 Q57.5781,152.7813 57.7813,152.7813 Q58.1094,152.7813 58.3594,153.0469 Q58.625,153.2969 58.625,153.6406 Q58.625,153.9844 58.2813,154.3906 Q57.7813,154.9688 56.9844,155.2969 Q55.9063,155.75 54.6094,155.75 Q53.0938,155.75 51.8906,155.125 Q50.9063,154.625 50.2188,153.5625 Q49.5313,152.4844 49.5313,151.2031 L49.5313,150.0469 Q49.5313,148.7188 50.1406,147.5781 Q50.7656,146.4219 51.8594,145.8125 Q52.9531,145.1875 54.1875,145.1875 Q54.9219,145.1875 55.5625,145.3594 Q56.2188,145.5156 56.7656,145.875 Z " fill="#000000"/><text fill="#000000" font-family="sans-serif" font-size="14" lengthAdjust="spacing" textLength="211" x="68" y="155.7969">OpenAndCloseCoursesController</text><line style="stroke:#181818;stroke-width:0.5;" x1="40" x2="281" y1="166" y2="166"/><line style="stroke:#181818;stroke-width:0.5;" x1="40" x2="281" y1="174" y2="174"/></g><!--class CoursesRepository--><g id="elem_CoursesRepository"><rect codeLine="11" fill="#F1F1F1" height="48" id="CoursesRepository" rx="2.5" ry="2.5" style="stroke:#181818;stroke-width:0.5;" width="153" x="7" y="261"/><ellipse cx="22" cy="277" fill="#ADD1B2" rx="11" ry="11" style="stroke:#181818;stroke-width:1.0;"/><path d="M24.7656,272.875 Q24.9219,272.6563 25.1094,272.5469 Q25.2969,272.4375 25.5156,272.4375 Q25.8906,272.4375 26.125,272.7031 Q26.3594,272.9531 26.3594,273.5625 L26.3594,275.0156 Q26.3594,275.625 26.125,275.8906 Q25.8906,276.1563 25.5156,276.1563 Q25.1719,276.1563 24.9688,275.9531 Q24.7656,275.7656 24.6563,275.25 Q24.6094,274.8906 24.4219,274.7031 Q24.0938,274.3281 23.4844,274.1094 Q22.875,273.8906 22.25,273.8906 Q21.4844,273.8906 20.8438,274.2188 Q20.2188,274.5469 19.7188,275.2969 Q19.2344,276.0469 19.2344,277.0781 L19.2344,278.1719 Q19.2344,279.4063 20.125,280.2344 Q21.0156,281.0469 22.6094,281.0469 Q23.5469,281.0469 24.2031,280.7969 Q24.5938,280.6406 25.0156,280.2031 Q25.2813,279.9375 25.4219,279.8594 Q25.5781,279.7813 25.7813,279.7813 Q26.1094,279.7813 26.3594,280.0469 Q26.625,280.2969 26.625,280.6406 Q26.625,280.9844 26.2813,281.3906 Q25.7813,281.9688 24.9844,282.2969 Q23.9063,282.75 22.6094,282.75 Q21.0938,282.75 19.8906,282.125 Q18.9063,281.625 18.2188,280.5625 Q17.5313,279.4844 17.5313,278.2031 L17.5313,277.0469 Q17.5313,275.7188 18.1406,274.5781 Q18.7656,273.4219 19.8594,272.8125 Q20.9531,272.1875 22.1875,272.1875 Q22.9219,272.1875 23.5625,272.3594 Q24.2188,272.5156 24.7656,272.875 Z " fill="#000000"/><text fill="#000000" font-family="sans-serif" font-size="14" lengthAdjust="spacing" textLength="121" x="36" y="282.7969">CoursesRepository</text><line style="stroke:#181818;stroke-width:0.5;" x1="8" x2="159" y1="293" y2="293"/><line style="stroke:#181818;stroke-width:0.5;" x1="8" x2="159" y1="301" y2="301"/></g><!--class Courses--><g id="elem_Courses"><rect codeLine="15" fill="#F1F1F1" height="48" id="Courses" rx="2.5" ry="2.5" style="stroke:#181818;stroke-width:0.5;" width="85" x="195" y="261"/><ellipse cx="210" cy="277" fill="#ADD1B2" rx="11" ry="11" style="stroke:#181818;stroke-width:1.0;"/><path d="M212.7656,272.875 Q212.9219,272.6563 213.1094,272.5469 Q213.2969,272.4375 213.5156,272.4375 Q213.8906,272.4375 214.125,272.7031 Q214.3594,272.9531 214.3594,273.5625 L214.3594,275.0156 Q214.3594,275.625 214.125,275.8906 Q213.8906,276.1563 213.5156,276.1563 Q213.1719,276.1563 212.9688,275.9531 Q212.7656,275.7656 212.6563,275.25 Q212.6094,274.8906 212.4219,274.7031 Q212.0938,274.3281 211.4844,274.1094 Q210.875,273.8906 210.25,273.8906 Q209.4844,273.8906 208.8438,274.2188 Q208.2188,274.5469 207.7188,275.2969 Q207.2344,276.0469 207.2344,277.0781 L207.2344,278.1719 Q207.2344,279.4063 208.125,280.2344 Q209.0156,281.0469 210.6094,281.0469 Q211.5469,281.0469 212.2031,280.7969 Q212.5938,280.6406 213.0156,280.2031 Q213.2813,279.9375 213.4219,279.8594 Q213.5781,279.7813 213.7813,279.7813 Q214.1094,279.7813 214.3594,280.0469 Q214.625,280.2969 214.625,280.6406 Q214.625,280.9844 214.2813,281.3906 Q213.7813,281.9688 212.9844,282.2969 Q211.9063,282.75 210.6094,282.75 Q209.0938,282.75 207.8906,282.125 Q206.9063,281.625 206.2188,280.5625 Q205.5313,279.4844 205.5313,278.2031 L205.5313,277.0469 Q205.5313,275.7188 206.1406,274.5781 Q206.7656,273.4219 207.8594,272.8125 Q208.9531,272.1875 210.1875,272.1875 Q210.9219,272.1875 211.5625,272.3594 Q212.2188,272.5156 212.7656,272.875 Z " fill="#000000"/><text fill="#000000" font-family="sans-serif" font-size="14" lengthAdjust="spacing" textLength="53" x="224" y="282.7969">Courses</text><line style="stroke:#181818;stroke-width:0.5;" x1="196" x2="279" y1="293" y2="293"/><line style="stroke:#181818;stroke-width:0.5;" x1="196" x2="279" y1="301" y2="301"/></g><!--link OpenAndCloseCoursesUI to OpenAndCloseCoursesController--><g id="link_OpenAndCloseCoursesUI_OpenAndCloseCoursesController"><path codeLine="19" d="M160.5,55.22 C160.5,76 160.5,106.54 160.5,128.74 " fill="none" id="OpenAndCloseCoursesUI-to-OpenAndCloseCoursesController" style="stroke:#181818;stroke-width:1.0;"/><polygon fill="#181818" points="160.5,133.91,164.5,124.91,160.5,128.91,156.5,124.91,160.5,133.91" style="stroke:#181818;stroke-width:1.0;"/><text fill="#000000" font-family="sans-serif" font-size="13" lengthAdjust="spacing" textLength="107" x="161.5" y="100.0283">uses the controller</text></g><!--link OpenAndCloseCoursesController to CoursesRepository--><g id="link_OpenAndCloseCoursesController_CoursesRepository"><path codeLine="20" d="M110.28,182.05 C98.78,189.84 88.03,199.76 81.5,212 C74.42,225.27 74.44,241.95 76.44,255.92 " fill="none" id="OpenAndCloseCoursesController-to-CoursesRepository" style="stroke:#181818;stroke-width:1.0;"/><polygon fill="#181818" points="77.26,260.93,79.7707,251.4065,76.4611,255.9942,71.8734,252.6847,77.26,260.93" style="stroke:#181818;stroke-width:1.0;"/><text fill="#000000" font-family="sans-serif" font-size="13" lengthAdjust="spacing" textLength="111" x="82.5" y="227.0283">uses the repository</text></g><!--link OpenAndCloseCoursesController to Courses--><g id="link_OpenAndCloseCoursesController_Courses"><path codeLine="21" d="M177.98,182.05 C184.67,191.2 192.19,201.92 198.5,212 C207.44,226.29 216.47,242.79 223.58,256.39 " fill="none" id="OpenAndCloseCoursesController-to-Courses" style="stroke:#181818;stroke-width:1.0;"/><polygon fill="#181818" points="225.92,260.88,225.3346,251.0486,223.6213,256.4397,218.2302,254.7264,225.92,260.88" style="stroke:#181818;stroke-width:1.0;"/><text fill="#000000" font-family="sans-serif" font-size="13" lengthAdjust="spacing" textLength="89" x="209.5" y="227.0283">changes status</text></g><!--SRC=[ZOvD2i8m48NtSuhiNCNiin2aArU2u0526ff2cWap4wI8TxTAAOgbk7m_VE_jeaXXQqn9BaiTqjxZO7nopBhjNKTk07XBTIuX7tFR9EJGO2KEV3qfTGTuR5GQp4AOKg2lvfnUGa7k1MbSIsTlVLYtUClwiBrfLNrn90Rb5nEsR-e9-dFl0qIB-J_8AXzTxYO2YvFA04y0]--></g></svg>