<?xml version="1.0" encoding="us-ascii" standalone="no"?><svg xmlns="http://www.w3.org/2000/svg" xmlns:xlink="http://www.w3.org/1999/xlink" contentStyleType="text/css" height="443px" preserveAspectRatio="none" style="width:435px;height:443px;background:#FFFFFF;" version="1.1" viewBox="0 0 435 443" width="435px" zoomAndPan="magnify"><defs/><g><!--class UpdateCourseStateUI--><g id="elem_UpdateCourseStateUI"><rect codeLine="3" fill="#F1F1F1" height="48" id="UpdateCourseStateUI" rx="2.5" ry="2.5" style="stroke:#181818;stroke-width:0.5;" width="168" x="126.5" y="7"/><ellipse cx="141.5" cy="23" fill="#ADD1B2" rx="11" ry="11" style="stroke:#181818;stroke-width:1.0;"/><path d="M144.2656,18.875 Q144.4219,18.6563 144.6094,18.5469 Q144.7969,18.4375 145.0156,18.4375 Q145.3906,18.4375 145.625,18.7031 Q145.8594,18.9531 145.8594,19.5625 L145.8594,21.0156 Q145.8594,21.625 145.625,21.8906 Q145.3906,22.1563 145.0156,22.1563 Q144.6719,22.1563 144.4688,21.9531 Q144.2656,21.7656 144.1563,21.25 Q144.1094,20.8906 143.9219,20.7031 Q143.5938,20.3281 142.9844,20.1094 Q142.375,19.8906 141.75,19.8906 Q140.9844,19.8906 140.3438,20.2188 Q139.7188,20.5469 139.2188,21.2969 Q138.7344,22.0469 138.7344,23.0781 L138.7344,24.1719 Q138.7344,25.4063 139.625,26.2344 Q140.5156,27.0469 142.1094,27.0469 Q143.0469,27.0469 143.7031,26.7969 Q144.0938,26.6406 144.5156,26.2031 Q144.7813,25.9375 144.9219,25.8594 Q145.0781,25.7813 145.2813,25.7813 Q145.6094,25.7813 145.8594,26.0469 Q146.125,26.2969 146.125,26.6406 Q146.125,26.9844 145.7813,27.3906 Q145.2813,27.9688 144.4844,28.2969 Q143.4063,28.75 142.1094,28.75 Q140.5938,28.75 139.3906,28.125 Q138.4063,27.625 137.7188,26.5625 Q137.0313,25.4844 137.0313,24.2031 L137.0313,23.0469 Q137.0313,21.7188 137.6406,20.5781 Q138.2656,19.4219 139.3594,18.8125 Q140.4531,18.1875 141.6875,18.1875 Q142.4219,18.1875 143.0625,18.3594 Q143.7188,18.5156 144.2656,18.875 Z " fill="#000000"/><text fill="#000000" font-family="sans-serif" font-size="14" lengthAdjust="spacing" textLength="136" x="155.5" y="28.7969">UpdateCourseStateUI</text><line style="stroke:#181818;stroke-width:0.5;" x1="127.5" x2="293.5" y1="39" y2="39"/><line style="stroke:#181818;stroke-width:0.5;" x1="127.5" x2="293.5" y1="47" y2="47"/></g><!--class UpdateCourseStateController--><g id="elem_UpdateCourseStateController"><rect codeLine="7" fill="#F1F1F1" height="48" id="UpdateCourseStateController" rx="2.5" ry="2.5" style="stroke:#181818;stroke-width:0.5;" width="218" x="101.5" y="134"/><ellipse cx="116.5" cy="150" fill="#ADD1B2" rx="11" ry="11" style="stroke:#181818;stroke-width:1.0;"/><path d="M119.2656,145.875 Q119.4219,145.6563 119.6094,145.5469 Q119.7969,145.4375 120.0156,145.4375 Q120.3906,145.4375 120.625,145.7031 Q120.8594,145.9531 120.8594,146.5625 L120.8594,148.0156 Q120.8594,148.625 120.625,148.8906 Q120.3906,149.1563 120.0156,149.1563 Q119.6719,149.1563 119.4688,148.9531 Q119.2656,148.7656 119.1563,148.25 Q119.1094,147.8906 118.9219,147.7031 Q118.5938,147.3281 117.9844,147.1094 Q117.375,146.8906 116.75,146.8906 Q115.9844,146.8906 115.3438,147.2188 Q114.7188,147.5469 114.2188,148.2969 Q113.7344,149.0469 113.7344,150.0781 L113.7344,151.1719 Q113.7344,152.4063 114.625,153.2344 Q115.5156,154.0469 117.1094,154.0469 Q118.0469,154.0469 118.7031,153.7969 Q119.0938,153.6406 119.5156,153.2031 Q119.7813,152.9375 119.9219,152.8594 Q120.0781,152.7813 120.2813,152.7813 Q120.6094,152.7813 120.8594,153.0469 Q121.125,153.2969 121.125,153.6406 Q121.125,153.9844 120.7813,154.3906 Q120.2813,154.9688 119.4844,155.2969 Q118.4063,155.75 117.1094,155.75 Q115.5938,155.75 114.3906,155.125 Q113.4063,154.625 112.7188,153.5625 Q112.0313,152.4844 112.0313,151.2031 L112.0313,150.0469 Q112.0313,148.7188 112.6406,147.5781 Q113.2656,146.4219 114.3594,145.8125 Q115.4531,145.1875 116.6875,145.1875 Q117.4219,145.1875 118.0625,145.3594 Q118.7188,145.5156 119.2656,145.875 Z " fill="#000000"/><text fill="#000000" font-family="sans-serif" font-size="14" lengthAdjust="spacing" textLength="186" x="130.5" y="155.7969">UpdateCourseStateController</text><line style="stroke:#181818;stroke-width:0.5;" x1="102.5" x2="318.5" y1="166" y2="166"/><line style="stroke:#181818;stroke-width:0.5;" x1="102.5" x2="318.5" y1="174" y2="174"/></g><!--class UpdateCourseStateService--><g id="elem_UpdateCourseStateService"><rect codeLine="11" fill="#F1F1F1" height="48" id="UpdateCourseStateService" rx="2.5" ry="2.5" style="stroke:#181818;stroke-width:0.5;" width="203" x="109" y="261"/><ellipse cx="124" cy="277" fill="#ADD1B2" rx="11" ry="11" style="stroke:#181818;stroke-width:1.0;"/><path d="M126.7656,272.875 Q126.9219,272.6563 127.1094,272.5469 Q127.2969,272.4375 127.5156,272.4375 Q127.8906,272.4375 128.125,272.7031 Q128.3594,272.9531 128.3594,273.5625 L128.3594,275.0156 Q128.3594,275.625 128.125,275.8906 Q127.8906,276.1563 127.5156,276.1563 Q127.1719,276.1563 126.9688,275.9531 Q126.7656,275.7656 126.6563,275.25 Q126.6094,274.8906 126.4219,274.7031 Q126.0938,274.3281 125.4844,274.1094 Q124.875,273.8906 124.25,273.8906 Q123.4844,273.8906 122.8438,274.2188 Q122.2188,274.5469 121.7188,275.2969 Q121.2344,276.0469 121.2344,277.0781 L121.2344,278.1719 Q121.2344,279.4063 122.125,280.2344 Q123.0156,281.0469 124.6094,281.0469 Q125.5469,281.0469 126.2031,280.7969 Q126.5938,280.6406 127.0156,280.2031 Q127.2813,279.9375 127.4219,279.8594 Q127.5781,279.7813 127.7813,279.7813 Q128.1094,279.7813 128.3594,280.0469 Q128.625,280.2969 128.625,280.6406 Q128.625,280.9844 128.2813,281.3906 Q127.7813,281.9688 126.9844,282.2969 Q125.9063,282.75 124.6094,282.75 Q123.0938,282.75 121.8906,282.125 Q120.9063,281.625 120.2188,280.5625 Q119.5313,279.4844 119.5313,278.2031 L119.5313,277.0469 Q119.5313,275.7188 120.1406,274.5781 Q120.7656,273.4219 121.8594,272.8125 Q122.9531,272.1875 124.1875,272.1875 Q124.9219,272.1875 125.5625,272.3594 Q126.2188,272.5156 126.7656,272.875 Z " fill="#000000"/><text fill="#000000" font-family="sans-serif" font-size="14" lengthAdjust="spacing" textLength="171" x="138" y="282.7969">UpdateCourseStateService</text><line style="stroke:#181818;stroke-width:0.5;" x1="110" x2="311" y1="293" y2="293"/><line style="stroke:#181818;stroke-width:0.5;" x1="110" x2="311" y1="301" y2="301"/></g><!--class CoursesRepository--><g id="elem_CoursesRepository"><rect codeLine="14" fill="#F1F1F1" height="48" id="CoursesRepository" rx="2.5" ry="2.5" style="stroke:#181818;stroke-width:0.5;" width="153" x="7" y="388"/><ellipse cx="22" cy="404" fill="#ADD1B2" rx="11" ry="11" style="stroke:#181818;stroke-width:1.0;"/><path d="M24.7656,399.875 Q24.9219,399.6563 25.1094,399.5469 Q25.2969,399.4375 25.5156,399.4375 Q25.8906,399.4375 26.125,399.7031 Q26.3594,399.9531 26.3594,400.5625 L26.3594,402.0156 Q26.3594,402.625 26.125,402.8906 Q25.8906,403.1563 25.5156,403.1563 Q25.1719,403.1563 24.9688,402.9531 Q24.7656,402.7656 24.6563,402.25 Q24.6094,401.8906 24.4219,401.7031 Q24.0938,401.3281 23.4844,401.1094 Q22.875,400.8906 22.25,400.8906 Q21.4844,400.8906 20.8438,401.2188 Q20.2188,401.5469 19.7188,402.2969 Q19.2344,403.0469 19.2344,404.0781 L19.2344,405.1719 Q19.2344,406.4063 20.125,407.2344 Q21.0156,408.0469 22.6094,408.0469 Q23.5469,408.0469 24.2031,407.7969 Q24.5938,407.6406 25.0156,407.2031 Q25.2813,406.9375 25.4219,406.8594 Q25.5781,406.7813 25.7813,406.7813 Q26.1094,406.7813 26.3594,407.0469 Q26.625,407.2969 26.625,407.6406 Q26.625,407.9844 26.2813,408.3906 Q25.7813,408.9688 24.9844,409.2969 Q23.9063,409.75 22.6094,409.75 Q21.0938,409.75 19.8906,409.125 Q18.9063,408.625 18.2188,407.5625 Q17.5313,406.4844 17.5313,405.2031 L17.5313,404.0469 Q17.5313,402.7188 18.1406,401.5781 Q18.7656,400.4219 19.8594,399.8125 Q20.9531,399.1875 22.1875,399.1875 Q22.9219,399.1875 23.5625,399.3594 Q24.2188,399.5156 24.7656,399.875 Z " fill="#000000"/><text fill="#000000" font-family="sans-serif" font-size="14" lengthAdjust="spacing" textLength="121" x="36" y="409.7969">CoursesRepository</text><line style="stroke:#181818;stroke-width:0.5;" x1="8" x2="159" y1="420" y2="420"/><line style="stroke:#181818;stroke-width:0.5;" x1="8" x2="159" y1="428" y2="428"/></g><!--class Course--><g id="elem_Course"><rect codeLine="18" fill="#F1F1F1" height="48" id="Course" rx="2.5" ry="2.5" style="stroke:#181818;stroke-width:0.5;" width="78" x="298.5" y="388"/><ellipse cx="313.5" cy="404" fill="#ADD1B2" rx="11" ry="11" style="stroke:#181818;stroke-width:1.0;"/><path d="M316.2656,399.875 Q316.4219,399.6563 316.6094,399.5469 Q316.7969,399.4375 317.0156,399.4375 Q317.3906,399.4375 317.625,399.7031 Q317.8594,399.9531 317.8594,400.5625 L317.8594,402.0156 Q317.8594,402.625 317.625,402.8906 Q317.3906,403.1563 317.0156,403.1563 Q316.6719,403.1563 316.4688,402.9531 Q316.2656,402.7656 316.1563,402.25 Q316.1094,401.8906 315.9219,401.7031 Q315.5938,401.3281 314.9844,401.1094 Q314.375,400.8906 313.75,400.8906 Q312.9844,400.8906 312.3438,401.2188 Q311.7188,401.5469 311.2188,402.2969 Q310.7344,403.0469 310.7344,404.0781 L310.7344,405.1719 Q310.7344,406.4063 311.625,407.2344 Q312.5156,408.0469 314.1094,408.0469 Q315.0469,408.0469 315.7031,407.7969 Q316.0938,407.6406 316.5156,407.2031 Q316.7813,406.9375 316.9219,406.8594 Q317.0781,406.7813 317.2813,406.7813 Q317.6094,406.7813 317.8594,407.0469 Q318.125,407.2969 318.125,407.6406 Q318.125,407.9844 317.7813,408.3906 Q317.2813,408.9688 316.4844,409.2969 Q315.4063,409.75 314.1094,409.75 Q312.5938,409.75 311.3906,409.125 Q310.4063,408.625 309.7188,407.5625 Q309.0313,406.4844 309.0313,405.2031 L309.0313,404.0469 Q309.0313,402.7188 309.6406,401.5781 Q310.2656,400.4219 311.3594,399.8125 Q312.4531,399.1875 313.6875,399.1875 Q314.4219,399.1875 315.0625,399.3594 Q315.7188,399.5156 316.2656,399.875 Z " fill="#000000"/><text fill="#000000" font-family="sans-serif" font-size="14" lengthAdjust="spacing" textLength="46" x="327.5" y="409.7969">Course</text><line style="stroke:#181818;stroke-width:0.5;" x1="299.5" x2="375.5" y1="420" y2="420"/><line style="stroke:#181818;stroke-width:0.5;" x1="299.5" x2="375.5" y1="428" y2="428"/></g><!--link UpdateCourseStateUI to UpdateCourseStateController--><g id="link_UpdateCourseStateUI_UpdateCourseStateController"><path codeLine="22" d="M210.5,55.22 C210.5,76 210.5,106.54 210.5,128.74 " fill="none" id="UpdateCourseStateUI-to-UpdateCourseStateController" style="stroke:#181818;stroke-width:1.0;"/><polygon fill="#181818" points="210.5,133.91,214.5,124.91,210.5,128.91,206.5,124.91,210.5,133.91" style="stroke:#181818;stroke-width:1.0;"/><text fill="#000000" font-family="sans-serif" font-size="13" lengthAdjust="spacing" textLength="107" x="211.5" y="100.0283">uses the controller</text></g><!--link UpdateCourseStateController to UpdateCourseStateService--><g id="link_UpdateCourseStateController_UpdateCourseStateService"><path codeLine="23" d="M210.5,182.22 C210.5,203 210.5,233.54 210.5,255.74 " fill="none" id="UpdateCourseStateController-to-UpdateCourseStateService" style="stroke:#181818;stroke-width:1.0;"/><polygon fill="#181818" points="210.5,260.91,214.5,251.91,210.5,255.91,206.5,251.91,210.5,260.91" style="stroke:#181818;stroke-width:1.0;"/><text fill="#000000" font-family="sans-serif" font-size="13" lengthAdjust="spacing" textLength="94" x="211.5" y="227.0283">uses the service</text></g><!--link UpdateCourseStateService to CoursesRepository--><g id="link_UpdateCourseStateService_CoursesRepository"><path codeLine="24" d="M115.17,309.05 C101.48,316.42 89.13,326.16 80.5,339 C72.05,351.58 72.26,368.37 74.84,382.58 " fill="none" id="UpdateCourseStateService-to-CoursesRepository" style="stroke:#181818;stroke-width:1.0;"/><polygon fill="#181818" points="75.88,387.68,77.9996,378.0619,74.8802,382.781,70.1611,379.6616,75.88,387.68" style="stroke:#181818;stroke-width:1.0;"/><text fill="#000000" font-family="sans-serif" font-size="13" lengthAdjust="spacing" textLength="212" x="81.5" y="354.0283">uses the repository to persiste in DB</text></g><!--link UpdateCourseStateService to Course--><g id="link_UpdateCourseStateService_Course"><path codeLine="25" d="M259.07,309.05 C272.93,317.18 287.29,327.26 298.5,339 C310.59,351.65 320.07,368.78 326.65,383.16 " fill="none" id="UpdateCourseStateService-to-Course" style="stroke:#181818;stroke-width:1.0;"/><polygon fill="#181818" points="328.77,387.92,328.75,378.0712,326.73,383.3551,321.4461,381.3351,328.77,387.92" style="stroke:#181818;stroke-width:1.0;"/><text fill="#000000" font-family="sans-serif" font-size="13" lengthAdjust="spacing" textLength="115" x="312.5" y="354.0283">update CourseState</text></g><!--SRC=[ZO-n3e8m48RtFiLjJfNTmK5SN2KyG5CkqgIqJU_G6EExMu4WHY1klRilN_z_KpC7scLPiCfnszYjzaschIAIbL6Ng1eXkX7AK2d6tBUHiE3qB4y03o6UYq3k7KTlBSPrhi1uDHeJD3BzbSuOF1dsyVvbwA_3QYwNhFpDoVrQf1sqwGFW6a6FIx7MGSu9X-mJ6_KRiLZpxVdfDn74Jsds432I8KOm3ew7Vwn9rK4meOHu0G00]--></g></svg>