<?xml version="1.0" encoding="us-ascii" standalone="no"?><svg xmlns="http://www.w3.org/2000/svg" xmlns:xlink="http://www.w3.org/1999/xlink" contentStyleType="text/css" height="687px" preserveAspectRatio="none" style="width:1150px;height:687px;background:#FFFFFF;" version="1.1" viewBox="0 0 1150 687" width="1150px" zoomAndPan="magnify"><defs/><g><rect fill="#FFFFFF" height="478.3652" style="stroke:#181818;stroke-width:1.0;" width="10" x="333" y="116.9121"/><rect fill="#FFFFFF" height="344.2012" style="stroke:#181818;stroke-width:1.0;" width="10" x="539" y="148.2031"/><rect fill="#FFFFFF" height="31.291" style="stroke:#181818;stroke-width:1.0;" width="10" x="721" y="179.4941"/><rect fill="#FFFFFF" height="31.291" style="stroke:#181818;stroke-width:1.0;" width="10" x="862.5" y="335.9492"/><rect fill="#FFFFFF" height="31.291" style="stroke:#181818;stroke-width:1.0;" width="10" x="1001.5" y="367.2402"/><line style="stroke:#181818;stroke-width:0.5;stroke-dasharray:5.0,5.0;" x1="36" x2="36" y1="83.6211" y2="604.2773"/><line style="stroke:#181818;stroke-width:0.5;stroke-dasharray:5.0,5.0;" x1="337.5" x2="337.5" y1="83.6211" y2="604.2773"/><line style="stroke:#181818;stroke-width:0.5;stroke-dasharray:5.0,5.0;" x1="543.5" x2="543.5" y1="83.6211" y2="604.2773"/><line style="stroke:#181818;stroke-width:0.5;stroke-dasharray:5.0,5.0;" x1="725.5" x2="725.5" y1="83.6211" y2="604.2773"/><line style="stroke:#181818;stroke-width:0.5;stroke-dasharray:5.0,5.0;" x1="867.5" x2="867.5" y1="83.6211" y2="604.2773"/><line style="stroke:#181818;stroke-width:0.5;stroke-dasharray:5.0,5.0;" x1="1006.5" x2="1006.5" y1="83.6211" y2="604.2773"/><line style="stroke:#181818;stroke-width:0.5;stroke-dasharray:5.0,5.0;" x1="1110.5" x2="1110.5" y1="83.6211" y2="604.2773"/><text fill="#000000" font-family="sans-serif" font-size="14" lengthAdjust="spacing" textLength="56" x="5" y="80.1074">Manager</text><ellipse cx="36" cy="13.5" fill="#E2E2F0" rx="8" ry="8" style="stroke:#181818;stroke-width:0.5;"/><path d="M36,21.5 L36,48.5 M23,29.5 L49,29.5 M36,48.5 L23,63.5 M36,48.5 L49,63.5 " fill="none" style="stroke:#181818;stroke-width:0.5;"/><text fill="#000000" font-family="sans-serif" font-size="14" lengthAdjust="spacing" textLength="56" x="5" y="618.3848">Manager</text><ellipse cx="36" cy="630.3984" fill="#E2E2F0" rx="8" ry="8" style="stroke:#181818;stroke-width:0.5;"/><path d="M36,638.3984 L36,665.3984 M23,646.3984 L49,646.3984 M36,665.3984 L23,680.3984 M36,665.3984 L49,680.3984 " fill="none" style="stroke:#181818;stroke-width:0.5;"/><rect fill="#E2E2F0" height="32.6211" rx="2.5" ry="2.5" style="stroke:#181818;stroke-width:0.5;" width="175" x="250.5" y="50"/><text fill="#000000" font-family="sans-serif" font-size="14" lengthAdjust="spacing" textLength="161" x="257.5" y="72.1074">OpenAndCloseCoursesUI</text><rect fill="#E2E2F0" height="32.6211" rx="2.5" ry="2.5" style="stroke:#181818;stroke-width:0.5;" width="175" x="250.5" y="603.2773"/><text fill="#000000" font-family="sans-serif" font-size="14" lengthAdjust="spacing" textLength="161" x="257.5" y="625.3848">OpenAndCloseCoursesUI</text><text fill="#000000" font-family="sans-serif" font-size="14" lengthAdjust="spacing" textLength="211" x="435.5" y="80.1074">OpenAndCloseCoursesController</text><ellipse cx="544" cy="49" fill="#E2E2F0" rx="12" ry="12" style="stroke:#181818;stroke-width:0.5;"/><polygon fill="#181818" points="540,37,546,32,544,37,546,42,540,37" style="stroke:#181818;stroke-width:1.0;"/><text fill="#000000" font-family="sans-serif" font-size="14" lengthAdjust="spacing" textLength="211" x="435.5" y="618.3848">OpenAndCloseCoursesController</text><ellipse cx="544" cy="637.8984" fill="#E2E2F0" rx="12" ry="12" style="stroke:#181818;stroke-width:0.5;"/><polygon fill="#181818" points="540,625.8984,546,620.8984,544,625.8984,546,630.8984,540,625.8984" style="stroke:#181818;stroke-width:1.0;"/><text fill="#000000" font-family="sans-serif" font-size="14" lengthAdjust="spacing" textLength="121" x="662.5" y="80.1074">CoursesRepository</text><path d="M708,29 C708,19 726,19 726,19 C726,19 744,19 744,29 L744,55 C744,65 726,65 726,65 C726,65 708,65 708,55 L708,29 " fill="#E2E2F0" style="stroke:#181818;stroke-width:1.5;"/><path d="M708,29 C708,39 726,39 726,39 C726,39 744,39 744,29 " fill="none" style="stroke:#181818;stroke-width:1.5;"/><text fill="#000000" font-family="sans-serif" font-size="14" lengthAdjust="spacing" textLength="121" x="662.5" y="618.3848">CoursesRepository</text><path d="M708,631.8984 C708,621.8984 726,621.8984 726,621.8984 C726,621.8984 744,621.8984 744,631.8984 L744,657.8984 C744,667.8984 726,667.8984 726,667.8984 C726,667.8984 708,667.8984 708,657.8984 L708,631.8984 " fill="#E2E2F0" style="stroke:#181818;stroke-width:1.5;"/><path d="M708,631.8984 C708,641.8984 726,641.8984 726,641.8984 C726,641.8984 744,641.8984 744,631.8984 " fill="none" style="stroke:#181818;stroke-width:1.5;"/><rect fill="#E2E2F0" height="32.6211" rx="2.5" ry="2.5" style="stroke:#181818;stroke-width:0.5;" width="136" x="799.5" y="50"/><text fill="#000000" font-family="sans-serif" font-size="14" lengthAdjust="spacing" textLength="122" x="806.5" y="72.1074">PersistenceContext</text><rect fill="#E2E2F0" height="32.6211" rx="2.5" ry="2.5" style="stroke:#181818;stroke-width:0.5;" width="136" x="799.5" y="603.2773"/><text fill="#000000" font-family="sans-serif" font-size="14" lengthAdjust="spacing" textLength="122" x="806.5" y="625.3848">PersistenceContext</text><text fill="#000000" font-family="sans-serif" font-size="14" lengthAdjust="spacing" textLength="116" x="945.5" y="80.1074">RepositoryFactory</text><path d="M988.5,29 C988.5,19 1006.5,19 1006.5,19 C1006.5,19 1024.5,19 1024.5,29 L1024.5,55 C1024.5,65 1006.5,65 1006.5,65 C1006.5,65 988.5,65 988.5,55 L988.5,29 " fill="#E2E2F0" style="stroke:#181818;stroke-width:1.5;"/><path d="M988.5,29 C988.5,39 1006.5,39 1006.5,39 C1006.5,39 1024.5,39 1024.5,29 " fill="none" style="stroke:#181818;stroke-width:1.5;"/><text fill="#000000" font-family="sans-serif" font-size="14" lengthAdjust="spacing" textLength="116" x="945.5" y="618.3848">RepositoryFactory</text><path d="M988.5,631.8984 C988.5,621.8984 1006.5,621.8984 1006.5,621.8984 C1006.5,621.8984 1024.5,621.8984 1024.5,631.8984 L1024.5,657.8984 C1024.5,667.8984 1006.5,667.8984 1006.5,667.8984 C1006.5,667.8984 988.5,667.8984 988.5,657.8984 L988.5,631.8984 " fill="#E2E2F0" style="stroke:#181818;stroke-width:1.5;"/><path d="M988.5,631.8984 C988.5,641.8984 1006.5,641.8984 1006.5,641.8984 C1006.5,641.8984 1024.5,641.8984 1024.5,631.8984 " fill="none" style="stroke:#181818;stroke-width:1.5;"/><rect fill="#E2E2F0" height="32.6211" rx="2.5" ry="2.5" style="stroke:#181818;stroke-width:0.5;" width="67" x="1077.5" y="50"/><text fill="#000000" font-family="sans-serif" font-size="14" lengthAdjust="spacing" textLength="53" x="1084.5" y="72.1074">Courses</text><rect fill="#E2E2F0" height="32.6211" rx="2.5" ry="2.5" style="stroke:#181818;stroke-width:0.5;" width="67" x="1077.5" y="603.2773"/><text fill="#000000" font-family="sans-serif" font-size="14" lengthAdjust="spacing" textLength="53" x="1084.5" y="625.3848">Courses</text><rect fill="#FFFFFF" height="478.3652" style="stroke:#181818;stroke-width:1.0;" width="10" x="333" y="116.9121"/><rect fill="#FFFFFF" height="344.2012" style="stroke:#181818;stroke-width:1.0;" width="10" x="539" y="148.2031"/><rect fill="#FFFFFF" height="31.291" style="stroke:#181818;stroke-width:1.0;" width="10" x="721" y="179.4941"/><rect fill="#FFFFFF" height="31.291" style="stroke:#181818;stroke-width:1.0;" width="10" x="862.5" y="335.9492"/><rect fill="#FFFFFF" height="31.291" style="stroke:#181818;stroke-width:1.0;" width="10" x="1001.5" y="367.2402"/><polygon fill="#181818" points="321,112.9121,331,116.9121,321,120.9121,325,116.9121" style="stroke:#181818;stroke-width:1.0;"/><line style="stroke:#181818;stroke-width:1.0;" x1="36" x2="327" y1="116.9121" y2="116.9121"/><text fill="#000000" font-family="sans-serif" font-size="13" font-weight="bold" lengthAdjust="spacing" textLength="7" x="43" y="111.6494">1</text><text fill="#000000" font-family="sans-serif" font-size="13" lengthAdjust="spacing" textLength="267" x="54" y="111.6494">Select the option to open or close the courses</text><polygon fill="#181818" points="527,144.2031,537,148.2031,527,152.2031,531,148.2031" style="stroke:#181818;stroke-width:1.0;"/><line style="stroke:#181818;stroke-width:1.0;" x1="343" x2="533" y1="148.2031" y2="148.2031"/><text fill="#000000" font-family="sans-serif" font-size="13" font-weight="bold" lengthAdjust="spacing" textLength="7" x="350" y="142.9404">2</text><text fill="#000000" font-family="sans-serif" font-size="13" lengthAdjust="spacing" textLength="43" x="361" y="142.9404">findAll()</text><polygon fill="#181818" points="709,175.4941,719,179.4941,709,183.4941,713,179.4941" style="stroke:#181818;stroke-width:1.0;"/><line style="stroke:#181818;stroke-width:1.0;" x1="549" x2="715" y1="179.4941" y2="179.4941"/><text fill="#000000" font-family="sans-serif" font-size="13" font-weight="bold" lengthAdjust="spacing" textLength="7" x="556" y="174.2314">3</text><text fill="#000000" font-family="sans-serif" font-size="13" lengthAdjust="spacing" textLength="43" x="567" y="174.2314">findAll()</text><polygon fill="#181818" points="354,206.7852,344,210.7852,354,214.7852,350,210.7852" style="stroke:#181818;stroke-width:1.0;"/><line style="stroke:#181818;stroke-width:1.0;stroke-dasharray:2.0,2.0;" x1="348" x2="725" y1="210.7852" y2="210.7852"/><text fill="#000000" font-family="sans-serif" font-size="13" font-weight="bold" lengthAdjust="spacing" textLength="7" x="360" y="205.5225">4</text><text fill="#000000" font-family="sans-serif" font-size="13" lengthAdjust="spacing" textLength="38" x="371" y="205.5225">show()</text><polygon fill="#181818" points="47,238.0762,37,242.0762,47,246.0762,43,242.0762" style="stroke:#181818;stroke-width:1.0;"/><line style="stroke:#181818;stroke-width:1.0;stroke-dasharray:2.0,2.0;" x1="41" x2="332" y1="242.0762" y2="242.0762"/><text fill="#000000" font-family="sans-serif" font-size="13" font-weight="bold" lengthAdjust="spacing" textLength="7" x="53" y="236.8135">5</text><text fill="#000000" font-family="sans-serif" font-size="13" lengthAdjust="spacing" textLength="137" x="64" y="236.8135">Show available Courses</text><polygon fill="#181818" points="321,269.3672,331,273.3672,321,277.3672,325,273.3672" style="stroke:#181818;stroke-width:1.0;"/><line style="stroke:#181818;stroke-width:1.0;" x1="36" x2="327" y1="273.3672" y2="273.3672"/><text fill="#000000" font-family="sans-serif" font-size="13" font-weight="bold" lengthAdjust="spacing" textLength="7" x="43" y="268.1045">6</text><text fill="#000000" font-family="sans-serif" font-size="13" lengthAdjust="spacing" textLength="102" x="54" y="268.1045">Select the course</text><polygon fill="#181818" points="527,300.6582,537,304.6582,527,308.6582,531,304.6582" style="stroke:#181818;stroke-width:1.0;"/><line style="stroke:#181818;stroke-width:1.0;" x1="343" x2="533" y1="304.6582" y2="304.6582"/><text fill="#000000" font-family="sans-serif" font-size="13" font-weight="bold" lengthAdjust="spacing" textLength="7" x="350" y="299.3955">7</text><text fill="#000000" font-family="sans-serif" font-size="13" lengthAdjust="spacing" textLength="88" x="361" y="299.3955">updateCourse()</text><polygon fill="#181818" points="850.5,331.9492,860.5,335.9492,850.5,339.9492,854.5,335.9492" style="stroke:#181818;stroke-width:1.0;"/><line style="stroke:#181818;stroke-width:1.0;" x1="549" x2="856.5" y1="335.9492" y2="335.9492"/><text fill="#000000" font-family="sans-serif" font-size="13" font-weight="bold" lengthAdjust="spacing" textLength="7" x="556" y="330.6865">8</text><text fill="#000000" font-family="sans-serif" font-size="13" lengthAdjust="spacing" textLength="75" x="567" y="330.6865">repositories()</text><polygon fill="#181818" points="989.5,363.2402,999.5,367.2402,989.5,371.2402,993.5,367.2402" style="stroke:#181818;stroke-width:1.0;"/><line style="stroke:#181818;stroke-width:1.0;" x1="867.5" x2="995.5" y1="367.2402" y2="367.2402"/><text fill="#000000" font-family="sans-serif" font-size="13" font-weight="bold" lengthAdjust="spacing" textLength="7" x="874.5" y="361.9775">9</text><text fill="#000000" font-family="sans-serif" font-size="13" lengthAdjust="spacing" textLength="47" x="885.5" y="361.9775">update()</text><polygon fill="#181818" points="737,394.5313,727,398.5313,737,402.5313,733,398.5313" style="stroke:#181818;stroke-width:1.0;"/><line style="stroke:#181818;stroke-width:1.0;stroke-dasharray:2.0,2.0;" x1="731" x2="1005.5" y1="398.5313" y2="398.5313"/><text fill="#000000" font-family="sans-serif" font-size="13" font-weight="bold" lengthAdjust="spacing" textLength="14" x="743" y="393.2686">10</text><text fill="#000000" font-family="sans-serif" font-size="13" lengthAdjust="spacing" textLength="47" x="761" y="393.2686">update()</text><polygon fill="#181818" points="1099,425.8223,1109,429.8223,1099,433.8223,1103,429.8223" style="stroke:#181818;stroke-width:1.0;"/><line style="stroke:#181818;stroke-width:1.0;" x1="549" x2="1105" y1="429.8223" y2="429.8223"/><text fill="#000000" font-family="sans-serif" font-size="13" font-weight="bold" lengthAdjust="spacing" textLength="14" x="556" y="424.5596">11</text><text fill="#000000" font-family="sans-serif" font-size="13" lengthAdjust="spacing" textLength="158" x="574" y="424.5596">updateCourses() = update()</text><polygon fill="#181818" points="714,457.1133,724,461.1133,714,465.1133,718,461.1133" style="stroke:#181818;stroke-width:1.0;"/><line style="stroke:#181818;stroke-width:1.0;" x1="549" x2="720" y1="461.1133" y2="461.1133"/><text fill="#000000" font-family="sans-serif" font-size="13" font-weight="bold" lengthAdjust="spacing" textLength="14" x="556" y="455.8506">12</text><text fill="#000000" font-family="sans-serif" font-size="13" lengthAdjust="spacing" textLength="121" x="574" y="455.8506">save(updateCourses)</text><polygon fill="#181818" points="354,488.4043,344,492.4043,354,496.4043,350,492.4043" style="stroke:#181818;stroke-width:1.0;"/><line style="stroke:#181818;stroke-width:1.0;stroke-dasharray:2.0,2.0;" x1="348" x2="543" y1="492.4043" y2="492.4043"/><text fill="#000000" font-family="sans-serif" font-size="13" font-weight="bold" lengthAdjust="spacing" textLength="14" x="360" y="487.1416">13</text><text fill="#000000" font-family="sans-serif" font-size="13" lengthAdjust="spacing" textLength="4" x="378" y="487.1416">&#160;</text><polygon fill="#181818" points="47,519.6953,37,523.6953,47,527.6953,43,523.6953" style="stroke:#181818;stroke-width:1.0;"/><line style="stroke:#181818;stroke-width:1.0;stroke-dasharray:2.0,2.0;" x1="41" x2="332" y1="523.6953" y2="523.6953"/><text fill="#000000" font-family="sans-serif" font-size="13" font-weight="bold" lengthAdjust="spacing" textLength="14" x="53" y="518.4326">14</text><text fill="#000000" font-family="sans-serif" font-size="13" lengthAdjust="spacing" textLength="94" x="71" y="518.4326">Request confirm</text><polygon fill="#181818" points="321,550.9863,331,554.9863,321,558.9863,325,554.9863" style="stroke:#181818;stroke-width:1.0;"/><line style="stroke:#181818;stroke-width:1.0;" x1="36" x2="327" y1="554.9863" y2="554.9863"/><text fill="#000000" font-family="sans-serif" font-size="13" font-weight="bold" lengthAdjust="spacing" textLength="14" x="43" y="549.7236">15</text><text fill="#000000" font-family="sans-serif" font-size="13" lengthAdjust="spacing" textLength="51" x="61" y="549.7236">Confirms</text><polygon fill="#181818" points="47,582.2773,37,586.2773,47,590.2773,43,586.2773" style="stroke:#181818;stroke-width:1.0;"/><line style="stroke:#181818;stroke-width:1.0;stroke-dasharray:2.0,2.0;" x1="41" x2="332" y1="586.2773" y2="586.2773"/><text fill="#000000" font-family="sans-serif" font-size="13" font-weight="bold" lengthAdjust="spacing" textLength="14" x="53" y="581.0146">16</text><text fill="#000000" font-family="sans-serif" font-size="13" lengthAdjust="spacing" textLength="194" x="71" y="581.0146">Shows info about Course updates</text><!--SRC=[dLHDJyCm3BtdL_Z6E8pTAu4qLKBYW413_02tzRP8QL9YTx1_J_gnhLFQCNPBO_lPVkyrTrkHYfF5eZ9efIxDG-xA1TDNJJQdUQ5nux5K2cjnjYupyk6SY_FmYXOtpMT_WFaJl5LabxP8ZMDANUsP-FCbWGyob0l8bi1Lefq5SU545W9EtYItiRohQ1le7GgDuwdSMV7EZ4NJBcJ2NAEr4qEUoX9OQriiZPdTNnnZq4WLA9XXMAAFhQXoh0D7UtMniXacAXaT80QERc0-pJzltNU0A-W2u0HT0RJNDyWOO01tg0rcveZnF_qxZPMwMPww2dJtWR3JdmI_asVDqhYv2T2F9E0FQslY8SrnxadR4rNFhV_tAivk-aLvXv7F1HXfTOp5hQARLfWHxuorYk6kTUKvsu4gU3nrkCNQZ3kQdM7-YJFbgk66Dpq4GsUlclUE9RZJhhKlhx1qscNojVyDWxPh1vYvMdfcUYfP_G80]--></g></svg>