<?xml version="1.0" encoding="us-ascii" standalone="no"?><svg xmlns="http://www.w3.org/2000/svg" xmlns:xlink="http://www.w3.org/1999/xlink" contentStyleType="text/css" height="1106px" preserveAspectRatio="none" style="width:1679px;height:1106px;background:#FFFFFF;" version="1.1" viewBox="0 0 1679 1106" width="1679px" zoomAndPan="magnify"><defs/><g><rect fill="#FFFFFF" height="678.4023" style="stroke:#181818;stroke-width:1.0;" width="10" x="319" y="335.9492"/><rect fill="#FFFFFF" height="606.8203" style="stroke:#181818;stroke-width:1.0;" width="10" x="643" y="367.2402"/><rect fill="#FFFFFF" height="517.9473" style="stroke:#181818;stroke-width:1.0;" width="10" x="942" y="424.8223"/><rect fill="#FFFFFF" height="374.4922" style="stroke:#181818;stroke-width:1.0;" width="10" x="1242" y="536.9863"/><rect fill="#FFFFFF" height="38.291" style="stroke:#181818;stroke-width:1.0;" width="10" x="1349" y="654.1504"/><rect fill="#FFFFFF" height="62.582" style="stroke:#181818;stroke-width:1.0;" width="10" x="1460.5" y="723.7324"/><rect fill="#FFFFFF" height="31.291" style="stroke:#181818;stroke-width:1.0;" width="10" x="1603.5" y="817.6055"/><rect fill="none" height="222.3281" style="stroke:#000000;stroke-width:1.5;" width="734.5" x="663" y="439.8223"/><line style="stroke:#181818;stroke-width:0.5;stroke-dasharray:5.0,5.0;" x1="51" x2="51" y1="83.6211" y2="1023.3516"/><line style="stroke:#181818;stroke-width:0.5;stroke-dasharray:5.0,5.0;" x1="324" x2="324" y1="83.6211" y2="1023.3516"/><line style="stroke:#181818;stroke-width:0.5;stroke-dasharray:5.0,5.0;" x1="473" x2="473" y1="83.6211" y2="1023.3516"/><line style="stroke:#181818;stroke-width:0.5;stroke-dasharray:5.0,5.0;" x1="648" x2="648" y1="83.6211" y2="1023.3516"/><line style="stroke:#181818;stroke-width:0.5;stroke-dasharray:5.0,5.0;" x1="946.5" x2="946.5" y1="83.6211" y2="1023.3516"/><line style="stroke:#181818;stroke-width:0.5;stroke-dasharray:5.0,5.0;" x1="1246.5" x2="1246.5" y1="83.6211" y2="1023.3516"/><line style="stroke:#181818;stroke-width:0.5;stroke-dasharray:5.0,5.0;" x1="1353.5" x2="1353.5" y1="83.6211" y2="1023.3516"/><line style="stroke:#181818;stroke-width:0.5;stroke-dasharray:5.0,5.0;" x1="1465.5" x2="1465.5" y1="83.6211" y2="1023.3516"/><line style="stroke:#181818;stroke-width:0.5;stroke-dasharray:5.0,5.0;" x1="1608.5" x2="1608.5" y1="83.6211" y2="1023.3516"/><text fill="#000000" font-family="sans-serif" font-size="14" lengthAdjust="spacing" textLength="56" x="20" y="80.1074">Manager</text><ellipse cx="51" cy="13.5" fill="#E2E2F0" rx="8" ry="8" style="stroke:#181818;stroke-width:0.5;"/><path d="M51,21.5 L51,48.5 M38,29.5 L64,29.5 M51,48.5 L38,63.5 M51,48.5 L64,63.5 " fill="none" style="stroke:#181818;stroke-width:0.5;"/><text fill="#000000" font-family="sans-serif" font-size="14" lengthAdjust="spacing" textLength="56" x="20" y="1037.459">Manager</text><ellipse cx="51" cy="1049.4727" fill="#E2E2F0" rx="8" ry="8" style="stroke:#181818;stroke-width:0.5;"/><path d="M51,1057.4727 L51,1084.4727 M38,1065.4727 L64,1065.4727 M51,1084.4727 L38,1099.4727 M51,1084.4727 L64,1099.4727 " fill="none" style="stroke:#181818;stroke-width:0.5;"/><rect fill="#E2E2F0" height="32.6211" rx="2.5" ry="2.5" style="stroke:#181818;stroke-width:0.5;" width="150" x="249" y="50"/><text fill="#000000" font-family="sans-serif" font-size="14" lengthAdjust="spacing" textLength="136" x="256" y="72.1074">UpdateCourseStateUI</text><rect fill="#E2E2F0" height="32.6211" rx="2.5" ry="2.5" style="stroke:#181818;stroke-width:0.5;" width="150" x="249" y="1022.3516"/><text fill="#000000" font-family="sans-serif" font-size="14" lengthAdjust="spacing" textLength="136" x="256" y="1044.459">UpdateCourseStateUI</text><rect fill="#E2E2F0" height="32.6211" rx="2.5" ry="2.5" style="stroke:#181818;stroke-width:0.5;" width="129" x="409" y="50"/><text fill="#000000" font-family="sans-serif" font-size="14" lengthAdjust="spacing" textLength="115" x="416" y="72.1074">ListCourseService</text><rect fill="#E2E2F0" height="32.6211" rx="2.5" ry="2.5" style="stroke:#181818;stroke-width:0.5;" width="129" x="409" y="1022.3516"/><text fill="#000000" font-family="sans-serif" font-size="14" lengthAdjust="spacing" textLength="115" x="416" y="1044.459">ListCourseService</text><rect fill="#E2E2F0" height="32.6211" rx="2.5" ry="2.5" style="stroke:#181818;stroke-width:0.5;" width="200" x="548" y="50"/><text fill="#000000" font-family="sans-serif" font-size="14" lengthAdjust="spacing" textLength="186" x="555" y="72.1074">UpdateCourseStateController</text><rect fill="#E2E2F0" height="32.6211" rx="2.5" ry="2.5" style="stroke:#181818;stroke-width:0.5;" width="200" x="548" y="1022.3516"/><text fill="#000000" font-family="sans-serif" font-size="14" lengthAdjust="spacing" textLength="186" x="555" y="1044.459">UpdateCourseStateController</text><rect fill="#E2E2F0" height="32.6211" rx="2.5" ry="2.5" style="stroke:#181818;stroke-width:0.5;" width="185" x="854.5" y="50"/><text fill="#000000" font-family="sans-serif" font-size="14" lengthAdjust="spacing" textLength="171" x="861.5" y="72.1074">UpdateCourseStateService</text><rect fill="#E2E2F0" height="32.6211" rx="2.5" ry="2.5" style="stroke:#181818;stroke-width:0.5;" width="185" x="854.5" y="1022.3516"/><text fill="#000000" font-family="sans-serif" font-size="14" lengthAdjust="spacing" textLength="171" x="861.5" y="1044.459">UpdateCourseStateService</text><text fill="#000000" font-family="sans-serif" font-size="14" lengthAdjust="spacing" textLength="121" x="1183.5" y="80.1074">CoursesRepository</text><path d="M1229,29 C1229,19 1247,19 1247,19 C1247,19 1265,19 1265,29 L1265,55 C1265,65 1247,65 1247,65 C1247,65 1229,65 1229,55 L1229,29 " fill="#E2E2F0" style="stroke:#181818;stroke-width:1.5;"/><path d="M1229,29 C1229,39 1247,39 1247,39 C1247,39 1265,39 1265,29 " fill="none" style="stroke:#181818;stroke-width:1.5;"/><text fill="#000000" font-family="sans-serif" font-size="14" lengthAdjust="spacing" textLength="121" x="1183.5" y="1037.459">CoursesRepository</text><path d="M1229,1050.9727 C1229,1040.9727 1247,1040.9727 1247,1040.9727 C1247,1040.9727 1265,1040.9727 1265,1050.9727 L1265,1076.9727 C1265,1086.9727 1247,1086.9727 1247,1086.9727 C1247,1086.9727 1229,1086.9727 1229,1076.9727 L1229,1050.9727 " fill="#E2E2F0" style="stroke:#181818;stroke-width:1.5;"/><path d="M1229,1050.9727 C1229,1060.9727 1247,1060.9727 1247,1060.9727 C1247,1060.9727 1265,1060.9727 1265,1050.9727 " fill="none" style="stroke:#181818;stroke-width:1.5;"/><rect fill="#E2E2F0" height="32.6211" rx="2.5" ry="2.5" style="stroke:#181818;stroke-width:0.5;" width="67" x="1320.5" y="50"/><text fill="#000000" font-family="sans-serif" font-size="14" lengthAdjust="spacing" textLength="53" x="1327.5" y="72.1074">Courses</text><rect fill="#E2E2F0" height="32.6211" rx="2.5" ry="2.5" style="stroke:#181818;stroke-width:0.5;" width="67" x="1320.5" y="1022.3516"/><text fill="#000000" font-family="sans-serif" font-size="14" lengthAdjust="spacing" textLength="53" x="1327.5" y="1044.459">Courses</text><rect fill="#E2E2F0" height="32.6211" rx="2.5" ry="2.5" style="stroke:#181818;stroke-width:0.5;" width="136" x="1397.5" y="50"/><text fill="#000000" font-family="sans-serif" font-size="14" lengthAdjust="spacing" textLength="122" x="1404.5" y="72.1074">PersistenceContext</text><rect fill="#E2E2F0" height="32.6211" rx="2.5" ry="2.5" style="stroke:#181818;stroke-width:0.5;" width="136" x="1397.5" y="1022.3516"/><text fill="#000000" font-family="sans-serif" font-size="14" lengthAdjust="spacing" textLength="122" x="1404.5" y="1044.459">PersistenceContext</text><rect fill="#E2E2F0" height="32.6211" rx="2.5" ry="2.5" style="stroke:#181818;stroke-width:0.5;" width="130" x="1543.5" y="50"/><text fill="#000000" font-family="sans-serif" font-size="14" lengthAdjust="spacing" textLength="116" x="1550.5" y="72.1074">RepositoryFactory</text><rect fill="#E2E2F0" height="32.6211" rx="2.5" ry="2.5" style="stroke:#181818;stroke-width:0.5;" width="130" x="1543.5" y="1022.3516"/><text fill="#000000" font-family="sans-serif" font-size="14" lengthAdjust="spacing" textLength="116" x="1550.5" y="1044.459">RepositoryFactory</text><rect fill="#FFFFFF" height="678.4023" style="stroke:#181818;stroke-width:1.0;" width="10" x="319" y="335.9492"/><rect fill="#FFFFFF" height="606.8203" style="stroke:#181818;stroke-width:1.0;" width="10" x="643" y="367.2402"/><rect fill="#FFFFFF" height="517.9473" style="stroke:#181818;stroke-width:1.0;" width="10" x="942" y="424.8223"/><rect fill="#FFFFFF" height="374.4922" style="stroke:#181818;stroke-width:1.0;" width="10" x="1242" y="536.9863"/><rect fill="#FFFFFF" height="38.291" style="stroke:#181818;stroke-width:1.0;" width="10" x="1349" y="654.1504"/><rect fill="#FFFFFF" height="62.582" style="stroke:#181818;stroke-width:1.0;" width="10" x="1460.5" y="723.7324"/><rect fill="#FFFFFF" height="31.291" style="stroke:#181818;stroke-width:1.0;" width="10" x="1603.5" y="817.6055"/><polygon fill="#181818" points="312,112.9121,322,116.9121,312,120.9121,316,116.9121" style="stroke:#181818;stroke-width:1.0;"/><line style="stroke:#181818;stroke-width:1.0;" x1="51" x2="318" y1="116.9121" y2="116.9121"/><text fill="#000000" font-family="sans-serif" font-size="13" font-weight="bold" lengthAdjust="spacing" textLength="7" x="58" y="111.6494">1</text><text fill="#000000" font-family="sans-serif" font-size="13" lengthAdjust="spacing" textLength="238" x="69" y="111.6494">Select the option 3. Update Course State</text><polygon fill="#181818" points="636,144.2031,646,148.2031,636,152.2031,640,148.2031" style="stroke:#181818;stroke-width:1.0;"/><line style="stroke:#181818;stroke-width:1.0;" x1="324" x2="642" y1="148.2031" y2="148.2031"/><text fill="#000000" font-family="sans-serif" font-size="13" font-weight="bold" lengthAdjust="spacing" textLength="7" x="331" y="142.9404">2</text><text fill="#000000" font-family="sans-serif" font-size="13" lengthAdjust="spacing" textLength="69" x="342" y="142.9404">allCourses()</text><polygon fill="#181818" points="484.5,175.4941,474.5,179.4941,484.5,183.4941,480.5,179.4941" style="stroke:#181818;stroke-width:1.0;"/><line style="stroke:#181818;stroke-width:1.0;stroke-dasharray:2.0,2.0;" x1="478.5" x2="647" y1="179.4941" y2="179.4941"/><text fill="#000000" font-family="sans-serif" font-size="13" font-weight="bold" lengthAdjust="spacing" textLength="7" x="490.5" y="174.2314">3</text><text fill="#000000" font-family="sans-serif" font-size="13" lengthAdjust="spacing" textLength="69" x="501.5" y="174.2314">allCourses()</text><polygon fill="#181818" points="335,206.7852,325,210.7852,335,214.7852,331,210.7852" style="stroke:#181818;stroke-width:1.0;"/><line style="stroke:#181818;stroke-width:1.0;stroke-dasharray:2.0,2.0;" x1="329" x2="472.5" y1="210.7852" y2="210.7852"/><text fill="#000000" font-family="sans-serif" font-size="13" font-weight="bold" lengthAdjust="spacing" textLength="7" x="341" y="205.5225">4</text><text fill="#000000" font-family="sans-serif" font-size="13" lengthAdjust="spacing" textLength="84" x="352" y="205.5225">ListAllCourses</text><polygon fill="#181818" points="62,238.0762,52,242.0762,62,246.0762,58,242.0762" style="stroke:#181818;stroke-width:1.0;"/><line style="stroke:#181818;stroke-width:1.0;stroke-dasharray:2.0,2.0;" x1="56" x2="323" y1="242.0762" y2="242.0762"/><text fill="#000000" font-family="sans-serif" font-size="13" font-weight="bold" lengthAdjust="spacing" textLength="7" x="68" y="236.8135">5</text><text fill="#000000" font-family="sans-serif" font-size="13" lengthAdjust="spacing" textLength="152" x="79" y="236.8135">Shows the List of Courses</text><polygon fill="#181818" points="312,269.3672,322,273.3672,312,277.3672,316,273.3672" style="stroke:#181818;stroke-width:1.0;"/><line style="stroke:#181818;stroke-width:1.0;" x1="51" x2="318" y1="273.3672" y2="273.3672"/><text fill="#000000" font-family="sans-serif" font-size="13" font-weight="bold" lengthAdjust="spacing" textLength="7" x="58" y="268.1045">6</text><text fill="#000000" font-family="sans-serif" font-size="13" lengthAdjust="spacing" textLength="109" x="69" y="268.1045">Selects the course</text><polygon fill="#181818" points="62,300.6582,52,304.6582,62,308.6582,58,304.6582" style="stroke:#181818;stroke-width:1.0;"/><line style="stroke:#181818;stroke-width:1.0;stroke-dasharray:2.0,2.0;" x1="56" x2="323" y1="304.6582" y2="304.6582"/><text fill="#000000" font-family="sans-serif" font-size="13" font-weight="bold" lengthAdjust="spacing" textLength="7" x="68" y="299.3955">7</text><text fill="#000000" font-family="sans-serif" font-size="13" lengthAdjust="spacing" textLength="128" x="79" y="299.3955">Request the newState</text><polygon fill="#181818" points="307,331.9492,317,335.9492,307,339.9492,311,335.9492" style="stroke:#181818;stroke-width:1.0;"/><line style="stroke:#181818;stroke-width:1.0;" x1="51" x2="313" y1="335.9492" y2="335.9492"/><text fill="#000000" font-family="sans-serif" font-size="13" font-weight="bold" lengthAdjust="spacing" textLength="7" x="58" y="330.6865">8</text><text fill="#000000" font-family="sans-serif" font-size="13" lengthAdjust="spacing" textLength="115" x="69" y="330.6865">Types the newState</text><polygon fill="#181818" points="631,363.2402,641,367.2402,631,371.2402,635,367.2402" style="stroke:#181818;stroke-width:1.0;"/><line style="stroke:#181818;stroke-width:1.0;" x1="329" x2="637" y1="367.2402" y2="367.2402"/><text fill="#000000" font-family="sans-serif" font-size="13" font-weight="bold" lengthAdjust="spacing" textLength="7" x="336" y="361.9775">9</text><text fill="#000000" font-family="sans-serif" font-size="13" lengthAdjust="spacing" textLength="281" x="347" y="361.9775">updateCourseState(designationName, newState)</text><polygon fill="#181818" points="930,420.8223,940,424.8223,930,428.8223,934,424.8223" style="stroke:#181818;stroke-width:1.0;"/><line style="stroke:#181818;stroke-width:1.0;" x1="653" x2="936" y1="424.8223" y2="424.8223"/><text fill="#000000" font-family="sans-serif" font-size="13" font-weight="bold" lengthAdjust="spacing" textLength="14" x="660" y="419.5596">10</text><text fill="#000000" font-family="sans-serif" font-size="13" lengthAdjust="spacing" textLength="252" x="678" y="419.5596">courseStateService.open(designationName)</text><path d="M663,439.8223 L736,439.8223 L736,449.1133 L726,459.1133 L663,459.1133 L663,439.8223 " fill="#EEEEEE" style="stroke:#000000;stroke-width:1.5;"/><rect fill="none" height="222.3281" style="stroke:#000000;stroke-width:1.5;" width="734.5" x="663" y="439.8223"/><text fill="#000000" font-family="sans-serif" font-size="13" font-weight="bold" lengthAdjust="spacing" textLength="28" x="678" y="454.8506">loop</text><text fill="#000000" font-family="sans-serif" font-size="11" font-weight="bold" lengthAdjust="spacing" textLength="107" x="751" y="453.6924">[newState == Open]</text><path d="M689,464.1133 L689,508.1133 L937,508.1133 L937,474.1133 L927,464.1133 L689,464.1133 " fill="#FEFFDD" style="stroke:#181818;stroke-width:0.5;"/><path d="M927,464.1133 L927,474.1133 L937,474.1133 L927,464.1133 " fill="#FEFFDD" style="stroke:#181818;stroke-width:0.5;"/><text fill="#000000" font-family="sans-serif" font-size="13" lengthAdjust="spacing" textLength="227" x="695" y="483.1416">Este m&#233;todo aplica-se tamb&#233;m quando</text><text fill="#000000" font-family="sans-serif" font-size="13" lengthAdjust="spacing" textLength="103" x="699" y="500.4326">newState==Close</text><polygon fill="#181818" points="1230,532.9863,1240,536.9863,1230,540.9863,1234,536.9863" style="stroke:#181818;stroke-width:1.0;"/><line style="stroke:#181818;stroke-width:1.0;" x1="952" x2="1236" y1="536.9863" y2="536.9863"/><text fill="#000000" font-family="sans-serif" font-size="13" font-weight="bold" lengthAdjust="spacing" textLength="14" x="959" y="531.7236">11</text><text fill="#000000" font-family="sans-serif" font-size="13" lengthAdjust="spacing" textLength="253" x="977" y="531.7236">findCourseByDesignation(designationName)</text><polygon fill="#181818" points="963,564.2773,953,568.2773,963,572.2773,959,568.2773" style="stroke:#181818;stroke-width:1.0;"/><line style="stroke:#181818;stroke-width:1.0;stroke-dasharray:2.0,2.0;" x1="957" x2="1241" y1="568.2773" y2="568.2773"/><text fill="#000000" font-family="sans-serif" font-size="13" font-weight="bold" lengthAdjust="spacing" textLength="14" x="969" y="563.0146">12</text><text fill="#000000" font-family="sans-serif" font-size="13" lengthAdjust="spacing" textLength="100" x="987" y="563.0146">designationName</text><path d="M673,581.2773 L673,625.2773 L937,625.2773 L937,591.2773 L927,581.2773 L673,581.2773 " fill="#FEFFDD" style="stroke:#181818;stroke-width:0.5;"/><path d="M927,581.2773 L927,591.2773 L937,591.2773 L927,581.2773 " fill="#FEFFDD" style="stroke:#181818;stroke-width:0.5;"/><text fill="#000000" font-family="sans-serif" font-size="13" lengthAdjust="spacing" textLength="243" x="679" y="600.3057">quando newState==Close passamos a ter</text><text fill="#000000" font-family="sans-serif" font-size="13" lengthAdjust="spacing" textLength="135" x="683" y="617.5967">(course.state()==Open)</text><polygon fill="#181818" points="1337,650.1504,1347,654.1504,1337,658.1504,1341,654.1504" style="stroke:#181818;stroke-width:1.0;"/><line style="stroke:#181818;stroke-width:1.0;" x1="952" x2="1343" y1="654.1504" y2="654.1504"/><text fill="#000000" font-family="sans-serif" font-size="13" font-weight="bold" lengthAdjust="spacing" textLength="14" x="959" y="648.8877">13</text><text fill="#000000" font-family="sans-serif" font-size="13" lengthAdjust="spacing" textLength="109" x="977" y="648.8877">updateState(Open)</text><polygon fill="#181818" points="963,688.4414,953,692.4414,963,696.4414,959,692.4414" style="stroke:#181818;stroke-width:1.0;"/><line style="stroke:#181818;stroke-width:1.0;stroke-dasharray:2.0,2.0;" x1="957" x2="1353" y1="692.4414" y2="692.4414"/><text fill="#000000" font-family="sans-serif" font-size="13" font-weight="bold" lengthAdjust="spacing" textLength="14" x="969" y="687.1787">14</text><text fill="#000000" font-family="sans-serif" font-size="13" lengthAdjust="spacing" textLength="48" x="987" y="687.1787">Courses</text><polygon fill="#181818" points="1448.5,719.7324,1458.5,723.7324,1448.5,727.7324,1452.5,723.7324" style="stroke:#181818;stroke-width:1.0;"/><line style="stroke:#181818;stroke-width:1.0;" x1="952" x2="1454.5" y1="723.7324" y2="723.7324"/><text fill="#000000" font-family="sans-serif" font-size="13" font-weight="bold" lengthAdjust="spacing" textLength="14" x="959" y="718.4697">15</text><text fill="#000000" font-family="sans-serif" font-size="13" lengthAdjust="spacing" textLength="75" x="977" y="718.4697">repositories()</text><polygon fill="#181818" points="1596.5,751.0234,1606.5,755.0234,1596.5,759.0234,1600.5,755.0234" style="stroke:#181818;stroke-width:1.0;"/><line style="stroke:#181818;stroke-width:1.0;" x1="1470.5" x2="1602.5" y1="755.0234" y2="755.0234"/><text fill="#000000" font-family="sans-serif" font-size="13" font-weight="bold" lengthAdjust="spacing" textLength="14" x="1477.5" y="749.7607">16</text><text fill="#000000" font-family="sans-serif" font-size="13" lengthAdjust="spacing" textLength="47" x="1495.5" y="749.7607">update()</text><polygon fill="#181818" points="963,782.3145,953,786.3145,963,790.3145,959,786.3145" style="stroke:#181818;stroke-width:1.0;"/><line style="stroke:#181818;stroke-width:1.0;" x1="957" x2="1464.5" y1="786.3145" y2="786.3145"/><text fill="#000000" font-family="sans-serif" font-size="13" font-weight="bold" lengthAdjust="spacing" textLength="14" x="969" y="781.0518">17</text><text fill="#000000" font-family="sans-serif" font-size="13" lengthAdjust="spacing" textLength="39" x="987" y="781.0518">factory</text><polygon fill="#181818" points="1591.5,813.6055,1601.5,817.6055,1591.5,821.6055,1595.5,817.6055" style="stroke:#181818;stroke-width:1.0;"/><line style="stroke:#181818;stroke-width:1.0;" x1="952" x2="1597.5" y1="817.6055" y2="817.6055"/><text fill="#000000" font-family="sans-serif" font-size="13" font-weight="bold" lengthAdjust="spacing" textLength="14" x="959" y="812.3428">18</text><text fill="#000000" font-family="sans-serif" font-size="13" lengthAdjust="spacing" textLength="49" x="977" y="812.3428">Course()</text><polygon fill="#181818" points="1263,844.8965,1253,848.8965,1263,852.8965,1259,848.8965" style="stroke:#181818;stroke-width:1.0;"/><line style="stroke:#181818;stroke-width:1.0;" x1="1257" x2="1607.5" y1="848.8965" y2="848.8965"/><text fill="#000000" font-family="sans-serif" font-size="13" font-weight="bold" lengthAdjust="spacing" textLength="14" x="1269" y="843.6338">19</text><text fill="#000000" font-family="sans-serif" font-size="13" lengthAdjust="spacing" textLength="39" x="1287" y="843.6338">update</text><polygon fill="#181818" points="963,876.1875,953,880.1875,963,884.1875,959,880.1875" style="stroke:#181818;stroke-width:1.0;"/><line style="stroke:#181818;stroke-width:1.0;" x1="957" x2="1241" y1="880.1875" y2="880.1875"/><text fill="#000000" font-family="sans-serif" font-size="13" font-weight="bold" lengthAdjust="spacing" textLength="14" x="969" y="874.9248">20</text><text fill="#000000" font-family="sans-serif" font-size="13" lengthAdjust="spacing" textLength="110" x="987" y="874.9248">CoursesRepository</text><polygon fill="#181818" points="1235,907.4785,1245,911.4785,1235,915.4785,1239,911.4785" style="stroke:#181818;stroke-width:1.0;"/><line style="stroke:#181818;stroke-width:1.0;" x1="952" x2="1241" y1="911.4785" y2="911.4785"/><text fill="#000000" font-family="sans-serif" font-size="13" font-weight="bold" lengthAdjust="spacing" textLength="14" x="959" y="906.2158">21</text><text fill="#000000" font-family="sans-serif" font-size="13" lengthAdjust="spacing" textLength="75" x="977" y="906.2158">save(Course)</text><polygon fill="#181818" points="664,938.7695,654,942.7695,664,946.7695,660,942.7695" style="stroke:#181818;stroke-width:1.0;"/><line style="stroke:#181818;stroke-width:1.0;" x1="658" x2="946" y1="942.7695" y2="942.7695"/><text fill="#000000" font-family="sans-serif" font-size="13" font-weight="bold" lengthAdjust="spacing" textLength="14" x="670" y="937.5068">22</text><text fill="#000000" font-family="sans-serif" font-size="13" lengthAdjust="spacing" textLength="41" x="688" y="937.5068">Course</text><polygon fill="#181818" points="340,970.0605,330,974.0605,340,978.0605,336,974.0605" style="stroke:#181818;stroke-width:1.0;"/><line style="stroke:#181818;stroke-width:1.0;" x1="334" x2="647" y1="974.0605" y2="974.0605"/><text fill="#000000" font-family="sans-serif" font-size="13" font-weight="bold" lengthAdjust="spacing" textLength="14" x="346" y="968.7979">23</text><text fill="#000000" font-family="sans-serif" font-size="13" lengthAdjust="spacing" textLength="41" x="364" y="968.7979">Course</text><polygon fill="#181818" points="62,1001.3516,52,1005.3516,62,1009.3516,58,1005.3516" style="stroke:#181818;stroke-width:1.0;"/><line style="stroke:#181818;stroke-width:1.0;" x1="56" x2="318" y1="1005.3516" y2="1005.3516"/><text fill="#000000" font-family="sans-serif" font-size="13" font-weight="bold" lengthAdjust="spacing" textLength="14" x="68" y="1000.0889">24</text><text fill="#000000" font-family="sans-serif" font-size="13" lengthAdjust="spacing" textLength="130" x="86" y="1000.0889">Confirms the operation</text><!--SRC=[dLRDZjiW4Bxp57Dh8ZN9eJTBhjIchLIfVzfqRxqGUv8WOV02pZQFjC-nBrOmjkCrsF4s9ppCDtpppJ3apScOKYURJScfC5N1rvaiDXeVAXGPhd96ZueMXD3AI54LUrHsdHcfu3iLzEW-cmMitiDzcLE3MrafZJjZb_TV4zWXnyo0EI78qZ0fuDswyGJl2hKlYQ2ZGRTI62KvHvK0vTplwCMIJ7Z2oaRwnhHfTb6TMOO3VB1Vew99ETSF7JPEtM8RRHA0tKa-wbe41mLvW1OxJp-FpUgjsyVTkG9gBxh0Hw_lhOD-NqhKBo6srEpi2XK1aCohErMW_wffDTnSvAZPKL3NF3zeWMyxWii9XZqMziUbB3iOf2dyB56GwPQ9yEmQ9mjiQsaZ3gbE4Mnmn9hfdkhsDkWxBALczevT2CHfWv3sY-EXRgHnaf-rTIkUdupC9T2Iiuokx3c65lldfm8UAYfo-KTq1wJfbalRNsGifDCaO9d0WOdScpzUFbq5c10ZJ3Mmn2zVbziWzcnDVDB3bA6aMjD2Qg1WK5bD5hx2Qrrtu39DdVBBESgq7UnxryE6YHCKULrSqYP-8zqMHt8COarn-eLAsu7ZfhbhRVnh4b2jngmUUrToeJC9JIxgjKfVwjVWqkPimyKHuvaTV8H-OX4UKpb6s7Z7HK_um8a4bf7kzfdr-OMn8jqxevgzzd_bZTFqZ0jlNqPQOcRWoJ7ipVtWenFijLFKlJOpmjz-Hxe7pxeUc2fqypS3LJqO_W40]--></g></svg>