<?xml version="1.0" encoding="us-ascii" standalone="no"?><svg xmlns="http://www.w3.org/2000/svg" xmlns:xlink="http://www.w3.org/1999/xlink" contentStyleType="text/css" height="1012px" preserveAspectRatio="none" style="width:1662px;height:1012px;background:#FFFFFF;" version="1.1" viewBox="0 0 1662 1012" width="1662px" zoomAndPan="magnify"><defs/><g><rect fill="#FFFFFF" height="678.4023" style="stroke:#181818;stroke-width:1.0;" width="10" x="319" y="242.0762"/><rect fill="#FFFFFF" height="606.8203" style="stroke:#181818;stroke-width:1.0;" width="10" x="640" y="273.3672"/><rect fill="#FFFFFF" height="517.9473" style="stroke:#181818;stroke-width:1.0;" width="10" x="932" y="330.9492"/><rect fill="#FFFFFF" height="374.4922" style="stroke:#181818;stroke-width:1.0;" width="10" x="1225" y="443.1133"/><rect fill="#FFFFFF" height="38.291" style="stroke:#181818;stroke-width:1.0;" width="10" x="1332" y="560.2773"/><rect fill="#FFFFFF" height="62.582" style="stroke:#181818;stroke-width:1.0;" width="10" x="1443.5" y="629.8594"/><rect fill="#FFFFFF" height="31.291" style="stroke:#181818;stroke-width:1.0;" width="10" x="1586.5" y="723.7324"/><rect fill="none" height="222.3281" style="stroke:#000000;stroke-width:1.5;" width="727.5" x="653" y="345.9492"/><line style="stroke:#181818;stroke-width:0.5;stroke-dasharray:5.0,5.0;" x1="51" x2="51" y1="83.6211" y2="929.4785"/><line style="stroke:#181818;stroke-width:0.5;stroke-dasharray:5.0,5.0;" x1="324" x2="324" y1="83.6211" y2="929.4785"/><line style="stroke:#181818;stroke-width:0.5;stroke-dasharray:5.0,5.0;" x1="645" x2="645" y1="83.6211" y2="929.4785"/><line style="stroke:#181818;stroke-width:0.5;stroke-dasharray:5.0,5.0;" x1="936.5" x2="936.5" y1="83.6211" y2="929.4785"/><line style="stroke:#181818;stroke-width:0.5;stroke-dasharray:5.0,5.0;" x1="1229.5" x2="1229.5" y1="83.6211" y2="929.4785"/><line style="stroke:#181818;stroke-width:0.5;stroke-dasharray:5.0,5.0;" x1="1336.5" x2="1336.5" y1="83.6211" y2="929.4785"/><line style="stroke:#181818;stroke-width:0.5;stroke-dasharray:5.0,5.0;" x1="1448.5" x2="1448.5" y1="83.6211" y2="929.4785"/><line style="stroke:#181818;stroke-width:0.5;stroke-dasharray:5.0,5.0;" x1="1591.5" x2="1591.5" y1="83.6211" y2="929.4785"/><text fill="#000000" font-family="sans-serif" font-size="14" lengthAdjust="spacing" textLength="56" x="20" y="80.1074">Manager</text><ellipse cx="51" cy="13.5" fill="#E2E2F0" rx="8" ry="8" style="stroke:#181818;stroke-width:0.5;"/><path d="M51,21.5 L51,48.5 M38,29.5 L64,29.5 M51,48.5 L38,63.5 M51,48.5 L64,63.5 " fill="none" style="stroke:#181818;stroke-width:0.5;"/><text fill="#000000" font-family="sans-serif" font-size="14" lengthAdjust="spacing" textLength="56" x="20" y="943.5859">Manager</text><ellipse cx="51" cy="955.5996" fill="#E2E2F0" rx="8" ry="8" style="stroke:#181818;stroke-width:0.5;"/><path d="M51,963.5996 L51,990.5996 M38,971.5996 L64,971.5996 M51,990.5996 L38,1005.5996 M51,990.5996 L64,1005.5996 " fill="none" style="stroke:#181818;stroke-width:0.5;"/><rect fill="#E2E2F0" height="32.6211" rx="2.5" ry="2.5" style="stroke:#181818;stroke-width:0.5;" width="150" x="249" y="50"/><text fill="#000000" font-family="sans-serif" font-size="14" lengthAdjust="spacing" textLength="136" x="256" y="72.1074">UpdateCourseStateUI</text><rect fill="#E2E2F0" height="32.6211" rx="2.5" ry="2.5" style="stroke:#181818;stroke-width:0.5;" width="150" x="249" y="928.4785"/><text fill="#000000" font-family="sans-serif" font-size="14" lengthAdjust="spacing" textLength="136" x="256" y="950.5859">UpdateCourseStateUI</text><text fill="#000000" font-family="sans-serif" font-size="14" lengthAdjust="spacing" textLength="186" x="549" y="80.1074">UpdateCourseStateController</text><ellipse cx="645" cy="49" fill="#E2E2F0" rx="12" ry="12" style="stroke:#181818;stroke-width:0.5;"/><polygon fill="#181818" points="641,37,647,32,645,37,647,42,641,37" style="stroke:#181818;stroke-width:1.0;"/><text fill="#000000" font-family="sans-serif" font-size="14" lengthAdjust="spacing" textLength="186" x="549" y="943.5859">UpdateCourseStateController</text><ellipse cx="645" cy="963.0996" fill="#E2E2F0" rx="12" ry="12" style="stroke:#181818;stroke-width:0.5;"/><polygon fill="#181818" points="641,951.0996,647,946.0996,645,951.0996,647,956.0996,641,951.0996" style="stroke:#181818;stroke-width:1.0;"/><rect fill="#E2E2F0" height="32.6211" rx="2.5" ry="2.5" style="stroke:#181818;stroke-width:0.5;" width="185" x="844.5" y="50"/><text fill="#000000" font-family="sans-serif" font-size="14" lengthAdjust="spacing" textLength="171" x="851.5" y="72.1074">UpdateCourseStateService</text><rect fill="#E2E2F0" height="32.6211" rx="2.5" ry="2.5" style="stroke:#181818;stroke-width:0.5;" width="185" x="844.5" y="928.4785"/><text fill="#000000" font-family="sans-serif" font-size="14" lengthAdjust="spacing" textLength="171" x="851.5" y="950.5859">UpdateCourseStateService</text><text fill="#000000" font-family="sans-serif" font-size="14" lengthAdjust="spacing" textLength="121" x="1166.5" y="80.1074">CoursesRepository</text><path d="M1212,29 C1212,19 1230,19 1230,19 C1230,19 1248,19 1248,29 L1248,55 C1248,65 1230,65 1230,65 C1230,65 1212,65 1212,55 L1212,29 " fill="#E2E2F0" style="stroke:#181818;stroke-width:1.5;"/><path d="M1212,29 C1212,39 1230,39 1230,39 C1230,39 1248,39 1248,29 " fill="none" style="stroke:#181818;stroke-width:1.5;"/><text fill="#000000" font-family="sans-serif" font-size="14" lengthAdjust="spacing" textLength="121" x="1166.5" y="943.5859">CoursesRepository</text><path d="M1212,957.0996 C1212,947.0996 1230,947.0996 1230,947.0996 C1230,947.0996 1248,947.0996 1248,957.0996 L1248,983.0996 C1248,993.0996 1230,993.0996 1230,993.0996 C1230,993.0996 1212,993.0996 1212,983.0996 L1212,957.0996 " fill="#E2E2F0" style="stroke:#181818;stroke-width:1.5;"/><path d="M1212,957.0996 C1212,967.0996 1230,967.0996 1230,967.0996 C1230,967.0996 1248,967.0996 1248,957.0996 " fill="none" style="stroke:#181818;stroke-width:1.5;"/><rect fill="#E2E2F0" height="32.6211" rx="2.5" ry="2.5" style="stroke:#181818;stroke-width:0.5;" width="67" x="1303.5" y="50"/><text fill="#000000" font-family="sans-serif" font-size="14" lengthAdjust="spacing" textLength="53" x="1310.5" y="72.1074">Courses</text><rect fill="#E2E2F0" height="32.6211" rx="2.5" ry="2.5" style="stroke:#181818;stroke-width:0.5;" width="67" x="1303.5" y="928.4785"/><text fill="#000000" font-family="sans-serif" font-size="14" lengthAdjust="spacing" textLength="53" x="1310.5" y="950.5859">Courses</text><rect fill="#E2E2F0" height="32.6211" rx="2.5" ry="2.5" style="stroke:#181818;stroke-width:0.5;" width="136" x="1380.5" y="50"/><text fill="#000000" font-family="sans-serif" font-size="14" lengthAdjust="spacing" textLength="122" x="1387.5" y="72.1074">PersistenceContext</text><rect fill="#E2E2F0" height="32.6211" rx="2.5" ry="2.5" style="stroke:#181818;stroke-width:0.5;" width="136" x="1380.5" y="928.4785"/><text fill="#000000" font-family="sans-serif" font-size="14" lengthAdjust="spacing" textLength="122" x="1387.5" y="950.5859">PersistenceContext</text><rect fill="#E2E2F0" height="32.6211" rx="2.5" ry="2.5" style="stroke:#181818;stroke-width:0.5;" width="130" x="1526.5" y="50"/><text fill="#000000" font-family="sans-serif" font-size="14" lengthAdjust="spacing" textLength="116" x="1533.5" y="72.1074">RepositoryFactory</text><rect fill="#E2E2F0" height="32.6211" rx="2.5" ry="2.5" style="stroke:#181818;stroke-width:0.5;" width="130" x="1526.5" y="928.4785"/><text fill="#000000" font-family="sans-serif" font-size="14" lengthAdjust="spacing" textLength="116" x="1533.5" y="950.5859">RepositoryFactory</text><rect fill="#FFFFFF" height="678.4023" style="stroke:#181818;stroke-width:1.0;" width="10" x="319" y="242.0762"/><rect fill="#FFFFFF" height="606.8203" style="stroke:#181818;stroke-width:1.0;" width="10" x="640" y="273.3672"/><rect fill="#FFFFFF" height="517.9473" style="stroke:#181818;stroke-width:1.0;" width="10" x="932" y="330.9492"/><rect fill="#FFFFFF" height="374.4922" style="stroke:#181818;stroke-width:1.0;" width="10" x="1225" y="443.1133"/><rect fill="#FFFFFF" height="38.291" style="stroke:#181818;stroke-width:1.0;" width="10" x="1332" y="560.2773"/><rect fill="#FFFFFF" height="62.582" style="stroke:#181818;stroke-width:1.0;" width="10" x="1443.5" y="629.8594"/><rect fill="#FFFFFF" height="31.291" style="stroke:#181818;stroke-width:1.0;" width="10" x="1586.5" y="723.7324"/><polygon fill="#181818" points="312,112.9121,322,116.9121,312,120.9121,316,116.9121" style="stroke:#181818;stroke-width:1.0;"/><line style="stroke:#181818;stroke-width:1.0;" x1="51" x2="318" y1="116.9121" y2="116.9121"/><text fill="#000000" font-family="sans-serif" font-size="13" font-weight="bold" lengthAdjust="spacing" textLength="7" x="58" y="111.6494">1</text><text fill="#000000" font-family="sans-serif" font-size="13" lengthAdjust="spacing" textLength="238" x="69" y="111.6494">Select the option 3. Update Course State</text><polygon fill="#181818" points="62,144.2031,52,148.2031,62,152.2031,58,148.2031" style="stroke:#181818;stroke-width:1.0;"/><line style="stroke:#181818;stroke-width:1.0;stroke-dasharray:2.0,2.0;" x1="56" x2="323" y1="148.2031" y2="148.2031"/><text fill="#000000" font-family="sans-serif" font-size="13" font-weight="bold" lengthAdjust="spacing" textLength="7" x="68" y="142.9404">2</text><text fill="#000000" font-family="sans-serif" font-size="13" lengthAdjust="spacing" textLength="187" x="79" y="142.9404">Request the name of the Course</text><polygon fill="#181818" points="312,175.4941,322,179.4941,312,183.4941,316,179.4941" style="stroke:#181818;stroke-width:1.0;"/><line style="stroke:#181818;stroke-width:1.0;" x1="51" x2="318" y1="179.4941" y2="179.4941"/><text fill="#000000" font-family="sans-serif" font-size="13" font-weight="bold" lengthAdjust="spacing" textLength="7" x="58" y="174.2314">3</text><text fill="#000000" font-family="sans-serif" font-size="13" lengthAdjust="spacing" textLength="174" x="69" y="174.2314">Types the name of the Course</text><polygon fill="#181818" points="62,206.7852,52,210.7852,62,214.7852,58,210.7852" style="stroke:#181818;stroke-width:1.0;"/><line style="stroke:#181818;stroke-width:1.0;stroke-dasharray:2.0,2.0;" x1="56" x2="323" y1="210.7852" y2="210.7852"/><text fill="#000000" font-family="sans-serif" font-size="13" font-weight="bold" lengthAdjust="spacing" textLength="7" x="68" y="205.5225">4</text><text fill="#000000" font-family="sans-serif" font-size="13" lengthAdjust="spacing" textLength="128" x="79" y="205.5225">Request the newState</text><polygon fill="#181818" points="307,238.0762,317,242.0762,307,246.0762,311,242.0762" style="stroke:#181818;stroke-width:1.0;"/><line style="stroke:#181818;stroke-width:1.0;" x1="51" x2="313" y1="242.0762" y2="242.0762"/><text fill="#000000" font-family="sans-serif" font-size="13" font-weight="bold" lengthAdjust="spacing" textLength="7" x="58" y="236.8135">5</text><text fill="#000000" font-family="sans-serif" font-size="13" lengthAdjust="spacing" textLength="115" x="69" y="236.8135">Types the newState</text><polygon fill="#181818" points="628,269.3672,638,273.3672,628,277.3672,632,273.3672" style="stroke:#181818;stroke-width:1.0;"/><line style="stroke:#181818;stroke-width:1.0;" x1="329" x2="634" y1="273.3672" y2="273.3672"/><text fill="#000000" font-family="sans-serif" font-size="13" font-weight="bold" lengthAdjust="spacing" textLength="7" x="336" y="268.1045">6</text><text fill="#000000" font-family="sans-serif" font-size="13" lengthAdjust="spacing" textLength="281" x="347" y="268.1045">updateCourseState(designationName, newState)</text><polygon fill="#181818" points="920,326.9492,930,330.9492,920,334.9492,924,330.9492" style="stroke:#181818;stroke-width:1.0;"/><line style="stroke:#181818;stroke-width:1.0;" x1="650" x2="926" y1="330.9492" y2="330.9492"/><text fill="#000000" font-family="sans-serif" font-size="13" font-weight="bold" lengthAdjust="spacing" textLength="7" x="657" y="325.6865">7</text><text fill="#000000" font-family="sans-serif" font-size="13" lengthAdjust="spacing" textLength="252" x="668" y="325.6865">courseStateService.open(designationName)</text><path d="M653,345.9492 L726,345.9492 L726,355.2402 L716,365.2402 L653,365.2402 L653,345.9492 " fill="#EEEEEE" style="stroke:#000000;stroke-width:1.5;"/><rect fill="none" height="222.3281" style="stroke:#000000;stroke-width:1.5;" width="727.5" x="653" y="345.9492"/><text fill="#000000" font-family="sans-serif" font-size="13" font-weight="bold" lengthAdjust="spacing" textLength="28" x="668" y="360.9775">loop</text><text fill="#000000" font-family="sans-serif" font-size="11" font-weight="bold" lengthAdjust="spacing" textLength="107" x="741" y="359.8193">[newState == Open]</text><path d="M679,370.2402 L679,414.2402 L927,414.2402 L927,380.2402 L917,370.2402 L679,370.2402 " fill="#FEFFDD" style="stroke:#181818;stroke-width:0.5;"/><path d="M917,370.2402 L917,380.2402 L927,380.2402 L917,370.2402 " fill="#FEFFDD" style="stroke:#181818;stroke-width:0.5;"/><text fill="#000000" font-family="sans-serif" font-size="13" lengthAdjust="spacing" textLength="227" x="685" y="389.2686">Este m&#233;todo aplica-se tamb&#233;m quando</text><text fill="#000000" font-family="sans-serif" font-size="13" lengthAdjust="spacing" textLength="103" x="689" y="406.5596">newState==Close</text><polygon fill="#181818" points="1213,439.1133,1223,443.1133,1213,447.1133,1217,443.1133" style="stroke:#181818;stroke-width:1.0;"/><line style="stroke:#181818;stroke-width:1.0;" x1="942" x2="1219" y1="443.1133" y2="443.1133"/><text fill="#000000" font-family="sans-serif" font-size="13" font-weight="bold" lengthAdjust="spacing" textLength="7" x="949" y="437.8506">8</text><text fill="#000000" font-family="sans-serif" font-size="13" lengthAdjust="spacing" textLength="253" x="960" y="437.8506">findCourseByDesignation(designationName)</text><polygon fill="#181818" points="953,470.4043,943,474.4043,953,478.4043,949,474.4043" style="stroke:#181818;stroke-width:1.0;"/><line style="stroke:#181818;stroke-width:1.0;stroke-dasharray:2.0,2.0;" x1="947" x2="1224" y1="474.4043" y2="474.4043"/><text fill="#000000" font-family="sans-serif" font-size="13" font-weight="bold" lengthAdjust="spacing" textLength="7" x="959" y="469.1416">9</text><text fill="#000000" font-family="sans-serif" font-size="13" lengthAdjust="spacing" textLength="100" x="970" y="469.1416">designationName</text><path d="M663,487.4043 L663,531.4043 L927,531.4043 L927,497.4043 L917,487.4043 L663,487.4043 " fill="#FEFFDD" style="stroke:#181818;stroke-width:0.5;"/><path d="M917,487.4043 L917,497.4043 L927,497.4043 L917,487.4043 " fill="#FEFFDD" style="stroke:#181818;stroke-width:0.5;"/><text fill="#000000" font-family="sans-serif" font-size="13" lengthAdjust="spacing" textLength="243" x="669" y="506.4326">quando newState==Close passamos a ter</text><text fill="#000000" font-family="sans-serif" font-size="13" lengthAdjust="spacing" textLength="135" x="673" y="523.7236">(course.state()==Open)</text><polygon fill="#181818" points="1320,556.2773,1330,560.2773,1320,564.2773,1324,560.2773" style="stroke:#181818;stroke-width:1.0;"/><line style="stroke:#181818;stroke-width:1.0;" x1="942" x2="1326" y1="560.2773" y2="560.2773"/><text fill="#000000" font-family="sans-serif" font-size="13" font-weight="bold" lengthAdjust="spacing" textLength="14" x="949" y="555.0146">10</text><text fill="#000000" font-family="sans-serif" font-size="13" lengthAdjust="spacing" textLength="109" x="967" y="555.0146">updateState(Open)</text><polygon fill="#181818" points="953,594.5684,943,598.5684,953,602.5684,949,598.5684" style="stroke:#181818;stroke-width:1.0;"/><line style="stroke:#181818;stroke-width:1.0;stroke-dasharray:2.0,2.0;" x1="947" x2="1336" y1="598.5684" y2="598.5684"/><text fill="#000000" font-family="sans-serif" font-size="13" font-weight="bold" lengthAdjust="spacing" textLength="14" x="959" y="593.3057">11</text><text fill="#000000" font-family="sans-serif" font-size="13" lengthAdjust="spacing" textLength="48" x="977" y="593.3057">Courses</text><polygon fill="#181818" points="1431.5,625.8594,1441.5,629.8594,1431.5,633.8594,1435.5,629.8594" style="stroke:#181818;stroke-width:1.0;"/><line style="stroke:#181818;stroke-width:1.0;" x1="942" x2="1437.5" y1="629.8594" y2="629.8594"/><text fill="#000000" font-family="sans-serif" font-size="13" font-weight="bold" lengthAdjust="spacing" textLength="14" x="949" y="624.5967">12</text><text fill="#000000" font-family="sans-serif" font-size="13" lengthAdjust="spacing" textLength="75" x="967" y="624.5967">repositories()</text><polygon fill="#181818" points="1579.5,657.1504,1589.5,661.1504,1579.5,665.1504,1583.5,661.1504" style="stroke:#181818;stroke-width:1.0;"/><line style="stroke:#181818;stroke-width:1.0;" x1="1453.5" x2="1585.5" y1="661.1504" y2="661.1504"/><text fill="#000000" font-family="sans-serif" font-size="13" font-weight="bold" lengthAdjust="spacing" textLength="14" x="1460.5" y="655.8877">13</text><text fill="#000000" font-family="sans-serif" font-size="13" lengthAdjust="spacing" textLength="47" x="1478.5" y="655.8877">update()</text><polygon fill="#181818" points="953,688.4414,943,692.4414,953,696.4414,949,692.4414" style="stroke:#181818;stroke-width:1.0;"/><line style="stroke:#181818;stroke-width:1.0;" x1="947" x2="1447.5" y1="692.4414" y2="692.4414"/><text fill="#000000" font-family="sans-serif" font-size="13" font-weight="bold" lengthAdjust="spacing" textLength="14" x="959" y="687.1787">14</text><text fill="#000000" font-family="sans-serif" font-size="13" lengthAdjust="spacing" textLength="39" x="977" y="687.1787">factory</text><polygon fill="#181818" points="1574.5,719.7324,1584.5,723.7324,1574.5,727.7324,1578.5,723.7324" style="stroke:#181818;stroke-width:1.0;"/><line style="stroke:#181818;stroke-width:1.0;" x1="942" x2="1580.5" y1="723.7324" y2="723.7324"/><text fill="#000000" font-family="sans-serif" font-size="13" font-weight="bold" lengthAdjust="spacing" textLength="14" x="949" y="718.4697">15</text><text fill="#000000" font-family="sans-serif" font-size="13" lengthAdjust="spacing" textLength="49" x="967" y="718.4697">Course()</text><polygon fill="#181818" points="1246,751.0234,1236,755.0234,1246,759.0234,1242,755.0234" style="stroke:#181818;stroke-width:1.0;"/><line style="stroke:#181818;stroke-width:1.0;" x1="1240" x2="1590.5" y1="755.0234" y2="755.0234"/><text fill="#000000" font-family="sans-serif" font-size="13" font-weight="bold" lengthAdjust="spacing" textLength="14" x="1252" y="749.7607">16</text><text fill="#000000" font-family="sans-serif" font-size="13" lengthAdjust="spacing" textLength="39" x="1270" y="749.7607">update</text><polygon fill="#181818" points="953,782.3145,943,786.3145,953,790.3145,949,786.3145" style="stroke:#181818;stroke-width:1.0;"/><line style="stroke:#181818;stroke-width:1.0;" x1="947" x2="1224" y1="786.3145" y2="786.3145"/><text fill="#000000" font-family="sans-serif" font-size="13" font-weight="bold" lengthAdjust="spacing" textLength="14" x="959" y="781.0518">17</text><text fill="#000000" font-family="sans-serif" font-size="13" lengthAdjust="spacing" textLength="110" x="977" y="781.0518">CoursesRepository</text><polygon fill="#181818" points="1218,813.6055,1228,817.6055,1218,821.6055,1222,817.6055" style="stroke:#181818;stroke-width:1.0;"/><line style="stroke:#181818;stroke-width:1.0;" x1="942" x2="1224" y1="817.6055" y2="817.6055"/><text fill="#000000" font-family="sans-serif" font-size="13" font-weight="bold" lengthAdjust="spacing" textLength="14" x="949" y="812.3428">18</text><text fill="#000000" font-family="sans-serif" font-size="13" lengthAdjust="spacing" textLength="75" x="967" y="812.3428">save(Course)</text><polygon fill="#181818" points="661,844.8965,651,848.8965,661,852.8965,657,848.8965" style="stroke:#181818;stroke-width:1.0;"/><line style="stroke:#181818;stroke-width:1.0;" x1="655" x2="936" y1="848.8965" y2="848.8965"/><text fill="#000000" font-family="sans-serif" font-size="13" font-weight="bold" lengthAdjust="spacing" textLength="14" x="667" y="843.6338">19</text><text fill="#000000" font-family="sans-serif" font-size="13" lengthAdjust="spacing" textLength="41" x="685" y="843.6338">Course</text><polygon fill="#181818" points="340,876.1875,330,880.1875,340,884.1875,336,880.1875" style="stroke:#181818;stroke-width:1.0;"/><line style="stroke:#181818;stroke-width:1.0;" x1="334" x2="644" y1="880.1875" y2="880.1875"/><text fill="#000000" font-family="sans-serif" font-size="13" font-weight="bold" lengthAdjust="spacing" textLength="14" x="346" y="874.9248">20</text><text fill="#000000" font-family="sans-serif" font-size="13" lengthAdjust="spacing" textLength="41" x="364" y="874.9248">Course</text><polygon fill="#181818" points="62,907.4785,52,911.4785,62,915.4785,58,911.4785" style="stroke:#181818;stroke-width:1.0;"/><line style="stroke:#181818;stroke-width:1.0;" x1="56" x2="318" y1="911.4785" y2="911.4785"/><text fill="#000000" font-family="sans-serif" font-size="13" font-weight="bold" lengthAdjust="spacing" textLength="14" x="68" y="906.2158">21</text><text fill="#000000" font-family="sans-serif" font-size="13" lengthAdjust="spacing" textLength="130" x="86" y="906.2158">Confirms the operation</text><!--SRC=[bLNBajiW4Bpp5NEBLHNRXznKfJt4IQfooAFMsLikM1fvgPA01UJ4dxJViJyM49Aj22JBFg5XfkaUsiExPsEaJhTRML5kchhQvABUQdnfaEUuBXWzAbeJGXiZU5CVKDbrReI2RvJJe_li5h1-W2TPK8CxqIYDUsENJrzJs6E5kG7pZ22aOOB3XqsN2JuLsbmIgOQrHUqEI04U7I_jiJYjBM3PhdtDJIQ_pXBrLF7Dq_yx7FzupdSSsPVOzh6J4nyf8BdWHeagtDlvZSfsFChqOQuaXMQykIfGioEdxaA-sswyln1CPXWEMDXV9OIyb46MmG-9d92PgYZFFQeJop65F8XjX4KSKvqZsDKH6wO7gllRrOyeXMRMjsS2STh0XVsgi3JE6DCaFskRLh-z6b48eB9YELtRSmoj3s-lDRmqb1VYDxySa6MxIbX_aIb8rvE0PGebuuKFVpn_kZPWfXcXr23IEdfQsmXxSK-ywB5aa5HhMWiD50mgsvELl-6DRXsOP9dhVBAaCxs3lNTzsLWuGLwqbqjwuJVazdMam01hZjDFL9fP6zW9wQoDVqqAgkynGxrAo9LSc4p2a4EztjANTiAUUyqMBbunhQpq24DX4Hvp6YDiVE9gqFWWYGIH2NTxPKD-8LR4lGjkSs3_E_zncfvmvUD9n18BWMV7SFVM3C0d9zYzKzIzDWlWRxyZbmVFffPCrRfxkb6rW-4V]--></g></svg>