<?xml version="1.0" encoding="UTF-8" standalone="no"?><svg xmlns="http://www.w3.org/2000/svg" xmlns:xlink="http://www.w3.org/1999/xlink" contentStyleType="text/css" height="2800px" preserveAspectRatio="none" style="width:637px;height:2800px;background:#FFFFFF;" version="1.1" viewBox="0 0 637 2800" width="637px" zoomAndPan="magnify"><defs/><g><!--entity Sys--><g id="elem_Sys"><ellipse cx="65.5" cy="2719" fill="#F1F1F1" rx="8" ry="8" style="stroke:#181818;stroke-width:0.5;"/><path d="M65.5,2727 L65.5,2754 M52.5,2735 L78.5,2735 M65.5,2754 L52.5,2769 M65.5,2754 L78.5,2769 " fill="none" style="stroke:#181818;stroke-width:0.5;"/><text fill="#000000" font-family="sans-serif" font-size="20" lengthAdjust="spacing" textLength="68" x="31.5" y="2791.88">System</text></g><!--entity Manager--><g id="elem_Manager"><ellipse cx="65.5" cy="1318" fill="#F1F1F1" rx="8" ry="8" style="stroke:#181818;stroke-width:0.5;"/><path d="M65.5,1326 L65.5,1353 M52.5,1334 L78.5,1334 M65.5,1353 L52.5,1368 M65.5,1353 L78.5,1368 " fill="none" style="stroke:#181818;stroke-width:0.5;"/><text fill="#000000" font-family="sans-serif" font-size="20" lengthAdjust="spacing" textLength="83" x="24" y="1390.88">Manager</text></g><!--entity Teacher--><g id="elem_Teacher"><ellipse cx="65.5" cy="1933" fill="#F1F1F1" rx="8" ry="8" style="stroke:#181818;stroke-width:0.5;"/><path d="M65.5,1941 L65.5,1968 M52.5,1949 L78.5,1949 M65.5,1968 L52.5,1983 M65.5,1968 L78.5,1983 " fill="none" style="stroke:#181818;stroke-width:0.5;"/><text fill="#000000" font-family="sans-serif" font-size="20" lengthAdjust="spacing" textLength="74" x="28.5" y="2005.88">Teacher</text></g><!--entity Student--><g id="elem_Student"><ellipse cx="65.5" cy="2421" fill="#F1F1F1" rx="8" ry="8" style="stroke:#181818;stroke-width:0.5;"/><path d="M65.5,2429 L65.5,2456 M52.5,2437 L78.5,2437 M65.5,2456 L52.5,2471 M65.5,2456 L78.5,2471 " fill="none" style="stroke:#181818;stroke-width:0.5;"/><text fill="#000000" font-family="sans-serif" font-size="20" lengthAdjust="spacing" textLength="72" x="29.5" y="2493.88">Student</text></g><!--entity BO--><g id="elem_BO"><ellipse cx="65.5" cy="874" fill="#F1F1F1" rx="8" ry="8" style="stroke:#181818;stroke-width:0.5;"/><path d="M65.5,882 L65.5,909 M52.5,890 L78.5,890 M65.5,909 L52.5,924 M65.5,909 L78.5,924 " fill="none" style="stroke:#181818;stroke-width:0.5;"/><text fill="#000000" font-family="sans-serif" font-size="20" lengthAdjust="spacing" textLength="119" x="6" y="946.88">BoardOwner</text></g><!--entity BU--><g id="elem_BU"><ellipse cx="65.5" cy="372" fill="#F1F1F1" rx="8" ry="8" style="stroke:#181818;stroke-width:0.5;"/><path d="M65.5,380 L65.5,407 M52.5,388 L78.5,388 M65.5,407 L52.5,422 M65.5,407 L78.5,422 " fill="none" style="stroke:#181818;stroke-width:0.5;"/><text fill="#000000" font-family="sans-serif" font-size="20" lengthAdjust="spacing" textLength="100" x="15.5" y="444.88">BoardUser</text></g><g id="elem_FRC01: Create a Course "><ellipse cx="407.8767" cy="1353.0753" fill="#F1F1F1" rx="140.8767" ry="30.5753" style="stroke:#181818;stroke-width:0.5;"/><text fill="#000000" font-family="sans-serif" font-size="20" lengthAdjust="spacing" textLength="215" x="294.8767" y="1361.0153">FRC01: Create a Course</text></g><g id="elem_FRC02: Open/Close Enrollments in Course"><ellipse cx="407.822" cy="1463.7644" fill="#F1F1F1" rx="214.322" ry="45.2644" style="stroke:#181818;stroke-width:0.5;"/><text fill="#000000" font-family="sans-serif" font-size="20" lengthAdjust="spacing" textLength="386" x="211.822" y="1471.7044">FRC02: Open/Close Enrollments in Course</text></g><g id="elem_FRC03: Open/Close a Course"><ellipse cx="407.9847" cy="1579.1969" fill="#F1F1F1" rx="158.9847" ry="34.1969" style="stroke:#181818;stroke-width:0.5;"/><text fill="#000000" font-family="sans-serif" font-size="20" lengthAdjust="spacing" textLength="263" x="273.4847" y="1587.1369">FRC03: Open/Close a Course</text></g><g id="elem_FRC04: Set Course Teachers"><ellipse cx="407.9771" cy="1006.0954" fill="#F1F1F1" rx="155.9771" ry="33.5954" style="stroke:#181818;stroke-width:0.5;"/><text fill="#000000" font-family="sans-serif" font-size="20" lengthAdjust="spacing" textLength="256" x="276.9771" y="1014.0354">FRC04: Set Course Teachers</text></g><g id="elem_FRC05: List Courses"><ellipse cx="408.0245" cy="1774.9049" fill="#F1F1F1" rx="125.0245" ry="27.4049" style="stroke:#181818;stroke-width:0.5;"/><text fill="#000000" font-family="sans-serif" font-size="20" lengthAdjust="spacing" textLength="180" x="315.0245" y="1782.8449">FRC05: List Courses</text></g><g id="elem_FRC06: Bulk Enroll Students in Course"><ellipse cx="407.917" cy="1116.0834" fill="#F1F1F1" rx="195.917" ry="41.5834" style="stroke:#181818;stroke-width:0.5;"/><text fill="#000000" font-family="sans-serif" font-size="20" lengthAdjust="spacing" textLength="346" x="231.917" y="1124.0234">FRC06: Bulk Enroll Students in Course</text></g><g id="elem_FRC07: Request Enrollment in Course"><ellipse cx="408.0942" cy="2647.2188" fill="#F1F1F1" rx="194.0942" ry="41.2188" style="stroke:#181818;stroke-width:0.5;"/><text fill="#000000" font-family="sans-serif" font-size="20" lengthAdjust="spacing" textLength="342" x="234.0942" y="2655.1588">FRC07: Request Enrollment in Course</text></g><g id="elem_FRC08: Approve/Reject Enlistment in Course"><ellipse cx="408.1618" cy="1240.0324" fill="#F1F1F1" rx="223.1618" ry="47.0324" style="stroke:#181818;stroke-width:0.5;"/><text fill="#000000" font-family="sans-serif" font-size="20" lengthAdjust="spacing" textLength="405" x="202.6618" y="1247.9724">FRC08: Approve/Reject Enlistment in Course</text></g><g id="elem_FRC09: Schedule a Class"><ellipse cx="407.7868" cy="1968.1574" fill="#F1F1F1" rx="141.2868" ry="30.6574" style="stroke:#181818;stroke-width:0.5;"/><text fill="#000000" font-family="sans-serif" font-size="20" lengthAdjust="spacing" textLength="221" x="294.2868" y="1976.0973">FRC09: Schedule a Class</text></g><g id="elem_FRC10: Schedule of Extra Class"><ellipse cx="408.2467" cy="2069.8493" fill="#F1F1F1" rx="167.2467" ry="35.8493" style="stroke:#181818;stroke-width:0.5;"/><text fill="#000000" font-family="sans-serif" font-size="20" lengthAdjust="spacing" textLength="282" x="264.2467" y="2077.7893">FRC10: Schedule of Extra Class</text></g><g id="elem_FRC11: Update Schedule of Class"><ellipse cx="408.0809" cy="2179.1162" fill="#F1F1F1" rx="176.0809" ry="37.6162" style="stroke:#181818;stroke-width:0.5;"/><text fill="#000000" font-family="sans-serif" font-size="20" lengthAdjust="spacing" textLength="302" x="254.0809" y="2187.0562">FRC11: Update Schedule of Class</text></g><g id="elem_FRE01: Create Exam"><ellipse cx="408.1716" cy="2279.1343" fill="#F1F1F1" rx="126.1716" ry="27.6343" style="stroke:#181818;stroke-width:0.5;"/><text fill="#000000" font-family="sans-serif" font-size="20" lengthAdjust="spacing" textLength="183" x="313.6716" y="2287.0743">FRE01: Create Exam</text></g><g id="elem_FRE02: List Exams"><ellipse cx="408.043" cy="2368.2086" fill="#F1F1F1" rx="119.043" ry="26.2086" style="stroke:#181818;stroke-width:0.5;"/><text fill="#000000" font-family="sans-serif" font-size="20" lengthAdjust="spacing" textLength="164" x="323.043" y="2376.1486">FRE02: List Exams</text></g><g id="elem_FRE03: List Course Exams"><ellipse cx="408.0876" cy="1679.8175" fill="#F1F1F1" rx="147.0876" ry="31.8175" style="stroke:#181818;stroke-width:0.5;"/><text fill="#000000" font-family="sans-serif" font-size="20" lengthAdjust="spacing" textLength="235" x="287.5876" y="1687.7575">FRE03: List Course Exams</text></g><g id="elem_FRE04: Take Exam"><ellipse cx="407.7775" cy="2455.8555" fill="#F1F1F1" rx="119.7775" ry="26.3555" style="stroke:#181818;stroke-width:0.5;"/><text fill="#000000" font-family="sans-serif" font-size="20" lengthAdjust="spacing" textLength="166" x="321.7775" y="2463.7955">FRE04: Take Exam</text></g><g id="elem_FRE05: List Grades"><ellipse cx="407.8865" cy="2544.0773" fill="#F1F1F1" rx="120.8865" ry="26.5773" style="stroke:#181818;stroke-width:0.5;"/><text fill="#000000" font-family="sans-serif" font-size="20" lengthAdjust="spacing" textLength="169" x="320.3865" y="2552.0173">FRE05: List Grades</text></g><g id="elem_FRE06: List Course Grades"><ellipse cx="408.1848" cy="1870.237" fill="#F1F1F1" rx="149.1848" ry="32.237" style="stroke:#181818;stroke-width:0.5;"/><text fill="#000000" font-family="sans-serif" font-size="20" lengthAdjust="spacing" textLength="240" x="285.1848" y="1878.1769">FRE06: List Course Grades</text></g><g id="elem_FRB01: Create Board"><ellipse cx="407.988" cy="34.0976" fill="#F1F1F1" rx="128.488" ry="28.0976" style="stroke:#181818;stroke-width:0.5;"/><text fill="#000000" font-family="sans-serif" font-size="20" lengthAdjust="spacing" textLength="189" x="310.488" y="42.0376">FRB01: Create Board</text></g><g id="elem_FRB02: Share Board"><ellipse cx="407.906" cy="124.9812" fill="#F1F1F1" rx="125.406" ry="27.4812" style="stroke:#181818;stroke-width:0.5;"/><text fill="#000000" font-family="sans-serif" font-size="20" lengthAdjust="spacing" textLength="181" x="314.406" y="132.9212">FRB02: Share Board</text></g><g id="elem_FRB04: Create Post-it"><ellipse cx="408.157" cy="215.8314" fill="#F1F1F1" rx="129.657" ry="28.3314" style="stroke:#181818;stroke-width:0.5;"/><text fill="#000000" font-family="sans-serif" font-size="20" lengthAdjust="spacing" textLength="192" x="309.157" y="223.7714">FRB04: Create Post-it</text></g><g id="elem_FRB05: Change Post-it"><ellipse cx="408.1024" cy="309.1205" fill="#F1F1F1" rx="133.6024" ry="29.1205" style="stroke:#181818;stroke-width:0.5;"/><text fill="#000000" font-family="sans-serif" font-size="20" lengthAdjust="spacing" textLength="202" x="304.1024" y="317.0605">FRB05: Change Post-it</text></g><g id="elem_FRB06: Undo Post-it Change"><ellipse cx="407.8343" cy="406.7669" fill="#F1F1F1" rx="156.8343" ry="33.7669" style="stroke:#181818;stroke-width:0.5;"/><text fill="#000000" font-family="sans-serif" font-size="20" lengthAdjust="spacing" textLength="258" x="275.8343" y="414.7068">FRB06: Undo Post-it Change</text></g><g id="elem_FRB07: View Board History"><ellipse cx="407.8715" cy="509.0743" fill="#F1F1F1" rx="150.8715" ry="32.5743" style="stroke:#181818;stroke-width:0.5;"/><text fill="#000000" font-family="sans-serif" font-size="20" lengthAdjust="spacing" textLength="244" x="282.8715" y="517.0143">FRB07: View Board History</text></g><g id="elem_FRB08: Archive Board"><ellipse cx="408.1205" cy="909.2241" fill="#F1F1F1" rx="131.6205" ry="28.7241" style="stroke:#181818;stroke-width:0.5;"/><text fill="#000000" font-family="sans-serif" font-size="20" lengthAdjust="spacing" textLength="197" x="306.6205" y="917.1641">FRB08: Archive Board</text></g><g id="elem_FRM01: Schedule a Meeting"><ellipse cx="408.1946" cy="609.8389" fill="#F1F1F1" rx="154.6946" ry="33.3389" style="stroke:#181818;stroke-width:0.5;"/><text fill="#000000" font-family="sans-serif" font-size="20" lengthAdjust="spacing" textLength="253" x="278.6946" y="617.7789">FRM01: Schedule a Meeting</text></g><g id="elem_FRM02: Cancel Meeting"><ellipse cx="407.8353" cy="709.1671" fill="#F1F1F1" rx="138.8353" ry="30.1671" style="stroke:#181818;stroke-width:0.5;"/><text fill="#000000" font-family="sans-serif" font-size="20" lengthAdjust="spacing" textLength="215" x="297.3353" y="717.1071">FRM02: Cancel Meeting</text></g><g id="elem_FRM03: Accept/Reject Meeting"><ellipse cx="407.9332" cy="810.0866" fill="#F1F1F1" rx="165.9332" ry="35.5866" style="stroke:#181818;stroke-width:0.5;"/><text fill="#000000" font-family="sans-serif" font-size="20" lengthAdjust="spacing" textLength="279" x="265.4332" y="818.0266">FRM03: Accept/Reject Meeting</text></g><g id="elem_FRM04: List Participants"><ellipse cx="407.9672" cy="2753.9934" fill="#F1F1F1" rx="140.4672" ry="30.4934" style="stroke:#181818;stroke-width:0.5;"/><text fill="#000000" font-family="sans-serif" font-size="20" lengthAdjust="spacing" textLength="219" x="295.4672" y="2761.9334">FRM04: List Participants</text></g><!--link Manager to FRC01: Create a Course --><g id="link_Manager_FRC01: Create a Course "><path d="M107.23,1353 C145.62,1353 205.46,1353 261.62,1353 " fill="none" id="Manager-to-FRC01: Create a Course " style="stroke:#181818;stroke-width:1.0;"/><polygon fill="#181818" points="266.69,1353,257.69,1349,261.69,1353,257.69,1357,266.69,1353" style="stroke:#181818;stroke-width:1.0;"/></g><!--link Manager to FRC02: Open/Close Enrollments in Course--><g id="link_Manager_FRC02: Open/Close Enrollments in Course"><path d="M107.22,1370.77 C129.89,1380.34 158.76,1391.99 185,1401 C211.69,1410.16 240.49,1419.05 268.23,1427.12 " fill="none" id="Manager-to-FRC02: Open/Close Enrollments in Course" style="stroke:#181818;stroke-width:1.0;"/><polygon fill="#181818" points="273.03,1428.52,265.51,1422.16,268.23,1427.12,263.27,1429.84,273.03,1428.52" style="stroke:#181818;stroke-width:1.0;"/></g><!--link Manager to FRC03: Open/Close a Course--><g id="link_Manager_FRC03: Open/Close a Course"><path d="M84.92,1396.75 C104.05,1436.81 137.84,1494.63 185,1527 C208.04,1542.82 235.26,1553.86 262.6,1561.57 " fill="none" id="Manager-to-FRC03: Open/Close a Course" style="stroke:#181818;stroke-width:1.0;"/><polygon fill="#181818" points="267.71,1562.97,260.0984,1556.7199,262.8902,1561.6399,257.9702,1564.4317,267.71,1562.97" style="stroke:#181818;stroke-width:1.0;"/></g><!--link Manager to FRC04: Set Course Teachers--><g id="link_Manager_FRC04: Set Course Teachers"><path d="M71.33,1309.25 C80.93,1244.14 108.57,1122.42 185,1057 C205.65,1039.33 231.21,1027.47 257.55,1019.58 " fill="none" id="Manager-to-FRC04: Set Course Teachers" style="stroke:#181818;stroke-width:1.0;"/><polygon fill="#181818" points="262.48,1018.15,252.72,1016.83,257.68,1019.55,254.96,1024.51,262.48,1018.15" style="stroke:#181818;stroke-width:1.0;"/></g><!--link Manager to FRC05: List Courses--><g id="link_Manager_FRC05: List Courses"><path d="M66.71,1396.61 C69.59,1475.61 87.62,1642.31 185,1730 C210.55,1753.01 244.56,1765.56 278.25,1772.09 " fill="none" id="Manager-to-FRC05: List Courses" style="stroke:#181818;stroke-width:1.0;"/><polygon fill="#181818" points="283.22,1773.02,275.1035,1767.4413,278.3043,1772.1055,273.6402,1775.3063,283.22,1773.02" style="stroke:#181818;stroke-width:1.0;"/></g><!--link Student to FRC05: List Courses--><g id="link_Student_FRC05: List Courses"><path d="M71.81,2412.36 C88.79,2275.89 143.14,1863.69 185,1821 C209.42,1796.09 243.55,1782.91 277.73,1776.33 " fill="none" id="Student-to-FRC05: List Courses" style="stroke:#181818;stroke-width:1.0;"/><polygon fill="#181818" points="282.77,1775.41,273.1967,1773.0967,277.8518,1776.3107,274.6378,1780.9659,282.77,1775.41" style="stroke:#181818;stroke-width:1.0;"/></g><!--link Teacher to FRC05: List Courses--><g id="link_Teacher_FRC05: List Courses"><path d="M90.29,1924.41 C110.91,1890.86 143.88,1846.12 185,1821 C214.77,1802.81 250.55,1791.71 284.59,1784.96 " fill="none" id="Teacher-to-FRC05: List Courses" style="stroke:#181818;stroke-width:1.0;"/><polygon fill="#181818" points="289.6,1783.99,280.0075,1781.7575,284.6896,1784.9321,281.5149,1789.6142,289.6,1783.99" style="stroke:#181818;stroke-width:1.0;"/></g><!--link Manager to FRC06: Bulk Enroll Students in Course--><g id="link_Manager_FRC06: Bulk Enroll Students in Course"><path d="M84.8,1309.25 C103.95,1268.75 137.83,1209.85 185,1176 C204.15,1162.26 226.28,1151.66 249,1143.49 " fill="none" id="Manager-to-FRC06: Bulk Enroll Students in Course" style="stroke:#181818;stroke-width:1.0;"/><polygon fill="#181818" points="253.85,1141.78,244.0307,1141.0174,249.1374,1143.4508,246.704,1148.5575,253.85,1141.78" style="stroke:#181818;stroke-width:1.0;"/></g><!--link Student to FRC07: Request Enrollment in Course--><g id="link_Student_FRC07: Request Enrollment in Course"><path d="M95.26,2499.5 C116.7,2528.65 148.49,2565.64 185,2588 C206.2,2600.98 230.24,2611.14 254.48,2619.08 " fill="none" id="Student-to-FRC07: Request Enrollment in Course" style="stroke:#181818;stroke-width:1.0;"/><polygon fill="#181818" points="259.33,2620.64,251.9851,2614.0785,254.5697,2619.1104,249.5378,2621.695,259.33,2620.64" style="stroke:#181818;stroke-width:1.0;"/></g><!--link Manager to FRC08: Approve/Reject Enlistment in Course--><g id="link_Manager_FRC08: Approve/Reject Enlistment in Course"><path d="M107.25,1335.32 C129.93,1325.78 158.8,1314.12 185,1305 C211.16,1295.9 239.33,1286.99 266.53,1278.82 " fill="none" id="Manager-to-FRC08: Approve/Reject Enlistment in Course" style="stroke:#181818;stroke-width:1.0;"/><polygon fill="#181818" points="271.6,1277.3,261.8319,1276.0414,266.8089,1278.7302,264.1202,1283.7072,271.6,1277.3" style="stroke:#181818;stroke-width:1.0;"/></g><!--link Teacher to FRC09: Schedule a Class--><g id="link_Teacher_FRC09: Schedule a Class"><path d="M102.62,1968 C140.58,1968 202.78,1968 261.08,1968 " fill="none" id="Teacher-to-FRC09: Schedule a Class" style="stroke:#181818;stroke-width:1.0;"/><polygon fill="#181818" points="266.35,1968,257.35,1964,261.35,1968,257.35,1972,266.35,1968" style="stroke:#181818;stroke-width:1.0;"/></g><!--link Teacher to FRC10: Schedule of Extra Class--><g id="link_Teacher_FRC10: Schedule of Extra Class"><path d="M102.56,1984.21 C125.78,1994.25 156.8,2006.91 185,2016 C216.63,2026.19 251.32,2035.49 283.7,2043.4 " fill="none" id="Teacher-to-FRC10: Schedule of Extra Class" style="stroke:#181818;stroke-width:1.0;"/><polygon fill="#181818" points="288.87,2044.66,281.0754,2038.6397,284.0126,2043.4742,279.1781,2046.4115,288.87,2044.66" style="stroke:#181818;stroke-width:1.0;"/></g><!--link Teacher to FRC11: Update Schedule of Class--><g id="link_Teacher_FRC11: Update Schedule of Class"><path d="M88.71,2011.66 C109.02,2047.22 142.38,2095.96 185,2124 C206.53,2138.17 231.42,2148.69 256.58,2156.5 " fill="none" id="Teacher-to-FRC11: Update Schedule of Class" style="stroke:#181818;stroke-width:1.0;"/><polygon fill="#181818" points="261.62,2158.03,254.1753,2151.582,256.8368,2156.5736,251.8451,2159.2351,261.62,2158.03" style="stroke:#181818;stroke-width:1.0;"/></g><!--link Teacher to FRE01: Create Exam--><g id="link_Teacher_FRE01: Create Exam"><path d="M73.3,2011.61 C85.01,2071.4 114.89,2177.79 185,2234 C211.36,2255.13 245.02,2267.15 278.12,2273.79 " fill="none" id="Teacher-to-FRE01: Create Exam" style="stroke:#181818;stroke-width:1.0;"/><polygon fill="#181818" points="283.43,2274.81,275.3479,2269.1815,278.5201,2273.8652,273.8363,2277.0374,283.43,2274.81" style="stroke:#181818;stroke-width:1.0;"/></g><!--link Student to FRE02: List Exams--><g id="link_Student_FRE02: List Exams"><path d="M101.53,2441.31 C124.86,2431.94 156.39,2420.09 185,2412 C224.35,2400.87 268.4,2391.52 306.82,2384.34 " fill="none" id="Student-to-FRE02: List Exams" style="stroke:#181818;stroke-width:1.0;"/><polygon fill="#181818" points="311.96,2383.38,302.3802,2381.0937,307.0443,2384.2945,303.8435,2388.9587,311.96,2383.38" style="stroke:#181818;stroke-width:1.0;"/></g><!--link Teacher to FRE03: List Course Exams--><g id="link_Teacher_FRE03: List Course Exams"><path d="M76.1,1924.24 C90.33,1870.12 122.35,1779.14 185,1730 C208.07,1711.91 236.41,1700.1 265.04,1692.46 " fill="none" id="Teacher-to-FRE03: List Course Exams" style="stroke:#181818;stroke-width:1.0;"/><polygon fill="#181818" points="270.01,1691.17,260.2937,1689.5597,265.1704,1692.4263,262.3038,1697.303,270.01,1691.17" style="stroke:#181818;stroke-width:1.0;"/></g><!--link Student to FRE04: Take Exam--><g id="link_Student_FRE04: Take Exam"><path d="M101.66,2456 C144.22,2456 218.21,2456 282.7,2456 " fill="none" id="Student-to-FRE04: Take Exam" style="stroke:#181818;stroke-width:1.0;"/><polygon fill="#181818" points="287.72,2456,278.72,2452,282.72,2456,278.72,2460,287.72,2456" style="stroke:#181818;stroke-width:1.0;"/></g><!--link Student to FRE05: List Grades--><g id="link_Student_FRE05: List Grades"><path d="M101.53,2470.69 C124.86,2480.06 156.39,2491.91 185,2500 C223.81,2510.97 267.18,2520.22 305.23,2527.36 " fill="none" id="Student-to-FRE05: List Grades" style="stroke:#181818;stroke-width:1.0;"/><polygon fill="#181818" points="310.32,2528.31,302.2035,2522.7313,305.4043,2527.3955,300.7402,2530.5963,310.32,2528.31" style="stroke:#181818;stroke-width:1.0;"/></g><!--link Teacher to FRE06: List Course Grades--><g id="link_Teacher_FRE06: List Course Grades"><path d="M102.51,1951.62 C125.71,1941.52 156.72,1928.85 185,1920 C219.05,1909.35 256.7,1899.99 291.18,1892.34 " fill="none" id="Teacher-to-FRE06: List Course Grades" style="stroke:#181818;stroke-width:1.0;"/><polygon fill="#181818" points="296.24,1891.22,286.5866,1889.2676,291.3591,1892.3047,288.322,1897.0771,296.24,1891.22" style="stroke:#181818;stroke-width:1.0;"/></g><!--link BU to FRB01: Create Board--><g id="link_BU_FRB01: Create Board"><path d="M69.22,363.23 C76.08,292.46 100.21,153.43 185,80 C210.14,58.23 242.86,45.82 275.42,38.96 " fill="none" id="BU-to-FRB01: Create Board" style="stroke:#181818;stroke-width:1.0;"/><polygon fill="#181818" points="280.65,37.91,271.0379,35.7635,275.7482,38.8961,272.6156,43.6064,280.65,37.91" style="stroke:#181818;stroke-width:1.0;"/></g><!--link BU to FRB02: Share Board--><g id="link_BU_FRB02: Share Board"><path d="M75.99,363.21 C90.1,309.08 122,218.25 185,170 C211.89,149.4 245.83,137.57 279.01,130.94 " fill="none" id="BU-to-FRB02: Share Board" style="stroke:#181818;stroke-width:1.0;"/><polygon fill="#181818" points="284.33,129.92,274.7375,127.6875,279.4196,130.8621,276.2449,135.5442,284.33,129.92" style="stroke:#181818;stroke-width:1.0;"/></g><!--link BU to FRB04: Create Post-it--><g id="link_BU_FRB04: Create Post-it"><path d="M90.85,363.32 C111.58,330.31 144.41,286.61 185,262 C213.75,244.57 248.04,233.65 280.96,226.84 " fill="none" id="BU-to-FRB04: Create Post-it" style="stroke:#181818;stroke-width:1.0;"/><polygon fill="#181818" points="286.23,225.78,276.6179,223.6335,281.3282,226.7661,278.1956,231.4764,286.23,225.78" style="stroke:#181818;stroke-width:1.0;"/></g><!--link BU to FRB05: Change Post-it--><g id="link_BU_FRB05: Change Post-it"><path d="M115.77,382.62 C136.72,372.98 161.67,362.45 185,355 C220.38,343.71 259.84,334.49 295.57,327.35 " fill="none" id="BU-to-FRB05: Change Post-it" style="stroke:#181818;stroke-width:1.0;"/><polygon fill="#181818" points="300.81,326.32,291.204,324.1466,295.9055,327.2923,292.7597,331.9938,300.81,326.32" style="stroke:#181818;stroke-width:1.0;"/></g><!--link BU to FRB06: Undo Post-it Change--><g id="link_BU_FRB06: Undo Post-it Change"><path d="M115.65,407 C150.12,407 198.33,407 245.62,407 " fill="none" id="BU-to-FRB06: Undo Post-it Change" style="stroke:#181818;stroke-width:1.0;"/><polygon fill="#181818" points="250.79,407,241.79,403,245.79,407,241.79,411,250.79,407" style="stroke:#181818;stroke-width:1.0;"/></g><!--link BU to FRB07: View Board History--><g id="link_BU_FRB07: View Board History"><path d="M115.6,430.5 C136.64,439.94 161.69,450.38 185,458 C218.59,468.99 255.77,478.52 289.95,486.27 " fill="none" id="BU-to-FRB07: View Board History" style="stroke:#181818;stroke-width:1.0;"/><polygon fill="#181818" points="294.97,487.4,287.0684,481.5209,290.0921,486.3018,285.3112,489.3255,294.97,487.4" style="stroke:#181818;stroke-width:1.0;"/></g><!--link BO to FRB08: Archive Board--><g id="link_BO_FRB08: Archive Board"><path d="M125.03,909 C165.2,909 220.22,909 271,909 " fill="none" id="BO-to-FRB08: Archive Board" style="stroke:#181818;stroke-width:1.0;"/><polygon fill="#181818" points="276.22,909,267.22,905,271.22,909,267.22,913,276.22,909" style="stroke:#181818;stroke-width:1.0;"/></g><!--link BU to FRM01: Schedule a Meeting--><g id="link_BU_FRM01: Schedule a Meeting"><path d="M89.47,450.78 C109.93,485.43 143.09,532.3 185,559 C209.43,574.57 238.07,585.4 266.49,592.93 " fill="none" id="BU-to-FRM01: Schedule a Meeting" style="stroke:#181818;stroke-width:1.0;"/><polygon fill="#181818" points="271.42,594.21,263.7138,588.077,266.5804,592.9537,261.7037,595.8203,271.42,594.21" style="stroke:#181818;stroke-width:1.0;"/></g><!--link BU to FRM02: Cancel Meeting--><g id="link_BU_FRM02: Cancel Meeting"><path d="M74.48,450.75 C87.33,508.12 118.25,607.73 185,661 C209.04,680.18 239.03,692.13 269.12,699.48 " fill="none" id="BU-to-FRM02: Cancel Meeting" style="stroke:#181818;stroke-width:1.0;"/><polygon fill="#181818" points="274.34,700.71,266.4954,694.755,269.4729,699.5648,264.6631,702.5423,274.34,700.71" style="stroke:#181818;stroke-width:1.0;"/></g><!--link BU to FRM03: Accept/Reject Meeting--><g id="link_BU_FRM03: Accept/Reject Meeting"><path d="M68.36,450.6 C73.94,524.64 96.25,674.79 185,756 C203.93,773.32 227.47,785.34 252.08,793.62 " fill="none" id="BU-to-FRM03: Accept/Reject Meeting" style="stroke:#181818;stroke-width:1.0;"/><polygon fill="#181818" points="257.01,795.23,249.6888,788.6421,252.2553,793.6833,247.2141,796.2497,257.01,795.23" style="stroke:#181818;stroke-width:1.0;"/></g><!--link Sys to FRM04: List Participants--><g id="link_Sys_FRM04: List Participants"><path d="M99.77,2754 C137.69,2754 202.24,2754 262.41,2754 " fill="none" id="Sys-to-FRM04: List Participants" style="stroke:#181818;stroke-width:1.0;"/><polygon fill="#181818" points="267.47,2754,258.47,2750,262.47,2754,258.47,2758,267.47,2754" style="stroke:#181818;stroke-width:1.0;"/></g><!--SRC=[XPHDSzem48Rl_XKxkRJCm8GGchGwT0Oyf3sK8GDnxnfvmIf2SYKvXFxwheqCTcFeRRtxlDeFhUosKkVSyfqoOeiffBZcXV9FHlkL_8Cm6aOArnwy0IitcOTKMXHU6Xr5R7Lm7dSCk0Co8pRdcc_GLevWH-m5kSY2CzYaz4MAsX-bHpjYKyDjkjZh04yNmPMusfD4qGVw0i4TEk0MGHiF1_ImBfGwbDLBZMaVV8Om4TvOk4bMi-LD7zPaQxFl0nVUWP9R10vxgL916Q8eb0im67m5-FYqZ8Tt36ABt9TWR0fBUNidhiAEt8Z18aTz6oj3o4nRezIE6d8WTH1swkvREduD7JDOKPEXYZ15rukws4yCVaXNmmI5-Lvbmf5NcQva3mocXTg6hkkhR7NUaVwHmH9_5qYddyVrdsbzPZ39SsjUyNQ9lsW5IQgeld-bpKuguHUQ7NdIGbL3LjovzzJTi46PDSpUlBqCqsOaULfkHbFJJSyQUpHxuxlsG2fW52PTXhiEk6_TH8szEuQMv8LlBsQfx_ERvIbsfNbefwcvQL8ZqqOhrSDi1wcDLLQ-oOxO-2HyDiuFf6-7gROuutfp8KoL9JerTJ2mROPswgV4_J4vVAT6Z3qGiZWZvGfPaSdNZXBdPM-DFPaZUgatROGwZBaMgBh3T4yJ8J3tzOQUAFexdh5ncFCpjruAcNDwCBteBm00]--></g></svg>