<?xml version="1.0" encoding="UTF-8" standalone="no"?><svg xmlns="http://www.w3.org/2000/svg" xmlns:xlink="http://www.w3.org/1999/xlink" contentStyleType="text/css" height="2793px" preserveAspectRatio="none" style="width:652px;height:2793px;background:#FFFFFF;" version="1.1" viewBox="0 0 652 2793" width="652px" zoomAndPan="magnify"><defs/><g><!--entity Sys--><g id="elem_Sys"><ellipse cx="65" cy="2714" fill="#F1F1F1" rx="8" ry="8" style="stroke:#181818;stroke-width:0.5;"/><path d="M65,2722 L65,2749 M52,2730 L78,2730 M65,2749 L52,2764 M65,2749 L78,2764 " fill="none" style="stroke:#181818;stroke-width:0.5;"/><text fill="#000000" font-family="sans-serif" font-size="20" lengthAdjust="spacing" textLength="68" x="31" y="2784.8359">System</text></g><!--entity Manager--><g id="elem_Manager"><ellipse cx="65" cy="1316" fill="#F1F1F1" rx="8" ry="8" style="stroke:#181818;stroke-width:0.5;"/><path d="M65,1324 L65,1351 M52,1332 L78,1332 M65,1351 L52,1366 M65,1351 L78,1366 " fill="none" style="stroke:#181818;stroke-width:0.5;"/><text fill="#000000" font-family="sans-serif" font-size="20" lengthAdjust="spacing" textLength="82" x="24" y="1386.8359">Manager</text></g><!--entity Teacher--><g id="elem_Teacher"><ellipse cx="65" cy="1931" fill="#F1F1F1" rx="8" ry="8" style="stroke:#181818;stroke-width:0.5;"/><path d="M65,1939 L65,1966 M52,1947 L78,1947 M65,1966 L52,1981 M65,1966 L78,1981 " fill="none" style="stroke:#181818;stroke-width:0.5;"/><text fill="#000000" font-family="sans-serif" font-size="20" lengthAdjust="spacing" textLength="76" x="27" y="2001.8359">Teacher</text></g><!--entity Student--><g id="elem_Student"><ellipse cx="65" cy="2417" fill="#F1F1F1" rx="8" ry="8" style="stroke:#181818;stroke-width:0.5;"/><path d="M65,2425 L65,2452 M52,2433 L78,2433 M65,2452 L52,2467 M65,2452 L78,2467 " fill="none" style="stroke:#181818;stroke-width:0.5;"/><text fill="#000000" font-family="sans-serif" font-size="20" lengthAdjust="spacing" textLength="73" x="28.5" y="2487.8359">Student</text></g><!--entity BO--><g id="elem_BO"><ellipse cx="65" cy="868" fill="#F1F1F1" rx="8" ry="8" style="stroke:#181818;stroke-width:0.5;"/><path d="M65,876 L65,903 M52,884 L78,884 M65,903 L52,918 M65,903 L78,918 " fill="none" style="stroke:#181818;stroke-width:0.5;"/><text fill="#000000" font-family="sans-serif" font-size="20" lengthAdjust="spacing" textLength="118" x="6" y="938.8359">BoardOwner</text></g><!--entity BU--><g id="elem_BU"><ellipse cx="65" cy="369" fill="#F1F1F1" rx="8" ry="8" style="stroke:#181818;stroke-width:0.5;"/><path d="M65,377 L65,404 M52,385 L78,385 M65,404 L52,419 M65,404 L78,419 " fill="none" style="stroke:#181818;stroke-width:0.5;"/><text fill="#000000" font-family="sans-serif" font-size="20" lengthAdjust="spacing" textLength="99" x="15.5" y="439.8359">BoardUser</text></g><g id="elem_FRC01: Create a Course "><ellipse cx="414.8003" cy="1349.3601" fill="#F1F1F1" rx="139.8003" ry="30.3601" style="stroke:#181818;stroke-width:0.5;"/><text fill="#000000" font-family="sans-serif" font-size="20" lengthAdjust="spacing" textLength="228" x="294.8003" y="1356.278">FRC01: Create a Course</text></g><g id="elem_FRC02: Open/Close Enrollments in Course"><ellipse cx="415.1001" cy="1461.62" fill="#F1F1F1" rx="221.1001" ry="46.62" style="stroke:#181818;stroke-width:0.5;"/><text fill="#000000" font-family="sans-serif" font-size="20" lengthAdjust="spacing" textLength="408" x="211.1001" y="1467.1786">FRC02: Open/Close Enrollments in Course</text></g><g id="elem_FRC03: Open/Close a Course"><ellipse cx="414.9066" cy="1577.5813" fill="#F1F1F1" rx="160.9066" ry="34.5813" style="stroke:#181818;stroke-width:0.5;"/><text fill="#000000" font-family="sans-serif" font-size="20" lengthAdjust="spacing" textLength="281" x="273.6059" y="1583.5384">FRC03: Open/Close a Course</text></g><g id="elem_FRC04: Set Course Teachers"><ellipse cx="414.865" cy="998.573" fill="#F1F1F1" rx="155.865" ry="33.573" style="stroke:#181818;stroke-width:0.5;"/><text fill="#000000" font-family="sans-serif" font-size="20" lengthAdjust="spacing" textLength="270" x="278.1818" y="1004.9377">FRC04: Set Course Teachers</text></g><g id="elem_FRC05: List Courses"><ellipse cx="415.2249" cy="1772.345" fill="#F1F1F1" rx="122.2249" ry="26.845" style="stroke:#181818;stroke-width:0.5;"/><text fill="#000000" font-family="sans-serif" font-size="20" lengthAdjust="spacing" textLength="193" x="315.7249" y="1779.263">FRC05: List Courses</text></g><g id="elem_FRC06: Bulk Enroll Students in Course"><ellipse cx="414.9839" cy="1109.4968" fill="#F1F1F1" rx="200.4839" ry="42.4968" style="stroke:#181818;stroke-width:0.5;"/><text fill="#000000" font-family="sans-serif" font-size="20" lengthAdjust="spacing" textLength="365" x="232.4839" y="1115.0554">FRC06: Bulk Enroll Students in Course</text></g><g id="elem_FRC07: Request Enrollment in Course"><ellipse cx="415.0991" cy="2640.5198" fill="#F1F1F1" rx="198.0991" ry="42.0198" style="stroke:#181818;stroke-width:0.5;"/><text fill="#000000" font-family="sans-serif" font-size="20" lengthAdjust="spacing" textLength="360" x="235.0991" y="2646.0784">FRC07: Request Enrollment in Course</text></g><g id="elem_FRC08: Approve/Reject Enlistment in Course"><ellipse cx="415.2277" cy="1235.6455" fill="#F1F1F1" rx="231.2277" ry="48.6455" style="stroke:#181818;stroke-width:0.5;"/><text fill="#000000" font-family="sans-serif" font-size="20" lengthAdjust="spacing" textLength="429" x="200.7277" y="1241.2041">FRC08: Approve/Reject Enlistment in Course</text></g><g id="elem_FRC09: Schedule a Class"><ellipse cx="415.1784" cy="1964.5357" fill="#F1F1F1" rx="140.6784" ry="30.5357" style="stroke:#181818;stroke-width:0.5;"/><text fill="#000000" font-family="sans-serif" font-size="20" lengthAdjust="spacing" textLength="236" x="294.1784" y="1971.4536">FRC09: Schedule a Class</text></g><g id="elem_FRC10: Schedule of Extra Class"><ellipse cx="414.7766" cy="2066.2553" fill="#F1F1F1" rx="169.2766" ry="36.2553" style="stroke:#181818;stroke-width:0.5;"/><text fill="#000000" font-family="sans-serif" font-size="20" lengthAdjust="spacing" textLength="299" x="265.2766" y="2071.8139">FRC10: Schedule of Extra Class</text></g><g id="elem_FRC11: Update Schedule of Class"><ellipse cx="415.1642" cy="2176.6328" fill="#F1F1F1" rx="178.6642" ry="38.1328" style="stroke:#181818;stroke-width:0.5;"/><text fill="#000000" font-family="sans-serif" font-size="20" lengthAdjust="spacing" textLength="319" x="255.6642" y="2182.1914">FRC11: Update Schedule of Class</text></g><g id="elem_FRE01: Create Exam"><ellipse cx="415.1425" cy="2276.4285" fill="#F1F1F1" rx="122.6425" ry="26.9285" style="stroke:#181818;stroke-width:0.5;"/><text fill="#000000" font-family="sans-serif" font-size="20" lengthAdjust="spacing" textLength="194" x="315.1425" y="2283.3465">FRE01: Create Exam</text></g><g id="elem_FRE02: List Exams"><ellipse cx="415.2289" cy="2364.4458" fill="#F1F1F1" rx="115.2289" ry="25.4458" style="stroke:#181818;stroke-width:0.5;"/><text fill="#000000" font-family="sans-serif" font-size="20" lengthAdjust="spacing" textLength="176" x="324.2289" y="2371.3638">FRE02: List Exams</text></g><g id="elem_FRE03: List Course Exams"><ellipse cx="414.9245" cy="1678.6849" fill="#F1F1F1" rx="146.4245" ry="31.6849" style="stroke:#181818;stroke-width:0.5;"/><text fill="#000000" font-family="sans-serif" font-size="20" lengthAdjust="spacing" textLength="249" x="287.4245" y="1685.6029">FRE03: List Course Exams</text></g><g id="elem_FRE04: Take Exam"><ellipse cx="414.9486" cy="2450.6897" fill="#F1F1F1" rx="116.4486" ry="25.6897" style="stroke:#181818;stroke-width:0.5;"/><text fill="#000000" font-family="sans-serif" font-size="20" lengthAdjust="spacing" textLength="179" x="322.4486" y="2457.6077">FRE04: Take Exam</text></g><g id="elem_FRE05: List Grades"><ellipse cx="414.8566" cy="2537.2713" fill="#F1F1F1" rx="116.8566" ry="25.7713" style="stroke:#181818;stroke-width:0.5;"/><text fill="#000000" font-family="sans-serif" font-size="20" lengthAdjust="spacing" textLength="180" x="321.8566" y="2544.1893">FRE05: List Grades</text></g><g id="elem_FRE06: List Course Grades"><ellipse cx="415.2053" cy="1866.5411" fill="#F1F1F1" rx="148.2053" ry="32.0411" style="stroke:#181818;stroke-width:0.5;"/><text fill="#000000" font-family="sans-serif" font-size="20" lengthAdjust="spacing" textLength="253" x="285.7053" y="1873.459">FRE06: List Course Grades</text></g><g id="elem_FRB01: Create Board"><ellipse cx="414.8191" cy="33.2638" fill="#F1F1F1" rx="124.3191" ry="27.2638" style="stroke:#181818;stroke-width:0.5;"/><text fill="#000000" font-family="sans-serif" font-size="20" lengthAdjust="spacing" textLength="198" x="312.8191" y="40.1818">FRB01: Create Board</text></g><g id="elem_FRB02: Share Board"><ellipse cx="415.061" cy="122.5122" fill="#F1F1F1" rx="120.561" ry="26.5122" style="stroke:#181818;stroke-width:0.5;"/><text fill="#000000" font-family="sans-serif" font-size="20" lengthAdjust="spacing" textLength="189" x="317.561" y="129.4302">FRB02: Share Board</text></g><g id="elem_FRB04: Create Post-it"><ellipse cx="415.1263" cy="212.5253" fill="#F1F1F1" rx="128.1263" ry="28.0253" style="stroke:#181818;stroke-width:0.5;"/><text fill="#000000" font-family="sans-serif" font-size="20" lengthAdjust="spacing" textLength="207" x="308.6263" y="219.4432">FRB04: Create Post-it</text></g><g id="elem_FRB05: Change Post-it"><ellipse cx="414.9086" cy="304.3817" fill="#F1F1F1" rx="132.4086" ry="28.8817" style="stroke:#181818;stroke-width:0.5;"/><text fill="#000000" font-family="sans-serif" font-size="20" lengthAdjust="spacing" textLength="217" x="303.4086" y="311.2997">FRB05: Change Post-it</text></g><g id="elem_FRB06: Undo Post-it Change"><ellipse cx="415.1911" cy="402.4382" fill="#F1F1F1" rx="157.6911" ry="33.9382" style="stroke:#181818;stroke-width:0.5;"/><text fill="#000000" font-family="sans-serif" font-size="20" lengthAdjust="spacing" textLength="274" x="276.8354" y="408.6552">FRB06: Undo Post-it Change</text></g><g id="elem_FRB07: View Board History"><ellipse cx="415.0979" cy="503.7196" fill="#F1F1F1" rx="149.0979" ry="32.2196" style="stroke:#181818;stroke-width:0.5;"/><text fill="#000000" font-family="sans-serif" font-size="20" lengthAdjust="spacing" textLength="255" x="284.6133" y="510.6314">FRB07: View Board History</text></g><g id="elem_FRB08: Archive Board"><ellipse cx="415.1263" cy="901.5253" fill="#F1F1F1" rx="128.1263" ry="28.0253" style="stroke:#181818;stroke-width:0.5;"/><text fill="#000000" font-family="sans-serif" font-size="20" lengthAdjust="spacing" textLength="207" x="308.6263" y="908.4432">FRB08: Archive Board</text></g><g id="elem_FRM01: Schedule a Meeting"><ellipse cx="415.1425" cy="603.5285" fill="#F1F1F1" rx="153.1425" ry="33.0285" style="stroke:#181818;stroke-width:0.5;"/><text fill="#000000" font-family="sans-serif" font-size="20" lengthAdjust="spacing" textLength="264" x="280.953" y="610.1133">FRM01: Schedule a Meeting</text></g><g id="elem_FRM02: Cancel Meeting"><ellipse cx="414.8706" cy="701.5741" fill="#F1F1F1" rx="135.8706" ry="29.5741" style="stroke:#181818;stroke-width:0.5;"/><text fill="#000000" font-family="sans-serif" font-size="20" lengthAdjust="spacing" textLength="225" x="299.3706" y="708.4921">FRM02: Cancel Meeting</text></g><g id="elem_FRM03: Accept/Reject Meeting"><ellipse cx="414.941" cy="802.2882" fill="#F1F1F1" rx="166.941" ry="35.7882" style="stroke:#181818;stroke-width:0.5;"/><text fill="#000000" font-family="sans-serif" font-size="20" lengthAdjust="spacing" textLength="294" x="267.941" y="807.8468">FRM03: Accept/Reject Meeting</text></g><g id="elem_FRM04: List Participants"><ellipse cx="414.9865" cy="2747.5973" fill="#F1F1F1" rx="138.4865" ry="30.0973" style="stroke:#181818;stroke-width:0.5;"/><text fill="#000000" font-family="sans-serif" font-size="20" lengthAdjust="spacing" textLength="231" x="296.4865" y="2754.5153">FRM04: List Participants</text></g><!--link Manager to FRC01: Create a Course --><g id="link_Manager_FRC01: Create a Course "><path d="M106.26,1349.5 C146.21,1349.5 209.85,1349.5 268.91,1349.5 " fill="none" id="Manager-to-FRC01: Create a Course " style="stroke:#181818;stroke-width:1.0;"/><polygon fill="#181818" points="273.61,1349.5,264.61,1345.5,268.61,1349.5,264.61,1353.5,273.61,1349.5" style="stroke:#181818;stroke-width:1.0;"/></g><!--link Manager to FRC02: Open/Close Enrollments in Course--><g id="link_Manager_FRC02: Open/Close Enrollments in Course"><path d="M106.25,1367.21 C128.86,1376.82 157.73,1388.54 184,1397.5 C211.03,1406.72 240.17,1415.62 268.33,1423.69 " fill="none" id="Manager-to-FRC02: Open/Close Enrollments in Course" style="stroke:#181818;stroke-width:1.0;"/><polygon fill="#181818" points="272.95,1425.3,265.3902,1418.9873,268.1413,1423.9302,263.1985,1426.6813,272.95,1425.3" style="stroke:#181818;stroke-width:1.0;"/></g><!--link Manager to FRC03: Open/Close a Course--><g id="link_Manager_FRC03: Open/Close a Course"><path d="M83.21,1391.9 C101.93,1432.53 135.77,1492.41 184,1525.5 C207.74,1541.78 235.78,1553.04 263.99,1560.81 " fill="none" id="Manager-to-FRC03: Open/Close a Course" style="stroke:#181818;stroke-width:1.0;"/><polygon fill="#181818" points="268.63,1562.32,260.9794,1556.1178,263.8019,1561.0201,258.8996,1563.8427,268.63,1562.32" style="stroke:#181818;stroke-width:1.0;"/></g><!--link Manager to FRC04: Set Course Teachers--><g id="link_Manager_FRC04: Set Course Teachers"><path d="M70.21,1307.27 C79.08,1241.77 105.82,1116.31 184,1049.5 C205.86,1030.82 233.07,1018.55 261.03,1010.58 " fill="none" id="Manager-to-FRC04: Set Course Teachers" style="stroke:#181818;stroke-width:1.0;"/><polygon fill="#181818" points="265.63,1009.05,255.8913,1007.5809,260.8092,1010.3764,258.0136,1015.2943,265.63,1009.05" style="stroke:#181818;stroke-width:1.0;"/></g><!--link Manager to FRC05: List Courses--><g id="link_Manager_FRC05: List Courses"><path d="M66,1391.74 C68.43,1470.39 85.57,1639.29 184,1727.5 C212.04,1752.63 249.87,1765.47 286.74,1771.63 " fill="none" id="Manager-to-FRC05: List Courses" style="stroke:#181818;stroke-width:1.0;"/><polygon fill="#181818" points="291.65,1772.56,283.3745,1767.22,286.7098,1771.789,282.1408,1775.1243,291.65,1772.56" style="stroke:#181818;stroke-width:1.0;"/></g><!--link Student to FRC05: List Courses--><g id="link_Student_FRC05: List Courses"><path d="M71.09,2408.41 C87.73,2273.77 141.9,1859.98 184,1817.5 C211.16,1790.09 249.76,1776.82 287.6,1770.96 " fill="none" id="Student-to-FRC05: List Courses" style="stroke:#181818;stroke-width:1.0;"/><polygon fill="#181818" points="292.18,1770.15,282.7004,1767.4783,287.2314,1770.8651,283.8446,1775.3961,292.18,1770.15" style="stroke:#181818;stroke-width:1.0;"/></g><!--link Teacher to FRC05: List Courses--><g id="link_Teacher_FRC05: List Courses"><path d="M88.74,1922.15 C109.14,1888.39 142.27,1842.73 184,1817.5 C215.89,1798.22 254.41,1786.97 290.73,1780.48 " fill="none" id="Teacher-to-FRC05: List Courses" style="stroke:#181818;stroke-width:1.0;"/><polygon fill="#181818" points="295.53,1779.48,285.9833,1777.059,290.602,1780.3252,287.3357,1784.9438,295.53,1779.48" style="stroke:#181818;stroke-width:1.0;"/></g><!--link Manager to FRC06: Bulk Enroll Students in Course--><g id="link_Manager_FRC06: Bulk Enroll Students in Course"><path d="M82.85,1307.26 C101.49,1265.97 135.44,1204.38 184,1169.5 C203.16,1155.74 225.23,1145.13 247.96,1136.95 " fill="none" id="Manager-to-FRC06: Bulk Enroll Students in Course" style="stroke:#181818;stroke-width:1.0;"/><polygon fill="#181818" points="252.44,1135.03,242.6228,1134.241,247.7229,1136.6881,245.2758,1141.7883,252.44,1135.03" style="stroke:#181818;stroke-width:1.0;"/></g><!--link Student to FRC07: Request Enrollment in Course--><g id="link_Student_FRC07: Request Enrollment in Course"><path d="M93.92,2492.84 C115.26,2521.95 147.21,2559.23 184,2581.5 C205.39,2594.45 229.56,2604.58 253.99,2612.49 " fill="none" id="Student-to-FRC07: Request Enrollment in Course" style="stroke:#181818;stroke-width:1.0;"/><polygon fill="#181818" points="258.54,2614.25,251.1773,2607.7086,253.7756,2612.7334,248.7507,2615.3317,258.54,2614.25" style="stroke:#181818;stroke-width:1.0;"/></g><!--link Manager to FRC08: Approve/Reject Enlistment in Course--><g id="link_Manager_FRC08: Approve/Reject Enlistment in Course"><path d="M106.28,1331.87 C128.9,1322.28 157.77,1310.57 184,1301.5 C210.23,1292.43 238.42,1283.6 265.78,1275.51 " fill="none" id="Manager-to-FRC08: Approve/Reject Enlistment in Course" style="stroke:#181818;stroke-width:1.0;"/><polygon fill="#181818" points="270.24,1273.9,260.4764,1272.6068,265.4439,1275.3131,262.7375,1280.2806,270.24,1273.9" style="stroke:#181818;stroke-width:1.0;"/></g><!--link Teacher to FRC09: Schedule a Class--><g id="link_Teacher_FRC09: Schedule a Class"><path d="M103.24,1964.5 C142.82,1964.5 207.9,1964.5 268.3,1964.5 " fill="none" id="Teacher-to-FRC09: Schedule a Class" style="stroke:#181818;stroke-width:1.0;"/><polygon fill="#181818" points="273.13,1964.5,264.13,1960.5,268.13,1964.5,264.13,1968.5,273.13,1964.5" style="stroke:#181818;stroke-width:1.0;"/></g><!--link Teacher to FRC10: Schedule of Extra Class--><g id="link_Teacher_FRC10: Schedule of Extra Class"><path d="M103.45,1981.48 C126.37,1991.44 156.5,2003.74 184,2012.5 C216.33,2022.8 251.77,2032.08 284.95,2039.93 " fill="none" id="Teacher-to-FRC10: Schedule of Extra Class" style="stroke:#181818;stroke-width:1.0;"/><polygon fill="#181818" points="289.68,2041.27,281.8354,2035.315,284.8129,2040.1248,280.0031,2043.1023,289.68,2041.27" style="stroke:#181818;stroke-width:1.0;"/></g><!--link Teacher to FRC11: Update Schedule of Class--><g id="link_Teacher_FRC11: Update Schedule of Class"><path d="M87.24,2006.79 C107.34,2042.48 140.85,2092.17 184,2120.5 C206.45,2135.24 232.43,2146.11 258.67,2154.11 " fill="none" id="Teacher-to-FRC11: Update Schedule of Class" style="stroke:#181818;stroke-width:1.0;"/><polygon fill="#181818" points="263.27,2155.78,255.7726,2149.3933,258.475,2154.363,253.5054,2157.0653,263.27,2155.78" style="stroke:#181818;stroke-width:1.0;"/></g><!--link Teacher to FRE01: Create Exam--><g id="link_Teacher_FRE01: Create Exam"><path d="M72.19,2006.76 C83.32,2066.76 112.62,2175.65 184,2232.5 C212.9,2255.52 250.28,2267.74 286.46,2273.93 " fill="none" id="Teacher-to-FRE01: Create Exam" style="stroke:#181818;stroke-width:1.0;"/><polygon fill="#181818" points="291.25,2274.87,283.0072,2269.4797,286.3146,2274.0689,281.7254,2277.3763,291.25,2274.87" style="stroke:#181818;stroke-width:1.0;"/></g><!--link Student to FRE02: List Exams--><g id="link_Student_FRE02: List Exams"><path d="M101.91,2435.66 C125.04,2426.55 155.92,2415.18 184,2407.5 C225.64,2396.1 272.34,2386.76 312.73,2379.73 " fill="none" id="Student-to-FRE02: List Exams" style="stroke:#181818;stroke-width:1.0;"/><polygon fill="#181818" points="317.64,2378.71,308.0945,2376.2843,312.7115,2379.5528,309.4431,2384.1699,317.64,2378.71" style="stroke:#181818;stroke-width:1.0;"/></g><!--link Teacher to FRE03: List Course Exams--><g id="link_Teacher_FRE03: List Course Exams"><path d="M75.19,1922.42 C89.17,1868.86 121.06,1777.41 184,1728.5 C208.6,1709.38 238.96,1697.21 269.45,1689.56 " fill="none" id="Teacher-to-FRE03: List Course Exams" style="stroke:#181818;stroke-width:1.0;"/><polygon fill="#181818" points="274.15,1688.18,264.4642,1686.3951,269.2886,1689.349,266.3347,1694.1734,274.15,1688.18" style="stroke:#181818;stroke-width:1.0;"/></g><!--link Student to FRE04: Take Exam--><g id="link_Student_FRE04: Take Exam"><path d="M101.93,2450.5 C146.69,2450.5 225.48,2450.5 292.68,2450.5 " fill="none" id="Student-to-FRE04: Take Exam" style="stroke:#181818;stroke-width:1.0;"/><polygon fill="#181818" points="297.32,2450.5,288.32,2446.5,292.32,2450.5,288.32,2454.5,297.32,2450.5" style="stroke:#181818;stroke-width:1.0;"/></g><!--link Student to FRE05: List Grades--><g id="link_Student_FRE05: List Grades"><path d="M101.92,2465.3 C125.06,2474.4 155.94,2485.76 184,2493.5 C225.37,2504.92 271.73,2514.4 311.93,2521.6 " fill="none" id="Student-to-FRE05: List Grades" style="stroke:#181818;stroke-width:1.0;"/><polygon fill="#181818" points="316.81,2522.65,308.6467,2517.14,311.8868,2521.777,307.2498,2525.0171,316.81,2522.65" style="stroke:#181818;stroke-width:1.0;"/></g><!--link Teacher to FRE06: List Course Grades--><g id="link_Teacher_FRE06: List Course Grades"><path d="M103.39,1947.36 C126.3,1937.34 156.43,1925.03 184,1916.5 C219.48,1905.52 258.76,1896.03 294.66,1888.36 " fill="none" id="Teacher-to-FRE06: List Course Grades" style="stroke:#181818;stroke-width:1.0;"/><polygon fill="#181818" points="299.4,1887.15,289.7645,1885.1111,294.5095,1888.1908,291.4298,1892.9359,299.4,1887.15" style="stroke:#181818;stroke-width:1.0;"/></g><!--link BU to FRB01: Create Board--><g id="link_BU_FRB01: Create Board"><path d="M68.58,360.15 C75.23,290.22 99.03,151.15 184,78.5 C211.89,54.66 248.67,42.03 284.61,35.67 " fill="none" id="BU-to-FRB01: Create Board" style="stroke:#181818;stroke-width:1.0;"/><polygon fill="#181818" points="289.37,34.7,279.8314,32.2475,284.4392,35.5289,281.1577,40.1367,289.37,34.7" style="stroke:#181818;stroke-width:1.0;"/></g><!--link BU to FRB02: Share Board--><g id="link_BU_FRB02: Share Board"><path d="M75.01,360.18 C88.78,306.35 120.45,214.62 184,166.5 C213.92,143.85 252.17,131.81 288.85,125.68 " fill="none" id="BU-to-FRB02: Share Board" style="stroke:#181818;stroke-width:1.0;"/><polygon fill="#181818" points="293.72,124.74,284.2036,122.2025,288.782,125.5249,285.4596,130.1033,293.72,124.74" style="stroke:#181818;stroke-width:1.0;"/></g><!--link BU to FRB04: Create Post-it--><g id="link_BU_FRB04: Create Post-it"><path d="M89.29,360.05 C109.81,326.82 142.81,282.22 184,257.5 C214.63,239.12 251.31,228.05 286.28,221.45 " fill="none" id="BU-to-FRB04: Create Post-it" style="stroke:#181818;stroke-width:1.0;"/><polygon fill="#181818" points="290.88,220.42,281.3067,218.1067,285.9618,221.3207,282.7478,225.9759,290.88,220.42" style="stroke:#181818;stroke-width:1.0;"/></g><!--link BU to FRB05: Change Post-it--><g id="link_BU_FRB05: Change Post-it"><path d="M114.74,378.16 C135.66,368.47 160.63,357.89 184,350.5 C221.1,338.77 262.55,329.39 299.93,322.24 " fill="none" id="BU-to-FRB05: Change Post-it" style="stroke:#181818;stroke-width:1.0;"/><polygon fill="#181818" points="304.41,321.2,294.8238,318.9406,299.4969,322.1283,296.3092,326.8015,304.41,321.2" style="stroke:#181818;stroke-width:1.0;"/></g><!--link BU to FRB06: Undo Post-it Change--><g id="link_BU_FRB06: Undo Post-it Change"><path d="M114.75,402.5 C150.69,402.5 201.78,402.5 251.6,402.5 " fill="none" id="BU-to-FRB06: Undo Post-it Change" style="stroke:#181818;stroke-width:1.0;"/><polygon fill="#181818" points="256.35,402.5,247.35,398.5,251.35,402.5,247.35,406.5,256.35,402.5" style="stroke:#181818;stroke-width:1.0;"/></g><!--link BU to FRB07: View Board History--><g id="link_BU_FRB07: View Board History"><path d="M114.84,426.14 C135.78,435.61 160.73,446.02 184,453.5 C218.99,464.75 257.78,474.26 293.39,481.88 " fill="none" id="BU-to-FRB07: View Board History" style="stroke:#181818;stroke-width:1.0;"/><polygon fill="#181818" points="298.07,483.08,290.0837,477.3164,293.1766,482.0528,288.4402,485.1458,298.07,483.08" style="stroke:#181818;stroke-width:1.0;"/></g><!--link BO to FRB08: Archive Board--><g id="link_BO_FRB08: Archive Board"><path d="M124.25,901.5 C166.91,901.5 226.55,901.5 280.65,901.5 " fill="none" id="BO-to-FRB08: Archive Board" style="stroke:#181818;stroke-width:1.0;"/><polygon fill="#181818" points="285.54,901.5,276.54,897.5,280.54,901.5,276.54,905.5,285.54,901.5" style="stroke:#181818;stroke-width:1.0;"/></g><!--link BU to FRM01: Schedule a Meeting--><g id="link_BU_FRM01: Schedule a Meeting"><path d="M88.3,444.75 C108.64,479.1 141.92,526.05 184,552.5 C210.08,568.89 240.72,580.06 270.98,587.65 " fill="none" id="BU-to-FRM01: Schedule a Meeting" style="stroke:#181818;stroke-width:1.0;"/><polygon fill="#181818" points="275.62,589.02,267.8254,582.9997,270.7626,587.8342,265.9281,590.7715,275.62,589.02" style="stroke:#181818;stroke-width:1.0;"/></g><!--link BU to FRM02: Cancel Meeting--><g id="link_BU_FRM02: Cancel Meeting"><path d="M73.78,444.84 C86.49,501.47 117.31,600.82 184,653.5 C210.25,674.23 243.28,686.61 276.06,693.86 " fill="none" id="BU-to-FRM02: Cancel Meeting" style="stroke:#181818;stroke-width:1.0;"/><polygon fill="#181818" points="280.75,695.06,272.7798,689.2741,275.8595,694.0192,271.1145,697.0989,280.75,695.06" style="stroke:#181818;stroke-width:1.0;"/></g><!--link BU to FRM03: Accept/Reject Meeting--><g id="link_BU_FRM03: Accept/Reject Meeting"><path d="M67.78,444.93 C73.22,518.14 95.24,668.05 184,748.5 C203.86,766.5 228.57,778.83 254.36,787.21 " fill="none" id="BU-to-FRM03: Accept/Reject Meeting" style="stroke:#181818;stroke-width:1.0;"/><polygon fill="#181818" points="258.87,788.94,251.4839,782.425,254.1001,787.4405,249.0847,790.0568,258.87,788.94" style="stroke:#181818;stroke-width:1.0;"/></g><!--link Sys to FRM04: List Participants--><g id="link_Sys_FRM04: List Participants"><path d="M99.37,2747.5 C138.92,2747.5 207.42,2747.5 270.43,2747.5 " fill="none" id="Sys-to-FRM04: List Participants" style="stroke:#181818;stroke-width:1.0;"/><polygon fill="#181818" points="275.12,2747.5,266.12,2743.5,270.12,2747.5,266.12,2751.5,275.12,2747.5" style="stroke:#181818;stroke-width:1.0;"/></g><!--SRC=[XPHDSzem48Rl_XKxkRJCm8GGchGwT0Oyf3sK8GDnxnfvmIf2SYKvXFxwheqCTcFeRRtxlDeFhUosKkVSyfqoOeiffBZcXV9FHlkL_8Cm6aOArnwy0IitcOTKMXHU6Xr5R7Lm7dSCk0Co8pRdcc_GLevWH-m5kSY2CzYaz4MAsX-bHpjYKyDjkjZh04yNmPMusfD4qGVw0i4TEk0MGHiF1_ImBfGwbDLBZMaVV8Om4TvOk4bMi-LD7zPaQxFl0nVUWP9R10vxgL916Q8eb0im67m5-FYqZ8Tt36ABt9TWR0fBUNidhiAEt8Z18aTz6oj3o4nRezIE6d8WTH1swkvREduD7JDOKPEXYZ15rukws4yCVaXNmmI5-Lvbmf5NcQva3mocXTg6hkkhR7NUaVwHmH9_5qYddyVrdsbzPZ39SsjUyNQ9lsW5IQgeld-bpKuguHUQ7NdIGbL3LjovzzJTi46PDSpUlBqCqsOaULfkHbFJJSyQUpHxuxlsG2fW52PTXhiEk6_TH8szEuQMv8LlBsQfx_ERvIbsfNbefwcvQL8ZqqOhrSDi1wcDLLQ-oOxO-2HyDiuFf6-7gROuutfp8KoL9JerTJ2mROPswgV4_J4vVAT6Z3qGiZWZvGfPaSdNZXBdPM-DFPaZUgatROGwZBaMgBh3T4yJ8J3tzOQUAFexdh5ncFCpjruAcNDwCBteBm00]--></g></svg>