<?xml version="1.0" encoding="us-ascii" standalone="no"?><svg xmlns="http://www.w3.org/2000/svg" xmlns:xlink="http://www.w3.org/1999/xlink" contentStyleType="text/css" height="1001px" preserveAspectRatio="none" style="width:1332px;height:1001px;background:#FFFFFF;" version="1.1" viewBox="0 0 1332 1001" width="1332px" zoomAndPan="magnify"><defs/><g><rect fill="#FFFFFF" height="773.7188" style="stroke:#181818;stroke-width:1.0;" width="10" x="264.5" y="114.7266"/><rect fill="#FFFFFF" height="508.3906" style="stroke:#181818;stroke-width:1.0;" width="10" x="460.5" y="350.9219"/><rect fill="#FFFFFF" height="102.5313" style="stroke:#181818;stroke-width:1.0;" width="10" x="619.5" y="523.7188"/><rect fill="#FFFFFF" height="58.2656" style="stroke:#181818;stroke-width:1.0;" width="10" x="947" y="655.3828"/><rect fill="#FFFFFF" height="58.2656" style="stroke:#181818;stroke-width:1.0;" width="10" x="1109" y="742.7813"/><rect fill="none" height="90.5313" style="stroke:#000000;stroke-width:1.5;" width="332" x="10" y="217.125"/><line style="stroke:#181818;stroke-width:0.5;stroke-dasharray:5.0,5.0;" x1="53" x2="53" y1="83.5938" y2="906.4453"/><line style="stroke:#181818;stroke-width:0.5;stroke-dasharray:5.0,5.0;" x1="269" x2="269" y1="83.5938" y2="906.4453"/><line style="stroke:#181818;stroke-width:0.5;stroke-dasharray:5.0,5.0;" x1="465" x2="465" y1="83.5938" y2="906.4453"/><line style="stroke:#181818;stroke-width:0.5;stroke-dasharray:5.0,5.0;" x1="624" x2="624" y1="83.5938" y2="906.4453"/><line style="stroke:#181818;stroke-width:0.5;stroke-dasharray:5.0,5.0;" x1="820.5" x2="820.5" y1="83.5938" y2="906.4453"/><line style="stroke:#181818;stroke-width:0.5;stroke-dasharray:5.0,5.0;" x1="951.5" x2="951.5" y1="83.5938" y2="906.4453"/><line style="stroke:#181818;stroke-width:0.5;stroke-dasharray:5.0,5.0;" x1="1113.5" x2="1113.5" y1="83.5938" y2="906.4453"/><line style="stroke:#181818;stroke-width:0.5;stroke-dasharray:5.0,5.0;" x1="1264.5" x2="1264.5" y1="83.5938" y2="906.4453"/><text fill="#000000" font-family="sans-serif" font-size="14" lengthAdjust="spacing" textLength="61" x="20" y="80.292">Manager</text><ellipse cx="53.5" cy="15.7969" fill="#E2E2F0" rx="8" ry="8" style="stroke:#181818;stroke-width:0.5;"/><path d="M53.5,23.7969 L53.5,50.7969 M40.5,31.7969 L66.5,31.7969 M53.5,50.7969 L40.5,65.7969 M53.5,50.7969 L66.5,65.7969 " fill="none" style="stroke:#181818;stroke-width:0.5;"/><text fill="#000000" font-family="sans-serif" font-size="14" lengthAdjust="spacing" textLength="61" x="20" y="918.4404">Manager</text><ellipse cx="53.5" cy="930.2422" fill="#E2E2F0" rx="8" ry="8" style="stroke:#181818;stroke-width:0.5;"/><path d="M53.5,938.2422 L53.5,965.2422 M40.5,946.2422 L66.5,946.2422 M53.5,965.2422 L40.5,980.2422 M53.5,965.2422 L66.5,980.2422 " fill="none" style="stroke:#181818;stroke-width:0.5;"/><rect fill="#E2E2F0" height="46.5938" rx="2.5" ry="2.5" style="stroke:#181818;stroke-width:0.5;" width="125" x="207" y="36"/><text fill="#000000" font-family="sans-serif" font-size="14" font-style="italic" lengthAdjust="spacing" textLength="108" x="215.5" y="55.9951">&#171;presentation&#187;</text><text fill="#000000" font-family="sans-serif" font-size="14" lengthAdjust="spacing" textLength="111" x="214" y="72.292">CreateCourseUI</text><rect fill="#E2E2F0" height="46.5938" rx="2.5" ry="2.5" style="stroke:#181818;stroke-width:0.5;" width="125" x="207" y="905.4453"/><text fill="#000000" font-family="sans-serif" font-size="14" font-style="italic" lengthAdjust="spacing" textLength="108" x="215.5" y="925.4404">&#171;presentation&#187;</text><text fill="#000000" font-family="sans-serif" font-size="14" lengthAdjust="spacing" textLength="111" x="214" y="941.7373">CreateCourseUI</text><rect fill="#E2E2F0" height="46.5938" rx="2.5" ry="2.5" style="stroke:#181818;stroke-width:0.5;" width="185" x="373" y="36"/><text fill="#000000" font-family="sans-serif" font-size="14" font-style="italic" lengthAdjust="spacing" textLength="88" x="421.5" y="55.9951">&#171;aplication&#187;</text><text fill="#000000" font-family="sans-serif" font-size="14" lengthAdjust="spacing" textLength="171" x="380" y="72.292">CreateCourseController</text><rect fill="#E2E2F0" height="46.5938" rx="2.5" ry="2.5" style="stroke:#181818;stroke-width:0.5;" width="185" x="373" y="905.4453"/><text fill="#000000" font-family="sans-serif" font-size="14" font-style="italic" lengthAdjust="spacing" textLength="88" x="421.5" y="925.4404">&#171;aplication&#187;</text><text fill="#000000" font-family="sans-serif" font-size="14" lengthAdjust="spacing" textLength="171" x="380" y="941.7373">CreateCourseController</text><rect fill="#E2E2F0" height="46.5938" rx="2.5" ry="2.5" style="stroke:#181818;stroke-width:0.5;" width="113" x="568" y="36"/><text fill="#000000" font-family="sans-serif" font-size="14" font-style="italic" lengthAdjust="spacing" textLength="68" x="590.5" y="55.9951">&#171;builder&#187;</text><text fill="#000000" font-family="sans-serif" font-size="14" lengthAdjust="spacing" textLength="99" x="575" y="72.292">CourseBuilder</text><rect fill="#E2E2F0" height="46.5938" rx="2.5" ry="2.5" style="stroke:#181818;stroke-width:0.5;" width="113" x="568" y="905.4453"/><text fill="#000000" font-family="sans-serif" font-size="14" font-style="italic" lengthAdjust="spacing" textLength="68" x="590.5" y="925.4404">&#171;builder&#187;</text><text fill="#000000" font-family="sans-serif" font-size="14" lengthAdjust="spacing" textLength="99" x="575" y="941.7373">CourseBuilder</text><rect fill="#E2E2F0" height="46.5938" rx="2.5" ry="2.5" style="stroke:#181818;stroke-width:0.5;" width="86" x="777.5" y="36"/><text fill="#000000" font-family="sans-serif" font-size="14" font-style="italic" lengthAdjust="spacing" textLength="72" x="784.5" y="55.9951">&#171;domain&#187;</text><text fill="#000000" font-family="sans-serif" font-size="14" lengthAdjust="spacing" textLength="49" x="796" y="72.292">Course</text><rect fill="#E2E2F0" height="46.5938" rx="2.5" ry="2.5" style="stroke:#181818;stroke-width:0.5;" width="86" x="777.5" y="905.4453"/><text fill="#000000" font-family="sans-serif" font-size="14" font-style="italic" lengthAdjust="spacing" textLength="72" x="784.5" y="925.4404">&#171;domain&#187;</text><text fill="#000000" font-family="sans-serif" font-size="14" lengthAdjust="spacing" textLength="49" x="796" y="941.7373">Course</text><rect fill="#E2E2F0" height="46.5938" rx="2.5" ry="2.5" style="stroke:#181818;stroke-width:0.5;" width="157" x="873.5" y="36"/><text fill="#000000" font-family="sans-serif" font-size="14" font-style="italic" lengthAdjust="spacing" textLength="100" x="902" y="55.9951">&#171;persistence&#187;</text><text fill="#000000" font-family="sans-serif" font-size="14" lengthAdjust="spacing" textLength="143" x="880.5" y="72.292">PersistenceContext</text><rect fill="#E2E2F0" height="46.5938" rx="2.5" ry="2.5" style="stroke:#181818;stroke-width:0.5;" width="157" x="873.5" y="905.4453"/><text fill="#000000" font-family="sans-serif" font-size="14" font-style="italic" lengthAdjust="spacing" textLength="100" x="902" y="925.4404">&#171;persistence&#187;</text><text fill="#000000" font-family="sans-serif" font-size="14" lengthAdjust="spacing" textLength="143" x="880.5" y="941.7373">PersistenceContext</text><rect fill="#E2E2F0" height="46.5938" rx="2.5" ry="2.5" style="stroke:#181818;stroke-width:0.5;" width="147" x="1040.5" y="36"/><text fill="#000000" font-family="sans-serif" font-size="14" font-style="italic" lengthAdjust="spacing" textLength="68" x="1080" y="55.9951">&#171;factory&#187;</text><text fill="#000000" font-family="sans-serif" font-size="14" lengthAdjust="spacing" textLength="133" x="1047.5" y="72.292">RepositoryFactory</text><rect fill="#E2E2F0" height="46.5938" rx="2.5" ry="2.5" style="stroke:#181818;stroke-width:0.5;" width="147" x="1040.5" y="905.4453"/><text fill="#000000" font-family="sans-serif" font-size="14" font-style="italic" lengthAdjust="spacing" textLength="68" x="1080" y="925.4404">&#171;factory&#187;</text><text fill="#000000" font-family="sans-serif" font-size="14" lengthAdjust="spacing" textLength="133" x="1047.5" y="941.7373">RepositoryFactory</text><text fill="#000000" font-family="sans-serif" font-size="14" font-style="italic" lengthAdjust="spacing" textLength="90" x="1216.5" y="63.9951">&#171;repository&#187;</text><text fill="#000000" font-family="sans-serif" font-size="14" lengthAdjust="spacing" textLength="128" x="1197.5" y="80.292">CourseRepository</text><path d="M1246.5,15 C1246.5,5 1264.5,5 1264.5,5 C1264.5,5 1282.5,5 1282.5,15 L1282.5,41 C1282.5,51 1264.5,51 1264.5,51 C1264.5,51 1246.5,51 1246.5,41 L1246.5,15 " fill="#E2E2F0" style="stroke:#181818;stroke-width:1.5;"/><path d="M1246.5,15 C1246.5,25 1264.5,25 1264.5,25 C1264.5,25 1282.5,25 1282.5,15 " fill="none" style="stroke:#181818;stroke-width:1.5;"/><text fill="#000000" font-family="sans-serif" font-size="14" font-style="italic" lengthAdjust="spacing" textLength="90" x="1216.5" y="918.4404">&#171;repository&#187;</text><text fill="#000000" font-family="sans-serif" font-size="14" lengthAdjust="spacing" textLength="128" x="1197.5" y="934.7373">CourseRepository</text><path d="M1246.5,948.0391 C1246.5,938.0391 1264.5,938.0391 1264.5,938.0391 C1264.5,938.0391 1282.5,938.0391 1282.5,948.0391 L1282.5,974.0391 C1282.5,984.0391 1264.5,984.0391 1264.5,984.0391 C1264.5,984.0391 1246.5,984.0391 1246.5,974.0391 L1246.5,948.0391 " fill="#E2E2F0" style="stroke:#181818;stroke-width:1.5;"/><path d="M1246.5,948.0391 C1246.5,958.0391 1264.5,958.0391 1264.5,958.0391 C1264.5,958.0391 1282.5,958.0391 1282.5,948.0391 " fill="none" style="stroke:#181818;stroke-width:1.5;"/><rect fill="#FFFFFF" height="773.7188" style="stroke:#181818;stroke-width:1.0;" width="10" x="264.5" y="114.7266"/><rect fill="#FFFFFF" height="508.3906" style="stroke:#181818;stroke-width:1.0;" width="10" x="460.5" y="350.9219"/><rect fill="#FFFFFF" height="102.5313" style="stroke:#181818;stroke-width:1.0;" width="10" x="619.5" y="523.7188"/><rect fill="#FFFFFF" height="58.2656" style="stroke:#181818;stroke-width:1.0;" width="10" x="947" y="655.3828"/><rect fill="#FFFFFF" height="58.2656" style="stroke:#181818;stroke-width:1.0;" width="10" x="1109" y="742.7813"/><polygon fill="#181818" points="252.5,110.7266,262.5,114.7266,252.5,118.7266,256.5,114.7266" style="stroke:#181818;stroke-width:1.0;"/><line style="stroke:#181818;stroke-width:1.0;stroke-dasharray:2.0,2.0;" x1="53.5" x2="258.5" y1="114.7266" y2="114.7266"/><text fill="#000000" font-family="sans-serif" font-size="13" lengthAdjust="spacing" textLength="92" x="60.5" y="109.6606">Create Course</text><polygon fill="#181818" points="453.5,139.8594,463.5,143.8594,453.5,147.8594,457.5,143.8594" style="stroke:#181818;stroke-width:1.0;"/><line style="stroke:#181818;stroke-width:1.0;" x1="274.5" x2="459.5" y1="143.8594" y2="143.8594"/><text fill="#000000" font-family="sans-serif" font-size="13" lengthAdjust="spacing" textLength="41" x="281.5" y="138.7935">create</text><polygon fill="#181818" points="64.5,168.9922,54.5,172.9922,64.5,176.9922,60.5,172.9922" style="stroke:#181818;stroke-width:1.0;"/><line style="stroke:#181818;stroke-width:1.0;stroke-dasharray:2.0,2.0;" x1="58.5" x2="263.5" y1="172.9922" y2="172.9922"/><text fill="#000000" font-family="sans-serif" font-size="13" lengthAdjust="spacing" textLength="148" x="70.5" y="167.9263">Ask course information</text><polygon fill="#181818" points="252.5,198.125,262.5,202.125,252.5,206.125,256.5,202.125" style="stroke:#181818;stroke-width:1.0;"/><line style="stroke:#181818;stroke-width:1.0;stroke-dasharray:2.0,2.0;" x1="53.5" x2="258.5" y1="202.125" y2="202.125"/><text fill="#000000" font-family="sans-serif" font-size="13" lengthAdjust="spacing" textLength="187" x="60.5" y="197.0591">ID, name, edition, description</text><path d="M10,217.125 L88,217.125 L88,224.2578 L78,234.2578 L10,234.2578 L10,217.125 " fill="#EEEEEE" style="stroke:#000000;stroke-width:1.5;"/><rect fill="none" height="90.5313" style="stroke:#000000;stroke-width:1.5;" width="332" x="10" y="217.125"/><text fill="#000000" font-family="sans-serif" font-size="13" font-weight="bold" lengthAdjust="spacing" textLength="33" x="25" y="230.1919">loop</text><text fill="#000000" font-family="sans-serif" font-size="11" font-weight="bold" lengthAdjust="spacing" textLength="87" x="103" y="229.3354">[option != 0]</text><polygon fill="#181818" points="64.5,266.5234,54.5,270.5234,64.5,274.5234,60.5,270.5234" style="stroke:#181818;stroke-width:1.0;"/><line style="stroke:#181818;stroke-width:1.0;stroke-dasharray:2.0,2.0;" x1="58.5" x2="263.5" y1="270.5234" y2="270.5234"/><text fill="#000000" font-family="sans-serif" font-size="13" lengthAdjust="spacing" textLength="57" x="70.5" y="250.3247">Show list</text><text fill="#000000" font-family="sans-serif" font-size="13" lengthAdjust="spacing" textLength="57" x="70.5" y="265.4575">of states</text><polygon fill="#181818" points="252.5,295.6563,262.5,299.6563,252.5,303.6563,256.5,299.6563" style="stroke:#181818;stroke-width:1.0;"/><line style="stroke:#181818;stroke-width:1.0;stroke-dasharray:2.0,2.0;" x1="53.5" x2="258.5" y1="299.6563" y2="299.6563"/><text fill="#000000" font-family="sans-serif" font-size="13" lengthAdjust="spacing" textLength="77" x="60.5" y="294.5903">state option</text><polygon fill="#181818" points="448.5,346.9219,458.5,350.9219,448.5,354.9219,452.5,350.9219" style="stroke:#181818;stroke-width:1.0;"/><line style="stroke:#181818;stroke-width:1.0;" x1="274.5" x2="454.5" y1="350.9219" y2="350.9219"/><text fill="#000000" font-family="sans-serif" font-size="13" lengthAdjust="spacing" textLength="155" x="281.5" y="330.7231">createCourse (id, name,</text><text fill="#000000" font-family="sans-serif" font-size="13" lengthAdjust="spacing" textLength="167" x="281.5" y="345.856">edition, description, state)</text><path d="M629,363.9219 L629,403.9219 L978,403.9219 L978,373.9219 L968,363.9219 L629,363.9219 " fill="#FEFFDD" style="stroke:#181818;stroke-width:0.5;"/><path d="M968,363.9219 L968,373.9219 L978,373.9219 L968,363.9219 " fill="#FEFFDD" style="stroke:#181818;stroke-width:0.5;"/><text fill="#000000" font-family="sans-serif" font-size="13" lengthAdjust="spacing" textLength="328" x="635" y="380.9888">CourseBuiler is use for create entity of type Course</text><text fill="#000000" font-family="sans-serif" font-size="13" lengthAdjust="spacing" textLength="87" x="639" y="396.1216">on valid state</text><polygon fill="#181818" points="612.5,426.3203,622.5,430.3203,612.5,434.3203,616.5,430.3203" style="stroke:#181818;stroke-width:1.0;"/><line style="stroke:#181818;stroke-width:1.0;" x1="470.5" x2="618.5" y1="430.3203" y2="430.3203"/><text fill="#000000" font-family="sans-serif" font-size="13" lengthAdjust="spacing" textLength="41" x="477.5" y="425.2544">create</text><polygon fill="#181818" points="612.5,455.4531,622.5,459.4531,612.5,463.4531,616.5,459.4531" style="stroke:#181818;stroke-width:1.0;"/><line style="stroke:#181818;stroke-width:1.0;" x1="470.5" x2="618.5" y1="459.4531" y2="459.4531"/><text fill="#000000" font-family="sans-serif" font-size="13" lengthAdjust="spacing" textLength="56" x="477.5" y="454.3872">setId (id)</text><path d="M475,472.4531 L475,497.4531 L691,497.4531 L691,482.4531 L681,472.4531 L475,472.4531 " fill="#FEFFDD" style="stroke:#181818;stroke-width:0.5;"/><path d="M681,472.4531 L681,482.4531 L691,482.4531 L681,472.4531 " fill="#FEFFDD" style="stroke:#181818;stroke-width:0.5;"/><text fill="#000000" font-family="sans-serif" font-size="13" lengthAdjust="spacing" textLength="195" x="481" y="489.52">Set the rest of the information</text><polygon fill="#181818" points="607.5,519.7188,617.5,523.7188,607.5,527.7188,611.5,523.7188" style="stroke:#181818;stroke-width:1.0;"/><line style="stroke:#181818;stroke-width:1.0;" x1="470.5" x2="613.5" y1="523.7188" y2="523.7188"/><text fill="#000000" font-family="sans-serif" font-size="13" lengthAdjust="spacing" textLength="96" x="477.5" y="518.6528">createCourse()</text><polygon fill="#181818" points="808.5,563.9844,818.5,567.9844,808.5,571.9844,812.5,567.9844" style="stroke:#181818;stroke-width:1.0;"/><line style="stroke:#181818;stroke-width:1.0;" x1="629.5" x2="814.5" y1="567.9844" y2="567.9844"/><text fill="#000000" font-family="sans-serif" font-size="13" lengthAdjust="spacing" textLength="155" x="636.5" y="547.7856">createCourse (id, name,</text><text fill="#000000" font-family="sans-serif" font-size="13" lengthAdjust="spacing" textLength="167" x="636.5" y="562.9185">edition, description, state)</text><polygon fill="#181818" points="640.5,593.1172,630.5,597.1172,640.5,601.1172,636.5,597.1172" style="stroke:#181818;stroke-width:1.0;"/><line style="stroke:#181818;stroke-width:1.0;" x1="634.5" x2="819.5" y1="597.1172" y2="597.1172"/><text fill="#000000" font-family="sans-serif" font-size="13" lengthAdjust="spacing" textLength="45" x="646.5" y="592.0513">Course</text><polygon fill="#181818" points="481.5,622.25,471.5,626.25,481.5,630.25,477.5,626.25" style="stroke:#181818;stroke-width:1.0;"/><line style="stroke:#181818;stroke-width:1.0;" x1="475.5" x2="623.5" y1="626.25" y2="626.25"/><text fill="#000000" font-family="sans-serif" font-size="13" lengthAdjust="spacing" textLength="45" x="487.5" y="621.1841">Course</text><polygon fill="#181818" points="935,651.3828,945,655.3828,935,659.3828,939,655.3828" style="stroke:#181818;stroke-width:1.0;"/><line style="stroke:#181818;stroke-width:1.0;" x1="470.5" x2="941" y1="655.3828" y2="655.3828"/><text fill="#000000" font-family="sans-serif" font-size="13" lengthAdjust="spacing" textLength="85" x="477.5" y="650.3169">repositories()</text><polygon fill="#181818" points="1102,680.5156,1112,684.5156,1102,688.5156,1106,684.5156" style="stroke:#181818;stroke-width:1.0;"/><line style="stroke:#181818;stroke-width:1.0;" x1="957" x2="1108" y1="684.5156" y2="684.5156"/><text fill="#000000" font-family="sans-serif" font-size="13" lengthAdjust="spacing" textLength="41" x="964" y="679.4497">create</text><polygon fill="#181818" points="481.5,709.6484,471.5,713.6484,481.5,717.6484,477.5,713.6484" style="stroke:#181818;stroke-width:1.0;"/><line style="stroke:#181818;stroke-width:1.0;" x1="475.5" x2="951" y1="713.6484" y2="713.6484"/><text fill="#000000" font-family="sans-serif" font-size="13" lengthAdjust="spacing" textLength="46" x="487.5" y="708.5825">factory</text><polygon fill="#181818" points="1097,738.7813,1107,742.7813,1097,746.7813,1101,742.7813" style="stroke:#181818;stroke-width:1.0;"/><line style="stroke:#181818;stroke-width:1.0;" x1="470.5" x2="1103" y1="742.7813" y2="742.7813"/><text fill="#000000" font-family="sans-serif" font-size="13" lengthAdjust="spacing" textLength="62" x="477.5" y="737.7153">Courses()</text><polygon fill="#181818" points="1252.5,767.9141,1262.5,771.9141,1252.5,775.9141,1256.5,771.9141" style="stroke:#181818;stroke-width:1.0;"/><line style="stroke:#181818;stroke-width:1.0;" x1="1119" x2="1258.5" y1="771.9141" y2="771.9141"/><text fill="#000000" font-family="sans-serif" font-size="13" lengthAdjust="spacing" textLength="41" x="1126" y="766.8481">create</text><polygon fill="#181818" points="481.5,797.0469,471.5,801.0469,481.5,805.0469,477.5,801.0469" style="stroke:#181818;stroke-width:1.0;"/><line style="stroke:#181818;stroke-width:1.0;" x1="475.5" x2="1113" y1="801.0469" y2="801.0469"/><text fill="#000000" font-family="sans-serif" font-size="13" lengthAdjust="spacing" textLength="112" x="487.5" y="795.981">courseRepository</text><polygon fill="#181818" points="1252.5,826.1797,1262.5,830.1797,1252.5,834.1797,1256.5,830.1797" style="stroke:#181818;stroke-width:1.0;"/><line style="stroke:#181818;stroke-width:1.0;" x1="470.5" x2="1258.5" y1="830.1797" y2="830.1797"/><text fill="#000000" font-family="sans-serif" font-size="13" lengthAdjust="spacing" textLength="84" x="477.5" y="825.1138">save(course)</text><polygon fill="#181818" points="285.5,855.3125,275.5,859.3125,285.5,863.3125,281.5,859.3125" style="stroke:#181818;stroke-width:1.0;"/><line style="stroke:#181818;stroke-width:1.0;" x1="279.5" x2="464.5" y1="859.3125" y2="859.3125"/><text fill="#000000" font-family="sans-serif" font-size="13" lengthAdjust="spacing" textLength="45" x="291.5" y="854.2466">Course</text><polygon fill="#181818" points="64.5,884.4453,54.5,888.4453,64.5,892.4453,60.5,888.4453" style="stroke:#181818;stroke-width:1.0;"/><line style="stroke:#181818;stroke-width:1.0;stroke-dasharray:2.0,2.0;" x1="58.5" x2="268.5" y1="888.4453" y2="888.4453"/><text fill="#000000" font-family="sans-serif" font-size="13" lengthAdjust="spacing" textLength="114" x="70.5" y="883.3794">displayCourseInfo</text><!--SRC=[fLJBRjim4BphAxOt6t20dWtLG9eWW0u5YWQ- -SA8wvYeJ0eaxTP_t-L3rDgMaaDr4FYOsHtEaYjQRopy45gyemNXu34iLBsmNhMg5zh3aqNXyScShCDj4p3qh-lUeaFjXLT6RpQpZ2UZlJLTbwApMLsBlbFj93yolvzK9nDj6DRrMnfD4WBosHo5qWIKSN23-udMAUTHjr4N_lM1mrR3kSRP3ViNziOfikVo8e9Bbq0UXdMzJoCYIU75co11ITV82mGsgsjR9aIhelVmyB0XXzVPnHoZek3g7ERRfWBwg0Q46_rSGnlnPPDsOxmrFBhVq2Q7bDuRUuoUH-1rnkPv1LeSSGKeLS2iGA9hhUeZ8J8wOtemSG6-V8ElSV4-v-l1_86EV8ITDdjmT4_G5UnrshYPOqO8QldX6NEv5qfclJiz9NYL8YzZhEBV6Ax8qORMhNe_U22j-RAjnrj8DqyvE55ASYzh895U-KiW-4i_b6cdWNmvYqx9bBpaO3UVpZJau4Nx0ENGDpASTrdDYEOclQ87Vw1DT74lZ7dXFyd6FLui2xWOc75b8tp30wKmwGN-Jwc6BxzbRaH-33EfcGatG8btycTSOCrW3ULvAdHJLZ3mbIRUKIXcxX5trPw0yZhcXZ9r29vuvY0bQR9YKl_BJORm3GsDGeojQb8wGrwzqPkcDwL_I3oZdITsueoB57Cv0u_TSYmuoyCUEszKl5D9vVfEN1A_eMTICVws-GS0]--></g></svg>