<?xml version="1.0" encoding="us-ascii" standalone="no"?><svg xmlns="http://www.w3.org/2000/svg" xmlns:xlink="http://www.w3.org/1999/xlink" contentStyleType="text/css" height="1195px" preserveAspectRatio="none" style="width:1144px;height:1195px;background:#FFFFFF;" version="1.1" viewBox="0 0 1144 1195" width="1144px" zoomAndPan="magnify"><defs/><g><rect fill="#FFFFFF" height="954.2985" style="stroke:#181818;stroke-width:1.0;" width="10" x="194" y="122.8419"/><rect fill="#FFFFFF" height="592.4143" style="stroke:#181818;stroke-width:1.0;" width="10" x="349" y="453.0201"/><rect fill="#FFFFFF" height="130.5301" style="stroke:#181818;stroke-width:1.0;" width="10" x="526" y="623.5501"/><rect fill="#FFFFFF" height="101.118" style="stroke:#181818;stroke-width:1.0;" width="10" x="806.5" y="785.7862"/><rect fill="#FFFFFF" height="63.412" style="stroke:#181818;stroke-width:1.0;" width="10" x="954" y="918.6103"/><rect fill="none" height="100.8241" style="stroke:#000000;stroke-width:1.5;" width="253" x="10" y="268.3719"/><line style="stroke:#181818;stroke-width:0.5;stroke-dasharray:5.0,5.0;" x1="45" x2="45" y1="89.1358" y2="1095.1404"/><line style="stroke:#181818;stroke-width:0.5;stroke-dasharray:5.0,5.0;" x1="199" x2="199" y1="89.1358" y2="1095.1404"/><line style="stroke:#181818;stroke-width:0.5;stroke-dasharray:5.0,5.0;" x1="353.5" x2="353.5" y1="89.1358" y2="1095.1404"/><line style="stroke:#181818;stroke-width:0.5;stroke-dasharray:5.0,5.0;" x1="531" x2="531" y1="89.1358" y2="1095.1404"/><line style="stroke:#181818;stroke-width:0.5;stroke-dasharray:5.0,5.0;" x1="690.5" x2="690.5" y1="89.1358" y2="1095.1404"/><line style="stroke:#181818;stroke-width:0.5;stroke-dasharray:5.0,5.0;" x1="811.5" x2="811.5" y1="89.1358" y2="1095.1404"/><line style="stroke:#181818;stroke-width:0.5;stroke-dasharray:5.0,5.0;" x1="958.5" x2="958.5" y1="89.1358" y2="1095.1404"/><line style="stroke:#181818;stroke-width:0.5;stroke-dasharray:5.0,5.0;" x1="1089.5" x2="1089.5" y1="89.1358" y2="1095.1404"/><text fill="#000000" font-family="FG Virgil" font-size="14" lengthAdjust="spacing" textLength="44" x="20" y="85.0339">Admin</text><ellipse cx="45" cy="18.5679" fill="#E3E3E3" rx="8" ry="8" style="stroke:#181818;stroke-width:0.5;"/><path d="M45,26.5679 L45,53.5679 M32,34.5679 L58,34.5679 M45,53.5679 L32,68.5679 M45,53.5679 L58,68.5679 " fill="none" style="stroke:#181818;stroke-width:0.5;"/><text fill="#000000" font-family="FG Virgil" font-size="14" lengthAdjust="spacing" textLength="44" x="20" y="1109.1063">Admin</text><ellipse cx="45" cy="1121.7083" fill="#E3E3E3" rx="8" ry="8" style="stroke:#181818;stroke-width:0.5;"/><path d="M45,1129.7083 L45,1156.7083 M32,1137.7083 L58,1137.7083 M45,1156.7083 L32,1171.7083 M45,1156.7083 L58,1171.7083 " fill="none" style="stroke:#181818;stroke-width:0.5;"/><rect fill="#E3E3E3" height="52.1358" rx="2.5" ry="2.5" style="stroke:#181818;stroke-width:0.5;" width="108" x="145" y="36"/><text fill="#000000" font-family="FG Virgil" font-size="14" font-style="italic" lengthAdjust="spacing" textLength="94" x="152" y="57.9659">&#171;presentation&#187;</text><text fill="#000000" font-family="FG Virgil" font-size="14" lengthAdjust="spacing" textLength="73" x="162.5" y="77.0339">AddUserUI</text><rect fill="#E3E3E3" height="52.1358" rx="2.5" ry="2.5" style="stroke:#181818;stroke-width:0.5;" width="108" x="145" y="1094.1404"/><text fill="#000000" font-family="FG Virgil" font-size="14" font-style="italic" lengthAdjust="spacing" textLength="94" x="152" y="1116.1063">&#171;presentation&#187;</text><text fill="#000000" font-family="FG Virgil" font-size="14" lengthAdjust="spacing" textLength="73" x="162.5" y="1135.1742">AddUserUI</text><rect fill="#E3E3E3" height="52.1358" rx="2.5" ry="2.5" style="stroke:#181818;stroke-width:0.5;" width="139" x="284.5" y="36"/><text fill="#000000" font-family="FG Virgil" font-size="14" font-style="italic" lengthAdjust="spacing" textLength="85" x="311.5" y="57.9659">&#171;application&#187;</text><text fill="#000000" font-family="FG Virgil" font-size="14" lengthAdjust="spacing" textLength="125" x="291.5" y="77.0339">AddUserController</text><rect fill="#E3E3E3" height="52.1358" rx="2.5" ry="2.5" style="stroke:#181818;stroke-width:0.5;" width="139" x="284.5" y="1094.1404"/><text fill="#000000" font-family="FG Virgil" font-size="14" font-style="italic" lengthAdjust="spacing" textLength="85" x="311.5" y="1116.1063">&#171;application&#187;</text><text fill="#000000" font-family="FG Virgil" font-size="14" lengthAdjust="spacing" textLength="125" x="291.5" y="1135.1742">AddUserController</text><rect fill="#E3E3E3" height="52.1358" rx="2.5" ry="2.5" style="stroke:#181818;stroke-width:0.5;" width="94" x="484" y="36"/><text fill="#000000" font-family="FG Virgil" font-size="14" font-style="italic" lengthAdjust="spacing" textLength="59" x="501.5" y="57.9659">&#171;builder&#187;</text><text fill="#000000" font-family="FG Virgil" font-size="14" lengthAdjust="spacing" textLength="80" x="491" y="77.0339">UserBuilder</text><rect fill="#E3E3E3" height="52.1358" rx="2.5" ry="2.5" style="stroke:#181818;stroke-width:0.5;" width="94" x="484" y="1094.1404"/><text fill="#000000" font-family="FG Virgil" font-size="14" font-style="italic" lengthAdjust="spacing" textLength="59" x="501.5" y="1116.1063">&#171;builder&#187;</text><text fill="#000000" font-family="FG Virgil" font-size="14" lengthAdjust="spacing" textLength="80" x="491" y="1135.1742">UserBuilder</text><rect fill="#E3E3E3" height="52.1358" rx="2.5" ry="2.5" style="stroke:#181818;stroke-width:0.5;" width="79" x="651.5" y="36"/><text fill="#000000" font-family="FG Virgil" font-size="14" font-style="italic" lengthAdjust="spacing" textLength="62" x="660" y="57.9659">&#171;domain&#187;</text><text fill="#000000" font-family="FG Virgil" font-size="14" lengthAdjust="spacing" textLength="65" x="658.5" y="77.0339">user:User</text><rect fill="#E3E3E3" height="52.1358" rx="2.5" ry="2.5" style="stroke:#181818;stroke-width:0.5;" width="79" x="651.5" y="1094.1404"/><text fill="#000000" font-family="FG Virgil" font-size="14" font-style="italic" lengthAdjust="spacing" textLength="62" x="660" y="1116.1063">&#171;domain&#187;</text><text fill="#000000" font-family="FG Virgil" font-size="14" lengthAdjust="spacing" textLength="65" x="658.5" y="1135.1742">user:User</text><rect fill="#E3E3E3" height="52.1358" rx="2.5" ry="2.5" style="stroke:#181818;stroke-width:0.5;" width="142" x="740.5" y="36"/><text fill="#000000" font-family="FG Virgil" font-size="14" font-style="italic" lengthAdjust="spacing" textLength="84" x="769.5" y="57.9659">&#171;persistence&#187;</text><text fill="#000000" font-family="FG Virgil" font-size="14" lengthAdjust="spacing" textLength="128" x="747.5" y="77.0339">PersistenceContext</text><rect fill="#E3E3E3" height="52.1358" rx="2.5" ry="2.5" style="stroke:#181818;stroke-width:0.5;" width="142" x="740.5" y="1094.1404"/><text fill="#000000" font-family="FG Virgil" font-size="14" font-style="italic" lengthAdjust="spacing" textLength="84" x="769.5" y="1116.1063">&#171;persistence&#187;</text><text fill="#000000" font-family="FG Virgil" font-size="14" lengthAdjust="spacing" textLength="128" x="747.5" y="1135.1742">PersistenceContext</text><rect fill="#E3E3E3" height="52.1358" rx="2.5" ry="2.5" style="stroke:#181818;stroke-width:0.5;" width="133" x="892.5" y="36"/><text fill="#000000" font-family="FG Virgil" font-size="14" font-style="italic" lengthAdjust="spacing" textLength="58" x="930" y="57.9659">&#171;factory&#187;</text><text fill="#000000" font-family="FG Virgil" font-size="14" lengthAdjust="spacing" textLength="119" x="899.5" y="77.0339">RepositoryFactory</text><rect fill="#E3E3E3" height="52.1358" rx="2.5" ry="2.5" style="stroke:#181818;stroke-width:0.5;" width="133" x="892.5" y="1094.1404"/><text fill="#000000" font-family="FG Virgil" font-size="14" font-style="italic" lengthAdjust="spacing" textLength="58" x="930" y="1116.1063">&#171;factory&#187;</text><text fill="#000000" font-family="FG Virgil" font-size="14" lengthAdjust="spacing" textLength="119" x="899.5" y="1135.1742">RepositoryFactory</text><text fill="#000000" font-family="FG Virgil" font-size="14" font-style="italic" lengthAdjust="spacing" textLength="79" x="1047" y="65.9659">&#171;repository&#187;</text><text fill="#000000" font-family="FG Virgil" font-size="14" lengthAdjust="spacing" textLength="102" x="1035.5" y="85.0339">UserRepository</text><path d="M1071.5,15 C1071.5,5 1089.5,5 1089.5,5 C1089.5,5 1107.5,5 1107.5,15 L1107.5,41 C1107.5,51 1089.5,51 1089.5,51 C1089.5,51 1071.5,51 1071.5,41 L1071.5,15 " fill="#E3E3E3" style="stroke:#181818;stroke-width:1.5;"/><path d="M1071.5,15 C1071.5,25 1089.5,25 1089.5,25 C1089.5,25 1107.5,25 1107.5,15 " fill="none" style="stroke:#181818;stroke-width:1.5;"/><text fill="#000000" font-family="FG Virgil" font-size="14" font-style="italic" lengthAdjust="spacing" textLength="79" x="1047" y="1109.1063">&#171;repository&#187;</text><text fill="#000000" font-family="FG Virgil" font-size="14" lengthAdjust="spacing" textLength="102" x="1035.5" y="1128.1742">UserRepository</text><path d="M1071.5,1142.2762 C1071.5,1132.2762 1089.5,1132.2762 1089.5,1132.2762 C1089.5,1132.2762 1107.5,1132.2762 1107.5,1142.2762 L1107.5,1168.2762 C1107.5,1178.2762 1089.5,1178.2762 1089.5,1178.2762 C1089.5,1178.2762 1071.5,1178.2762 1071.5,1168.2762 L1071.5,1142.2762 " fill="#E3E3E3" style="stroke:#181818;stroke-width:1.5;"/><path d="M1071.5,1142.2762 C1071.5,1152.2762 1089.5,1152.2762 1089.5,1152.2762 C1089.5,1152.2762 1107.5,1152.2762 1107.5,1142.2762 " fill="none" style="stroke:#181818;stroke-width:1.5;"/><rect fill="#FFFFFF" height="954.2985" style="stroke:#181818;stroke-width:1.0;" width="10" x="194" y="122.8419"/><rect fill="#FFFFFF" height="592.4143" style="stroke:#181818;stroke-width:1.0;" width="10" x="349" y="453.0201"/><rect fill="#FFFFFF" height="130.5301" style="stroke:#181818;stroke-width:1.0;" width="10" x="526" y="623.5501"/><rect fill="#FFFFFF" height="101.118" style="stroke:#181818;stroke-width:1.0;" width="10" x="806.5" y="785.7862"/><rect fill="#FFFFFF" height="63.412" style="stroke:#181818;stroke-width:1.0;" width="10" x="954" y="918.6103"/><polygon fill="#181818" points="182,118.8419,192,122.8419,182,126.8419,186,122.8419" style="stroke:#181818;stroke-width:1.0;"/><line style="stroke:#181818;stroke-width:1.0;stroke-dasharray:2.0,2.0;" x1="45" x2="188" y1="122.8419" y2="122.8419"/><text fill="#000000" font-family="FG Virgil" font-size="13" lengthAdjust="spacing" textLength="55" x="52" y="117.0328">Add User</text><polygon fill="#181818" points="342,150.5479,352,154.5479,342,158.5479,346,154.5479" style="stroke:#181818;stroke-width:1.0;"/><line style="stroke:#181818;stroke-width:1.0;" x1="204" x2="348" y1="154.5479" y2="154.5479"/><text fill="#000000" font-family="FG Virgil" font-size="13" lengthAdjust="spacing" textLength="37" x="211" y="148.7389">create</text><polygon fill="#181818" points="56,182.2539,46,186.2539,56,190.2539,52,186.2539" style="stroke:#181818;stroke-width:1.0;"/><line style="stroke:#181818;stroke-width:1.0;stroke-dasharray:2.0,2.0;" x1="50" x2="193" y1="186.2539" y2="186.2539"/><text fill="#000000" font-family="FG Virgil" font-size="13" lengthAdjust="spacing" textLength="124" x="62" y="180.4449">Ask user information</text><polygon fill="#181818" points="182,249.3719,192,253.3719,182,257.3719,186,253.3719" style="stroke:#181818;stroke-width:1.0;"/><line style="stroke:#181818;stroke-width:1.0;stroke-dasharray:2.0,2.0;" x1="45" x2="188" y1="253.3719" y2="253.3719"/><text fill="#000000" font-family="FG Virgil" font-size="13" lengthAdjust="spacing" textLength="125" x="52" y="212.1509">Usernane, Password,</text><text fill="#000000" font-family="FG Virgil" font-size="13" lengthAdjust="spacing" textLength="68" x="52" y="229.8569">First Name,</text><text fill="#000000" font-family="FG Virgil" font-size="13" lengthAdjust="spacing" textLength="106" x="52" y="247.5629">Last Name, E-Mail</text><path d="M10,268.3719 L83,268.3719 L83,278.0779 L73,288.0779 L10,288.0779 L10,268.3719 " fill="#EEEEEE" style="stroke:#000000;stroke-width:1.5;"/><rect fill="none" height="100.8241" style="stroke:#000000;stroke-width:1.5;" width="253" x="10" y="268.3719"/><text fill="#000000" font-family="FG Virgil" font-size="13" font-weight="bold" lengthAdjust="spacing" textLength="28" x="25" y="283.2689">loop</text><text fill="#000000" font-family="FG Virgil" font-size="11" font-weight="bold" lengthAdjust="spacing" textLength="65" x="98" y="282.1308">[option != 0]</text><polygon fill="#181818" points="56,325.49,46,329.49,56,333.49,52,329.49" style="stroke:#181818;stroke-width:1.0;"/><line style="stroke:#181818;stroke-width:1.0;stroke-dasharray:2.0,2.0;" x1="50" x2="193" y1="329.49" y2="329.49"/><text fill="#000000" font-family="FG Virgil" font-size="13" lengthAdjust="spacing" textLength="57" x="62" y="305.975">Show List</text><text fill="#000000" font-family="FG Virgil" font-size="13" lengthAdjust="spacing" textLength="79" x="62" y="323.681">of Role Types</text><polygon fill="#181818" points="182,357.196,192,361.196,182,365.196,186,361.196" style="stroke:#181818;stroke-width:1.0;"/><line style="stroke:#181818;stroke-width:1.0;stroke-dasharray:2.0,2.0;" x1="45" x2="188" y1="361.196" y2="361.196"/><text fill="#000000" font-family="FG Virgil" font-size="13" lengthAdjust="spacing" textLength="58" x="52" y="355.387">Role Type</text><polygon fill="#181818" points="337,449.0201,347,453.0201,337,457.0201,341,453.0201" style="stroke:#181818;stroke-width:1.0;"/><line style="stroke:#181818;stroke-width:1.0;" x1="204" x2="343" y1="453.0201" y2="453.0201"/><text fill="#000000" font-family="FG Virgil" font-size="13" lengthAdjust="spacing" textLength="118" x="211" y="394.093">addUser(username,</text><text fill="#000000" font-family="FG Virgil" font-size="13" lengthAdjust="spacing" textLength="126" x="211" y="411.799">password, firstName,</text><text fill="#000000" font-family="FG Virgil" font-size="13" lengthAdjust="spacing" textLength="98" x="211" y="429.505">lastName, email,</text><text fill="#000000" font-family="FG Virgil" font-size="13" lengthAdjust="spacing" textLength="33" x="211" y="447.2111">roles)</text><path d="M536,466.0201 L536,493.0201 L1013,493.0201 L1013,476.0201 L1003,466.0201 L536,466.0201 " fill="#FAFAFA" style="stroke:#181818;stroke-width:0.5;"/><path d="M1003,466.0201 L1003,476.0201 L1013,476.0201 L1003,466.0201 " fill="#FAFAFA" style="stroke:#181818;stroke-width:0.5;"/><text fill="#000000" font-family="FG Virgil" font-size="13" lengthAdjust="spacing" textLength="456" x="542" y="484.9171">UserBuilder &#233; usado para criar uma entidade do tipo User num estado v&#225;lido</text><polygon fill="#181818" points="519,518.4321,529,522.4321,519,526.4321,523,522.4321" style="stroke:#181818;stroke-width:1.0;"/><line style="stroke:#181818;stroke-width:1.0;" x1="359" x2="525" y1="522.4321" y2="522.4321"/><text fill="#000000" font-family="FG Virgil" font-size="13" lengthAdjust="spacing" textLength="37" x="366" y="516.6231">create</text><polygon fill="#181818" points="519,550.1381,529,554.1381,519,558.1381,523,554.1381" style="stroke:#181818;stroke-width:1.0;"/><line style="stroke:#181818;stroke-width:1.0;" x1="359" x2="525" y1="554.1381" y2="554.1381"/><text fill="#000000" font-family="FG Virgil" font-size="13" lengthAdjust="spacing" textLength="148" x="366" y="548.3291">setUsername(username)</text><path d="M364,567.1381 L364,594.1381 L565,594.1381 L565,577.1381 L555,567.1381 L364,567.1381 " fill="#FAFAFA" style="stroke:#181818;stroke-width:0.5;"/><path d="M555,567.1381 L555,577.1381 L565,577.1381 L555,567.1381 " fill="#FAFAFA" style="stroke:#181818;stroke-width:0.5;"/><text fill="#000000" font-family="FG Virgil" font-size="13" lengthAdjust="spacing" textLength="180" x="370" y="586.0351">Set the rest of the information</text><polygon fill="#181818" points="514,619.5501,524,623.5501,514,627.5501,518,623.5501" style="stroke:#181818;stroke-width:1.0;"/><line style="stroke:#181818;stroke-width:1.0;" x1="359" x2="520" y1="623.5501" y2="623.5501"/><text fill="#000000" font-family="FG Virgil" font-size="13" lengthAdjust="spacing" textLength="73" x="366" y="617.7411">createUser()</text><polygon fill="#181818" points="679,686.6682,689,690.6682,679,694.6682,683,690.6682" style="stroke:#181818;stroke-width:1.0;"/><line style="stroke:#181818;stroke-width:1.0;" x1="536" x2="685" y1="690.6682" y2="690.6682"/><text fill="#000000" font-family="FG Virgil" font-size="13" lengthAdjust="spacing" textLength="107" x="543" y="649.4472">create (username,</text><text fill="#000000" font-family="FG Virgil" font-size="13" lengthAdjust="spacing" textLength="126" x="543" y="667.1532">password, firstName,</text><text fill="#000000" font-family="FG Virgil" font-size="13" lengthAdjust="spacing" textLength="131" x="543" y="684.8592">lastName,email, roles)</text><polygon fill="#181818" points="547,718.3742,537,722.3742,547,726.3742,543,722.3742" style="stroke:#181818;stroke-width:1.0;"/><line style="stroke:#181818;stroke-width:1.0;" x1="541" x2="690" y1="722.3742" y2="722.3742"/><text fill="#000000" font-family="FG Virgil" font-size="13" lengthAdjust="spacing" textLength="26" x="553" y="716.5652">user</text><polygon fill="#181818" points="370,750.0802,360,754.0802,370,758.0802,366,754.0802" style="stroke:#181818;stroke-width:1.0;"/><line style="stroke:#181818;stroke-width:1.0;" x1="364" x2="530" y1="754.0802" y2="754.0802"/><text fill="#000000" font-family="FG Virgil" font-size="13" lengthAdjust="spacing" textLength="26" x="376" y="748.2712">user</text><polygon fill="#181818" points="794.5,781.7862,804.5,785.7862,794.5,789.7862,798.5,785.7862" style="stroke:#181818;stroke-width:1.0;"/><line style="stroke:#181818;stroke-width:1.0;" x1="359" x2="800.5" y1="785.7862" y2="785.7862"/><text fill="#000000" font-family="FG Virgil" font-size="13" lengthAdjust="spacing" textLength="79" x="366" y="779.9772">repositories()</text><path d="M821,798.7862 L821,825.7862 L1092,825.7862 L1092,808.7862 L1082,798.7862 L821,798.7862 " fill="#FAFAFA" style="stroke:#181818;stroke-width:0.5;"/><path d="M1082,798.7862 L1082,808.7862 L1092,808.7862 L1082,798.7862 " fill="#FAFAFA" style="stroke:#181818;stroke-width:0.5;"/><text fill="#000000" font-family="FG Virgil" font-size="13" lengthAdjust="spacing" textLength="250" x="827" y="817.6833">pode criar reposit&#243;rio em mem&#243;ria ou JPA</text><polygon fill="#181818" points="947,851.1983,957,855.1983,947,859.1983,951,855.1983" style="stroke:#181818;stroke-width:1.0;"/><line style="stroke:#181818;stroke-width:1.0;" x1="816.5" x2="953" y1="855.1983" y2="855.1983"/><text fill="#000000" font-family="FG Virgil" font-size="13" lengthAdjust="spacing" textLength="37" x="823.5" y="849.3893">create</text><polygon fill="#181818" points="370,882.9043,360,886.9043,370,890.9043,366,886.9043" style="stroke:#181818;stroke-width:1.0;"/><line style="stroke:#181818;stroke-width:1.0;" x1="364" x2="810.5" y1="886.9043" y2="886.9043"/><text fill="#000000" font-family="FG Virgil" font-size="13" lengthAdjust="spacing" textLength="42" x="376" y="881.0953">factory</text><polygon fill="#181818" points="942,914.6103,952,918.6103,942,922.6103,946,918.6103" style="stroke:#181818;stroke-width:1.0;"/><line style="stroke:#181818;stroke-width:1.0;" x1="359" x2="948" y1="918.6103" y2="918.6103"/><text fill="#000000" font-family="FG Virgil" font-size="13" lengthAdjust="spacing" textLength="40" x="366" y="912.8013">users()</text><polygon fill="#181818" points="1077.5,946.3163,1087.5,950.3163,1077.5,954.3163,1081.5,950.3163" style="stroke:#181818;stroke-width:1.0;"/><line style="stroke:#181818;stroke-width:1.0;" x1="964" x2="1083.5" y1="950.3163" y2="950.3163"/><text fill="#000000" font-family="FG Virgil" font-size="13" lengthAdjust="spacing" textLength="37" x="971" y="944.5073">create</text><polygon fill="#181818" points="370,978.0223,360,982.0223,370,986.0223,366,982.0223" style="stroke:#181818;stroke-width:1.0;"/><line style="stroke:#181818;stroke-width:1.0;" x1="364" x2="958" y1="982.0223" y2="982.0223"/><text fill="#000000" font-family="FG Virgil" font-size="13" lengthAdjust="spacing" textLength="91" x="376" y="976.2133">userRepository</text><polygon fill="#181818" points="1077.5,1009.7284,1087.5,1013.7284,1077.5,1017.7284,1081.5,1013.7284" style="stroke:#181818;stroke-width:1.0;"/><line style="stroke:#181818;stroke-width:1.0;" x1="359" x2="1083.5" y1="1013.7284" y2="1013.7284"/><text fill="#000000" font-family="FG Virgil" font-size="13" lengthAdjust="spacing" textLength="61" x="366" y="1007.9194">save(user)</text><polygon fill="#181818" points="215,1041.4344,205,1045.4344,215,1049.4344,211,1045.4344" style="stroke:#181818;stroke-width:1.0;"/><line style="stroke:#181818;stroke-width:1.0;" x1="209" x2="353" y1="1045.4344" y2="1045.4344"/><text fill="#000000" font-family="FG Virgil" font-size="13" lengthAdjust="spacing" textLength="26" x="221" y="1039.6254">user</text><polygon fill="#181818" points="56,1073.1404,46,1077.1404,56,1081.1404,52,1077.1404" style="stroke:#181818;stroke-width:1.0;"/><line style="stroke:#181818;stroke-width:1.0;stroke-dasharray:2.0,2.0;" x1="50" x2="198" y1="1077.1404" y2="1077.1404"/><text fill="#000000" font-family="FG Virgil" font-size="13" lengthAdjust="spacing" textLength="94" x="62" y="1071.3314">displayUserInfo</text><!--SRC=[ZLR1Rjim3BtxAxXUcW1DktFW1UYsPiZG3SMwxDIBQYknK5ao9BbPFcV7dVS9_R6HiYtBgOF6Xq0o7odoyOdEUU5SDR-wgYHJhYxbPQRBA_iaLCKCAoyBLyha7C8BA9ZATqOunnKuK_EaDvLQwQmmkkI7befbJspBxzrUSZ0ySv4jvnjMIxVKodrdwBhy0h-4sGePOMp1ShqJQWiR9YrF4fOvRU0wBuK2Pk6QjWbYdSX4XOMWALzRRjOhCkDlcbQ6MwuSSqAhnM8C_0bJC5fARiWfsgKfgoefiZ5VSlnO2vatNjqoJH-RrG7yh4Ryd9pE2FvPbmnBIDFSBmx0TznOOP7fZ5Cs_BSZd-WjbTNl3hn_y4fRWSJibvwkFJbtopJTD2jqofbZZynoNqllHV1ebwOcRD0fyPp3RBP0UkT4eNUdpeXdvZ3OAW5ya7k4z6JE8JCSxS68LXyAOzWd87f0g8qsfMVRmuP7qJ6AANu1TypQdJRvnODQ2cCTa81mSykwDTpClZ6KaWyZjQv0LnGMtds0z_xbwpJk2xs3M-JqGUaD_D0esP_xYji07wOJ0DxELPuSgPirAflKFdzAxW7btLO06ogWpL-oTWaSLI49Y46udVh8WU4-U4XDQNnlnBPmWBctOfp76dtvYnpZRGAwMTWBmGpK9SF4dSXPpW5DJbJQqmogBe5RH_ZdbpzIv3eS5TqFBBGxAkxkSPJbRjso4EYO9aUgY3cyvmvSGJF4UXkjOxM44ET73-v4C-cudvxWjEowCmbzEiNjjctafEleAKutrFE9x_mfSDAVdRJwU8FtfZbUXNteeASM5GpqTBB18CsiwZeClOxVb76huaZ3tTF4d2s2V2ZeiGGY8GnWENzLmX4Uej4vXp3E1F8tGaS47cGqLESWPANn0ZLtget-yiy8ZTSOIbxIce6kuUlTzI1YFD4notP6lxfB8z3uRhG3VOoMk9GZr8H3YTfHFfO7yUdfFYSOeFzKZ2OU8UEawy4dPoptxjYHl6UBw53BdfjXCXr5qgWEged2HqCq-XxWS6-_1hcm-DTeJtTcXOCcYLpNg_y0]--></g></svg>