<?xml version="1.0" encoding="us-ascii" standalone="no"?><svg xmlns="http://www.w3.org/2000/svg" xmlns:xlink="http://www.w3.org/1999/xlink" contentStyleType="text/css" height="525px" preserveAspectRatio="none" style="width:910px;height:525px;background:#FFFFFF;" version="1.1" viewBox="0 0 910 525" width="910.5px" zoomAndPan="magnify"><defs/><g><rect fill="#FFFFFF" height="404.637" style="stroke:#181818;stroke-width:0.5;" width="5" x="76" y="61.4209"/><rect fill="#FFFFFF" height="365.931" style="stroke:#181818;stroke-width:0.5;" width="5" x="164" y="77.2739"/><rect fill="#FFFFFF" height="315.3719" style="stroke:#181818;stroke-width:0.5;" width="5" x="253.5" y="111.9799"/><rect fill="#FFFFFF" height="104.2739" style="stroke:#181818;stroke-width:0.5;" width="5" x="331.75" y="127.833"/><rect fill="#FFFFFF" height="45.5679" style="stroke:#181818;stroke-width:0.5;" width="5" x="331.75" y="247.9599"/><rect fill="#FFFFFF" height="42.853" style="stroke:#181818;stroke-width:0.5;" width="5" x="442.25" y="143.686"/><rect fill="#FFFFFF" height="12.5" style="stroke:#181818;stroke-width:0.5;" width="5" x="444.75" y="163.539"/><rect fill="#FFFFFF" height="17.7149" style="stroke:#181818;stroke-width:0.5;" width="5" x="559.75" y="207.392"/><rect fill="#FFFFFF" height="17.7149" style="stroke:#181818;stroke-width:0.5;" width="5" x="654.75" y="268.8129"/><rect fill="#FFFFFF" height="31.706" style="stroke:#181818;stroke-width:0.5;" width="5" x="741.5" y="316.3808"/><rect fill="#FFFFFF" height="31.706" style="stroke:#181818;stroke-width:0.5;" width="5" x="815.25" y="363.9398"/><line style="stroke:#181818;stroke-width:0.25;stroke-dasharray:5.0,5.0;" x1="15" x2="15" y1="44.5679" y2="475.0579"/><line style="stroke:#181818;stroke-width:0.25;stroke-dasharray:5.0,5.0;" x1="78.5" x2="78.5" y1="44.5679" y2="475.0579"/><line style="stroke:#181818;stroke-width:0.25;stroke-dasharray:5.0,5.0;" x1="166.5" x2="166.5" y1="44.5679" y2="475.0579"/><line style="stroke:#181818;stroke-width:0.25;stroke-dasharray:5.0,5.0;" x1="256" x2="256" y1="44.5679" y2="475.0579"/><line style="stroke:#181818;stroke-width:0.25;stroke-dasharray:5.0,5.0;" x1="334" x2="334" y1="44.5679" y2="475.0579"/><line style="stroke:#181818;stroke-width:0.25;stroke-dasharray:5.0,5.0;" x1="444.5" x2="444.5" y1="44.5679" y2="475.0579"/><line style="stroke:#181818;stroke-width:0.25;stroke-dasharray:5.0,5.0;" x1="562" x2="562" y1="211.3229" y2="475.0579"/><line style="stroke:#181818;stroke-width:0.25;stroke-dasharray:5.0,5.0;" x1="657" x2="657" y1="272.7439" y2="475.0579"/><line style="stroke:#181818;stroke-width:0.25;stroke-dasharray:5.0,5.0;" x1="744" x2="744" y1="44.5679" y2="475.0579"/><line style="stroke:#181818;stroke-width:0.25;stroke-dasharray:5.0,5.0;" x1="817.5" x2="817.5" y1="44.5679" y2="475.0579"/><line style="stroke:#181818;stroke-width:0.25;stroke-dasharray:5.0,5.0;" x1="883" x2="883" y1="44.5679" y2="475.0579"/><text fill="#000000" font-family="sans-serif" font-size="7" lengthAdjust="spacing" textLength="22" x="2.5" y="42.5169">Admin</text><ellipse cx="15" cy="9.284" fill="#E2E2F0" rx="4" ry="4" style="stroke:#181818;stroke-width:0.25;"/><path d="M15,13.284 L15,26.784 M8.5,17.284 L21.5,17.284 M15,26.784 L8.5,34.284 M15,26.784 L21.5,34.284 " fill="none" style="stroke:#181818;stroke-width:0.25;"/><text fill="#000000" font-family="sans-serif" font-size="7" lengthAdjust="spacing" textLength="22" x="2.5" y="482.0409">Admin</text><ellipse cx="15" cy="488.3419" fill="#E2E2F0" rx="4" ry="4" style="stroke:#181818;stroke-width:0.25;"/><path d="M15,492.3419 L15,505.8419 M8.5,496.3419 L21.5,496.3419 M15,505.8419 L8.5,513.3419 M15,505.8419 L21.5,513.3419 " fill="none" style="stroke:#181818;stroke-width:0.25;"/><rect fill="#E2E2F0" height="26.0679" rx="1.25" ry="1.25" style="stroke:#181818;stroke-width:0.25;" width="70" x="43.5" y="18"/><text fill="#000000" font-family="sans-serif" font-size="7" font-style="italic" lengthAdjust="spacing" textLength="47" x="55" y="28.983">&#171;presentation&#187;</text><text fill="#000000" font-family="sans-serif" font-size="7" lengthAdjust="spacing" textLength="63" x="47" y="38.5169">AddStudentUserUI</text><rect fill="#E2E2F0" height="26.0679" rx="1.25" ry="1.25" style="stroke:#181818;stroke-width:0.25;" width="70" x="43.5" y="474.5579"/><text fill="#000000" font-family="sans-serif" font-size="7" font-style="italic" lengthAdjust="spacing" textLength="47" x="55" y="485.5409">&#171;presentation&#187;</text><text fill="#000000" font-family="sans-serif" font-size="7" lengthAdjust="spacing" textLength="63" x="47" y="495.0748">AddStudentUserUI</text><rect fill="#E2E2F0" height="26.0679" rx="1.25" ry="1.25" style="stroke:#181818;stroke-width:0.25;" width="96" x="118.5" y="18"/><text fill="#000000" font-family="sans-serif" font-size="7" font-style="italic" lengthAdjust="spacing" textLength="42.5" x="145.25" y="28.983">&#171;application&#187;</text><text fill="#000000" font-family="sans-serif" font-size="7" lengthAdjust="spacing" textLength="89" x="122" y="38.5169">AddStudentUserController</text><rect fill="#E2E2F0" height="26.0679" rx="1.25" ry="1.25" style="stroke:#181818;stroke-width:0.25;" width="96" x="118.5" y="474.5579"/><text fill="#000000" font-family="sans-serif" font-size="7" font-style="italic" lengthAdjust="spacing" textLength="42.5" x="145.25" y="485.5409">&#171;application&#187;</text><text fill="#000000" font-family="sans-serif" font-size="7" lengthAdjust="spacing" textLength="89" x="122" y="495.0748">AddStudentUserController</text><rect fill="#E2E2F0" height="26.0679" rx="1.25" ry="1.25" style="stroke:#181818;stroke-width:0.25;" width="73" x="219.5" y="18"/><text fill="#000000" font-family="sans-serif" font-size="7" font-style="italic" lengthAdjust="spacing" textLength="28.5" x="241.75" y="28.983">&#171;service&#187;</text><text fill="#000000" font-family="sans-serif" font-size="7" lengthAdjust="spacing" textLength="66" x="223" y="38.5169">StudentUserService</text><rect fill="#E2E2F0" height="26.0679" rx="1.25" ry="1.25" style="stroke:#181818;stroke-width:0.25;" width="73" x="219.5" y="474.5579"/><text fill="#000000" font-family="sans-serif" font-size="7" font-style="italic" lengthAdjust="spacing" textLength="28.5" x="241.75" y="485.5409">&#171;service&#187;</text><text fill="#000000" font-family="sans-serif" font-size="7" lengthAdjust="spacing" textLength="66" x="223" y="495.0748">StudentUserService</text><rect fill="#E2E2F0" height="26.0679" rx="1.25" ry="1.25" style="stroke:#181818;stroke-width:0.25;" width="73.5" x="297.5" y="18"/><text fill="#000000" font-family="sans-serif" font-size="7" font-style="italic" lengthAdjust="spacing" textLength="29.5" x="319.5" y="28.983">&#171;builder&#187;</text><text fill="#000000" font-family="sans-serif" font-size="7" lengthAdjust="spacing" textLength="66.5" x="301" y="38.5169">StudentUserBuilder</text><rect fill="#E2E2F0" height="26.0679" rx="1.25" ry="1.25" style="stroke:#181818;stroke-width:0.25;" width="73.5" x="297.5" y="474.5579"/><text fill="#000000" font-family="sans-serif" font-size="7" font-style="italic" lengthAdjust="spacing" textLength="29.5" x="319.5" y="485.5409">&#171;builder&#187;</text><text fill="#000000" font-family="sans-serif" font-size="7" lengthAdjust="spacing" textLength="66.5" x="301" y="495.0748">StudentUserBuilder</text><rect fill="#E2E2F0" height="26.0679" rx="1.25" ry="1.25" style="stroke:#181818;stroke-width:0.25;" width="137.5" x="376" y="18"/><text fill="#000000" font-family="sans-serif" font-size="7" font-style="italic" lengthAdjust="spacing" textLength="28.5" x="430.5" y="28.983">&#171;service&#187;</text><text fill="#000000" font-family="sans-serif" font-size="7" lengthAdjust="spacing" textLength="130.5" x="379.5" y="38.5169">MecanographicNumberDomainService</text><rect fill="#E2E2F0" height="26.0679" rx="1.25" ry="1.25" style="stroke:#181818;stroke-width:0.25;" width="137.5" x="376" y="474.5579"/><text fill="#000000" font-family="sans-serif" font-size="7" font-style="italic" lengthAdjust="spacing" textLength="28.5" x="430.5" y="485.5409">&#171;service&#187;</text><text fill="#000000" font-family="sans-serif" font-size="7" lengthAdjust="spacing" textLength="130.5" x="379.5" y="495.0748">MecanographicNumberDomainService</text><rect fill="#E2E2F0" height="26.0679" rx="1.25" ry="1.25" style="stroke:#181818;stroke-width:0.25;" width="87.5" x="518.5" y="474.5579"/><text fill="#000000" font-family="sans-serif" font-size="7" font-style="italic" lengthAdjust="spacing" textLength="24" x="550.25" y="485.5409">&#171;value&#187;</text><text fill="#000000" font-family="sans-serif" font-size="7" lengthAdjust="spacing" textLength="80.5" x="522" y="495.0748">MecanographicNumber</text><rect fill="#E2E2F0" height="26.0679" rx="1.25" ry="1.25" style="stroke:#181818;stroke-width:0.25;" width="92.5" x="611" y="474.5579"/><text fill="#000000" font-family="sans-serif" font-size="7" font-style="italic" lengthAdjust="spacing" textLength="31" x="641.75" y="485.5409">&#171;domain&#187;</text><text fill="#000000" font-family="sans-serif" font-size="7" lengthAdjust="spacing" textLength="85.5" x="614.5" y="495.0748">studentUser:StudentUser</text><rect fill="#E2E2F0" height="26.0679" rx="1.25" ry="1.25" style="stroke:#181818;stroke-width:0.25;" width="71" x="708.5" y="18"/><text fill="#000000" font-family="sans-serif" font-size="7" font-style="italic" lengthAdjust="spacing" textLength="42" x="723" y="28.983">&#171;persistence&#187;</text><text fill="#000000" font-family="sans-serif" font-size="7" lengthAdjust="spacing" textLength="64" x="712" y="38.5169">PersistenceContext</text><rect fill="#E2E2F0" height="26.0679" rx="1.25" ry="1.25" style="stroke:#181818;stroke-width:0.25;" width="71" x="708.5" y="474.5579"/><text fill="#000000" font-family="sans-serif" font-size="7" font-style="italic" lengthAdjust="spacing" textLength="42" x="723" y="485.5409">&#171;persistence&#187;</text><text fill="#000000" font-family="sans-serif" font-size="7" lengthAdjust="spacing" textLength="64" x="712" y="495.0748">PersistenceContext</text><rect fill="#E2E2F0" height="26.0679" rx="1.25" ry="1.25" style="stroke:#181818;stroke-width:0.25;" width="66.5" x="784.5" y="18"/><text fill="#000000" font-family="sans-serif" font-size="7" font-style="italic" lengthAdjust="spacing" textLength="29" x="803.25" y="28.983">&#171;factory&#187;</text><text fill="#000000" font-family="sans-serif" font-size="7" lengthAdjust="spacing" textLength="59.5" x="788" y="38.5169">RepositoryFactory</text><rect fill="#E2E2F0" height="26.0679" rx="1.25" ry="1.25" style="stroke:#181818;stroke-width:0.25;" width="66.5" x="784.5" y="474.5579"/><text fill="#000000" font-family="sans-serif" font-size="7" font-style="italic" lengthAdjust="spacing" textLength="29" x="803.25" y="485.5409">&#171;factory&#187;</text><text fill="#000000" font-family="sans-serif" font-size="7" lengthAdjust="spacing" textLength="59.5" x="788" y="495.0748">RepositoryFactory</text><text fill="#000000" font-family="sans-serif" font-size="7" font-style="italic" lengthAdjust="spacing" textLength="39.5" x="861.75" y="32.983">&#171;repository&#187;</text><text fill="#000000" font-family="sans-serif" font-size="7" lengthAdjust="spacing" textLength="51" x="856" y="42.5169">UserRepository</text><path d="M874,7.5 C874,2.5 883,2.5 883,2.5 C883,2.5 892,2.5 892,7.5 L892,20.5 C892,25.5 883,25.5 883,25.5 C883,25.5 874,25.5 874,20.5 L874,7.5 " fill="#E2E2F0" style="stroke:#181818;stroke-width:0.75;"/><path d="M874,7.5 C874,12.5 883,12.5 883,12.5 C883,12.5 892,12.5 892,7.5 " fill="none" style="stroke:#181818;stroke-width:0.75;"/><text fill="#000000" font-family="sans-serif" font-size="7" font-style="italic" lengthAdjust="spacing" textLength="39.5" x="861.75" y="482.0409">&#171;repository&#187;</text><text fill="#000000" font-family="sans-serif" font-size="7" lengthAdjust="spacing" textLength="51" x="856" y="491.5748">UserRepository</text><path d="M874,498.6258 C874,493.6258 883,493.6258 883,493.6258 C883,493.6258 892,493.6258 892,498.6258 L892,511.6258 C892,516.6258 883,516.6258 883,516.6258 C883,516.6258 874,516.6258 874,511.6258 L874,498.6258 " fill="#E2E2F0" style="stroke:#181818;stroke-width:0.75;"/><path d="M874,498.6258 C874,503.6258 883,503.6258 883,503.6258 C883,503.6258 892,503.6258 892,498.6258 " fill="none" style="stroke:#181818;stroke-width:0.75;"/><rect fill="#FFFFFF" height="404.637" style="stroke:#181818;stroke-width:0.5;" width="5" x="76" y="61.4209"/><rect fill="#FFFFFF" height="365.931" style="stroke:#181818;stroke-width:0.5;" width="5" x="164" y="77.2739"/><rect fill="#FFFFFF" height="315.3719" style="stroke:#181818;stroke-width:0.5;" width="5" x="253.5" y="111.9799"/><rect fill="#FFFFFF" height="104.2739" style="stroke:#181818;stroke-width:0.5;" width="5" x="331.75" y="127.833"/><rect fill="#FFFFFF" height="45.5679" style="stroke:#181818;stroke-width:0.5;" width="5" x="331.75" y="247.9599"/><rect fill="#FFFFFF" height="42.853" style="stroke:#181818;stroke-width:0.5;" width="5" x="442.25" y="143.686"/><rect fill="#FFFFFF" height="12.5" style="stroke:#181818;stroke-width:0.5;" width="5" x="444.75" y="163.539"/><rect fill="#FFFFFF" height="17.7149" style="stroke:#181818;stroke-width:0.5;" width="5" x="559.75" y="207.392"/><rect fill="#FFFFFF" height="17.7149" style="stroke:#181818;stroke-width:0.5;" width="5" x="654.75" y="268.8129"/><rect fill="#FFFFFF" height="31.706" style="stroke:#181818;stroke-width:0.5;" width="5" x="741.5" y="316.3808"/><rect fill="#FFFFFF" height="31.706" style="stroke:#181818;stroke-width:0.5;" width="5" x="815.25" y="363.9398"/><polygon fill="#181818" points="70,59.4209,75,61.4209,70,63.4209,72,61.4209" style="stroke:#181818;stroke-width:0.5;"/><line style="stroke:#181818;stroke-width:0.5;stroke-dasharray:2.0,2.0;" x1="15" x2="73" y1="61.4209" y2="61.4209"/><text fill="#000000" font-family="sans-serif" font-size="6.5" lengthAdjust="spacing" textLength="51.5" x="18.5" y="58.5164">Add StudentUser</text><polygon fill="#181818" points="158,75.2739,163,77.2739,158,79.2739,160,77.2739" style="stroke:#181818;stroke-width:0.5;"/><line style="stroke:#181818;stroke-width:0.5;" x1="81" x2="161" y1="77.2739" y2="77.2739"/><text fill="#000000" font-family="sans-serif" font-size="6.5" lengthAdjust="spacing" textLength="49.5" x="84.5" y="74.3694">addStudentUser</text><path d="M171.5,83.7739 L171.5,97.2739 L371,97.2739 L371,88.7739 L366,83.7739 L171.5,83.7739 " fill="#FEFFDD" style="stroke:#181818;stroke-width:0.25;"/><path d="M366,83.7739 L366,88.7739 L371,88.7739 L366,83.7739 " fill="#FEFFDD" style="stroke:#181818;stroke-width:0.25;"/><text fill="#000000" font-family="sans-serif" font-size="6.5" font-weight="bold" lengthAdjust="spacing" textLength="189" x="174.5" y="93.2224">Use UserManagementService to create a new SystemUser</text><polygon fill="#181818" points="247.5,109.9799,252.5,111.9799,247.5,113.9799,249.5,111.9799" style="stroke:#181818;stroke-width:0.5;"/><line style="stroke:#181818;stroke-width:0.5;" x1="169" x2="250.5" y1="111.9799" y2="111.9799"/><text fill="#000000" font-family="sans-serif" font-size="6.5" lengthAdjust="spacing" textLength="56.5" x="172.5" y="109.0754">createStudentUser</text><polygon fill="#181818" points="325.75,125.833,330.75,127.833,325.75,129.833,327.75,127.833" style="stroke:#181818;stroke-width:0.5;"/><line style="stroke:#181818;stroke-width:0.5;" x1="258.5" x2="328.75" y1="127.833" y2="127.833"/><text fill="#000000" font-family="sans-serif" font-size="6.5" lengthAdjust="spacing" textLength="49" x="262" y="124.9285">withSystemUser</text><polygon fill="#181818" points="436.25,141.686,441.25,143.686,436.25,145.686,438.25,143.686" style="stroke:#181818;stroke-width:0.5;"/><line style="stroke:#181818;stroke-width:0.5;" x1="336.75" x2="439.25" y1="143.686" y2="143.686"/><text fill="#000000" font-family="sans-serif" font-size="6.5" lengthAdjust="spacing" textLength="27" x="340.25" y="140.7815">generate</text><line style="stroke:#181818;stroke-width:0.5;" x1="447.25" x2="470.75" y1="157.039" y2="157.039"/><line style="stroke:#181818;stroke-width:0.5;" x1="470.75" x2="470.75" y1="157.039" y2="163.539"/><line style="stroke:#181818;stroke-width:0.5;" x1="450.25" x2="470.75" y1="163.539" y2="163.539"/><polygon fill="#181818" points="455.25,161.539,450.25,163.539,455.25,165.539,453.25,163.539" style="stroke:#181818;stroke-width:0.5;"/><text fill="#000000" font-family="sans-serif" font-size="6.5" lengthAdjust="spacing" textLength="52" x="453.25" y="154.1345">generateNumber</text><line style="stroke:#181818;stroke-width:0.5;stroke-dasharray:2.0,2.0;" x1="449.75" x2="470.75" y1="175.539" y2="175.539"/><line style="stroke:#181818;stroke-width:0.5;stroke-dasharray:2.0,2.0;" x1="470.75" x2="470.75" y1="175.539" y2="182.039"/><line style="stroke:#181818;stroke-width:0.5;stroke-dasharray:2.0,2.0;" x1="447.25" x2="470.75" y1="182.039" y2="182.039"/><polygon fill="#181818" points="452.25,180.039,447.25,182.039,452.25,184.039,450.25,182.039" style="stroke:#181818;stroke-width:0.5;"/><polygon fill="#181818" points="342.25,184.539,337.25,186.539,342.25,188.539,340.25,186.539" style="stroke:#181818;stroke-width:0.5;"/><line style="stroke:#181818;stroke-width:0.5;stroke-dasharray:2.0,2.0;" x1="339.25" x2="444.25" y1="186.539" y2="186.539"/><polygon fill="#181818" points="512.5,200.392,517.5,202.392,512.5,204.392,514.5,202.392" style="stroke:#181818;stroke-width:0.5;"/><line style="stroke:#181818;stroke-width:0.5;" x1="336.75" x2="515.5" y1="202.392" y2="202.392"/><text fill="#000000" font-family="sans-serif" font-size="6.5" lengthAdjust="spacing" textLength="12.5" x="340.25" y="199.4875">new</text><rect fill="#E2E2F0" height="26.0679" rx="1.25" ry="1.25" style="stroke:#181818;stroke-width:0.25;" width="87.5" x="518.5" y="190.539"/><text fill="#000000" font-family="sans-serif" font-size="7" font-style="italic" lengthAdjust="spacing" textLength="24" x="550.25" y="201.5219">&#171;value&#187;</text><text fill="#000000" font-family="sans-serif" font-size="7" lengthAdjust="spacing" textLength="80.5" x="522" y="211.0559">MecanographicNumber</text><polygon fill="#181818" points="342.25,223.1069,337.25,225.1069,342.25,227.1069,340.25,225.1069" style="stroke:#181818;stroke-width:0.5;"/><line style="stroke:#181818;stroke-width:0.5;stroke-dasharray:2.0,2.0;" x1="339.25" x2="561.75" y1="225.1069" y2="225.1069"/><polygon fill="#181818" points="264,230.1069,259,232.1069,264,234.1069,262,232.1069" style="stroke:#181818;stroke-width:0.5;"/><line style="stroke:#181818;stroke-width:0.5;stroke-dasharray:2.0,2.0;" x1="261" x2="333.75" y1="232.1069" y2="232.1069"/><polygon fill="#181818" points="325.75,245.9599,330.75,247.9599,325.75,249.9599,327.75,247.9599" style="stroke:#181818;stroke-width:0.5;"/><line style="stroke:#181818;stroke-width:0.5;" x1="258.5" x2="328.75" y1="247.9599" y2="247.9599"/><text fill="#000000" font-family="sans-serif" font-size="6.5" lengthAdjust="spacing" textLength="15" x="262" y="245.0554">build</text><polygon fill="#181818" points="605,261.8129,610,263.8129,605,265.8129,607,263.8129" style="stroke:#181818;stroke-width:0.5;"/><line style="stroke:#181818;stroke-width:0.5;" x1="336.75" x2="608" y1="263.8129" y2="263.8129"/><text fill="#000000" font-family="sans-serif" font-size="6.5" lengthAdjust="spacing" textLength="12.5" x="340.25" y="260.9084">new</text><rect fill="#E2E2F0" height="26.0679" rx="1.25" ry="1.25" style="stroke:#181818;stroke-width:0.25;" width="92.5" x="611" y="251.9599"/><text fill="#000000" font-family="sans-serif" font-size="7" font-style="italic" lengthAdjust="spacing" textLength="31" x="641.75" y="262.9429">&#171;domain&#187;</text><text fill="#000000" font-family="sans-serif" font-size="7" lengthAdjust="spacing" textLength="85.5" x="614.5" y="272.4768">studentUser:StudentUser</text><polygon fill="#181818" points="342.25,284.5278,337.25,286.5278,342.25,288.5278,340.25,286.5278" style="stroke:#181818;stroke-width:0.5;"/><line style="stroke:#181818;stroke-width:0.5;stroke-dasharray:2.0,2.0;" x1="339.25" x2="656.75" y1="286.5278" y2="286.5278"/><polygon fill="#181818" points="264,291.5278,259,293.5278,264,295.5278,262,293.5278" style="stroke:#181818;stroke-width:0.5;"/><line style="stroke:#181818;stroke-width:0.5;stroke-dasharray:2.0,2.0;" x1="261" x2="333.75" y1="293.5278" y2="293.5278"/><polygon fill="#181818" points="174.5,298.5278,169.5,300.5278,174.5,302.5278,172.5,300.5278" style="stroke:#181818;stroke-width:0.5;"/><line style="stroke:#181818;stroke-width:0.5;stroke-dasharray:2.0,2.0;" x1="171.5" x2="253" y1="300.5278" y2="300.5278"/><polygon fill="#181818" points="735.5,314.3808,740.5,316.3808,735.5,318.3808,737.5,316.3808" style="stroke:#181818;stroke-width:0.5;"/><line style="stroke:#181818;stroke-width:0.5;" x1="258.5" x2="738.5" y1="316.3808" y2="316.3808"/><text fill="#000000" font-family="sans-serif" font-size="6.5" lengthAdjust="spacing" textLength="39.5" x="262" y="313.4763">repositories()</text><polygon fill="#181818" points="811.75,330.2338,816.75,332.2338,811.75,334.2338,813.75,332.2338" style="stroke:#181818;stroke-width:0.5;"/><line style="stroke:#181818;stroke-width:0.5;" x1="746.5" x2="814.75" y1="332.2338" y2="332.2338"/><text fill="#000000" font-family="sans-serif" font-size="6.5" lengthAdjust="spacing" textLength="18.5" x="750" y="329.3293">create</text><polygon fill="#181818" points="264,346.0868,259,348.0868,264,350.0868,262,348.0868" style="stroke:#181818;stroke-width:0.5;"/><line style="stroke:#181818;stroke-width:0.5;" x1="261" x2="743.5" y1="348.0868" y2="348.0868"/><text fill="#000000" font-family="sans-serif" font-size="6.5" lengthAdjust="spacing" textLength="21" x="267" y="345.1823">factory</text><polygon fill="#181818" points="809.25,361.9398,814.25,363.9398,809.25,365.9398,811.25,363.9398" style="stroke:#181818;stroke-width:0.5;"/><line style="stroke:#181818;stroke-width:0.5;" x1="258.5" x2="812.25" y1="363.9398" y2="363.9398"/><text fill="#000000" font-family="sans-serif" font-size="6.5" lengthAdjust="spacing" textLength="20" x="262" y="361.0353">users()</text><polygon fill="#181818" points="877,377.7929,882,379.7929,877,381.7929,879,379.7929" style="stroke:#181818;stroke-width:0.5;"/><line style="stroke:#181818;stroke-width:0.5;" x1="820.25" x2="880" y1="379.7929" y2="379.7929"/><text fill="#000000" font-family="sans-serif" font-size="6.5" lengthAdjust="spacing" textLength="18.5" x="823.75" y="376.8884">create</text><polygon fill="#181818" points="264,393.6459,259,395.6459,264,397.6459,262,395.6459" style="stroke:#181818;stroke-width:0.5;"/><line style="stroke:#181818;stroke-width:0.5;" x1="261" x2="817.25" y1="395.6459" y2="395.6459"/><text fill="#000000" font-family="sans-serif" font-size="6.5" lengthAdjust="spacing" textLength="45.5" x="267" y="392.7414">userRepository</text><polygon fill="#181818" points="877,409.4989,882,411.4989,877,413.4989,879,411.4989" style="stroke:#181818;stroke-width:0.5;"/><line style="stroke:#181818;stroke-width:0.5;" x1="258.5" x2="880" y1="411.4989" y2="411.4989"/><text fill="#000000" font-family="sans-serif" font-size="6.5" lengthAdjust="spacing" textLength="30.5" x="262" y="408.5944">save(user)</text><polygon fill="#181818" points="174.5,425.3519,169.5,427.3519,174.5,429.3519,172.5,427.3519" style="stroke:#181818;stroke-width:0.5;"/><line style="stroke:#181818;stroke-width:0.5;" x1="171.5" x2="255.5" y1="427.3519" y2="427.3519"/><text fill="#000000" font-family="sans-serif" font-size="6.5" lengthAdjust="spacing" textLength="13" x="177.5" y="424.4474">user</text><polygon fill="#181818" points="86.5,441.2049,81.5,443.2049,86.5,445.2049,84.5,443.2049" style="stroke:#181818;stroke-width:0.5;"/><line style="stroke:#181818;stroke-width:0.5;" x1="83.5" x2="166" y1="443.2049" y2="443.2049"/><text fill="#000000" font-family="sans-serif" font-size="6.5" lengthAdjust="spacing" textLength="13" x="89.5" y="440.3004">user</text><polygon fill="#181818" points="20.5,457.0579,15.5,459.0579,20.5,461.0579,18.5,459.0579" style="stroke:#181818;stroke-width:0.5;"/><line style="stroke:#181818;stroke-width:0.5;stroke-dasharray:2.0,2.0;" x1="17.5" x2="75.5" y1="459.0579" y2="459.0579"/><text fill="#000000" font-family="sans-serif" font-size="6.5" lengthAdjust="spacing" textLength="47" x="23.5" y="456.1534">displayUserInfo</text><polygon fill="#181818" points="20.5,464.0579,15.5,466.0579,20.5,468.0579,18.5,466.0579" style="stroke:#181818;stroke-width:0.5;"/><line style="stroke:#181818;stroke-width:0.5;stroke-dasharray:2.0,2.0;" x1="17.5" x2="78" y1="466.0579" y2="466.0579"/><!--SRC=[fLNRZjiW47tdAz2-T3TIVW2XIDjMA-LXgwfHFe3OamJ91WjmjldxGWncx11tfVL3nEMSCpDmc8ZAQKDVwrOgAYnz3LD2Ec6Sh6GdbFDxzSxrDIYtjs3ssm3plvnt1gnV5KvgjTaiS7vevOnk6Z21YsQSYwvhP5MIGFmTc8ki893ZQbhXt0wZn-JllMpg8N8QSduOHZFMErH2wPCHtLbMl_hs0EQdReLKA87fmgFu1QL0BYrpVX5DFnTuiha2XgfvoZbuPdqRpAY_mLXf7QWAmb73NnSuQ3LSNPxDs7-WqrPw4rpVHF32DP3JaFFZCFAaMZXn41PeI2kp0XpDE3VZn9F8pLzqlTvu2x5W4tnLn8lBYt1USqkynJmAcOLHCN5LHcSGKThFZJoT7TL7jC7eQhMFoRuB9KxG8XivJIi3GKfG1HzqT_LdqmRiQaK8oi5dD7CWYqoSMCvi2YOphbTBbcJqGxfpZfib8e8af2TDFSZe2HGOZysa2O9CyGi2WoK_AJFN8JLycfYAUaY9rr5uCFWWIk-9XHlC9PGKIhG7MIqcSES6p4nYItT-QqFtLnsB7qxa_kBd9KPSt5mytY_cFdcGv1jY_DVegFymElO42VRvXT3uZMe8F6w63pSnhndRKdg2Iz1fGep6FZPIK2au-BX_Nz0OlFVFjLZ5son6-58dzGAvInOBGCXvylsauvPgA8IUYgmtABmL5tWEeYzB1DnC0xWKTsQ3XCZKzIRq_P6EgCXOYRRVUiVT_Z4OhQNj6d4DlN6hZfeOSBrH_m00]--></g></svg>