<?xml version="1.0" encoding="UTF-8" standalone="no"?><svg xmlns="http://www.w3.org/2000/svg" xmlns:xlink="http://www.w3.org/1999/xlink" contentStyleType="text/css" height="564px" preserveAspectRatio="none" style="width:966px;height:564px;background:#FFFFFF;" version="1.1" viewBox="0 0 966 564" width="966px" zoomAndPan="magnify"><defs/><g><rect fill="#FFFFFF" height="367.0371" style="stroke:#181818;stroke-width:1.0;" width="10" x="33" y="93.9766"/><rect fill="#FFFFFF" height="330.416" style="stroke:#181818;stroke-width:1.0;" width="10" x="311" y="130.5977"/><rect fill="#FFFFFF" height="301.1055" style="stroke:#181818;stroke-width:1.0;" width="10" x="549" y="159.9082"/><line style="stroke:#181818;stroke-width:0.5;stroke-dasharray:5.0,5.0;" x1="38" x2="38" y1="83.9766" y2="470.0137"/><line style="stroke:#181818;stroke-width:0.5;stroke-dasharray:5.0,5.0;" x1="316" x2="316" y1="83.9766" y2="470.0137"/><line style="stroke:#181818;stroke-width:0.5;stroke-dasharray:5.0,5.0;" x1="554" x2="554" y1="83.9766" y2="470.0137"/><line style="stroke:#181818;stroke-width:0.5;stroke-dasharray:5.0,5.0;" x1="744" x2="744" y1="83.9766" y2="470.0137"/><line style="stroke:#181818;stroke-width:0.5;stroke-dasharray:5.0,5.0;" x1="891" x2="891" y1="83.9766" y2="470.0137"/><text fill="#000000" font-family="sans-serif" font-size="14" lengthAdjust="spacing" textLength="60" x="5" y="81.0234">Manager</text><ellipse cx="38" cy="15.9883" fill="#E2E2F0" rx="8" ry="8" style="stroke:#181818;stroke-width:0.5;"/><path d="M38,23.9883 L38,50.9883 M25,31.9883 L51,31.9883 M38,50.9883 L25,65.9883 M38,50.9883 L51,65.9883 " fill="none" style="stroke:#181818;stroke-width:0.5;"/><text fill="#000000" font-family="sans-serif" font-size="14" lengthAdjust="spacing" textLength="60" x="5" y="482.5488">Manager</text><ellipse cx="38" cy="494.002" fill="#E2E2F0" rx="8" ry="8" style="stroke:#181818;stroke-width:0.5;"/><path d="M38,502.002 L38,529.002 M25,510.002 L51,510.002 M38,529.002 L25,544.002 M38,529.002 L51,544.002 " fill="none" style="stroke:#181818;stroke-width:0.5;"/><rect fill="#E2E2F0" height="46.9766" rx="2.5" ry="2.5" style="stroke:#181818;stroke-width:0.5;" width="178" x="227" y="36"/><text fill="#000000" font-family="sans-serif" font-size="14" font-style="italic" lengthAdjust="spacing" textLength="100" x="266" y="56.5352">«Presentation»</text><text fill="#000000" font-family="sans-serif" font-size="14" lengthAdjust="spacing" textLength="164" x="234" y="73.0234">OpenCloseEnrollmentUI</text><rect fill="#E2E2F0" height="46.9766" rx="2.5" ry="2.5" style="stroke:#181818;stroke-width:0.5;" width="178" x="227" y="469.0137"/><text fill="#000000" font-family="sans-serif" font-size="14" font-style="italic" lengthAdjust="spacing" textLength="100" x="266" y="489.5488">«Presentation»</text><text fill="#000000" font-family="sans-serif" font-size="14" lengthAdjust="spacing" textLength="164" x="234" y="506.0371">OpenCloseEnrollmentUI</text><text fill="#000000" font-family="sans-serif" font-size="14" font-style="italic" lengthAdjust="spacing" textLength="92" x="505" y="64.5352">«Application»</text><text fill="#000000" font-family="sans-serif" font-size="14" lengthAdjust="spacing" textLength="220" x="441" y="81.0234">OpenCloseEnrollmentController</text><ellipse cx="554" cy="35" fill="#E2E2F0" rx="12" ry="12" style="stroke:#181818;stroke-width:0.5;"/><polygon fill="#181818" points="550,23,556,18,554,23,556,28,550,23" style="stroke:#181818;stroke-width:1.0;"/><text fill="#000000" font-family="sans-serif" font-size="14" font-style="italic" lengthAdjust="spacing" textLength="92" x="505" y="482.5488">«Application»</text><text fill="#000000" font-family="sans-serif" font-size="14" lengthAdjust="spacing" textLength="220" x="441" y="499.0371">OpenCloseEnrollmentController</text><ellipse cx="554" cy="517.9902" fill="#E2E2F0" rx="12" ry="12" style="stroke:#181818;stroke-width:0.5;"/><polygon fill="#181818" points="550,505.9902,556,500.9902,554,505.9902,556,510.9902,550,505.9902" style="stroke:#181818;stroke-width:1.0;"/><text fill="#000000" font-family="sans-serif" font-size="14" font-style="italic" lengthAdjust="spacing" textLength="87" x="698" y="64.5352">«Repository»</text><text fill="#000000" font-family="sans-serif" font-size="14" lengthAdjust="spacing" textLength="129" x="677" y="81.0234">CoursesRepository</text><path d="M726.5,15 C726.5,5 744.5,5 744.5,5 C744.5,5 762.5,5 762.5,15 L762.5,41 C762.5,51 744.5,51 744.5,51 C744.5,51 726.5,51 726.5,41 L726.5,15 " fill="#E2E2F0" style="stroke:#181818;stroke-width:1.5;"/><path d="M726.5,15 C726.5,25 744.5,25 744.5,25 C744.5,25 762.5,25 762.5,15 " fill="none" style="stroke:#181818;stroke-width:1.5;"/><text fill="#000000" font-family="sans-serif" font-size="14" font-style="italic" lengthAdjust="spacing" textLength="87" x="698" y="482.5488">«Repository»</text><text fill="#000000" font-family="sans-serif" font-size="14" lengthAdjust="spacing" textLength="129" x="677" y="499.0371">CoursesRepository</text><path d="M726.5,511.9902 C726.5,501.9902 744.5,501.9902 744.5,501.9902 C744.5,501.9902 762.5,501.9902 762.5,511.9902 L762.5,537.9902 C762.5,547.9902 744.5,547.9902 744.5,547.9902 C744.5,547.9902 726.5,547.9902 726.5,537.9902 L726.5,511.9902 " fill="#E2E2F0" style="stroke:#181818;stroke-width:1.5;"/><path d="M726.5,511.9902 C726.5,521.9902 744.5,521.9902 744.5,521.9902 C744.5,521.9902 762.5,521.9902 762.5,511.9902 " fill="none" style="stroke:#181818;stroke-width:1.5;"/><rect fill="#E2E2F0" height="46.9766" rx="2.5" ry="2.5" style="stroke:#181818;stroke-width:0.5;" width="138" x="822" y="36"/><text fill="#000000" font-family="sans-serif" font-size="14" font-style="italic" lengthAdjust="spacing" textLength="67" x="857.5" y="56.5352">«Domain»</text><text fill="#000000" font-family="sans-serif" font-size="14" lengthAdjust="spacing" textLength="124" x="829" y="73.0234">theCourse:Course</text><rect fill="#E2E2F0" height="46.9766" rx="2.5" ry="2.5" style="stroke:#181818;stroke-width:0.5;" width="138" x="822" y="469.0137"/><text fill="#000000" font-family="sans-serif" font-size="14" font-style="italic" lengthAdjust="spacing" textLength="67" x="857.5" y="489.5488">«Domain»</text><text fill="#000000" font-family="sans-serif" font-size="14" lengthAdjust="spacing" textLength="124" x="829" y="506.0371">theCourse:Course</text><rect fill="#FFFFFF" height="367.0371" style="stroke:#181818;stroke-width:1.0;" width="10" x="33" y="93.9766"/><rect fill="#FFFFFF" height="330.416" style="stroke:#181818;stroke-width:1.0;" width="10" x="311" y="130.5977"/><rect fill="#FFFFFF" height="301.1055" style="stroke:#181818;stroke-width:1.0;" width="10" x="549" y="159.9082"/><polygon fill="#181818" points="299,126.5977,309,130.5977,299,134.5977,303,130.5977" style="stroke:#181818;stroke-width:1.0;"/><line style="stroke:#181818;stroke-width:1.0;" x1="43" x2="305" y1="130.5977" y2="130.5977"/><text fill="#000000" font-family="sans-serif" font-size="13" font-weight="bold" lengthAdjust="spacing" textLength="9" x="50" y="118.2002">1</text><text fill="#000000" font-family="sans-serif" font-size="13" lengthAdjust="spacing" textLength="123" x="63" y="110.5449">Select the option to</text><text fill="#000000" font-family="sans-serif" font-size="13" lengthAdjust="spacing" textLength="236" x="63" y="125.8555">open/close the enrollment in courses</text><polygon fill="#181818" points="537,155.9082,547,159.9082,537,163.9082,541,159.9082" style="stroke:#181818;stroke-width:1.0;"/><line style="stroke:#181818;stroke-width:1.0;" x1="321" x2="543" y1="159.9082" y2="159.9082"/><text fill="#000000" font-family="sans-serif" font-size="13" font-weight="bold" lengthAdjust="spacing" textLength="9" x="328" y="155.166">2</text><text fill="#000000" font-family="sans-serif" font-size="13" lengthAdjust="spacing" textLength="96" x="341" y="155.166">listAllCourses()</text><polygon fill="#181818" points="732.5,185.2188,742.5,189.2188,732.5,193.2188,736.5,189.2188" style="stroke:#181818;stroke-width:1.0;"/><line style="stroke:#181818;stroke-width:1.0;" x1="559" x2="738.5" y1="189.2188" y2="189.2188"/><text fill="#000000" font-family="sans-serif" font-size="13" font-weight="bold" lengthAdjust="spacing" textLength="9" x="566" y="184.4766">3</text><text fill="#000000" font-family="sans-serif" font-size="13" lengthAdjust="spacing" textLength="96" x="579" y="184.4766">listAllCourses()</text><line style="stroke:#181818;stroke-width:1.0;" x1="321" x2="363" y1="233.8398" y2="233.8398"/><line style="stroke:#181818;stroke-width:1.0;" x1="363" x2="363" y1="233.8398" y2="246.8398"/><line style="stroke:#181818;stroke-width:1.0;" x1="322" x2="363" y1="246.8398" y2="246.8398"/><polygon fill="#181818" points="332,242.8398,322,246.8398,332,250.8398,328,246.8398" style="stroke:#181818;stroke-width:1.0;"/><text fill="#000000" font-family="sans-serif" font-size="13" font-weight="bold" lengthAdjust="spacing" textLength="9" x="328" y="221.4424">4</text><text fill="#000000" font-family="sans-serif" font-size="13" lengthAdjust="spacing" textLength="197" x="341" y="213.7871">Output The Possible courses to</text><text fill="#000000" font-family="sans-serif" font-size="13" lengthAdjust="spacing" textLength="147" x="345" y="229.0977">Open/Close Enrollment</text><polygon fill="#181818" points="54,272.1504,44,276.1504,54,280.1504,50,276.1504" style="stroke:#181818;stroke-width:1.0;"/><line style="stroke:#181818;stroke-width:1.0;" x1="48" x2="310" y1="276.1504" y2="276.1504"/><text fill="#000000" font-family="sans-serif" font-size="13" font-weight="bold" lengthAdjust="spacing" textLength="9" x="60" y="271.4082">5</text><text fill="#000000" font-family="sans-serif" font-size="13" lengthAdjust="spacing" textLength="170" x="73" y="271.4082">Ask user to select a course</text><polygon fill="#181818" points="299,301.4609,309,305.4609,299,309.4609,303,305.4609" style="stroke:#181818;stroke-width:1.0;"/><line style="stroke:#181818;stroke-width:1.0;" x1="43" x2="305" y1="305.4609" y2="305.4609"/><text fill="#000000" font-family="sans-serif" font-size="13" font-weight="bold" lengthAdjust="spacing" textLength="9" x="50" y="300.7188">6</text><text fill="#000000" font-family="sans-serif" font-size="13" lengthAdjust="spacing" textLength="114" x="63" y="300.7188">Selects the course</text><polygon fill="#181818" points="537,330.7715,547,334.7715,537,338.7715,541,334.7715" style="stroke:#181818;stroke-width:1.0;"/><line style="stroke:#181818;stroke-width:1.0;" x1="321" x2="543" y1="334.7715" y2="334.7715"/><text fill="#000000" font-family="sans-serif" font-size="13" font-weight="bold" lengthAdjust="spacing" textLength="9" x="328" y="330.0293">7</text><text fill="#000000" font-family="sans-serif" font-size="13" lengthAdjust="spacing" textLength="178" x="341" y="330.0293">changeCourseStatus(course)</text><polygon fill="#181818" points="879,360.082,889,364.082,879,368.082,883,364.082" style="stroke:#181818;stroke-width:1.0;"/><line style="stroke:#181818;stroke-width:1.0;" x1="559" x2="885" y1="364.082" y2="364.082"/><text fill="#000000" font-family="sans-serif" font-size="13" font-weight="bold" lengthAdjust="spacing" textLength="9" x="566" y="359.3398">8</text><text fill="#000000" font-family="sans-serif" font-size="13" lengthAdjust="spacing" textLength="246" x="579" y="359.3398">changeCourseEnrollmentStatus(course)</text><polygon fill="#181818" points="732.5,389.3926,742.5,393.3926,732.5,397.3926,736.5,393.3926" style="stroke:#181818;stroke-width:1.0;"/><line style="stroke:#181818;stroke-width:1.0;" x1="559" x2="738.5" y1="393.3926" y2="393.3926"/><text fill="#000000" font-family="sans-serif" font-size="13" font-weight="bold" lengthAdjust="spacing" textLength="9" x="566" y="388.6504">9</text><text fill="#000000" font-family="sans-serif" font-size="13" lengthAdjust="spacing" textLength="78" x="579" y="388.6504">save(course)</text><polygon fill="#181818" points="332,418.7031,322,422.7031,332,426.7031,328,422.7031" style="stroke:#181818;stroke-width:1.0;"/><line style="stroke:#181818;stroke-width:1.0;" x1="326" x2="548" y1="422.7031" y2="422.7031"/><text fill="#000000" font-family="sans-serif" font-size="13" font-weight="bold" lengthAdjust="spacing" textLength="18" x="338" y="417.9609">10</text><text fill="#000000" font-family="sans-serif" font-size="13" lengthAdjust="spacing" textLength="42" x="360" y="417.9609">course</text><polygon fill="#181818" points="54,448.0137,44,452.0137,54,456.0137,50,452.0137" style="stroke:#181818;stroke-width:1.0;"/><line style="stroke:#181818;stroke-width:1.0;" x1="48" x2="310" y1="452.0137" y2="452.0137"/><text fill="#000000" font-family="sans-serif" font-size="13" font-weight="bold" lengthAdjust="spacing" textLength="18" x="60" y="447.2715">11</text><text fill="#000000" font-family="sans-serif" font-size="13" lengthAdjust="spacing" textLength="85" x="82" y="447.2715">Back to menu</text><!--SRC=[VLB1Ri8m3BttAw9T1WVMEwgG6Dk1mmGQuxQB2HP4f4bMEqZx-pbDeML3kxInusU_zvp78tEWQLa62uvZRP-qhql2huXEusHluD10NHGGsRjOxx2HisRVg3TmSC160QbvIgIqEGDZ5mPes6WJfArQ1NGBwmbVNUEjhT7nTfcGygsgTOCa6M3ZtMnMQEzOgkw15ldAvh63gAhc8LYZBptsmB03Ggc93I6zO_1aXDPt0WwYgke3mGr9F_0HCtoQVmzvQ3eAxiNNODAiejMh9ZDHCrKRjAXP2LRvaDWezkhJUH5JwgIclSAh96MSqfbax-1sMOWpqh6NE5NM4C-jxHIDndrvNrKCF15uh-qEF4z8d5UHGsJr8SJMdiZiB5uuPVRjBifs6QhVHYUychHDvdHIaMIk82YR05sNUmvHwqDt_rUiFe8xTFPlv6b46kNQyI-9tOPk03t5Vw53TmZEU2rBht9oIsUeenFy3FgKnCgSM1G_]--></g></svg>