<?xml version="1.0" encoding="UTF-8" standalone="no"?><svg xmlns="http://www.w3.org/2000/svg" xmlns:xlink="http://www.w3.org/1999/xlink" contentStyleType="text/css" height="312px" preserveAspectRatio="none" style="width:415px;height:312px;background:#FFFFFF;" version="1.1" viewBox="0 0 415 312" width="415px" zoomAndPan="magnify"><defs/><g><!--class OpenCloseEnrollmentUI--><g id="elem_OpenCloseEnrollmentUI"><rect codeLine="2" fill="#F1F1F1" height="48" id="OpenCloseEnrollmentUI" rx="2.5" ry="2.5" style="stroke:#181818;stroke-width:0.5;" width="196" x="137.5" y="7"/><ellipse cx="152.5" cy="23" fill="#ADD1B2" rx="11" ry="11" style="stroke:#181818;stroke-width:1.0;"/><path d="M155.4731,28.6431 Q154.8921,28.9419 154.2529,29.0913 Q153.6138,29.2407 152.9082,29.2407 Q150.4014,29.2407 149.0815,27.5889 Q147.7617,25.937 147.7617,22.8159 Q147.7617,19.6865 149.0815,18.0347 Q150.4014,16.3828 152.9082,16.3828 Q153.6138,16.3828 154.2612,16.5322 Q154.9087,16.6816 155.4731,16.9805 L155.4731,19.7031 Q154.8423,19.1221 154.2488,18.8523 Q153.6553,18.5825 153.0244,18.5825 Q151.6797,18.5825 150.9949,19.6492 Q150.3101,20.7158 150.3101,22.8159 Q150.3101,24.9077 150.9949,25.9744 Q151.6797,27.041 153.0244,27.041 Q153.6553,27.041 154.2488,26.7712 Q154.8423,26.5015 155.4731,25.9204 Z " fill="#000000"/><text fill="#000000" font-family="sans-serif" font-size="14" lengthAdjust="spacing" textLength="164" x="166.5" y="28.291">OpenCloseEnrollmentUI</text><line style="stroke:#181818;stroke-width:0.5;" x1="138.5" x2="332.5" y1="39" y2="39"/><line style="stroke:#181818;stroke-width:0.5;" x1="138.5" x2="332.5" y1="47" y2="47"/></g><!--class openCloseEnrollmentController--><g id="elem_openCloseEnrollmentController"><rect codeLine="5" fill="#F1F1F1" height="48" id="openCloseEnrollmentController" rx="2.5" ry="2.5" style="stroke:#181818;stroke-width:0.5;" width="250" x="110.5" y="132"/><ellipse cx="125.5" cy="148" fill="#ADD1B2" rx="11" ry="11" style="stroke:#181818;stroke-width:1.0;"/><path d="M128.4731,153.6431 Q127.8921,153.9419 127.2529,154.0913 Q126.6138,154.2407 125.9082,154.2407 Q123.4014,154.2407 122.0815,152.5889 Q120.7617,150.937 120.7617,147.8159 Q120.7617,144.6865 122.0815,143.0347 Q123.4014,141.3828 125.9082,141.3828 Q126.6138,141.3828 127.2612,141.5322 Q127.9087,141.6816 128.4731,141.9805 L128.4731,144.7031 Q127.8423,144.1221 127.2488,143.8523 Q126.6553,143.5825 126.0244,143.5825 Q124.6797,143.5825 123.9949,144.6492 Q123.3101,145.7158 123.3101,147.8159 Q123.3101,149.9077 123.9949,150.9744 Q124.6797,152.041 126.0244,152.041 Q126.6553,152.041 127.2488,151.7712 Q127.8423,151.5015 128.4731,150.9204 Z " fill="#000000"/><text fill="#000000" font-family="sans-serif" font-size="14" lengthAdjust="spacing" textLength="218" x="139.5" y="153.291">openCloseEnrollmentController</text><line style="stroke:#181818;stroke-width:0.5;" x1="111.5" x2="359.5" y1="164" y2="164"/><line style="stroke:#181818;stroke-width:0.5;" x1="111.5" x2="359.5" y1="172" y2="172"/></g><!--class OpenCloseEnrollmentRepository--><g id="elem_OpenCloseEnrollmentRepository"><rect codeLine="8" fill="#F1F1F1" height="48" id="OpenCloseEnrollmentRepository" rx="2.5" ry="2.5" style="stroke:#181818;stroke-width:0.5;" width="255" x="7" y="257"/><ellipse cx="22" cy="273" fill="#ADD1B2" rx="11" ry="11" style="stroke:#181818;stroke-width:1.0;"/><path d="M24.9731,278.6431 Q24.3921,278.9419 23.7529,279.0913 Q23.1138,279.2407 22.4082,279.2407 Q19.9014,279.2407 18.5815,277.5889 Q17.2617,275.937 17.2617,272.8159 Q17.2617,269.6865 18.5815,268.0347 Q19.9014,266.3828 22.4082,266.3828 Q23.1138,266.3828 23.7612,266.5322 Q24.4087,266.6816 24.9731,266.9805 L24.9731,269.7031 Q24.3423,269.1221 23.7488,268.8523 Q23.1553,268.5825 22.5244,268.5825 Q21.1797,268.5825 20.4949,269.6492 Q19.8101,270.7158 19.8101,272.8159 Q19.8101,274.9077 20.4949,275.9744 Q21.1797,277.041 22.5244,277.041 Q23.1553,277.041 23.7488,276.7712 Q24.3423,276.5015 24.9731,275.9204 Z " fill="#000000"/><text fill="#000000" font-family="sans-serif" font-size="14" lengthAdjust="spacing" textLength="223" x="36" y="278.291">OpenCloseEnrollmentRepository</text><line style="stroke:#181818;stroke-width:0.5;" x1="8" x2="261" y1="289" y2="289"/><line style="stroke:#181818;stroke-width:0.5;" x1="8" x2="261" y1="297" y2="297"/></g><!--class Course--><g id="elem_Course"><rect codeLine="11" fill="#F1F1F1" height="48" id="Course" rx="2.5" ry="2.5" style="stroke:#181818;stroke-width:0.5;" width="81" x="297" y="257"/><ellipse cx="312" cy="273" fill="#ADD1B2" rx="11" ry="11" style="stroke:#181818;stroke-width:1.0;"/><path d="M314.9731,278.6431 Q314.3921,278.9419 313.7529,279.0913 Q313.1138,279.2407 312.4082,279.2407 Q309.9014,279.2407 308.5815,277.5889 Q307.2617,275.937 307.2617,272.8159 Q307.2617,269.6865 308.5815,268.0347 Q309.9014,266.3828 312.4082,266.3828 Q313.1138,266.3828 313.7612,266.5322 Q314.4087,266.6816 314.9731,266.9805 L314.9731,269.7031 Q314.3423,269.1221 313.7488,268.8523 Q313.1553,268.5825 312.5244,268.5825 Q311.1797,268.5825 310.4949,269.6492 Q309.8101,270.7158 309.8101,272.8159 Q309.8101,274.9077 310.4949,275.9744 Q311.1797,277.041 312.5244,277.041 Q313.1553,277.041 313.7488,276.7712 Q314.3423,276.5015 314.9731,275.9204 Z " fill="#000000"/><text fill="#000000" font-family="sans-serif" font-size="14" lengthAdjust="spacing" textLength="49" x="326" y="278.291">Course</text><line style="stroke:#181818;stroke-width:0.5;" x1="298" x2="377" y1="289" y2="289"/><line style="stroke:#181818;stroke-width:0.5;" x1="298" x2="377" y1="297" y2="297"/></g><!--link OpenCloseEnrollmentUI to openCloseEnrollmentController--><g id="link_OpenCloseEnrollmentUI_openCloseEnrollmentController"><path codeLine="14" d="M235.5,55.42 C235.5,75.43 235.5,104.3 235.5,125.8 " fill="none" id="OpenCloseEnrollmentUI-to-openCloseEnrollmentController" style="stroke:#181818;stroke-width:1.0;"/><polygon fill="#181818" points="235.5,130.66,239.5,121.66,235.5,125.66,231.5,121.66,235.5,130.66" style="stroke:#181818;stroke-width:1.0;"/><text fill="#000000" font-family="sans-serif" font-size="13" lengthAdjust="spacing" textLength="29" x="236.5" y="98.5684">uses</text></g><!--link openCloseEnrollmentController to OpenCloseEnrollmentRepository--><g id="link_openCloseEnrollmentController_OpenCloseEnrollmentRepository"><path codeLine="15" d="M202.32,180.37 C191.65,188.9 180.33,199.14 171.5,210 C161.39,222.43 152.82,238.05 146.48,251.38 " fill="none" id="openCloseEnrollmentController-to-OpenCloseEnrollmentRepository" style="stroke:#181818;stroke-width:1.0;"/><polygon fill="#181818" points="144.08,255.55,151.495,249.0679,146.1835,251.014,144.2374,245.7024,144.08,255.55" style="stroke:#181818;stroke-width:1.0;"/><text fill="#000000" font-family="sans-serif" font-size="13" lengthAdjust="spacing" textLength="121" x="172.5" y="223.5684">uses the repository</text></g><!--link openCloseEnrollmentController to Course--><g id="link_openCloseEnrollmentController_Course"><path codeLine="16" d="M267.68,180.3 C278.26,188.9 289.59,199.2 298.5,210 C308.82,222.5 317.82,238.13 324.57,251.44 " fill="none" id="openCloseEnrollmentController-to-Course" style="stroke:#181818;stroke-width:1.0;"/><polygon fill="#181818" points="327.14,255.61,326.7054,245.7707,324.9097,251.135,319.5454,249.3393,327.14,255.61" style="stroke:#181818;stroke-width:1.0;"/><text fill="#000000" font-family="sans-serif" font-size="13" lengthAdjust="spacing" textLength="97" x="310.5" y="223.5684">Changes status</text></g><!--SRC=[Iyv9B2vMy2z8pNFEoIzETSqhoi_9oKtDAmdrLAZcgkNYIWOhoCTKu9oVLm9YfnOXAyHYKb1gGNvnPab-KIMoGkVyqgBYL8W8TkjrTUtmsskbK5gSMio5tsqWK_0w2cAAGab6ga8HN908Go4Ui59mpaZCImSQK5oIM59Qp0K0]--></g></svg>