<?xml version="1.0" encoding="us-ascii" standalone="no"?><svg xmlns="http://www.w3.org/2000/svg" xmlns:xlink="http://www.w3.org/1999/xlink" contentStyleType="text/css" height="774px" preserveAspectRatio="none" style="width:315px;height:774px;background:#FFFFFF;" version="1.1" viewBox="0 0 315 774" width="315px" zoomAndPan="magnify"><defs/><g><!--class User--><g id="elem_User"><rect codeLine="2" fill="#F1F1F1" height="48" id="User" rx="2.5" ry="2.5" style="stroke:#181818;stroke-width:0.5;" width="63" x="126" y="7"/><ellipse cx="141" cy="23" fill="#ADD1B2" rx="11" ry="11" style="stroke:#181818;stroke-width:1.0;"/><path d="M143.9731,28.6431 Q143.3921,28.9419 142.7529,29.0913 Q142.1138,29.2407 141.4082,29.2407 Q138.9014,29.2407 137.5815,27.5889 Q136.2617,25.937 136.2617,22.8159 Q136.2617,19.6865 137.5815,18.0347 Q138.9014,16.3828 141.4082,16.3828 Q142.1138,16.3828 142.7612,16.5322 Q143.4087,16.6816 143.9731,16.9805 L143.9731,19.7031 Q143.3423,19.1221 142.7488,18.8523 Q142.1553,18.5825 141.5244,18.5825 Q140.1797,18.5825 139.4949,19.6492 Q138.8101,20.7158 138.8101,22.8159 Q138.8101,24.9077 139.4949,25.9744 Q140.1797,27.041 141.5244,27.041 Q142.1553,27.041 142.7488,26.7712 Q143.3423,26.5015 143.9731,25.9204 Z " fill="#000000"/><text fill="#000000" font-family="sans-serif" font-size="14" lengthAdjust="spacing" textLength="31" x="155" y="28.291">User</text><line style="stroke:#181818;stroke-width:0.5;" x1="127" x2="188" y1="39" y2="39"/><line style="stroke:#181818;stroke-width:0.5;" x1="127" x2="188" y1="47" y2="47"/></g><!--class PostIt--><g id="elem_PostIt"><rect codeLine="4" fill="#F1F1F1" height="212.8828" id="PostIt" rx="2.5" ry="2.5" style="stroke:#181818;stroke-width:0.5;" width="124" x="95.5" y="554.42"/><ellipse cx="134.8" cy="570.42" fill="#ADD1B2" rx="11" ry="11" style="stroke:#181818;stroke-width:1.0;"/><path d="M137.7731,576.0631 Q137.1921,576.3619 136.5529,576.5113 Q135.9138,576.6607 135.2082,576.6607 Q132.7014,576.6607 131.3815,575.0089 Q130.0617,573.357 130.0617,570.2359 Q130.0617,567.1065 131.3815,565.4547 Q132.7014,563.8028 135.2082,563.8028 Q135.9138,563.8028 136.5612,563.9522 Q137.2087,564.1016 137.7731,564.4005 L137.7731,567.1231 Q137.1423,566.5421 136.5488,566.2723 Q135.9553,566.0025 135.3244,566.0025 Q133.9797,566.0025 133.2949,567.0692 Q132.6101,568.1358 132.6101,570.2359 Q132.6101,572.3277 133.2949,573.3944 Q133.9797,574.461 135.3244,574.461 Q135.9553,574.461 136.5488,574.1912 Q137.1423,573.9215 137.7731,573.3404 Z " fill="#000000"/><text fill="#000000" font-family="sans-serif" font-size="14" lengthAdjust="spacing" textLength="38" x="154.2" y="575.711">PostIt</text><line style="stroke:#181818;stroke-width:0.5;" x1="96.5" x2="218.5" y1="586.42" y2="586.42"/><rect fill="none" height="6" style="stroke:#C82930;stroke-width:1.0;" width="6" x="103.5" y="597.1641"/><text fill="#000000" font-family="sans-serif" font-size="14" lengthAdjust="spacing" textLength="13" x="115.5" y="603.9552">Id</text><rect fill="none" height="6" style="stroke:#C82930;stroke-width:1.0;" width="6" x="103.5" y="613.6524"/><text fill="#000000" font-family="sans-serif" font-size="14" lengthAdjust="spacing" textLength="40" x="115.5" y="620.4434">Board</text><rect fill="none" height="6" style="stroke:#C82930;stroke-width:1.0;" width="6" x="103.5" y="630.1407"/><text fill="#000000" font-family="sans-serif" font-size="14" lengthAdjust="spacing" textLength="61" x="115.5" y="636.9317">Columns</text><rect fill="none" height="6" style="stroke:#C82930;stroke-width:1.0;" width="6" x="103.5" y="646.629"/><text fill="#000000" font-family="sans-serif" font-size="14" lengthAdjust="spacing" textLength="36" x="115.5" y="653.42">Rows</text><rect fill="none" height="6" style="stroke:#C82930;stroke-width:1.0;" width="6" x="103.5" y="663.1173"/><text fill="#000000" font-family="sans-serif" font-size="14" lengthAdjust="spacing" textLength="45" x="115.5" y="669.9083">Owner</text><rect fill="none" height="6" style="stroke:#C82930;stroke-width:1.0;" width="6" x="103.5" y="679.6055"/><text fill="#000000" font-family="sans-serif" font-size="14" lengthAdjust="spacing" textLength="86" x="115.5" y="686.3966">ContentText</text><rect fill="none" height="6" style="stroke:#C82930;stroke-width:1.0;" width="6" x="103.5" y="696.0938"/><text fill="#000000" font-family="sans-serif" font-size="14" lengthAdjust="spacing" textLength="97" x="115.5" y="702.8848">ContentImage</text><rect fill="none" height="6" style="stroke:#C82930;stroke-width:1.0;" width="6" x="103.5" y="712.5821"/><text fill="#000000" font-family="sans-serif" font-size="14" lengthAdjust="spacing" textLength="98" x="115.5" y="719.3731">Post-It History</text><rect fill="none" height="6" style="stroke:#C82930;stroke-width:1.0;" width="6" x="103.5" y="729.0704"/><text fill="#000000" font-family="sans-serif" font-size="14" lengthAdjust="spacing" textLength="46" x="115.5" y="735.8614">Access</text><rect fill="none" height="6" style="stroke:#C82930;stroke-width:1.0;" width="6" x="103.5" y="745.5587"/><text fill="#000000" font-family="sans-serif" font-size="14" lengthAdjust="spacing" textLength="44" x="115.5" y="752.3497">Action</text><line style="stroke:#181818;stroke-width:0.5;" x1="96.5" x2="218.5" y1="759.3028" y2="759.3028"/></g><!--class Board--><g id="elem_Board"><rect codeLine="19" fill="#F1F1F1" height="163.418" id="Board" rx="2.5" ry="2.5" style="stroke:#181818;stroke-width:0.5;" width="118" x="98.5" y="331"/><ellipse cx="134.2" cy="347" fill="#ADD1B2" rx="11" ry="11" style="stroke:#181818;stroke-width:1.0;"/><path d="M137.1731,352.6431 Q136.5921,352.9419 135.9529,353.0913 Q135.3138,353.2407 134.6082,353.2407 Q132.1014,353.2407 130.7815,351.5889 Q129.4617,349.937 129.4617,346.8159 Q129.4617,343.6865 130.7815,342.0347 Q132.1014,340.3828 134.6082,340.3828 Q135.3138,340.3828 135.9612,340.5322 Q136.6087,340.6816 137.1731,340.9805 L137.1731,343.7031 Q136.5423,343.1221 135.9488,342.8523 Q135.3553,342.5825 134.7244,342.5825 Q133.3797,342.5825 132.6949,343.6492 Q132.0101,344.7158 132.0101,346.8159 Q132.0101,348.9077 132.6949,349.9744 Q133.3797,351.041 134.7244,351.041 Q135.3553,351.041 135.9488,350.7712 Q136.5423,350.5015 137.1731,349.9204 Z " fill="#000000"/><text fill="#000000" font-family="sans-serif" font-size="14" lengthAdjust="spacing" textLength="40" x="152.8" y="352.291">Board</text><line style="stroke:#181818;stroke-width:0.5;" x1="99.5" x2="215.5" y1="363" y2="363"/><rect fill="none" height="6" style="stroke:#C82930;stroke-width:1.0;" width="6" x="106.5" y="373.7441"/><text fill="#000000" font-family="sans-serif" font-size="14" lengthAdjust="spacing" textLength="13" x="118.5" y="380.5352">Id</text><rect fill="none" height="6" style="stroke:#C82930;stroke-width:1.0;" width="6" x="106.5" y="390.2324"/><text fill="#000000" font-family="sans-serif" font-size="14" lengthAdjust="spacing" textLength="30" x="118.5" y="397.0234">Title</text><rect fill="none" height="6" style="stroke:#C82930;stroke-width:1.0;" width="6" x="106.5" y="406.7207"/><text fill="#000000" font-family="sans-serif" font-size="14" lengthAdjust="spacing" textLength="46" x="118.5" y="413.5117">Shares</text><rect fill="none" height="6" style="stroke:#C82930;stroke-width:1.0;" width="6" x="106.5" y="423.209"/><text fill="#000000" font-family="sans-serif" font-size="14" lengthAdjust="spacing" textLength="51" x="118.5" y="430">Archive</text><rect fill="none" height="6" style="stroke:#C82930;stroke-width:1.0;" width="6" x="106.5" y="439.6973"/><text fill="#000000" font-family="sans-serif" font-size="14" lengthAdjust="spacing" textLength="45" x="118.5" y="446.4883">Owner</text><rect fill="none" height="6" style="stroke:#C82930;stroke-width:1.0;" width="6" x="106.5" y="456.1855"/><text fill="#000000" font-family="sans-serif" font-size="14" lengthAdjust="spacing" textLength="92" x="118.5" y="462.9766">Board History</text><rect fill="none" height="6" style="stroke:#C82930;stroke-width:1.0;" width="6" x="106.5" y="472.6738"/><text fill="#000000" font-family="sans-serif" font-size="14" lengthAdjust="spacing" textLength="61" x="118.5" y="479.4648">Columns</text><line style="stroke:#181818;stroke-width:0.5;" x1="99.5" x2="215.5" y1="486.418" y2="486.418"/></g><!--class SharedBoardSynchronizationUI--><g id="elem_SharedBoardSynchronizationUI"><rect codeLine="29" fill="#F1F1F1" height="48" id="SharedBoardSynchronizationUI" rx="2.5" ry="2.5" style="stroke:#181818;stroke-width:0.5;" width="245" x="35" y="115"/><ellipse cx="50" cy="131" fill="#ADD1B2" rx="11" ry="11" style="stroke:#181818;stroke-width:1.0;"/><path d="M52.9731,136.6431 Q52.3921,136.9419 51.7529,137.0913 Q51.1138,137.2407 50.4082,137.2407 Q47.9014,137.2407 46.5815,135.5889 Q45.2617,133.937 45.2617,130.8159 Q45.2617,127.6865 46.5815,126.0347 Q47.9014,124.3828 50.4082,124.3828 Q51.1138,124.3828 51.7612,124.5322 Q52.4087,124.6816 52.9731,124.9805 L52.9731,127.7031 Q52.3423,127.1221 51.7488,126.8523 Q51.1553,126.5825 50.5244,126.5825 Q49.1797,126.5825 48.4949,127.6492 Q47.8101,128.7158 47.8101,130.8159 Q47.8101,132.9077 48.4949,133.9744 Q49.1797,135.041 50.5244,135.041 Q51.1553,135.041 51.7488,134.7712 Q52.3423,134.5015 52.9731,133.9204 Z " fill="#000000"/><text fill="#000000" font-family="sans-serif" font-size="14" lengthAdjust="spacing" textLength="213" x="64" y="136.291">SharedBoardSynchronizationUI</text><line style="stroke:#181818;stroke-width:0.5;" x1="36" x2="279" y1="147" y2="147"/><line style="stroke:#181818;stroke-width:0.5;" x1="36" x2="279" y1="155" y2="155"/></g><!--class SharedBoardSynchronizationController--><g id="elem_SharedBoardSynchronizationController"><rect codeLine="31" fill="#F1F1F1" height="48" id="SharedBoardSynchronizationController" rx="2.5" ry="2.5" style="stroke:#181818;stroke-width:0.5;" width="301" x="7" y="223"/><ellipse cx="22" cy="239" fill="#ADD1B2" rx="11" ry="11" style="stroke:#181818;stroke-width:1.0;"/><path d="M24.9731,244.6431 Q24.3921,244.9419 23.7529,245.0913 Q23.1138,245.2407 22.4082,245.2407 Q19.9014,245.2407 18.5815,243.5889 Q17.2617,241.937 17.2617,238.8159 Q17.2617,235.6865 18.5815,234.0347 Q19.9014,232.3828 22.4082,232.3828 Q23.1138,232.3828 23.7612,232.5322 Q24.4087,232.6816 24.9731,232.9805 L24.9731,235.7031 Q24.3423,235.1221 23.7488,234.8523 Q23.1553,234.5825 22.5244,234.5825 Q21.1797,234.5825 20.4949,235.6492 Q19.8101,236.7158 19.8101,238.8159 Q19.8101,240.9077 20.4949,241.9744 Q21.1797,243.041 22.5244,243.041 Q23.1553,243.041 23.7488,242.7712 Q24.3423,242.5015 24.9731,241.9204 Z " fill="#000000"/><text fill="#000000" font-family="sans-serif" font-size="14" lengthAdjust="spacing" textLength="269" x="36" y="244.291">SharedBoardSynchronizationController</text><line style="stroke:#181818;stroke-width:0.5;" x1="8" x2="307" y1="255" y2="255"/><line style="stroke:#181818;stroke-width:0.5;" x1="8" x2="307" y1="263" y2="263"/></g><!--link User to SharedBoardSynchronizationUI--><g id="link_User_SharedBoardSynchronizationUI"><path codeLine="33" d="M157.5,55.26 C157.5,71.14 157.5,92.28 157.5,109.22 " fill="none" id="User-to-SharedBoardSynchronizationUI" style="stroke:#181818;stroke-width:1.0;"/><polygon fill="#181818" points="157.5,113.79,161.5,104.79,157.5,108.79,153.5,104.79,157.5,113.79" style="stroke:#181818;stroke-width:1.0;"/></g><!--link SharedBoardSynchronizationUI to SharedBoardSynchronizationController--><g id="link_SharedBoardSynchronizationUI_SharedBoardSynchronizationController"><path codeLine="34" d="M157.5,163.26 C157.5,179.14 157.5,200.28 157.5,217.22 " fill="none" id="SharedBoardSynchronizationUI-to-SharedBoardSynchronizationController" style="stroke:#181818;stroke-width:1.0;"/><polygon fill="#181818" points="157.5,221.79,161.5,212.79,157.5,216.79,153.5,212.79,157.5,221.79" style="stroke:#181818;stroke-width:1.0;"/></g><!--link SharedBoardSynchronizationController to Board--><g id="link_SharedBoardSynchronizationController_Board"><path codeLine="35" d="M157.5,271.45 C157.5,285.78 157.5,305.08 157.5,324.77 " fill="none" id="SharedBoardSynchronizationController-to-Board" style="stroke:#181818;stroke-width:1.0;"/><polygon fill="#181818" points="157.5,329.61,161.5,320.61,157.5,324.61,153.5,320.61,157.5,329.61" style="stroke:#181818;stroke-width:1.0;"/></g><!--link Board to PostIt--><g id="link_Board_PostIt"><path codeLine="36" d="M157.5,494.65 C157.5,511.92 157.5,530.45 157.5,548.63 " fill="none" id="Board-to-PostIt" style="stroke:#181818;stroke-width:1.0;"/><polygon fill="#181818" points="157.5,553.26,161.5,544.26,157.5,548.26,153.5,544.26,157.5,553.26" style="stroke:#181818;stroke-width:1.0;"/></g><!--SRC=[ZL5T3i8W37xd5Bi0Lp1HN-H9uxO344OS2OE4LkSqkxly9awJAG_GbgzVlxP2Su2g1Ua84T4-MK26JrBvGrcNtftbBfjxgw-3WUISxPYjusWyHqOOb0ORUST5W0ty8bCa5A4CguC2j6vAmQqG4g3OgAmXCo55LvJm8QjHg3DZtNCdIx8JlRh9Bs6HObcpT3ENCf6dYyXwCg9trgW73s9QzXiJEdLMwp3EC5HADwk4Qv-hkM-5_W5vhhJ2U7ilRPcy0000]--></g></svg>