<?xml version="1.0" encoding="us-ascii" standalone="no"?><svg xmlns="http://www.w3.org/2000/svg" xmlns:xlink="http://www.w3.org/1999/xlink" contentStyleType="text/css" height="477px" preserveAspectRatio="none" style="width:762px;height:477px;background:#FFFFFF;" version="1.1" viewBox="0 0 762 477" width="762px" zoomAndPan="magnify"><defs/><g><rect fill="#FFFFFF" height="274.7949" style="stroke:#181818;stroke-width:1.0;" width="10" x="214" y="112.7988"/><rect fill="#FFFFFF" height="156.5527" style="stroke:#181818;stroke-width:1.0;" width="10" x="451" y="171.4199"/><rect fill="#FFFFFF" height="82.9316" style="stroke:#181818;stroke-width:1.0;" width="10" x="456" y="200.7305"/><rect fill="#FFFFFF" height="38.3105" style="stroke:#181818;stroke-width:1.0;" width="10" x="451" y="349.2832"/><rect fill="#FFFFFF" height="245.4844" style="stroke:#181818;stroke-width:1.0;" width="10" x="588" y="142.1094"/><rect fill="#FFFFFF" height="9" style="stroke:#181818;stroke-width:1.0;" width="10" x="593" y="378.5938"/><rect fill="#FFFFFF" height="216.1738" style="stroke:#181818;stroke-width:1.0;" width="10" x="695" y="171.4199"/><rect fill="#FFFFFF" height="133.2422" style="stroke:#181818;stroke-width:1.0;" width="10" x="700" y="254.3516"/><rect fill="#FFFFFF" height="74.6211" style="stroke:#181818;stroke-width:1.0;" width="10" x="705" y="312.9727"/><rect fill="none" height="105.2422" style="stroke:#000000;stroke-width:1.5;" width="363" x="393" y="215.7305"/><line style="stroke:#181818;stroke-width:0.5;stroke-dasharray:5.0,5.0;" x1="27" x2="27" y1="81.4883" y2="396.5938"/><line style="stroke:#181818;stroke-width:0.5;stroke-dasharray:5.0,5.0;" x1="219" x2="219" y1="81.4883" y2="396.5938"/><line style="stroke:#181818;stroke-width:0.5;stroke-dasharray:5.0,5.0;" x1="456" x2="456" y1="81.4883" y2="396.5938"/><line style="stroke:#181818;stroke-width:0.5;stroke-dasharray:5.0,5.0;" x1="593" x2="593" y1="81.4883" y2="396.5938"/><line style="stroke:#181818;stroke-width:0.5;stroke-dasharray:5.0,5.0;" x1="700" x2="700" y1="81.4883" y2="396.5938"/><text fill="#000000" font-family="sans-serif" font-size="14" lengthAdjust="spacing" textLength="38" x="5" y="78.5352">Users</text><ellipse cx="27" cy="13.5" fill="#E2E2F0" rx="8" ry="8" style="stroke:#181818;stroke-width:0.5;"/><path d="M27,21.5 L27,48.5 M14,29.5 L40,29.5 M27,48.5 L14,63.5 M27,48.5 L40,63.5 " fill="none" style="stroke:#181818;stroke-width:0.5;"/><text fill="#000000" font-family="sans-serif" font-size="14" lengthAdjust="spacing" textLength="38" x="5" y="409.1289">Users</text><ellipse cx="27" cy="420.582" fill="#E2E2F0" rx="8" ry="8" style="stroke:#181818;stroke-width:0.5;"/><path d="M27,428.582 L27,455.582 M14,436.582 L40,436.582 M27,455.582 L14,470.582 M27,455.582 L40,470.582 " fill="none" style="stroke:#181818;stroke-width:0.5;"/><rect fill="#E2E2F0" height="30.4883" rx="2.5" ry="2.5" style="stroke:#181818;stroke-width:0.5;" width="114" x="162" y="50"/><text fill="#000000" font-family="sans-serif" font-size="14" lengthAdjust="spacing" textLength="100" x="169" y="70.5352">Parent Process</text><rect fill="#E2E2F0" height="30.4883" rx="2.5" ry="2.5" style="stroke:#181818;stroke-width:0.5;" width="114" x="162" y="395.5938"/><text fill="#000000" font-family="sans-serif" font-size="14" lengthAdjust="spacing" textLength="100" x="169" y="416.1289">Parent Process</text><rect fill="#E2E2F0" height="30.4883" rx="2.5" ry="2.5" style="stroke:#181818;stroke-width:0.5;" width="106" x="403" y="50"/><text fill="#000000" font-family="sans-serif" font-size="14" lengthAdjust="spacing" textLength="92" x="410" y="70.5352">Child Process</text><rect fill="#E2E2F0" height="30.4883" rx="2.5" ry="2.5" style="stroke:#181818;stroke-width:0.5;" width="106" x="403" y="395.5938"/><text fill="#000000" font-family="sans-serif" font-size="14" lengthAdjust="spacing" textLength="92" x="410" y="416.1289">Child Process</text><rect fill="#E2E2F0" height="30.4883" rx="2.5" ry="2.5" style="stroke:#181818;stroke-width:0.5;" width="102" x="542" y="50"/><text fill="#000000" font-family="sans-serif" font-size="14" lengthAdjust="spacing" textLength="88" x="549" y="70.5352">SharedBoard</text><rect fill="#E2E2F0" height="30.4883" rx="2.5" ry="2.5" style="stroke:#181818;stroke-width:0.5;" width="102" x="542" y="395.5938"/><text fill="#000000" font-family="sans-serif" font-size="14" lengthAdjust="spacing" textLength="88" x="549" y="416.1289">SharedBoard</text><rect fill="#E2E2F0" height="30.4883" rx="2.5" ry="2.5" style="stroke:#181818;stroke-width:0.5;" width="92" x="654" y="50"/><text fill="#000000" font-family="sans-serif" font-size="14" lengthAdjust="spacing" textLength="78" x="661" y="70.5352">Semaphore</text><rect fill="#E2E2F0" height="30.4883" rx="2.5" ry="2.5" style="stroke:#181818;stroke-width:0.5;" width="92" x="654" y="395.5938"/><text fill="#000000" font-family="sans-serif" font-size="14" lengthAdjust="spacing" textLength="78" x="661" y="416.1289">Semaphore</text><rect fill="#FFFFFF" height="274.7949" style="stroke:#181818;stroke-width:1.0;" width="10" x="214" y="112.7988"/><rect fill="#FFFFFF" height="156.5527" style="stroke:#181818;stroke-width:1.0;" width="10" x="451" y="171.4199"/><rect fill="#FFFFFF" height="82.9316" style="stroke:#181818;stroke-width:1.0;" width="10" x="456" y="200.7305"/><rect fill="#FFFFFF" height="38.3105" style="stroke:#181818;stroke-width:1.0;" width="10" x="451" y="349.2832"/><rect fill="#FFFFFF" height="245.4844" style="stroke:#181818;stroke-width:1.0;" width="10" x="588" y="142.1094"/><rect fill="#FFFFFF" height="9" style="stroke:#181818;stroke-width:1.0;" width="10" x="593" y="378.5938"/><rect fill="#FFFFFF" height="216.1738" style="stroke:#181818;stroke-width:1.0;" width="10" x="695" y="171.4199"/><rect fill="#FFFFFF" height="133.2422" style="stroke:#181818;stroke-width:1.0;" width="10" x="700" y="254.3516"/><rect fill="#FFFFFF" height="74.6211" style="stroke:#181818;stroke-width:1.0;" width="10" x="705" y="312.9727"/><polygon fill="#181818" points="202,108.7988,212,112.7988,202,116.7988,206,112.7988" style="stroke:#181818;stroke-width:1.0;"/><line style="stroke:#181818;stroke-width:1.0;" x1="27" x2="208" y1="112.7988" y2="112.7988"/><text fill="#000000" font-family="sans-serif" font-size="13" lengthAdjust="spacing" textLength="168" x="34" y="108.0566">Ask to access SharedBoard</text><polygon fill="#181818" points="576,138.1094,586,142.1094,576,146.1094,580,142.1094" style="stroke:#181818;stroke-width:1.0;"/><line style="stroke:#181818;stroke-width:1.0;" x1="224" x2="582" y1="142.1094" y2="142.1094"/><text fill="#000000" font-family="sans-serif" font-size="13" lengthAdjust="spacing" textLength="126" x="231" y="137.3672">Create shared board</text><polygon fill="#181818" points="683,167.4199,693,171.4199,683,175.4199,687,171.4199" style="stroke:#181818;stroke-width:1.0;"/><line style="stroke:#181818;stroke-width:1.0;" x1="224" x2="689" y1="171.4199" y2="171.4199"/><text fill="#000000" font-family="sans-serif" font-size="13" lengthAdjust="spacing" textLength="120" x="231" y="166.6777">Create semaphores</text><polygon fill="#181818" points="444,196.7305,454,200.7305,444,204.7305,448,200.7305" style="stroke:#181818;stroke-width:1.0;"/><line style="stroke:#181818;stroke-width:1.0;" x1="224" x2="450" y1="200.7305" y2="200.7305"/><text fill="#000000" font-family="sans-serif" font-size="13" lengthAdjust="spacing" textLength="149" x="231" y="195.9883">Creates child processes</text><path d="M393,215.7305 L467,215.7305 L467,223.041 L457,233.041 L393,233.041 L393,215.7305 " fill="#EEEEEE" style="stroke:#000000;stroke-width:1.5;"/><rect fill="none" height="105.2422" style="stroke:#000000;stroke-width:1.5;" width="363" x="393" y="215.7305"/><text fill="#000000" font-family="sans-serif" font-size="13" font-weight="bold" lengthAdjust="spacing" textLength="29" x="408" y="229.2988">loop</text><text fill="#000000" font-family="sans-serif" font-size="11" font-weight="bold" lengthAdjust="spacing" textLength="115" x="482" y="228.3652">[Each Child Process]</text><polygon fill="#181818" points="688,250.3516,698,254.3516,688,258.3516,692,254.3516" style="stroke:#181818;stroke-width:1.0;"/><line style="stroke:#181818;stroke-width:1.0;" x1="466" x2="694" y1="254.3516" y2="254.3516"/><text fill="#000000" font-family="sans-serif" font-size="13" lengthAdjust="spacing" textLength="122" x="473" y="249.6094">Wait for semaphore</text><polygon fill="#181818" points="576,279.6621,586,283.6621,576,287.6621,580,283.6621" style="stroke:#181818;stroke-width:1.0;"/><line style="stroke:#181818;stroke-width:1.0;stroke-dasharray:2.0,2.0;" x1="461" x2="582" y1="283.6621" y2="283.6621"/><text fill="#000000" font-family="sans-serif" font-size="13" lengthAdjust="spacing" textLength="98" x="468" y="278.9199">Write to post-it</text><polygon fill="#181818" points="693,308.9727,703,312.9727,693,316.9727,697,312.9727" style="stroke:#181818;stroke-width:1.0;"/><line style="stroke:#181818;stroke-width:1.0;" x1="461" x2="699" y1="312.9727" y2="312.9727"/><text fill="#000000" font-family="sans-serif" font-size="13" lengthAdjust="spacing" textLength="120" x="468" y="308.2305">Release semaphore</text><polygon fill="#181818" points="439,345.2832,449,349.2832,439,353.2832,443,349.2832" style="stroke:#181818;stroke-width:1.0;"/><line style="stroke:#181818;stroke-width:1.0;" x1="224" x2="445" y1="349.2832" y2="349.2832"/><text fill="#000000" font-family="sans-serif" font-size="13" lengthAdjust="spacing" textLength="208" x="231" y="344.541">Wait for child processes to finish</text><polygon fill="#181818" points="581,374.5938,591,378.5938,581,382.5938,585,378.5938" style="stroke:#181818;stroke-width:1.0;"/><line style="stroke:#181818;stroke-width:1.0;" x1="224" x2="587" y1="378.5938" y2="378.5938"/><text fill="#000000" font-family="sans-serif" font-size="13" lengthAdjust="spacing" textLength="137" x="231" y="373.8516">Print post-it contents</text><!--SRC=[TP4zRiCm38LtdeB8dWjaAD04sOqMHMPMOY2XhYc8RCzVMNRadw1UPD8VzTwZoPba_53E2a0_9kGi_f8noW2GA5jqCT5WUEWeSpcxB8vL3qYAKskBNKBi_OQgdItq7igaFmjbNv7wjaFucrAGp1Le5K0rYyUNMVs4h_g59aXkLCJLrJ1RBcojJtZ9F6RJok3d3ceY2_ZeABJ5J76MgLe_9XHTpP-c_6KEUf64Lt81Dwi1BC_KsKhVA1hUorzfucjqoNBBiRWfmPEe7QFzU-4Rzqow2WCyUF2yI_GSgJdPPHf5xt686futtELOwjaIEXciV5Vu0m00]--></g></svg>