<?xml version="1.0" encoding="us-ascii" standalone="no"?><svg xmlns="http://www.w3.org/2000/svg" xmlns:xlink="http://www.w3.org/1999/xlink" contentStyleType="text/css" height="441px" preserveAspectRatio="none" style="width:431px;height:440px;background:#FFFFFF;" version="1.1" viewBox="0 0 431 440" width="431.2px" zoomAndPan="magnify"><defs/><g><!--class CreatePostItUI--><g id="elem_CreatePostItUI"><rect codeLine="2" fill="#F1F1F1" height="42.9884" id="CreatePostItUI" rx="1.75" ry="1.75" style="stroke:#181818;stroke-width:0.3499999999999999;" width="90.3" x="93.45" y="4.9"/><ellipse cx="103.95" cy="20.7942" fill="#ADD1B2" rx="7.7" ry="7.7" style="stroke:#181818;stroke-width:0.6999999999999998;"/><path d="M103.5781,25.6395 Q102.3531,25.6395 101.5547,25.1255 Q100.7672,24.6005 100.3734,23.6598 Q99.9906,22.7083 99.9906,21.4505 Q99.9906,20.0286 100.45,19.0114 Q100.9094,17.9942 101.8062,17.4473 Q102.7031,16.9005 104.0156,16.9005 Q104.6391,16.9005 105.1094,17.0317 Q105.5797,17.152 106.0609,17.3926 L105.4922,18.8036 Q105.0547,18.5848 104.6719,18.4973 Q104.3,18.4098 103.9609,18.4098 Q103.1406,18.4098 102.6484,18.7817 Q102.1562,19.1536 101.9484,19.8208 Q101.7406,20.488 101.7406,21.3739 Q101.7406,22.7848 102.2437,23.463 Q102.7469,24.1301 103.8625,24.1301 Q104.2781,24.1301 104.7156,24.0208 Q105.1531,23.9114 105.7328,23.6489 L105.7328,25.202 Q105.2187,25.4208 104.6609,25.5301 Q104.1141,25.6395 103.5781,25.6395 Z " fill="#000000"/><text fill="#000000" font-family="sans-serif" font-size="8.4" font-style="italic" lengthAdjust="spacing" textLength="56" x="119.7" y="17.3797">&#171;presentation&#187;</text><text fill="#000000" font-family="sans-serif" font-size="9.8" lengthAdjust="spacing" textLength="67.9" x="113.75" y="30.317">CreatePostItUI</text><line style="stroke:#181818;stroke-width:0.3499999999999999;" x1="94.15" x2="183.05" y1="36.6884" y2="36.6884"/><line style="stroke:#181818;stroke-width:0.3499999999999999;" x1="94.15" x2="183.05" y1="42.2884" y2="42.2884"/></g><!--class CreatePostItController--><g id="elem_CreatePostItController"><rect codeLine="3" fill="#F1F1F1" height="69.6835" id="CreatePostItController" rx="1.75" ry="1.75" style="stroke:#181818;stroke-width:0.3499999999999999;" width="267.4" x="4.9" y="102.9"/><ellipse cx="83.475" cy="118.7942" fill="#ADD1B2" rx="7.7" ry="7.7" style="stroke:#181818;stroke-width:0.6999999999999998;"/><path d="M83.1031,123.6395 Q81.8781,123.6395 81.0797,123.1255 Q80.2922,122.6005 79.8984,121.6598 Q79.5156,120.7083 79.5156,119.4505 Q79.5156,118.0286 79.975,117.0114 Q80.4344,115.9942 81.3312,115.4473 Q82.2281,114.9005 83.5406,114.9005 Q84.1641,114.9005 84.6344,115.0317 Q85.1047,115.152 85.5859,115.3926 L85.0172,116.8036 Q84.5797,116.5848 84.1969,116.4973 Q83.825,116.4098 83.4859,116.4098 Q82.6656,116.4098 82.1734,116.7817 Q81.6812,117.1536 81.4734,117.8208 Q81.2656,118.488 81.2656,119.3739 Q81.2656,120.7848 81.7687,121.463 Q82.2719,122.1301 83.3875,122.1301 Q83.8031,122.1301 84.2406,122.0208 Q84.6781,121.9114 85.2578,121.6489 L85.2578,123.202 Q84.7437,123.4208 84.1859,123.5301 Q83.6391,123.6395 83.1031,123.6395 Z " fill="#000000"/><text fill="#000000" font-family="sans-serif" font-size="8.4" font-style="italic" lengthAdjust="spacing" textLength="50.4" x="124.775" y="115.3797">&#171;application&#187;</text><text fill="#000000" font-family="sans-serif" font-size="9.8" lengthAdjust="spacing" textLength="104.3" x="97.825" y="128.317">CreatePostItController</text><line style="stroke:#181818;stroke-width:0.3499999999999999;" x1="5.6" x2="271.6" y1="134.6884" y2="134.6884"/><line style="stroke:#181818;stroke-width:0.3499999999999999;" x1="5.6" x2="271.6" y1="140.2884" y2="140.2884"/><text fill="#000000" font-family="sans-serif" font-size="9.8" lengthAdjust="spacing" textLength="145.6" x="9.1" y="153.5646">getsCellsAvailable(shareBoard)</text><text fill="#000000" font-family="sans-serif" font-size="9.8" lengthAdjust="spacing" textLength="259" x="9.1" y="166.9121">registerPostIt(title,description,shareBoard,row,column)</text></g><!--class PostIt--><g id="elem_PostIt"><rect codeLine="4" fill="#F1F1F1" height="42.9884" id="PostIt" rx="1.75" ry="1.75" style="stroke:#181818;stroke-width:0.3499999999999999;" width="102.9" x="323.75" y="248.5"/><ellipse cx="334.25" cy="264.3942" fill="#ADD1B2" rx="7.7" ry="7.7" style="stroke:#181818;stroke-width:0.6999999999999998;"/><path d="M333.8781,269.2395 Q332.6531,269.2395 331.8547,268.7255 Q331.0672,268.2005 330.6734,267.2598 Q330.2906,266.3083 330.2906,265.0505 Q330.2906,263.6286 330.75,262.6114 Q331.2094,261.5942 332.1062,261.0473 Q333.0031,260.5005 334.3156,260.5005 Q334.9391,260.5005 335.4094,260.6317 Q335.8797,260.752 336.3609,260.9926 L335.7922,262.4036 Q335.3547,262.1848 334.9719,262.0973 Q334.6,262.0098 334.2609,262.0098 Q333.4406,262.0098 332.9484,262.3817 Q332.4562,262.7536 332.2484,263.4208 Q332.0406,264.088 332.0406,264.9739 Q332.0406,266.3848 332.5437,267.063 Q333.0469,267.7301 334.1625,267.7301 Q334.5781,267.7301 335.0156,267.6208 Q335.4531,267.5114 336.0328,267.2489 L336.0328,268.802 Q335.5187,269.0208 334.9609,269.1301 Q334.4141,269.2395 333.8781,269.2395 Z " fill="#000000"/><text fill="#000000" font-family="sans-serif" font-size="8.4" font-style="italic" lengthAdjust="spacing" textLength="83.3" x="342.65" y="260.9797">&#171;domain-valueobject&#187;</text><text fill="#000000" font-family="sans-serif" font-size="9.8" lengthAdjust="spacing" textLength="26.6" x="371" y="273.917">PostIt</text><line style="stroke:#181818;stroke-width:0.3499999999999999;" x1="324.45" x2="425.95" y1="280.2884" y2="280.2884"/><line style="stroke:#181818;stroke-width:0.3499999999999999;" x1="324.45" x2="425.95" y1="285.8884" y2="285.8884"/></g><!--class SharedBoardCell--><g id="elem_SharedBoardCell"><rect codeLine="5" fill="#F1F1F1" height="56.336" id="SharedBoardCell" rx="1.75" ry="1.75" style="stroke:#181818;stroke-width:0.3499999999999999;" width="101.5" x="273.35" y="373.8"/><ellipse cx="283.85" cy="389.6942" fill="#ADD1B2" rx="7.7" ry="7.7" style="stroke:#181818;stroke-width:0.6999999999999998;"/><path d="M283.4781,394.5395 Q282.2531,394.5395 281.4547,394.0255 Q280.6672,393.5005 280.2734,392.5598 Q279.8906,391.6083 279.8906,390.3505 Q279.8906,388.9286 280.35,387.9114 Q280.8094,386.8942 281.7062,386.3473 Q282.6031,385.8005 283.9156,385.8005 Q284.5391,385.8005 285.0094,385.9317 Q285.4797,386.052 285.9609,386.2926 L285.3922,387.7036 Q284.9547,387.4848 284.5719,387.3973 Q284.2,387.3098 283.8609,387.3098 Q283.0406,387.3098 282.5484,387.6817 Q282.0562,388.0536 281.8484,388.7208 Q281.6406,389.388 281.6406,390.2739 Q281.6406,391.6848 282.1437,392.363 Q282.6469,393.0301 283.7625,393.0301 Q284.1781,393.0301 284.6156,392.9208 Q285.0531,392.8114 285.6328,392.5489 L285.6328,394.102 Q285.1187,394.3208 284.5609,394.4301 Q284.0141,394.5395 283.4781,394.5395 Z " fill="#000000"/><text fill="#000000" font-family="sans-serif" font-size="8.4" font-style="italic" lengthAdjust="spacing" textLength="37.8" x="314.3" y="386.2797">&#171;domain&#187;</text><text fill="#000000" font-family="sans-serif" font-size="9.8" lengthAdjust="spacing" textLength="79.1" x="293.65" y="399.217">SharedBoardCell</text><line style="stroke:#181818;stroke-width:0.3499999999999999;" x1="274.05" x2="374.15" y1="405.5884" y2="405.5884"/><line style="stroke:#181818;stroke-width:0.3499999999999999;" x1="274.05" x2="374.15" y1="411.1884" y2="411.1884"/><text fill="#000000" font-family="sans-serif" font-size="9.8" lengthAdjust="spacing" textLength="77" x="277.55" y="424.4646">addPostIt(postit)</text></g><!--class SharedBoardCellRepository--><g id="elem_SharedBoardCellRepository"><rect codeLine="6" fill="#F1F1F1" height="69.6835" id="SharedBoardCellRepository" rx="1.75" ry="1.75" style="stroke:#181818;stroke-width:0.3499999999999999;" width="180.6" x="48.3" y="366.8"/><ellipse cx="72.03" cy="382.6942" fill="#ADD1B2" rx="7.7" ry="7.7" style="stroke:#181818;stroke-width:0.6999999999999998;"/><path d="M71.6581,387.5395 Q70.4331,387.5395 69.6347,387.0255 Q68.8472,386.5005 68.4534,385.5598 Q68.0706,384.6083 68.0706,383.3505 Q68.0706,381.9286 68.53,380.9114 Q68.9894,379.8942 69.8862,379.3473 Q70.7831,378.8005 72.0956,378.8005 Q72.7191,378.8005 73.1894,378.9317 Q73.6597,379.052 74.1409,379.2926 L73.5722,380.7036 Q73.1347,380.4848 72.7519,380.3973 Q72.38,380.3098 72.0409,380.3098 Q71.2206,380.3098 70.7284,380.6817 Q70.2362,381.0536 70.0284,381.7208 Q69.8206,382.388 69.8206,383.2739 Q69.8206,384.6848 70.3237,385.363 Q70.8269,386.0301 71.9425,386.0301 Q72.3581,386.0301 72.7956,385.9208 Q73.2331,385.8114 73.8128,385.5489 L73.8128,387.102 Q73.2987,387.3208 72.7409,387.4301 Q72.1941,387.5395 71.6581,387.5395 Z " fill="#000000"/><text fill="#000000" font-family="sans-serif" font-size="8.4" font-style="italic" lengthAdjust="spacing" textLength="46.9" x="125.72" y="379.2797">&#171;repository&#187;</text><text fill="#000000" font-family="sans-serif" font-size="9.8" lengthAdjust="spacing" textLength="128.8" x="84.77" y="392.217">SharedBoardCellRepository</text><line style="stroke:#181818;stroke-width:0.3499999999999999;" x1="49" x2="228.2" y1="398.5884" y2="398.5884"/><line style="stroke:#181818;stroke-width:0.3499999999999999;" x1="49" x2="228.2" y1="404.1884" y2="404.1884"/><text fill="#000000" font-family="sans-serif" font-size="9.8" lengthAdjust="spacing" textLength="172.2" x="52.5" y="417.4646">findPostItByShareBoard(shareBoard)</text><text fill="#000000" font-family="sans-serif" font-size="9.8" lengthAdjust="spacing" textLength="53.2" x="52.5" y="430.8121">save(postit)</text></g><!--class SharedBoardCellService--><g id="elem_SharedBoardCellService"><rect codeLine="7" fill="#F1F1F1" height="83.031" id="SharedBoardCellService" rx="1.75" ry="1.75" style="stroke:#181818;stroke-width:0.3499999999999999;" width="267.4" x="4.9" y="228.2"/><ellipse cx="79.275" cy="244.0942" fill="#ADD1B2" rx="7.7" ry="7.7" style="stroke:#181818;stroke-width:0.6999999999999998;"/><path d="M78.9031,248.9395 Q77.6781,248.9395 76.8797,248.4255 Q76.0922,247.9005 75.6984,246.9598 Q75.3156,246.0083 75.3156,244.7505 Q75.3156,243.3286 75.775,242.3114 Q76.2344,241.2942 77.1312,240.7473 Q78.0281,240.2005 79.3406,240.2005 Q79.9641,240.2005 80.4344,240.3317 Q80.9047,240.452 81.3859,240.6926 L80.8172,242.1036 Q80.3797,241.8848 79.9969,241.7973 Q79.625,241.7098 79.2859,241.7098 Q78.4656,241.7098 77.9734,242.0817 Q77.4812,242.4536 77.2734,243.1208 Q77.0656,243.788 77.0656,244.6739 Q77.0656,246.0848 77.5687,246.763 Q78.0719,247.4301 79.1875,247.4301 Q79.6031,247.4301 80.0406,247.3208 Q80.4781,247.2114 81.0578,246.9489 L81.0578,248.502 Q80.5437,248.7208 79.9859,248.8301 Q79.4391,248.9395 78.9031,248.9395 Z " fill="#000000"/><text fill="#000000" font-family="sans-serif" font-size="8.4" font-style="italic" lengthAdjust="spacing" textLength="33.6" x="133.175" y="240.6797">&#171;service&#187;</text><text fill="#000000" font-family="sans-serif" font-size="9.8" lengthAdjust="spacing" textLength="112.7" x="93.625" y="253.617">SharedBoardCellService</text><line style="stroke:#181818;stroke-width:0.3499999999999999;" x1="5.6" x2="271.6" y1="259.9884" y2="259.9884"/><line style="stroke:#181818;stroke-width:0.3499999999999999;" x1="5.6" x2="271.6" y1="265.5884" y2="265.5884"/><text fill="#000000" font-family="sans-serif" font-size="9.8" lengthAdjust="spacing" textLength="202.3" x="9.1" y="278.8646">getCellAvailableByShareBoard(shareBoard)</text><text fill="#000000" font-family="sans-serif" font-size="9.8" lengthAdjust="spacing" textLength="144.9" x="9.1" y="292.2121">getBoardColumns(shareBoard)</text><text fill="#000000" font-family="sans-serif" font-size="9.8" lengthAdjust="spacing" textLength="259" x="9.1" y="305.5597">registerPostIt(title,description,shareBoard,row,column)</text></g><!--link CreatePostItUI to CreatePostItController--><g id="link_CreatePostItUI_CreatePostItController"><path codeLine="9" d="M138.6,47.684 C138.6,62.132 138.6,81.816 138.6,99.05 " fill="none" id="CreatePostItUI-to-CreatePostItController" style="stroke:#181818;stroke-width:0.6999999999999998;"/><polygon fill="#181818" points="138.6,102.683,141.4,96.383,138.6,99.183,135.8,96.383,138.6,102.683" style="stroke:#181818;stroke-width:0.6999999999999998;"/><text fill="#000000" font-family="sans-serif" font-size="9.1" lengthAdjust="spacing" textLength="56" x="139.3" y="79.0279">theController</text></g><!--link CreatePostItController to SharedBoardCellService--><g id="link_CreatePostItController_SharedBoardCellService"><path codeLine="11" d="M138.6,172.9 C138.6,188.699 138.6,207.648 138.6,224.539 " fill="none" id="CreatePostItController-to-SharedBoardCellService" style="stroke:#181818;stroke-width:0.6999999999999998;stroke-dasharray:7.0,7.0;"/><polygon fill="#181818" points="138.6,228.109,141.4,221.809,138.6,224.609,135.8,221.809,138.6,228.109" style="stroke:#181818;stroke-width:0.6999999999999998;"/><text fill="#000000" font-family="sans-serif" font-size="9.1" lengthAdjust="spacing" textLength="14.7" x="139.3" y="204.3279">use</text></g><!--link SharedBoardCellService to SharedBoardCellRepository--><g id="link_SharedBoardCellService_SharedBoardCellRepository"><path codeLine="13" d="M138.6,311.675 C138.6,328.146 138.6,346.997 138.6,363.139 " fill="none" id="SharedBoardCellService-to-SharedBoardCellRepository" style="stroke:#181818;stroke-width:0.6999999999999998;stroke-dasharray:7.0,7.0;"/><polygon fill="#181818" points="138.6,366.751,141.4,360.451,138.6,363.251,135.8,360.451,138.6,366.751" style="stroke:#181818;stroke-width:0.6999999999999998;"/><text fill="#000000" font-family="sans-serif" font-size="9.1" lengthAdjust="spacing" textLength="14.7" x="139.3" y="342.9279">use</text></g><!--link SharedBoardCellService to PostIt--><g id="link_SharedBoardCellService_PostIt"><path codeLine="15" d="M272.454,269.85 C289.135,269.85 305.389,269.85 319.865,269.85 " fill="none" id="SharedBoardCellService-to-PostIt" style="stroke:#181818;stroke-width:0.6999999999999998;"/><polygon fill="#181818" points="323.512,269.85,317.212,267.05,320.012,269.85,317.212,272.65,323.512,269.85" style="stroke:#181818;stroke-width:0.6999999999999998;"/><text fill="#000000" font-family="sans-serif" font-size="9.1" lengthAdjust="spacing" textLength="25.9" x="285.075" y="264.8779">create</text></g><!--link SharedBoardCellRepository to SharedBoardCell--><g id="link_SharedBoardCellRepository_SharedBoardCell"><path codeLine="16" d="M228.907,401.8 C242.802,401.8 256.774,401.8 269.563,401.8 " fill="none" id="SharedBoardCellRepository-to-SharedBoardCell" style="stroke:#181818;stroke-width:0.6999999999999998;"/><polygon fill="#181818" points="273.14,401.8,266.84,399,269.64,401.8,266.84,404.6,273.14,401.8" style="stroke:#181818;stroke-width:0.6999999999999998;"/><text fill="#000000" font-family="sans-serif" font-size="9.1" lengthAdjust="spacing" textLength="18.9" x="241.675" y="396.8279">save</text></g><!--SRC=[hP5DQiCm48NtEeLtZS7E0KmmD5bbLsfw04MQ92gAP6R6BhbzvH-SkAuCXUxqyxqtRsQKbKJ90K4ol7dY8tySazskHY1mBDbuLvP2BQY3TupUMi10oxgsHitX0GkVsj-aSNahRGF-z0cA9wQwIWIzznBr0QoTu1Zm3hKdmnxl0SNf4iChmDOe22mDfm2A7wtcUHdhgqZu2e_xNFh4RRTbh7AHD0H2H7v_4JvrkAuDiSS95udgSucuLRwe4rGass3_ScwSwXPNYEWOBi3KYUYrbSRAauKDTNQzMogMrbBhmMOJ8h3XDEwDS374W2CVO0kP1b9ewYvMzgYKeV_AbBVDpQKYEl0GjdkOekxlrUIm5dlcCBpsfMXDD5lNsRYnxR_N_ASnpF9q2vuM8Bu1]--></g></svg>