<?xml version="1.0" encoding="us-ascii" standalone="no"?><svg xmlns="http://www.w3.org/2000/svg" xmlns:xlink="http://www.w3.org/1999/xlink" contentStyleType="text/css" height="627.81px" preserveAspectRatio="none" style="width:1047px;height:627px;background:#FFFFFF;" version="1.1" viewBox="0 0 1047 627" width="1047.54px" zoomAndPan="magnify"><defs/><g><rect fill="#FFFFFF" height="210.6607" style="stroke:#181818;stroke-width:0.51;" width="5.1" x="147.135" y="52.9247"/><rect fill="#FFFFFF" height="119.4604" style="stroke:#181818;stroke-width:0.51;" width="5.1" x="147.135" y="279.7555"/><rect fill="#FFFFFF" height="155.195" style="stroke:#181818;stroke-width:0.51;" width="5.1" x="147.135" y="415.3859"/><rect fill="#FFFFFF" height="194.4906" style="stroke:#181818;stroke-width:0.51;" width="5.1" x="262.395" y="69.0948"/><rect fill="#FFFFFF" height="103.2903" style="stroke:#181818;stroke-width:0.51;" width="5.1" x="262.395" y="295.9255"/><rect fill="#FFFFFF" height="90.5148" style="stroke:#181818;stroke-width:0.51;" width="5.1" x="262.395" y="463.8961"/><rect fill="#FFFFFF" height="145.9804" style="stroke:#181818;stroke-width:0.51;" width="5.1" x="353.175" y="85.2648"/><rect fill="#FFFFFF" height="12.75" style="stroke:#181818;stroke-width:0.51;" width="5.1" x="355.725" y="105.5149"/><rect fill="#FFFFFF" height="54.7801" style="stroke:#181818;stroke-width:0.51;" width="5.1" x="353.175" y="312.0956"/><rect fill="#FFFFFF" height="30.4501" style="stroke:#181818;stroke-width:0.51;" width="5.1" x="438.6" y="138.005"/><rect fill="#FFFFFF" height="7.14" style="stroke:#181818;stroke-width:0.51;" width="5.1" x="502.86" y="154.175"/><rect fill="#FFFFFF" height="7.14" style="stroke:#181818;stroke-width:0.51;" width="5.1" x="564.825" y="184.6251"/><rect fill="#FFFFFF" height="7.14" style="stroke:#181818;stroke-width:0.51;" width="5.1" x="647.955" y="207.9352"/><rect fill="#FFFFFF" height="67.2047" style="stroke:#181818;stroke-width:0.51;" width="5.1" x="881.28" y="480.0662"/><rect fill="#FFFFFF" height="7.14" style="stroke:#181818;stroke-width:0.51;" width="5.1" x="962.37" y="343.5657"/><rect fill="#FFFFFF" height="21.42" style="stroke:#181818;stroke-width:0.51;" width="5.1" x="962.37" y="518.7109"/><rect fill="#FFFFFF" height="7.14" style="stroke:#181818;stroke-width:0.51;" width="5.1" x="1027.14" y="525.8509"/><line style="stroke:#181818;stroke-width:0.255;stroke-dasharray:5.0,5.0;" x1="14.79" x2="14.79" y1="35.7346" y2="586.901"/><line style="stroke:#181818;stroke-width:0.255;stroke-dasharray:5.0,5.0;" x1="149.685" x2="149.685" y1="35.7346" y2="586.901"/><line style="stroke:#181818;stroke-width:0.255;stroke-dasharray:5.0,5.0;" x1="264.69" x2="264.69" y1="35.7346" y2="586.901"/><line style="stroke:#181818;stroke-width:0.255;stroke-dasharray:5.0,5.0;" x1="355.47" x2="355.47" y1="35.7346" y2="586.901"/><line style="stroke:#181818;stroke-width:0.255;stroke-dasharray:5.0,5.0;" x1="441.15" x2="441.15" y1="35.7346" y2="586.901"/><line style="stroke:#181818;stroke-width:0.255;stroke-dasharray:5.0,5.0;" x1="505.41" x2="505.41" y1="35.7346" y2="586.901"/><line style="stroke:#181818;stroke-width:0.255;stroke-dasharray:5.0,5.0;" x1="567.12" x2="567.12" y1="35.7346" y2="586.901"/><line style="stroke:#181818;stroke-width:0.255;stroke-dasharray:5.0,5.0;" x1="650.25" x2="650.25" y1="35.7346" y2="586.901"/><line style="stroke:#181818;stroke-width:0.255;stroke-dasharray:5.0,5.0;" x1="725.73" x2="725.73" y1="35.7346" y2="586.901"/><line style="stroke:#181818;stroke-width:0.255;stroke-dasharray:5.0,5.0;" x1="788.97" x2="788.97" y1="35.7346" y2="586.901"/><line style="stroke:#181818;stroke-width:0.255;stroke-dasharray:5.0,5.0;" x1="839.97" x2="839.97" y1="500.4835" y2="586.901"/><line style="stroke:#181818;stroke-width:0.255;stroke-dasharray:5.0,5.0;" x1="883.83" x2="883.83" y1="35.7346" y2="586.901"/><line style="stroke:#181818;stroke-width:0.255;stroke-dasharray:5.0,5.0;" x1="964.92" x2="964.92" y1="35.7346" y2="586.901"/><line style="stroke:#181818;stroke-width:0.255;stroke-dasharray:5.0,5.0;" x1="1029.69" x2="1029.69" y1="35.7346" y2="586.901"/><rect fill="#E2E2F0" height="16.8646" rx="1.275" ry="1.275" style="stroke:#181818;stroke-width:0.255;" width="24.99" x="2.55" y="18.36"/><text fill="#000000" font-family="sans-serif" font-size="7.14" lengthAdjust="spacing" textLength="17.85" x="6.12" y="29.5626">Actor</text><rect fill="#E2E2F0" height="16.8646" rx="1.275" ry="1.275" style="stroke:#181818;stroke-width:0.255;" width="24.99" x="2.55" y="586.391"/><text fill="#000000" font-family="sans-serif" font-size="7.14" lengthAdjust="spacing" textLength="17.85" x="6.12" y="597.5936">Actor</text><rect fill="#E2E2F0" height="16.8646" rx="1.275" ry="1.275" style="stroke:#181818;stroke-width:0.255;" width="61.2" x="119.085" y="18.36"/><text fill="#000000" font-family="sans-serif" font-size="7.14" lengthAdjust="spacing" textLength="54.06" x="122.655" y="29.5626">CreateAPostItUI</text><rect fill="#E2E2F0" height="16.8646" rx="1.275" ry="1.275" style="stroke:#181818;stroke-width:0.255;" width="61.2" x="119.085" y="586.391"/><text fill="#000000" font-family="sans-serif" font-size="7.14" lengthAdjust="spacing" textLength="54.06" x="122.655" y="597.5936">CreateAPostItUI</text><rect fill="#E2E2F0" height="16.8646" rx="1.275" ry="1.275" style="stroke:#181818;stroke-width:0.255;" width="83.13" x="223.38" y="18.36"/><text fill="#000000" font-family="sans-serif" font-size="7.14" lengthAdjust="spacing" textLength="75.99" x="226.95" y="29.5626">CreatePostItController</text><rect fill="#E2E2F0" height="16.8646" rx="1.275" ry="1.275" style="stroke:#181818;stroke-width:0.255;" width="83.13" x="223.38" y="586.391"/><text fill="#000000" font-family="sans-serif" font-size="7.14" lengthAdjust="spacing" textLength="75.99" x="226.95" y="597.5936">CreatePostItController</text><rect fill="#E2E2F0" height="16.8646" rx="1.275" ry="1.275" style="stroke:#181818;stroke-width:0.255;" width="88.23" x="311.61" y="18.36"/><text fill="#000000" font-family="sans-serif" font-size="7.14" lengthAdjust="spacing" textLength="81.09" x="315.18" y="29.5626">ListSharedBoardService</text><rect fill="#E2E2F0" height="16.8646" rx="1.275" ry="1.275" style="stroke:#181818;stroke-width:0.255;" width="88.23" x="311.61" y="586.391"/><text fill="#000000" font-family="sans-serif" font-size="7.14" lengthAdjust="spacing" textLength="81.09" x="315.18" y="597.5936">ListSharedBoardService</text><rect fill="#E2E2F0" height="16.8646" rx="1.275" ry="1.275" style="stroke:#181818;stroke-width:0.255;" width="72.42" x="404.94" y="18.36"/><text fill="#000000" font-family="sans-serif" font-size="7.14" lengthAdjust="spacing" textLength="65.28" x="408.51" y="29.5626">PersistenceContext</text><rect fill="#E2E2F0" height="16.8646" rx="1.275" ry="1.275" style="stroke:#181818;stroke-width:0.255;" width="72.42" x="404.94" y="586.391"/><text fill="#000000" font-family="sans-serif" font-size="7.14" lengthAdjust="spacing" textLength="65.28" x="408.51" y="597.5936">PersistenceContext</text><rect fill="#E2E2F0" height="16.8646" rx="1.275" ry="1.275" style="stroke:#181818;stroke-width:0.255;" width="45.9" x="482.46" y="18.36"/><text fill="#000000" font-family="sans-serif" font-size="7.14" lengthAdjust="spacing" textLength="38.76" x="486.03" y="29.5626">Application</text><rect fill="#E2E2F0" height="16.8646" rx="1.275" ry="1.275" style="stroke:#181818;stroke-width:0.255;" width="45.9" x="482.46" y="586.391"/><text fill="#000000" font-family="sans-serif" font-size="7.14" lengthAdjust="spacing" textLength="38.76" x="486.03" y="597.5936">Application</text><rect fill="#E2E2F0" height="16.8646" rx="1.275" ry="1.275" style="stroke:#181818;stroke-width:0.255;" width="67.83" x="533.46" y="18.36"/><text fill="#000000" font-family="sans-serif" font-size="7.14" lengthAdjust="spacing" textLength="60.69" x="537.03" y="29.5626">RepositoryFactory</text><rect fill="#E2E2F0" height="16.8646" rx="1.275" ry="1.275" style="stroke:#181818;stroke-width:0.255;" width="67.83" x="533.46" y="586.391"/><text fill="#000000" font-family="sans-serif" font-size="7.14" lengthAdjust="spacing" textLength="60.69" x="537.03" y="597.5936">RepositoryFactory</text><rect fill="#E2E2F0" height="16.8646" rx="1.275" ry="1.275" style="stroke:#181818;stroke-width:0.255;" width="88.23" x="606.39" y="18.36"/><text fill="#000000" font-family="sans-serif" font-size="7.14" lengthAdjust="spacing" textLength="81.09" x="609.96" y="29.5626">SharedBoardRepository</text><rect fill="#E2E2F0" height="16.8646" rx="1.275" ry="1.275" style="stroke:#181818;stroke-width:0.255;" width="88.23" x="606.39" y="586.391"/><text fill="#000000" font-family="sans-serif" font-size="7.14" lengthAdjust="spacing" textLength="81.09" x="609.96" y="597.5936">SharedBoardRepository</text><rect fill="#E2E2F0" height="16.8646" rx="1.275" ry="1.275" style="stroke:#181818;stroke-width:0.255;" width="52.02" x="699.72" y="18.36"/><text fill="#000000" font-family="sans-serif" font-size="7.14" lengthAdjust="spacing" textLength="44.88" x="703.29" y="29.5626">SharedBoard</text><rect fill="#E2E2F0" height="16.8646" rx="1.275" ry="1.275" style="stroke:#181818;stroke-width:0.255;" width="52.02" x="699.72" y="586.391"/><text fill="#000000" font-family="sans-serif" font-size="7.14" lengthAdjust="spacing" textLength="44.88" x="703.29" y="597.5936">SharedBoard</text><rect fill="#E2E2F0" height="16.8646" rx="1.275" ry="1.275" style="stroke:#181818;stroke-width:0.255;" width="64.77" x="756.84" y="18.36"/><text fill="#000000" font-family="sans-serif" font-size="7.14" lengthAdjust="spacing" textLength="57.63" x="760.41" y="29.5626">SharedBoardCell</text><rect fill="#E2E2F0" height="16.8646" rx="1.275" ry="1.275" style="stroke:#181818;stroke-width:0.255;" width="64.77" x="756.84" y="586.391"/><text fill="#000000" font-family="sans-serif" font-size="7.14" lengthAdjust="spacing" textLength="57.63" x="760.41" y="597.5936">SharedBoardCell</text><rect fill="#E2E2F0" height="16.8646" rx="1.275" ry="1.275" style="stroke:#181818;stroke-width:0.255;" width="26.52" x="826.71" y="586.391"/><text fill="#000000" font-family="sans-serif" font-size="7.14" lengthAdjust="spacing" textLength="19.38" x="830.28" y="597.5936">PostIt</text><rect fill="#E2E2F0" height="16.8646" rx="1.275" ry="1.275" style="stroke:#181818;stroke-width:0.255;" width="51" x="858.33" y="18.36"/><text fill="#000000" font-family="sans-serif" font-size="7.14" lengthAdjust="spacing" textLength="43.86" x="861.9" y="29.5626">PostItService</text><rect fill="#E2E2F0" height="16.8646" rx="1.275" ry="1.275" style="stroke:#181818;stroke-width:0.255;" width="51" x="858.33" y="586.391"/><text fill="#000000" font-family="sans-serif" font-size="7.14" lengthAdjust="spacing" textLength="43.86" x="861.9" y="597.5936">PostItService</text><rect fill="#E2E2F0" height="16.8646" rx="1.275" ry="1.275" style="stroke:#181818;stroke-width:0.255;" width="100.98" x="914.43" y="18.36"/><text fill="#000000" font-family="sans-serif" font-size="7.14" lengthAdjust="spacing" textLength="93.84" x="918" y="29.5626">SharedBoardCellRepository</text><rect fill="#E2E2F0" height="16.8646" rx="1.275" ry="1.275" style="stroke:#181818;stroke-width:0.255;" width="100.98" x="914.43" y="586.391"/><text fill="#000000" font-family="sans-serif" font-size="7.14" lengthAdjust="spacing" textLength="93.84" x="918" y="597.5936">SharedBoardCellRepository</text><text fill="#000000" font-family="sans-serif" font-size="7.14" lengthAdjust="spacing" textLength="9.69" x="1023.315" y="33.6426">DB</text><path d="M1020.51,7.65 C1020.51,2.55 1029.69,2.55 1029.69,2.55 C1029.69,2.55 1038.87,2.55 1038.87,7.65 L1038.87,20.91 C1038.87,26.01 1029.69,26.01 1029.69,26.01 C1029.69,26.01 1020.51,26.01 1020.51,20.91 L1020.51,7.65 " fill="#E2E2F0" style="stroke:#181818;stroke-width:0.765;"/><path d="M1020.51,7.65 C1020.51,12.75 1029.69,12.75 1029.69,12.75 C1029.69,12.75 1038.87,12.75 1038.87,7.65 " fill="none" style="stroke:#181818;stroke-width:0.765;"/><text fill="#000000" font-family="sans-serif" font-size="7.14" lengthAdjust="spacing" textLength="9.69" x="1023.315" y="594.0236">DB</text><path d="M1020.51,601.2156 C1020.51,596.1156 1029.69,596.1156 1029.69,596.1156 C1029.69,596.1156 1038.87,596.1156 1038.87,601.2156 L1038.87,614.4756 C1038.87,619.5756 1029.69,619.5756 1029.69,619.5756 C1029.69,619.5756 1020.51,619.5756 1020.51,614.4756 L1020.51,601.2156 " fill="#E2E2F0" style="stroke:#181818;stroke-width:0.765;"/><path d="M1020.51,601.2156 C1020.51,606.3156 1029.69,606.3156 1029.69,606.3156 C1029.69,606.3156 1038.87,606.3156 1038.87,601.2156 " fill="none" style="stroke:#181818;stroke-width:0.765;"/><rect fill="#FFFFFF" height="210.6607" style="stroke:#181818;stroke-width:0.51;" width="5.1" x="147.135" y="52.9247"/><rect fill="#FFFFFF" height="119.4604" style="stroke:#181818;stroke-width:0.51;" width="5.1" x="147.135" y="279.7555"/><rect fill="#FFFFFF" height="155.195" style="stroke:#181818;stroke-width:0.51;" width="5.1" x="147.135" y="415.3859"/><rect fill="#FFFFFF" height="194.4906" style="stroke:#181818;stroke-width:0.51;" width="5.1" x="262.395" y="69.0948"/><rect fill="#FFFFFF" height="103.2903" style="stroke:#181818;stroke-width:0.51;" width="5.1" x="262.395" y="295.9255"/><rect fill="#FFFFFF" height="90.5148" style="stroke:#181818;stroke-width:0.51;" width="5.1" x="262.395" y="463.8961"/><rect fill="#FFFFFF" height="145.9804" style="stroke:#181818;stroke-width:0.51;" width="5.1" x="353.175" y="85.2648"/><rect fill="#FFFFFF" height="12.75" style="stroke:#181818;stroke-width:0.51;" width="5.1" x="355.725" y="105.5149"/><rect fill="#FFFFFF" height="54.7801" style="stroke:#181818;stroke-width:0.51;" width="5.1" x="353.175" y="312.0956"/><rect fill="#FFFFFF" height="30.4501" style="stroke:#181818;stroke-width:0.51;" width="5.1" x="438.6" y="138.005"/><rect fill="#FFFFFF" height="7.14" style="stroke:#181818;stroke-width:0.51;" width="5.1" x="502.86" y="154.175"/><rect fill="#FFFFFF" height="7.14" style="stroke:#181818;stroke-width:0.51;" width="5.1" x="564.825" y="184.6251"/><rect fill="#FFFFFF" height="7.14" style="stroke:#181818;stroke-width:0.51;" width="5.1" x="647.955" y="207.9352"/><rect fill="#FFFFFF" height="67.2047" style="stroke:#181818;stroke-width:0.51;" width="5.1" x="881.28" y="480.0662"/><rect fill="#FFFFFF" height="7.14" style="stroke:#181818;stroke-width:0.51;" width="5.1" x="962.37" y="343.5657"/><rect fill="#FFFFFF" height="21.42" style="stroke:#181818;stroke-width:0.51;" width="5.1" x="962.37" y="518.7109"/><rect fill="#FFFFFF" height="7.14" style="stroke:#181818;stroke-width:0.51;" width="5.1" x="1027.14" y="525.8509"/><polygon fill="#181818" points="141.015,50.8847,146.115,52.9247,141.015,54.9647,143.055,52.9247" style="stroke:#181818;stroke-width:0.51;"/><line style="stroke:#181818;stroke-width:0.51;" x1="15.045" x2="144.075" y1="52.9247" y2="52.9247"/><text fill="#000000" font-family="sans-serif" font-size="6.63" lengthAdjust="spacing" textLength="87.21" x="18.615" y="49.9621">Starts to create a new post-it</text><polygon fill="#181818" points="256.275,67.0548,261.375,69.0948,256.275,71.1348,258.315,69.0948" style="stroke:#181818;stroke-width:0.51;"/><line style="stroke:#181818;stroke-width:0.51;" x1="152.235" x2="259.335" y1="69.0948" y2="69.0948"/><text fill="#000000" font-family="sans-serif" font-size="6.63" lengthAdjust="spacing" textLength="52.02" x="155.805" y="66.1322">listBoardsByUser</text><polygon fill="#181818" points="347.055,83.2248,352.155,85.2648,347.055,87.3048,349.095,85.2648" style="stroke:#181818;stroke-width:0.51;"/><line style="stroke:#181818;stroke-width:0.51;" x1="267.495" x2="350.115" y1="85.2648" y2="85.2648"/><text fill="#000000" font-family="sans-serif" font-size="6.63" lengthAdjust="spacing" textLength="52.02" x="271.065" y="82.3023">listBoardsByUser</text><line style="stroke:#181818;stroke-width:0.51;" x1="358.275" x2="382.245" y1="98.8849" y2="98.8849"/><line style="stroke:#181818;stroke-width:0.51;" x1="382.245" x2="382.245" y1="98.8849" y2="105.5149"/><line style="stroke:#181818;stroke-width:0.51;" x1="361.335" x2="382.245" y1="105.5149" y2="105.5149"/><polygon fill="#181818" points="366.435,103.4749,361.335,105.5149,366.435,107.5549,364.395,105.5149" style="stroke:#181818;stroke-width:0.51;"/><text fill="#000000" font-family="sans-serif" font-size="6.63" lengthAdjust="spacing" textLength="10.2" x="364.395" y="95.9223">s -&gt;</text><line style="stroke:#181818;stroke-width:0.51;stroke-dasharray:2.0,2.0;" x1="360.825" x2="382.245" y1="117.7549" y2="117.7549"/><line style="stroke:#181818;stroke-width:0.51;stroke-dasharray:2.0,2.0;" x1="382.245" x2="382.245" y1="117.7549" y2="124.3849"/><line style="stroke:#181818;stroke-width:0.51;stroke-dasharray:2.0,2.0;" x1="358.275" x2="382.245" y1="124.3849" y2="124.3849"/><polygon fill="#181818" points="363.375,122.3449,358.275,124.3849,363.375,126.4249,361.335,124.3849" style="stroke:#181818;stroke-width:0.51;"/><polygon fill="#181818" points="432.48,135.965,437.58,138.005,432.48,140.045,434.52,138.005" style="stroke:#181818;stroke-width:0.51;"/><line style="stroke:#181818;stroke-width:0.51;" x1="358.275" x2="435.54" y1="138.005" y2="138.005"/><text fill="#000000" font-family="sans-serif" font-size="6.63" lengthAdjust="spacing" textLength="36.21" x="361.845" y="135.0424">repositories</text><polygon fill="#181818" points="496.74,152.135,501.84,154.175,496.74,156.215,498.78,154.175" style="stroke:#181818;stroke-width:0.51;"/><line style="stroke:#181818;stroke-width:0.51;" x1="443.7" x2="499.8" y1="154.175" y2="154.175"/><text fill="#000000" font-family="sans-serif" font-size="6.63" lengthAdjust="spacing" textLength="24.48" x="447.27" y="151.2125">settings</text><polygon fill="#181818" points="449.31,159.275,444.21,161.315,449.31,163.355,447.27,161.315" style="stroke:#181818;stroke-width:0.51;"/><line style="stroke:#181818;stroke-width:0.51;stroke-dasharray:2.0,2.0;" x1="446.25" x2="504.9" y1="161.315" y2="161.315"/><polygon fill="#181818" points="363.885,166.415,358.785,168.455,363.885,170.495,361.845,168.455" style="stroke:#181818;stroke-width:0.51;"/><line style="stroke:#181818;stroke-width:0.51;stroke-dasharray:2.0,2.0;" x1="360.825" x2="440.64" y1="168.455" y2="168.455"/><polygon fill="#181818" points="558.705,182.5851,563.805,184.6251,558.705,186.6651,560.745,184.6251" style="stroke:#181818;stroke-width:0.51;"/><line style="stroke:#181818;stroke-width:0.51;" x1="358.275" x2="561.765" y1="184.6251" y2="184.6251"/><text fill="#000000" font-family="sans-serif" font-size="6.63" lengthAdjust="spacing" textLength="42.33" x="361.845" y="181.6625">sharedBoards</text><polygon fill="#181818" points="363.885,189.7251,358.785,191.7651,363.885,193.8051,361.845,191.7651" style="stroke:#181818;stroke-width:0.51;"/><line style="stroke:#181818;stroke-width:0.51;stroke-dasharray:2.0,2.0;" x1="360.825" x2="566.865" y1="191.7651" y2="191.7651"/><polygon fill="#181818" points="641.835,205.8952,646.935,207.9352,641.835,209.9752,643.875,207.9352" style="stroke:#181818;stroke-width:0.51;"/><line style="stroke:#181818;stroke-width:0.51;" x1="358.275" x2="644.895" y1="207.9352" y2="207.9352"/><text fill="#000000" font-family="sans-serif" font-size="6.63" lengthAdjust="spacing" textLength="51" x="361.845" y="204.9726">findByUsername</text><polygon fill="#181818" points="363.885,213.0352,358.785,215.0752,363.885,217.1152,361.845,215.0752" style="stroke:#181818;stroke-width:0.51;"/><line style="stroke:#181818;stroke-width:0.51;stroke-dasharray:2.0,2.0;" x1="360.825" x2="649.995" y1="215.0752" y2="215.0752"/><polygon fill="#181818" points="273.105,229.2053,268.005,231.2453,273.105,233.2853,271.065,231.2453" style="stroke:#181818;stroke-width:0.51;"/><line style="stroke:#181818;stroke-width:0.51;stroke-dasharray:2.0,2.0;" x1="270.045" x2="355.215" y1="231.2453" y2="231.2453"/><text fill="#000000" font-family="sans-serif" font-size="6.63" lengthAdjust="spacing" textLength="54.06" x="276.165" y="228.2827">User's Boards List</text><polygon fill="#181818" points="157.845,245.3753,152.745,247.4153,157.845,249.4553,155.805,247.4153" style="stroke:#181818;stroke-width:0.51;"/><line style="stroke:#181818;stroke-width:0.51;stroke-dasharray:2.0,2.0;" x1="154.785" x2="261.885" y1="247.4153" y2="247.4153"/><text fill="#000000" font-family="sans-serif" font-size="6.63" lengthAdjust="spacing" textLength="35.19" x="160.905" y="244.4527">Board's List</text><polygon fill="#181818" points="20.655,261.5454,15.555,263.5854,20.655,265.6254,18.615,263.5854" style="stroke:#181818;stroke-width:0.51;"/><line style="stroke:#181818;stroke-width:0.51;" x1="17.595" x2="149.175" y1="263.5854" y2="263.5854"/><text fill="#000000" font-family="sans-serif" font-size="6.63" lengthAdjust="spacing" textLength="119.85" x="23.715" y="260.6228">Shows Board's List and asks for a board</text><polygon fill="#181818" points="141.015,277.7155,146.115,279.7555,141.015,281.7955,143.055,279.7555" style="stroke:#181818;stroke-width:0.51;"/><line style="stroke:#181818;stroke-width:0.51;" x1="15.045" x2="144.075" y1="279.7555" y2="279.7555"/><text fill="#000000" font-family="sans-serif" font-size="6.63" lengthAdjust="spacing" textLength="51" x="18.615" y="276.7929">Chooses a board</text><polygon fill="#181818" points="256.275,293.8855,261.375,295.9255,256.275,297.9655,258.315,295.9255" style="stroke:#181818;stroke-width:0.51;"/><line style="stroke:#181818;stroke-width:0.51;" x1="152.235" x2="259.335" y1="295.9255" y2="295.9255"/><text fill="#000000" font-family="sans-serif" font-size="6.63" lengthAdjust="spacing" textLength="70.89" x="155.805" y="292.9629">listFreeCells(boardTitle)</text><polygon fill="#181818" points="347.055,310.0556,352.155,312.0956,347.055,314.1356,349.095,312.0956" style="stroke:#181818;stroke-width:0.51;"/><line style="stroke:#181818;stroke-width:0.51;" x1="267.495" x2="350.115" y1="312.0956" y2="312.0956"/><text fill="#000000" font-family="sans-serif" font-size="6.63" lengthAdjust="spacing" textLength="70.89" x="271.065" y="309.133">listFreeCells(boardTitle)</text><polygon fill="#181818" points="956.25,341.5257,961.35,343.5657,956.25,345.6057,958.29,343.5657" style="stroke:#181818;stroke-width:0.51;"/><line style="stroke:#181818;stroke-width:0.51;" x1="358.275" x2="959.31" y1="343.5657" y2="343.5657"/><text fill="#000000" font-family="sans-serif" font-size="6.63" lengthAdjust="spacing" textLength="73.95" x="361.845" y="340.6031">findFreeCells(boardTitle)</text><polygon fill="#181818" points="363.885,348.6657,358.785,350.7057,363.885,352.7457,361.845,350.7057" style="stroke:#181818;stroke-width:0.51;"/><line style="stroke:#181818;stroke-width:0.51;stroke-dasharray:2.0,2.0;" x1="360.825" x2="964.41" y1="350.7057" y2="350.7057"/><polygon fill="#181818" points="273.105,364.8357,268.005,366.8757,273.105,368.9157,271.065,366.8757" style="stroke:#181818;stroke-width:0.51;"/><line style="stroke:#181818;stroke-width:0.51;stroke-dasharray:2.0,2.0;" x1="270.045" x2="355.215" y1="366.8757" y2="366.8757"/><text fill="#000000" font-family="sans-serif" font-size="6.63" lengthAdjust="spacing" textLength="58.65" x="276.165" y="363.9131">User's free cells List</text><polygon fill="#181818" points="157.845,381.0058,152.745,383.0458,157.845,385.0858,155.805,383.0458" style="stroke:#181818;stroke-width:0.51;"/><line style="stroke:#181818;stroke-width:0.51;stroke-dasharray:2.0,2.0;" x1="154.785" x2="261.885" y1="383.0458" y2="383.0458"/><text fill="#000000" font-family="sans-serif" font-size="6.63" lengthAdjust="spacing" textLength="58.65" x="160.905" y="380.0832">User's free cells List</text><polygon fill="#181818" points="20.655,397.1759,15.555,399.2159,20.655,401.2559,18.615,399.2159" style="stroke:#181818;stroke-width:0.51;"/><line style="stroke:#181818;stroke-width:0.51;" x1="17.595" x2="149.175" y1="399.2159" y2="399.2159"/><text fill="#000000" font-family="sans-serif" font-size="6.63" lengthAdjust="spacing" textLength="112.2" x="23.715" y="396.2533">Shows free cells and asks to choose 1</text><polygon fill="#181818" points="141.015,413.3459,146.115,415.3859,141.015,417.4259,143.055,415.3859" style="stroke:#181818;stroke-width:0.51;"/><line style="stroke:#181818;stroke-width:0.51;" x1="15.045" x2="144.075" y1="415.3859" y2="415.3859"/><text fill="#000000" font-family="sans-serif" font-size="6.63" lengthAdjust="spacing" textLength="55.59" x="18.615" y="412.4233">Chooses a free cell</text><polygon fill="#181818" points="20.655,429.516,15.555,431.556,20.655,433.596,18.615,431.556" style="stroke:#181818;stroke-width:0.51;"/><line style="stroke:#181818;stroke-width:0.51;" x1="17.595" x2="146.625" y1="431.556" y2="431.556"/><text fill="#000000" font-family="sans-serif" font-size="6.63" lengthAdjust="spacing" textLength="75.48" x="23.715" y="428.5934">Asks for post-it's content</text><polygon fill="#181818" points="141.015,445.6861,146.115,447.7261,141.015,449.7661,143.055,447.7261" style="stroke:#181818;stroke-width:0.51;"/><line style="stroke:#181818;stroke-width:0.51;" x1="15.045" x2="144.075" y1="447.7261" y2="447.7261"/><text fill="#000000" font-family="sans-serif" font-size="6.63" lengthAdjust="spacing" textLength="67.83" x="18.615" y="444.7635">types  requested  data</text><polygon fill="#181818" points="256.275,461.8561,261.375,463.8961,256.275,465.9361,258.315,463.8961" style="stroke:#181818;stroke-width:0.51;"/><line style="stroke:#181818;stroke-width:0.51;" x1="152.235" x2="259.335" y1="463.8961" y2="463.8961"/><text fill="#000000" font-family="sans-serif" font-size="6.63" lengthAdjust="spacing" textLength="100.47" x="155.805" y="460.9336">registerPostIt(content,boardCell)</text><polygon fill="#181818" points="875.16,478.0262,880.26,480.0662,875.16,482.1062,877.2,480.0662" style="stroke:#181818;stroke-width:0.51;"/><line style="stroke:#181818;stroke-width:0.51;" x1="267.495" x2="878.22" y1="480.0662" y2="480.0662"/><text fill="#000000" font-family="sans-serif" font-size="6.63" lengthAdjust="spacing" textLength="100.47" x="271.065" y="477.1036">registerPostIt(content,boardCell)</text><polygon fill="#181818" points="858.84,494.1963,853.74,496.2363,858.84,498.2763,856.8,496.2363" style="stroke:#181818;stroke-width:0.51;"/><line style="stroke:#181818;stroke-width:0.51;" x1="855.78" x2="880.77" y1="496.2363" y2="496.2363"/><text fill="#000000" font-family="sans-serif" font-size="6.63" lengthAdjust="spacing" textLength="12.75" x="861.9" y="493.2737">new</text><rect fill="#E2E2F0" height="16.8646" rx="1.275" ry="1.275" style="stroke:#181818;stroke-width:0.255;" width="26.52" x="826.71" y="484.1462"/><text fill="#000000" font-family="sans-serif" font-size="7.14" lengthAdjust="spacing" textLength="19.38" x="830.28" y="495.3488">PostIt</text><polygon fill="#181818" points="956.25,516.6709,961.35,518.7109,956.25,520.7509,958.29,518.7109" style="stroke:#181818;stroke-width:0.51;"/><line style="stroke:#181818;stroke-width:0.51;" x1="886.38" x2="959.31" y1="518.7109" y2="518.7109"/><text fill="#000000" font-family="sans-serif" font-size="6.63" lengthAdjust="spacing" textLength="46.92" x="889.95" y="515.7483">save(boardCell)</text><polygon fill="#181818" points="1021.02,523.8109,1026.12,525.8509,1021.02,527.8909,1023.06,525.8509" style="stroke:#181818;stroke-width:0.51;"/><line style="stroke:#181818;stroke-width:0.51;" x1="967.47" x2="1024.08" y1="525.8509" y2="525.8509"/><polygon fill="#181818" points="973.08,530.9509,967.98,532.9909,973.08,535.0309,971.04,532.9909" style="stroke:#181818;stroke-width:0.51;"/><line style="stroke:#181818;stroke-width:0.51;stroke-dasharray:2.0,2.0;" x1="970.02" x2="1029.18" y1="532.9909" y2="532.9909"/><polygon fill="#181818" points="891.99,538.0909,886.89,540.1309,891.99,542.1709,889.95,540.1309" style="stroke:#181818;stroke-width:0.51;"/><line style="stroke:#181818;stroke-width:0.51;stroke-dasharray:2.0,2.0;" x1="888.93" x2="964.41" y1="540.1309" y2="540.1309"/><polygon fill="#181818" points="273.105,545.2309,268.005,547.2709,273.105,549.3109,271.065,547.2709" style="stroke:#181818;stroke-width:0.51;"/><line style="stroke:#181818;stroke-width:0.51;stroke-dasharray:2.0,2.0;" x1="270.045" x2="883.32" y1="547.2709" y2="547.2709"/><polygon fill="#181818" points="157.845,552.3709,152.745,554.4109,157.845,556.4509,155.805,554.4109" style="stroke:#181818;stroke-width:0.51;"/><line style="stroke:#181818;stroke-width:0.51;stroke-dasharray:2.0,2.0;" x1="154.785" x2="264.435" y1="554.4109" y2="554.4109"/><polygon fill="#181818" points="20.655,568.541,15.555,570.581,20.655,572.621,18.615,570.581" style="stroke:#181818;stroke-width:0.51;"/><line style="stroke:#181818;stroke-width:0.51;stroke-dasharray:2.0,2.0;" x1="17.595" x2="149.175" y1="570.581" y2="570.581"/><text fill="#000000" font-family="sans-serif" font-size="6.63" lengthAdjust="spacing" textLength="79.56" x="23.715" y="567.6184">informs operation success</text><polygon fill="#181818" points="143.565,575.681,148.665,577.721,143.565,579.761,145.605,577.721" style="stroke:#181818;stroke-width:0.51;"/><line style="stroke:#181818;stroke-width:0.51;stroke-dasharray:2.0,2.0;" x1="15.045" x2="146.625" y1="577.721" y2="577.721"/><!--SRC=[lLPDRzim3BtxLn2zD0MMmwuz5CW72XJOeLZM7w3OJ2FKbJn9IPT_FyfsRCcM_D6Xqr6Y7XybFf85KuQdl632m2erKYL9uMnj53A3gsUfpPDvUGgSLKSRAOoIUOxAC_d1jTaTcS9iBPdATgZEF4NFv1cL9YiKALeG_6EyurLHv3nbXalXxV_4GcfEV2-FpDA-UAUEpzOmPX7Rts2U-rJBK0DReRWwG0wDZ1csPnhXPhk-0QPXkqwIykrX-T1zSRY7dI5O3KP2Mfu10u4VG7XcoKr2uVEptUx-5QqkM8FV_JLoazClb7Jr-lAYwICxmBsFZY2HZ_2t3_g8P4e4QSY7fjDFuqQ1amm_pxMVuyHJNJE2esxv1kGGk4sOZZ1iq6WC5wyEa2iSrtOPvEE6vzuC-PxqHW4NyVVfYTb6r5ewKVLbtxyxZM0VASulM4w8uu6Bh4famTwnPHakFs6KQMp3Y0DP79MvPNkheNhOqlE4r8v9FLYlofktDNQW0bMbZkhQKNvepngOoAWWlcaua0M3VLcUNNwHKjGtQSlWG6NT7ANKg1jFyL8wjv0-AaHRzlMYHFx5JOvtNrLHHvn5_ZIINjDauBUqMWeZFE8TCGuyMnqTv7zGo86YWTI6yoKgYNWPrOjpeL6B7GtAL8Rl_qCi3OLvWhd6iReAl9vWw1LIsoA46N9lBWKvfwxv-uJKLp80EqVDKMRPSrzjKrBLsQ9s-sr_pPox905QOoy8zOhgrHiBuNxSBRIhRQ7UREbOr6DWFOuw1xvRs-ZB3GgS1iP1mo5fQtR6nGZNk08XiWOq_s0dujYzngMTcY6wjkjIT_DvEU8OO34MGlFsWU_hkfd1iVDlv6KiHNrNKKxJIrVIWHniPOuidGB01Qd_NOCiK5L3gJwbAMezL9aIXUQan5y0]--></g></svg>