<?xml version="1.0" encoding="us-ascii" standalone="no"?><svg xmlns="http://www.w3.org/2000/svg" xmlns:xlink="http://www.w3.org/1999/xlink" contentStyleType="text/css" height="596px" preserveAspectRatio="none" style="width:336px;height:596px;background:#FFFFFF;" version="1.1" viewBox="0 0 336 596" width="336px" zoomAndPan="magnify"><defs/><g><rect fill="#FFFFFF" height="406.3477" style="stroke:#181818;stroke-width:1.0;" width="10" x="45.5" y="91.4883"/><rect fill="#FFFFFF" height="53.6211" style="stroke:#181818;stroke-width:1.0;" width="10" x="284.5" y="112.7988"/><rect fill="#FFFFFF" height="36.3105" style="stroke:#181818;stroke-width:1.0;" width="10" x="284.5" y="195.7305"/><rect fill="#FFFFFF" height="53.6211" style="stroke:#181818;stroke-width:1.0;" width="10" x="284.5" y="261.3516"/><rect fill="#FFFFFF" height="36.3105" style="stroke:#181818;stroke-width:1.0;" width="10" x="284.5" y="344.2832"/><rect fill="#FFFFFF" height="29.3105" style="stroke:#181818;stroke-width:1.0;" width="10" x="284.5" y="409.9043"/><rect fill="#FFFFFF" height="29.3105" style="stroke:#181818;stroke-width:1.0;" width="10" x="284.5" y="468.5254"/><rect fill="none" height="75.9316" style="stroke:#000000;stroke-width:1.5;" width="320.5" x="10" y="127.7988"/><rect fill="none" height="75.9316" style="stroke:#000000;stroke-width:1.5;" width="320.5" x="10" y="276.3516"/><line style="stroke:#181818;stroke-width:0.5;stroke-dasharray:5.0,5.0;" x1="50" x2="50" y1="81.4883" y2="515.8359"/><line style="stroke:#181818;stroke-width:0.5;stroke-dasharray:5.0,5.0;" x1="289.5" x2="289.5" y1="81.4883" y2="515.8359"/><text fill="#000000" font-family="sans-serif" font-size="14" lengthAdjust="spacing" textLength="55" x="20" y="78.5352">Teacher</text><ellipse cx="50.5" cy="13.5" fill="#E2E2F0" rx="8" ry="8" style="stroke:#181818;stroke-width:0.5;"/><path d="M50.5,21.5 L50.5,48.5 M37.5,29.5 L63.5,29.5 M50.5,48.5 L37.5,63.5 M50.5,48.5 L63.5,63.5 " fill="none" style="stroke:#181818;stroke-width:0.5;"/><text fill="#000000" font-family="sans-serif" font-size="14" lengthAdjust="spacing" textLength="55" x="20" y="528.3711">Teacher</text><ellipse cx="50.5" cy="539.8242" fill="#E2E2F0" rx="8" ry="8" style="stroke:#181818;stroke-width:0.5;"/><path d="M50.5,547.8242 L50.5,574.8242 M37.5,555.8242 L63.5,555.8242 M50.5,574.8242 L37.5,589.8242 M50.5,574.8242 L63.5,589.8242 " fill="none" style="stroke:#181818;stroke-width:0.5;"/><rect fill="#E2E2F0" height="30.4883" rx="2.5" ry="2.5" style="stroke:#181818;stroke-width:0.5;" width="62" x="258.5" y="50"/><text fill="#000000" font-family="sans-serif" font-size="14" lengthAdjust="spacing" textLength="48" x="265.5" y="70.5352">System</text><rect fill="#E2E2F0" height="30.4883" rx="2.5" ry="2.5" style="stroke:#181818;stroke-width:0.5;" width="62" x="258.5" y="514.8359"/><text fill="#000000" font-family="sans-serif" font-size="14" lengthAdjust="spacing" textLength="48" x="265.5" y="535.3711">System</text><rect fill="#FFFFFF" height="406.3477" style="stroke:#181818;stroke-width:1.0;" width="10" x="45.5" y="91.4883"/><rect fill="#FFFFFF" height="53.6211" style="stroke:#181818;stroke-width:1.0;" width="10" x="284.5" y="112.7988"/><rect fill="#FFFFFF" height="36.3105" style="stroke:#181818;stroke-width:1.0;" width="10" x="284.5" y="195.7305"/><rect fill="#FFFFFF" height="53.6211" style="stroke:#181818;stroke-width:1.0;" width="10" x="284.5" y="261.3516"/><rect fill="#FFFFFF" height="36.3105" style="stroke:#181818;stroke-width:1.0;" width="10" x="284.5" y="344.2832"/><rect fill="#FFFFFF" height="29.3105" style="stroke:#181818;stroke-width:1.0;" width="10" x="284.5" y="409.9043"/><rect fill="#FFFFFF" height="29.3105" style="stroke:#181818;stroke-width:1.0;" width="10" x="284.5" y="468.5254"/><polygon fill="#181818" points="272.5,108.7988,282.5,112.7988,272.5,116.7988,276.5,112.7988" style="stroke:#181818;stroke-width:1.0;"/><line style="stroke:#181818;stroke-width:1.0;" x1="55.5" x2="278.5" y1="112.7988" y2="112.7988"/><text fill="#000000" font-family="sans-serif" font-size="13" font-weight="bold" lengthAdjust="spacing" textLength="9" x="62.5" y="108.0566">1</text><text fill="#000000" font-family="sans-serif" font-size="13" lengthAdjust="spacing" textLength="197" x="75.5" y="108.0566">Asks to create/update an exam</text><path d="M10,127.7988 L72,127.7988 L72,135.1094 L62,145.1094 L10,145.1094 L10,127.7988 " fill="#EEEEEE" style="stroke:#000000;stroke-width:1.5;"/><rect fill="none" height="75.9316" style="stroke:#000000;stroke-width:1.5;" width="320.5" x="10" y="127.7988"/><text fill="#000000" font-family="sans-serif" font-size="13" font-weight="bold" lengthAdjust="spacing" textLength="17" x="25" y="141.3672">alt</text><text fill="#000000" font-family="sans-serif" font-size="11" font-weight="bold" lengthAdjust="spacing" textLength="74" x="87" y="140.4336">[create exam]</text><polygon fill="#181818" points="66.5,162.4199,56.5,166.4199,66.5,170.4199,62.5,166.4199" style="stroke:#181818;stroke-width:1.0;"/><line style="stroke:#181818;stroke-width:1.0;stroke-dasharray:2.0,2.0;" x1="60.5" x2="288.5" y1="166.4199" y2="166.4199"/><text fill="#000000" font-family="sans-serif" font-size="13" font-weight="bold" lengthAdjust="spacing" textLength="9" x="72.5" y="161.6777">2</text><text fill="#000000" font-family="sans-serif" font-size="13" lengthAdjust="spacing" textLength="98" x="85.5" y="161.6777">Asks exam title</text><polygon fill="#181818" points="272.5,191.7305,282.5,195.7305,272.5,199.7305,276.5,195.7305" style="stroke:#181818;stroke-width:1.0;"/><line style="stroke:#181818;stroke-width:1.0;" x1="55.5" x2="278.5" y1="195.7305" y2="195.7305"/><text fill="#000000" font-family="sans-serif" font-size="13" font-weight="bold" lengthAdjust="spacing" textLength="9" x="62.5" y="190.9883">3</text><text fill="#000000" font-family="sans-serif" font-size="13" lengthAdjust="spacing" textLength="65" x="75.5" y="190.9883">Insert title</text><polygon fill="#181818" points="66.5,228.041,56.5,232.041,66.5,236.041,62.5,232.041" style="stroke:#181818;stroke-width:1.0;"/><line style="stroke:#181818;stroke-width:1.0;stroke-dasharray:2.0,2.0;" x1="60.5" x2="288.5" y1="232.041" y2="232.041"/><text fill="#000000" font-family="sans-serif" font-size="13" font-weight="bold" lengthAdjust="spacing" textLength="9" x="72.5" y="227.2988">4</text><text fill="#000000" font-family="sans-serif" font-size="13" lengthAdjust="spacing" textLength="143" x="85.5" y="227.2988">Asks to choose course</text><polygon fill="#181818" points="272.5,257.3516,282.5,261.3516,272.5,265.3516,276.5,261.3516" style="stroke:#181818;stroke-width:1.0;"/><line style="stroke:#181818;stroke-width:1.0;" x1="55.5" x2="278.5" y1="261.3516" y2="261.3516"/><text fill="#000000" font-family="sans-serif" font-size="13" font-weight="bold" lengthAdjust="spacing" textLength="9" x="62.5" y="256.6094">5</text><text fill="#000000" font-family="sans-serif" font-size="13" lengthAdjust="spacing" textLength="93" x="75.5" y="256.6094">Choose course</text><path d="M10,276.3516 L72,276.3516 L72,283.6621 L62,293.6621 L10,293.6621 L10,276.3516 " fill="#EEEEEE" style="stroke:#000000;stroke-width:1.5;"/><rect fill="none" height="75.9316" style="stroke:#000000;stroke-width:1.5;" width="320.5" x="10" y="276.3516"/><text fill="#000000" font-family="sans-serif" font-size="13" font-weight="bold" lengthAdjust="spacing" textLength="17" x="25" y="289.9199">alt</text><text fill="#000000" font-family="sans-serif" font-size="11" font-weight="bold" lengthAdjust="spacing" textLength="78" x="87" y="288.9863">[update exam]</text><polygon fill="#181818" points="66.5,310.9727,56.5,314.9727,66.5,318.9727,62.5,314.9727" style="stroke:#181818;stroke-width:1.0;"/><line style="stroke:#181818;stroke-width:1.0;stroke-dasharray:2.0,2.0;" x1="60.5" x2="288.5" y1="314.9727" y2="314.9727"/><text fill="#000000" font-family="sans-serif" font-size="13" font-weight="bold" lengthAdjust="spacing" textLength="9" x="72.5" y="310.2305">6</text><text fill="#000000" font-family="sans-serif" font-size="13" lengthAdjust="spacing" textLength="154" x="85.5" y="310.2305">Asks to choose an exam</text><polygon fill="#181818" points="272.5,340.2832,282.5,344.2832,272.5,348.2832,276.5,344.2832" style="stroke:#181818;stroke-width:1.0;"/><line style="stroke:#181818;stroke-width:1.0;" x1="55.5" x2="278.5" y1="344.2832" y2="344.2832"/><text fill="#000000" font-family="sans-serif" font-size="13" font-weight="bold" lengthAdjust="spacing" textLength="9" x="62.5" y="339.541">7</text><text fill="#000000" font-family="sans-serif" font-size="13" lengthAdjust="spacing" textLength="104" x="75.5" y="339.541">Choose an exam</text><polygon fill="#181818" points="66.5,376.5938,56.5,380.5938,66.5,384.5938,62.5,380.5938" style="stroke:#181818;stroke-width:1.0;"/><line style="stroke:#181818;stroke-width:1.0;stroke-dasharray:2.0,2.0;" x1="60.5" x2="288.5" y1="380.5938" y2="380.5938"/><text fill="#000000" font-family="sans-serif" font-size="13" font-weight="bold" lengthAdjust="spacing" textLength="9" x="72.5" y="375.8516">8</text><text fill="#000000" font-family="sans-serif" font-size="13" lengthAdjust="spacing" textLength="190" x="85.5" y="375.8516">Asks for open and close dates</text><polygon fill="#181818" points="272.5,405.9043,282.5,409.9043,272.5,413.9043,276.5,409.9043" style="stroke:#181818;stroke-width:1.0;"/><line style="stroke:#181818;stroke-width:1.0;" x1="55.5" x2="278.5" y1="409.9043" y2="409.9043"/><text fill="#000000" font-family="sans-serif" font-size="13" font-weight="bold" lengthAdjust="spacing" textLength="9" x="62.5" y="405.1621">9</text><text fill="#000000" font-family="sans-serif" font-size="13" lengthAdjust="spacing" textLength="81" x="75.5" y="405.1621">Inserts dates</text><polygon fill="#181818" points="66.5,435.2148,56.5,439.2148,66.5,443.2148,62.5,439.2148" style="stroke:#181818;stroke-width:1.0;"/><line style="stroke:#181818;stroke-width:1.0;stroke-dasharray:2.0,2.0;" x1="60.5" x2="288.5" y1="439.2148" y2="439.2148"/><text fill="#000000" font-family="sans-serif" font-size="13" font-weight="bold" lengthAdjust="spacing" textLength="18" x="72.5" y="434.4727">10</text><text fill="#000000" font-family="sans-serif" font-size="13" lengthAdjust="spacing" textLength="115" x="94.5" y="434.4727">Asks for exam file</text><polygon fill="#181818" points="272.5,464.5254,282.5,468.5254,272.5,472.5254,276.5,468.5254" style="stroke:#181818;stroke-width:1.0;"/><line style="stroke:#181818;stroke-width:1.0;" x1="55.5" x2="278.5" y1="468.5254" y2="468.5254"/><text fill="#000000" font-family="sans-serif" font-size="13" font-weight="bold" lengthAdjust="spacing" textLength="18" x="62.5" y="463.7832">11</text><text fill="#000000" font-family="sans-serif" font-size="13" lengthAdjust="spacing" textLength="105" x="84.5" y="463.7832">Inserts exam file</text><polygon fill="#181818" points="61.5,493.8359,51.5,497.8359,61.5,501.8359,57.5,497.8359" style="stroke:#181818;stroke-width:1.0;"/><line style="stroke:#181818;stroke-width:1.0;stroke-dasharray:2.0,2.0;" x1="55.5" x2="288.5" y1="497.8359" y2="497.8359"/><text fill="#000000" font-family="sans-serif" font-size="13" font-weight="bold" lengthAdjust="spacing" textLength="18" x="67.5" y="493.0938">12</text><text fill="#000000" font-family="sans-serif" font-size="13" lengthAdjust="spacing" textLength="73" x="89.5" y="493.0938">Saves exam</text><!--SRC=[VP8z3i8m38NtdC8NgDWPa10JSxc0ILoreasgsAdWzYGqvKUqsHo_voylLZ28is6uabSAOurQkWc5mDdOqE8yN0Xr6_Mtj3IKoXLK1wWVB3JiuSWt1d6WFKNlBemcZQ05kkEWi9UipETv2ge8oAnCI2f89psjNNAsJ5woJjPiSrAIrZacq2vuNgMTVWmfOavTZlX1Bw_RPY-EOjOcBjkDPAFRWExJN8h1snlWR2WpNxjikj8g-Skq2gjnejcabA6_h_04]--></g></svg>