<?xml version="1.0" encoding="us-ascii" standalone="no"?><svg xmlns="http://www.w3.org/2000/svg" xmlns:xlink="http://www.w3.org/1999/xlink" contentStyleType="text/css" height="889px" preserveAspectRatio="none" style="width:887px;height:889px;background:#FFFFFF;" version="1.1" viewBox="0 0 887 889" width="887px" zoomAndPan="magnify"><defs/><g><!--class Teacher--><g id="elem_Teacher"><rect codeLine="2" fill="#F1F1F1" height="48" id="Teacher" rx="2.5" ry="2.5" style="stroke:#181818;stroke-width:0.5;" width="87" x="512" y="7"/><ellipse cx="527" cy="23" fill="#ADD1B2" rx="11" ry="11" style="stroke:#181818;stroke-width:1.0;"/><path d="M529.9731,28.6431 Q529.3921,28.9419 528.7529,29.0913 Q528.1138,29.2407 527.4082,29.2407 Q524.9014,29.2407 523.5815,27.5889 Q522.2617,25.937 522.2617,22.8159 Q522.2617,19.6865 523.5815,18.0347 Q524.9014,16.3828 527.4082,16.3828 Q528.1138,16.3828 528.7612,16.5322 Q529.4087,16.6816 529.9731,16.9805 L529.9731,19.7031 Q529.3423,19.1221 528.7488,18.8523 Q528.1553,18.5825 527.5244,18.5825 Q526.1797,18.5825 525.4949,19.6492 Q524.8101,20.7158 524.8101,22.8159 Q524.8101,24.9077 525.4949,25.9744 Q526.1797,27.041 527.5244,27.041 Q528.1553,27.041 528.7488,26.7712 Q529.3423,26.5015 529.9731,25.9204 Z " fill="#000000"/><text fill="#000000" font-family="sans-serif" font-size="14" lengthAdjust="spacing" textLength="55" x="541" y="28.291">Teacher</text><line style="stroke:#181818;stroke-width:0.5;" x1="513" x2="598" y1="39" y2="39"/><line style="stroke:#181818;stroke-width:0.5;" x1="513" x2="598" y1="47" y2="47"/></g><!--class CreateExamUI--><g id="elem_CreateExamUI"><rect codeLine="3" fill="#F1F1F1" height="64.4883" id="CreateExamUI" rx="2.5" ry="2.5" style="stroke:#181818;stroke-width:0.5;" width="129" x="588" y="115"/><ellipse cx="603" cy="131" fill="#ADD1B2" rx="11" ry="11" style="stroke:#181818;stroke-width:1.0;"/><path d="M605.9731,136.6431 Q605.3921,136.9419 604.7529,137.0913 Q604.1138,137.2407 603.4082,137.2407 Q600.9014,137.2407 599.5815,135.5889 Q598.2617,133.937 598.2617,130.8159 Q598.2617,127.6865 599.5815,126.0347 Q600.9014,124.3828 603.4082,124.3828 Q604.1138,124.3828 604.7612,124.5322 Q605.4087,124.6816 605.9731,124.9805 L605.9731,127.7031 Q605.3423,127.1221 604.7488,126.8523 Q604.1553,126.5825 603.5244,126.5825 Q602.1797,126.5825 601.4949,127.6492 Q600.8101,128.7158 600.8101,130.8159 Q600.8101,132.9077 601.4949,133.9744 Q602.1797,135.041 603.5244,135.041 Q604.1553,135.041 604.7488,134.7712 Q605.3423,134.5015 605.9731,133.9204 Z " fill="#000000"/><text fill="#000000" font-family="sans-serif" font-size="14" lengthAdjust="spacing" textLength="97" x="617" y="136.291">CreateExamUI</text><line style="stroke:#181818;stroke-width:0.5;" x1="589" x2="716" y1="147" y2="147"/><line style="stroke:#181818;stroke-width:0.5;" x1="589" x2="716" y1="155" y2="155"/><ellipse cx="599" cy="168.7441" fill="#84BE84" rx="3" ry="3" style="stroke:#038048;stroke-width:1.0;"/><text fill="#000000" font-family="sans-serif" font-size="14" lengthAdjust="spacing" textLength="64" x="608" y="172.5352">doshow()</text></g><!--class UpdateExamUI--><g id="elem_UpdateExamUI"><rect codeLine="7" fill="#F1F1F1" height="64.4883" id="UpdateExamUI" rx="2.5" ry="2.5" style="stroke:#181818;stroke-width:0.5;" width="133" x="406" y="115"/><ellipse cx="421" cy="131" fill="#ADD1B2" rx="11" ry="11" style="stroke:#181818;stroke-width:1.0;"/><path d="M423.9731,136.6431 Q423.3921,136.9419 422.7529,137.0913 Q422.1138,137.2407 421.4082,137.2407 Q418.9014,137.2407 417.5815,135.5889 Q416.2617,133.937 416.2617,130.8159 Q416.2617,127.6865 417.5815,126.0347 Q418.9014,124.3828 421.4082,124.3828 Q422.1138,124.3828 422.7612,124.5322 Q423.4087,124.6816 423.9731,124.9805 L423.9731,127.7031 Q423.3423,127.1221 422.7488,126.8523 Q422.1553,126.5825 421.5244,126.5825 Q420.1797,126.5825 419.4949,127.6492 Q418.8101,128.7158 418.8101,130.8159 Q418.8101,132.9077 419.4949,133.9744 Q420.1797,135.041 421.5244,135.041 Q422.1553,135.041 422.7488,134.7712 Q423.3423,134.5015 423.9731,133.9204 Z " fill="#000000"/><text fill="#000000" font-family="sans-serif" font-size="14" lengthAdjust="spacing" textLength="101" x="435" y="136.291">UpdateExamUI</text><line style="stroke:#181818;stroke-width:0.5;" x1="407" x2="538" y1="147" y2="147"/><line style="stroke:#181818;stroke-width:0.5;" x1="407" x2="538" y1="155" y2="155"/><ellipse cx="417" cy="168.7441" fill="#84BE84" rx="3" ry="3" style="stroke:#038048;stroke-width:1.0;"/><text fill="#000000" font-family="sans-serif" font-size="14" lengthAdjust="spacing" textLength="64" x="426" y="172.5352">doshow()</text></g><!--class UpdateExamController--><g id="elem_UpdateExamController"><rect codeLine="10" fill="#F1F1F1" height="146.9297" id="UpdateExamController" rx="2.5" ry="2.5" style="stroke:#181818;stroke-width:0.5;" width="189" x="350" y="239.49"/><ellipse cx="365" cy="255.49" fill="#ADD1B2" rx="11" ry="11" style="stroke:#181818;stroke-width:1.0;"/><path d="M367.9731,261.1331 Q367.3921,261.4319 366.7529,261.5813 Q366.1138,261.7307 365.4082,261.7307 Q362.9014,261.7307 361.5815,260.0789 Q360.2617,258.427 360.2617,255.3059 Q360.2617,252.1765 361.5815,250.5247 Q362.9014,248.8728 365.4082,248.8728 Q366.1138,248.8728 366.7612,249.0222 Q367.4087,249.1716 367.9731,249.4705 L367.9731,252.1931 Q367.3423,251.6121 366.7488,251.3423 Q366.1553,251.0725 365.5244,251.0725 Q364.1797,251.0725 363.4949,252.1392 Q362.8101,253.2058 362.8101,255.3059 Q362.8101,257.3977 363.4949,258.4644 Q364.1797,259.531 365.5244,259.531 Q366.1553,259.531 366.7488,259.2612 Q367.3423,258.9915 367.9731,258.4104 Z " fill="#000000"/><text fill="#000000" font-family="sans-serif" font-size="14" lengthAdjust="spacing" textLength="157" x="379" y="260.781">UpdateExamController</text><line style="stroke:#181818;stroke-width:0.5;" x1="351" x2="538" y1="271.49" y2="271.49"/><line style="stroke:#181818;stroke-width:0.5;" x1="351" x2="538" y1="279.49" y2="279.49"/><ellipse cx="361" cy="293.2341" fill="#84BE84" rx="3" ry="3" style="stroke:#038048;stroke-width:1.0;"/><text fill="#000000" font-family="sans-serif" font-size="14" lengthAdjust="spacing" textLength="125" x="370" y="297.0252">getOpenCourses()</text><ellipse cx="361" cy="309.7224" fill="#84BE84" rx="3" ry="3" style="stroke:#038048;stroke-width:1.0;"/><text fill="#000000" font-family="sans-serif" font-size="14" lengthAdjust="spacing" textLength="141" x="370" y="313.5134">getExamsByCourse()</text><ellipse cx="361" cy="326.2107" fill="#84BE84" rx="3" ry="3" style="stroke:#038048;stroke-width:1.0;"/><text fill="#000000" font-family="sans-serif" font-size="14" lengthAdjust="spacing" textLength="115" x="370" y="330.0017">getExamByTitle()</text><ellipse cx="361" cy="342.699" fill="#84BE84" rx="3" ry="3" style="stroke:#038048;stroke-width:1.0;"/><text fill="#000000" font-family="sans-serif" font-size="14" lengthAdjust="spacing" textLength="138" x="370" y="346.49">getExamOpenDate()</text><ellipse cx="361" cy="359.1873" fill="#84BE84" rx="3" ry="3" style="stroke:#038048;stroke-width:1.0;"/><text fill="#000000" font-family="sans-serif" font-size="14" lengthAdjust="spacing" textLength="139" x="370" y="362.9783">getExamCloseDate()</text><ellipse cx="361" cy="375.6755" fill="#84BE84" rx="3" ry="3" style="stroke:#038048;stroke-width:1.0;"/><text fill="#000000" font-family="sans-serif" font-size="14" lengthAdjust="spacing" textLength="96" x="370" y="379.4666">updateExam()</text></g><!--class ListCoursesService--><g id="elem_ListCoursesService"><rect codeLine="19" fill="#F1F1F1" height="80.9766" id="ListCoursesService" rx="2.5" ry="2.5" style="stroke:#181818;stroke-width:0.5;" width="159" x="587" y="545.35"/><ellipse cx="602" cy="561.35" fill="#ADD1B2" rx="11" ry="11" style="stroke:#181818;stroke-width:1.0;"/><path d="M604.9731,566.9931 Q604.3921,567.2919 603.7529,567.4413 Q603.1138,567.5907 602.4082,567.5907 Q599.9014,567.5907 598.5815,565.9389 Q597.2617,564.287 597.2617,561.1659 Q597.2617,558.0365 598.5815,556.3847 Q599.9014,554.7328 602.4082,554.7328 Q603.1138,554.7328 603.7612,554.8822 Q604.4087,555.0316 604.9731,555.3305 L604.9731,558.0531 Q604.3423,557.4721 603.7488,557.2023 Q603.1553,556.9325 602.5244,556.9325 Q601.1797,556.9325 600.4949,557.9992 Q599.8101,559.0658 599.8101,561.1659 Q599.8101,563.2577 600.4949,564.3244 Q601.1797,565.391 602.5244,565.391 Q603.1553,565.391 603.7488,565.1212 Q604.3423,564.8515 604.9731,564.2704 Z " fill="#000000"/><text fill="#000000" font-family="sans-serif" font-size="14" lengthAdjust="spacing" textLength="127" x="616" y="566.641">ListCoursesService</text><line style="stroke:#181818;stroke-width:0.5;" x1="588" x2="745" y1="577.35" y2="577.35"/><line style="stroke:#181818;stroke-width:0.5;" x1="588" x2="745" y1="585.35" y2="585.35"/><ellipse cx="598" cy="599.0941" fill="#84BE84" rx="3" ry="3" style="stroke:#038048;stroke-width:1.0;"/><text fill="#000000" font-family="sans-serif" font-size="14" lengthAdjust="spacing" textLength="125" x="607" y="602.8852">getOpenCourses()</text><ellipse cx="598" cy="615.5824" fill="#84BE84" rx="3" ry="3" style="stroke:#038048;stroke-width:1.0;"/><text fill="#000000" font-family="sans-serif" font-size="14" lengthAdjust="spacing" textLength="82" x="607" y="619.3734">allCourses()</text></g><!--class UpdateExamService--><g id="elem_UpdateExamService"><rect codeLine="24" fill="#F1F1F1" height="97.4648" id="UpdateExamService" rx="2.5" ry="2.5" style="stroke:#181818;stroke-width:0.5;" width="167" x="185" y="537.1"/><ellipse cx="200" cy="553.1" fill="#ADD1B2" rx="11" ry="11" style="stroke:#181818;stroke-width:1.0;"/><path d="M202.9731,558.7431 Q202.3921,559.0419 201.7529,559.1913 Q201.1138,559.3407 200.4082,559.3407 Q197.9014,559.3407 196.5815,557.6889 Q195.2617,556.037 195.2617,552.9159 Q195.2617,549.7865 196.5815,548.1347 Q197.9014,546.4828 200.4082,546.4828 Q201.1138,546.4828 201.7612,546.6322 Q202.4087,546.7816 202.9731,547.0805 L202.9731,549.8031 Q202.3423,549.2221 201.7488,548.9523 Q201.1553,548.6825 200.5244,548.6825 Q199.1797,548.6825 198.4949,549.7492 Q197.8101,550.8158 197.8101,552.9159 Q197.8101,555.0077 198.4949,556.0744 Q199.1797,557.141 200.5244,557.141 Q201.1553,557.141 201.7488,556.8712 Q202.3423,556.6015 202.9731,556.0204 Z " fill="#000000"/><text fill="#000000" font-family="sans-serif" font-size="14" lengthAdjust="spacing" textLength="135" x="214" y="558.391">UpdateExamService</text><line style="stroke:#181818;stroke-width:0.5;" x1="186" x2="351" y1="569.1" y2="569.1"/><line style="stroke:#181818;stroke-width:0.5;" x1="186" x2="351" y1="577.1" y2="577.1"/><ellipse cx="196" cy="590.8441" fill="#84BE84" rx="3" ry="3" style="stroke:#038048;stroke-width:1.0;"/><text fill="#000000" font-family="sans-serif" font-size="14" lengthAdjust="spacing" textLength="134" x="205" y="594.6352">getExamByCourse()</text><ellipse cx="196" cy="607.3324" fill="#84BE84" rx="3" ry="3" style="stroke:#038048;stroke-width:1.0;"/><text fill="#000000" font-family="sans-serif" font-size="14" lengthAdjust="spacing" textLength="115" x="205" y="611.1234">getExamByTitle()</text><ellipse cx="196" cy="623.8207" fill="#84BE84" rx="3" ry="3" style="stroke:#038048;stroke-width:1.0;"/><text fill="#000000" font-family="sans-serif" font-size="14" lengthAdjust="spacing" textLength="82" x="205" y="627.6117">allCourses()</text></g><!--class CreateExamController--><g id="elem_CreateExamController"><rect codeLine="31" fill="#F1F1F1" height="97.4648" id="CreateExamController" rx="2.5" ry="2.5" style="stroke:#181818;stroke-width:0.5;" width="185" x="574" y="264.22"/><ellipse cx="589" cy="280.22" fill="#ADD1B2" rx="11" ry="11" style="stroke:#181818;stroke-width:1.0;"/><path d="M591.9731,285.8631 Q591.3921,286.1619 590.7529,286.3113 Q590.1138,286.4607 589.4082,286.4607 Q586.9014,286.4607 585.5815,284.8089 Q584.2617,283.157 584.2617,280.0359 Q584.2617,276.9065 585.5815,275.2547 Q586.9014,273.6028 589.4082,273.6028 Q590.1138,273.6028 590.7612,273.7522 Q591.4087,273.9016 591.9731,274.2005 L591.9731,276.9231 Q591.3423,276.3421 590.7488,276.0723 Q590.1553,275.8025 589.5244,275.8025 Q588.1797,275.8025 587.4949,276.8692 Q586.8101,277.9358 586.8101,280.0359 Q586.8101,282.1277 587.4949,283.1944 Q588.1797,284.261 589.5244,284.261 Q590.1553,284.261 590.7488,283.9912 Q591.3423,283.7215 591.9731,283.1404 Z " fill="#000000"/><text fill="#000000" font-family="sans-serif" font-size="14" lengthAdjust="spacing" textLength="153" x="603" y="285.511">CreateExamController</text><line style="stroke:#181818;stroke-width:0.5;" x1="575" x2="758" y1="296.22" y2="296.22"/><line style="stroke:#181818;stroke-width:0.5;" x1="575" x2="758" y1="304.22" y2="304.22"/><ellipse cx="585" cy="317.9641" fill="#84BE84" rx="3" ry="3" style="stroke:#038048;stroke-width:1.0;"/><text fill="#000000" font-family="sans-serif" font-size="14" lengthAdjust="spacing" textLength="90" x="594" y="321.7552">createExam()</text><ellipse cx="585" cy="334.4524" fill="#84BE84" rx="3" ry="3" style="stroke:#038048;stroke-width:1.0;"/><text fill="#000000" font-family="sans-serif" font-size="14" lengthAdjust="spacing" textLength="125" x="594" y="338.2434">getOpenCourses()</text><ellipse cx="585" cy="350.9407" fill="#84BE84" rx="3" ry="3" style="stroke:#038048;stroke-width:1.0;"/><text fill="#000000" font-family="sans-serif" font-size="14" lengthAdjust="spacing" textLength="100" x="594" y="354.7317">getExamTitle()</text></g><!--class ExamTitle--><g id="elem_ExamTitle"><rect codeLine="36" fill="#F1F1F1" height="64.4883" id="ExamTitle" rx="2.5" ry="2.5" style="stroke:#181818;stroke-width:0.5;" width="100" x="780.5" y="553.59"/><ellipse cx="795.5" cy="569.59" fill="#ADD1B2" rx="11" ry="11" style="stroke:#181818;stroke-width:1.0;"/><path d="M798.4731,575.2331 Q797.8921,575.5319 797.2529,575.6813 Q796.6138,575.8307 795.9082,575.8307 Q793.4014,575.8307 792.0815,574.1789 Q790.7617,572.527 790.7617,569.4059 Q790.7617,566.2765 792.0815,564.6247 Q793.4014,562.9728 795.9082,562.9728 Q796.6138,562.9728 797.2612,563.1222 Q797.9087,563.2716 798.4731,563.5705 L798.4731,566.2931 Q797.8423,565.7121 797.2488,565.4423 Q796.6553,565.1725 796.0244,565.1725 Q794.6797,565.1725 793.9949,566.2392 Q793.3101,567.3058 793.3101,569.4059 Q793.3101,571.4977 793.9949,572.5644 Q794.6797,573.631 796.0244,573.631 Q796.6553,573.631 797.2488,573.3612 Q797.8423,573.0915 798.4731,572.5104 Z " fill="#000000"/><text fill="#000000" font-family="sans-serif" font-size="14" lengthAdjust="spacing" textLength="68" x="809.5" y="574.881">ExamTitle</text><line style="stroke:#181818;stroke-width:0.5;" x1="781.5" x2="879.5" y1="585.59" y2="585.59"/><rect fill="none" height="6" style="stroke:#C82930;stroke-width:1.0;" width="6" x="788.5" y="596.3341"/><text fill="#000000" font-family="sans-serif" font-size="14" lengthAdjust="spacing" textLength="26" x="800.5" y="603.1252">title</text><line style="stroke:#181818;stroke-width:0.5;" x1="781.5" x2="879.5" y1="610.0783" y2="610.0783"/></g><!--class Exam--><g id="elem_Exam"><rect codeLine="40" fill="#F1F1F1" height="278.8359" id="Exam" rx="2.5" ry="2.5" style="stroke:#181818;stroke-width:0.5;" width="165" x="387" y="446.42"/><ellipse cx="446.25" cy="462.42" fill="#ADD1B2" rx="11" ry="11" style="stroke:#181818;stroke-width:1.0;"/><path d="M449.2231,468.0631 Q448.6421,468.3619 448.0029,468.5113 Q447.3638,468.6607 446.6582,468.6607 Q444.1514,468.6607 442.8315,467.0089 Q441.5117,465.357 441.5117,462.2359 Q441.5117,459.1065 442.8315,457.4547 Q444.1514,455.8028 446.6582,455.8028 Q447.3638,455.8028 448.0112,455.9522 Q448.6587,456.1016 449.2231,456.4005 L449.2231,459.1231 Q448.5923,458.5421 447.9988,458.2723 Q447.4053,458.0025 446.7744,458.0025 Q445.4297,458.0025 444.7449,459.0692 Q444.0601,460.1358 444.0601,462.2359 Q444.0601,464.3277 444.7449,465.3944 Q445.4297,466.461 446.7744,466.461 Q447.4053,466.461 447.9988,466.1912 Q448.5923,465.9215 449.2231,465.3404 Z " fill="#000000"/><text fill="#000000" font-family="sans-serif" font-size="14" lengthAdjust="spacing" textLength="38" x="466.75" y="467.711">Exam</text><line style="stroke:#181818;stroke-width:0.5;" x1="388" x2="551" y1="478.42" y2="478.42"/><rect fill="none" height="6" style="stroke:#C82930;stroke-width:1.0;" width="6" x="395" y="489.1641"/><text fill="#000000" font-family="sans-serif" font-size="14" lengthAdjust="spacing" textLength="13" x="407" y="495.9552">id</text><rect fill="none" height="6" style="stroke:#C82930;stroke-width:1.0;" width="6" x="395" y="505.6524"/><text fill="#000000" font-family="sans-serif" font-size="14" lengthAdjust="spacing" textLength="46" x="407" y="512.4434">course</text><rect fill="none" height="6" style="stroke:#C82930;stroke-width:1.0;" width="6" x="395" y="522.1407"/><text fill="#000000" font-family="sans-serif" font-size="14" lengthAdjust="spacing" textLength="26" x="407" y="528.9317">title</text><rect fill="none" height="6" style="stroke:#C82930;stroke-width:1.0;" width="6" x="395" y="538.629"/><text fill="#000000" font-family="sans-serif" font-size="14" lengthAdjust="spacing" textLength="62" x="407" y="545.42">startDate</text><rect fill="none" height="6" style="stroke:#C82930;stroke-width:1.0;" width="6" x="395" y="555.1173"/><text fill="#000000" font-family="sans-serif" font-size="14" lengthAdjust="spacing" textLength="57" x="407" y="561.9083">endDate</text><rect fill="none" height="6" style="stroke:#C82930;stroke-width:1.0;" width="6" x="395" y="571.6055"/><text fill="#000000" font-family="sans-serif" font-size="14" lengthAdjust="spacing" textLength="21" x="407" y="578.3966">file</text><line style="stroke:#181818;stroke-width:0.5;" x1="388" x2="551" y1="585.3497" y2="585.3497"/><ellipse cx="398" cy="599.0938" fill="#84BE84" rx="3" ry="3" style="stroke:#038048;stroke-width:1.0;"/><text fill="#000000" font-family="sans-serif" font-size="14" lengthAdjust="spacing" textLength="90" x="407" y="602.8848">createExam()</text><ellipse cx="398" cy="615.5821" fill="#84BE84" rx="3" ry="3" style="stroke:#038048;stroke-width:1.0;"/><text fill="#000000" font-family="sans-serif" font-size="14" lengthAdjust="spacing" textLength="96" x="407" y="619.3731">updateExam()</text><ellipse cx="398" cy="632.0704" fill="#84BE84" rx="3" ry="3" style="stroke:#038048;stroke-width:1.0;"/><text fill="#000000" font-family="sans-serif" font-size="14" lengthAdjust="spacing" textLength="138" x="407" y="635.8614">getExamOpenDate()</text><ellipse cx="398" cy="648.5587" fill="#84BE84" rx="3" ry="3" style="stroke:#038048;stroke-width:1.0;"/><text fill="#000000" font-family="sans-serif" font-size="14" lengthAdjust="spacing" textLength="139" x="407" y="652.3497">getExamCloseDate()</text><ellipse cx="398" cy="665.047" fill="#84BE84" rx="3" ry="3" style="stroke:#038048;stroke-width:1.0;"/><text fill="#000000" font-family="sans-serif" font-size="14" lengthAdjust="spacing" textLength="94" x="407" y="668.838">getExamFile()</text><ellipse cx="398" cy="681.5352" fill="#84BE84" rx="3" ry="3" style="stroke:#038048;stroke-width:1.0;"/><text fill="#000000" font-family="sans-serif" font-size="14" lengthAdjust="spacing" textLength="100" x="407" y="685.3263">getExamTitle()</text><ellipse cx="398" cy="698.0235" fill="#84BE84" rx="3" ry="3" style="stroke:#038048;stroke-width:1.0;"/><text fill="#000000" font-family="sans-serif" font-size="14" lengthAdjust="spacing" textLength="119" x="407" y="701.8145">getExamCourse()</text><ellipse cx="398" cy="714.5118" fill="#84BE84" rx="3" ry="3" style="stroke:#038048;stroke-width:1.0;"/><text fill="#000000" font-family="sans-serif" font-size="14" lengthAdjust="spacing" textLength="83" x="407" y="718.3028">getExamId()</text></g><!--class ExamRepository--><g id="elem_ExamRepository"><rect codeLine="56" fill="#F1F1F1" height="97.4648" id="ExamRepository" rx="2.5" ry="2.5" style="stroke:#181818;stroke-width:0.5;" width="143" x="7" y="537.1"/><ellipse cx="22" cy="553.1" fill="#ADD1B2" rx="11" ry="11" style="stroke:#181818;stroke-width:1.0;"/><path d="M24.9731,558.7431 Q24.3921,559.0419 23.7529,559.1913 Q23.1138,559.3407 22.4082,559.3407 Q19.9014,559.3407 18.5815,557.6889 Q17.2617,556.037 17.2617,552.9159 Q17.2617,549.7865 18.5815,548.1347 Q19.9014,546.4828 22.4082,546.4828 Q23.1138,546.4828 23.7612,546.6322 Q24.4087,546.7816 24.9731,547.0805 L24.9731,549.8031 Q24.3423,549.2221 23.7488,548.9523 Q23.1553,548.6825 22.5244,548.6825 Q21.1797,548.6825 20.4949,549.7492 Q19.8101,550.8158 19.8101,552.9159 Q19.8101,555.0077 20.4949,556.0744 Q21.1797,557.141 22.5244,557.141 Q23.1553,557.141 23.7488,556.8712 Q24.3423,556.6015 24.9731,556.0204 Z " fill="#000000"/><text fill="#000000" font-family="sans-serif" font-size="14" lengthAdjust="spacing" textLength="111" x="36" y="558.391">ExamRepository</text><line style="stroke:#181818;stroke-width:0.5;" x1="8" x2="149" y1="569.1" y2="569.1"/><line style="stroke:#181818;stroke-width:0.5;" x1="8" x2="149" y1="577.1" y2="577.1"/><ellipse cx="18" cy="590.8441" fill="#84BE84" rx="3" ry="3" style="stroke:#038048;stroke-width:1.0;"/><text fill="#000000" font-family="sans-serif" font-size="14" lengthAdjust="spacing" textLength="40" x="27" y="594.6352">save()</text><ellipse cx="18" cy="607.3324" fill="#84BE84" rx="3" ry="3" style="stroke:#038048;stroke-width:1.0;"/><text fill="#000000" font-family="sans-serif" font-size="14" lengthAdjust="spacing" textLength="82" x="27" y="611.1234">findByTitle()</text><ellipse cx="18" cy="623.8207" fill="#84BE84" rx="3" ry="3" style="stroke:#038048;stroke-width:1.0;"/><text fill="#000000" font-family="sans-serif" font-size="14" lengthAdjust="spacing" textLength="65" x="27" y="627.6117">findById()</text></g><!--class CourseRepository--><g id="elem_CourseRepository"><rect codeLine="62" fill="#F1F1F1" height="97.4648" id="CourseRepository" rx="2.5" ry="2.5" style="stroke:#181818;stroke-width:0.5;" width="160" x="586.5" y="785.26"/><ellipse cx="604.2" cy="801.26" fill="#ADD1B2" rx="11" ry="11" style="stroke:#181818;stroke-width:1.0;"/><path d="M607.1731,806.9031 Q606.5921,807.2019 605.9529,807.3513 Q605.3138,807.5007 604.6082,807.5007 Q602.1014,807.5007 600.7815,805.8489 Q599.4617,804.197 599.4617,801.0759 Q599.4617,797.9465 600.7815,796.2947 Q602.1014,794.6428 604.6082,794.6428 Q605.3138,794.6428 605.9612,794.7922 Q606.6087,794.9416 607.1731,795.2405 L607.1731,797.9631 Q606.5423,797.3821 605.9488,797.1123 Q605.3553,796.8425 604.7244,796.8425 Q603.3797,796.8425 602.6949,797.9092 Q602.0101,798.9758 602.0101,801.0759 Q602.0101,803.1677 602.6949,804.2344 Q603.3797,805.301 604.7244,805.301 Q605.3553,805.301 605.9488,805.0312 Q606.5423,804.7615 607.1731,804.1804 Z " fill="#000000"/><text fill="#000000" font-family="sans-serif" font-size="14" lengthAdjust="spacing" textLength="122" x="618.8" y="806.551">CourseRepository</text><line style="stroke:#181818;stroke-width:0.5;" x1="587.5" x2="745.5" y1="817.26" y2="817.26"/><line style="stroke:#181818;stroke-width:0.5;" x1="587.5" x2="745.5" y1="825.26" y2="825.26"/><ellipse cx="597.5" cy="839.0041" fill="#84BE84" rx="3" ry="3" style="stroke:#038048;stroke-width:1.0;"/><text fill="#000000" font-family="sans-serif" font-size="14" lengthAdjust="spacing" textLength="40" x="606.5" y="842.7952">save()</text><ellipse cx="597.5" cy="855.4924" fill="#84BE84" rx="3" ry="3" style="stroke:#038048;stroke-width:1.0;"/><text fill="#000000" font-family="sans-serif" font-size="14" lengthAdjust="spacing" textLength="134" x="606.5" y="859.2834">findByDesignation()</text><ellipse cx="597.5" cy="871.9807" fill="#84BE84" rx="3" ry="3" style="stroke:#038048;stroke-width:1.0;"/><text fill="#000000" font-family="sans-serif" font-size="14" lengthAdjust="spacing" textLength="111" x="606.5" y="875.7717">findAllCourses()</text></g><!--link Teacher to UpdateExamUI--><g id="link_Teacher_UpdateExamUI"><path codeLine="68" d="M538.5,55.4 C527.05,71.16 511.71,92.27 498.71,110.17 " fill="none" id="Teacher-to-UpdateExamUI" style="stroke:#181818;stroke-width:1.0;"/><polygon fill="#181818" points="495.45,113.65,503.9691,108.7079,498.3832,109.6008,497.4904,104.0148,495.45,113.65" style="stroke:#181818;stroke-width:1.0;"/></g><!--link UpdateExamUI to UpdateExamController--><g id="link_UpdateExamUI_UpdateExamController"><path codeLine="69" d="M467.1,179.81 C464.48,195.14 461.2,214.3 457.96,233.24 " fill="none" id="UpdateExamUI-to-UpdateExamController" style="stroke:#181818;stroke-width:1.0;"/><polygon fill="#181818" points="456.96,238.11,462.4199,229.9131,457.8028,233.1815,454.5343,228.5645,456.96,238.11" style="stroke:#181818;stroke-width:1.0;"/></g><!--link UpdateExamController to ListCoursesService--><g id="link_UpdateExamController_ListCoursesService"><path codeLine="70" d="M516.87,386.85 C534.64,405.76 553.22,426.44 569.5,446.42 C594.03,476.52 619.13,512.49 637.64,540.22 " fill="none" id="UpdateExamController-to-ListCoursesService" style="stroke:#181818;stroke-width:1.0;"/><polygon fill="#181818" points="640.79,543.95,639.149,534.2388,638.0264,539.7832,632.4821,538.6605,640.79,543.95" style="stroke:#181818;stroke-width:1.0;"/></g><!--link UpdateExamController to UpdateExamService--><g id="link_UpdateExamController_UpdateExamService"><path codeLine="71" d="M397.1,386.9 C367.36,432.68 329.69,490.65 302.83,532.01 " fill="none" id="UpdateExamController-to-UpdateExamService" style="stroke:#181818;stroke-width:1.0;"/><polygon fill="#181818" points="299.6,535.96,307.8574,530.592,302.3239,531.7671,301.1488,526.2337,299.6,535.96" style="stroke:#181818;stroke-width:1.0;"/></g><!--link UpdateExamController to Exam--><g id="link_UpdateExamController_Exam"><path codeLine="72" d="M451.23,386.9 C452.77,403.52 454.45,421.74 456.15,440.19 " fill="none" id="UpdateExamController-to-Exam" style="stroke:#181818;stroke-width:1.0;"/><polygon fill="#181818" points="456.68,444.92,459.8125,435.5826,456.208,439.9423,451.8482,436.3378,456.68,444.92" style="stroke:#181818;stroke-width:1.0;"/></g><!--link UpdateExamController to ExamRepository--><g id="link_UpdateExamController_ExamRepository"><path codeLine="73" d="M349.64,344.33 C292.27,366.11 220.27,399.88 167.5,446.42 C140.77,469.99 118.96,503.45 103.62,531.57 " fill="none" id="UpdateExamController-to-ExamRepository" style="stroke:#181818;stroke-width:1.0;"/><polygon fill="#181818" points="100.83,535.76,108.6059,529.7156,103.1911,531.3526,101.5541,525.9378,100.83,535.76" style="stroke:#181818;stroke-width:1.0;"/></g><!--link Teacher to CreateExamUI--><g id="link_Teacher_CreateExamUI"><path codeLine="75" d="M575.36,55.4 C588.75,71.16 606.67,92.27 621.87,110.17 " fill="none" id="Teacher-to-CreateExamUI" style="stroke:#181818;stroke-width:1.0;"/><polygon fill="#181818" points="625.67,113.65,622.9085,104.1962,622.4396,109.8336,616.8023,109.3648,625.67,113.65" style="stroke:#181818;stroke-width:1.0;"/></g><!--link CreateExamUI to CreateExamController--><g id="link_CreateExamUI_CreateExamController"><path codeLine="76" d="M655.2,179.81 C657.1,202.01 659.69,232.27 661.91,258.23 " fill="none" id="CreateExamUI-to-CreateExamController" style="stroke:#181818;stroke-width:1.0;"/><polygon fill="#181818" points="662.4,263.04,665.6145,253.7305,661.9718,258.0584,657.6439,254.4156,662.4,263.04" style="stroke:#181818;stroke-width:1.0;"/></g><!--link CreateExamController to ListCoursesService--><g id="link_CreateExamController_ListCoursesService"><path codeLine="77" d="M666.5,362.07 C666.5,412.18 666.5,490.09 666.5,539.24 " fill="none" id="CreateExamController-to-ListCoursesService" style="stroke:#181818;stroke-width:1.0;"/><polygon fill="#181818" points="666.5,544.09,670.5,535.09,666.5,539.09,662.5,535.09,666.5,544.09" style="stroke:#181818;stroke-width:1.0;"/></g><!--link CreateExamController to ExamTitle--><g id="link_CreateExamController_ExamTitle"><path codeLine="78" d="M705.09,362.19 C723.83,386.68 746.02,417.35 763.5,446.42 C783.45,479.59 802.29,519.58 814.88,548.03 " fill="none" id="CreateExamController-to-ExamTitle" style="stroke:#181818;stroke-width:1.0;"/><polygon fill="#181818" points="817.16,552.21,817.2028,542.3612,815.1492,547.6322,809.8782,545.5786,817.16,552.21" style="stroke:#181818;stroke-width:1.0;"/></g><!--link CreateExamController to Exam--><g id="link_CreateExamController_Exam"><path codeLine="79" d="M631.18,362.03 C612.76,387.15 589.87,418.41 569.5,446.42 C565.05,452.53 560.5,458.8 555.91,465.13 " fill="none" id="CreateExamController-to-Exam" style="stroke:#181818;stroke-width:1.0;"/><polygon fill="#181818" points="552.39,468.99,560.9123,464.0533,555.3258,464.9426,554.4365,459.3561,552.39,468.99" style="stroke:#181818;stroke-width:1.0;"/></g><!--link ListCoursesService to CourseRepository--><g id="link_ListCoursesService_CourseRepository"><path codeLine="81" d="M666.5,626.66 C666.5,668.02 666.5,733.01 666.5,778.98 " fill="none" id="ListCoursesService-to-CourseRepository" style="stroke:#181818;stroke-width:1.0;"/><polygon fill="#181818" points="666.5,783.77,670.5,774.77,666.5,778.77,662.5,774.77,666.5,783.77" style="stroke:#181818;stroke-width:1.0;"/></g><!--SRC=[dLJTQiCW5BxtANAvCV8AWpNTe30OREq3Y9wsWjEWjbiOU_TfeebH4yfoavplV7wUtn2EjQxsWCaP52AzrIZ01fw_yUTXL_sWoZuFLEgp_BgxHx_8imujNMEbf4OAeoJde0Bv1EQj1T78YzAWxQ60EhhUT8CZmJVTdXcUeavdQozAu8PB3J5-6SE9CtbbslWeFa1T6O7r437d4rAeHouoH7vBGgbsrfAyZcJqHTBBbGtNXHQDcDUhZJEcl9m_k1WTtgHNZkdzfpPO6LVlmGH19-F8FAiGxwmj_-chnrzODXcbQIdsOKUJchn3ApKpKdMXq1fVnrD79cZIkW7oEg5l_LMtI6r1ivF0XaaHEvwIUV2RMjNrusm3KMnOPsdnK0cqt7p-bvZPZ2yH7R3ccoeoJod-zQ3OiCxI3g0IM4vfWJaEoHe1eLpGHPHq5_q1]--></g></svg>