<?xml version="1.0" encoding="us-ascii" standalone="no"?><svg xmlns="http://www.w3.org/2000/svg" xmlns:xlink="http://www.w3.org/1999/xlink" contentStyleType="text/css" height="740px" preserveAspectRatio="none" style="width:1444px;height:740px;background:#FFFFFF;" version="1.1" viewBox="0 0 1444 740" width="1444px" zoomAndPan="magnify"><defs/><g><rect fill="#FFFFFF" height="139.2422" style="stroke:#181818;stroke-width:1.0;" width="10" x="228.5" y="91.4883"/><rect fill="#FFFFFF" height="58.6211" style="stroke:#181818;stroke-width:1.0;" width="10" x="233.5" y="112.7988"/><rect fill="#FFFFFF" height="29.3105" style="stroke:#181818;stroke-width:1.0;" width="10" x="228.5" y="347.9727"/><rect fill="#FFFFFF" height="29.3105" style="stroke:#181818;stroke-width:1.0;" width="10" x="228.5" y="406.5938"/><rect fill="#FFFFFF" height="184.8633" style="stroke:#181818;stroke-width:1.0;" width="10" x="228.5" y="465.2148"/><rect fill="#FFFFFF" height="507.9688" style="stroke:#181818;stroke-width:1.0;" width="10" x="623.5" y="142.1094"/><rect fill="#FFFFFF" height="147.2422" style="stroke:#181818;stroke-width:1.0;" width="10" x="628.5" y="200.7305"/><rect fill="#FFFFFF" height="155.5527" style="stroke:#181818;stroke-width:1.0;" width="10" x="628.5" y="494.5254"/><rect fill="#FFFFFF" height="58.6211" style="stroke:#181818;stroke-width:1.0;" width="10" x="787.5" y="260.041"/><rect fill="#FFFFFF" height="29.3105" style="stroke:#181818;stroke-width:1.0;" width="10" x="1055.5" y="582.457"/><rect fill="#FFFFFF" height="29.3105" style="stroke:#181818;stroke-width:1.0;" width="10" x="1132.5" y="523.8359"/><rect fill="#FFFFFF" height="9" style="stroke:#181818;stroke-width:1.0;" width="10" x="1242" y="641.0781"/><rect fill="#FFFFFF" height="360.7266" style="stroke:#181818;stroke-width:1.0;" width="10" x="1374.5" y="289.3516"/><line style="stroke:#181818;stroke-width:0.5;stroke-dasharray:5.0,5.0;" x1="35" x2="35" y1="81.4883" y2="659.0781"/><line style="stroke:#181818;stroke-width:0.5;stroke-dasharray:5.0,5.0;" x1="233" x2="233" y1="81.4883" y2="659.0781"/><line style="stroke:#181818;stroke-width:0.5;stroke-dasharray:5.0,5.0;" x1="628" x2="628" y1="81.4883" y2="659.0781"/><line style="stroke:#181818;stroke-width:0.5;stroke-dasharray:5.0,5.0;" x1="792" x2="792" y1="81.4883" y2="659.0781"/><line style="stroke:#181818;stroke-width:0.5;stroke-dasharray:5.0,5.0;" x1="1060.5" x2="1060.5" y1="81.4883" y2="659.0781"/><line style="stroke:#181818;stroke-width:0.5;stroke-dasharray:5.0,5.0;" x1="1137.5" x2="1137.5" y1="81.4883" y2="659.0781"/><line style="stroke:#181818;stroke-width:0.5;stroke-dasharray:5.0,5.0;" x1="1246.5" x2="1246.5" y1="81.4883" y2="659.0781"/><line style="stroke:#181818;stroke-width:0.5;stroke-dasharray:5.0,5.0;" x1="1379.5" x2="1379.5" y1="81.4883" y2="659.0781"/><text fill="#000000" font-family="sans-serif" font-size="14" lengthAdjust="spacing" textLength="55" x="5" y="78.5352">Teacher</text><ellipse cx="35.5" cy="13.5" fill="#E2E2F0" rx="8" ry="8" style="stroke:#181818;stroke-width:0.5;"/><path d="M35.5,21.5 L35.5,48.5 M22.5,29.5 L48.5,29.5 M35.5,48.5 L22.5,63.5 M35.5,48.5 L48.5,63.5 " fill="none" style="stroke:#181818;stroke-width:0.5;"/><text fill="#000000" font-family="sans-serif" font-size="14" lengthAdjust="spacing" textLength="55" x="5" y="671.6133">Teacher</text><ellipse cx="35.5" cy="683.0664" fill="#E2E2F0" rx="8" ry="8" style="stroke:#181818;stroke-width:0.5;"/><path d="M35.5,691.0664 L35.5,718.0664 M22.5,699.0664 L48.5,699.0664 M35.5,718.0664 L22.5,733.0664 M35.5,718.0664 L48.5,733.0664 " fill="none" style="stroke:#181818;stroke-width:0.5;"/><rect fill="#E2E2F0" height="30.4883" rx="2.5" ry="2.5" style="stroke:#181818;stroke-width:0.5;" width="111" x="178" y="50"/><text fill="#000000" font-family="sans-serif" font-size="14" lengthAdjust="spacing" textLength="97" x="185" y="70.5352">CreateExamUI</text><rect fill="#E2E2F0" height="30.4883" rx="2.5" ry="2.5" style="stroke:#181818;stroke-width:0.5;" width="111" x="178" y="658.0781"/><text fill="#000000" font-family="sans-serif" font-size="14" lengthAdjust="spacing" textLength="97" x="185" y="678.6133">CreateExamUI</text><rect fill="#E2E2F0" height="30.4883" rx="2.5" ry="2.5" style="stroke:#181818;stroke-width:0.5;" width="167" x="545" y="50"/><text fill="#000000" font-family="sans-serif" font-size="14" lengthAdjust="spacing" textLength="153" x="552" y="70.5352">CreateExamController</text><rect fill="#E2E2F0" height="30.4883" rx="2.5" ry="2.5" style="stroke:#181818;stroke-width:0.5;" width="167" x="545" y="658.0781"/><text fill="#000000" font-family="sans-serif" font-size="14" lengthAdjust="spacing" textLength="153" x="552" y="678.6133">CreateExamController</text><rect fill="#E2E2F0" height="30.4883" rx="2.5" ry="2.5" style="stroke:#181818;stroke-width:0.5;" width="141" x="722" y="50"/><text fill="#000000" font-family="sans-serif" font-size="14" lengthAdjust="spacing" textLength="127" x="729" y="70.5352">ListCoursesService</text><rect fill="#E2E2F0" height="30.4883" rx="2.5" ry="2.5" style="stroke:#181818;stroke-width:0.5;" width="141" x="722" y="658.0781"/><text fill="#000000" font-family="sans-serif" font-size="14" lengthAdjust="spacing" textLength="127" x="729" y="678.6133">ListCoursesService</text><rect fill="#E2E2F0" height="30.4883" rx="2.5" ry="2.5" style="stroke:#181818;stroke-width:0.5;" width="52" x="1034.5" y="50"/><text fill="#000000" font-family="sans-serif" font-size="14" lengthAdjust="spacing" textLength="38" x="1041.5" y="70.5352">Exam</text><rect fill="#E2E2F0" height="30.4883" rx="2.5" ry="2.5" style="stroke:#181818;stroke-width:0.5;" width="52" x="1034.5" y="658.0781"/><text fill="#000000" font-family="sans-serif" font-size="14" lengthAdjust="spacing" textLength="38" x="1041.5" y="678.6133">Exam</text><rect fill="#E2E2F0" height="30.4883" rx="2.5" ry="2.5" style="stroke:#181818;stroke-width:0.5;" width="82" x="1096.5" y="50"/><text fill="#000000" font-family="sans-serif" font-size="14" lengthAdjust="spacing" textLength="68" x="1103.5" y="70.5352">ExamTitle</text><rect fill="#E2E2F0" height="30.4883" rx="2.5" ry="2.5" style="stroke:#181818;stroke-width:0.5;" width="82" x="1096.5" y="658.0781"/><text fill="#000000" font-family="sans-serif" font-size="14" lengthAdjust="spacing" textLength="68" x="1103.5" y="678.6133">ExamTitle</text><text fill="#000000" font-family="sans-serif" font-size="14" lengthAdjust="spacing" textLength="111" x="1188.5" y="78.5352">ExamRepository</text><path d="M1229,29 C1229,19 1247,19 1247,19 C1247,19 1265,19 1265,29 L1265,55 C1265,65 1247,65 1247,65 C1247,65 1229,65 1229,55 L1229,29 " fill="#E2E2F0" style="stroke:#181818;stroke-width:1.5;"/><path d="M1229,29 C1229,39 1247,39 1247,39 C1247,39 1265,39 1265,29 " fill="none" style="stroke:#181818;stroke-width:1.5;"/><text fill="#000000" font-family="sans-serif" font-size="14" lengthAdjust="spacing" textLength="111" x="1188.5" y="671.6133">ExamRepository</text><path d="M1229,684.5664 C1229,674.5664 1247,674.5664 1247,674.5664 C1247,674.5664 1265,674.5664 1265,684.5664 L1265,710.5664 C1265,720.5664 1247,720.5664 1247,720.5664 C1247,720.5664 1229,720.5664 1229,710.5664 L1229,684.5664 " fill="#E2E2F0" style="stroke:#181818;stroke-width:1.5;"/><path d="M1229,684.5664 C1229,694.5664 1247,694.5664 1247,694.5664 C1247,694.5664 1265,694.5664 1265,684.5664 " fill="none" style="stroke:#181818;stroke-width:1.5;"/><text fill="#000000" font-family="sans-serif" font-size="14" lengthAdjust="spacing" textLength="122" x="1315.5" y="78.5352">CourseRepository</text><path d="M1361.5,29 C1361.5,19 1379.5,19 1379.5,19 C1379.5,19 1397.5,19 1397.5,29 L1397.5,55 C1397.5,65 1379.5,65 1379.5,65 C1379.5,65 1361.5,65 1361.5,55 L1361.5,29 " fill="#E2E2F0" style="stroke:#181818;stroke-width:1.5;"/><path d="M1361.5,29 C1361.5,39 1379.5,39 1379.5,39 C1379.5,39 1397.5,39 1397.5,29 " fill="none" style="stroke:#181818;stroke-width:1.5;"/><text fill="#000000" font-family="sans-serif" font-size="14" lengthAdjust="spacing" textLength="122" x="1315.5" y="671.6133">CourseRepository</text><path d="M1361.5,684.5664 C1361.5,674.5664 1379.5,674.5664 1379.5,674.5664 C1379.5,674.5664 1397.5,674.5664 1397.5,684.5664 L1397.5,710.5664 C1397.5,720.5664 1379.5,720.5664 1379.5,720.5664 C1379.5,720.5664 1361.5,720.5664 1361.5,710.5664 L1361.5,684.5664 " fill="#E2E2F0" style="stroke:#181818;stroke-width:1.5;"/><path d="M1361.5,684.5664 C1361.5,694.5664 1379.5,694.5664 1379.5,694.5664 C1379.5,694.5664 1397.5,694.5664 1397.5,684.5664 " fill="none" style="stroke:#181818;stroke-width:1.5;"/><rect fill="#FFFFFF" height="139.2422" style="stroke:#181818;stroke-width:1.0;" width="10" x="228.5" y="91.4883"/><rect fill="#FFFFFF" height="58.6211" style="stroke:#181818;stroke-width:1.0;" width="10" x="233.5" y="112.7988"/><rect fill="#FFFFFF" height="29.3105" style="stroke:#181818;stroke-width:1.0;" width="10" x="228.5" y="347.9727"/><rect fill="#FFFFFF" height="29.3105" style="stroke:#181818;stroke-width:1.0;" width="10" x="228.5" y="406.5938"/><rect fill="#FFFFFF" height="184.8633" style="stroke:#181818;stroke-width:1.0;" width="10" x="228.5" y="465.2148"/><rect fill="#FFFFFF" height="507.9688" style="stroke:#181818;stroke-width:1.0;" width="10" x="623.5" y="142.1094"/><rect fill="#FFFFFF" height="147.2422" style="stroke:#181818;stroke-width:1.0;" width="10" x="628.5" y="200.7305"/><rect fill="#FFFFFF" height="155.5527" style="stroke:#181818;stroke-width:1.0;" width="10" x="628.5" y="494.5254"/><rect fill="#FFFFFF" height="58.6211" style="stroke:#181818;stroke-width:1.0;" width="10" x="787.5" y="260.041"/><rect fill="#FFFFFF" height="29.3105" style="stroke:#181818;stroke-width:1.0;" width="10" x="1055.5" y="582.457"/><rect fill="#FFFFFF" height="29.3105" style="stroke:#181818;stroke-width:1.0;" width="10" x="1132.5" y="523.8359"/><rect fill="#FFFFFF" height="9" style="stroke:#181818;stroke-width:1.0;" width="10" x="1242" y="641.0781"/><rect fill="#FFFFFF" height="360.7266" style="stroke:#181818;stroke-width:1.0;" width="10" x="1374.5" y="289.3516"/><polygon fill="#181818" points="221.5,108.7988,231.5,112.7988,221.5,116.7988,225.5,112.7988" style="stroke:#181818;stroke-width:1.0;"/><line style="stroke:#181818;stroke-width:1.0;" x1="35.5" x2="227.5" y1="112.7988" y2="112.7988"/><text fill="#000000" font-family="sans-serif" font-size="13" lengthAdjust="spacing" textLength="76" x="42.5" y="108.0566">create exam</text><polygon fill="#181818" points="611.5,138.1094,621.5,142.1094,611.5,146.1094,615.5,142.1094" style="stroke:#181818;stroke-width:1.0;"/><line style="stroke:#181818;stroke-width:1.0;" x1="243.5" x2="617.5" y1="142.1094" y2="142.1094"/><text fill="#000000" font-family="sans-serif" font-size="13" lengthAdjust="spacing" textLength="38" x="250.5" y="137.3672">create</text><polygon fill="#181818" points="46.5,167.4199,36.5,171.4199,46.5,175.4199,42.5,171.4199" style="stroke:#181818;stroke-width:1.0;"/><line style="stroke:#181818;stroke-width:1.0;stroke-dasharray:2.0,2.0;" x1="40.5" x2="227.5" y1="171.4199" y2="171.4199"/><text fill="#000000" font-family="sans-serif" font-size="13" lengthAdjust="spacing" textLength="82" x="52.5" y="166.6777">Asks for title</text><polygon fill="#181818" points="616.5,196.7305,626.5,200.7305,616.5,204.7305,620.5,200.7305" style="stroke:#181818;stroke-width:1.0;"/><line style="stroke:#181818;stroke-width:1.0;" x1="238.5" x2="622.5" y1="200.7305" y2="200.7305"/><text fill="#000000" font-family="sans-serif" font-size="13" lengthAdjust="spacing" textLength="112" x="245.5" y="195.9883">getOpenCourses()</text><polygon fill="#181818" points="775.5,256.041,785.5,260.041,775.5,264.041,779.5,260.041" style="stroke:#181818;stroke-width:1.0;"/><line style="stroke:#181818;stroke-width:1.0;" x1="638.5" x2="781.5" y1="260.041" y2="260.041"/><text fill="#000000" font-family="sans-serif" font-size="13" lengthAdjust="spacing" textLength="112" x="645.5" y="255.2988">getOpenCourses()</text><polygon fill="#181818" points="1362.5,285.3516,1372.5,289.3516,1362.5,293.3516,1366.5,289.3516" style="stroke:#181818;stroke-width:1.0;"/><line style="stroke:#181818;stroke-width:1.0;" x1="797.5" x2="1368.5" y1="289.3516" y2="289.3516"/><text fill="#000000" font-family="sans-serif" font-size="13" lengthAdjust="spacing" textLength="45" x="804.5" y="284.6094">getAll()</text><polygon fill="#181818" points="649.5,314.6621,639.5,318.6621,649.5,322.6621,645.5,318.6621" style="stroke:#181818;stroke-width:1.0;"/><line style="stroke:#181818;stroke-width:1.0;stroke-dasharray:2.0,2.0;" x1="643.5" x2="791.5" y1="318.6621" y2="318.6621"/><text fill="#000000" font-family="sans-serif" font-size="13" lengthAdjust="spacing" textLength="119" x="655.5" y="313.9199">listOfOpenCourses</text><polygon fill="#181818" points="249.5,343.9727,239.5,347.9727,249.5,351.9727,245.5,347.9727" style="stroke:#181818;stroke-width:1.0;"/><line style="stroke:#181818;stroke-width:1.0;stroke-dasharray:2.0,2.0;" x1="243.5" x2="622.5" y1="347.9727" y2="347.9727"/><text fill="#000000" font-family="sans-serif" font-size="13" lengthAdjust="spacing" textLength="119" x="255.5" y="343.2305">listOfOpenCourses</text><polygon fill="#181818" points="46.5,373.2832,36.5,377.2832,46.5,381.2832,42.5,377.2832" style="stroke:#181818;stroke-width:1.0;"/><line style="stroke:#181818;stroke-width:1.0;stroke-dasharray:2.0,2.0;" x1="40.5" x2="232.5" y1="377.2832" y2="377.2832"/><text fill="#000000" font-family="sans-serif" font-size="13" lengthAdjust="spacing" textLength="169" x="52.5" y="372.541">Shows list of open courses</text><polygon fill="#181818" points="216.5,402.5938,226.5,406.5938,216.5,410.5938,220.5,406.5938" style="stroke:#181818;stroke-width:1.0;"/><line style="stroke:#181818;stroke-width:1.0;" x1="35.5" x2="222.5" y1="406.5938" y2="406.5938"/><text fill="#000000" font-family="sans-serif" font-size="13" lengthAdjust="spacing" textLength="93" x="42.5" y="401.8516">Choose course</text><polygon fill="#181818" points="46.5,431.9043,36.5,435.9043,46.5,439.9043,42.5,435.9043" style="stroke:#181818;stroke-width:1.0;"/><line style="stroke:#181818;stroke-width:1.0;stroke-dasharray:2.0,2.0;" x1="40.5" x2="232.5" y1="435.9043" y2="435.9043"/><text fill="#000000" font-family="sans-serif" font-size="13" lengthAdjust="spacing" textLength="158" x="52.5" y="431.1621">Asks exam dates and file</text><polygon fill="#181818" points="216.5,461.2148,226.5,465.2148,216.5,469.2148,220.5,465.2148" style="stroke:#181818;stroke-width:1.0;"/><line style="stroke:#181818;stroke-width:1.0;" x1="35.5" x2="222.5" y1="465.2148" y2="465.2148"/><text fill="#000000" font-family="sans-serif" font-size="13" lengthAdjust="spacing" textLength="132" x="42.5" y="460.4727">Inserts dates and file</text><polygon fill="#181818" points="616.5,490.5254,626.5,494.5254,616.5,498.5254,620.5,494.5254" style="stroke:#181818;stroke-width:1.0;"/><line style="stroke:#181818;stroke-width:1.0;" x1="238.5" x2="622.5" y1="494.5254" y2="494.5254"/><text fill="#000000" font-family="sans-serif" font-size="13" lengthAdjust="spacing" textLength="361" x="245.5" y="489.7832">createExam(course, title, openDate, closeDate, examFile);</text><polygon fill="#181818" points="1120.5,519.8359,1130.5,523.8359,1120.5,527.8359,1124.5,523.8359" style="stroke:#181818;stroke-width:1.0;"/><line style="stroke:#181818;stroke-width:1.0;" x1="638.5" x2="1126.5" y1="523.8359" y2="523.8359"/><text fill="#000000" font-family="sans-serif" font-size="13" lengthAdjust="spacing" textLength="67" x="645.5" y="519.0938">create title</text><polygon fill="#181818" points="649.5,549.1465,639.5,553.1465,649.5,557.1465,645.5,553.1465" style="stroke:#181818;stroke-width:1.0;"/><line style="stroke:#181818;stroke-width:1.0;stroke-dasharray:2.0,2.0;" x1="643.5" x2="1136.5" y1="553.1465" y2="553.1465"/><text fill="#000000" font-family="sans-serif" font-size="13" lengthAdjust="spacing" textLength="62" x="655.5" y="548.4043">examTitle</text><polygon fill="#181818" points="1043.5,578.457,1053.5,582.457,1043.5,586.457,1047.5,582.457" style="stroke:#181818;stroke-width:1.0;"/><line style="stroke:#181818;stroke-width:1.0;" x1="638.5" x2="1049.5" y1="582.457" y2="582.457"/><text fill="#000000" font-family="sans-serif" font-size="13" lengthAdjust="spacing" textLength="398" x="645.5" y="577.7148">createExam(course, examTitle, openDate, closeDate, examFile);</text><polygon fill="#181818" points="649.5,607.7676,639.5,611.7676,649.5,615.7676,645.5,611.7676" style="stroke:#181818;stroke-width:1.0;"/><line style="stroke:#181818;stroke-width:1.0;stroke-dasharray:2.0,2.0;" x1="643.5" x2="1059.5" y1="611.7676" y2="611.7676"/><text fill="#000000" font-family="sans-serif" font-size="13" lengthAdjust="spacing" textLength="34" x="655.5" y="607.0254">exam</text><polygon fill="#181818" points="1230,637.0781,1240,641.0781,1230,645.0781,1234,641.0781" style="stroke:#181818;stroke-width:1.0;"/><line style="stroke:#181818;stroke-width:1.0;" x1="638.5" x2="1236" y1="641.0781" y2="641.0781"/><text fill="#000000" font-family="sans-serif" font-size="13" lengthAdjust="spacing" textLength="70" x="645.5" y="636.3359">save(exam)</text><!--SRC=[ZL51QiCm4Bph5KjF2SGVIC4GL1KCXO2jF41LreseQXb9ITlVToKvmKbQwCdspEpipbWTerCwcfEA26vWZ3wS1ubA7z232Y3Pg7mqsengYF30FP9KVAcFNVEG-5tpbu2x8NfdBVei5FnQ-692vExe0uOE_SbepBBkMfMColWzBasqPKX8jbTHlQg0XMfnTC5GbE_2jpE-BBrHy9RbyAK92YMXgkcv1fq30P8hspK95VoCPe0GkOPDU0_GKtSnNKL4LPFk3UDsn67AkLYoFSwN25xLtRsegshU9dXZRVxCNfOAs_Op9KlpLKr7tbFpBNHBLTE9tS5z1aXQS3quKeEUv3BR03yuHnKLz3ANewNyG2LY03NieJSKSffgXe0-XblstC7KLVejY-AyAYMjyWrFnAr0MrfSNjEcPp9OFkP-XBpyWrAjaAMFB9G5IhfV5rqq_rWsiosExJge4ouIi6Ji1m00]--></g></svg>