<?xml version="1.0" encoding="us-ascii" standalone="no"?><svg xmlns="http://www.w3.org/2000/svg" xmlns:xlink="http://www.w3.org/1999/xlink" contentStyleType="text/css" height="732px" preserveAspectRatio="none" style="width:887px;height:732px;background:#FFFFFF;" version="1.1" viewBox="0 0 887 732" width="887px" zoomAndPan="magnify"><defs/><g><!--class Teacher--><g id="elem_Teacher"><rect codeLine="2" fill="#F1F1F1" height="48" id="Teacher" rx="2.5" ry="2.5" style="stroke:#181818;stroke-width:0.5;" width="87" x="512" y="7"/><ellipse cx="527" cy="23" fill="#ADD1B2" rx="11" ry="11" style="stroke:#181818;stroke-width:1.0;"/><path d="M529.9731,28.6431 Q529.3921,28.9419 528.7529,29.0913 Q528.1138,29.2407 527.4082,29.2407 Q524.9014,29.2407 523.5815,27.5889 Q522.2617,25.937 522.2617,22.8159 Q522.2617,19.6865 523.5815,18.0347 Q524.9014,16.3828 527.4082,16.3828 Q528.1138,16.3828 528.7612,16.5322 Q529.4087,16.6816 529.9731,16.9805 L529.9731,19.7031 Q529.3423,19.1221 528.7488,18.8523 Q528.1553,18.5825 527.5244,18.5825 Q526.1797,18.5825 525.4949,19.6492 Q524.8101,20.7158 524.8101,22.8159 Q524.8101,24.9077 525.4949,25.9744 Q526.1797,27.041 527.5244,27.041 Q528.1553,27.041 528.7488,26.7712 Q529.3423,26.5015 529.9731,25.9204 Z " fill="#000000"/><text fill="#000000" font-family="sans-serif" font-size="14" lengthAdjust="spacing" textLength="55" x="541" y="28.291">Teacher</text><line style="stroke:#181818;stroke-width:0.5;" x1="513" x2="598" y1="39" y2="39"/><line style="stroke:#181818;stroke-width:0.5;" x1="513" x2="598" y1="47" y2="47"/></g><!--class CreateExamUI--><g id="elem_CreateExamUI"><rect codeLine="3" fill="#F1F1F1" height="64.4883" id="CreateExamUI" rx="2.5" ry="2.5" style="stroke:#181818;stroke-width:0.5;" width="129" x="588" y="115"/><ellipse cx="603" cy="131" fill="#ADD1B2" rx="11" ry="11" style="stroke:#181818;stroke-width:1.0;"/><path d="M605.9731,136.6431 Q605.3921,136.9419 604.7529,137.0913 Q604.1138,137.2407 603.4082,137.2407 Q600.9014,137.2407 599.5815,135.5889 Q598.2617,133.937 598.2617,130.8159 Q598.2617,127.6865 599.5815,126.0347 Q600.9014,124.3828 603.4082,124.3828 Q604.1138,124.3828 604.7612,124.5322 Q605.4087,124.6816 605.9731,124.9805 L605.9731,127.7031 Q605.3423,127.1221 604.7488,126.8523 Q604.1553,126.5825 603.5244,126.5825 Q602.1797,126.5825 601.4949,127.6492 Q600.8101,128.7158 600.8101,130.8159 Q600.8101,132.9077 601.4949,133.9744 Q602.1797,135.041 603.5244,135.041 Q604.1553,135.041 604.7488,134.7712 Q605.3423,134.5015 605.9731,133.9204 Z " fill="#000000"/><text fill="#000000" font-family="sans-serif" font-size="14" lengthAdjust="spacing" textLength="97" x="617" y="136.291">CreateExamUI</text><line style="stroke:#181818;stroke-width:0.5;" x1="589" x2="716" y1="147" y2="147"/><line style="stroke:#181818;stroke-width:0.5;" x1="589" x2="716" y1="155" y2="155"/><ellipse cx="599" cy="168.7441" fill="#84BE84" rx="3" ry="3" style="stroke:#038048;stroke-width:1.0;"/><text fill="#000000" font-family="sans-serif" font-size="14" lengthAdjust="spacing" textLength="64" x="608" y="172.5352">doshow()</text></g><!--class UpdateExamUI--><g id="elem_UpdateExamUI"><rect codeLine="7" fill="#F1F1F1" height="64.4883" id="UpdateExamUI" rx="2.5" ry="2.5" style="stroke:#181818;stroke-width:0.5;" width="133" x="406" y="115"/><ellipse cx="421" cy="131" fill="#ADD1B2" rx="11" ry="11" style="stroke:#181818;stroke-width:1.0;"/><path d="M423.9731,136.6431 Q423.3921,136.9419 422.7529,137.0913 Q422.1138,137.2407 421.4082,137.2407 Q418.9014,137.2407 417.5815,135.5889 Q416.2617,133.937 416.2617,130.8159 Q416.2617,127.6865 417.5815,126.0347 Q418.9014,124.3828 421.4082,124.3828 Q422.1138,124.3828 422.7612,124.5322 Q423.4087,124.6816 423.9731,124.9805 L423.9731,127.7031 Q423.3423,127.1221 422.7488,126.8523 Q422.1553,126.5825 421.5244,126.5825 Q420.1797,126.5825 419.4949,127.6492 Q418.8101,128.7158 418.8101,130.8159 Q418.8101,132.9077 419.4949,133.9744 Q420.1797,135.041 421.5244,135.041 Q422.1553,135.041 422.7488,134.7712 Q423.3423,134.5015 423.9731,133.9204 Z " fill="#000000"/><text fill="#000000" font-family="sans-serif" font-size="14" lengthAdjust="spacing" textLength="101" x="435" y="136.291">UpdateExamUI</text><line style="stroke:#181818;stroke-width:0.5;" x1="407" x2="538" y1="147" y2="147"/><line style="stroke:#181818;stroke-width:0.5;" x1="407" x2="538" y1="155" y2="155"/><ellipse cx="417" cy="168.7441" fill="#84BE84" rx="3" ry="3" style="stroke:#038048;stroke-width:1.0;"/><text fill="#000000" font-family="sans-serif" font-size="14" lengthAdjust="spacing" textLength="64" x="426" y="172.5352">doshow()</text></g><!--class UpdateExamController--><g id="elem_UpdateExamController"><rect codeLine="10" fill="#F1F1F1" height="146.9297" id="UpdateExamController" rx="2.5" ry="2.5" style="stroke:#181818;stroke-width:0.5;" width="189" x="350" y="239.48"/><ellipse cx="365" cy="255.48" fill="#ADD1B2" rx="11" ry="11" style="stroke:#181818;stroke-width:1.0;"/><path d="M367.9731,261.1231 Q367.3921,261.4219 366.7529,261.5713 Q366.1138,261.7207 365.4082,261.7207 Q362.9014,261.7207 361.5815,260.0689 Q360.2617,258.417 360.2617,255.2959 Q360.2617,252.1665 361.5815,250.5147 Q362.9014,248.8628 365.4082,248.8628 Q366.1138,248.8628 366.7612,249.0122 Q367.4087,249.1616 367.9731,249.4605 L367.9731,252.1831 Q367.3423,251.6021 366.7488,251.3323 Q366.1553,251.0625 365.5244,251.0625 Q364.1797,251.0625 363.4949,252.1292 Q362.8101,253.1958 362.8101,255.2959 Q362.8101,257.3877 363.4949,258.4544 Q364.1797,259.521 365.5244,259.521 Q366.1553,259.521 366.7488,259.2512 Q367.3423,258.9815 367.9731,258.4004 Z " fill="#000000"/><text fill="#000000" font-family="sans-serif" font-size="14" lengthAdjust="spacing" textLength="157" x="379" y="260.771">UpdateExamController</text><line style="stroke:#181818;stroke-width:0.5;" x1="351" x2="538" y1="271.48" y2="271.48"/><line style="stroke:#181818;stroke-width:0.5;" x1="351" x2="538" y1="279.48" y2="279.48"/><ellipse cx="361" cy="293.2241" fill="#84BE84" rx="3" ry="3" style="stroke:#038048;stroke-width:1.0;"/><text fill="#000000" font-family="sans-serif" font-size="14" lengthAdjust="spacing" textLength="125" x="370" y="297.0152">getOpenCourses()</text><ellipse cx="361" cy="309.7124" fill="#84BE84" rx="3" ry="3" style="stroke:#038048;stroke-width:1.0;"/><text fill="#000000" font-family="sans-serif" font-size="14" lengthAdjust="spacing" textLength="141" x="370" y="313.5034">getExamsByCourse()</text><ellipse cx="361" cy="326.2007" fill="#84BE84" rx="3" ry="3" style="stroke:#038048;stroke-width:1.0;"/><text fill="#000000" font-family="sans-serif" font-size="14" lengthAdjust="spacing" textLength="115" x="370" y="329.9917">getExamByTitle()</text><ellipse cx="361" cy="342.689" fill="#84BE84" rx="3" ry="3" style="stroke:#038048;stroke-width:1.0;"/><text fill="#000000" font-family="sans-serif" font-size="14" lengthAdjust="spacing" textLength="138" x="370" y="346.48">getExamOpenDate()</text><ellipse cx="361" cy="359.1773" fill="#84BE84" rx="3" ry="3" style="stroke:#038048;stroke-width:1.0;"/><text fill="#000000" font-family="sans-serif" font-size="14" lengthAdjust="spacing" textLength="139" x="370" y="362.9683">getExamCloseDate()</text><ellipse cx="361" cy="375.6655" fill="#84BE84" rx="3" ry="3" style="stroke:#038048;stroke-width:1.0;"/><text fill="#000000" font-family="sans-serif" font-size="14" lengthAdjust="spacing" textLength="96" x="370" y="379.4566">updateExam()</text></g><!--class ListCoursesService--><g id="elem_ListCoursesService"><rect codeLine="19" fill="#F1F1F1" height="80.9766" id="ListCoursesService" rx="2.5" ry="2.5" style="stroke:#181818;stroke-width:0.5;" width="159" x="587" y="545.34"/><ellipse cx="602" cy="561.34" fill="#ADD1B2" rx="11" ry="11" style="stroke:#181818;stroke-width:1.0;"/><path d="M604.9731,566.9831 Q604.3921,567.2819 603.7529,567.4313 Q603.1138,567.5807 602.4082,567.5807 Q599.9014,567.5807 598.5815,565.9289 Q597.2617,564.277 597.2617,561.1559 Q597.2617,558.0265 598.5815,556.3747 Q599.9014,554.7228 602.4082,554.7228 Q603.1138,554.7228 603.7612,554.8722 Q604.4087,555.0216 604.9731,555.3205 L604.9731,558.0431 Q604.3423,557.4621 603.7488,557.1923 Q603.1553,556.9225 602.5244,556.9225 Q601.1797,556.9225 600.4949,557.9892 Q599.8101,559.0558 599.8101,561.1559 Q599.8101,563.2477 600.4949,564.3144 Q601.1797,565.381 602.5244,565.381 Q603.1553,565.381 603.7488,565.1112 Q604.3423,564.8415 604.9731,564.2604 Z " fill="#000000"/><text fill="#000000" font-family="sans-serif" font-size="14" lengthAdjust="spacing" textLength="127" x="616" y="566.631">ListCoursesService</text><line style="stroke:#181818;stroke-width:0.5;" x1="588" x2="745" y1="577.34" y2="577.34"/><line style="stroke:#181818;stroke-width:0.5;" x1="588" x2="745" y1="585.34" y2="585.34"/><ellipse cx="598" cy="599.0841" fill="#84BE84" rx="3" ry="3" style="stroke:#038048;stroke-width:1.0;"/><text fill="#000000" font-family="sans-serif" font-size="14" lengthAdjust="spacing" textLength="125" x="607" y="602.8752">getOpenCourses()</text><ellipse cx="598" cy="615.5724" fill="#84BE84" rx="3" ry="3" style="stroke:#038048;stroke-width:1.0;"/><text fill="#000000" font-family="sans-serif" font-size="14" lengthAdjust="spacing" textLength="82" x="607" y="619.3634">allCourses()</text></g><!--class UpdateExamService--><g id="elem_UpdateExamService"><rect codeLine="24" fill="#F1F1F1" height="97.4648" id="UpdateExamService" rx="2.5" ry="2.5" style="stroke:#181818;stroke-width:0.5;" width="167" x="185" y="537.1"/><ellipse cx="200" cy="553.1" fill="#ADD1B2" rx="11" ry="11" style="stroke:#181818;stroke-width:1.0;"/><path d="M202.9731,558.7431 Q202.3921,559.0419 201.7529,559.1913 Q201.1138,559.3407 200.4082,559.3407 Q197.9014,559.3407 196.5815,557.6889 Q195.2617,556.037 195.2617,552.9159 Q195.2617,549.7865 196.5815,548.1347 Q197.9014,546.4828 200.4082,546.4828 Q201.1138,546.4828 201.7612,546.6322 Q202.4087,546.7816 202.9731,547.0805 L202.9731,549.8031 Q202.3423,549.2221 201.7488,548.9523 Q201.1553,548.6825 200.5244,548.6825 Q199.1797,548.6825 198.4949,549.7492 Q197.8101,550.8158 197.8101,552.9159 Q197.8101,555.0077 198.4949,556.0744 Q199.1797,557.141 200.5244,557.141 Q201.1553,557.141 201.7488,556.8712 Q202.3423,556.6015 202.9731,556.0204 Z " fill="#000000"/><text fill="#000000" font-family="sans-serif" font-size="14" lengthAdjust="spacing" textLength="135" x="214" y="558.391">UpdateExamService</text><line style="stroke:#181818;stroke-width:0.5;" x1="186" x2="351" y1="569.1" y2="569.1"/><line style="stroke:#181818;stroke-width:0.5;" x1="186" x2="351" y1="577.1" y2="577.1"/><ellipse cx="196" cy="590.8441" fill="#84BE84" rx="3" ry="3" style="stroke:#038048;stroke-width:1.0;"/><text fill="#000000" font-family="sans-serif" font-size="14" lengthAdjust="spacing" textLength="134" x="205" y="594.6352">getExamByCourse()</text><ellipse cx="196" cy="607.3324" fill="#84BE84" rx="3" ry="3" style="stroke:#038048;stroke-width:1.0;"/><text fill="#000000" font-family="sans-serif" font-size="14" lengthAdjust="spacing" textLength="115" x="205" y="611.1234">getExamByTitle()</text><ellipse cx="196" cy="623.8207" fill="#84BE84" rx="3" ry="3" style="stroke:#038048;stroke-width:1.0;"/><text fill="#000000" font-family="sans-serif" font-size="14" lengthAdjust="spacing" textLength="82" x="205" y="627.6117">allCourses()</text></g><!--class CreateExamController--><g id="elem_CreateExamController"><rect codeLine="31" fill="#F1F1F1" height="97.4648" id="CreateExamController" rx="2.5" ry="2.5" style="stroke:#181818;stroke-width:0.5;" width="185" x="574" y="264.22"/><ellipse cx="589" cy="280.22" fill="#ADD1B2" rx="11" ry="11" style="stroke:#181818;stroke-width:1.0;"/><path d="M591.9731,285.8631 Q591.3921,286.1619 590.7529,286.3113 Q590.1138,286.4607 589.4082,286.4607 Q586.9014,286.4607 585.5815,284.8089 Q584.2617,283.157 584.2617,280.0359 Q584.2617,276.9065 585.5815,275.2547 Q586.9014,273.6028 589.4082,273.6028 Q590.1138,273.6028 590.7612,273.7522 Q591.4087,273.9016 591.9731,274.2005 L591.9731,276.9231 Q591.3423,276.3421 590.7488,276.0723 Q590.1553,275.8025 589.5244,275.8025 Q588.1797,275.8025 587.4949,276.8692 Q586.8101,277.9358 586.8101,280.0359 Q586.8101,282.1277 587.4949,283.1944 Q588.1797,284.261 589.5244,284.261 Q590.1553,284.261 590.7488,283.9912 Q591.3423,283.7215 591.9731,283.1404 Z " fill="#000000"/><text fill="#000000" font-family="sans-serif" font-size="14" lengthAdjust="spacing" textLength="153" x="603" y="285.511">CreateExamController</text><line style="stroke:#181818;stroke-width:0.5;" x1="575" x2="758" y1="296.22" y2="296.22"/><line style="stroke:#181818;stroke-width:0.5;" x1="575" x2="758" y1="304.22" y2="304.22"/><ellipse cx="585" cy="317.9641" fill="#84BE84" rx="3" ry="3" style="stroke:#038048;stroke-width:1.0;"/><text fill="#000000" font-family="sans-serif" font-size="14" lengthAdjust="spacing" textLength="90" x="594" y="321.7552">createExam()</text><ellipse cx="585" cy="334.4524" fill="#84BE84" rx="3" ry="3" style="stroke:#038048;stroke-width:1.0;"/><text fill="#000000" font-family="sans-serif" font-size="14" lengthAdjust="spacing" textLength="125" x="594" y="338.2434">getOpenCourses()</text><ellipse cx="585" cy="350.9407" fill="#84BE84" rx="3" ry="3" style="stroke:#038048;stroke-width:1.0;"/><text fill="#000000" font-family="sans-serif" font-size="14" lengthAdjust="spacing" textLength="100" x="594" y="354.7317">getExamTitle()</text></g><!--class ExamTitle--><g id="elem_ExamTitle"><rect codeLine="36" fill="#F1F1F1" height="64.4883" id="ExamTitle" rx="2.5" ry="2.5" style="stroke:#181818;stroke-width:0.5;" width="100" x="780.5" y="553.59"/><ellipse cx="795.5" cy="569.59" fill="#ADD1B2" rx="11" ry="11" style="stroke:#181818;stroke-width:1.0;"/><path d="M798.4731,575.2331 Q797.8921,575.5319 797.2529,575.6813 Q796.6138,575.8307 795.9082,575.8307 Q793.4014,575.8307 792.0815,574.1789 Q790.7617,572.527 790.7617,569.4059 Q790.7617,566.2765 792.0815,564.6247 Q793.4014,562.9728 795.9082,562.9728 Q796.6138,562.9728 797.2612,563.1222 Q797.9087,563.2716 798.4731,563.5705 L798.4731,566.2931 Q797.8423,565.7121 797.2488,565.4423 Q796.6553,565.1725 796.0244,565.1725 Q794.6797,565.1725 793.9949,566.2392 Q793.3101,567.3058 793.3101,569.4059 Q793.3101,571.4977 793.9949,572.5644 Q794.6797,573.631 796.0244,573.631 Q796.6553,573.631 797.2488,573.3612 Q797.8423,573.0915 798.4731,572.5104 Z " fill="#000000"/><text fill="#000000" font-family="sans-serif" font-size="14" lengthAdjust="spacing" textLength="68" x="809.5" y="574.881">ExamTitle</text><line style="stroke:#181818;stroke-width:0.5;" x1="781.5" x2="879.5" y1="585.59" y2="585.59"/><rect fill="none" height="6" style="stroke:#C82930;stroke-width:1.0;" width="6" x="788.5" y="596.3341"/><text fill="#000000" font-family="sans-serif" font-size="14" lengthAdjust="spacing" textLength="26" x="800.5" y="603.1252">title</text><line style="stroke:#181818;stroke-width:0.5;" x1="781.5" x2="879.5" y1="610.0783" y2="610.0783"/></g><!--class Exam--><g id="elem_Exam"><rect codeLine="40" fill="#F1F1F1" height="278.8359" id="Exam" rx="2.5" ry="2.5" style="stroke:#181818;stroke-width:0.5;" width="165" x="387" y="446.41"/><ellipse cx="446.25" cy="462.41" fill="#ADD1B2" rx="11" ry="11" style="stroke:#181818;stroke-width:1.0;"/><path d="M449.2231,468.0531 Q448.6421,468.3519 448.0029,468.5013 Q447.3638,468.6507 446.6582,468.6507 Q444.1514,468.6507 442.8315,466.9989 Q441.5117,465.347 441.5117,462.2259 Q441.5117,459.0965 442.8315,457.4447 Q444.1514,455.7928 446.6582,455.7928 Q447.3638,455.7928 448.0112,455.9422 Q448.6587,456.0916 449.2231,456.3905 L449.2231,459.1131 Q448.5923,458.5321 447.9988,458.2623 Q447.4053,457.9925 446.7744,457.9925 Q445.4297,457.9925 444.7449,459.0592 Q444.0601,460.1258 444.0601,462.2259 Q444.0601,464.3177 444.7449,465.3844 Q445.4297,466.451 446.7744,466.451 Q447.4053,466.451 447.9988,466.1812 Q448.5923,465.9115 449.2231,465.3304 Z " fill="#000000"/><text fill="#000000" font-family="sans-serif" font-size="14" lengthAdjust="spacing" textLength="38" x="466.75" y="467.701">Exam</text><line style="stroke:#181818;stroke-width:0.5;" x1="388" x2="551" y1="478.41" y2="478.41"/><rect fill="none" height="6" style="stroke:#C82930;stroke-width:1.0;" width="6" x="395" y="489.1541"/><text fill="#000000" font-family="sans-serif" font-size="14" lengthAdjust="spacing" textLength="13" x="407" y="495.9452">id</text><rect fill="none" height="6" style="stroke:#C82930;stroke-width:1.0;" width="6" x="395" y="505.6424"/><text fill="#000000" font-family="sans-serif" font-size="14" lengthAdjust="spacing" textLength="46" x="407" y="512.4334">course</text><rect fill="none" height="6" style="stroke:#C82930;stroke-width:1.0;" width="6" x="395" y="522.1307"/><text fill="#000000" font-family="sans-serif" font-size="14" lengthAdjust="spacing" textLength="26" x="407" y="528.9217">title</text><rect fill="none" height="6" style="stroke:#C82930;stroke-width:1.0;" width="6" x="395" y="538.619"/><text fill="#000000" font-family="sans-serif" font-size="14" lengthAdjust="spacing" textLength="62" x="407" y="545.41">startDate</text><rect fill="none" height="6" style="stroke:#C82930;stroke-width:1.0;" width="6" x="395" y="555.1073"/><text fill="#000000" font-family="sans-serif" font-size="14" lengthAdjust="spacing" textLength="57" x="407" y="561.8983">endDate</text><rect fill="none" height="6" style="stroke:#C82930;stroke-width:1.0;" width="6" x="395" y="571.5955"/><text fill="#000000" font-family="sans-serif" font-size="14" lengthAdjust="spacing" textLength="21" x="407" y="578.3866">file</text><line style="stroke:#181818;stroke-width:0.5;" x1="388" x2="551" y1="585.3397" y2="585.3397"/><ellipse cx="398" cy="599.0838" fill="#84BE84" rx="3" ry="3" style="stroke:#038048;stroke-width:1.0;"/><text fill="#000000" font-family="sans-serif" font-size="14" lengthAdjust="spacing" textLength="90" x="407" y="602.8748">createExam()</text><ellipse cx="398" cy="615.5721" fill="#84BE84" rx="3" ry="3" style="stroke:#038048;stroke-width:1.0;"/><text fill="#000000" font-family="sans-serif" font-size="14" lengthAdjust="spacing" textLength="96" x="407" y="619.3631">updateExam()</text><ellipse cx="398" cy="632.0604" fill="#84BE84" rx="3" ry="3" style="stroke:#038048;stroke-width:1.0;"/><text fill="#000000" font-family="sans-serif" font-size="14" lengthAdjust="spacing" textLength="138" x="407" y="635.8514">getExamOpenDate()</text><ellipse cx="398" cy="648.5487" fill="#84BE84" rx="3" ry="3" style="stroke:#038048;stroke-width:1.0;"/><text fill="#000000" font-family="sans-serif" font-size="14" lengthAdjust="spacing" textLength="139" x="407" y="652.3397">getExamCloseDate()</text><ellipse cx="398" cy="665.037" fill="#84BE84" rx="3" ry="3" style="stroke:#038048;stroke-width:1.0;"/><text fill="#000000" font-family="sans-serif" font-size="14" lengthAdjust="spacing" textLength="94" x="407" y="668.828">getExamFile()</text><ellipse cx="398" cy="681.5252" fill="#84BE84" rx="3" ry="3" style="stroke:#038048;stroke-width:1.0;"/><text fill="#000000" font-family="sans-serif" font-size="14" lengthAdjust="spacing" textLength="100" x="407" y="685.3163">getExamTitle()</text><ellipse cx="398" cy="698.0135" fill="#84BE84" rx="3" ry="3" style="stroke:#038048;stroke-width:1.0;"/><text fill="#000000" font-family="sans-serif" font-size="14" lengthAdjust="spacing" textLength="119" x="407" y="701.8045">getExamCourse()</text><ellipse cx="398" cy="714.5018" fill="#84BE84" rx="3" ry="3" style="stroke:#038048;stroke-width:1.0;"/><text fill="#000000" font-family="sans-serif" font-size="14" lengthAdjust="spacing" textLength="83" x="407" y="718.2928">getExamId()</text></g><!--class ExamRepository--><g id="elem_ExamRepository"><rect codeLine="56" fill="#F1F1F1" height="97.4648" id="ExamRepository" rx="2.5" ry="2.5" style="stroke:#181818;stroke-width:0.5;" width="143" x="7" y="537.1"/><ellipse cx="22" cy="553.1" fill="#ADD1B2" rx="11" ry="11" style="stroke:#181818;stroke-width:1.0;"/><path d="M24.9731,558.7431 Q24.3921,559.0419 23.7529,559.1913 Q23.1138,559.3407 22.4082,559.3407 Q19.9014,559.3407 18.5815,557.6889 Q17.2617,556.037 17.2617,552.9159 Q17.2617,549.7865 18.5815,548.1347 Q19.9014,546.4828 22.4082,546.4828 Q23.1138,546.4828 23.7612,546.6322 Q24.4087,546.7816 24.9731,547.0805 L24.9731,549.8031 Q24.3423,549.2221 23.7488,548.9523 Q23.1553,548.6825 22.5244,548.6825 Q21.1797,548.6825 20.4949,549.7492 Q19.8101,550.8158 19.8101,552.9159 Q19.8101,555.0077 20.4949,556.0744 Q21.1797,557.141 22.5244,557.141 Q23.1553,557.141 23.7488,556.8712 Q24.3423,556.6015 24.9731,556.0204 Z " fill="#000000"/><text fill="#000000" font-family="sans-serif" font-size="14" lengthAdjust="spacing" textLength="111" x="36" y="558.391">ExamRepository</text><line style="stroke:#181818;stroke-width:0.5;" x1="8" x2="149" y1="569.1" y2="569.1"/><line style="stroke:#181818;stroke-width:0.5;" x1="8" x2="149" y1="577.1" y2="577.1"/><ellipse cx="18" cy="590.8441" fill="#84BE84" rx="3" ry="3" style="stroke:#038048;stroke-width:1.0;"/><text fill="#000000" font-family="sans-serif" font-size="14" lengthAdjust="spacing" textLength="40" x="27" y="594.6352">save()</text><ellipse cx="18" cy="607.3324" fill="#84BE84" rx="3" ry="3" style="stroke:#038048;stroke-width:1.0;"/><text fill="#000000" font-family="sans-serif" font-size="14" lengthAdjust="spacing" textLength="82" x="27" y="611.1234">findByTitle()</text><ellipse cx="18" cy="623.8207" fill="#84BE84" rx="3" ry="3" style="stroke:#038048;stroke-width:1.0;"/><text fill="#000000" font-family="sans-serif" font-size="14" lengthAdjust="spacing" textLength="65" x="27" y="627.6117">findById()</text></g><!--link Teacher to UpdateExamUI--><g id="link_Teacher_UpdateExamUI"><path codeLine="62" d="M538.5,55.39 C527.05,71.16 511.71,92.27 498.71,110.17 " fill="none" id="Teacher-to-UpdateExamUI" style="stroke:#181818;stroke-width:1.0;"/><polygon fill="#181818" points="495.45,113.65,503.9806,108.7276,498.3926,109.6076,497.5126,104.0196,495.45,113.65" style="stroke:#181818;stroke-width:1.0;"/></g><!--link UpdateExamUI to UpdateExamController--><g id="link_UpdateExamUI_UpdateExamController"><path codeLine="63" d="M467.1,179.8 C464.48,195.13 461.2,214.29 457.96,233.23 " fill="none" id="UpdateExamUI-to-UpdateExamController" style="stroke:#181818;stroke-width:1.0;"/><polygon fill="#181818" points="456.96,238.1,462.4199,229.9031,457.8028,233.1715,454.5343,228.5545,456.96,238.1" style="stroke:#181818;stroke-width:1.0;"/></g><!--link UpdateExamController to ListCoursesService--><g id="link_UpdateExamController_ListCoursesService"><path codeLine="64" d="M516.87,386.84 C534.64,405.76 553.22,426.44 569.5,446.41 C594.03,476.52 619.13,512.49 637.64,540.22 " fill="none" id="UpdateExamController-to-ListCoursesService" style="stroke:#181818;stroke-width:1.0;"/><polygon fill="#181818" points="640.79,543.94,639.1259,534.2327,638.0165,539.7797,632.4695,538.6703,640.79,543.94" style="stroke:#181818;stroke-width:1.0;"/></g><!--link UpdateExamController to UpdateExamService--><g id="link_UpdateExamController_UpdateExamService"><path codeLine="65" d="M397.1,386.9 C367.36,432.67 329.69,490.65 302.83,532 " fill="none" id="UpdateExamController-to-UpdateExamService" style="stroke:#181818;stroke-width:1.0;"/><polygon fill="#181818" points="299.6,535.96,307.8574,530.592,302.3239,531.7671,301.1488,526.2337,299.6,535.96" style="stroke:#181818;stroke-width:1.0;"/></g><!--link UpdateExamController to Exam--><g id="link_UpdateExamController_Exam"><path codeLine="66" d="M451.23,386.9 C452.77,403.51 454.45,421.73 456.15,440.19 " fill="none" id="UpdateExamController-to-Exam" style="stroke:#181818;stroke-width:1.0;"/><polygon fill="#181818" points="456.68,444.92,459.8391,435.5915,456.2222,439.941,451.8727,436.3241,456.68,444.92" style="stroke:#181818;stroke-width:1.0;"/></g><!--link UpdateExamController to ExamRepository--><g id="link_UpdateExamController_ExamRepository"><path codeLine="67" d="M349.64,344.32 C292.27,366.11 220.27,399.87 167.5,446.41 C140.77,469.99 118.96,503.45 103.62,531.57 " fill="none" id="UpdateExamController-to-ExamRepository" style="stroke:#181818;stroke-width:1.0;"/><polygon fill="#181818" points="100.83,535.75,108.6211,529.7252,103.2022,531.3486,101.5788,525.9296,100.83,535.75" style="stroke:#181818;stroke-width:1.0;"/></g><!--link Teacher to CreateExamUI--><g id="link_Teacher_CreateExamUI"><path codeLine="69" d="M575.36,55.39 C588.75,71.16 606.67,92.27 621.87,110.17 " fill="none" id="Teacher-to-CreateExamUI" style="stroke:#181818;stroke-width:1.0;"/><polygon fill="#181818" points="625.67,113.65,622.8879,104.2023,622.4313,109.8407,616.7929,109.3841,625.67,113.65" style="stroke:#181818;stroke-width:1.0;"/></g><!--link CreateExamUI to CreateExamController--><g id="link_CreateExamUI_CreateExamController"><path codeLine="70" d="M655.2,179.8 C657.1,202 659.69,232.26 661.91,258.22 " fill="none" id="CreateExamUI-to-CreateExamController" style="stroke:#181818;stroke-width:1.0;"/><polygon fill="#181818" points="662.4,263.03,665.6145,253.7205,661.9718,258.0484,657.6439,254.4056,662.4,263.03" style="stroke:#181818;stroke-width:1.0;"/></g><!--link CreateExamController to ListCoursesService--><g id="link_CreateExamController_ListCoursesService"><path codeLine="71" d="M666.5,362.07 C666.5,412.18 666.5,490.09 666.5,539.24 " fill="none" id="CreateExamController-to-ListCoursesService" style="stroke:#181818;stroke-width:1.0;"/><polygon fill="#181818" points="666.5,544.09,670.5,535.09,666.5,539.09,662.5,535.09,666.5,544.09" style="stroke:#181818;stroke-width:1.0;"/></g><!--link CreateExamController to ExamTitle--><g id="link_CreateExamController_ExamTitle"><path codeLine="72" d="M705.09,362.18 C723.83,386.68 746.02,417.35 763.5,446.41 C783.45,479.58 802.29,519.58 814.88,548.03 " fill="none" id="CreateExamController-to-ExamTitle" style="stroke:#181818;stroke-width:1.0;"/><polygon fill="#181818" points="817.16,552.2,817.2028,542.3512,815.1492,547.6222,809.8782,545.5686,817.16,552.2" style="stroke:#181818;stroke-width:1.0;"/></g><!--link CreateExamController to Exam--><g id="link_CreateExamController_Exam"><path codeLine="73" d="M631.18,362.03 C612.76,387.15 589.87,418.41 569.5,446.41 C565.05,452.53 560.5,458.8 555.91,465.13 " fill="none" id="CreateExamController-to-Exam" style="stroke:#181818;stroke-width:1.0;"/><polygon fill="#181818" points="552.39,468.98,560.9009,464.0237,555.3164,464.9259,554.4142,459.3414,552.39,468.98" style="stroke:#181818;stroke-width:1.0;"/></g><!--SRC=[dLJRJiGW47tdA_geCVq57xPgiec9YUv-085PbmHBmx2hZV7VXHPQ2hGnzgMTCuV3NCiaHQmEGDaPD663rMYW1Xw_wCTnNtsJoZvtNE5PVTxSaX_YMSUERx5IKgDQevMKe0Fv7SnB1ssZBXe1xQ60EZhk-j6HuBl-88nCKQVpO2zAu4OgX1Y_JE74cJmBD3wADz1NmM0xH2hbZ1JgaOkCaVybeLGxQqbUHpRv8kdroeRhGeicpElLnXbpNiuVN8AFRpOen_JX4mtLnjLxDA7bit4IdbM8Tz6M__JLuqyYcupIj1JxiET9JLwXKoYCqdqeDDBhTEeaMfwqReIy3l4hLTNr_M9LI6nOPsb3I0cqt7nGrvZPCAuH7R3bcwkmJ2d-Hv3OiCxIi98IM4vfXJbrSuj0VW40]--></g></svg>