<?xml version="1.0" encoding="us-ascii" standalone="no"?><svg xmlns="http://www.w3.org/2000/svg" xmlns:xlink="http://www.w3.org/1999/xlink" contentStyleType="text/css" height="1034px" preserveAspectRatio="none" style="width:1399px;height:1034px;background:#FFFFFF;" version="1.1" viewBox="0 0 1399 1034" width="1399px" zoomAndPan="magnify"><defs/><g><rect fill="#FFFFFF" height="169.2422" style="stroke:#181818;stroke-width:1.0;" width="10" x="228.5" y="91.4883"/><rect fill="#FFFFFF" height="88.6211" style="stroke:#181818;stroke-width:1.0;" width="10" x="233.5" y="112.7988"/><rect fill="#FFFFFF" height="29.3105" style="stroke:#181818;stroke-width:1.0;" width="10" x="228.5" y="407.9727"/><rect fill="#FFFFFF" height="146.5527" style="stroke:#181818;stroke-width:1.0;" width="10" x="228.5" y="466.5938"/><rect fill="#FFFFFF" height="146.5527" style="stroke:#181818;stroke-width:1.0;" width="10" x="228.5" y="642.457"/><rect fill="#FFFFFF" height="126.2422" style="stroke:#181818;stroke-width:1.0;" width="10" x="228.5" y="818.3203"/><rect fill="#FFFFFF" height="30" style="stroke:#181818;stroke-width:1.0;" width="10" x="578.5" y="142.1094"/><rect fill="#FFFFFF" height="177.2422" style="stroke:#181818;stroke-width:1.0;" width="10" x="578.5" y="230.7305"/><rect fill="#FFFFFF" height="87.9316" style="stroke:#181818;stroke-width:1.0;" width="10" x="578.5" y="495.9043"/><rect fill="#FFFFFF" height="87.9316" style="stroke:#181818;stroke-width:1.0;" width="10" x="578.5" y="671.7676"/><rect fill="#FFFFFF" height="96.9316" style="stroke:#181818;stroke-width:1.0;" width="10" x="578.5" y="847.6309"/><rect fill="#FFFFFF" height="88.6211" style="stroke:#181818;stroke-width:1.0;" width="10" x="744.5" y="290.041"/><rect fill="#FFFFFF" height="29.3105" style="stroke:#181818;stroke-width:1.0;" width="10" x="899.5" y="525.2148"/><rect fill="#FFFFFF" height="29.3105" style="stroke:#181818;stroke-width:1.0;" width="10" x="899.5" y="701.0781"/><rect fill="#FFFFFF" height="29.3105" style="stroke:#181818;stroke-width:1.0;" width="10" x="1010" y="876.9414"/><rect fill="#FFFFFF" height="9" style="stroke:#181818;stroke-width:1.0;" width="10" x="1196.5" y="935.5625"/><rect fill="#FFFFFF" height="30" style="stroke:#181818;stroke-width:1.0;" width="10" x="1329" y="319.3516"/><line style="stroke:#181818;stroke-width:0.5;stroke-dasharray:5.0,5.0;" x1="35" x2="35" y1="81.4883" y2="953.5625"/><line style="stroke:#181818;stroke-width:0.5;stroke-dasharray:5.0,5.0;" x1="233" x2="233" y1="81.4883" y2="953.5625"/><line style="stroke:#181818;stroke-width:0.5;stroke-dasharray:5.0,5.0;" x1="583" x2="583" y1="81.4883" y2="953.5625"/><line style="stroke:#181818;stroke-width:0.5;stroke-dasharray:5.0,5.0;" x1="749" x2="749" y1="81.4883" y2="953.5625"/><line style="stroke:#181818;stroke-width:0.5;stroke-dasharray:5.0,5.0;" x1="904" x2="904" y1="81.4883" y2="953.5625"/><line style="stroke:#181818;stroke-width:0.5;stroke-dasharray:5.0,5.0;" x1="1015" x2="1015" y1="81.4883" y2="953.5625"/><line style="stroke:#181818;stroke-width:0.5;stroke-dasharray:5.0,5.0;" x1="1092" x2="1092" y1="81.4883" y2="953.5625"/><line style="stroke:#181818;stroke-width:0.5;stroke-dasharray:5.0,5.0;" x1="1201" x2="1201" y1="81.4883" y2="953.5625"/><line style="stroke:#181818;stroke-width:0.5;stroke-dasharray:5.0,5.0;" x1="1334" x2="1334" y1="81.4883" y2="953.5625"/><text fill="#000000" font-family="sans-serif" font-size="14" lengthAdjust="spacing" textLength="55" x="5" y="78.5352">Teacher</text><ellipse cx="35.5" cy="13.5" fill="#E2E2F0" rx="8" ry="8" style="stroke:#181818;stroke-width:0.5;"/><path d="M35.5,21.5 L35.5,48.5 M22.5,29.5 L48.5,29.5 M35.5,48.5 L22.5,63.5 M35.5,48.5 L48.5,63.5 " fill="none" style="stroke:#181818;stroke-width:0.5;"/><text fill="#000000" font-family="sans-serif" font-size="14" lengthAdjust="spacing" textLength="55" x="5" y="966.0977">Teacher</text><ellipse cx="35.5" cy="977.5508" fill="#E2E2F0" rx="8" ry="8" style="stroke:#181818;stroke-width:0.5;"/><path d="M35.5,985.5508 L35.5,1012.5508 M22.5,993.5508 L48.5,993.5508 M35.5,1012.5508 L22.5,1027.5508 M35.5,1012.5508 L48.5,1027.5508 " fill="none" style="stroke:#181818;stroke-width:0.5;"/><rect fill="#E2E2F0" height="30.4883" rx="2.5" ry="2.5" style="stroke:#181818;stroke-width:0.5;" width="115" x="176" y="50"/><text fill="#000000" font-family="sans-serif" font-size="14" lengthAdjust="spacing" textLength="101" x="183" y="70.5352">UpdateExamUI</text><rect fill="#E2E2F0" height="30.4883" rx="2.5" ry="2.5" style="stroke:#181818;stroke-width:0.5;" width="115" x="176" y="952.5625"/><text fill="#000000" font-family="sans-serif" font-size="14" lengthAdjust="spacing" textLength="101" x="183" y="973.0977">UpdateExamUI</text><rect fill="#E2E2F0" height="30.4883" rx="2.5" ry="2.5" style="stroke:#181818;stroke-width:0.5;" width="171" x="498" y="50"/><text fill="#000000" font-family="sans-serif" font-size="14" lengthAdjust="spacing" textLength="157" x="505" y="70.5352">UpdateExamController</text><rect fill="#E2E2F0" height="30.4883" rx="2.5" ry="2.5" style="stroke:#181818;stroke-width:0.5;" width="171" x="498" y="952.5625"/><text fill="#000000" font-family="sans-serif" font-size="14" lengthAdjust="spacing" textLength="157" x="505" y="973.0977">UpdateExamController</text><rect fill="#E2E2F0" height="30.4883" rx="2.5" ry="2.5" style="stroke:#181818;stroke-width:0.5;" width="141" x="679" y="50"/><text fill="#000000" font-family="sans-serif" font-size="14" lengthAdjust="spacing" textLength="127" x="686" y="70.5352">ListCoursesService</text><rect fill="#E2E2F0" height="30.4883" rx="2.5" ry="2.5" style="stroke:#181818;stroke-width:0.5;" width="141" x="679" y="952.5625"/><text fill="#000000" font-family="sans-serif" font-size="14" lengthAdjust="spacing" textLength="127" x="686" y="973.0977">ListCoursesService</text><rect fill="#E2E2F0" height="30.4883" rx="2.5" ry="2.5" style="stroke:#181818;stroke-width:0.5;" width="149" x="830" y="50"/><text fill="#000000" font-family="sans-serif" font-size="14" lengthAdjust="spacing" textLength="135" x="837" y="70.5352">UpdateExamService</text><rect fill="#E2E2F0" height="30.4883" rx="2.5" ry="2.5" style="stroke:#181818;stroke-width:0.5;" width="149" x="830" y="952.5625"/><text fill="#000000" font-family="sans-serif" font-size="14" lengthAdjust="spacing" textLength="135" x="837" y="973.0977">UpdateExamService</text><rect fill="#E2E2F0" height="30.4883" rx="2.5" ry="2.5" style="stroke:#181818;stroke-width:0.5;" width="52" x="989" y="50"/><text fill="#000000" font-family="sans-serif" font-size="14" lengthAdjust="spacing" textLength="38" x="996" y="70.5352">Exam</text><rect fill="#E2E2F0" height="30.4883" rx="2.5" ry="2.5" style="stroke:#181818;stroke-width:0.5;" width="52" x="989" y="952.5625"/><text fill="#000000" font-family="sans-serif" font-size="14" lengthAdjust="spacing" textLength="38" x="996" y="973.0977">Exam</text><rect fill="#E2E2F0" height="30.4883" rx="2.5" ry="2.5" style="stroke:#181818;stroke-width:0.5;" width="82" x="1051" y="50"/><text fill="#000000" font-family="sans-serif" font-size="14" lengthAdjust="spacing" textLength="68" x="1058" y="70.5352">ExamTitle</text><rect fill="#E2E2F0" height="30.4883" rx="2.5" ry="2.5" style="stroke:#181818;stroke-width:0.5;" width="82" x="1051" y="952.5625"/><text fill="#000000" font-family="sans-serif" font-size="14" lengthAdjust="spacing" textLength="68" x="1058" y="973.0977">ExamTitle</text><text fill="#000000" font-family="sans-serif" font-size="14" lengthAdjust="spacing" textLength="111" x="1143" y="78.5352">ExamRepository</text><path d="M1183.5,29 C1183.5,19 1201.5,19 1201.5,19 C1201.5,19 1219.5,19 1219.5,29 L1219.5,55 C1219.5,65 1201.5,65 1201.5,65 C1201.5,65 1183.5,65 1183.5,55 L1183.5,29 " fill="#E2E2F0" style="stroke:#181818;stroke-width:1.5;"/><path d="M1183.5,29 C1183.5,39 1201.5,39 1201.5,39 C1201.5,39 1219.5,39 1219.5,29 " fill="none" style="stroke:#181818;stroke-width:1.5;"/><text fill="#000000" font-family="sans-serif" font-size="14" lengthAdjust="spacing" textLength="111" x="1143" y="966.0977">ExamRepository</text><path d="M1183.5,979.0508 C1183.5,969.0508 1201.5,969.0508 1201.5,969.0508 C1201.5,969.0508 1219.5,969.0508 1219.5,979.0508 L1219.5,1005.0508 C1219.5,1015.0508 1201.5,1015.0508 1201.5,1015.0508 C1201.5,1015.0508 1183.5,1015.0508 1183.5,1005.0508 L1183.5,979.0508 " fill="#E2E2F0" style="stroke:#181818;stroke-width:1.5;"/><path d="M1183.5,979.0508 C1183.5,989.0508 1201.5,989.0508 1201.5,989.0508 C1201.5,989.0508 1219.5,989.0508 1219.5,979.0508 " fill="none" style="stroke:#181818;stroke-width:1.5;"/><text fill="#000000" font-family="sans-serif" font-size="14" lengthAdjust="spacing" textLength="122" x="1270" y="78.5352">CourseRepository</text><path d="M1316,29 C1316,19 1334,19 1334,19 C1334,19 1352,19 1352,29 L1352,55 C1352,65 1334,65 1334,65 C1334,65 1316,65 1316,55 L1316,29 " fill="#E2E2F0" style="stroke:#181818;stroke-width:1.5;"/><path d="M1316,29 C1316,39 1334,39 1334,39 C1334,39 1352,39 1352,29 " fill="none" style="stroke:#181818;stroke-width:1.5;"/><text fill="#000000" font-family="sans-serif" font-size="14" lengthAdjust="spacing" textLength="122" x="1270" y="966.0977">CourseRepository</text><path d="M1316,979.0508 C1316,969.0508 1334,969.0508 1334,969.0508 C1334,969.0508 1352,969.0508 1352,979.0508 L1352,1005.0508 C1352,1015.0508 1334,1015.0508 1334,1015.0508 C1334,1015.0508 1316,1015.0508 1316,1005.0508 L1316,979.0508 " fill="#E2E2F0" style="stroke:#181818;stroke-width:1.5;"/><path d="M1316,979.0508 C1316,989.0508 1334,989.0508 1334,989.0508 C1334,989.0508 1352,989.0508 1352,979.0508 " fill="none" style="stroke:#181818;stroke-width:1.5;"/><rect fill="#FFFFFF" height="169.2422" style="stroke:#181818;stroke-width:1.0;" width="10" x="228.5" y="91.4883"/><rect fill="#FFFFFF" height="88.6211" style="stroke:#181818;stroke-width:1.0;" width="10" x="233.5" y="112.7988"/><rect fill="#FFFFFF" height="29.3105" style="stroke:#181818;stroke-width:1.0;" width="10" x="228.5" y="407.9727"/><rect fill="#FFFFFF" height="146.5527" style="stroke:#181818;stroke-width:1.0;" width="10" x="228.5" y="466.5938"/><rect fill="#FFFFFF" height="146.5527" style="stroke:#181818;stroke-width:1.0;" width="10" x="228.5" y="642.457"/><rect fill="#FFFFFF" height="126.2422" style="stroke:#181818;stroke-width:1.0;" width="10" x="228.5" y="818.3203"/><rect fill="#FFFFFF" height="30" style="stroke:#181818;stroke-width:1.0;" width="10" x="578.5" y="142.1094"/><rect fill="#FFFFFF" height="177.2422" style="stroke:#181818;stroke-width:1.0;" width="10" x="578.5" y="230.7305"/><rect fill="#FFFFFF" height="87.9316" style="stroke:#181818;stroke-width:1.0;" width="10" x="578.5" y="495.9043"/><rect fill="#FFFFFF" height="87.9316" style="stroke:#181818;stroke-width:1.0;" width="10" x="578.5" y="671.7676"/><rect fill="#FFFFFF" height="96.9316" style="stroke:#181818;stroke-width:1.0;" width="10" x="578.5" y="847.6309"/><rect fill="#FFFFFF" height="88.6211" style="stroke:#181818;stroke-width:1.0;" width="10" x="744.5" y="290.041"/><rect fill="#FFFFFF" height="29.3105" style="stroke:#181818;stroke-width:1.0;" width="10" x="899.5" y="525.2148"/><rect fill="#FFFFFF" height="29.3105" style="stroke:#181818;stroke-width:1.0;" width="10" x="899.5" y="701.0781"/><rect fill="#FFFFFF" height="29.3105" style="stroke:#181818;stroke-width:1.0;" width="10" x="1010" y="876.9414"/><rect fill="#FFFFFF" height="9" style="stroke:#181818;stroke-width:1.0;" width="10" x="1196.5" y="935.5625"/><rect fill="#FFFFFF" height="30" style="stroke:#181818;stroke-width:1.0;" width="10" x="1329" y="319.3516"/><polygon fill="#181818" points="221.5,108.7988,231.5,112.7988,221.5,116.7988,225.5,112.7988" style="stroke:#181818;stroke-width:1.0;"/><line style="stroke:#181818;stroke-width:1.0;" x1="35.5" x2="227.5" y1="112.7988" y2="112.7988"/><text fill="#000000" font-family="sans-serif" font-size="13" lengthAdjust="spacing" textLength="81" x="42.5" y="108.0566">update exam</text><polygon fill="#181818" points="566.5,138.1094,576.5,142.1094,566.5,146.1094,570.5,142.1094" style="stroke:#181818;stroke-width:1.0;"/><line style="stroke:#181818;stroke-width:1.0;" x1="243.5" x2="572.5" y1="142.1094" y2="142.1094"/><text fill="#000000" font-family="sans-serif" font-size="13" lengthAdjust="spacing" textLength="38" x="250.5" y="137.3672">create</text><polygon fill="#181818" points="46.5,197.4199,36.5,201.4199,46.5,205.4199,42.5,201.4199" style="stroke:#181818;stroke-width:1.0;"/><line style="stroke:#181818;stroke-width:1.0;stroke-dasharray:2.0,2.0;" x1="40.5" x2="227.5" y1="201.4199" y2="201.4199"/><text fill="#000000" font-family="sans-serif" font-size="13" lengthAdjust="spacing" textLength="82" x="52.5" y="196.6777">Asks for title</text><polygon fill="#181818" points="566.5,226.7305,576.5,230.7305,566.5,234.7305,570.5,230.7305" style="stroke:#181818;stroke-width:1.0;"/><line style="stroke:#181818;stroke-width:1.0;" x1="238.5" x2="572.5" y1="230.7305" y2="230.7305"/><text fill="#000000" font-family="sans-serif" font-size="13" lengthAdjust="spacing" textLength="112" x="245.5" y="225.9883">getOpenCourses()</text><polygon fill="#181818" points="732.5,286.041,742.5,290.041,732.5,294.041,736.5,290.041" style="stroke:#181818;stroke-width:1.0;"/><line style="stroke:#181818;stroke-width:1.0;" x1="588.5" x2="738.5" y1="290.041" y2="290.041"/><text fill="#000000" font-family="sans-serif" font-size="13" lengthAdjust="spacing" textLength="112" x="595.5" y="285.2988">getOpenCourses()</text><polygon fill="#181818" points="1317,315.3516,1327,319.3516,1317,323.3516,1321,319.3516" style="stroke:#181818;stroke-width:1.0;"/><line style="stroke:#181818;stroke-width:1.0;" x1="754.5" x2="1323" y1="319.3516" y2="319.3516"/><text fill="#000000" font-family="sans-serif" font-size="13" lengthAdjust="spacing" textLength="45" x="761.5" y="314.6094">getAll()</text><polygon fill="#181818" points="599.5,374.6621,589.5,378.6621,599.5,382.6621,595.5,378.6621" style="stroke:#181818;stroke-width:1.0;"/><line style="stroke:#181818;stroke-width:1.0;stroke-dasharray:2.0,2.0;" x1="593.5" x2="748.5" y1="378.6621" y2="378.6621"/><text fill="#000000" font-family="sans-serif" font-size="13" lengthAdjust="spacing" textLength="119" x="605.5" y="373.9199">listOfOpenCourses</text><polygon fill="#181818" points="249.5,403.9727,239.5,407.9727,249.5,411.9727,245.5,407.9727" style="stroke:#181818;stroke-width:1.0;"/><line style="stroke:#181818;stroke-width:1.0;stroke-dasharray:2.0,2.0;" x1="243.5" x2="582.5" y1="407.9727" y2="407.9727"/><text fill="#000000" font-family="sans-serif" font-size="13" lengthAdjust="spacing" textLength="119" x="255.5" y="403.2305">listOfOpenCourses</text><polygon fill="#181818" points="46.5,433.2832,36.5,437.2832,46.5,441.2832,42.5,437.2832" style="stroke:#181818;stroke-width:1.0;"/><line style="stroke:#181818;stroke-width:1.0;stroke-dasharray:2.0,2.0;" x1="40.5" x2="232.5" y1="437.2832" y2="437.2832"/><text fill="#000000" font-family="sans-serif" font-size="13" lengthAdjust="spacing" textLength="169" x="52.5" y="432.541">Shows list of open courses</text><polygon fill="#181818" points="216.5,462.5938,226.5,466.5938,216.5,470.5938,220.5,466.5938" style="stroke:#181818;stroke-width:1.0;"/><line style="stroke:#181818;stroke-width:1.0;" x1="35.5" x2="222.5" y1="466.5938" y2="466.5938"/><text fill="#000000" font-family="sans-serif" font-size="13" lengthAdjust="spacing" textLength="93" x="42.5" y="461.8516">Choose course</text><polygon fill="#181818" points="566.5,491.9043,576.5,495.9043,566.5,499.9043,570.5,495.9043" style="stroke:#181818;stroke-width:1.0;"/><line style="stroke:#181818;stroke-width:1.0;" x1="238.5" x2="572.5" y1="495.9043" y2="495.9043"/><text fill="#000000" font-family="sans-serif" font-size="13" lengthAdjust="spacing" textLength="169" x="245.5" y="491.1621">getExamsByCourse(course)</text><polygon fill="#181818" points="887.5,521.2148,897.5,525.2148,887.5,529.2148,891.5,525.2148" style="stroke:#181818;stroke-width:1.0;"/><line style="stroke:#181818;stroke-width:1.0;" x1="588.5" x2="893.5" y1="525.2148" y2="525.2148"/><text fill="#000000" font-family="sans-serif" font-size="13" lengthAdjust="spacing" textLength="162" x="595.5" y="520.4727">getExamByCourse(course)</text><polygon fill="#181818" points="599.5,550.5254,589.5,554.5254,599.5,558.5254,595.5,554.5254" style="stroke:#181818;stroke-width:1.0;"/><line style="stroke:#181818;stroke-width:1.0;stroke-dasharray:2.0,2.0;" x1="593.5" x2="903.5" y1="554.5254" y2="554.5254"/><text fill="#000000" font-family="sans-serif" font-size="13" lengthAdjust="spacing" textLength="134" x="605.5" y="549.7832">listOfExamsByCourse</text><polygon fill="#181818" points="249.5,579.8359,239.5,583.8359,249.5,587.8359,245.5,583.8359" style="stroke:#181818;stroke-width:1.0;"/><line style="stroke:#181818;stroke-width:1.0;stroke-dasharray:2.0,2.0;" x1="243.5" x2="582.5" y1="583.8359" y2="583.8359"/><text fill="#000000" font-family="sans-serif" font-size="13" lengthAdjust="spacing" textLength="134" x="255.5" y="579.0938">listOfExamsByCourse</text><polygon fill="#181818" points="46.5,609.1465,36.5,613.1465,46.5,617.1465,42.5,613.1465" style="stroke:#181818;stroke-width:1.0;"/><line style="stroke:#181818;stroke-width:1.0;stroke-dasharray:2.0,2.0;" x1="40.5" x2="232.5" y1="613.1465" y2="613.1465"/><text fill="#000000" font-family="sans-serif" font-size="13" lengthAdjust="spacing" textLength="134" x="52.5" y="608.4043">listOfExamsByCourse</text><polygon fill="#181818" points="216.5,638.457,226.5,642.457,216.5,646.457,220.5,642.457" style="stroke:#181818;stroke-width:1.0;"/><line style="stroke:#181818;stroke-width:1.0;" x1="35.5" x2="222.5" y1="642.457" y2="642.457"/><text fill="#000000" font-family="sans-serif" font-size="13" lengthAdjust="spacing" textLength="85" x="42.5" y="637.7148">Choose exam</text><polygon fill="#181818" points="566.5,667.7676,576.5,671.7676,566.5,675.7676,570.5,671.7676" style="stroke:#181818;stroke-width:1.0;"/><line style="stroke:#181818;stroke-width:1.0;" x1="238.5" x2="572.5" y1="671.7676" y2="671.7676"/><text fill="#000000" font-family="sans-serif" font-size="13" lengthAdjust="spacing" textLength="138" x="245.5" y="667.0254">getExamByTitle(exam)</text><polygon fill="#181818" points="887.5,697.0781,897.5,701.0781,887.5,705.0781,891.5,701.0781" style="stroke:#181818;stroke-width:1.0;"/><line style="stroke:#181818;stroke-width:1.0;" x1="588.5" x2="893.5" y1="701.0781" y2="701.0781"/><text fill="#000000" font-family="sans-serif" font-size="13" lengthAdjust="spacing" textLength="138" x="595.5" y="696.3359">getExamByTitle(exam)</text><polygon fill="#181818" points="599.5,726.3887,589.5,730.3887,599.5,734.3887,595.5,730.3887" style="stroke:#181818;stroke-width:1.0;"/><line style="stroke:#181818;stroke-width:1.0;stroke-dasharray:2.0,2.0;" x1="593.5" x2="903.5" y1="730.3887" y2="730.3887"/><text fill="#000000" font-family="sans-serif" font-size="13" lengthAdjust="spacing" textLength="34" x="605.5" y="725.6465">exam</text><polygon fill="#181818" points="249.5,755.6992,239.5,759.6992,249.5,763.6992,245.5,759.6992" style="stroke:#181818;stroke-width:1.0;"/><line style="stroke:#181818;stroke-width:1.0;stroke-dasharray:2.0,2.0;" x1="243.5" x2="582.5" y1="759.6992" y2="759.6992"/><text fill="#000000" font-family="sans-serif" font-size="13" lengthAdjust="spacing" textLength="34" x="255.5" y="754.957">exam</text><polygon fill="#181818" points="46.5,785.0098,36.5,789.0098,46.5,793.0098,42.5,789.0098" style="stroke:#181818;stroke-width:1.0;"/><line style="stroke:#181818;stroke-width:1.0;stroke-dasharray:2.0,2.0;" x1="40.5" x2="232.5" y1="789.0098" y2="789.0098"/><text fill="#000000" font-family="sans-serif" font-size="13" lengthAdjust="spacing" textLength="158" x="52.5" y="784.2676">Asks exam dates and file</text><polygon fill="#181818" points="216.5,814.3203,226.5,818.3203,216.5,822.3203,220.5,818.3203" style="stroke:#181818;stroke-width:1.0;"/><line style="stroke:#181818;stroke-width:1.0;" x1="35.5" x2="222.5" y1="818.3203" y2="818.3203"/><text fill="#000000" font-family="sans-serif" font-size="13" lengthAdjust="spacing" textLength="132" x="42.5" y="813.5781">Inserts dates and file</text><polygon fill="#181818" points="566.5,843.6309,576.5,847.6309,566.5,851.6309,570.5,847.6309" style="stroke:#181818;stroke-width:1.0;"/><line style="stroke:#181818;stroke-width:1.0;" x1="238.5" x2="572.5" y1="847.6309" y2="847.6309"/><text fill="#000000" font-family="sans-serif" font-size="13" lengthAdjust="spacing" textLength="321" x="245.5" y="842.8887">updateExam(exam,openDate, closeDate, examFile);</text><polygon fill="#181818" points="998,872.9414,1008,876.9414,998,880.9414,1002,876.9414" style="stroke:#181818;stroke-width:1.0;"/><line style="stroke:#181818;stroke-width:1.0;" x1="588.5" x2="1004" y1="876.9414" y2="876.9414"/><text fill="#000000" font-family="sans-serif" font-size="13" lengthAdjust="spacing" textLength="321" x="595.5" y="872.1992">updateExam(exam,openDate, closeDate, examFile);</text><polygon fill="#181818" points="599.5,902.252,589.5,906.252,599.5,910.252,595.5,906.252" style="stroke:#181818;stroke-width:1.0;"/><line style="stroke:#181818;stroke-width:1.0;stroke-dasharray:2.0,2.0;" x1="593.5" x2="1014" y1="906.252" y2="906.252"/><text fill="#000000" font-family="sans-serif" font-size="13" lengthAdjust="spacing" textLength="85" x="605.5" y="901.5098">updatedExam</text><polygon fill="#181818" points="1184.5,931.5625,1194.5,935.5625,1184.5,939.5625,1188.5,935.5625" style="stroke:#181818;stroke-width:1.0;"/><line style="stroke:#181818;stroke-width:1.0;" x1="588.5" x2="1190.5" y1="935.5625" y2="935.5625"/><text fill="#000000" font-family="sans-serif" font-size="13" lengthAdjust="spacing" textLength="121" x="595.5" y="930.8203">save(updatedExam)</text><!--SRC=[bL99ReCm5Dtx55zTWHGkG2MaX589gL8aXWEuO1gh52FRfCtj-pqGCJIBhaB-6_p-i-ca1MqqlrBDG0o4u1yXeMAqkJ09L455HYerR_X81mrFzTWYDVkXNtN-PF0wVqH8nQ2bw7icBJ5BryGthdGg9gcOAfcyyePPMld8RadADYo3Es0_hxZklQeYQ4RVgM8EAjWe5CU5Rmul5hYBjc6a1R4LkRvmzGgY17zZc6nEOEXAwjnCipI6HZASafRTDTY2WH6lOZYgJmKTzgrDHWIY15KVJ9z7DlXkWd0fnoEpD4hAFQcCahGmusFVhpKOkeoiSu-Ldxk5ZXYtAC45zj3oJ4mM9HYul8Xl1OOBeWE1R6WylR8sa5w4mFhSTB6HgLkTRiuyS71eTydA6T_3gzmhYqtmDURZ_WNvd3wclwvboDFDFfZ0GFk0AyodioPpdDdHrcNlrqp0F0u5T6YXutZJlgnyK4ngjKNdHDFzxTiJ3wRl5vmSeEanlViqo2kgmcSNTdwA_v2vDRokpVmwILR4YbvPi9Y7XFm2]--></g></svg>