<?xml version="1.0" encoding="us-ascii" standalone="no"?><svg xmlns="http://www.w3.org/2000/svg" xmlns:xlink="http://www.w3.org/1999/xlink" contentStyleType="text/css" height="735px" preserveAspectRatio="none" style="width:338px;height:735px;background:#FFFFFF;" version="1.1" viewBox="0 0 338 735" width="338px" zoomAndPan="magnify"><defs/><g><!--class CreateSharedBoardUI--><g id="elem_CreateSharedBoardUI"><rect codeLine="2" fill="#F1F1F1" height="66.6211" id="CreateSharedBoardUI" rx="2.5" ry="2.5" style="stroke:#181818;stroke-width:0.5;" width="171" x="32" y="7"/><ellipse cx="47" cy="23" fill="#ADD1B2" rx="11" ry="11" style="stroke:#181818;stroke-width:1.0;"/><path d="M49.7656,18.875 Q49.9219,18.6563 50.1094,18.5469 Q50.2969,18.4375 50.5156,18.4375 Q50.8906,18.4375 51.125,18.7031 Q51.3594,18.9531 51.3594,19.5625 L51.3594,21.0156 Q51.3594,21.625 51.125,21.8906 Q50.8906,22.1563 50.5156,22.1563 Q50.1719,22.1563 49.9688,21.9531 Q49.7656,21.7656 49.6563,21.25 Q49.6094,20.8906 49.4219,20.7031 Q49.0938,20.3281 48.4844,20.1094 Q47.875,19.8906 47.25,19.8906 Q46.4844,19.8906 45.8438,20.2188 Q45.2188,20.5469 44.7188,21.2969 Q44.2344,22.0469 44.2344,23.0781 L44.2344,24.1719 Q44.2344,25.4063 45.125,26.2344 Q46.0156,27.0469 47.6094,27.0469 Q48.5469,27.0469 49.2031,26.7969 Q49.5938,26.6406 50.0156,26.2031 Q50.2813,25.9375 50.4219,25.8594 Q50.5781,25.7813 50.7813,25.7813 Q51.1094,25.7813 51.3594,26.0469 Q51.625,26.2969 51.625,26.6406 Q51.625,26.9844 51.2813,27.3906 Q50.7813,27.9688 49.9844,28.2969 Q48.9063,28.75 47.6094,28.75 Q46.0938,28.75 44.8906,28.125 Q43.9063,27.625 43.2188,26.5625 Q42.5313,25.4844 42.5313,24.2031 L42.5313,23.0469 Q42.5313,21.7188 43.1406,20.5781 Q43.7656,19.4219 44.8594,18.8125 Q45.9531,18.1875 47.1875,18.1875 Q47.9219,18.1875 48.5625,18.3594 Q49.2188,18.5156 49.7656,18.875 Z " fill="#000000"/><text fill="#000000" font-family="sans-serif" font-size="14" lengthAdjust="spacing" textLength="139" x="61" y="28.7969">CreateSharedBoardUI</text><line style="stroke:#181818;stroke-width:0.5;" x1="33" x2="202" y1="39" y2="39"/><line style="stroke:#181818;stroke-width:0.5;" x1="33" x2="202" y1="47" y2="47"/><text fill="#000000" font-family="sans-serif" font-size="14" lengthAdjust="spacing" textLength="60" x="38" y="66.1074">doShow()</text></g><!--class CreateSharedBoardController--><g id="elem_CreateSharedBoardController"><rect codeLine="5" fill="#F1F1F1" height="66.6211" id="CreateSharedBoardController" rx="2.5" ry="2.5" style="stroke:#181818;stroke-width:0.5;" width="221" x="7" y="153"/><ellipse cx="22" cy="169" fill="#ADD1B2" rx="11" ry="11" style="stroke:#181818;stroke-width:1.0;"/><path d="M24.7656,164.875 Q24.9219,164.6563 25.1094,164.5469 Q25.2969,164.4375 25.5156,164.4375 Q25.8906,164.4375 26.125,164.7031 Q26.3594,164.9531 26.3594,165.5625 L26.3594,167.0156 Q26.3594,167.625 26.125,167.8906 Q25.8906,168.1563 25.5156,168.1563 Q25.1719,168.1563 24.9688,167.9531 Q24.7656,167.7656 24.6563,167.25 Q24.6094,166.8906 24.4219,166.7031 Q24.0938,166.3281 23.4844,166.1094 Q22.875,165.8906 22.25,165.8906 Q21.4844,165.8906 20.8438,166.2188 Q20.2188,166.5469 19.7188,167.2969 Q19.2344,168.0469 19.2344,169.0781 L19.2344,170.1719 Q19.2344,171.4063 20.125,172.2344 Q21.0156,173.0469 22.6094,173.0469 Q23.5469,173.0469 24.2031,172.7969 Q24.5938,172.6406 25.0156,172.2031 Q25.2813,171.9375 25.4219,171.8594 Q25.5781,171.7813 25.7813,171.7813 Q26.1094,171.7813 26.3594,172.0469 Q26.625,172.2969 26.625,172.6406 Q26.625,172.9844 26.2813,173.3906 Q25.7813,173.9688 24.9844,174.2969 Q23.9063,174.75 22.6094,174.75 Q21.0938,174.75 19.8906,174.125 Q18.9063,173.625 18.2188,172.5625 Q17.5313,171.4844 17.5313,170.2031 L17.5313,169.0469 Q17.5313,167.7188 18.1406,166.5781 Q18.7656,165.4219 19.8594,164.8125 Q20.9531,164.1875 22.1875,164.1875 Q22.9219,164.1875 23.5625,164.3594 Q24.2188,164.5156 24.7656,164.875 Z " fill="#000000"/><text fill="#000000" font-family="sans-serif" font-size="14" lengthAdjust="spacing" textLength="189" x="36" y="174.7969">CreateSharedBoardController</text><line style="stroke:#181818;stroke-width:0.5;" x1="8" x2="227" y1="185" y2="185"/><line style="stroke:#181818;stroke-width:0.5;" x1="8" x2="227" y1="193" y2="193"/><text fill="#000000" font-family="sans-serif" font-size="14" lengthAdjust="spacing" textLength="118" x="13" y="212.1074">addSharedBoard()</text></g><!--class CreateSharedBoardBuilder--><g id="elem_CreateSharedBoardBuilder"><rect codeLine="8" fill="#F1F1F1" height="48" id="CreateSharedBoardBuilder" rx="2.5" ry="2.5" style="stroke:#181818;stroke-width:0.5;" width="203" x="16" y="299"/><ellipse cx="31" cy="315" fill="#ADD1B2" rx="11" ry="11" style="stroke:#181818;stroke-width:1.0;"/><path d="M33.7656,310.875 Q33.9219,310.6563 34.1094,310.5469 Q34.2969,310.4375 34.5156,310.4375 Q34.8906,310.4375 35.125,310.7031 Q35.3594,310.9531 35.3594,311.5625 L35.3594,313.0156 Q35.3594,313.625 35.125,313.8906 Q34.8906,314.1563 34.5156,314.1563 Q34.1719,314.1563 33.9688,313.9531 Q33.7656,313.7656 33.6563,313.25 Q33.6094,312.8906 33.4219,312.7031 Q33.0938,312.3281 32.4844,312.1094 Q31.875,311.8906 31.25,311.8906 Q30.4844,311.8906 29.8438,312.2188 Q29.2188,312.5469 28.7188,313.2969 Q28.2344,314.0469 28.2344,315.0781 L28.2344,316.1719 Q28.2344,317.4063 29.125,318.2344 Q30.0156,319.0469 31.6094,319.0469 Q32.5469,319.0469 33.2031,318.7969 Q33.5938,318.6406 34.0156,318.2031 Q34.2813,317.9375 34.4219,317.8594 Q34.5781,317.7813 34.7813,317.7813 Q35.1094,317.7813 35.3594,318.0469 Q35.625,318.2969 35.625,318.6406 Q35.625,318.9844 35.2813,319.3906 Q34.7813,319.9688 33.9844,320.2969 Q32.9063,320.75 31.6094,320.75 Q30.0938,320.75 28.8906,320.125 Q27.9063,319.625 27.2188,318.5625 Q26.5313,317.4844 26.5313,316.2031 L26.5313,315.0469 Q26.5313,313.7188 27.1406,312.5781 Q27.7656,311.4219 28.8594,310.8125 Q29.9531,310.1875 31.1875,310.1875 Q31.9219,310.1875 32.5625,310.3594 Q33.2188,310.5156 33.7656,310.875 Z " fill="#000000"/><text fill="#000000" font-family="sans-serif" font-size="14" lengthAdjust="spacing" textLength="171" x="45" y="320.7969">CreateSharedBoardBuilder</text><line style="stroke:#181818;stroke-width:0.5;" x1="17" x2="218" y1="331" y2="331"/><line style="stroke:#181818;stroke-width:0.5;" x1="17" x2="218" y1="339" y2="339"/></g><!--class SharedBoardRepository--><g id="elem_SharedBoardRepository"><rect codeLine="11" fill="#F1F1F1" height="48" id="SharedBoardRepository" rx="2.5" ry="2.5" style="stroke:#181818;stroke-width:0.5;" width="184" x="25.5" y="553"/><ellipse cx="40.5" cy="569" fill="#ADD1B2" rx="11" ry="11" style="stroke:#181818;stroke-width:1.0;"/><path d="M43.2656,564.875 Q43.4219,564.6563 43.6094,564.5469 Q43.7969,564.4375 44.0156,564.4375 Q44.3906,564.4375 44.625,564.7031 Q44.8594,564.9531 44.8594,565.5625 L44.8594,567.0156 Q44.8594,567.625 44.625,567.8906 Q44.3906,568.1563 44.0156,568.1563 Q43.6719,568.1563 43.4688,567.9531 Q43.2656,567.7656 43.1563,567.25 Q43.1094,566.8906 42.9219,566.7031 Q42.5938,566.3281 41.9844,566.1094 Q41.375,565.8906 40.75,565.8906 Q39.9844,565.8906 39.3438,566.2188 Q38.7188,566.5469 38.2188,567.2969 Q37.7344,568.0469 37.7344,569.0781 L37.7344,570.1719 Q37.7344,571.4063 38.625,572.2344 Q39.5156,573.0469 41.1094,573.0469 Q42.0469,573.0469 42.7031,572.7969 Q43.0938,572.6406 43.5156,572.2031 Q43.7813,571.9375 43.9219,571.8594 Q44.0781,571.7813 44.2813,571.7813 Q44.6094,571.7813 44.8594,572.0469 Q45.125,572.2969 45.125,572.6406 Q45.125,572.9844 44.7813,573.3906 Q44.2813,573.9688 43.4844,574.2969 Q42.4063,574.75 41.1094,574.75 Q39.5938,574.75 38.3906,574.125 Q37.4063,573.625 36.7188,572.5625 Q36.0313,571.4844 36.0313,570.2031 L36.0313,569.0469 Q36.0313,567.7188 36.6406,566.5781 Q37.2656,565.4219 38.3594,564.8125 Q39.4531,564.1875 40.6875,564.1875 Q41.4219,564.1875 42.0625,564.3594 Q42.7188,564.5156 43.2656,564.875 Z " fill="#000000"/><text fill="#000000" font-family="sans-serif" font-size="14" lengthAdjust="spacing" textLength="152" x="54.5" y="574.7969">SharedBoardRepository</text><line style="stroke:#181818;stroke-width:0.5;" x1="26.5" x2="208.5" y1="585" y2="585"/><line style="stroke:#181818;stroke-width:0.5;" x1="26.5" x2="208.5" y1="593" y2="593"/></g><!--class SharedBoard--><g id="elem_SharedBoard"><rect codeLine="14" fill="#F1F1F1" height="48" id="SharedBoard" rx="2.5" ry="2.5" style="stroke:#181818;stroke-width:0.5;" width="116" x="59.5" y="426"/><ellipse cx="74.5" cy="442" fill="#ADD1B2" rx="11" ry="11" style="stroke:#181818;stroke-width:1.0;"/><path d="M77.2656,437.875 Q77.4219,437.6563 77.6094,437.5469 Q77.7969,437.4375 78.0156,437.4375 Q78.3906,437.4375 78.625,437.7031 Q78.8594,437.9531 78.8594,438.5625 L78.8594,440.0156 Q78.8594,440.625 78.625,440.8906 Q78.3906,441.1563 78.0156,441.1563 Q77.6719,441.1563 77.4688,440.9531 Q77.2656,440.7656 77.1563,440.25 Q77.1094,439.8906 76.9219,439.7031 Q76.5938,439.3281 75.9844,439.1094 Q75.375,438.8906 74.75,438.8906 Q73.9844,438.8906 73.3438,439.2188 Q72.7188,439.5469 72.2188,440.2969 Q71.7344,441.0469 71.7344,442.0781 L71.7344,443.1719 Q71.7344,444.4063 72.625,445.2344 Q73.5156,446.0469 75.1094,446.0469 Q76.0469,446.0469 76.7031,445.7969 Q77.0938,445.6406 77.5156,445.2031 Q77.7813,444.9375 77.9219,444.8594 Q78.0781,444.7813 78.2813,444.7813 Q78.6094,444.7813 78.8594,445.0469 Q79.125,445.2969 79.125,445.6406 Q79.125,445.9844 78.7813,446.3906 Q78.2813,446.9688 77.4844,447.2969 Q76.4063,447.75 75.1094,447.75 Q73.5938,447.75 72.3906,447.125 Q71.4063,446.625 70.7188,445.5625 Q70.0313,444.4844 70.0313,443.2031 L70.0313,442.0469 Q70.0313,440.7188 70.6406,439.5781 Q71.2656,438.4219 72.3594,437.8125 Q73.4531,437.1875 74.6875,437.1875 Q75.4219,437.1875 76.0625,437.3594 Q76.7188,437.5156 77.2656,437.875 Z " fill="#000000"/><text fill="#000000" font-family="sans-serif" font-size="14" lengthAdjust="spacing" textLength="84" x="88.5" y="447.7969">SharedBoard</text><line style="stroke:#181818;stroke-width:0.5;" x1="60.5" x2="174.5" y1="458" y2="458"/><line style="stroke:#181818;stroke-width:0.5;" x1="60.5" x2="174.5" y1="466" y2="466"/></g><!--class RepositoryFactory--><g id="elem_RepositoryFactory"><rect codeLine="17" fill="#F1F1F1" height="48" id="RepositoryFactory" rx="2.5" ry="2.5" style="stroke:#181818;stroke-width:0.5;" width="148" x="43.5" y="680"/><ellipse cx="58.5" cy="696" fill="#ADD1B2" rx="11" ry="11" style="stroke:#181818;stroke-width:1.0;"/><path d="M61.2656,691.875 Q61.4219,691.6563 61.6094,691.5469 Q61.7969,691.4375 62.0156,691.4375 Q62.3906,691.4375 62.625,691.7031 Q62.8594,691.9531 62.8594,692.5625 L62.8594,694.0156 Q62.8594,694.625 62.625,694.8906 Q62.3906,695.1563 62.0156,695.1563 Q61.6719,695.1563 61.4688,694.9531 Q61.2656,694.7656 61.1563,694.25 Q61.1094,693.8906 60.9219,693.7031 Q60.5938,693.3281 59.9844,693.1094 Q59.375,692.8906 58.75,692.8906 Q57.9844,692.8906 57.3438,693.2188 Q56.7188,693.5469 56.2188,694.2969 Q55.7344,695.0469 55.7344,696.0781 L55.7344,697.1719 Q55.7344,698.4063 56.625,699.2344 Q57.5156,700.0469 59.1094,700.0469 Q60.0469,700.0469 60.7031,699.7969 Q61.0938,699.6406 61.5156,699.2031 Q61.7813,698.9375 61.9219,698.8594 Q62.0781,698.7813 62.2813,698.7813 Q62.6094,698.7813 62.8594,699.0469 Q63.125,699.2969 63.125,699.6406 Q63.125,699.9844 62.7813,700.3906 Q62.2813,700.9688 61.4844,701.2969 Q60.4063,701.75 59.1094,701.75 Q57.5938,701.75 56.3906,701.125 Q55.4063,700.625 54.7188,699.5625 Q54.0313,698.4844 54.0313,697.2031 L54.0313,696.0469 Q54.0313,694.7188 54.6406,693.5781 Q55.2656,692.4219 56.3594,691.8125 Q57.4531,691.1875 58.6875,691.1875 Q59.4219,691.1875 60.0625,691.3594 Q60.7188,691.5156 61.2656,691.875 Z " fill="#000000"/><text fill="#000000" font-family="sans-serif" font-size="14" lengthAdjust="spacing" textLength="116" x="72.5" y="701.7969">RepositoryFactory</text><line style="stroke:#181818;stroke-width:0.5;" x1="44.5" x2="190.5" y1="712" y2="712"/><line style="stroke:#181818;stroke-width:0.5;" x1="44.5" x2="190.5" y1="720" y2="720"/></g><!--link CreateSharedBoardUI to CreateSharedBoardController--><g id="link_CreateSharedBoardUI_CreateSharedBoardController"><path codeLine="21" d="M117.5,74.18 C117.5,96.09 117.5,125 117.5,147.87 " fill="none" id="CreateSharedBoardUI-to-CreateSharedBoardController" style="stroke:#181818;stroke-width:1.0;"/><polygon fill="#181818" points="117.5,152.95,121.5,143.95,117.5,147.95,113.5,143.95,117.5,152.95" style="stroke:#181818;stroke-width:1.0;"/><text fill="#000000" font-family="sans-serif" font-size="13" lengthAdjust="spacing" textLength="107" x="118.5" y="119.0283">uses the controller</text></g><!--link CreateSharedBoardController to CreateSharedBoardBuilder--><g id="link_CreateSharedBoardController_CreateSharedBoardBuilder"><path codeLine="24" d="M117.5,220.06 C117.5,242.51 117.5,272.08 117.5,293.58 " fill="none" id="CreateSharedBoardController-to-CreateSharedBoardBuilder" style="stroke:#181818;stroke-width:1.0;"/><polygon fill="#181818" points="117.5,298.59,121.5,289.59,117.5,293.59,113.5,289.59,117.5,298.59" style="stroke:#181818;stroke-width:1.0;"/><text fill="#000000" font-family="sans-serif" font-size="13" lengthAdjust="spacing" textLength="74" x="118.5" y="265.0283">uses to build</text></g><!--link CreateSharedBoardBuilder to SharedBoard--><g id="link_CreateSharedBoardBuilder_SharedBoard"><path codeLine="25" d="M117.5,347.22 C117.5,368 117.5,398.54 117.5,420.74 " fill="none" id="CreateSharedBoardBuilder-to-SharedBoard" style="stroke:#181818;stroke-width:1.0;"/><polygon fill="#181818" points="117.5,425.91,121.5,416.91,117.5,420.91,113.5,416.91,117.5,425.91" style="stroke:#181818;stroke-width:1.0;"/><text fill="#000000" font-family="sans-serif" font-size="13" lengthAdjust="spacing" textLength="36" x="118.5" y="392.0283">create</text></g><!--link SharedBoard to SharedBoardRepository--><g id="link_SharedBoard_SharedBoardRepository"><path codeLine="27" d="M117.5,474.22 C117.5,495 117.5,525.54 117.5,547.74 " fill="none" id="SharedBoard-to-SharedBoardRepository" style="stroke:#181818;stroke-width:1.0;"/><polygon fill="#181818" points="117.5,552.91,121.5,543.91,117.5,547.91,113.5,543.91,117.5,552.91" style="stroke:#181818;stroke-width:1.0;"/><text fill="#000000" font-family="sans-serif" font-size="13" lengthAdjust="spacing" textLength="212" x="118.5" y="519.0283">uses the repository to persiste in DB</text></g><!--link SharedBoardRepository to RepositoryFactory--><g id="link_SharedBoardRepository_RepositoryFactory"><path codeLine="29" d="M117.5,601.22 C117.5,622 117.5,652.54 117.5,674.74 " fill="none" id="SharedBoardRepository-to-RepositoryFactory" style="stroke:#181818;stroke-width:1.0;"/><polygon fill="#181818" points="117.5,679.91,121.5,670.91,117.5,674.91,113.5,670.91,117.5,679.91" style="stroke:#181818;stroke-width:1.0;"/><text fill="#000000" font-family="sans-serif" font-size="13" lengthAdjust="spacing" textLength="166" x="118.5" y="646.0283">uses to create the repository</text></g><!--SRC=[VP4n3i8m34NtdC8Z3Br01eOM8R5ISO2GM6gaggwSL1L2t1qAAd5BOFL_yV_vjgq90If64x5k3AChoR0x7m5kwgwKpUiLTP6fRP7_OkNWMxTa08H-mfw2ZyHNYGX0ZXDyC3QzoMNNuAXkQDniitBXQEoAtRzlQHW21eWDWlqCCsQY20t6EI7bp0LUv0BCXSts19Tfedw2qnOnrc1Vf5Aon1MKYXI_v7IAfskF77o82Bw3VRdO9cusxVs-Iih-ph9Q_m00]--></g></svg>