<?xml version="1.0" encoding="us-ascii" standalone="no"?><svg xmlns="http://www.w3.org/2000/svg" xmlns:xlink="http://www.w3.org/1999/xlink" contentStyleType="text/css" height="316px" preserveAspectRatio="none" style="width:349px;height:316px;background:#FFFFFF;" version="1.1" viewBox="0 0 349 316" width="349px" zoomAndPan="magnify"><defs/><g><!--class CreateSharedBoardUI--><g id="elem_CreateSharedBoardUI"><rect codeLine="2" fill="#F1F1F1" height="48" id="CreateSharedBoardUI" rx="2.5" ry="2.5" style="stroke:#181818;stroke-width:0.5;" width="171" x="105.5" y="7"/><ellipse cx="120.5" cy="23" fill="#ADD1B2" rx="11" ry="11" style="stroke:#181818;stroke-width:1.0;"/><path d="M123.2656,18.875 Q123.4219,18.6563 123.6094,18.5469 Q123.7969,18.4375 124.0156,18.4375 Q124.3906,18.4375 124.625,18.7031 Q124.8594,18.9531 124.8594,19.5625 L124.8594,21.0156 Q124.8594,21.625 124.625,21.8906 Q124.3906,22.1563 124.0156,22.1563 Q123.6719,22.1563 123.4688,21.9531 Q123.2656,21.7656 123.1563,21.25 Q123.1094,20.8906 122.9219,20.7031 Q122.5938,20.3281 121.9844,20.1094 Q121.375,19.8906 120.75,19.8906 Q119.9844,19.8906 119.3438,20.2188 Q118.7188,20.5469 118.2188,21.2969 Q117.7344,22.0469 117.7344,23.0781 L117.7344,24.1719 Q117.7344,25.4063 118.625,26.2344 Q119.5156,27.0469 121.1094,27.0469 Q122.0469,27.0469 122.7031,26.7969 Q123.0938,26.6406 123.5156,26.2031 Q123.7813,25.9375 123.9219,25.8594 Q124.0781,25.7813 124.2813,25.7813 Q124.6094,25.7813 124.8594,26.0469 Q125.125,26.2969 125.125,26.6406 Q125.125,26.9844 124.7813,27.3906 Q124.2813,27.9688 123.4844,28.2969 Q122.4063,28.75 121.1094,28.75 Q119.5938,28.75 118.3906,28.125 Q117.4063,27.625 116.7188,26.5625 Q116.0313,25.4844 116.0313,24.2031 L116.0313,23.0469 Q116.0313,21.7188 116.6406,20.5781 Q117.2656,19.4219 118.3594,18.8125 Q119.4531,18.1875 120.6875,18.1875 Q121.4219,18.1875 122.0625,18.3594 Q122.7188,18.5156 123.2656,18.875 Z " fill="#000000"/><text fill="#000000" font-family="sans-serif" font-size="14" lengthAdjust="spacing" textLength="139" x="134.5" y="28.7969">CreateSharedBoardUI</text><line style="stroke:#181818;stroke-width:0.5;" x1="106.5" x2="275.5" y1="39" y2="39"/><line style="stroke:#181818;stroke-width:0.5;" x1="106.5" x2="275.5" y1="47" y2="47"/></g><!--class CreateSharedBoardController--><g id="elem_CreateSharedBoardController"><rect codeLine="6" fill="#F1F1F1" height="48" id="CreateSharedBoardController" rx="2.5" ry="2.5" style="stroke:#181818;stroke-width:0.5;" width="221" x="80.5" y="134"/><ellipse cx="95.5" cy="150" fill="#ADD1B2" rx="11" ry="11" style="stroke:#181818;stroke-width:1.0;"/><path d="M98.2656,145.875 Q98.4219,145.6563 98.6094,145.5469 Q98.7969,145.4375 99.0156,145.4375 Q99.3906,145.4375 99.625,145.7031 Q99.8594,145.9531 99.8594,146.5625 L99.8594,148.0156 Q99.8594,148.625 99.625,148.8906 Q99.3906,149.1563 99.0156,149.1563 Q98.6719,149.1563 98.4688,148.9531 Q98.2656,148.7656 98.1563,148.25 Q98.1094,147.8906 97.9219,147.7031 Q97.5938,147.3281 96.9844,147.1094 Q96.375,146.8906 95.75,146.8906 Q94.9844,146.8906 94.3438,147.2188 Q93.7188,147.5469 93.2188,148.2969 Q92.7344,149.0469 92.7344,150.0781 L92.7344,151.1719 Q92.7344,152.4063 93.625,153.2344 Q94.5156,154.0469 96.1094,154.0469 Q97.0469,154.0469 97.7031,153.7969 Q98.0938,153.6406 98.5156,153.2031 Q98.7813,152.9375 98.9219,152.8594 Q99.0781,152.7813 99.2813,152.7813 Q99.6094,152.7813 99.8594,153.0469 Q100.125,153.2969 100.125,153.6406 Q100.125,153.9844 99.7813,154.3906 Q99.2813,154.9688 98.4844,155.2969 Q97.4063,155.75 96.1094,155.75 Q94.5938,155.75 93.3906,155.125 Q92.4063,154.625 91.7188,153.5625 Q91.0313,152.4844 91.0313,151.2031 L91.0313,150.0469 Q91.0313,148.7188 91.6406,147.5781 Q92.2656,146.4219 93.3594,145.8125 Q94.4531,145.1875 95.6875,145.1875 Q96.4219,145.1875 97.0625,145.3594 Q97.7188,145.5156 98.2656,145.875 Z " fill="#000000"/><text fill="#000000" font-family="sans-serif" font-size="14" lengthAdjust="spacing" textLength="189" x="109.5" y="155.7969">CreateSharedBoardController</text><line style="stroke:#181818;stroke-width:0.5;" x1="81.5" x2="300.5" y1="166" y2="166"/><line style="stroke:#181818;stroke-width:0.5;" x1="81.5" x2="300.5" y1="174" y2="174"/></g><!--class SharedBoardRepository--><g id="elem_SharedBoardRepository"><rect codeLine="10" fill="#F1F1F1" height="48" id="SharedBoardRepository" rx="2.5" ry="2.5" style="stroke:#181818;stroke-width:0.5;" width="184" x="7" y="261"/><ellipse cx="22" cy="277" fill="#ADD1B2" rx="11" ry="11" style="stroke:#181818;stroke-width:1.0;"/><path d="M24.7656,272.875 Q24.9219,272.6563 25.1094,272.5469 Q25.2969,272.4375 25.5156,272.4375 Q25.8906,272.4375 26.125,272.7031 Q26.3594,272.9531 26.3594,273.5625 L26.3594,275.0156 Q26.3594,275.625 26.125,275.8906 Q25.8906,276.1563 25.5156,276.1563 Q25.1719,276.1563 24.9688,275.9531 Q24.7656,275.7656 24.6563,275.25 Q24.6094,274.8906 24.4219,274.7031 Q24.0938,274.3281 23.4844,274.1094 Q22.875,273.8906 22.25,273.8906 Q21.4844,273.8906 20.8438,274.2188 Q20.2188,274.5469 19.7188,275.2969 Q19.2344,276.0469 19.2344,277.0781 L19.2344,278.1719 Q19.2344,279.4063 20.125,280.2344 Q21.0156,281.0469 22.6094,281.0469 Q23.5469,281.0469 24.2031,280.7969 Q24.5938,280.6406 25.0156,280.2031 Q25.2813,279.9375 25.4219,279.8594 Q25.5781,279.7813 25.7813,279.7813 Q26.1094,279.7813 26.3594,280.0469 Q26.625,280.2969 26.625,280.6406 Q26.625,280.9844 26.2813,281.3906 Q25.7813,281.9688 24.9844,282.2969 Q23.9063,282.75 22.6094,282.75 Q21.0938,282.75 19.8906,282.125 Q18.9063,281.625 18.2188,280.5625 Q17.5313,279.4844 17.5313,278.2031 L17.5313,277.0469 Q17.5313,275.7188 18.1406,274.5781 Q18.7656,273.4219 19.8594,272.8125 Q20.9531,272.1875 22.1875,272.1875 Q22.9219,272.1875 23.5625,272.3594 Q24.2188,272.5156 24.7656,272.875 Z " fill="#000000"/><text fill="#000000" font-family="sans-serif" font-size="14" lengthAdjust="spacing" textLength="152" x="36" y="282.7969">SharedBoardRepository</text><line style="stroke:#181818;stroke-width:0.5;" x1="8" x2="190" y1="293" y2="293"/><line style="stroke:#181818;stroke-width:0.5;" x1="8" x2="190" y1="301" y2="301"/></g><!--class SharedBoard--><g id="elem_SharedBoard"><rect codeLine="14" fill="#F1F1F1" height="48" id="SharedBoard" rx="2.5" ry="2.5" style="stroke:#181818;stroke-width:0.5;" width="116" x="226" y="261"/><ellipse cx="241" cy="277" fill="#ADD1B2" rx="11" ry="11" style="stroke:#181818;stroke-width:1.0;"/><path d="M243.7656,272.875 Q243.9219,272.6563 244.1094,272.5469 Q244.2969,272.4375 244.5156,272.4375 Q244.8906,272.4375 245.125,272.7031 Q245.3594,272.9531 245.3594,273.5625 L245.3594,275.0156 Q245.3594,275.625 245.125,275.8906 Q244.8906,276.1563 244.5156,276.1563 Q244.1719,276.1563 243.9688,275.9531 Q243.7656,275.7656 243.6563,275.25 Q243.6094,274.8906 243.4219,274.7031 Q243.0938,274.3281 242.4844,274.1094 Q241.875,273.8906 241.25,273.8906 Q240.4844,273.8906 239.8438,274.2188 Q239.2188,274.5469 238.7188,275.2969 Q238.2344,276.0469 238.2344,277.0781 L238.2344,278.1719 Q238.2344,279.4063 239.125,280.2344 Q240.0156,281.0469 241.6094,281.0469 Q242.5469,281.0469 243.2031,280.7969 Q243.5938,280.6406 244.0156,280.2031 Q244.2813,279.9375 244.4219,279.8594 Q244.5781,279.7813 244.7813,279.7813 Q245.1094,279.7813 245.3594,280.0469 Q245.625,280.2969 245.625,280.6406 Q245.625,280.9844 245.2813,281.3906 Q244.7813,281.9688 243.9844,282.2969 Q242.9063,282.75 241.6094,282.75 Q240.0938,282.75 238.8906,282.125 Q237.9063,281.625 237.2188,280.5625 Q236.5313,279.4844 236.5313,278.2031 L236.5313,277.0469 Q236.5313,275.7188 237.1406,274.5781 Q237.7656,273.4219 238.8594,272.8125 Q239.9531,272.1875 241.1875,272.1875 Q241.9219,272.1875 242.5625,272.3594 Q243.2188,272.5156 243.7656,272.875 Z " fill="#000000"/><text fill="#000000" font-family="sans-serif" font-size="14" lengthAdjust="spacing" textLength="84" x="255" y="282.7969">SharedBoard</text><line style="stroke:#181818;stroke-width:0.5;" x1="227" x2="341" y1="293" y2="293"/><line style="stroke:#181818;stroke-width:0.5;" x1="227" x2="341" y1="301" y2="301"/></g><!--link CreateSharedBoardUI to CreateSharedBoardController--><g id="link_CreateSharedBoardUI_CreateSharedBoardController"><path codeLine="18" d="M191,55.22 C191,76 191,106.54 191,128.74 " fill="none" id="CreateSharedBoardUI-to-CreateSharedBoardController" style="stroke:#181818;stroke-width:1.0;"/><polygon fill="#181818" points="191,133.91,195,124.91,191,128.91,187,124.91,191,133.91" style="stroke:#181818;stroke-width:1.0;"/><text fill="#000000" font-family="sans-serif" font-size="13" lengthAdjust="spacing" textLength="107" x="192" y="100.0283">uses the controller</text></g><!--link CreateSharedBoardController to SharedBoardRepository--><g id="link_CreateSharedBoardController_SharedBoardRepository"><path codeLine="19" d="M157.37,182.21 C146.92,190.66 136.05,200.89 128,212 C118.49,225.12 111.52,241.8 106.8,255.8 " fill="none" id="CreateSharedBoardController-to-SharedBoardRepository" style="stroke:#181818;stroke-width:1.0;"/><polygon fill="#181818" points="105.16,260.82,111.7414,253.493,106.7025,256.0639,104.1317,251.025,105.16,260.82" style="stroke:#181818;stroke-width:1.0;"/><text fill="#000000" font-family="sans-serif" font-size="13" lengthAdjust="spacing" textLength="111" x="129" y="227.0283">uses the repository</text></g><!--link CreateSharedBoardController to SharedBoard--><g id="link_CreateSharedBoardController_SharedBoard"><path codeLine="20" d="M217.64,182.11 C226.93,190.92 237.02,201.4 245,212 C255.3,225.67 264.53,242.41 271.43,256.3 " fill="none" id="CreateSharedBoardController-to-SharedBoard" style="stroke:#181818;stroke-width:1.0;"/><polygon fill="#181818" points="273.68,260.9,273.3336,251.0572,271.4899,256.4052,266.1419,254.5615,273.68,260.9" style="stroke:#181818;stroke-width:1.0;"/><text fill="#000000" font-family="sans-serif" font-size="13" lengthAdjust="spacing" textLength="36" x="258" y="227.0283">create</text></g><!--SRC=[Iyv9B2vMS2vAJIn93Sv8B4fDSSfFB4e9zLHGgERYgkNYIiQkm3a_hwGeFoSdjGX57PAAeDI2_EBCaloYIbmgeEBOBDTDoI_FqxN3Pw-LGcbnQh52IKQgGZ9Sa0kVGtM11c9r899HHN11KeooKaW6A-O20000]--></g></svg>