<?xml version="1.0" encoding="us-ascii" standalone="no"?><svg xmlns="http://www.w3.org/2000/svg" xmlns:xlink="http://www.w3.org/1999/xlink" contentStyleType="text/css" height="1096px" preserveAspectRatio="none" style="width:1587px;height:1096px;background:#FFFFFF;" version="1.1" viewBox="0 0 1587 1096" width="1587px" zoomAndPan="magnify"><defs/><g><rect fill="#FFFFFF" height="887.1484" style="stroke:#181818;stroke-width:1.0;" width="10" x="340.5" y="116.9121"/><rect fill="#FFFFFF" height="815.5664" style="stroke:#181818;stroke-width:1.0;" width="10" x="625.5" y="148.2031"/><rect fill="#FFFFFF" height="62.582" style="stroke:#181818;stroke-width:1.0;" width="10" x="825.5" y="613.5684"/><rect fill="#FFFFFF" height="390.4922" style="stroke:#181818;stroke-width:1.0;" width="10" x="1078.5" y="613.5684"/><rect fill="#FFFFFF" height="99.873" style="stroke:#181818;stroke-width:1.0;" width="10" x="1205.5" y="707.4414"/><rect fill="#FFFFFF" height="62.582" style="stroke:#181818;stroke-width:1.0;" width="10" x="1348.5" y="838.6055"/><rect fill="none" height="81.873" style="stroke:#000000;stroke-width:1.5;" width="422" x="10" y="225.7852"/><rect fill="none" height="81.873" style="stroke:#000000;stroke-width:1.5;" width="422" x="10" y="321.6582"/><line style="stroke:#181818;stroke-width:0.5;stroke-dasharray:5.0,5.0;" x1="37" x2="37" y1="83.6211" y2="1013.0605"/><line style="stroke:#181818;stroke-width:0.5;stroke-dasharray:5.0,5.0;" x1="345" x2="345" y1="83.6211" y2="1013.0605"/><line style="stroke:#181818;stroke-width:0.5;stroke-dasharray:5.0,5.0;" x1="630" x2="630" y1="83.6211" y2="1013.0605"/><line style="stroke:#181818;stroke-width:0.5;stroke-dasharray:5.0,5.0;" x1="830" x2="830" y1="83.6211" y2="1013.0605"/><line style="stroke:#181818;stroke-width:0.5;stroke-dasharray:5.0,5.0;" x1="1083.5" x2="1083.5" y1="83.6211" y2="1013.0605"/><line style="stroke:#181818;stroke-width:0.5;stroke-dasharray:5.0,5.0;" x1="1210.5" x2="1210.5" y1="83.6211" y2="1013.0605"/><line style="stroke:#181818;stroke-width:0.5;stroke-dasharray:5.0,5.0;" x1="1353.5" x2="1353.5" y1="83.6211" y2="1013.0605"/><line style="stroke:#181818;stroke-width:0.5;stroke-dasharray:5.0,5.0;" x1="1507.5" x2="1507.5" y1="83.6211" y2="1013.0605"/><text fill="#000000" font-family="sans-serif" font-size="14" lengthAdjust="spacing" textLength="29" x="20" y="80.1074">User</text><ellipse cx="37.5" cy="13.5" fill="#E2E2F0" rx="8" ry="8" style="stroke:#181818;stroke-width:0.5;"/><path d="M37.5,21.5 L37.5,48.5 M24.5,29.5 L50.5,29.5 M37.5,48.5 L24.5,63.5 M37.5,48.5 L50.5,63.5 " fill="none" style="stroke:#181818;stroke-width:0.5;"/><text fill="#000000" font-family="sans-serif" font-size="14" lengthAdjust="spacing" textLength="29" x="20" y="1027.168">User</text><ellipse cx="37.5" cy="1039.1816" fill="#E2E2F0" rx="8" ry="8" style="stroke:#181818;stroke-width:0.5;"/><path d="M37.5,1047.1816 L37.5,1074.1816 M24.5,1055.1816 L50.5,1055.1816 M37.5,1074.1816 L24.5,1089.1816 M37.5,1074.1816 L50.5,1089.1816 " fill="none" style="stroke:#181818;stroke-width:0.5;"/><rect fill="#E2E2F0" height="32.6211" rx="2.5" ry="2.5" style="stroke:#181818;stroke-width:0.5;" width="153" x="269" y="50"/><text fill="#000000" font-family="sans-serif" font-size="14" lengthAdjust="spacing" textLength="139" x="276" y="72.1074">CreateSharedBoardUI</text><rect fill="#E2E2F0" height="32.6211" rx="2.5" ry="2.5" style="stroke:#181818;stroke-width:0.5;" width="153" x="269" y="1012.0605"/><text fill="#000000" font-family="sans-serif" font-size="14" lengthAdjust="spacing" textLength="139" x="276" y="1034.168">CreateSharedBoardUI</text><text fill="#000000" font-family="sans-serif" font-size="14" lengthAdjust="spacing" textLength="189" x="533" y="80.1074">CreateSharedBoardController</text><ellipse cx="630.5" cy="49" fill="#E2E2F0" rx="12" ry="12" style="stroke:#181818;stroke-width:0.5;"/><polygon fill="#181818" points="626.5,37,632.5,32,630.5,37,632.5,42,626.5,37" style="stroke:#181818;stroke-width:1.0;"/><text fill="#000000" font-family="sans-serif" font-size="14" lengthAdjust="spacing" textLength="189" x="533" y="1027.168">CreateSharedBoardController</text><ellipse cx="630.5" cy="1046.6816" fill="#E2E2F0" rx="12" ry="12" style="stroke:#181818;stroke-width:0.5;"/><polygon fill="#181818" points="626.5,1034.6816,632.5,1029.6816,630.5,1034.6816,632.5,1039.6816,626.5,1034.6816" style="stroke:#181818;stroke-width:1.0;"/><rect fill="#E2E2F0" height="32.6211" rx="2.5" ry="2.5" style="stroke:#181818;stroke-width:0.5;" width="185" x="738" y="50"/><text fill="#000000" font-family="sans-serif" font-size="14" lengthAdjust="spacing" textLength="171" x="745" y="72.1074">CreateSharedBoardBuilder</text><rect fill="#E2E2F0" height="32.6211" rx="2.5" ry="2.5" style="stroke:#181818;stroke-width:0.5;" width="185" x="738" y="1012.0605"/><text fill="#000000" font-family="sans-serif" font-size="14" lengthAdjust="spacing" textLength="171" x="745" y="1034.168">CreateSharedBoardBuilder</text><rect fill="#E2E2F0" height="32.6211" rx="2.5" ry="2.5" style="stroke:#181818;stroke-width:0.5;" width="98" x="1034.5" y="50"/><text fill="#000000" font-family="sans-serif" font-size="14" lengthAdjust="spacing" textLength="84" x="1041.5" y="72.1074">SharedBoard</text><rect fill="#E2E2F0" height="32.6211" rx="2.5" ry="2.5" style="stroke:#181818;stroke-width:0.5;" width="98" x="1034.5" y="1012.0605"/><text fill="#000000" font-family="sans-serif" font-size="14" lengthAdjust="spacing" textLength="84" x="1041.5" y="1034.168">SharedBoard</text><rect fill="#E2E2F0" height="32.6211" rx="2.5" ry="2.5" style="stroke:#181818;stroke-width:0.5;" width="136" x="1142.5" y="50"/><text fill="#000000" font-family="sans-serif" font-size="14" lengthAdjust="spacing" textLength="122" x="1149.5" y="72.1074">PersistenceContext</text><rect fill="#E2E2F0" height="32.6211" rx="2.5" ry="2.5" style="stroke:#181818;stroke-width:0.5;" width="136" x="1142.5" y="1012.0605"/><text fill="#000000" font-family="sans-serif" font-size="14" lengthAdjust="spacing" textLength="122" x="1149.5" y="1034.168">PersistenceContext</text><rect fill="#E2E2F0" height="32.6211" rx="2.5" ry="2.5" style="stroke:#181818;stroke-width:0.5;" width="130" x="1288.5" y="50"/><text fill="#000000" font-family="sans-serif" font-size="14" lengthAdjust="spacing" textLength="116" x="1295.5" y="72.1074">RepositoryFactory</text><rect fill="#E2E2F0" height="32.6211" rx="2.5" ry="2.5" style="stroke:#181818;stroke-width:0.5;" width="130" x="1288.5" y="1012.0605"/><text fill="#000000" font-family="sans-serif" font-size="14" lengthAdjust="spacing" textLength="116" x="1295.5" y="1034.168">RepositoryFactory</text><text fill="#000000" font-family="sans-serif" font-size="14" lengthAdjust="spacing" textLength="152" x="1428.5" y="80.1074">SharedBoardRepository</text><path d="M1489.5,29 C1489.5,19 1507.5,19 1507.5,19 C1507.5,19 1525.5,19 1525.5,29 L1525.5,55 C1525.5,65 1507.5,65 1507.5,65 C1507.5,65 1489.5,65 1489.5,55 L1489.5,29 " fill="#E2E2F0" style="stroke:#181818;stroke-width:1.5;"/><path d="M1489.5,29 C1489.5,39 1507.5,39 1507.5,39 C1507.5,39 1525.5,39 1525.5,29 " fill="none" style="stroke:#181818;stroke-width:1.5;"/><text fill="#000000" font-family="sans-serif" font-size="14" lengthAdjust="spacing" textLength="152" x="1428.5" y="1027.168">SharedBoardRepository</text><path d="M1489.5,1040.6816 C1489.5,1030.6816 1507.5,1030.6816 1507.5,1030.6816 C1507.5,1030.6816 1525.5,1030.6816 1525.5,1040.6816 L1525.5,1066.6816 C1525.5,1076.6816 1507.5,1076.6816 1507.5,1076.6816 C1507.5,1076.6816 1489.5,1076.6816 1489.5,1066.6816 L1489.5,1040.6816 " fill="#E2E2F0" style="stroke:#181818;stroke-width:1.5;"/><path d="M1489.5,1040.6816 C1489.5,1050.6816 1507.5,1050.6816 1507.5,1050.6816 C1507.5,1050.6816 1525.5,1050.6816 1525.5,1040.6816 " fill="none" style="stroke:#181818;stroke-width:1.5;"/><rect fill="#FFFFFF" height="887.1484" style="stroke:#181818;stroke-width:1.0;" width="10" x="340.5" y="116.9121"/><rect fill="#FFFFFF" height="815.5664" style="stroke:#181818;stroke-width:1.0;" width="10" x="625.5" y="148.2031"/><rect fill="#FFFFFF" height="62.582" style="stroke:#181818;stroke-width:1.0;" width="10" x="825.5" y="613.5684"/><rect fill="#FFFFFF" height="390.4922" style="stroke:#181818;stroke-width:1.0;" width="10" x="1078.5" y="613.5684"/><rect fill="#FFFFFF" height="99.873" style="stroke:#181818;stroke-width:1.0;" width="10" x="1205.5" y="707.4414"/><rect fill="#FFFFFF" height="62.582" style="stroke:#181818;stroke-width:1.0;" width="10" x="1348.5" y="838.6055"/><polygon fill="#181818" points="328.5,112.9121,338.5,116.9121,328.5,120.9121,332.5,116.9121" style="stroke:#181818;stroke-width:1.0;"/><line style="stroke:#181818;stroke-width:1.0;" x1="37.5" x2="334.5" y1="116.9121" y2="116.9121"/><text fill="#000000" font-family="sans-serif" font-size="13" font-weight="bold" lengthAdjust="spacing" textLength="7" x="44.5" y="111.6494">1</text><text fill="#000000" font-family="sans-serif" font-size="13" lengthAdjust="spacing" textLength="236" x="55.5" y="111.6494">Select the option to create Shared Board</text><polygon fill="#181818" points="613.5,144.2031,623.5,148.2031,613.5,152.2031,617.5,148.2031" style="stroke:#181818;stroke-width:1.0;"/><line style="stroke:#181818;stroke-width:1.0;" x1="350.5" x2="619.5" y1="148.2031" y2="148.2031"/><text fill="#000000" font-family="sans-serif" font-size="13" font-weight="bold" lengthAdjust="spacing" textLength="7" x="357.5" y="142.9404">2</text><text fill="#000000" font-family="sans-serif" font-size="13" lengthAdjust="spacing" textLength="36" x="368.5" y="142.9404">create</text><polygon fill="#181818" points="48.5,175.4941,38.5,179.4941,48.5,183.4941,44.5,179.4941" style="stroke:#181818;stroke-width:1.0;"/><line style="stroke:#181818;stroke-width:1.0;stroke-dasharray:2.0,2.0;" x1="42.5" x2="339.5" y1="179.4941" y2="179.4941"/><text fill="#000000" font-family="sans-serif" font-size="13" font-weight="bold" lengthAdjust="spacing" textLength="7" x="54.5" y="174.2314">3</text><text fill="#000000" font-family="sans-serif" font-size="13" lengthAdjust="spacing" textLength="84" x="65.5" y="174.2314">Requests data</text><polygon fill="#181818" points="328.5,206.7852,338.5,210.7852,328.5,214.7852,332.5,210.7852" style="stroke:#181818;stroke-width:1.0;"/><line style="stroke:#181818;stroke-width:1.0;" x1="37.5" x2="334.5" y1="210.7852" y2="210.7852"/><text fill="#000000" font-family="sans-serif" font-size="13" font-weight="bold" lengthAdjust="spacing" textLength="7" x="44.5" y="205.5225">4</text><text fill="#000000" font-family="sans-serif" font-size="13" lengthAdjust="spacing" textLength="268" x="55.5" y="205.5225">Insert title, numberOfColumns, numberOfRows</text><path d="M10,225.7852 L83,225.7852 L83,235.0762 L73,245.0762 L10,245.0762 L10,225.7852 " fill="#EEEEEE" style="stroke:#000000;stroke-width:1.5;"/><rect fill="none" height="81.873" style="stroke:#000000;stroke-width:1.5;" width="422" x="10" y="225.7852"/><text fill="#000000" font-family="sans-serif" font-size="13" font-weight="bold" lengthAdjust="spacing" textLength="28" x="25" y="240.8135">loop</text><text fill="#000000" font-family="sans-serif" font-size="11" font-weight="bold" lengthAdjust="spacing" textLength="67" x="98" y="239.6553">[option &lt; 11]</text><polygon fill="#181818" points="48.5,264.3672,38.5,268.3672,48.5,272.3672,44.5,268.3672" style="stroke:#181818;stroke-width:1.0;"/><line style="stroke:#181818;stroke-width:1.0;stroke-dasharray:2.0,2.0;" x1="42.5" x2="339.5" y1="268.3672" y2="268.3672"/><text fill="#000000" font-family="sans-serif" font-size="13" font-weight="bold" lengthAdjust="spacing" textLength="7" x="54.5" y="263.1045">5</text><text fill="#000000" font-family="sans-serif" font-size="13" lengthAdjust="spacing" textLength="202" x="65.5" y="263.1045">Requests the name of the columns</text><polygon fill="#181818" points="328.5,295.6582,338.5,299.6582,328.5,303.6582,332.5,299.6582" style="stroke:#181818;stroke-width:1.0;"/><line style="stroke:#181818;stroke-width:1.0;" x1="37.5" x2="334.5" y1="299.6582" y2="299.6582"/><text fill="#000000" font-family="sans-serif" font-size="13" font-weight="bold" lengthAdjust="spacing" textLength="7" x="44.5" y="294.3955">6</text><text fill="#000000" font-family="sans-serif" font-size="13" lengthAdjust="spacing" textLength="167" x="55.5" y="294.3955">Types names of the columns</text><path d="M10,321.6582 L83,321.6582 L83,330.9492 L73,340.9492 L10,340.9492 L10,321.6582 " fill="#EEEEEE" style="stroke:#000000;stroke-width:1.5;"/><rect fill="none" height="81.873" style="stroke:#000000;stroke-width:1.5;" width="422" x="10" y="321.6582"/><text fill="#000000" font-family="sans-serif" font-size="13" font-weight="bold" lengthAdjust="spacing" textLength="28" x="25" y="336.6865">loop</text><text fill="#000000" font-family="sans-serif" font-size="11" font-weight="bold" lengthAdjust="spacing" textLength="67" x="98" y="335.5283">[option &lt; 21]</text><polygon fill="#181818" points="48.5,360.2402,38.5,364.2402,48.5,368.2402,44.5,364.2402" style="stroke:#181818;stroke-width:1.0;"/><line style="stroke:#181818;stroke-width:1.0;stroke-dasharray:2.0,2.0;" x1="42.5" x2="339.5" y1="364.2402" y2="364.2402"/><text fill="#000000" font-family="sans-serif" font-size="13" font-weight="bold" lengthAdjust="spacing" textLength="7" x="54.5" y="358.9775">7</text><text fill="#000000" font-family="sans-serif" font-size="13" lengthAdjust="spacing" textLength="180" x="65.5" y="358.9775">Requests the name of the rows</text><polygon fill="#181818" points="328.5,391.5313,338.5,395.5313,328.5,399.5313,332.5,395.5313" style="stroke:#181818;stroke-width:1.0;"/><line style="stroke:#181818;stroke-width:1.0;" x1="37.5" x2="334.5" y1="395.5313" y2="395.5313"/><text fill="#000000" font-family="sans-serif" font-size="13" font-weight="bold" lengthAdjust="spacing" textLength="7" x="44.5" y="390.2686">8</text><text fill="#000000" font-family="sans-serif" font-size="13" lengthAdjust="spacing" textLength="145" x="55.5" y="390.2686">Types names of the rows</text><polygon fill="#181818" points="613.5,447.1133,623.5,451.1133,613.5,455.1133,617.5,451.1133" style="stroke:#181818;stroke-width:1.0;"/><line style="stroke:#181818;stroke-width:1.0;" x1="350.5" x2="619.5" y1="451.1133" y2="451.1133"/><text fill="#000000" font-family="sans-serif" font-size="13" font-weight="bold" lengthAdjust="spacing" textLength="7" x="357.5" y="437.2051">9</text><text fill="#000000" font-family="sans-serif" font-size="13" lengthAdjust="spacing" textLength="240" x="368.5" y="428.5596">addSharedBoard(title, numberOfColumns,</text><text fill="#000000" font-family="sans-serif" font-size="13" lengthAdjust="spacing" textLength="226" x="372.5" y="445.8506">numberOfRows, columnsList, rowsList)</text><polygon fill="#181818" points="818.5,478.4043,828.5,482.4043,818.5,486.4043,822.5,482.4043" style="stroke:#181818;stroke-width:1.0;"/><line style="stroke:#181818;stroke-width:1.0;" x1="635.5" x2="824.5" y1="482.4043" y2="482.4043"/><text fill="#000000" font-family="sans-serif" font-size="13" font-weight="bold" lengthAdjust="spacing" textLength="14" x="642.5" y="477.1416">10</text><text fill="#000000" font-family="sans-serif" font-size="13" lengthAdjust="spacing" textLength="36" x="660.5" y="477.1416">create</text><polygon fill="#181818" points="818.5,509.6953,828.5,513.6953,818.5,517.6953,822.5,513.6953" style="stroke:#181818;stroke-width:1.0;"/><line style="stroke:#181818;stroke-width:1.0;" x1="635.5" x2="824.5" y1="513.6953" y2="513.6953"/><text fill="#000000" font-family="sans-serif" font-size="13" font-weight="bold" lengthAdjust="spacing" textLength="14" x="642.5" y="508.4326">11</text><text fill="#000000" font-family="sans-serif" font-size="13" lengthAdjust="spacing" textLength="76" x="660.5" y="508.4326">withTitle(title)</text><path d="M633,526.6953 L633,553.6953 L825,553.6953 L825,536.6953 L815,526.6953 L633,526.6953 " fill="#FEFFDD" style="stroke:#181818;stroke-width:0.5;"/><path d="M815,526.6953 L815,536.6953 L825,536.6953 L815,526.6953 " fill="#FEFFDD" style="stroke:#181818;stroke-width:0.5;"/><text fill="#000000" font-family="sans-serif" font-size="13" lengthAdjust="spacing" textLength="171" x="639" y="545.7236">set the rest of the parameters</text><polygon fill="#181818" points="818.5,578.2773,828.5,582.2773,818.5,586.2773,822.5,582.2773" style="stroke:#181818;stroke-width:1.0;"/><line style="stroke:#181818;stroke-width:1.0;" x1="635.5" x2="824.5" y1="582.2773" y2="582.2773"/><text fill="#000000" font-family="sans-serif" font-size="13" font-weight="bold" lengthAdjust="spacing" textLength="14" x="642.5" y="577.0146">12</text><text fill="#000000" font-family="sans-serif" font-size="13" lengthAdjust="spacing" textLength="35" x="660.5" y="577.0146">build()</text><polygon fill="#181818" points="1066.5,609.5684,1076.5,613.5684,1066.5,617.5684,1070.5,613.5684" style="stroke:#181818;stroke-width:1.0;"/><line style="stroke:#181818;stroke-width:1.0;" x1="835.5" x2="1072.5" y1="613.5684" y2="613.5684"/><text fill="#000000" font-family="sans-serif" font-size="13" font-weight="bold" lengthAdjust="spacing" textLength="14" x="842.5" y="608.3057">13</text><text fill="#000000" font-family="sans-serif" font-size="13" lengthAdjust="spacing" textLength="211" x="860.5" y="608.3057">create(title, owner..........................)</text><polygon fill="#181818" points="846.5,640.8594,836.5,644.8594,846.5,648.8594,842.5,644.8594" style="stroke:#181818;stroke-width:1.0;"/><line style="stroke:#181818;stroke-width:1.0;stroke-dasharray:2.0,2.0;" x1="840.5" x2="1077.5" y1="644.8594" y2="644.8594"/><text fill="#000000" font-family="sans-serif" font-size="13" font-weight="bold" lengthAdjust="spacing" textLength="14" x="852.5" y="639.5967">14</text><text fill="#000000" font-family="sans-serif" font-size="13" lengthAdjust="spacing" textLength="75" x="870.5" y="639.5967">SharedBoard</text><polygon fill="#181818" points="646.5,672.1504,636.5,676.1504,646.5,680.1504,642.5,676.1504" style="stroke:#181818;stroke-width:1.0;"/><line style="stroke:#181818;stroke-width:1.0;stroke-dasharray:2.0,2.0;" x1="640.5" x2="829.5" y1="676.1504" y2="676.1504"/><text fill="#000000" font-family="sans-serif" font-size="13" font-weight="bold" lengthAdjust="spacing" textLength="14" x="652.5" y="670.8877">15</text><text fill="#000000" font-family="sans-serif" font-size="13" lengthAdjust="spacing" textLength="75" x="670.5" y="670.8877">SharedBoard</text><polygon fill="#181818" points="1193.5,703.4414,1203.5,707.4414,1193.5,711.4414,1197.5,707.4414" style="stroke:#181818;stroke-width:1.0;"/><line style="stroke:#181818;stroke-width:1.0;" x1="635.5" x2="1199.5" y1="707.4414" y2="707.4414"/><text fill="#000000" font-family="sans-serif" font-size="13" font-weight="bold" lengthAdjust="spacing" textLength="14" x="642.5" y="702.1787">16</text><text fill="#000000" font-family="sans-serif" font-size="13" lengthAdjust="spacing" textLength="75" x="660.5" y="702.1787">repositories()</text><path d="M1220,720.4414 L1220,747.4414 L1484,747.4414 L1484,730.4414 L1474,720.4414 L1220,720.4414 " fill="#FEFFDD" style="stroke:#181818;stroke-width:0.5;"/><path d="M1474,720.4414 L1474,730.4414 L1484,730.4414 L1474,720.4414 " fill="#FEFFDD" style="stroke:#181818;stroke-width:0.5;"/><text fill="#000000" font-family="sans-serif" font-size="13" lengthAdjust="spacing" textLength="243" x="1226" y="739.4697">pode criar reposit&#243;rio em mem&#243;ria ou JPA</text><polygon fill="#181818" points="1341.5,772.0234,1351.5,776.0234,1341.5,780.0234,1345.5,776.0234" style="stroke:#181818;stroke-width:1.0;"/><line style="stroke:#181818;stroke-width:1.0;" x1="1215.5" x2="1347.5" y1="776.0234" y2="776.0234"/><text fill="#000000" font-family="sans-serif" font-size="13" font-weight="bold" lengthAdjust="spacing" textLength="14" x="1222.5" y="770.7607">17</text><text fill="#000000" font-family="sans-serif" font-size="13" lengthAdjust="spacing" textLength="44" x="1240.5" y="770.7607">create()</text><polygon fill="#181818" points="646.5,803.3145,636.5,807.3145,646.5,811.3145,642.5,807.3145" style="stroke:#181818;stroke-width:1.0;"/><line style="stroke:#181818;stroke-width:1.0;stroke-dasharray:2.0,2.0;" x1="640.5" x2="1209.5" y1="807.3145" y2="807.3145"/><text fill="#000000" font-family="sans-serif" font-size="13" font-weight="bold" lengthAdjust="spacing" textLength="14" x="652.5" y="802.0518">18</text><text fill="#000000" font-family="sans-serif" font-size="13" lengthAdjust="spacing" textLength="39" x="670.5" y="802.0518">factory</text><polygon fill="#181818" points="1336.5,834.6055,1346.5,838.6055,1336.5,842.6055,1340.5,838.6055" style="stroke:#181818;stroke-width:1.0;"/><line style="stroke:#181818;stroke-width:1.0;" x1="635.5" x2="1342.5" y1="838.6055" y2="838.6055"/><text fill="#000000" font-family="sans-serif" font-size="13" font-weight="bold" lengthAdjust="spacing" textLength="14" x="642.5" y="833.3428">19</text><text fill="#000000" font-family="sans-serif" font-size="13" lengthAdjust="spacing" textLength="83" x="660.5" y="833.3428">SharedBoard()</text><polygon fill="#181818" points="1495.5,865.8965,1505.5,869.8965,1495.5,873.8965,1499.5,869.8965" style="stroke:#181818;stroke-width:1.0;"/><line style="stroke:#181818;stroke-width:1.0;" x1="1358.5" x2="1501.5" y1="869.8965" y2="869.8965"/><text fill="#000000" font-family="sans-serif" font-size="13" font-weight="bold" lengthAdjust="spacing" textLength="14" x="1365.5" y="864.6338">20</text><text fill="#000000" font-family="sans-serif" font-size="13" lengthAdjust="spacing" textLength="36" x="1383.5" y="864.6338">create</text><polygon fill="#181818" points="646.5,897.1875,636.5,901.1875,646.5,905.1875,642.5,901.1875" style="stroke:#181818;stroke-width:1.0;"/><line style="stroke:#181818;stroke-width:1.0;stroke-dasharray:2.0,2.0;" x1="640.5" x2="1352.5" y1="901.1875" y2="901.1875"/><text fill="#000000" font-family="sans-serif" font-size="13" font-weight="bold" lengthAdjust="spacing" textLength="14" x="652.5" y="895.9248">21</text><text fill="#000000" font-family="sans-serif" font-size="13" lengthAdjust="spacing" textLength="137" x="670.5" y="895.9248">SharedBoardRepository</text><polygon fill="#181818" points="1495.5,928.4785,1505.5,932.4785,1495.5,936.4785,1499.5,932.4785" style="stroke:#181818;stroke-width:1.0;"/><line style="stroke:#181818;stroke-width:1.0;" x1="635.5" x2="1501.5" y1="932.4785" y2="932.4785"/><text fill="#000000" font-family="sans-serif" font-size="13" font-weight="bold" lengthAdjust="spacing" textLength="14" x="642.5" y="927.2158">22</text><text fill="#000000" font-family="sans-serif" font-size="13" lengthAdjust="spacing" textLength="109" x="660.5" y="927.2158">save(SharedBoard)</text><polygon fill="#181818" points="361.5,959.7695,351.5,963.7695,361.5,967.7695,357.5,963.7695" style="stroke:#181818;stroke-width:1.0;"/><line style="stroke:#181818;stroke-width:1.0;stroke-dasharray:2.0,2.0;" x1="355.5" x2="629.5" y1="963.7695" y2="963.7695"/><text fill="#000000" font-family="sans-serif" font-size="13" font-weight="bold" lengthAdjust="spacing" textLength="14" x="367.5" y="958.5068">23</text><text fill="#000000" font-family="sans-serif" font-size="13" lengthAdjust="spacing" textLength="75" x="385.5" y="958.5068">SharedBoard</text><polygon fill="#181818" points="48.5,991.0605,38.5,995.0605,48.5,999.0605,44.5,995.0605" style="stroke:#181818;stroke-width:1.0;"/><line style="stroke:#181818;stroke-width:1.0;stroke-dasharray:2.0,2.0;" x1="42.5" x2="339.5" y1="995.0605" y2="995.0605"/><text fill="#000000" font-family="sans-serif" font-size="13" font-weight="bold" lengthAdjust="spacing" textLength="14" x="54.5" y="989.7979">24</text><text fill="#000000" font-family="sans-serif" font-size="13" lengthAdjust="spacing" textLength="153" x="72.5" y="989.7979">Displays SharedBoard Info</text><!--SRC=[fLR1Rjim3BthAtXR3AGDkgCn35Wp3EWmO4NQtdPHRBeH88kU93VBT-qJzcEJx3fMQjdECbyYYEBZuoD5vTtEsigagrKbkR9rAQypAbS6VzQeChpA1N_Ml6ICrvPKNMvHktLcISEJyMlcV-3g8wmrSeiFEwunloMkywUx51vGOcR1xX2eie8KM8AiEGdjKMZEUaZnudSZC2mZPJN9eMtT6gGd4d6CqkfzqbSc4y63055y5y3ddyB62sQiWPnRFgt9dN9Mfucm4fVGQlgzM9EiIsNwZGtj3GFtIQAgK-y3tDmqc_uxav4NN_7ILQ1erbaRwGWpIVRnKA5ft4tC7rNUufoIVD-J_0-YkbFWKgOd09xgPLt2ypomB4OAzqETb6xPwVHD6BjigFXL4g7GnufIkQs5p8DklTX_B-pkqPDlKqYO8jVp4Wlh1HltCzZUOEsgr4bRSJSLqA8sb_FP-iKYOMCdl7UmsmdG5O3s2lNrw9Vqrpe0cRZhhr5PiDLqwNW28IwRI6EkmKAS7ESPpYX-xwhYMitFRs_0NpPrjQl823Us1Pf58CtmB6lRGeldNLFj65f5kPi3Md3T0V_vhGK1bb1YwTSSg8Qlzv_OqDrJt7Hq3b-Qn-HmB6x2_0JTSdDIjlvy571QO4YXQAE4waOodz4rGZgS2u6gWvDiiFEckNix72zwnESVEYcGBCXwo6mcwIYYcmdy1HU1BPd66Vr_S6RdppxqnzVaip3kdyp1XD3koIs8dHtWBm00]--></g></svg>