<?xml version="1.0" encoding="us-ascii" standalone="no"?><svg xmlns="http://www.w3.org/2000/svg" xmlns:xlink="http://www.w3.org/1999/xlink" contentStyleType="text/css" height="1106px" preserveAspectRatio="none" style="width:1784px;height:1106px;background:#FFFFFF;" version="1.1" viewBox="0 0 1784 1106" width="1784px" zoomAndPan="magnify"><defs/><g><rect fill="#FFFFFF" height="678.4023" style="stroke:#181818;stroke-width:1.0;" width="10" x="319" y="335.9492"/><rect fill="#FFFFFF" height="606.8203" style="stroke:#181818;stroke-width:1.0;" width="10" x="643" y="367.2402"/><rect fill="#FFFFFF" height="517.9473" style="stroke:#181818;stroke-width:1.0;" width="10" x="1047" y="424.8223"/><rect fill="#FFFFFF" height="374.4922" style="stroke:#181818;stroke-width:1.0;" width="10" x="1347" y="536.9863"/><rect fill="#FFFFFF" height="38.291" style="stroke:#181818;stroke-width:1.0;" width="10" x="1454" y="654.1504"/><rect fill="#FFFFFF" height="62.582" style="stroke:#181818;stroke-width:1.0;" width="10" x="1565.5" y="723.7324"/><rect fill="#FFFFFF" height="31.291" style="stroke:#181818;stroke-width:1.0;" width="10" x="1708.5" y="817.6055"/><rect fill="none" height="222.3281" style="stroke:#000000;stroke-width:1.5;" width="734.5" x="768" y="439.8223"/><line style="stroke:#181818;stroke-width:0.5;stroke-dasharray:5.0,5.0;" x1="51" x2="51" y1="83.6211" y2="1023.3516"/><line style="stroke:#181818;stroke-width:0.5;stroke-dasharray:5.0,5.0;" x1="324" x2="324" y1="83.6211" y2="1023.3516"/><line style="stroke:#181818;stroke-width:0.5;stroke-dasharray:5.0,5.0;" x1="473" x2="473" y1="83.6211" y2="1023.3516"/><line style="stroke:#181818;stroke-width:0.5;stroke-dasharray:5.0,5.0;" x1="648" x2="648" y1="83.6211" y2="1023.3516"/><line style="stroke:#181818;stroke-width:0.5;stroke-dasharray:5.0,5.0;" x1="1051.5" x2="1051.5" y1="83.6211" y2="1023.3516"/><line style="stroke:#181818;stroke-width:0.5;stroke-dasharray:5.0,5.0;" x1="1351.5" x2="1351.5" y1="83.6211" y2="1023.3516"/><line style="stroke:#181818;stroke-width:0.5;stroke-dasharray:5.0,5.0;" x1="1458.5" x2="1458.5" y1="83.6211" y2="1023.3516"/><line style="stroke:#181818;stroke-width:0.5;stroke-dasharray:5.0,5.0;" x1="1570.5" x2="1570.5" y1="83.6211" y2="1023.3516"/><line style="stroke:#181818;stroke-width:0.5;stroke-dasharray:5.0,5.0;" x1="1713.5" x2="1713.5" y1="83.6211" y2="1023.3516"/><text fill="#000000" font-family="sans-serif" font-size="14" lengthAdjust="spacing" textLength="56" x="20" y="80.1074">Manager</text><ellipse cx="51" cy="13.5" fill="#E2E2F0" rx="8" ry="8" style="stroke:#181818;stroke-width:0.5;"/><path d="M51,21.5 L51,48.5 M38,29.5 L64,29.5 M51,48.5 L38,63.5 M51,48.5 L64,63.5 " fill="none" style="stroke:#181818;stroke-width:0.5;"/><text fill="#000000" font-family="sans-serif" font-size="14" lengthAdjust="spacing" textLength="56" x="20" y="1037.459">Manager</text><ellipse cx="51" cy="1049.4727" fill="#E2E2F0" rx="8" ry="8" style="stroke:#181818;stroke-width:0.5;"/><path d="M51,1057.4727 L51,1084.4727 M38,1065.4727 L64,1065.4727 M51,1084.4727 L38,1099.4727 M51,1084.4727 L64,1099.4727 " fill="none" style="stroke:#181818;stroke-width:0.5;"/><rect fill="#E2E2F0" height="32.6211" rx="2.5" ry="2.5" style="stroke:#181818;stroke-width:0.5;" width="150" x="249" y="50"/><text fill="#000000" font-family="sans-serif" font-size="14" lengthAdjust="spacing" textLength="136" x="256" y="72.1074">UpdateCourseStateUI</text><rect fill="#E2E2F0" height="32.6211" rx="2.5" ry="2.5" style="stroke:#181818;stroke-width:0.5;" width="150" x="249" y="1022.3516"/><text fill="#000000" font-family="sans-serif" font-size="14" lengthAdjust="spacing" textLength="136" x="256" y="1044.459">UpdateCourseStateUI</text><rect fill="#E2E2F0" height="32.6211" rx="2.5" ry="2.5" style="stroke:#181818;stroke-width:0.5;" width="129" x="409" y="50"/><text fill="#000000" font-family="sans-serif" font-size="14" lengthAdjust="spacing" textLength="115" x="416" y="72.1074">ListCourseService</text><rect fill="#E2E2F0" height="32.6211" rx="2.5" ry="2.5" style="stroke:#181818;stroke-width:0.5;" width="129" x="409" y="1022.3516"/><text fill="#000000" font-family="sans-serif" font-size="14" lengthAdjust="spacing" textLength="115" x="416" y="1044.459">ListCourseService</text><rect fill="#E2E2F0" height="32.6211" rx="2.5" ry="2.5" style="stroke:#181818;stroke-width:0.5;" width="200" x="548" y="50"/><text fill="#000000" font-family="sans-serif" font-size="14" lengthAdjust="spacing" textLength="186" x="555" y="72.1074">UpdateCourseStateController</text><rect fill="#E2E2F0" height="32.6211" rx="2.5" ry="2.5" style="stroke:#181818;stroke-width:0.5;" width="200" x="548" y="1022.3516"/><text fill="#000000" font-family="sans-serif" font-size="14" lengthAdjust="spacing" textLength="186" x="555" y="1044.459">UpdateCourseStateController</text><rect fill="#E2E2F0" height="32.6211" rx="2.5" ry="2.5" style="stroke:#181818;stroke-width:0.5;" width="185" x="959.5" y="50"/><text fill="#000000" font-family="sans-serif" font-size="14" lengthAdjust="spacing" textLength="171" x="966.5" y="72.1074">UpdateCourseStateService</text><rect fill="#E2E2F0" height="32.6211" rx="2.5" ry="2.5" style="stroke:#181818;stroke-width:0.5;" width="185" x="959.5" y="1022.3516"/><text fill="#000000" font-family="sans-serif" font-size="14" lengthAdjust="spacing" textLength="171" x="966.5" y="1044.459">UpdateCourseStateService</text><text fill="#000000" font-family="sans-serif" font-size="14" lengthAdjust="spacing" textLength="121" x="1288.5" y="80.1074">CoursesRepository</text><path d="M1334,29 C1334,19 1352,19 1352,19 C1352,19 1370,19 1370,29 L1370,55 C1370,65 1352,65 1352,65 C1352,65 1334,65 1334,55 L1334,29 " fill="#E2E2F0" style="stroke:#181818;stroke-width:1.5;"/><path d="M1334,29 C1334,39 1352,39 1352,39 C1352,39 1370,39 1370,29 " fill="none" style="stroke:#181818;stroke-width:1.5;"/><text fill="#000000" font-family="sans-serif" font-size="14" lengthAdjust="spacing" textLength="121" x="1288.5" y="1037.459">CoursesRepository</text><path d="M1334,1050.9727 C1334,1040.9727 1352,1040.9727 1352,1040.9727 C1352,1040.9727 1370,1040.9727 1370,1050.9727 L1370,1076.9727 C1370,1086.9727 1352,1086.9727 1352,1086.9727 C1352,1086.9727 1334,1086.9727 1334,1076.9727 L1334,1050.9727 " fill="#E2E2F0" style="stroke:#181818;stroke-width:1.5;"/><path d="M1334,1050.9727 C1334,1060.9727 1352,1060.9727 1352,1060.9727 C1352,1060.9727 1370,1060.9727 1370,1050.9727 " fill="none" style="stroke:#181818;stroke-width:1.5;"/><rect fill="#E2E2F0" height="32.6211" rx="2.5" ry="2.5" style="stroke:#181818;stroke-width:0.5;" width="67" x="1425.5" y="50"/><text fill="#000000" font-family="sans-serif" font-size="14" lengthAdjust="spacing" textLength="53" x="1432.5" y="72.1074">Courses</text><rect fill="#E2E2F0" height="32.6211" rx="2.5" ry="2.5" style="stroke:#181818;stroke-width:0.5;" width="67" x="1425.5" y="1022.3516"/><text fill="#000000" font-family="sans-serif" font-size="14" lengthAdjust="spacing" textLength="53" x="1432.5" y="1044.459">Courses</text><rect fill="#E2E2F0" height="32.6211" rx="2.5" ry="2.5" style="stroke:#181818;stroke-width:0.5;" width="136" x="1502.5" y="50"/><text fill="#000000" font-family="sans-serif" font-size="14" lengthAdjust="spacing" textLength="122" x="1509.5" y="72.1074">PersistenceContext</text><rect fill="#E2E2F0" height="32.6211" rx="2.5" ry="2.5" style="stroke:#181818;stroke-width:0.5;" width="136" x="1502.5" y="1022.3516"/><text fill="#000000" font-family="sans-serif" font-size="14" lengthAdjust="spacing" textLength="122" x="1509.5" y="1044.459">PersistenceContext</text><rect fill="#E2E2F0" height="32.6211" rx="2.5" ry="2.5" style="stroke:#181818;stroke-width:0.5;" width="130" x="1648.5" y="50"/><text fill="#000000" font-family="sans-serif" font-size="14" lengthAdjust="spacing" textLength="116" x="1655.5" y="72.1074">RepositoryFactory</text><rect fill="#E2E2F0" height="32.6211" rx="2.5" ry="2.5" style="stroke:#181818;stroke-width:0.5;" width="130" x="1648.5" y="1022.3516"/><text fill="#000000" font-family="sans-serif" font-size="14" lengthAdjust="spacing" textLength="116" x="1655.5" y="1044.459">RepositoryFactory</text><rect fill="#FFFFFF" height="678.4023" style="stroke:#181818;stroke-width:1.0;" width="10" x="319" y="335.9492"/><rect fill="#FFFFFF" height="606.8203" style="stroke:#181818;stroke-width:1.0;" width="10" x="643" y="367.2402"/><rect fill="#FFFFFF" height="517.9473" style="stroke:#181818;stroke-width:1.0;" width="10" x="1047" y="424.8223"/><rect fill="#FFFFFF" height="374.4922" style="stroke:#181818;stroke-width:1.0;" width="10" x="1347" y="536.9863"/><rect fill="#FFFFFF" height="38.291" style="stroke:#181818;stroke-width:1.0;" width="10" x="1454" y="654.1504"/><rect fill="#FFFFFF" height="62.582" style="stroke:#181818;stroke-width:1.0;" width="10" x="1565.5" y="723.7324"/><rect fill="#FFFFFF" height="31.291" style="stroke:#181818;stroke-width:1.0;" width="10" x="1708.5" y="817.6055"/><polygon fill="#181818" points="312,112.9121,322,116.9121,312,120.9121,316,116.9121" style="stroke:#181818;stroke-width:1.0;"/><line style="stroke:#181818;stroke-width:1.0;" x1="51" x2="318" y1="116.9121" y2="116.9121"/><text fill="#000000" font-family="sans-serif" font-size="13" font-weight="bold" lengthAdjust="spacing" textLength="7" x="58" y="111.6494">1</text><text fill="#000000" font-family="sans-serif" font-size="13" lengthAdjust="spacing" textLength="238" x="69" y="111.6494">Select the option 3. Update Course State</text><polygon fill="#181818" points="636,144.2031,646,148.2031,636,152.2031,640,148.2031" style="stroke:#181818;stroke-width:1.0;"/><line style="stroke:#181818;stroke-width:1.0;" x1="324" x2="642" y1="148.2031" y2="148.2031"/><text fill="#000000" font-family="sans-serif" font-size="13" font-weight="bold" lengthAdjust="spacing" textLength="7" x="331" y="142.9404">2</text><text fill="#000000" font-family="sans-serif" font-size="13" lengthAdjust="spacing" textLength="69" x="342" y="142.9404">allCourses()</text><polygon fill="#181818" points="484.5,175.4941,474.5,179.4941,484.5,183.4941,480.5,179.4941" style="stroke:#181818;stroke-width:1.0;"/><line style="stroke:#181818;stroke-width:1.0;stroke-dasharray:2.0,2.0;" x1="478.5" x2="647" y1="179.4941" y2="179.4941"/><text fill="#000000" font-family="sans-serif" font-size="13" font-weight="bold" lengthAdjust="spacing" textLength="7" x="490.5" y="174.2314">3</text><text fill="#000000" font-family="sans-serif" font-size="13" lengthAdjust="spacing" textLength="69" x="501.5" y="174.2314">allCourses()</text><polygon fill="#181818" points="335,206.7852,325,210.7852,335,214.7852,331,210.7852" style="stroke:#181818;stroke-width:1.0;"/><line style="stroke:#181818;stroke-width:1.0;stroke-dasharray:2.0,2.0;" x1="329" x2="472.5" y1="210.7852" y2="210.7852"/><text fill="#000000" font-family="sans-serif" font-size="13" font-weight="bold" lengthAdjust="spacing" textLength="7" x="341" y="205.5225">4</text><text fill="#000000" font-family="sans-serif" font-size="13" lengthAdjust="spacing" textLength="84" x="352" y="205.5225">ListAllCourses</text><polygon fill="#181818" points="62,238.0762,52,242.0762,62,246.0762,58,242.0762" style="stroke:#181818;stroke-width:1.0;"/><line style="stroke:#181818;stroke-width:1.0;stroke-dasharray:2.0,2.0;" x1="56" x2="323" y1="242.0762" y2="242.0762"/><text fill="#000000" font-family="sans-serif" font-size="13" font-weight="bold" lengthAdjust="spacing" textLength="7" x="68" y="236.8135">5</text><text fill="#000000" font-family="sans-serif" font-size="13" lengthAdjust="spacing" textLength="152" x="79" y="236.8135">Shows the List of Courses</text><polygon fill="#181818" points="312,269.3672,322,273.3672,312,277.3672,316,273.3672" style="stroke:#181818;stroke-width:1.0;"/><line style="stroke:#181818;stroke-width:1.0;" x1="51" x2="318" y1="273.3672" y2="273.3672"/><text fill="#000000" font-family="sans-serif" font-size="13" font-weight="bold" lengthAdjust="spacing" textLength="7" x="58" y="268.1045">6</text><text fill="#000000" font-family="sans-serif" font-size="13" lengthAdjust="spacing" textLength="109" x="69" y="268.1045">Selects the course</text><polygon fill="#181818" points="62,300.6582,52,304.6582,62,308.6582,58,304.6582" style="stroke:#181818;stroke-width:1.0;"/><line style="stroke:#181818;stroke-width:1.0;stroke-dasharray:2.0,2.0;" x1="56" x2="323" y1="304.6582" y2="304.6582"/><text fill="#000000" font-family="sans-serif" font-size="13" font-weight="bold" lengthAdjust="spacing" textLength="7" x="68" y="299.3955">7</text><text fill="#000000" font-family="sans-serif" font-size="13" lengthAdjust="spacing" textLength="128" x="79" y="299.3955">Request the newState</text><polygon fill="#181818" points="307,331.9492,317,335.9492,307,339.9492,311,335.9492" style="stroke:#181818;stroke-width:1.0;"/><line style="stroke:#181818;stroke-width:1.0;" x1="51" x2="313" y1="335.9492" y2="335.9492"/><text fill="#000000" font-family="sans-serif" font-size="13" font-weight="bold" lengthAdjust="spacing" textLength="7" x="58" y="330.6865">8</text><text fill="#000000" font-family="sans-serif" font-size="13" lengthAdjust="spacing" textLength="115" x="69" y="330.6865">Types the newState</text><polygon fill="#181818" points="631,363.2402,641,367.2402,631,371.2402,635,367.2402" style="stroke:#181818;stroke-width:1.0;"/><line style="stroke:#181818;stroke-width:1.0;" x1="329" x2="637" y1="367.2402" y2="367.2402"/><text fill="#000000" font-family="sans-serif" font-size="13" font-weight="bold" lengthAdjust="spacing" textLength="7" x="336" y="361.9775">9</text><text fill="#000000" font-family="sans-serif" font-size="13" lengthAdjust="spacing" textLength="281" x="347" y="361.9775">updateCourseState(designationName, newState)</text><polygon fill="#181818" points="1035,420.8223,1045,424.8223,1035,428.8223,1039,424.8223" style="stroke:#181818;stroke-width:1.0;"/><line style="stroke:#181818;stroke-width:1.0;" x1="653" x2="1041" y1="424.8223" y2="424.8223"/><text fill="#000000" font-family="sans-serif" font-size="13" font-weight="bold" lengthAdjust="spacing" textLength="14" x="660" y="419.5596">10</text><text fill="#000000" font-family="sans-serif" font-size="13" lengthAdjust="spacing" textLength="357" x="678" y="419.5596">updateCourseState(String designationName, String newState)</text><path d="M768,439.8223 L841,439.8223 L841,449.1133 L831,459.1133 L768,459.1133 L768,439.8223 " fill="#EEEEEE" style="stroke:#000000;stroke-width:1.5;"/><rect fill="none" height="222.3281" style="stroke:#000000;stroke-width:1.5;" width="734.5" x="768" y="439.8223"/><text fill="#000000" font-family="sans-serif" font-size="13" font-weight="bold" lengthAdjust="spacing" textLength="28" x="783" y="454.8506">loop</text><text fill="#000000" font-family="sans-serif" font-size="11" font-weight="bold" lengthAdjust="spacing" textLength="107" x="856" y="453.6924">[newState == Open]</text><path d="M794,464.1133 L794,508.1133 L1042,508.1133 L1042,474.1133 L1032,464.1133 L794,464.1133 " fill="#FEFFDD" style="stroke:#181818;stroke-width:0.5;"/><path d="M1032,464.1133 L1032,474.1133 L1042,474.1133 L1032,464.1133 " fill="#FEFFDD" style="stroke:#181818;stroke-width:0.5;"/><text fill="#000000" font-family="sans-serif" font-size="13" lengthAdjust="spacing" textLength="227" x="800" y="483.1416">Este m&#233;todo aplica-se tamb&#233;m quando</text><text fill="#000000" font-family="sans-serif" font-size="13" lengthAdjust="spacing" textLength="103" x="804" y="500.4326">newState==Close</text><polygon fill="#181818" points="1335,532.9863,1345,536.9863,1335,540.9863,1339,536.9863" style="stroke:#181818;stroke-width:1.0;"/><line style="stroke:#181818;stroke-width:1.0;" x1="1057" x2="1341" y1="536.9863" y2="536.9863"/><text fill="#000000" font-family="sans-serif" font-size="13" font-weight="bold" lengthAdjust="spacing" textLength="14" x="1064" y="531.7236">11</text><text fill="#000000" font-family="sans-serif" font-size="13" lengthAdjust="spacing" textLength="253" x="1082" y="531.7236">findCourseByDesignation(designationName)</text><polygon fill="#181818" points="1068,564.2773,1058,568.2773,1068,572.2773,1064,568.2773" style="stroke:#181818;stroke-width:1.0;"/><line style="stroke:#181818;stroke-width:1.0;stroke-dasharray:2.0,2.0;" x1="1062" x2="1346" y1="568.2773" y2="568.2773"/><text fill="#000000" font-family="sans-serif" font-size="13" font-weight="bold" lengthAdjust="spacing" textLength="14" x="1074" y="563.0146">12</text><text fill="#000000" font-family="sans-serif" font-size="13" lengthAdjust="spacing" textLength="100" x="1092" y="563.0146">designationName</text><path d="M778,581.2773 L778,625.2773 L1042,625.2773 L1042,591.2773 L1032,581.2773 L778,581.2773 " fill="#FEFFDD" style="stroke:#181818;stroke-width:0.5;"/><path d="M1032,581.2773 L1032,591.2773 L1042,591.2773 L1032,581.2773 " fill="#FEFFDD" style="stroke:#181818;stroke-width:0.5;"/><text fill="#000000" font-family="sans-serif" font-size="13" lengthAdjust="spacing" textLength="243" x="784" y="600.3057">quando newState==Close passamos a ter</text><text fill="#000000" font-family="sans-serif" font-size="13" lengthAdjust="spacing" textLength="135" x="788" y="617.5967">(course.state()==Open)</text><polygon fill="#181818" points="1442,650.1504,1452,654.1504,1442,658.1504,1446,654.1504" style="stroke:#181818;stroke-width:1.0;"/><line style="stroke:#181818;stroke-width:1.0;" x1="1057" x2="1448" y1="654.1504" y2="654.1504"/><text fill="#000000" font-family="sans-serif" font-size="13" font-weight="bold" lengthAdjust="spacing" textLength="14" x="1064" y="648.8877">13</text><text fill="#000000" font-family="sans-serif" font-size="13" lengthAdjust="spacing" textLength="281" x="1082" y="648.8877">updateCourseState(designationName, newState)</text><polygon fill="#181818" points="1068,688.4414,1058,692.4414,1068,696.4414,1064,692.4414" style="stroke:#181818;stroke-width:1.0;"/><line style="stroke:#181818;stroke-width:1.0;stroke-dasharray:2.0,2.0;" x1="1062" x2="1458" y1="692.4414" y2="692.4414"/><text fill="#000000" font-family="sans-serif" font-size="13" font-weight="bold" lengthAdjust="spacing" textLength="14" x="1074" y="687.1787">14</text><text fill="#000000" font-family="sans-serif" font-size="13" lengthAdjust="spacing" textLength="48" x="1092" y="687.1787">Courses</text><polygon fill="#181818" points="1553.5,719.7324,1563.5,723.7324,1553.5,727.7324,1557.5,723.7324" style="stroke:#181818;stroke-width:1.0;"/><line style="stroke:#181818;stroke-width:1.0;" x1="1057" x2="1559.5" y1="723.7324" y2="723.7324"/><text fill="#000000" font-family="sans-serif" font-size="13" font-weight="bold" lengthAdjust="spacing" textLength="14" x="1064" y="718.4697">15</text><text fill="#000000" font-family="sans-serif" font-size="13" lengthAdjust="spacing" textLength="75" x="1082" y="718.4697">repositories()</text><polygon fill="#181818" points="1701.5,751.0234,1711.5,755.0234,1701.5,759.0234,1705.5,755.0234" style="stroke:#181818;stroke-width:1.0;"/><line style="stroke:#181818;stroke-width:1.0;" x1="1575.5" x2="1707.5" y1="755.0234" y2="755.0234"/><text fill="#000000" font-family="sans-serif" font-size="13" font-weight="bold" lengthAdjust="spacing" textLength="14" x="1582.5" y="749.7607">16</text><text fill="#000000" font-family="sans-serif" font-size="13" lengthAdjust="spacing" textLength="47" x="1600.5" y="749.7607">update()</text><polygon fill="#181818" points="1068,782.3145,1058,786.3145,1068,790.3145,1064,786.3145" style="stroke:#181818;stroke-width:1.0;"/><line style="stroke:#181818;stroke-width:1.0;" x1="1062" x2="1569.5" y1="786.3145" y2="786.3145"/><text fill="#000000" font-family="sans-serif" font-size="13" font-weight="bold" lengthAdjust="spacing" textLength="14" x="1074" y="781.0518">17</text><text fill="#000000" font-family="sans-serif" font-size="13" lengthAdjust="spacing" textLength="39" x="1092" y="781.0518">factory</text><polygon fill="#181818" points="1696.5,813.6055,1706.5,817.6055,1696.5,821.6055,1700.5,817.6055" style="stroke:#181818;stroke-width:1.0;"/><line style="stroke:#181818;stroke-width:1.0;" x1="1057" x2="1702.5" y1="817.6055" y2="817.6055"/><text fill="#000000" font-family="sans-serif" font-size="13" font-weight="bold" lengthAdjust="spacing" textLength="14" x="1064" y="812.3428">18</text><text fill="#000000" font-family="sans-serif" font-size="13" lengthAdjust="spacing" textLength="49" x="1082" y="812.3428">Course()</text><polygon fill="#181818" points="1368,844.8965,1358,848.8965,1368,852.8965,1364,848.8965" style="stroke:#181818;stroke-width:1.0;"/><line style="stroke:#181818;stroke-width:1.0;" x1="1362" x2="1712.5" y1="848.8965" y2="848.8965"/><text fill="#000000" font-family="sans-serif" font-size="13" font-weight="bold" lengthAdjust="spacing" textLength="14" x="1374" y="843.6338">19</text><text fill="#000000" font-family="sans-serif" font-size="13" lengthAdjust="spacing" textLength="39" x="1392" y="843.6338">update</text><polygon fill="#181818" points="1068,876.1875,1058,880.1875,1068,884.1875,1064,880.1875" style="stroke:#181818;stroke-width:1.0;"/><line style="stroke:#181818;stroke-width:1.0;" x1="1062" x2="1346" y1="880.1875" y2="880.1875"/><text fill="#000000" font-family="sans-serif" font-size="13" font-weight="bold" lengthAdjust="spacing" textLength="14" x="1074" y="874.9248">20</text><text fill="#000000" font-family="sans-serif" font-size="13" lengthAdjust="spacing" textLength="110" x="1092" y="874.9248">CoursesRepository</text><polygon fill="#181818" points="1340,907.4785,1350,911.4785,1340,915.4785,1344,911.4785" style="stroke:#181818;stroke-width:1.0;"/><line style="stroke:#181818;stroke-width:1.0;" x1="1057" x2="1346" y1="911.4785" y2="911.4785"/><text fill="#000000" font-family="sans-serif" font-size="13" font-weight="bold" lengthAdjust="spacing" textLength="14" x="1064" y="906.2158">21</text><text fill="#000000" font-family="sans-serif" font-size="13" lengthAdjust="spacing" textLength="75" x="1082" y="906.2158">save(Course)</text><polygon fill="#181818" points="664,938.7695,654,942.7695,664,946.7695,660,942.7695" style="stroke:#181818;stroke-width:1.0;"/><line style="stroke:#181818;stroke-width:1.0;" x1="658" x2="1051" y1="942.7695" y2="942.7695"/><text fill="#000000" font-family="sans-serif" font-size="13" font-weight="bold" lengthAdjust="spacing" textLength="14" x="670" y="937.5068">22</text><text fill="#000000" font-family="sans-serif" font-size="13" lengthAdjust="spacing" textLength="41" x="688" y="937.5068">Course</text><polygon fill="#181818" points="340,970.0605,330,974.0605,340,978.0605,336,974.0605" style="stroke:#181818;stroke-width:1.0;"/><line style="stroke:#181818;stroke-width:1.0;" x1="334" x2="647" y1="974.0605" y2="974.0605"/><text fill="#000000" font-family="sans-serif" font-size="13" font-weight="bold" lengthAdjust="spacing" textLength="14" x="346" y="968.7979">23</text><text fill="#000000" font-family="sans-serif" font-size="13" lengthAdjust="spacing" textLength="41" x="364" y="968.7979">Course</text><polygon fill="#181818" points="62,1001.3516,52,1005.3516,62,1009.3516,58,1005.3516" style="stroke:#181818;stroke-width:1.0;"/><line style="stroke:#181818;stroke-width:1.0;" x1="56" x2="318" y1="1005.3516" y2="1005.3516"/><text fill="#000000" font-family="sans-serif" font-size="13" font-weight="bold" lengthAdjust="spacing" textLength="14" x="68" y="1000.0889">24</text><text fill="#000000" font-family="sans-serif" font-size="13" lengthAdjust="spacing" textLength="130" x="86" y="1000.0889">Confirms the operation</text><!--SRC=[dLRDZjiW4Bxp57DhB3N9eJTBhjIchLIfVzfqRxqGUvmWOV02pZQFjC-nBrOmjkC6udWt9ppCV7pppGpapS6OMgVhTSsfC4t5LxcirXeV6XGvBWj6zufMXD36ID5KErHsdHkfu3iLTEy-kmKityDzNL236zaeZLjZb_TVKzWYnzo0EI38sZ0fuDsgymJl2gqlYKH7GJTI62KvHvK2vTplw4L29ZnXQP6-CMswNLH7bkD5VB3VHaMJSguVXjWuTHlRQPC2R0_oKRSYk52G9VIny_JpiNcxTVkuErT0xKKN-EZrlNNGxrED-lyGMsfsT8MA193SgpjLe5VLjBdSN1IesLvGrpm_Q8Ll1uB91CCH2_lZKjP366GP_AnHaEcMYV0S6YSakJMAYJq4N3lx7CeTEh5ckgEwdmzzXxNKp4xTYK0y4H3IVd4iszQwJlkpjcxLyvEHXGHQSvRJfJt7q6ht_5J1GqD58V-8uO0ist1fEuvSWtGg1InJA9aelFdZwTDPaSjAZiG8KmqiyN4SShl0dgs9J_eoPQYfrhII6YWOL5QJXP- -bMxBdMIPKpwPeynhUxg_8b0KRTr9hyaD9VeuKc20DKNt5ofjRoTtzRivmByc1TNBpzexyamkT2QXoQ6U2_YbVJfElHmMBXvnFRFI8umJY_2OoZ72nZikHi87JYImN6bydzcONuWLQUmPrHnDnWk7KTCZBhmzYRJ4JE39EzkRn-1NBxUNNhdkQPe1V_lH6Lv7wreoLUdkFmcgTWh_0G00]--></g></svg>