<?xml version="1.0" encoding="UTF-8" standalone="no"?><svg xmlns="http://www.w3.org/2000/svg" xmlns:xlink="http://www.w3.org/1999/xlink" contentStyleType="text/css" height="717px" preserveAspectRatio="none" style="width:406px;height:717px;background:#FFFFFF;" version="1.1" viewBox="0 0 406 717" width="406px" zoomAndPan="magnify"><defs/><g><!--class ListGradesUI--><g id="elem_ListGradesUI"><rect codeLine="2" fill="#F1F1F1" height="64.4883" id="ListGradesUI" rx="2.5" ry="2.5" style="stroke:#181818;stroke-width:0.5;" width="117" x="150.5" y="7"/><ellipse cx="165.5" cy="23" fill="#ADD1B2" rx="11" ry="11" style="stroke:#181818;stroke-width:1.0;"/><path d="M168.4731,28.6431 Q167.8921,28.9419 167.2529,29.0913 Q166.6138,29.2407 165.9082,29.2407 Q163.4014,29.2407 162.0815,27.5889 Q160.7617,25.937 160.7617,22.8159 Q160.7617,19.6865 162.0815,18.0347 Q163.4014,16.3828 165.9082,16.3828 Q166.6138,16.3828 167.2612,16.5322 Q167.9087,16.6816 168.4731,16.9805 L168.4731,19.7031 Q167.8423,19.1221 167.2488,18.8523 Q166.6553,18.5825 166.0244,18.5825 Q164.6797,18.5825 163.9949,19.6492 Q163.3101,20.7158 163.3101,22.8159 Q163.3101,24.9077 163.9949,25.9744 Q164.6797,27.041 166.0244,27.041 Q166.6553,27.041 167.2488,26.7712 Q167.8423,26.5015 168.4731,25.9204 Z " fill="#000000"/><text fill="#000000" font-family="sans-serif" font-size="14" lengthAdjust="spacing" textLength="85" x="179.5" y="28.291">ListGradesUI</text><line style="stroke:#181818;stroke-width:0.5;" x1="151.5" x2="266.5" y1="39" y2="39"/><line style="stroke:#181818;stroke-width:0.5;" x1="151.5" x2="266.5" y1="47" y2="47"/><ellipse cx="161.5" cy="60.7441" fill="#84BE84" rx="3" ry="3" style="stroke:#038048;stroke-width:1.0;"/><text fill="#000000" font-family="sans-serif" font-size="14" lengthAdjust="spacing" textLength="65" x="170.5" y="64.5352">doShow()</text></g><!--class ListGradesController--><g id="elem_ListGradesController"><rect codeLine="6" fill="#F1F1F1" height="48" id="ListGradesController" rx="2.5" ry="2.5" style="stroke:#181818;stroke-width:0.5;" width="173" x="122.5" y="131.49"/><ellipse cx="137.5" cy="147.49" fill="#ADD1B2" rx="11" ry="11" style="stroke:#181818;stroke-width:1.0;"/><path d="M140.4731,153.1331 Q139.8921,153.4319 139.2529,153.5813 Q138.6138,153.7307 137.9082,153.7307 Q135.4014,153.7307 134.0815,152.0789 Q132.7617,150.427 132.7617,147.3059 Q132.7617,144.1765 134.0815,142.5247 Q135.4014,140.8728 137.9082,140.8728 Q138.6138,140.8728 139.2612,141.0222 Q139.9087,141.1716 140.4731,141.4705 L140.4731,144.1931 Q139.8423,143.6121 139.2488,143.3423 Q138.6553,143.0725 138.0244,143.0725 Q136.6797,143.0725 135.9949,144.1392 Q135.3101,145.2058 135.3101,147.3059 Q135.3101,149.3977 135.9949,150.4644 Q136.6797,151.531 138.0244,151.531 Q138.6553,151.531 139.2488,151.2612 Q139.8423,150.9915 140.4731,150.4104 Z " fill="#000000"/><text fill="#000000" font-family="sans-serif" font-size="14" lengthAdjust="spacing" textLength="141" x="151.5" y="152.781">ListGradesController</text><line style="stroke:#181818;stroke-width:0.5;" x1="123.5" x2="294.5" y1="163.49" y2="163.49"/><line style="stroke:#181818;stroke-width:0.5;" x1="123.5" x2="294.5" y1="171.49" y2="171.49"/></g><!--class GradesRepository--><g id="elem_GradesRepository"><rect codeLine="9" fill="#F1F1F1" height="80.9766" id="GradesRepository" rx="2.5" ry="2.5" style="stroke:#181818;stroke-width:0.5;" width="160" x="65" y="629.44"/><ellipse cx="83.15" cy="645.44" fill="#ADD1B2" rx="11" ry="11" style="stroke:#181818;stroke-width:1.0;"/><path d="M86.1231,651.0831 Q85.5421,651.3819 84.9029,651.5313 Q84.2638,651.6807 83.5582,651.6807 Q81.0514,651.6807 79.7315,650.0289 Q78.4117,648.377 78.4117,645.2559 Q78.4117,642.1265 79.7315,640.4747 Q81.0514,638.8228 83.5582,638.8228 Q84.2638,638.8228 84.9112,638.9722 Q85.5587,639.1216 86.1231,639.4205 L86.1231,642.1431 Q85.4923,641.5621 84.8988,641.2923 Q84.3053,641.0225 83.6744,641.0225 Q82.3297,641.0225 81.6449,642.0892 Q80.9601,643.1558 80.9601,645.2559 Q80.9601,647.3477 81.6449,648.4144 Q82.3297,649.481 83.6744,649.481 Q84.3053,649.481 84.8988,649.2112 Q85.4923,648.9415 86.1231,648.3604 Z " fill="#000000"/><text fill="#000000" font-family="sans-serif" font-size="14" lengthAdjust="spacing" textLength="121" x="97.85" y="650.731">GradesRepository</text><line style="stroke:#181818;stroke-width:0.5;" x1="66" x2="224" y1="661.44" y2="661.44"/><line style="stroke:#181818;stroke-width:0.5;" x1="66" x2="224" y1="669.44" y2="669.44"/><ellipse cx="76" cy="683.1841" fill="#84BE84" rx="3" ry="3" style="stroke:#038048;stroke-width:1.0;"/><text fill="#000000" font-family="sans-serif" font-size="14" lengthAdjust="spacing" textLength="134" x="85" y="686.9752">findByDesignation()</text><ellipse cx="76" cy="699.6724" fill="#84BE84" rx="3" ry="3" style="stroke:#038048;stroke-width:1.0;"/><text fill="#000000" font-family="sans-serif" font-size="14" lengthAdjust="spacing" textLength="55" x="85" y="703.4634">findAll()</text></g><!--class PersistenceContext--><g id="elem_PersistenceContext"><rect codeLine="14" fill="#F1F1F1" height="80.9766" id="PersistenceContext" rx="2.5" ry="2.5" style="stroke:#181818;stroke-width:0.5;" width="276" x="7" y="363.98"/><ellipse cx="74.75" cy="379.98" fill="#ADD1B2" rx="11" ry="11" style="stroke:#181818;stroke-width:1.0;"/><path d="M77.7231,385.6231 Q77.1421,385.9219 76.5029,386.0713 Q75.8638,386.2207 75.1582,386.2207 Q72.6514,386.2207 71.3315,384.5689 Q70.0117,382.917 70.0117,379.7959 Q70.0117,376.6665 71.3315,375.0147 Q72.6514,373.3628 75.1582,373.3628 Q75.8638,373.3628 76.5112,373.5122 Q77.1587,373.6616 77.7231,373.9605 L77.7231,376.6831 Q77.0923,376.1021 76.4988,375.8323 Q75.9053,375.5625 75.2744,375.5625 Q73.9297,375.5625 73.2449,376.6292 Q72.5601,377.6958 72.5601,379.7959 Q72.5601,381.8877 73.2449,382.9544 Q73.9297,384.021 75.2744,384.021 Q75.9053,384.021 76.4988,383.7512 Q77.0923,383.4815 77.7231,382.9004 Z " fill="#000000"/><text fill="#000000" font-family="sans-serif" font-size="14" lengthAdjust="spacing" textLength="132" x="95.25" y="385.271">PersistenceContext</text><line style="stroke:#181818;stroke-width:0.5;" x1="8" x2="282" y1="395.98" y2="395.98"/><rect fill="none" height="6" style="stroke:#C82930;stroke-width:1.0;" width="6" x="15" y="406.7241"/><text fill="#000000" font-family="sans-serif" font-size="14" lengthAdjust="spacing" textLength="250" x="27" y="413.5152">GradesRepository: GradesRepository</text><line style="stroke:#181818;stroke-width:0.5;" x1="8" x2="282" y1="420.4683" y2="420.4683"/><ellipse cx="18" cy="434.2124" fill="#84BE84" rx="3" ry="3" style="stroke:#038048;stroke-width:1.0;"/><text fill="#000000" font-family="sans-serif" font-size="14" lengthAdjust="spacing" textLength="92" x="27" y="438.0034">repositories()</text></g><!--class ListGradesService--><g id="elem_ListGradesService"><rect codeLine="20" fill="#F1F1F1" height="64.4883" id="ListGradesService" rx="2.5" ry="2.5" style="stroke:#181818;stroke-width:0.5;" width="151" x="133.5" y="239.49"/><ellipse cx="148.5" cy="255.49" fill="#ADD1B2" rx="11" ry="11" style="stroke:#181818;stroke-width:1.0;"/><path d="M151.4731,261.1331 Q150.8921,261.4319 150.2529,261.5813 Q149.6138,261.7307 148.9082,261.7307 Q146.4014,261.7307 145.0815,260.0789 Q143.7617,258.427 143.7617,255.3059 Q143.7617,252.1765 145.0815,250.5247 Q146.4014,248.8728 148.9082,248.8728 Q149.6138,248.8728 150.2612,249.0222 Q150.9087,249.1716 151.4731,249.4705 L151.4731,252.1931 Q150.8423,251.6121 150.2488,251.3423 Q149.6553,251.0725 149.0244,251.0725 Q147.6797,251.0725 146.9949,252.1392 Q146.3101,253.2058 146.3101,255.3059 Q146.3101,257.3977 146.9949,258.4644 Q147.6797,259.531 149.0244,259.531 Q149.6553,259.531 150.2488,259.2612 Q150.8423,258.9915 151.4731,258.4104 Z " fill="#000000"/><text fill="#000000" font-family="sans-serif" font-size="14" lengthAdjust="spacing" textLength="119" x="162.5" y="260.781">ListGradesService</text><line style="stroke:#181818;stroke-width:0.5;" x1="134.5" x2="283.5" y1="271.49" y2="271.49"/><line style="stroke:#181818;stroke-width:0.5;" x1="134.5" x2="283.5" y1="279.49" y2="279.49"/><ellipse cx="144.5" cy="293.2341" fill="#84BE84" rx="3" ry="3" style="stroke:#038048;stroke-width:1.0;"/><text fill="#000000" font-family="sans-serif" font-size="14" lengthAdjust="spacing" textLength="81" x="153.5" y="297.0252">ListGrades()</text></g><!--class RepositoryFactory--><g id="elem_RepositoryFactory"><rect codeLine="24" fill="#F1F1F1" height="64.4883" id="RepositoryFactory" rx="2.5" ry="2.5" style="stroke:#181818;stroke-width:0.5;" width="155" x="67.5" y="504.96"/><ellipse cx="82.5" cy="520.96" fill="#ADD1B2" rx="11" ry="11" style="stroke:#181818;stroke-width:1.0;"/><path d="M85.4731,526.6031 Q84.8921,526.9019 84.2529,527.0513 Q83.6138,527.2007 82.9082,527.2007 Q80.4014,527.2007 79.0815,525.5489 Q77.7617,523.897 77.7617,520.7759 Q77.7617,517.6465 79.0815,515.9947 Q80.4014,514.3428 82.9082,514.3428 Q83.6138,514.3428 84.2612,514.4922 Q84.9087,514.6416 85.4731,514.9405 L85.4731,517.6631 Q84.8423,517.0821 84.2488,516.8123 Q83.6553,516.5425 83.0244,516.5425 Q81.6797,516.5425 80.9949,517.6092 Q80.3101,518.6758 80.3101,520.7759 Q80.3101,522.8677 80.9949,523.9344 Q81.6797,525.001 83.0244,525.001 Q83.6553,525.001 84.2488,524.7312 Q84.8423,524.4615 85.4731,523.8804 Z " fill="#000000"/><text fill="#000000" font-family="sans-serif" font-size="14" lengthAdjust="spacing" textLength="123" x="96.5" y="526.251">RepositoryFactory</text><line style="stroke:#181818;stroke-width:0.5;" x1="68.5" x2="221.5" y1="536.96" y2="536.96"/><line style="stroke:#181818;stroke-width:0.5;" x1="68.5" x2="221.5" y1="544.96" y2="544.96"/><ellipse cx="78.5" cy="558.7041" fill="#84BE84" rx="3" ry="3" style="stroke:#038048;stroke-width:1.0;"/><text fill="#000000" font-family="sans-serif" font-size="14" lengthAdjust="spacing" textLength="52" x="87.5" y="562.4952">create()</text></g><!--class Grades--><g id="elem_Grades"><rect codeLine="28" fill="#F1F1F1" height="48" id="Grades" rx="2.5" ry="2.5" style="stroke:#181818;stroke-width:0.5;" width="80" x="319" y="247.73"/><ellipse cx="334" cy="263.73" fill="#ADD1B2" rx="11" ry="11" style="stroke:#181818;stroke-width:1.0;"/><path d="M336.9731,269.3731 Q336.3921,269.6719 335.7529,269.8213 Q335.1138,269.9707 334.4082,269.9707 Q331.9014,269.9707 330.5815,268.3189 Q329.2617,266.667 329.2617,263.5459 Q329.2617,260.4165 330.5815,258.7647 Q331.9014,257.1128 334.4082,257.1128 Q335.1138,257.1128 335.7612,257.2622 Q336.4087,257.4116 336.9731,257.7105 L336.9731,260.4331 Q336.3423,259.8521 335.7488,259.5823 Q335.1553,259.3125 334.5244,259.3125 Q333.1797,259.3125 332.4949,260.3792 Q331.8101,261.4458 331.8101,263.5459 Q331.8101,265.6377 332.4949,266.7044 Q333.1797,267.771 334.5244,267.771 Q335.1553,267.771 335.7488,267.5012 Q336.3423,267.2315 336.9731,266.6504 Z " fill="#000000"/><text fill="#000000" font-family="sans-serif" font-size="14" lengthAdjust="spacing" textLength="48" x="348" y="269.021">Grades</text><line style="stroke:#181818;stroke-width:0.5;" x1="320" x2="398" y1="279.73" y2="279.73"/><line style="stroke:#181818;stroke-width:0.5;" x1="320" x2="398" y1="287.73" y2="287.73"/></g><!--link ListGradesUI to ListGradesController--><g id="link_ListGradesUI_ListGradesController"><path codeLine="31" d="M209,71.77 C209,88.47 209,108.86 209,125.22 " fill="none" id="ListGradesUI-to-ListGradesController" style="stroke:#181818;stroke-width:1.0;"/><polygon fill="#181818" points="209,130.05,213,121.05,209,125.05,205,121.05,209,130.05" style="stroke:#181818;stroke-width:1.0;"/></g><!--link ListGradesController to PersistenceContext--><g id="link_ListGradesController_PersistenceContext"><path codeLine="32" d="M170.03,179.71 C149.85,194.11 127.15,214.6 116,239.49 C99.01,277.43 110.26,324.49 123.38,358.45 " fill="none" id="ListGradesController-to-PersistenceContext" style="stroke:#181818;stroke-width:1.0;"/><polygon fill="#181818" points="125.5,362.79,125.8975,352.9492,123.6554,358.1427,118.4618,355.9006,125.5,362.79" style="stroke:#181818;stroke-width:1.0;"/></g><!--link ListGradesController to ListGradesService--><g id="link_ListGradesController_ListGradesService"><path codeLine="33" d="M209,179.89 C209,195.25 209,215.69 209,233.29 " fill="none" id="ListGradesController-to-ListGradesService" style="stroke:#181818;stroke-width:1.0;"/><polygon fill="#181818" points="209,238.14,213,229.14,209,233.14,205,229.14,209,238.14" style="stroke:#181818;stroke-width:1.0;"/></g><!--link ListGradesController to Grades--><g id="link_ListGradesController_Grades"><path codeLine="34" d="M239.72,179.89 C264.08,198.44 298.17,224.4 323.67,243.82 " fill="none" id="ListGradesController-to-Grades" style="stroke:#181818;stroke-width:1.0;"/><polygon fill="#181818" points="327.32,247.37,322.589,238.7318,323.3442,244.3381,317.7379,245.0932,327.32,247.37" style="stroke:#181818;stroke-width:1.0;"/></g><!--link PersistenceContext to RepositoryFactory--><g id="link_PersistenceContext_RepositoryFactory"><path codeLine="35" d="M145,445.4 C145,462.54 145,482.44 145,499.23 " fill="none" id="PersistenceContext-to-RepositoryFactory" style="stroke:#181818;stroke-width:1.0;"/><polygon fill="#181818" points="145,503.8,149,494.8,145,498.8,141,494.8,145,503.8" style="stroke:#181818;stroke-width:1.0;"/></g><!--link RepositoryFactory to GradesRepository--><g id="link_RepositoryFactory_GradesRepository"><path codeLine="36" d="M145,569.85 C145,585.87 145,605.61 145,623.25 " fill="none" id="RepositoryFactory-to-GradesRepository" style="stroke:#181818;stroke-width:1.0;"/><polygon fill="#181818" points="145,628.14,149,619.14,145,623.14,141,619.14,145,628.14" style="stroke:#181818;stroke-width:1.0;"/></g><!--link ListGradesService to PersistenceContext--><g id="link_ListGradesService_PersistenceContext"><path codeLine="37" d="M193.51,304.38 C185.53,320.68 175.66,340.84 166.91,358.7 " fill="none" id="ListGradesService-to-PersistenceContext" style="stroke:#181818;stroke-width:1.0;"/><polygon fill="#181818" points="164.48,362.68,172.0344,356.3609,166.6817,358.1908,164.8517,352.8382,164.48,362.68" style="stroke:#181818;stroke-width:1.0;"/></g><!--SRC=[TP1D2i8m48NtEKMNYlG2BWH_K0GNOl408Hqr41AP2MeHxsvAR1ixRNR9U_bctbD64cK7JNw7iWGwxxEtoCAPbQwukUTaAZv2g9vhxQn7PmnWSBTwr4vmTwIzmweXNRGjLzK6I5-jzDhP06s5fJ7fZ2CWXJ5W5TH3uEL_bBnFdxDv4OhDNGD5Cbk_07ne1Sr-dP1kqd6tKgLn58Bqa5hZvrZ5NvLvlXXiJGnMMRjv_d4l2pHkZOzYeDrQPL453zzHai9vfICPlW00]--></g></svg>