<?xml version="1.0" encoding="us-ascii" standalone="no"?><svg xmlns="http://www.w3.org/2000/svg" xmlns:xlink="http://www.w3.org/1999/xlink" contentStyleType="text/css" height="587px" preserveAspectRatio="none" style="width:966px;height:587px;background:#FFFFFF;" version="1.1" viewBox="0 0 966 587" width="966px" zoomAndPan="magnify"><defs/><g><rect fill="#FFFFFF" height="323.1953" style="stroke:#181818;stroke-width:1.0;" width="10" x="108" y="151.8594"/><rect fill="#FFFFFF" height="275.0625" style="stroke:#181818;stroke-width:1.0;" width="10" x="260" y="185.9922"/><rect fill="#FFFFFF" height="57.1328" style="stroke:#181818;stroke-width:1.0;" width="10" x="601.5" y="273.3906"/><rect fill="#FFFFFF" height="14" style="stroke:#181818;stroke-width:1.0;" width="10" x="743" y="302.5234"/><rect fill="#FFFFFF" height="14" style="stroke:#181818;stroke-width:1.0;" width="10" x="893.5" y="417.9219"/><line style="stroke:#181818;stroke-width:0.5;stroke-dasharray:5.0,5.0;" x1="23" x2="23" y1="83.5938" y2="493.0547"/><line style="stroke:#181818;stroke-width:0.5;stroke-dasharray:5.0,5.0;" x1="113" x2="113" y1="83.5938" y2="493.0547"/><line style="stroke:#181818;stroke-width:0.5;stroke-dasharray:5.0,5.0;" x1="265" x2="265" y1="83.5938" y2="493.0547"/><line style="stroke:#181818;stroke-width:0.5;stroke-dasharray:5.0,5.0;" x1="434" x2="434" y1="83.5938" y2="493.0547"/><line style="stroke:#181818;stroke-width:0.5;stroke-dasharray:5.0,5.0;" x1="606.5" x2="606.5" y1="83.5938" y2="493.0547"/><line style="stroke:#181818;stroke-width:0.5;stroke-dasharray:5.0,5.0;" x1="747.5" x2="747.5" y1="83.5938" y2="493.0547"/><line style="stroke:#181818;stroke-width:0.5;stroke-dasharray:5.0,5.0;" x1="898.5" x2="898.5" y1="83.5938" y2="493.0547"/><text fill="#000000" font-family="sans-serif" font-size="14" lengthAdjust="spacing" textLength="31" x="5" y="80.292">User</text><ellipse cx="23.5" cy="15.7969" fill="#E2E2F0" rx="8" ry="8" style="stroke:#181818;stroke-width:0.5;"/><path d="M23.5,23.7969 L23.5,50.7969 M10.5,31.7969 L36.5,31.7969 M23.5,50.7969 L10.5,65.7969 M23.5,50.7969 L36.5,65.7969 " fill="none" style="stroke:#181818;stroke-width:0.5;"/><text fill="#000000" font-family="sans-serif" font-size="14" lengthAdjust="spacing" textLength="31" x="5" y="505.0498">User</text><ellipse cx="23.5" cy="516.8516" fill="#E2E2F0" rx="8" ry="8" style="stroke:#181818;stroke-width:0.5;"/><path d="M23.5,524.8516 L23.5,551.8516 M10.5,532.8516 L36.5,532.8516 M23.5,551.8516 L10.5,566.8516 M23.5,551.8516 L36.5,566.8516 " fill="none" style="stroke:#181818;stroke-width:0.5;"/><rect fill="#E2E2F0" height="46.5938" rx="2.5" ry="2.5" style="stroke:#181818;stroke-width:0.5;" width="122" x="52" y="36"/><text fill="#000000" font-family="sans-serif" font-size="14" font-style="italic" lengthAdjust="spacing" textLength="108" x="59" y="55.9951">&#171;presentation&#187;</text><text fill="#000000" font-family="sans-serif" font-size="14" lengthAdjust="spacing" textLength="88" x="69" y="72.292">ListCourseUI</text><rect fill="#E2E2F0" height="46.5938" rx="2.5" ry="2.5" style="stroke:#181818;stroke-width:0.5;" width="122" x="52" y="492.0547"/><text fill="#000000" font-family="sans-serif" font-size="14" font-style="italic" lengthAdjust="spacing" textLength="108" x="59" y="512.0498">&#171;presentation&#187;</text><text fill="#000000" font-family="sans-serif" font-size="14" lengthAdjust="spacing" textLength="88" x="69" y="528.3467">ListCourseUI</text><rect fill="#E2E2F0" height="46.5938" rx="2.5" ry="2.5" style="stroke:#181818;stroke-width:0.5;" width="162" x="184" y="36"/><text fill="#000000" font-family="sans-serif" font-size="14" font-style="italic" lengthAdjust="spacing" textLength="88" x="221" y="55.9951">&#171;aplication&#187;</text><text fill="#000000" font-family="sans-serif" font-size="14" lengthAdjust="spacing" textLength="148" x="191" y="72.292">ListCourseController</text><rect fill="#E2E2F0" height="46.5938" rx="2.5" ry="2.5" style="stroke:#181818;stroke-width:0.5;" width="162" x="184" y="492.0547"/><text fill="#000000" font-family="sans-serif" font-size="14" font-style="italic" lengthAdjust="spacing" textLength="88" x="221" y="512.0498">&#171;aplication&#187;</text><text fill="#000000" font-family="sans-serif" font-size="14" lengthAdjust="spacing" textLength="148" x="191" y="528.3467">ListCourseController</text><rect fill="#E2E2F0" height="46.5938" rx="2.5" ry="2.5" style="stroke:#181818;stroke-width:0.5;" width="157" x="356" y="36"/><text fill="#000000" font-family="sans-serif" font-size="14" font-style="italic" lengthAdjust="spacing" textLength="100" x="384.5" y="55.9951">&#171;persistence&#187;</text><text fill="#000000" font-family="sans-serif" font-size="14" lengthAdjust="spacing" textLength="143" x="363" y="72.292">PersistenceContext</text><rect fill="#E2E2F0" height="46.5938" rx="2.5" ry="2.5" style="stroke:#181818;stroke-width:0.5;" width="157" x="356" y="492.0547"/><text fill="#000000" font-family="sans-serif" font-size="14" font-style="italic" lengthAdjust="spacing" textLength="100" x="384.5" y="512.0498">&#171;persistence&#187;</text><text fill="#000000" font-family="sans-serif" font-size="14" lengthAdjust="spacing" textLength="143" x="363" y="528.3467">PersistenceContext</text><rect fill="#E2E2F0" height="46.5938" rx="2.5" ry="2.5" style="stroke:#181818;stroke-width:0.5;" width="116" x="548.5" y="36"/><text fill="#000000" font-family="sans-serif" font-size="14" font-style="italic" lengthAdjust="spacing" textLength="102" x="555.5" y="55.9951">&#171;appSettings&#187;</text><text fill="#000000" font-family="sans-serif" font-size="14" lengthAdjust="spacing" textLength="91" x="561" y="72.292">AppSettings</text><rect fill="#E2E2F0" height="46.5938" rx="2.5" ry="2.5" style="stroke:#181818;stroke-width:0.5;" width="116" x="548.5" y="492.0547"/><text fill="#000000" font-family="sans-serif" font-size="14" font-style="italic" lengthAdjust="spacing" textLength="102" x="555.5" y="512.0498">&#171;appSettings&#187;</text><text fill="#000000" font-family="sans-serif" font-size="14" lengthAdjust="spacing" textLength="91" x="561" y="528.3467">AppSettings</text><rect fill="#E2E2F0" height="46.5938" rx="2.5" ry="2.5" style="stroke:#181818;stroke-width:0.5;" width="147" x="674.5" y="36"/><text fill="#000000" font-family="sans-serif" font-size="14" font-style="italic" lengthAdjust="spacing" textLength="68" x="714" y="55.9951">&#171;factory&#187;</text><text fill="#000000" font-family="sans-serif" font-size="14" lengthAdjust="spacing" textLength="133" x="681.5" y="72.292">RepositoryFactory</text><rect fill="#E2E2F0" height="46.5938" rx="2.5" ry="2.5" style="stroke:#181818;stroke-width:0.5;" width="147" x="674.5" y="492.0547"/><text fill="#000000" font-family="sans-serif" font-size="14" font-style="italic" lengthAdjust="spacing" textLength="68" x="714" y="512.0498">&#171;factory&#187;</text><text fill="#000000" font-family="sans-serif" font-size="14" lengthAdjust="spacing" textLength="133" x="681.5" y="528.3467">RepositoryFactory</text><text fill="#000000" font-family="sans-serif" font-size="14" font-style="italic" lengthAdjust="spacing" textLength="90" x="850.5" y="63.9951">&#171;repository&#187;</text><text fill="#000000" font-family="sans-serif" font-size="14" lengthAdjust="spacing" textLength="128" x="831.5" y="80.292">CourseRepository</text><path d="M880.5,15 C880.5,5 898.5,5 898.5,5 C898.5,5 916.5,5 916.5,15 L916.5,41 C916.5,51 898.5,51 898.5,51 C898.5,51 880.5,51 880.5,41 L880.5,15 " fill="#E2E2F0" style="stroke:#181818;stroke-width:1.5;"/><path d="M880.5,15 C880.5,25 898.5,25 898.5,25 C898.5,25 916.5,25 916.5,15 " fill="none" style="stroke:#181818;stroke-width:1.5;"/><text fill="#000000" font-family="sans-serif" font-size="14" font-style="italic" lengthAdjust="spacing" textLength="90" x="850.5" y="505.0498">&#171;repository&#187;</text><text fill="#000000" font-family="sans-serif" font-size="14" lengthAdjust="spacing" textLength="128" x="831.5" y="521.3467">CourseRepository</text><path d="M880.5,534.6484 C880.5,524.6484 898.5,524.6484 898.5,524.6484 C898.5,524.6484 916.5,524.6484 916.5,534.6484 L916.5,560.6484 C916.5,570.6484 898.5,570.6484 898.5,570.6484 C898.5,570.6484 880.5,570.6484 880.5,560.6484 L880.5,534.6484 " fill="#E2E2F0" style="stroke:#181818;stroke-width:1.5;"/><path d="M880.5,534.6484 C880.5,544.6484 898.5,544.6484 898.5,544.6484 C898.5,544.6484 916.5,544.6484 916.5,534.6484 " fill="none" style="stroke:#181818;stroke-width:1.5;"/><rect fill="#FFFFFF" height="323.1953" style="stroke:#181818;stroke-width:1.0;" width="10" x="108" y="151.8594"/><rect fill="#FFFFFF" height="275.0625" style="stroke:#181818;stroke-width:1.0;" width="10" x="260" y="185.9922"/><rect fill="#FFFFFF" height="57.1328" style="stroke:#181818;stroke-width:1.0;" width="10" x="601.5" y="273.3906"/><rect fill="#FFFFFF" height="14" style="stroke:#181818;stroke-width:1.0;" width="10" x="743" y="302.5234"/><rect fill="#FFFFFF" height="14" style="stroke:#181818;stroke-width:1.0;" width="10" x="893.5" y="417.9219"/><polygon fill="#181818" points="101,110.7266,111,114.7266,101,118.7266,105,114.7266" style="stroke:#181818;stroke-width:1.0;"/><line style="stroke:#181818;stroke-width:1.0;" x1="23.5" x2="107" y1="114.7266" y2="114.7266"/><text fill="#000000" font-family="sans-serif" font-size="13" lengthAdjust="spacing" textLength="44" x="30.5" y="109.6606">show()</text><line style="stroke:#181818;stroke-width:1.0;" x1="113" x2="160" y1="138.8594" y2="138.8594"/><line style="stroke:#181818;stroke-width:1.0;" x1="160" x2="160" y1="138.8594" y2="151.8594"/><line style="stroke:#181818;stroke-width:1.0;" x1="119" x2="160" y1="151.8594" y2="151.8594"/><polygon fill="#181818" points="129,147.8594,119,151.8594,129,155.8594,125,151.8594" style="stroke:#181818;stroke-width:1.0;"/><text fill="#000000" font-family="sans-serif" font-size="13" lengthAdjust="spacing" textLength="61" x="125" y="133.7935">doShow()</text><polygon fill="#181818" points="248,181.9922,258,185.9922,248,189.9922,252,185.9922" style="stroke:#181818;stroke-width:1.0;"/><line style="stroke:#181818;stroke-width:1.0;" x1="118" x2="254" y1="185.9922" y2="185.9922"/><text fill="#000000" font-family="sans-serif" font-size="13" lengthAdjust="spacing" textLength="84" x="125" y="180.9263">ListCourses()</text><polygon fill="#181818" points="422.5,211.125,432.5,215.125,422.5,219.125,426.5,215.125" style="stroke:#181818;stroke-width:1.0;"/><line style="stroke:#181818;stroke-width:1.0;" x1="270" x2="428.5" y1="215.125" y2="215.125"/><text fill="#000000" font-family="sans-serif" font-size="13" lengthAdjust="spacing" textLength="89" x="277" y="210.0591">Repositories()</text><polygon fill="#181818" points="594.5,240.2578,604.5,244.2578,594.5,248.2578,598.5,244.2578" style="stroke:#181818;stroke-width:1.0;"/><line style="stroke:#181818;stroke-width:1.0;" x1="434.5" x2="600.5" y1="244.2578" y2="244.2578"/><text fill="#000000" font-family="sans-serif" font-size="13" lengthAdjust="spacing" textLength="64" x="441.5" y="239.1919">instance()</text><polygon fill="#181818" points="589.5,269.3906,599.5,273.3906,589.5,277.3906,593.5,273.3906" style="stroke:#181818;stroke-width:1.0;"/><line style="stroke:#181818;stroke-width:1.0;" x1="434.5" x2="595.5" y1="273.3906" y2="273.3906"/><text fill="#000000" font-family="sans-serif" font-size="13" lengthAdjust="spacing" textLength="148" x="441.5" y="268.3247">getRepositoryFactory()</text><polygon fill="#181818" points="731,298.5234,741,302.5234,731,306.5234,735,302.5234" style="stroke:#181818;stroke-width:1.0;"/><line style="stroke:#181818;stroke-width:1.0;stroke-dasharray:2.0,2.0;" x1="611.5" x2="737" y1="302.5234" y2="302.5234"/><text fill="#000000" font-family="sans-serif" font-size="13" lengthAdjust="spacing" textLength="41" x="618.5" y="297.4575">create</text><polygon fill="#181818" points="622.5,312.5234,612.5,316.5234,622.5,320.5234,618.5,316.5234" style="stroke:#181818;stroke-width:1.0;"/><line style="stroke:#181818;stroke-width:1.0;stroke-dasharray:2.0,2.0;" x1="616.5" x2="747" y1="316.5234" y2="316.5234"/><polygon fill="#181818" points="281,326.5234,271,330.5234,281,334.5234,277,330.5234" style="stroke:#181818;stroke-width:1.0;"/><line style="stroke:#181818;stroke-width:1.0;stroke-dasharray:2.0,2.0;" x1="275" x2="605.5" y1="330.5234" y2="330.5234"/><polygon fill="#181818" points="736,355.6563,746,359.6563,736,363.6563,740,359.6563" style="stroke:#181818;stroke-width:1.0;"/><line style="stroke:#181818;stroke-width:1.0;" x1="270" x2="742" y1="359.6563" y2="359.6563"/><text fill="#000000" font-family="sans-serif" font-size="13" lengthAdjust="spacing" textLength="62" x="277" y="354.5903">Courses()</text><polygon fill="#181818" points="886.5,384.7891,896.5,388.7891,886.5,392.7891,890.5,388.7891" style="stroke:#181818;stroke-width:1.0;"/><line style="stroke:#181818;stroke-width:1.0;stroke-dasharray:2.0,2.0;" x1="748" x2="892.5" y1="388.7891" y2="388.7891"/><text fill="#000000" font-family="sans-serif" font-size="13" lengthAdjust="spacing" textLength="51" x="755" y="383.7231">create()</text><polygon fill="#181818" points="881.5,413.9219,891.5,417.9219,881.5,421.9219,885.5,417.9219" style="stroke:#181818;stroke-width:1.0;"/><line style="stroke:#181818;stroke-width:1.0;" x1="270" x2="887.5" y1="417.9219" y2="417.9219"/><text fill="#000000" font-family="sans-serif" font-size="13" lengthAdjust="spacing" textLength="64" x="277" y="412.856">List = all()</text><polygon fill="#181818" points="281,427.9219,271,431.9219,281,435.9219,277,431.9219" style="stroke:#181818;stroke-width:1.0;"/><line style="stroke:#181818;stroke-width:1.0;stroke-dasharray:2.0,2.0;" x1="275" x2="897.5" y1="431.9219" y2="431.9219"/><polygon fill="#181818" points="129,457.0547,119,461.0547,129,465.0547,125,461.0547" style="stroke:#181818;stroke-width:1.0;"/><line style="stroke:#181818;stroke-width:1.0;stroke-dasharray:2.0,2.0;" x1="123" x2="264" y1="461.0547" y2="461.0547"/><text fill="#000000" font-family="sans-serif" font-size="13" lengthAdjust="spacing" textLength="22" x="135" y="455.9888">List</text><polygon fill="#181818" points="34.5,471.0547,24.5,475.0547,34.5,479.0547,30.5,475.0547" style="stroke:#181818;stroke-width:1.0;"/><line style="stroke:#181818;stroke-width:1.0;stroke-dasharray:2.0,2.0;" x1="28.5" x2="112" y1="475.0547" y2="475.0547"/><!--SRC=[XLJRQiCm37tFL_XnU-WF1AzG2eF17iPAFy1BjSuGOcDhb_xz93krvInbUWYMVCwnT6nY1dH17IC4PQBQSTPv4z0Erfi9rREDk7UV8SBnYH7qrTe7Y32XGUkcxVO6Vkyc36uSixB8j3P-jCCQ-mL2906OXaI77sIkgFBXDLkmTzuV0D5EvvY6yJwTLOeB-2ju5oqDV7aqFFU5ITUbrkzvHQIJGVDc8gWyMEKnGMHQXv8GhKjkgisMJEjL_73VT_ST-JSNJkwGItIE_J88LEqKHOPKmtfXQYGyOmgdmbATGrXDEiAylZPhYnA7D9WeP5olx1JHKE4Vs1dmZu-2KleaS2boyELiI6Icz6e8GBW6KyWpgDcyNjGcTzBidU0czNhkYcyjKMgsZfQMsojPDbLjwVDi0jSA2cIwQlMWp3YkkLYHpRpY3TwOJGoseY7RcLydzz4jc0jTVgTiVlfd2DZnwHS0]--></g></svg>