<?xml version="1.0" encoding="us-ascii" standalone="no"?><svg xmlns="http://www.w3.org/2000/svg" xmlns:xlink="http://www.w3.org/1999/xlink" contentStyleType="text/css" height="537px" preserveAspectRatio="none" style="width:400px;height:537px;background:#FFFFFF;" version="1.1" viewBox="0 0 400 537" width="400px" zoomAndPan="magnify"><defs/><g><!--class AcceptRejectMeetingUI--><g id="elem_AcceptRejectMeetingUI"><rect codeLine="3" fill="#F1F1F1" height="66.6211" id="AcceptRejectMeetingUI" rx="2.5" ry="2.5" style="stroke:#181818;stroke-width:0.5;" width="177" x="125" y="7"/><ellipse cx="140" cy="23" fill="#ADD1B2" rx="11" ry="11" style="stroke:#181818;stroke-width:1.0;"/><path d="M142.7656,18.875 Q142.9219,18.6563 143.1094,18.5469 Q143.2969,18.4375 143.5156,18.4375 Q143.8906,18.4375 144.125,18.7031 Q144.3594,18.9531 144.3594,19.5625 L144.3594,21.0156 Q144.3594,21.625 144.125,21.8906 Q143.8906,22.1563 143.5156,22.1563 Q143.1719,22.1563 142.9688,21.9531 Q142.7656,21.7656 142.6563,21.25 Q142.6094,20.8906 142.4219,20.7031 Q142.0938,20.3281 141.4844,20.1094 Q140.875,19.8906 140.25,19.8906 Q139.4844,19.8906 138.8438,20.2188 Q138.2188,20.5469 137.7188,21.2969 Q137.2344,22.0469 137.2344,23.0781 L137.2344,24.1719 Q137.2344,25.4063 138.125,26.2344 Q139.0156,27.0469 140.6094,27.0469 Q141.5469,27.0469 142.2031,26.7969 Q142.5938,26.6406 143.0156,26.2031 Q143.2813,25.9375 143.4219,25.8594 Q143.5781,25.7813 143.7813,25.7813 Q144.1094,25.7813 144.3594,26.0469 Q144.625,26.2969 144.625,26.6406 Q144.625,26.9844 144.2813,27.3906 Q143.7813,27.9688 142.9844,28.2969 Q141.9063,28.75 140.6094,28.75 Q139.0938,28.75 137.8906,28.125 Q136.9063,27.625 136.2188,26.5625 Q135.5313,25.4844 135.5313,24.2031 L135.5313,23.0469 Q135.5313,21.7188 136.1406,20.5781 Q136.7656,19.4219 137.8594,18.8125 Q138.9531,18.1875 140.1875,18.1875 Q140.9219,18.1875 141.5625,18.3594 Q142.2188,18.5156 142.7656,18.875 Z " fill="#000000"/><text fill="#000000" font-family="sans-serif" font-size="14" lengthAdjust="spacing" textLength="145" x="154" y="28.7969">AcceptRejectMeetingUI</text><line style="stroke:#181818;stroke-width:0.5;" x1="126" x2="301" y1="39" y2="39"/><line style="stroke:#181818;stroke-width:0.5;" x1="126" x2="301" y1="47" y2="47"/><ellipse cx="136" cy="61.8105" fill="#84BE84" rx="3" ry="3" style="stroke:#038048;stroke-width:1.0;"/><text fill="#000000" font-family="sans-serif" font-size="14" lengthAdjust="spacing" textLength="60" x="145" y="66.1074">doShow()</text></g><!--class AcceptRejectMeetingsController--><g id="elem_AcceptRejectMeetingsController"><rect codeLine="7" fill="#F1F1F1" height="103.8633" id="AcceptRejectMeetingsController" rx="2.5" ry="2.5" style="stroke:#181818;stroke-width:0.5;" width="234" x="96.5" y="153"/><ellipse cx="111.5" cy="169" fill="#ADD1B2" rx="11" ry="11" style="stroke:#181818;stroke-width:1.0;"/><path d="M114.2656,164.875 Q114.4219,164.6563 114.6094,164.5469 Q114.7969,164.4375 115.0156,164.4375 Q115.3906,164.4375 115.625,164.7031 Q115.8594,164.9531 115.8594,165.5625 L115.8594,167.0156 Q115.8594,167.625 115.625,167.8906 Q115.3906,168.1563 115.0156,168.1563 Q114.6719,168.1563 114.4688,167.9531 Q114.2656,167.7656 114.1563,167.25 Q114.1094,166.8906 113.9219,166.7031 Q113.5938,166.3281 112.9844,166.1094 Q112.375,165.8906 111.75,165.8906 Q110.9844,165.8906 110.3438,166.2188 Q109.7188,166.5469 109.2188,167.2969 Q108.7344,168.0469 108.7344,169.0781 L108.7344,170.1719 Q108.7344,171.4063 109.625,172.2344 Q110.5156,173.0469 112.1094,173.0469 Q113.0469,173.0469 113.7031,172.7969 Q114.0938,172.6406 114.5156,172.2031 Q114.7813,171.9375 114.9219,171.8594 Q115.0781,171.7813 115.2813,171.7813 Q115.6094,171.7813 115.8594,172.0469 Q116.125,172.2969 116.125,172.6406 Q116.125,172.9844 115.7813,173.3906 Q115.2813,173.9688 114.4844,174.2969 Q113.4063,174.75 112.1094,174.75 Q110.5938,174.75 109.3906,174.125 Q108.4063,173.625 107.7188,172.5625 Q107.0313,171.4844 107.0313,170.2031 L107.0313,169.0469 Q107.0313,167.7188 107.6406,166.5781 Q108.2656,165.4219 109.3594,164.8125 Q110.4531,164.1875 111.6875,164.1875 Q112.4219,164.1875 113.0625,164.3594 Q113.7188,164.5156 114.2656,164.875 Z " fill="#000000"/><text fill="#000000" font-family="sans-serif" font-size="14" lengthAdjust="spacing" textLength="202" x="125.5" y="174.7969">AcceptRejectMeetingsController</text><line style="stroke:#181818;stroke-width:0.5;" x1="97.5" x2="329.5" y1="185" y2="185"/><line style="stroke:#181818;stroke-width:0.5;" x1="97.5" x2="329.5" y1="193" y2="193"/><ellipse cx="107.5" cy="207.8105" fill="#84BE84" rx="3" ry="3" style="stroke:#038048;stroke-width:1.0;"/><text fill="#000000" font-family="sans-serif" font-size="14" lengthAdjust="spacing" textLength="155" x="116.5" y="212.1074">acceptMeetingRequest()</text><ellipse cx="107.5" cy="226.4316" fill="#84BE84" rx="3" ry="3" style="stroke:#038048;stroke-width:1.0;"/><text fill="#000000" font-family="sans-serif" font-size="14" lengthAdjust="spacing" textLength="148" x="116.5" y="230.7285">rejectMeetingRequest()</text><ellipse cx="107.5" cy="245.0527" fill="#84BE84" rx="3" ry="3" style="stroke:#038048;stroke-width:1.0;"/><text fill="#000000" font-family="sans-serif" font-size="14" lengthAdjust="spacing" textLength="129" x="116.5" y="249.3496">listMeetingsByUser()</text></g><!--class ParticipantMeetingService--><g id="elem_ParticipantMeetingService"><rect codeLine="14" fill="#F1F1F1" height="66.6211" id="ParticipantMeetingService" rx="2.5" ry="2.5" style="stroke:#181818;stroke-width:0.5;" width="196" x="115.5" y="336"/><ellipse cx="130.5" cy="352" fill="#ADD1B2" rx="11" ry="11" style="stroke:#181818;stroke-width:1.0;"/><path d="M133.2656,347.875 Q133.4219,347.6563 133.6094,347.5469 Q133.7969,347.4375 134.0156,347.4375 Q134.3906,347.4375 134.625,347.7031 Q134.8594,347.9531 134.8594,348.5625 L134.8594,350.0156 Q134.8594,350.625 134.625,350.8906 Q134.3906,351.1563 134.0156,351.1563 Q133.6719,351.1563 133.4688,350.9531 Q133.2656,350.7656 133.1563,350.25 Q133.1094,349.8906 132.9219,349.7031 Q132.5938,349.3281 131.9844,349.1094 Q131.375,348.8906 130.75,348.8906 Q129.9844,348.8906 129.3438,349.2188 Q128.7188,349.5469 128.2188,350.2969 Q127.7344,351.0469 127.7344,352.0781 L127.7344,353.1719 Q127.7344,354.4063 128.625,355.2344 Q129.5156,356.0469 131.1094,356.0469 Q132.0469,356.0469 132.7031,355.7969 Q133.0938,355.6406 133.5156,355.2031 Q133.7813,354.9375 133.9219,354.8594 Q134.0781,354.7813 134.2813,354.7813 Q134.6094,354.7813 134.8594,355.0469 Q135.125,355.2969 135.125,355.6406 Q135.125,355.9844 134.7813,356.3906 Q134.2813,356.9688 133.4844,357.2969 Q132.4063,357.75 131.1094,357.75 Q129.5938,357.75 128.3906,357.125 Q127.4063,356.625 126.7188,355.5625 Q126.0313,354.4844 126.0313,353.2031 L126.0313,352.0469 Q126.0313,350.7188 126.6406,349.5781 Q127.2656,348.4219 128.3594,347.8125 Q129.4531,347.1875 130.6875,347.1875 Q131.4219,347.1875 132.0625,347.3594 Q132.7188,347.5156 133.2656,347.875 Z " fill="#000000"/><text fill="#000000" font-family="sans-serif" font-size="14" lengthAdjust="spacing" textLength="164" x="144.5" y="357.7969">ParticipantMeetingService</text><line style="stroke:#181818;stroke-width:0.5;" x1="116.5" x2="310.5" y1="368" y2="368"/><line style="stroke:#181818;stroke-width:0.5;" x1="116.5" x2="310.5" y1="376" y2="376"/><ellipse cx="126.5" cy="390.8105" fill="#84BE84" rx="3" ry="3" style="stroke:#038048;stroke-width:1.0;"/><text fill="#000000" font-family="sans-serif" font-size="14" lengthAdjust="spacing" textLength="132" x="135.5" y="395.1074">getMeetingsByUser()</text></g><!--class MeetingRequestRepository--><g id="elem_MeetingRequestRepository"><rect codeLine="18" fill="#F1F1F1" height="48" id="MeetingRequestRepository" rx="2.5" ry="2.5" style="stroke:#181818;stroke-width:0.5;" width="203" x="7" y="482"/><ellipse cx="22" cy="498" fill="#ADD1B2" rx="11" ry="11" style="stroke:#181818;stroke-width:1.0;"/><path d="M24.7656,493.875 Q24.9219,493.6563 25.1094,493.5469 Q25.2969,493.4375 25.5156,493.4375 Q25.8906,493.4375 26.125,493.7031 Q26.3594,493.9531 26.3594,494.5625 L26.3594,496.0156 Q26.3594,496.625 26.125,496.8906 Q25.8906,497.1563 25.5156,497.1563 Q25.1719,497.1563 24.9688,496.9531 Q24.7656,496.7656 24.6563,496.25 Q24.6094,495.8906 24.4219,495.7031 Q24.0938,495.3281 23.4844,495.1094 Q22.875,494.8906 22.25,494.8906 Q21.4844,494.8906 20.8438,495.2188 Q20.2188,495.5469 19.7188,496.2969 Q19.2344,497.0469 19.2344,498.0781 L19.2344,499.1719 Q19.2344,500.4063 20.125,501.2344 Q21.0156,502.0469 22.6094,502.0469 Q23.5469,502.0469 24.2031,501.7969 Q24.5938,501.6406 25.0156,501.2031 Q25.2813,500.9375 25.4219,500.8594 Q25.5781,500.7813 25.7813,500.7813 Q26.1094,500.7813 26.3594,501.0469 Q26.625,501.2969 26.625,501.6406 Q26.625,501.9844 26.2813,502.3906 Q25.7813,502.9688 24.9844,503.2969 Q23.9063,503.75 22.6094,503.75 Q21.0938,503.75 19.8906,503.125 Q18.9063,502.625 18.2188,501.5625 Q17.5313,500.4844 17.5313,499.2031 L17.5313,498.0469 Q17.5313,496.7188 18.1406,495.5781 Q18.7656,494.4219 19.8594,493.8125 Q20.9531,493.1875 22.1875,493.1875 Q22.9219,493.1875 23.5625,493.3594 Q24.2188,493.5156 24.7656,493.875 Z " fill="#000000"/><text fill="#000000" font-family="sans-serif" font-size="14" lengthAdjust="spacing" textLength="171" x="36" y="503.7969">MeetingRequestRepository</text><line style="stroke:#181818;stroke-width:0.5;" x1="8" x2="209" y1="514" y2="514"/><line style="stroke:#181818;stroke-width:0.5;" x1="8" x2="209" y1="522" y2="522"/></g><!--class RepositoryFactory--><g id="elem_RepositoryFactory"><rect codeLine="21" fill="#F1F1F1" height="48" id="RepositoryFactory" rx="2.5" ry="2.5" style="stroke:#181818;stroke-width:0.5;" width="148" x="245.5" y="482"/><ellipse cx="260.5" cy="498" fill="#ADD1B2" rx="11" ry="11" style="stroke:#181818;stroke-width:1.0;"/><path d="M263.2656,493.875 Q263.4219,493.6563 263.6094,493.5469 Q263.7969,493.4375 264.0156,493.4375 Q264.3906,493.4375 264.625,493.7031 Q264.8594,493.9531 264.8594,494.5625 L264.8594,496.0156 Q264.8594,496.625 264.625,496.8906 Q264.3906,497.1563 264.0156,497.1563 Q263.6719,497.1563 263.4688,496.9531 Q263.2656,496.7656 263.1563,496.25 Q263.1094,495.8906 262.9219,495.7031 Q262.5938,495.3281 261.9844,495.1094 Q261.375,494.8906 260.75,494.8906 Q259.9844,494.8906 259.3438,495.2188 Q258.7188,495.5469 258.2188,496.2969 Q257.7344,497.0469 257.7344,498.0781 L257.7344,499.1719 Q257.7344,500.4063 258.625,501.2344 Q259.5156,502.0469 261.1094,502.0469 Q262.0469,502.0469 262.7031,501.7969 Q263.0938,501.6406 263.5156,501.2031 Q263.7813,500.9375 263.9219,500.8594 Q264.0781,500.7813 264.2813,500.7813 Q264.6094,500.7813 264.8594,501.0469 Q265.125,501.2969 265.125,501.6406 Q265.125,501.9844 264.7813,502.3906 Q264.2813,502.9688 263.4844,503.2969 Q262.4063,503.75 261.1094,503.75 Q259.5938,503.75 258.3906,503.125 Q257.4063,502.625 256.7188,501.5625 Q256.0313,500.4844 256.0313,499.2031 L256.0313,498.0469 Q256.0313,496.7188 256.6406,495.5781 Q257.2656,494.4219 258.3594,493.8125 Q259.4531,493.1875 260.6875,493.1875 Q261.4219,493.1875 262.0625,493.3594 Q262.7188,493.5156 263.2656,493.875 Z " fill="#000000"/><text fill="#000000" font-family="sans-serif" font-size="14" lengthAdjust="spacing" textLength="116" x="274.5" y="503.7969">RepositoryFactory</text><line style="stroke:#181818;stroke-width:0.5;" x1="246.5" x2="392.5" y1="514" y2="514"/><line style="stroke:#181818;stroke-width:0.5;" x1="246.5" x2="392.5" y1="522" y2="522"/></g><!--link AcceptRejectMeetingUI to AcceptRejectMeetingsController--><g id="link_AcceptRejectMeetingUI_AcceptRejectMeetingsController"><path codeLine="24" d="M213.5,74.38 C213.5,95.42 213.5,123.27 213.5,147.75 " fill="none" id="AcceptRejectMeetingUI-to-AcceptRejectMeetingsController" style="stroke:#181818;stroke-width:1.0;"/><polygon fill="#181818" points="213.5,152.92,217.5,143.92,213.5,147.92,209.5,143.92,213.5,152.92" style="stroke:#181818;stroke-width:1.0;"/><text fill="#000000" font-family="sans-serif" font-size="13" lengthAdjust="spacing" textLength="107" x="214.5" y="119.0283">uses the controller</text></g><!--link AcceptRejectMeetingsController to ParticipantMeetingService--><g id="link_AcceptRejectMeetingsController_ParticipantMeetingService"><path codeLine="25" d="M213.5,257.42 C213.5,281.17 213.5,308.89 213.5,330.69 " fill="none" id="AcceptRejectMeetingsController-to-ParticipantMeetingService" style="stroke:#181818;stroke-width:1.0;"/><polygon fill="#181818" points="213.5,335.81,217.5,326.81,213.5,330.81,209.5,326.81,213.5,335.81" style="stroke:#181818;stroke-width:1.0;"/><text fill="#000000" font-family="sans-serif" font-size="13" lengthAdjust="spacing" textLength="65" x="214.5" y="302.0283">get the List</text></g><!--link ParticipantMeetingService to RepositoryFactory--><g id="link_ParticipantMeetingService_RepositoryFactory"><path codeLine="26" d="M268.32,403.34 C279.19,411.88 289.65,421.86 297.5,433 C306.62,445.94 312.03,462.75 315.21,476.88 " fill="none" id="ParticipantMeetingService-to-RepositoryFactory" style="stroke:#181818;stroke-width:1.0;"/><polygon fill="#181818" points="316.28,481.95,318.3458,472.3202,315.2528,477.0566,310.5164,473.9637,316.28,481.95" style="stroke:#181818;stroke-width:1.0;"/></g><!--link ParticipantMeetingService to MeetingRequestRepository--><g id="link_ParticipantMeetingService_MeetingRequestRepository"><path codeLine="27" d="M160.52,403.26 C149.75,411.86 139.34,421.88 131.5,433 C122.34,445.99 116.7,462.8 113.3,476.92 " fill="none" id="ParticipantMeetingService-to-MeetingRequestRepository" style="stroke:#181818;stroke-width:1.0;"/><polygon fill="#181818" points="112.14,481.98,118.0461,474.0985,113.2549,477.1059,110.2475,472.3147,112.14,481.98" style="stroke:#181818;stroke-width:1.0;"/><text fill="#000000" font-family="sans-serif" font-size="13" lengthAdjust="spacing" textLength="160" x="132.5" y="448.0283">find Meetings By Username</text></g><!--SRC=[XP31JiCm44Jl_egz0K9fxZbKeaX8I5IgKlK3B6T9Z1pRzMwe8iI_rmsj0vIGlTdpPbOxDmspfoBFlP6MkzOib6jpPIHHLcbP1zaACJpXGIdqNE8RAbuZihRrxXa-1CIvXyfj6tUulHEV__3qw2m7Pmo6P9G3TWPAt7T876E-nF3T_LiqcbBmgjyHXYYD-pSoi5RQnxlEr1R3krQOLjTuxK_sdqjBz8uqkz17TsB6toUfHl7lfhBA7MosdEi5e82Ea80R19N-nOmjYydJ5yVCUEmG-H9R4zFaAUVgh1b-ighB5F2gRNNX25OzdEgsiaLn1000]--></g></svg>