<?xml version="1.0" encoding="us-ascii" standalone="no"?><svg xmlns="http://www.w3.org/2000/svg" xmlns:xlink="http://www.w3.org/1999/xlink" contentStyleType="text/css" height="989px" preserveAspectRatio="none" style="width:1454px;height:989px;background:#FFFFFF;" version="1.1" viewBox="0 0 1454 989" width="1454px" zoomAndPan="magnify"><defs/><g><rect fill="#FFFFFF" height="773.6152" style="stroke:#181818;stroke-width:1.0;" width="10" x="17.5" y="98.2422"/><rect fill="#FFFFFF" height="733.0332" style="stroke:#181818;stroke-width:1.0;" width="10" x="332.5" y="138.8242"/><rect fill="#FFFFFF" height="670.4512" style="stroke:#181818;stroke-width:1.0;" width="10" x="522.5" y="170.1152"/><rect fill="#FFFFFF" height="187.7461" style="stroke:#181818;stroke-width:1.0;" width="10" x="722" y="201.4063"/><rect fill="#FFFFFF" height="31.291" style="stroke:#181818;stroke-width:1.0;" width="10" x="889" y="232.6973"/><rect fill="#FFFFFF" height="31.291" style="stroke:#181818;stroke-width:1.0;" width="10" x="889" y="684.1113"/><rect fill="#FFFFFF" height="31.291" style="stroke:#181818;stroke-width:1.0;" width="10" x="1032" y="295.2793"/><rect fill="#FFFFFF" height="31.291" style="stroke:#181818;stroke-width:1.0;" width="10" x="1195.5" y="326.5703"/><rect fill="#FFFFFF" height="31.291" style="stroke:#181818;stroke-width:1.0;" width="10" x="1195.5" y="777.9844"/><rect fill="none" height="124.5039" style="stroke:#000000;stroke-width:1.5;" width="285.5" x="417" y="529.3164"/><line style="stroke:#181818;stroke-width:0.5;stroke-dasharray:5.0,5.0;" x1="22" x2="22" y1="88.2422" y2="889.8574"/><line style="stroke:#181818;stroke-width:0.5;stroke-dasharray:5.0,5.0;" x1="337" x2="337" y1="88.2422" y2="889.8574"/><line style="stroke:#181818;stroke-width:0.5;stroke-dasharray:5.0,5.0;" x1="527" x2="527" y1="88.2422" y2="889.8574"/><line style="stroke:#181818;stroke-width:0.5;stroke-dasharray:5.0,5.0;" x1="727" x2="727" y1="88.2422" y2="889.8574"/><line style="stroke:#181818;stroke-width:0.5;stroke-dasharray:5.0,5.0;" x1="894" x2="894" y1="88.2422" y2="889.8574"/><line style="stroke:#181818;stroke-width:0.5;stroke-dasharray:5.0,5.0;" x1="1037" x2="1037" y1="88.2422" y2="889.8574"/><line style="stroke:#181818;stroke-width:0.5;stroke-dasharray:5.0,5.0;" x1="1200" x2="1200" y1="88.2422" y2="889.8574"/><line style="stroke:#181818;stroke-width:0.5;stroke-dasharray:5.0,5.0;" x1="1373" x2="1373" y1="88.2422" y2="889.8574"/><text fill="#000000" font-family="sans-serif" font-size="14" lengthAdjust="spacing" textLength="29" x="5" y="84.7285">User</text><ellipse cx="22.5" cy="18.1211" fill="#E2E2F0" rx="8" ry="8" style="stroke:#181818;stroke-width:0.5;"/><path d="M22.5,26.1211 L22.5,53.1211 M9.5,34.1211 L35.5,34.1211 M22.5,53.1211 L9.5,68.1211 M22.5,53.1211 L35.5,68.1211 " fill="none" style="stroke:#181818;stroke-width:0.5;"/><text fill="#000000" font-family="sans-serif" font-size="14" lengthAdjust="spacing" textLength="29" x="5" y="903.9648">User</text><ellipse cx="22.5" cy="915.9785" fill="#E2E2F0" rx="8" ry="8" style="stroke:#181818;stroke-width:0.5;"/><path d="M22.5,923.9785 L22.5,950.9785 M9.5,931.9785 L35.5,931.9785 M22.5,950.9785 L9.5,965.9785 M22.5,950.9785 L35.5,965.9785 " fill="none" style="stroke:#181818;stroke-width:0.5;"/><rect fill="#E2E2F0" height="51.2422" rx="2.5" ry="2.5" style="stroke:#181818;stroke-width:0.5;" width="159" x="258" y="36"/><text fill="#000000" font-family="sans-serif" font-size="14" font-style="italic" lengthAdjust="spacing" textLength="96" x="289.5" y="58.1074">&#171;Presentation&#187;</text><text fill="#000000" font-family="sans-serif" font-size="14" lengthAdjust="spacing" textLength="145" x="265" y="76.7285">AcceptRejectMeetingUI</text><rect fill="#E2E2F0" height="51.2422" rx="2.5" ry="2.5" style="stroke:#181818;stroke-width:0.5;" width="159" x="258" y="888.8574"/><text fill="#000000" font-family="sans-serif" font-size="14" font-style="italic" lengthAdjust="spacing" textLength="96" x="289.5" y="910.9648">&#171;Presentation&#187;</text><text fill="#000000" font-family="sans-serif" font-size="14" lengthAdjust="spacing" textLength="145" x="265" y="929.5859">AcceptRejectMeetingUI</text><text fill="#000000" font-family="sans-serif" font-size="14" font-style="italic" lengthAdjust="spacing" textLength="85" x="482" y="66.1074">&#171;Application&#187;</text><text fill="#000000" font-family="sans-serif" font-size="14" lengthAdjust="spacing" textLength="195" x="427" y="84.7285">AcceptRejectMeetingController</text><ellipse cx="527.5" cy="35" fill="#E2E2F0" rx="12" ry="12" style="stroke:#181818;stroke-width:0.5;"/><polygon fill="#181818" points="523.5,23,529.5,18,527.5,23,529.5,28,523.5,23" style="stroke:#181818;stroke-width:1.0;"/><text fill="#000000" font-family="sans-serif" font-size="14" font-style="italic" lengthAdjust="spacing" textLength="85" x="482" y="903.9648">&#171;Application&#187;</text><text fill="#000000" font-family="sans-serif" font-size="14" lengthAdjust="spacing" textLength="195" x="427" y="922.5859">AcceptRejectMeetingController</text><ellipse cx="527.5" cy="942.0996" fill="#E2E2F0" rx="12" ry="12" style="stroke:#181818;stroke-width:0.5;"/><polygon fill="#181818" points="523.5,930.0996,529.5,925.0996,527.5,930.0996,529.5,935.0996,523.5,930.0996" style="stroke:#181818;stroke-width:1.0;"/><rect fill="#E2E2F0" height="51.2422" rx="2.5" ry="2.5" style="stroke:#181818;stroke-width:0.5;" width="178" x="638" y="36"/><text fill="#000000" font-family="sans-serif" font-size="14" font-style="italic" lengthAdjust="spacing" textLength="85" x="684.5" y="58.1074">&#171;Application&#187;</text><text fill="#000000" font-family="sans-serif" font-size="14" lengthAdjust="spacing" textLength="164" x="645" y="76.7285">ParticipantMeetingService</text><rect fill="#E2E2F0" height="51.2422" rx="2.5" ry="2.5" style="stroke:#181818;stroke-width:0.5;" width="178" x="638" y="888.8574"/><text fill="#000000" font-family="sans-serif" font-size="14" font-style="italic" lengthAdjust="spacing" textLength="85" x="684.5" y="910.9648">&#171;Application&#187;</text><text fill="#000000" font-family="sans-serif" font-size="14" lengthAdjust="spacing" textLength="164" x="645" y="929.5859">ParticipantMeetingService</text><rect fill="#E2E2F0" height="51.2422" rx="2.5" ry="2.5" style="stroke:#181818;stroke-width:0.5;" width="136" x="826" y="36"/><text fill="#000000" font-family="sans-serif" font-size="14" font-style="italic" lengthAdjust="spacing" textLength="89" x="849.5" y="58.1074">&#171;persistence&#187;</text><text fill="#000000" font-family="sans-serif" font-size="14" lengthAdjust="spacing" textLength="122" x="833" y="76.7285">PersistenceContext</text><rect fill="#E2E2F0" height="51.2422" rx="2.5" ry="2.5" style="stroke:#181818;stroke-width:0.5;" width="136" x="826" y="888.8574"/><text fill="#000000" font-family="sans-serif" font-size="14" font-style="italic" lengthAdjust="spacing" textLength="89" x="849.5" y="910.9648">&#171;persistence&#187;</text><text fill="#000000" font-family="sans-serif" font-size="14" lengthAdjust="spacing" textLength="122" x="833" y="929.5859">PersistenceContext</text><rect fill="#E2E2F0" height="51.2422" rx="2.5" ry="2.5" style="stroke:#181818;stroke-width:0.5;" width="130" x="972" y="36"/><text fill="#000000" font-family="sans-serif" font-size="14" font-style="italic" lengthAdjust="spacing" textLength="59" x="1007.5" y="58.1074">&#171;factory&#187;</text><text fill="#000000" font-family="sans-serif" font-size="14" lengthAdjust="spacing" textLength="116" x="979" y="76.7285">RepositoryFactory</text><rect fill="#E2E2F0" height="51.2422" rx="2.5" ry="2.5" style="stroke:#181818;stroke-width:0.5;" width="130" x="972" y="888.8574"/><text fill="#000000" font-family="sans-serif" font-size="14" font-style="italic" lengthAdjust="spacing" textLength="59" x="1007.5" y="910.9648">&#171;factory&#187;</text><text fill="#000000" font-family="sans-serif" font-size="14" lengthAdjust="spacing" textLength="116" x="979" y="929.5859">RepositoryFactory</text><text fill="#000000" font-family="sans-serif" font-size="14" font-style="italic" lengthAdjust="spacing" textLength="84" x="1155.5" y="66.1074">&#171;Repository&#187;</text><text fill="#000000" font-family="sans-serif" font-size="14" lengthAdjust="spacing" textLength="171" x="1112" y="84.7285">MeetingRequestRepository</text><path d="M1182.5,15 C1182.5,5 1200.5,5 1200.5,5 C1200.5,5 1218.5,5 1218.5,15 L1218.5,41 C1218.5,51 1200.5,51 1200.5,51 C1200.5,51 1182.5,51 1182.5,41 L1182.5,15 " fill="#E2E2F0" style="stroke:#181818;stroke-width:1.5;"/><path d="M1182.5,15 C1182.5,25 1200.5,25 1200.5,25 C1200.5,25 1218.5,25 1218.5,15 " fill="none" style="stroke:#181818;stroke-width:1.5;"/><text fill="#000000" font-family="sans-serif" font-size="14" font-style="italic" lengthAdjust="spacing" textLength="84" x="1155.5" y="903.9648">&#171;Repository&#187;</text><text fill="#000000" font-family="sans-serif" font-size="14" lengthAdjust="spacing" textLength="171" x="1112" y="922.5859">MeetingRequestRepository</text><path d="M1182.5,936.0996 C1182.5,926.0996 1200.5,926.0996 1200.5,926.0996 C1200.5,926.0996 1218.5,926.0996 1218.5,936.0996 L1218.5,962.0996 C1218.5,972.0996 1200.5,972.0996 1200.5,972.0996 C1200.5,972.0996 1182.5,972.0996 1182.5,962.0996 L1182.5,936.0996 " fill="#E2E2F0" style="stroke:#181818;stroke-width:1.5;"/><path d="M1182.5,936.0996 C1182.5,946.0996 1200.5,946.0996 1200.5,946.0996 C1200.5,946.0996 1218.5,946.0996 1218.5,936.0996 " fill="none" style="stroke:#181818;stroke-width:1.5;"/><rect fill="#E2E2F0" height="51.2422" rx="2.5" ry="2.5" style="stroke:#181818;stroke-width:0.5;" width="149" x="1299" y="36"/><text fill="#000000" font-family="sans-serif" font-size="14" font-style="italic" lengthAdjust="spacing" textLength="64" x="1341.5" y="58.1074">&#171;Domain&#187;</text><text fill="#000000" font-family="sans-serif" font-size="14" lengthAdjust="spacing" textLength="135" x="1306" y="76.7285">ParticipantOfMettings</text><rect fill="#E2E2F0" height="51.2422" rx="2.5" ry="2.5" style="stroke:#181818;stroke-width:0.5;" width="149" x="1299" y="888.8574"/><text fill="#000000" font-family="sans-serif" font-size="14" font-style="italic" lengthAdjust="spacing" textLength="64" x="1341.5" y="910.9648">&#171;Domain&#187;</text><text fill="#000000" font-family="sans-serif" font-size="14" lengthAdjust="spacing" textLength="135" x="1306" y="929.5859">ParticipantOfMettings</text><rect fill="#FFFFFF" height="773.6152" style="stroke:#181818;stroke-width:1.0;" width="10" x="17.5" y="98.2422"/><rect fill="#FFFFFF" height="733.0332" style="stroke:#181818;stroke-width:1.0;" width="10" x="332.5" y="138.8242"/><rect fill="#FFFFFF" height="670.4512" style="stroke:#181818;stroke-width:1.0;" width="10" x="522.5" y="170.1152"/><rect fill="#FFFFFF" height="187.7461" style="stroke:#181818;stroke-width:1.0;" width="10" x="722" y="201.4063"/><rect fill="#FFFFFF" height="31.291" style="stroke:#181818;stroke-width:1.0;" width="10" x="889" y="232.6973"/><rect fill="#FFFFFF" height="31.291" style="stroke:#181818;stroke-width:1.0;" width="10" x="889" y="684.1113"/><rect fill="#FFFFFF" height="31.291" style="stroke:#181818;stroke-width:1.0;" width="10" x="1032" y="295.2793"/><rect fill="#FFFFFF" height="31.291" style="stroke:#181818;stroke-width:1.0;" width="10" x="1195.5" y="326.5703"/><rect fill="#FFFFFF" height="31.291" style="stroke:#181818;stroke-width:1.0;" width="10" x="1195.5" y="777.9844"/><polygon fill="#181818" points="320.5,134.8242,330.5,138.8242,320.5,142.8242,324.5,138.8242" style="stroke:#181818;stroke-width:1.0;"/><line style="stroke:#181818;stroke-width:1.0;" x1="27.5" x2="326.5" y1="138.8242" y2="138.8242"/><text fill="#000000" font-family="sans-serif" font-size="13" font-weight="bold" lengthAdjust="spacing" textLength="7" x="34.5" y="124.916">1</text><text fill="#000000" font-family="sans-serif" font-size="13" lengthAdjust="spacing" textLength="173" x="45.5" y="116.2705">Select the option Meeting and</text><text fill="#000000" font-family="sans-serif" font-size="13" lengthAdjust="spacing" textLength="186" x="49.5" y="133.5615">option Accept or Reject Meeting</text><polygon fill="#181818" points="510.5,166.1152,520.5,170.1152,510.5,174.1152,514.5,170.1152" style="stroke:#181818;stroke-width:1.0;"/><line style="stroke:#181818;stroke-width:1.0;" x1="342.5" x2="516.5" y1="170.1152" y2="170.1152"/><text fill="#000000" font-family="sans-serif" font-size="13" font-weight="bold" lengthAdjust="spacing" textLength="7" x="349.5" y="164.8525">2</text><text fill="#000000" font-family="sans-serif" font-size="13" lengthAdjust="spacing" textLength="121" x="360.5" y="164.8525">listMeetingsByUser()</text><polygon fill="#181818" points="710,197.4063,720,201.4063,710,205.4063,714,201.4063" style="stroke:#181818;stroke-width:1.0;"/><line style="stroke:#181818;stroke-width:1.0;" x1="532.5" x2="716" y1="201.4063" y2="201.4063"/><text fill="#000000" font-family="sans-serif" font-size="13" font-weight="bold" lengthAdjust="spacing" textLength="7" x="539.5" y="196.1436">3</text><text fill="#000000" font-family="sans-serif" font-size="13" lengthAdjust="spacing" textLength="122" x="550.5" y="196.1436">getMeetingsByUser()</text><polygon fill="#181818" points="877,228.6973,887,232.6973,877,236.6973,881,232.6973" style="stroke:#181818;stroke-width:1.0;"/><line style="stroke:#181818;stroke-width:1.0;" x1="732" x2="883" y1="232.6973" y2="232.6973"/><text fill="#000000" font-family="sans-serif" font-size="13" font-weight="bold" lengthAdjust="spacing" textLength="7" x="739" y="227.4346">4</text><text fill="#000000" font-family="sans-serif" font-size="13" lengthAdjust="spacing" textLength="75" x="750" y="227.4346">repositories()</text><polygon fill="#181818" points="743,259.9883,733,263.9883,743,267.9883,739,263.9883" style="stroke:#181818;stroke-width:1.0;"/><line style="stroke:#181818;stroke-width:1.0;stroke-dasharray:2.0,2.0;" x1="737" x2="893" y1="263.9883" y2="263.9883"/><text fill="#000000" font-family="sans-serif" font-size="13" font-weight="bold" lengthAdjust="spacing" textLength="7" x="749" y="258.7256">5</text><text fill="#000000" font-family="sans-serif" font-size="13" lengthAdjust="spacing" textLength="62" x="760" y="258.7256">theFactory</text><polygon fill="#181818" points="1020,291.2793,1030,295.2793,1020,299.2793,1024,295.2793" style="stroke:#181818;stroke-width:1.0;"/><line style="stroke:#181818;stroke-width:1.0;" x1="732" x2="1026" y1="295.2793" y2="295.2793"/><text fill="#000000" font-family="sans-serif" font-size="13" font-weight="bold" lengthAdjust="spacing" textLength="7" x="739" y="290.0166">6</text><text fill="#000000" font-family="sans-serif" font-size="13" lengthAdjust="spacing" textLength="109" x="750" y="290.0166">meetingRequests()</text><polygon fill="#181818" points="1183.5,322.5703,1193.5,326.5703,1183.5,330.5703,1187.5,326.5703" style="stroke:#181818;stroke-width:1.0;"/><line style="stroke:#181818;stroke-width:1.0;" x1="1037" x2="1189.5" y1="326.5703" y2="326.5703"/><text fill="#000000" font-family="sans-serif" font-size="13" font-weight="bold" lengthAdjust="spacing" textLength="7" x="1044" y="321.3076">7</text><text fill="#000000" font-family="sans-serif" font-size="13" lengthAdjust="spacing" textLength="103" x="1055" y="321.3076">findByUsername()</text><polygon fill="#181818" points="743,353.8613,733,357.8613,743,361.8613,739,357.8613" style="stroke:#181818;stroke-width:1.0;"/><line style="stroke:#181818;stroke-width:1.0;stroke-dasharray:2.0,2.0;" x1="737" x2="1199.5" y1="357.8613" y2="357.8613"/><text fill="#000000" font-family="sans-serif" font-size="13" font-weight="bold" lengthAdjust="spacing" textLength="7" x="749" y="352.5986">8</text><text fill="#000000" font-family="sans-serif" font-size="13" lengthAdjust="spacing" textLength="110" x="760" y="352.5986">meetingListByUser</text><polygon fill="#181818" points="543.5,385.1523,533.5,389.1523,543.5,393.1523,539.5,389.1523" style="stroke:#181818;stroke-width:1.0;"/><line style="stroke:#181818;stroke-width:1.0;stroke-dasharray:2.0,2.0;" x1="537.5" x2="726" y1="389.1523" y2="389.1523"/><text fill="#000000" font-family="sans-serif" font-size="13" font-weight="bold" lengthAdjust="spacing" textLength="7" x="549.5" y="383.8896">9</text><text fill="#000000" font-family="sans-serif" font-size="13" lengthAdjust="spacing" textLength="122" x="560.5" y="383.8896">getMeetingsByUser()</text><polygon fill="#181818" points="353.5,416.4434,343.5,420.4434,353.5,424.4434,349.5,420.4434" style="stroke:#181818;stroke-width:1.0;"/><line style="stroke:#181818;stroke-width:1.0;stroke-dasharray:2.0,2.0;" x1="347.5" x2="521.5" y1="420.4434" y2="420.4434"/><text fill="#000000" font-family="sans-serif" font-size="13" font-weight="bold" lengthAdjust="spacing" textLength="14" x="359.5" y="415.1807">10</text><text fill="#000000" font-family="sans-serif" font-size="13" lengthAdjust="spacing" textLength="113" x="377.5" y="415.1807">listMeetingsByUser</text><polygon fill="#181818" points="38.5,447.7344,28.5,451.7344,38.5,455.7344,34.5,451.7344" style="stroke:#181818;stroke-width:1.0;"/><line style="stroke:#181818;stroke-width:1.0;stroke-dasharray:2.0,2.0;" x1="32.5" x2="331.5" y1="451.7344" y2="451.7344"/><text fill="#000000" font-family="sans-serif" font-size="13" font-weight="bold" lengthAdjust="spacing" textLength="14" x="44.5" y="446.4717">11</text><text fill="#000000" font-family="sans-serif" font-size="13" lengthAdjust="spacing" textLength="71" x="62.5" y="446.4717">myMeetings</text><polygon fill="#181818" points="320.5,479.0254,330.5,483.0254,320.5,487.0254,324.5,483.0254" style="stroke:#181818;stroke-width:1.0;"/><line style="stroke:#181818;stroke-width:1.0;" x1="27.5" x2="326.5" y1="483.0254" y2="483.0254"/><text fill="#000000" font-family="sans-serif" font-size="13" font-weight="bold" lengthAdjust="spacing" textLength="14" x="34.5" y="477.7627">12</text><text fill="#000000" font-family="sans-serif" font-size="13" lengthAdjust="spacing" textLength="263" x="52.5" y="477.7627">Selects the meeting wants to accept or reject</text><polygon fill="#181818" points="510.5,510.3164,520.5,514.3164,510.5,518.3164,514.5,514.3164" style="stroke:#181818;stroke-width:1.0;"/><line style="stroke:#181818;stroke-width:1.0;" x1="342.5" x2="516.5" y1="514.3164" y2="514.3164"/><text fill="#000000" font-family="sans-serif" font-size="13" font-weight="bold" lengthAdjust="spacing" textLength="14" x="349.5" y="509.0537">13</text><text fill="#000000" font-family="sans-serif" font-size="13" lengthAdjust="spacing" textLength="137" x="367.5" y="509.0537">showParticipantsStatus</text><path d="M417,529.3164 L478,529.3164 L478,538.6074 L468,548.6074 L417,548.6074 L417,529.3164 " fill="#EEEEEE" style="stroke:#000000;stroke-width:1.5;"/><rect fill="none" height="124.5039" style="stroke:#000000;stroke-width:1.5;" width="285.5" x="417" y="529.3164"/><text fill="#000000" font-family="sans-serif" font-size="13" font-weight="bold" lengthAdjust="spacing" textLength="16" x="432" y="544.3447">alt</text><text fill="#000000" font-family="sans-serif" font-size="11" font-weight="bold" lengthAdjust="spacing" textLength="115" x="493" y="543.1865">[newStatus = accept]</text><line style="stroke:#181818;stroke-width:1.0;" x1="532.5" x2="574.5" y1="571.8984" y2="571.8984"/><line style="stroke:#181818;stroke-width:1.0;" x1="574.5" x2="574.5" y1="571.8984" y2="584.8984"/><line style="stroke:#181818;stroke-width:1.0;" x1="533.5" x2="574.5" y1="584.8984" y2="584.8984"/><polygon fill="#181818" points="543.5,580.8984,533.5,584.8984,543.5,588.8984,539.5,584.8984" style="stroke:#181818;stroke-width:1.0;"/><text fill="#000000" font-family="sans-serif" font-size="13" font-weight="bold" lengthAdjust="spacing" textLength="14" x="539.5" y="566.6357">14</text><text fill="#000000" font-family="sans-serif" font-size="13" lengthAdjust="spacing" textLength="133" x="557.5" y="566.6357">acceptMeetingRequest</text><line style="stroke:#000000;stroke-width:1.0;stroke-dasharray:2.0,2.0;" x1="417" x2="702.5" y1="593.8984" y2="593.8984"/><text fill="#000000" font-family="sans-serif" font-size="11" font-weight="bold" lengthAdjust="spacing" textLength="111" x="422" y="605.7686">[newStatus = reject]</text><line style="stroke:#181818;stroke-width:1.0;" x1="532.5" x2="574.5" y1="632.8203" y2="632.8203"/><line style="stroke:#181818;stroke-width:1.0;" x1="574.5" x2="574.5" y1="632.8203" y2="645.8203"/><line style="stroke:#181818;stroke-width:1.0;" x1="533.5" x2="574.5" y1="645.8203" y2="645.8203"/><polygon fill="#181818" points="543.5,641.8203,533.5,645.8203,543.5,649.8203,539.5,645.8203" style="stroke:#181818;stroke-width:1.0;"/><text fill="#000000" font-family="sans-serif" font-size="13" font-weight="bold" lengthAdjust="spacing" textLength="14" x="539.5" y="627.5576">15</text><text fill="#000000" font-family="sans-serif" font-size="13" lengthAdjust="spacing" textLength="126" x="557.5" y="627.5576">rejectMeetingRequest</text><polygon fill="#181818" points="877,680.1113,887,684.1113,877,688.1113,881,684.1113" style="stroke:#181818;stroke-width:1.0;"/><line style="stroke:#181818;stroke-width:1.0;" x1="532.5" x2="883" y1="684.1113" y2="684.1113"/><text fill="#000000" font-family="sans-serif" font-size="13" font-weight="bold" lengthAdjust="spacing" textLength="14" x="539.5" y="678.8486">16</text><text fill="#000000" font-family="sans-serif" font-size="13" lengthAdjust="spacing" textLength="75" x="557.5" y="678.8486">repositories()</text><polygon fill="#181818" points="543.5,711.4023,533.5,715.4023,543.5,719.4023,539.5,715.4023" style="stroke:#181818;stroke-width:1.0;"/><line style="stroke:#181818;stroke-width:1.0;" x1="537.5" x2="893" y1="715.4023" y2="715.4023"/><text fill="#000000" font-family="sans-serif" font-size="13" font-weight="bold" lengthAdjust="spacing" textLength="14" x="549.5" y="710.1396">17</text><text fill="#000000" font-family="sans-serif" font-size="13" lengthAdjust="spacing" textLength="62" x="567.5" y="710.1396">theFactory</text><polygon fill="#181818" points="1025,742.6934,1035,746.6934,1025,750.6934,1029,746.6934" style="stroke:#181818;stroke-width:1.0;"/><line style="stroke:#181818;stroke-width:1.0;" x1="532.5" x2="1031" y1="746.6934" y2="746.6934"/><text fill="#000000" font-family="sans-serif" font-size="13" font-weight="bold" lengthAdjust="spacing" textLength="14" x="539.5" y="741.4307">18</text><text fill="#000000" font-family="sans-serif" font-size="13" lengthAdjust="spacing" textLength="109" x="557.5" y="741.4307">meetingRequests()</text><polygon fill="#181818" points="1183.5,773.9844,1193.5,777.9844,1183.5,781.9844,1187.5,777.9844" style="stroke:#181818;stroke-width:1.0;"/><line style="stroke:#181818;stroke-width:1.0;" x1="532.5" x2="1189.5" y1="777.9844" y2="777.9844"/><text fill="#000000" font-family="sans-serif" font-size="13" font-weight="bold" lengthAdjust="spacing" textLength="14" x="539.5" y="772.7217">19</text><text fill="#000000" font-family="sans-serif" font-size="13" lengthAdjust="spacing" textLength="160" x="557.5" y="772.7217">save(participantsOfMeeting)</text><polygon fill="#181818" points="543.5,805.2754,533.5,809.2754,543.5,813.2754,539.5,809.2754" style="stroke:#181818;stroke-width:1.0;"/><line style="stroke:#181818;stroke-width:1.0;stroke-dasharray:2.0,2.0;" x1="537.5" x2="1199.5" y1="809.2754" y2="809.2754"/><text fill="#000000" font-family="sans-serif" font-size="13" font-weight="bold" lengthAdjust="spacing" textLength="14" x="549.5" y="804.0127">20</text><text fill="#000000" font-family="sans-serif" font-size="13" lengthAdjust="spacing" textLength="126" x="567.5" y="804.0127">participantsOfMeeting</text><polygon fill="#181818" points="353.5,836.5664,343.5,840.5664,353.5,844.5664,349.5,840.5664" style="stroke:#181818;stroke-width:1.0;"/><line style="stroke:#181818;stroke-width:1.0;stroke-dasharray:2.0,2.0;" x1="347.5" x2="526.5" y1="840.5664" y2="840.5664"/><text fill="#000000" font-family="sans-serif" font-size="13" font-weight="bold" lengthAdjust="spacing" textLength="14" x="359.5" y="835.3037">21</text><text fill="#000000" font-family="sans-serif" font-size="13" lengthAdjust="spacing" textLength="126" x="377.5" y="835.3037">participantsOfMeeting</text><polygon fill="#181818" points="33.5,867.8574,23.5,871.8574,33.5,875.8574,29.5,871.8574" style="stroke:#181818;stroke-width:1.0;"/><line style="stroke:#181818;stroke-width:1.0;" x1="27.5" x2="336.5" y1="871.8574" y2="871.8574"/><text fill="#000000" font-family="sans-serif" font-size="13" font-weight="bold" lengthAdjust="spacing" textLength="14" x="39.5" y="866.5947">22</text><text fill="#000000" font-family="sans-serif" font-size="13" lengthAdjust="spacing" textLength="130" x="57.5" y="866.5947">Confirms the operation</text><!--SRC=[dPN1Rjim38RlUWgXbxM7BdV32z1j651WnOeKlUsYsaoYmPOyIKcMjnzbIH7bU6am7m9B9ZzHv4_cmzQvmLQBnT09vNPzzx7H_SB2xnse1kvRAJP6z8o9dTDgrx-1mVV6QSDVBRuFmZZPo05z-KFJmE1My0iQzmJWfDgyFlBy2CjnNTVF1Yme9vpKQhbaZLREw6uqcK5y2PyxC051rdNzC0oTR1A91lEStoFe1SnUDf23IHiNCM2ijCxdmXyCVnml7iGG4qGDUJL1hM3GLcBcZj_611xv6GfDqhUwNeStfBJ2YJTXnz3ZPLQ-GDPbPab9ctMT5vDmRaY6VgoVm7cilQ7Xf4t4VDMza3uvllXoBno4-liVVh_aHQ7ZKs66EomaTrlWUl3PJU5peLh-KwNTK7QEeWgbJsRai4U6H-11XHp8KHqcFNhPpqSVrkrTTizUZ00GLugYuXiufsHCj6R92m6q-f5XKiebM1e4CMNKxNuIH-KJ5dN0MfZr9n4GqQG8-a8aHH3PcX77W25IglXQgZQaG8aU444Y8H2w5_qPGKtlbeFxZbS9_0avKKvNdAdwVA489rMALdigqpdHi55ctjAM2al17vFzLTAte_RZZVa1MmrtD1SdlPjHx-zessxrWNIhVS7PkRDCT8uhE8GL_nIfRABm4bf5gtACCEXmkb1MZEiooj0vVKAfTk9MjiX_zCVav6lweuoWR96v_ZYpBth1YZtSak5f_S0S4NVNDC0a-bdGFvhWidxV9P6v5oGsAsiaeU5Qcjx6MGrc_3EaA9p0T3NsIdZ-0W00]--></g></svg>