<?xml version="1.0" encoding="us-ascii" standalone="no"?><svg xmlns="http://www.w3.org/2000/svg" xmlns:xlink="http://www.w3.org/1999/xlink" contentStyleType="text/css" height="831px" preserveAspectRatio="none" style="width:386px;height:831px;background:#FFFFFF;" version="1.1" viewBox="0 0 386 831" width="386px" zoomAndPan="magnify"><defs/><g><!--entity User--><g id="elem_User"><ellipse cx="193.5" cy="14" fill="#F1F1F1" rx="8" ry="8" style="stroke:#181818;stroke-width:0.5;"/><path d="M193.5,22 L193.5,49 M180.5,30 L206.5,30 M193.5,49 L180.5,64 M193.5,49 L206.5,64 " fill="none" style="stroke:#181818;stroke-width:0.5;"/><text fill="#000000" font-family="sans-serif" font-size="14" lengthAdjust="spacing" textLength="29" x="179" y="80.6074">User</text></g><g id="elem_Authenticates to the system"><ellipse cx="193.5008" cy="168.3002" fill="#F1F1F1" rx="107.0008" ry="23.8002" style="stroke:#181818;stroke-width:0.5;"/><text fill="#000000" font-family="sans-serif" font-size="14" lengthAdjust="spacing" textLength="174" x="106.5008" y="172.097">Authenticates to the system</text></g><g id="elem_Accesses the meetings functionality"><ellipse cx="193.3509" cy="280.8702" fill="#F1F1F1" rx="129.8509" ry="28.3702" style="stroke:#181818;stroke-width:0.5;"/><text fill="#000000" font-family="sans-serif" font-size="14" lengthAdjust="spacing" textLength="224" x="81.3509" y="284.6671">Accesses the meetings functionality</text></g><g id="elem_Chooses the option to accept or reject meetings"><ellipse cx="193.2564" cy="405.2513" fill="#F1F1F1" rx="166.7564" ry="35.7513" style="stroke:#181818;stroke-width:0.5;"/><text fill="#000000" font-family="sans-serif" font-size="14" lengthAdjust="spacing" textLength="302" x="42.2564" y="409.0482">Chooses the option to accept or reject meetings</text></g><g id="elem_The System shows to the user their meetings"><ellipse cx="193.6719" cy="535.4344" fill="#F1F1F1" rx="157.6719" ry="33.9344" style="stroke:#181818;stroke-width:0.5;"/><text fill="#000000" font-family="sans-serif" font-size="14" lengthAdjust="spacing" textLength="283" x="52.1719" y="539.2313">The System shows to the user their meetings</text></g><g id="elem_The user chooses if wants accept or reject the meeting"><ellipse cx="193.4706" cy="669.3941" fill="#F1F1F1" rx="187.4706" ry="39.8941" style="stroke:#181818;stroke-width:0.5;"/><text fill="#000000" font-family="sans-serif" font-size="14" lengthAdjust="spacing" textLength="345" x="20.9706" y="673.191">The user chooses if wants accept or reject the meeting</text></g><g id="elem_The System confirms the operation"><ellipse cx="193.4926" cy="797.4985" fill="#F1F1F1" rx="127.9926" ry="27.9985" style="stroke:#181818;stroke-width:0.5;"/><text fill="#000000" font-family="sans-serif" font-size="14" lengthAdjust="spacing" textLength="220" x="83.4926" y="801.2954">The System confirms the operation</text></g><!--link User to Authenticates to the system--><g id="link_User_Authenticates to the system"><path d="M193.5,84.78 C193.5,102.37 193.5,122.81 193.5,138.97 " fill="none" id="User-to-Authenticates to the system" style="stroke:#181818;stroke-width:1.0;"/><polygon fill="#181818" points="193.5,144.27,197.5,135.27,193.5,139.27,189.5,135.27,193.5,144.27" style="stroke:#181818;stroke-width:1.0;"/></g><!--link Authenticates to the system to Accesses the meetings functionality--><g id="link_Authenticates to the system_Accesses the meetings functionality"><path d="M193.5,192.66 C193.5,208.38 193.5,229.39 193.5,246.87 " fill="none" id="Authenticates to the system-to-Accesses the meetings functionality" style="stroke:#181818;stroke-width:1.0;"/><polygon fill="#181818" points="193.5,252.17,197.5,243.17,193.5,247.17,189.5,243.17,193.5,252.17" style="stroke:#181818;stroke-width:1.0;"/></g><!--link Accesses the meetings functionality to Chooses the option to accept or reject meetings--><g id="link_Accesses the meetings functionality_Chooses the option to accept or reject meetings"><path d="M193.5,309.8 C193.5,325.79 193.5,346.17 193.5,363.93 " fill="none" id="Accesses the meetings functionality-to-Chooses the option to accept or reject meetings" style="stroke:#181818;stroke-width:1.0;"/><polygon fill="#181818" points="193.5,369.35,197.5,360.35,193.5,364.35,189.5,360.35,193.5,369.35" style="stroke:#181818;stroke-width:1.0;"/></g><!--link Chooses the option to accept or reject meetings to The System shows to the user their meetings--><g id="link_Chooses the option to accept or reject meetings_The System shows to the user their meetings"><path d="M193.5,441.82 C193.5,458.71 193.5,478.98 193.5,496.24 " fill="none" id="Chooses the option to accept or reject meetings-to-The System shows to the user their meetings" style="stroke:#181818;stroke-width:1.0;"/><polygon fill="#181818" points="193.5,501.5,197.5,492.5,193.5,496.5,189.5,492.5,193.5,501.5" style="stroke:#181818;stroke-width:1.0;"/></g><!--link The System shows to the user their meetings to The user chooses if wants accept or reject the meeting--><g id="link_The System shows to the user their meetings_The user chooses if wants accept or reject the meeting"><path d="M193.5,569.81 C193.5,586.14 193.5,606.05 193.5,623.7 " fill="none" id="The System shows to the user their meetings-to-The user chooses if wants accept or reject the meeting" style="stroke:#181818;stroke-width:1.0;"/><polygon fill="#181818" points="193.5,629.1,197.5,620.1,193.5,624.1,189.5,620.1,193.5,629.1" style="stroke:#181818;stroke-width:1.0;"/></g><!--link The user chooses if wants accept or reject the meeting to The System confirms the operation--><g id="link_The user chooses if wants accept or reject the meeting_The System confirms the operation"><path d="M193.5,709.68 C193.5,727.22 193.5,747.66 193.5,764.3 " fill="none" id="The user chooses if wants accept or reject the meeting-to-The System confirms the operation" style="stroke:#181818;stroke-width:1.0;"/><polygon fill="#181818" points="193.5,769.33,197.5,760.33,193.5,764.33,189.5,760.33,193.5,769.33" style="stroke:#181818;stroke-width:1.0;"/></g><!--SRC=[dL7DJiCm3BxtANo37Khl72OX7W5u0Cjprw0chc97rTv-JhTk4vCG8uV8aRyV-ylJO3RfQzTD8oOhSNmXYLrHRWdzsWNSPunDWsIIuKivD-2d5j3kP4xj5fxVYWsSB10QAvY0Fq4FQXmt2_nN1BIB1X6hrgPt8hE5j5VeIo8Bad0CTbYr_e0yQRuF8YjGfjgjrkZyoS3NoVpDP1UDi_wZh9FNfwC_beL01valIvQQb1SX__HvX77rMBfq7Z7qCFktwVrqDzdSsFs3VBSTIUf3Zci-dB56j6cE]--></g></svg>