<?xml version="1.0" encoding="us-ascii" standalone="no"?><svg xmlns="http://www.w3.org/2000/svg" xmlns:xlink="http://www.w3.org/1999/xlink" contentStyleType="text/css" height="575px" preserveAspectRatio="none" style="width:717px;height:575px;background:#FFFFFF;" version="1.1" viewBox="0 0 717 575" width="717px" zoomAndPan="magnify"><defs/><g><rect fill="#FFFFFF" height="108.118" style="stroke:#181818;stroke-width:1.0;" width="10" x="255" y="150.2539"/><rect fill="#FFFFFF" height="273.3719" style="stroke:#181818;stroke-width:1.0;" width="10" x="356.5" y="226.6659"/><rect fill="#FFFFFF" height="76.412" style="stroke:#181818;stroke-width:1.0;" width="10" x="605.5" y="391.9198"/><rect fill="none" height="159.5301" style="stroke:#000000;stroke-width:1.5;" width="412" x="10" y="106.8419"/><line style="stroke:#181818;stroke-width:0.5;stroke-dasharray:5.0,5.0;" x1="74" x2="74" y1="58.1358" y2="518.0378"/><line style="stroke:#181818;stroke-width:0.5;stroke-dasharray:5.0,5.0;" x1="174" x2="174" y1="58.1358" y2="518.0378"/><line style="stroke:#181818;stroke-width:0.5;stroke-dasharray:5.0,5.0;" x1="260" x2="260" y1="58.1358" y2="518.0378"/><line style="stroke:#181818;stroke-width:0.5;stroke-dasharray:5.0,5.0;" x1="361" x2="361" y1="58.1358" y2="518.0378"/><line style="stroke:#181818;stroke-width:0.5;stroke-dasharray:5.0,5.0;" x1="480" x2="480" y1="58.1358" y2="518.0378"/><line style="stroke:#181818;stroke-width:0.5;stroke-dasharray:5.0,5.0;" x1="610" x2="610" y1="346.6459" y2="518.0378"/><rect fill="#E2E2F0" height="52.1358" rx="2.5" ry="2.5" style="stroke:#181818;stroke-width:0.5;" width="109" x="20" y="5"/><text fill="#000000" font-family="sans-serif" font-size="14" font-style="italic" lengthAdjust="spacing" textLength="48" x="50.5" y="26.9659">&#171;client&#187;</text><text fill="#000000" font-family="sans-serif" font-size="14" lengthAdjust="spacing" textLength="95" x="27" y="46.0339">SharedBoards</text><rect fill="#E2E2F0" height="52.1358" rx="2.5" ry="2.5" style="stroke:#181818;stroke-width:0.5;" width="109" x="20" y="517.0378"/><text fill="#000000" font-family="sans-serif" font-size="14" font-style="italic" lengthAdjust="spacing" textLength="48" x="50.5" y="539.0038">&#171;client&#187;</text><text fill="#000000" font-family="sans-serif" font-size="14" lengthAdjust="spacing" textLength="95" x="27" y="558.0717">SharedBoards</text><rect fill="#E2E2F0" height="33.0679" rx="2.5" ry="2.5" style="stroke:#181818;stroke-width:0.5;" width="70" x="139" y="24.0679"/><text fill="#000000" font-family="sans-serif" font-size="14" lengthAdjust="spacing" textLength="56" x="146" y="46.0339">Daemon</text><rect fill="#E2E2F0" height="33.0679" rx="2.5" ry="2.5" style="stroke:#181818;stroke-width:0.5;" width="70" x="139" y="517.0378"/><text fill="#000000" font-family="sans-serif" font-size="14" lengthAdjust="spacing" textLength="56" x="146" y="539.0038">Daemon</text><rect fill="#E2E2F0" height="33.0679" rx="2.5" ry="2.5" style="stroke:#181818;stroke-width:0.5;" width="82" x="219" y="24.0679"/><text fill="#000000" font-family="sans-serif" font-size="14" lengthAdjust="spacing" textLength="68" x="226" y="46.0339">TCPServer</text><rect fill="#E2E2F0" height="33.0679" rx="2.5" ry="2.5" style="stroke:#181818;stroke-width:0.5;" width="82" x="219" y="517.0378"/><text fill="#000000" font-family="sans-serif" font-size="14" lengthAdjust="spacing" textLength="68" x="226" y="539.0038">TCPServer</text><rect fill="#E2E2F0" height="52.1358" rx="2.5" ry="2.5" style="stroke:#181818;stroke-width:0.5;" width="101" x="311" y="5"/><text fill="#000000" font-family="sans-serif" font-size="14" font-style="italic" lengthAdjust="spacing" textLength="56" x="333.5" y="26.9659">&#171;thread&#187;</text><text fill="#000000" font-family="sans-serif" font-size="14" lengthAdjust="spacing" textLength="87" x="318" y="46.0339">HandleClient</text><rect fill="#E2E2F0" height="52.1358" rx="2.5" ry="2.5" style="stroke:#181818;stroke-width:0.5;" width="101" x="311" y="517.0378"/><text fill="#000000" font-family="sans-serif" font-size="14" font-style="italic" lengthAdjust="spacing" textLength="56" x="333.5" y="539.0038">&#171;thread&#187;</text><text fill="#000000" font-family="sans-serif" font-size="14" lengthAdjust="spacing" textLength="87" x="318" y="558.0717">HandleClient</text><rect fill="#E2E2F0" height="33.0679" rx="2.5" ry="2.5" style="stroke:#181818;stroke-width:0.5;" width="117" x="422" y="24.0679"/><text fill="#000000" font-family="sans-serif" font-size="14" lengthAdjust="spacing" textLength="103" x="429" y="46.0339">MessageParser</text><rect fill="#E2E2F0" height="33.0679" rx="2.5" ry="2.5" style="stroke:#181818;stroke-width:0.5;" width="117" x="422" y="517.0378"/><text fill="#000000" font-family="sans-serif" font-size="14" lengthAdjust="spacing" textLength="103" x="429" y="539.0038">MessageParser</text><rect fill="#E2E2F0" height="52.1358" rx="2.5" ry="2.5" style="stroke:#181818;stroke-width:0.5;" width="123" x="549" y="517.0378"/><text fill="#000000" font-family="sans-serif" font-size="14" font-style="italic" lengthAdjust="spacing" textLength="66" x="577.5" y="539.0038">&#171;abstract&#187;</text><text fill="#000000" font-family="sans-serif" font-size="14" lengthAdjust="spacing" textLength="109" x="556" y="558.0717">ProtocolRequest</text><rect fill="#FFFFFF" height="108.118" style="stroke:#181818;stroke-width:1.0;" width="10" x="255" y="150.2539"/><rect fill="#FFFFFF" height="273.3719" style="stroke:#181818;stroke-width:1.0;" width="10" x="356.5" y="226.6659"/><rect fill="#FFFFFF" height="76.412" style="stroke:#181818;stroke-width:1.0;" width="10" x="605.5" y="391.9198"/><polygon fill="#181818" points="248,87.8419,258,91.8419,248,95.8419,252,91.8419" style="stroke:#181818;stroke-width:1.0;"/><line style="stroke:#181818;stroke-width:1.0;" x1="174" x2="254" y1="91.8419" y2="91.8419"/><text fill="#000000" font-family="sans-serif" font-size="13" lengthAdjust="spacing" textLength="25" x="181" y="86.0328">new</text><path d="M10,106.8419 L83,106.8419 L83,116.5479 L73,126.5479 L10,126.5479 L10,106.8419 " fill="#EEEEEE" style="stroke:#000000;stroke-width:1.5;"/><rect fill="none" height="159.5301" style="stroke:#000000;stroke-width:1.5;" width="412" x="10" y="106.8419"/><text fill="#000000" font-family="sans-serif" font-size="13" font-weight="bold" lengthAdjust="spacing" textLength="28" x="25" y="121.7389">loop</text><text fill="#000000" font-family="sans-serif" font-size="11" font-weight="bold" lengthAdjust="spacing" textLength="32" x="98" y="120.6008">[true]</text><polygon fill="#181818" points="243,146.2539,253,150.2539,243,154.2539,247,150.2539" style="stroke:#181818;stroke-width:1.0;"/><line style="stroke:#181818;stroke-width:1.0;" x1="174" x2="249" y1="150.2539" y2="150.2539"/><text fill="#000000" font-family="sans-serif" font-size="13" lengthAdjust="spacing" textLength="28" x="181" y="144.4449">start</text><line style="stroke:#181818;stroke-width:1.0;" x1="265" x2="307" y1="181.9599" y2="181.9599"/><line style="stroke:#181818;stroke-width:1.0;" x1="307" x2="307" y1="181.9599" y2="194.9599"/><line style="stroke:#181818;stroke-width:1.0;" x1="266" x2="307" y1="194.9599" y2="194.9599"/><polygon fill="#181818" points="276,190.9599,266,194.9599,276,198.9599,272,194.9599" style="stroke:#181818;stroke-width:1.0;"/><text fill="#000000" font-family="sans-serif" font-size="13" lengthAdjust="spacing" textLength="39" x="272" y="176.1509">accept</text><polygon fill="#181818" points="243,222.6659,253,226.6659,243,230.6659,247,226.6659" style="stroke:#181818;stroke-width:1.0;"/><line style="stroke:#181818;stroke-width:1.0;stroke-dasharray:2.0,2.0;" x1="74.5" x2="249" y1="226.6659" y2="226.6659"/><text fill="#000000" font-family="sans-serif" font-size="13" lengthAdjust="spacing" textLength="46" x="81.5" y="220.8569">request</text><polygon fill="#181818" points="344.5,254.3719,354.5,258.3719,344.5,258.3719" style="stroke:#181818;stroke-width:1.0;"/><line style="stroke:#181818;stroke-width:1.0;" x1="260" x2="355.5" y1="258.3719" y2="258.3719"/><text fill="#000000" font-family="sans-serif" font-size="13" lengthAdjust="spacing" textLength="28" x="267" y="252.5629">start</text><polygon fill="#181818" points="468.5,293.0779,478.5,297.0779,468.5,301.0779,472.5,297.0779" style="stroke:#181818;stroke-width:1.0;"/><line style="stroke:#181818;stroke-width:1.0;" x1="366.5" x2="474.5" y1="297.0779" y2="297.0779"/><text fill="#000000" font-family="sans-serif" font-size="13" lengthAdjust="spacing" textLength="87" x="373.5" y="291.2689">parse(request)</text><polygon fill="#181818" points="537,324.784,547,328.784,537,332.784,541,328.784" style="stroke:#181818;stroke-width:1.0;"/><line style="stroke:#181818;stroke-width:1.0;" x1="480.5" x2="543" y1="328.784" y2="328.784"/><text fill="#000000" font-family="sans-serif" font-size="13" lengthAdjust="spacing" textLength="25" x="487.5" y="322.975">new</text><rect fill="#E2E2F0" height="52.1358" rx="2.5" ry="2.5" style="stroke:#181818;stroke-width:0.5;" width="123" x="549" y="305.0779"/><text fill="#000000" font-family="sans-serif" font-size="14" font-style="italic" lengthAdjust="spacing" textLength="66" x="577.5" y="327.0439">&#171;abstract&#187;</text><text fill="#000000" font-family="sans-serif" font-size="14" lengthAdjust="spacing" textLength="109" x="556" y="346.1118">ProtocolRequest</text><polygon fill="#181818" points="593.5,387.9198,603.5,391.9198,593.5,395.9198,597.5,391.9198" style="stroke:#181818;stroke-width:1.0;"/><line style="stroke:#181818;stroke-width:1.0;" x1="366.5" x2="599.5" y1="391.9198" y2="391.9198"/><text fill="#000000" font-family="sans-serif" font-size="13" lengthAdjust="spacing" textLength="47" x="373.5" y="386.1108">execute</text><line style="stroke:#181818;stroke-width:1.0;" x1="615.5" x2="657.5" y1="423.6258" y2="423.6258"/><line style="stroke:#181818;stroke-width:1.0;" x1="657.5" x2="657.5" y1="423.6258" y2="436.6258"/><line style="stroke:#181818;stroke-width:1.0;" x1="616.5" x2="657.5" y1="436.6258" y2="436.6258"/><polygon fill="#181818" points="626.5,432.6258,616.5,436.6258,626.5,440.6258,622.5,436.6258" style="stroke:#181818;stroke-width:1.0;"/><text fill="#000000" font-family="sans-serif" font-size="13" lengthAdjust="spacing" textLength="88" x="622.5" y="417.8168">buildResponse</text><polygon fill="#181818" points="377.5,464.3318,367.5,468.3318,377.5,472.3318,373.5,468.3318" style="stroke:#181818;stroke-width:1.0;"/><line style="stroke:#181818;stroke-width:1.0;stroke-dasharray:2.0,2.0;" x1="371.5" x2="609.5" y1="468.3318" y2="468.3318"/><text fill="#000000" font-family="sans-serif" font-size="13" lengthAdjust="spacing" textLength="55" x="383.5" y="462.5228">response</text><polygon fill="#181818" points="85.5,496.0378,75.5,500.0378,85.5,504.0378,81.5,500.0378" style="stroke:#181818;stroke-width:1.0;"/><line style="stroke:#181818;stroke-width:1.0;stroke-dasharray:2.0,2.0;" x1="79.5" x2="360.5" y1="500.0378" y2="500.0378"/><text fill="#000000" font-family="sans-serif" font-size="13" lengthAdjust="spacing" textLength="55" x="91.5" y="494.2288">response</text><!--SRC=[RP51JiCm44NtFeMNiEW5eYeIb0KRfAfboMPgVz58mJRZIU7uJ80eiPDLfFZD_y_ZH2oTwn85iUShCVnZ9FRPxlUkxn2aROrv8dp4O7UjVJqSp-0Rs3OsuClqCIOhF62BQMmMZJSFJheR2UOJC-UK0-GSaXXJgEnAXl4v82kK5kxF57oFmw-okikLGLxTQUfU0ilwj-9aKlQWjJI2DwOeKh4Nv4plE19dbKlZv-xVyDuujT288qU9BlQdl__gHvSih1LgM0ICYHNTZ7jUrTQGnJVS89WlN16cbjW8kGnTxq_8AOQCzO1EbBlY2Lsigwwjp3LZ-RRR6SLR_G00]--></g></svg>