<?xml version="1.0" encoding="UTF-8" standalone="no"?><svg xmlns="http://www.w3.org/2000/svg" xmlns:xlink="http://www.w3.org/1999/xlink" contentStyleType="text/css" height="816px" preserveAspectRatio="none" style="width:816px;height:816px;background:#FFFFFF;" version="1.1" viewBox="0 0 816 816" width="816px" zoomAndPan="magnify"><defs/><g><!--class ListExamsUI--><g id="elem_ListExamsUI"><rect codeLine="2" fill="#F1F1F1" height="146.9297" id="ListExamsUI" rx="2.5" ry="2.5" style="stroke:#181818;stroke-width:0.5;" width="137" x="374" y="7"/><ellipse cx="399.35" cy="23" fill="#ADD1B2" rx="11" ry="11" style="stroke:#181818;stroke-width:1.0;"/><path d="M402.3231,28.6431 Q401.7421,28.9419 401.1029,29.0913 Q400.4638,29.2407 399.7582,29.2407 Q397.2514,29.2407 395.9315,27.5889 Q394.6117,25.937 394.6117,22.8159 Q394.6117,19.6865 395.9315,18.0347 Q397.2514,16.3828 399.7582,16.3828 Q400.4638,16.3828 401.1112,16.5322 Q401.7587,16.6816 402.3231,16.9805 L402.3231,19.7031 Q401.6923,19.1221 401.0988,18.8523 Q400.5053,18.5825 399.8744,18.5825 Q398.5297,18.5825 397.8449,19.6492 Q397.1601,20.7158 397.1601,22.8159 Q397.1601,24.9077 397.8449,25.9744 Q398.5297,27.041 399.8744,27.041 Q400.5053,27.041 401.0988,26.7712 Q401.6923,26.5015 402.3231,25.9204 Z " fill="#000000"/><text fill="#000000" font-family="sans-serif" font-size="14" lengthAdjust="spacing" textLength="82" x="415.65" y="28.291">ListExamsUI</text><line style="stroke:#181818;stroke-width:0.5;" x1="375" x2="510" y1="39" y2="39"/><line style="stroke:#181818;stroke-width:0.5;" x1="375" x2="510" y1="47" y2="47"/><ellipse cx="385" cy="60.7441" fill="#84BE84" rx="3" ry="3" style="stroke:#038048;stroke-width:1.0;"/><text fill="#000000" font-family="sans-serif" font-size="14" lengthAdjust="spacing" textLength="69" x="394" y="64.5352">headline()</text><ellipse cx="385" cy="77.2324" fill="#84BE84" rx="3" ry="3" style="stroke:#038048;stroke-width:1.0;"/><text fill="#000000" font-family="sans-serif" font-size="14" lengthAdjust="spacing" textLength="111" x="394" y="81.0234">emptyMessage()</text><ellipse cx="385" cy="93.7207" fill="#84BE84" rx="3" ry="3" style="stroke:#038048;stroke-width:1.0;"/><text fill="#000000" font-family="sans-serif" font-size="14" lengthAdjust="spacing" textLength="72" x="394" y="97.5117">elements()</text><ellipse cx="385" cy="110.209" fill="#84BE84" rx="3" ry="3" style="stroke:#038048;stroke-width:1.0;"/><text fill="#000000" font-family="sans-serif" font-size="14" lengthAdjust="spacing" textLength="111" x="394" y="114">elementPrinter()</text><text fill="#000000" font-family="sans-serif" font-size="14" lengthAdjust="spacing" textLength="104" x="394" y="130.4883">elementName()</text><text fill="#000000" font-family="sans-serif" font-size="14" lengthAdjust="spacing" textLength="79" x="394" y="146.9766">listHeader()</text></g><!--class ListStudentExamGradesController--><g id="elem_ListStudentExamGradesController"><rect codeLine="11" fill="#F1F1F1" height="64.4883" id="ListStudentExamGradesController" rx="2.5" ry="2.5" style="stroke:#181818;stroke-width:0.5;" width="264" x="310.5" y="213.93"/><ellipse cx="325.5" cy="229.93" fill="#ADD1B2" rx="11" ry="11" style="stroke:#181818;stroke-width:1.0;"/><path d="M328.4731,235.5731 Q327.8921,235.8719 327.2529,236.0213 Q326.6138,236.1707 325.9082,236.1707 Q323.4014,236.1707 322.0815,234.5189 Q320.7617,232.867 320.7617,229.7459 Q320.7617,226.6165 322.0815,224.9647 Q323.4014,223.3128 325.9082,223.3128 Q326.6138,223.3128 327.2612,223.4622 Q327.9087,223.6116 328.4731,223.9105 L328.4731,226.6331 Q327.8423,226.0521 327.2488,225.7823 Q326.6553,225.5125 326.0244,225.5125 Q324.6797,225.5125 323.9949,226.5792 Q323.3101,227.6458 323.3101,229.7459 Q323.3101,231.8377 323.9949,232.9044 Q324.6797,233.971 326.0244,233.971 Q326.6553,233.971 327.2488,233.7012 Q327.8423,233.4315 328.4731,232.8504 Z " fill="#000000"/><text fill="#000000" font-family="sans-serif" font-size="14" lengthAdjust="spacing" textLength="232" x="339.5" y="235.221">ListStudentExamGradesController</text><line style="stroke:#181818;stroke-width:0.5;" x1="311.5" x2="573.5" y1="245.93" y2="245.93"/><line style="stroke:#181818;stroke-width:0.5;" x1="311.5" x2="573.5" y1="253.93" y2="253.93"/><ellipse cx="321.5" cy="267.6741" fill="#84BE84" rx="3" ry="3" style="stroke:#038048;stroke-width:1.0;"/><text fill="#000000" font-family="sans-serif" font-size="14" lengthAdjust="spacing" textLength="168" x="330.5" y="271.4652">examOfLoggedStudent()</text></g><!--class GradesOfExamRepository--><g id="elem_GradesOfExamRepository"><rect codeLine="15" fill="#F1F1F1" height="48" id="GradesOfExamRepository" rx="2.5" ry="2.5" style="stroke:#181818;stroke-width:0.5;" width="207" x="7" y="753.11"/><ellipse cx="22" cy="769.11" fill="#ADD1B2" rx="11" ry="11" style="stroke:#181818;stroke-width:1.0;"/><path d="M24.9731,774.7531 Q24.3921,775.0519 23.7529,775.2013 Q23.1138,775.3507 22.4082,775.3507 Q19.9014,775.3507 18.5815,773.6989 Q17.2617,772.047 17.2617,768.9259 Q17.2617,765.7965 18.5815,764.1447 Q19.9014,762.4928 22.4082,762.4928 Q23.1138,762.4928 23.7612,762.6422 Q24.4087,762.7916 24.9731,763.0905 L24.9731,765.8131 Q24.3423,765.2321 23.7488,764.9623 Q23.1553,764.6925 22.5244,764.6925 Q21.1797,764.6925 20.4949,765.7592 Q19.8101,766.8258 19.8101,768.9259 Q19.8101,771.0177 20.4949,772.0844 Q21.1797,773.151 22.5244,773.151 Q23.1553,773.151 23.7488,772.8812 Q24.3423,772.6115 24.9731,772.0304 Z " fill="#000000"/><text fill="#000000" font-family="sans-serif" font-size="14" lengthAdjust="spacing" textLength="175" x="36" y="774.401">GradesOfExamRepository</text><line style="stroke:#181818;stroke-width:0.5;" x1="8" x2="213" y1="785.11" y2="785.11"/><line style="stroke:#181818;stroke-width:0.5;" x1="8" x2="213" y1="793.11" y2="793.11"/></g><!--class PersistenceContext--><g id="elem_PersistenceContext"><rect codeLine="18" fill="#F1F1F1" height="80.9766" id="PersistenceContext" rx="2.5" ry="2.5" style="stroke:#181818;stroke-width:0.5;" width="377" x="27" y="479.4"/><ellipse cx="145.25" cy="495.4" fill="#ADD1B2" rx="11" ry="11" style="stroke:#181818;stroke-width:1.0;"/><path d="M148.2231,501.0431 Q147.6421,501.3419 147.0029,501.4913 Q146.3638,501.6407 145.6582,501.6407 Q143.1514,501.6407 141.8315,499.9889 Q140.5117,498.337 140.5117,495.2159 Q140.5117,492.0865 141.8315,490.4347 Q143.1514,488.7828 145.6582,488.7828 Q146.3638,488.7828 147.0112,488.9322 Q147.6587,489.0816 148.2231,489.3805 L148.2231,492.1031 Q147.5923,491.5221 146.9988,491.2523 Q146.4053,490.9825 145.7744,490.9825 Q144.4297,490.9825 143.7449,492.0492 Q143.0601,493.1158 143.0601,495.2159 Q143.0601,497.3077 143.7449,498.3744 Q144.4297,499.441 145.7744,499.441 Q146.4053,499.441 146.9988,499.1712 Q147.5923,498.9015 148.2231,498.3204 Z " fill="#000000"/><text fill="#000000" font-family="sans-serif" font-size="14" lengthAdjust="spacing" textLength="132" x="165.75" y="500.691">PersistenceContext</text><line style="stroke:#181818;stroke-width:0.5;" x1="28" x2="403" y1="511.4" y2="511.4"/><rect fill="none" height="6" style="stroke:#C82930;stroke-width:1.0;" width="6" x="35" y="522.1441"/><text fill="#000000" font-family="sans-serif" font-size="14" lengthAdjust="spacing" textLength="351" x="47" y="528.9352">GradeOfExamRepository: GradesOfExamRepository</text><line style="stroke:#181818;stroke-width:0.5;" x1="28" x2="403" y1="535.8883" y2="535.8883"/><ellipse cx="38" cy="549.6324" fill="#84BE84" rx="3" ry="3" style="stroke:#038048;stroke-width:1.0;"/><text fill="#000000" font-family="sans-serif" font-size="14" lengthAdjust="spacing" textLength="92" x="47" y="553.4234">repositories()</text></g><!--class AuthorizationService--><g id="elem_AuthorizationService"><rect codeLine="23" fill="#F1F1F1" height="64.4883" id="AuthorizationService" rx="2.5" ry="2.5" style="stroke:#181818;stroke-width:0.5;" width="175" x="465" y="346.66"/><ellipse cx="480" cy="362.66" fill="#ADD1B2" rx="11" ry="11" style="stroke:#181818;stroke-width:1.0;"/><path d="M482.9731,368.3031 Q482.3921,368.6019 481.7529,368.7513 Q481.1138,368.9007 480.4082,368.9007 Q477.9014,368.9007 476.5815,367.2489 Q475.2617,365.597 475.2617,362.4759 Q475.2617,359.3465 476.5815,357.6947 Q477.9014,356.0428 480.4082,356.0428 Q481.1138,356.0428 481.7612,356.1922 Q482.4087,356.3416 482.9731,356.6405 L482.9731,359.3631 Q482.3423,358.7821 481.7488,358.5123 Q481.1553,358.2425 480.5244,358.2425 Q479.1797,358.2425 478.4949,359.3092 Q477.8101,360.3758 477.8101,362.4759 Q477.8101,364.5677 478.4949,365.6344 Q479.1797,366.701 480.5244,366.701 Q481.1553,366.701 481.7488,366.4312 Q482.3423,366.1615 482.9731,365.5804 Z " fill="#000000"/><text fill="#000000" font-family="sans-serif" font-size="14" lengthAdjust="spacing" textLength="143" x="494" y="367.951">AuthorizationService</text><line style="stroke:#181818;stroke-width:0.5;" x1="466" x2="639" y1="378.66" y2="378.66"/><line style="stroke:#181818;stroke-width:0.5;" x1="466" x2="639" y1="386.66" y2="386.66"/><ellipse cx="476" cy="400.4041" fill="#84BE84" rx="3" ry="3" style="stroke:#038048;stroke-width:1.0;"/><text fill="#000000" font-family="sans-serif" font-size="14" lengthAdjust="spacing" textLength="61" x="485" y="404.1952">session()</text></g><!--class SystemUser--><g id="elem_SystemUser"><rect codeLine="27" fill="#F1F1F1" height="64.4883" id="SystemUser" rx="2.5" ry="2.5" style="stroke:#181818;stroke-width:0.5;" width="161" x="472" y="487.64"/><ellipse cx="509.5" cy="503.64" fill="#ADD1B2" rx="11" ry="11" style="stroke:#181818;stroke-width:1.0;"/><path d="M512.4731,509.2831 Q511.8921,509.5819 511.2529,509.7313 Q510.6138,509.8807 509.9082,509.8807 Q507.4014,509.8807 506.0815,508.2289 Q504.7617,506.577 504.7617,503.4559 Q504.7617,500.3265 506.0815,498.6747 Q507.4014,497.0228 509.9082,497.0228 Q510.6138,497.0228 511.2612,497.1722 Q511.9087,497.3216 512.4731,497.6205 L512.4731,500.3431 Q511.8423,499.7621 511.2488,499.4923 Q510.6553,499.2225 510.0244,499.2225 Q508.6797,499.2225 507.9949,500.2892 Q507.3101,501.3558 507.3101,503.4559 Q507.3101,505.5477 507.9949,506.6144 Q508.6797,507.681 510.0244,507.681 Q510.6553,507.681 511.2488,507.4112 Q511.8423,507.1415 512.4731,506.5604 Z " fill="#000000"/><text fill="#000000" font-family="sans-serif" font-size="14" lengthAdjust="spacing" textLength="79" x="528.5" y="508.931">SystemUser</text><line style="stroke:#181818;stroke-width:0.5;" x1="473" x2="632" y1="519.64" y2="519.64"/><line style="stroke:#181818;stroke-width:0.5;" x1="473" x2="632" y1="527.64" y2="527.64"/><ellipse cx="483" cy="541.3841" fill="#84BE84" rx="3" ry="3" style="stroke:#038048;stroke-width:1.0;"/><text fill="#000000" font-family="sans-serif" font-size="14" lengthAdjust="spacing" textLength="135" x="492" y="545.1752">authenticatedUser()</text></g><!--class ListExamsService--><g id="elem_ListExamsService"><rect codeLine="31" fill="#F1F1F1" height="80.9766" id="ListExamsService" rx="2.5" ry="2.5" style="stroke:#181818;stroke-width:0.5;" width="194" x="235.5" y="338.42"/><ellipse cx="271.2" cy="354.42" fill="#ADD1B2" rx="11" ry="11" style="stroke:#181818;stroke-width:1.0;"/><path d="M274.1731,360.0631 Q273.5921,360.3619 272.9529,360.5113 Q272.3138,360.6607 271.6082,360.6607 Q269.1014,360.6607 267.7815,359.0089 Q266.4617,357.357 266.4617,354.2359 Q266.4617,351.1065 267.7815,349.4547 Q269.1014,347.8028 271.6082,347.8028 Q272.3138,347.8028 272.9612,347.9522 Q273.6087,348.1016 274.1731,348.4005 L274.1731,351.1231 Q273.5423,350.5421 272.9488,350.2723 Q272.3553,350.0025 271.7244,350.0025 Q270.3797,350.0025 269.6949,351.0692 Q269.0101,352.1358 269.0101,354.2359 Q269.0101,356.3277 269.6949,357.3944 Q270.3797,358.461 271.7244,358.461 Q272.3553,358.461 272.9488,358.1912 Q273.5423,357.9215 274.1731,357.3404 Z " fill="#000000"/><text fill="#000000" font-family="sans-serif" font-size="14" lengthAdjust="spacing" textLength="116" x="289.8" y="359.711">ListExamsService</text><line style="stroke:#181818;stroke-width:0.5;" x1="236.5" x2="428.5" y1="370.42" y2="370.42"/><line style="stroke:#181818;stroke-width:0.5;" x1="236.5" x2="428.5" y1="378.42" y2="378.42"/><ellipse cx="246.5" cy="392.1641" fill="#84BE84" rx="3" ry="3" style="stroke:#038048;stroke-width:1.0;"/><text fill="#000000" font-family="sans-serif" font-size="14" lengthAdjust="spacing" textLength="71" x="255.5" y="395.9552">allExams()</text><ellipse cx="246.5" cy="408.6524" fill="#84BE84" rx="3" ry="3" style="stroke:#038048;stroke-width:1.0;"/><text fill="#000000" font-family="sans-serif" font-size="14" lengthAdjust="spacing" textLength="168" x="255.5" y="412.4434">examOfLoggedStudent()</text></g><!--class RepositoryFactory--><g id="elem_RepositoryFactory"><rect codeLine="36" fill="#F1F1F1" height="64.4883" id="RepositoryFactory" rx="2.5" ry="2.5" style="stroke:#181818;stroke-width:0.5;" width="155" x="138" y="620.37"/><ellipse cx="153" cy="636.37" fill="#ADD1B2" rx="11" ry="11" style="stroke:#181818;stroke-width:1.0;"/><path d="M155.9731,642.0131 Q155.3921,642.3119 154.7529,642.4613 Q154.1138,642.6107 153.4082,642.6107 Q150.9014,642.6107 149.5815,640.9589 Q148.2617,639.307 148.2617,636.1859 Q148.2617,633.0565 149.5815,631.4047 Q150.9014,629.7528 153.4082,629.7528 Q154.1138,629.7528 154.7612,629.9022 Q155.4087,630.0516 155.9731,630.3505 L155.9731,633.0731 Q155.3423,632.4921 154.7488,632.2223 Q154.1553,631.9525 153.5244,631.9525 Q152.1797,631.9525 151.4949,633.0192 Q150.8101,634.0858 150.8101,636.1859 Q150.8101,638.2777 151.4949,639.3444 Q152.1797,640.411 153.5244,640.411 Q154.1553,640.411 154.7488,640.1412 Q155.3423,639.8715 155.9731,639.2904 Z " fill="#000000"/><text fill="#000000" font-family="sans-serif" font-size="14" lengthAdjust="spacing" textLength="123" x="167" y="641.661">RepositoryFactory</text><line style="stroke:#181818;stroke-width:0.5;" x1="139" x2="292" y1="652.37" y2="652.37"/><line style="stroke:#181818;stroke-width:0.5;" x1="139" x2="292" y1="660.37" y2="660.37"/><ellipse cx="149" cy="674.1141" fill="#84BE84" rx="3" ry="3" style="stroke:#038048;stroke-width:1.0;"/><text fill="#000000" font-family="sans-serif" font-size="14" lengthAdjust="spacing" textLength="52" x="158" y="677.9052">create()</text></g><!--class GradesOfExam--><g id="elem_GradesOfExam"><rect codeLine="40" fill="#F1F1F1" height="48" id="GradesOfExam" rx="2.5" ry="2.5" style="stroke:#181818;stroke-width:0.5;" width="134" x="675.5" y="354.91"/><ellipse cx="690.5" cy="370.91" fill="#ADD1B2" rx="11" ry="11" style="stroke:#181818;stroke-width:1.0;"/><path d="M693.4731,376.5531 Q692.8921,376.8519 692.2529,377.0013 Q691.6138,377.1507 690.9082,377.1507 Q688.4014,377.1507 687.0815,375.4989 Q685.7617,373.847 685.7617,370.7259 Q685.7617,367.5965 687.0815,365.9447 Q688.4014,364.2928 690.9082,364.2928 Q691.6138,364.2928 692.2612,364.4422 Q692.9087,364.5916 693.4731,364.8905 L693.4731,367.6131 Q692.8423,367.0321 692.2488,366.7623 Q691.6553,366.4925 691.0244,366.4925 Q689.6797,366.4925 688.9949,367.5592 Q688.3101,368.6258 688.3101,370.7259 Q688.3101,372.8177 688.9949,373.8844 Q689.6797,374.951 691.0244,374.951 Q691.6553,374.951 692.2488,374.6812 Q692.8423,374.4115 693.4731,373.8304 Z " fill="#000000"/><text fill="#000000" font-family="sans-serif" font-size="14" lengthAdjust="spacing" textLength="102" x="704.5" y="376.201">GradesOfExam</text><line style="stroke:#181818;stroke-width:0.5;" x1="676.5" x2="808.5" y1="386.91" y2="386.91"/><line style="stroke:#181818;stroke-width:0.5;" x1="676.5" x2="808.5" y1="394.91" y2="394.91"/></g><!--class ExamRepository--><g id="elem_ExamRepository"><rect codeLine="43" fill="#F1F1F1" height="64.4883" id="ExamRepository" rx="2.5" ry="2.5" style="stroke:#181818;stroke-width:0.5;" width="143" x="249" y="744.86"/><ellipse cx="264" cy="760.86" fill="#ADD1B2" rx="11" ry="11" style="stroke:#181818;stroke-width:1.0;"/><path d="M266.9731,766.5031 Q266.3921,766.8019 265.7529,766.9513 Q265.1138,767.1007 264.4082,767.1007 Q261.9014,767.1007 260.5815,765.4489 Q259.2617,763.797 259.2617,760.6759 Q259.2617,757.5465 260.5815,755.8947 Q261.9014,754.2428 264.4082,754.2428 Q265.1138,754.2428 265.7612,754.3922 Q266.4087,754.5416 266.9731,754.8405 L266.9731,757.5631 Q266.3423,756.9821 265.7488,756.7123 Q265.1553,756.4425 264.5244,756.4425 Q263.1797,756.4425 262.4949,757.5092 Q261.8101,758.5758 261.8101,760.6759 Q261.8101,762.7677 262.4949,763.8344 Q263.1797,764.901 264.5244,764.901 Q265.1553,764.901 265.7488,764.6312 Q266.3423,764.3615 266.9731,763.7804 Z " fill="#000000"/><text fill="#000000" font-family="sans-serif" font-size="14" lengthAdjust="spacing" textLength="111" x="278" y="766.151">ExamRepository</text><line style="stroke:#181818;stroke-width:0.5;" x1="250" x2="391" y1="776.86" y2="776.86"/><line style="stroke:#181818;stroke-width:0.5;" x1="250" x2="391" y1="784.86" y2="784.86"/><ellipse cx="260" cy="798.6041" fill="#84BE84" rx="3" ry="3" style="stroke:#038048;stroke-width:1.0;"/><text fill="#000000" font-family="sans-serif" font-size="14" lengthAdjust="spacing" textLength="55" x="269" y="802.3952">findAll()</text></g><!--link ListExamsUI to ListStudentExamGradesController--><g id="link_ListExamsUI_ListStudentExamGradesController"><path codeLine="47" d="M442.5,154.23 C442.5,172.78 442.5,191.97 442.5,207.91 " fill="none" id="ListExamsUI-to-ListStudentExamGradesController" style="stroke:#181818;stroke-width:1.0;"/><polygon fill="#181818" points="442.5,212.63,446.5,203.63,442.5,207.63,438.5,203.63,442.5,212.63" style="stroke:#181818;stroke-width:1.0;"/></g><!--link ListStudentExamGradesController to PersistenceContext--><g id="link_ListStudentExamGradesController_PersistenceContext"><path codeLine="48" d="M310.19,272.73 C274.63,286.24 240.09,306.89 218.5,338.42 C191.51,377.85 195.61,434.34 203.34,473.58 " fill="none" id="ListStudentExamGradesController-to-PersistenceContext" style="stroke:#181818;stroke-width:1.0;"/><polygon fill="#181818" points="204.5,478.24,206.6196,468.6219,203.5002,473.341,198.7811,470.2216,204.5,478.24" style="stroke:#181818;stroke-width:1.0;"/></g><!--link ListStudentExamGradesController to ListExamsService--><g id="link_ListStudentExamGradesController_ListExamsService"><path codeLine="49" d="M415.87,278.82 C402.04,295.26 384.91,315.62 369.78,333.6 " fill="none" id="ListStudentExamGradesController-to-ListExamsService" style="stroke:#181818;stroke-width:1.0;"/><polygon fill="#181818" points="365.98,337.12,374.8304,332.7991,369.195,333.2906,368.7034,327.6552,365.98,337.12" style="stroke:#181818;stroke-width:1.0;"/></g><!--link ListStudentExamGradesController to AuthorizationService--><g id="link_ListStudentExamGradesController_AuthorizationService"><path codeLine="50" d="M469.13,278.82 C485.21,297.93 505.74,322.34 522.41,342.14 " fill="none" id="ListStudentExamGradesController-to-AuthorizationService" style="stroke:#181818;stroke-width:1.0;"/><polygon fill="#181818" points="526.12,345.55,523.3966,336.0852,522.905,341.7206,517.2696,341.2291,526.12,345.55" style="stroke:#181818;stroke-width:1.0;"/></g><!--link ListStudentExamGradesController to GradesOfExam--><g id="link_ListStudentExamGradesController_GradesOfExam"><path codeLine="51" d="M518.89,278.86 C560.09,296.14 611.74,318.09 657.5,338.42 C667.25,342.75 677.58,347.46 687.56,352.06 " fill="none" id="ListStudentExamGradesController-to-GradesOfExam" style="stroke:#181818;stroke-width:1.0;"/><polygon fill="#181818" points="691.74,354.45,685.249,347.0428,687.2015,352.352,681.8922,354.3044,691.74,354.45" style="stroke:#181818;stroke-width:1.0;"/></g><!--link AuthorizationService to SystemUser--><g id="link_AuthorizationService_SystemUser"><path codeLine="52" d="M552.5,411.44 C552.5,432.32 552.5,459.8 552.5,481.73 " fill="none" id="AuthorizationService-to-SystemUser" style="stroke:#181818;stroke-width:1.0;"/><polygon fill="#181818" points="552.5,486.47,556.5,477.47,552.5,481.47,548.5,477.47,552.5,486.47" style="stroke:#181818;stroke-width:1.0;"/></g><!--link PersistenceContext to RepositoryFactory--><g id="link_PersistenceContext_RepositoryFactory"><path codeLine="53" d="M215.5,560.82 C215.5,577.96 215.5,597.85 215.5,614.65 " fill="none" id="PersistenceContext-to-RepositoryFactory" style="stroke:#181818;stroke-width:1.0;"/><polygon fill="#181818" points="215.5,619.22,219.5,610.22,215.5,614.22,211.5,610.22,215.5,619.22" style="stroke:#181818;stroke-width:1.0;"/></g><!--link RepositoryFactory to GradesOfExamRepository--><g id="link_RepositoryFactory_GradesOfExamRepository"><path codeLine="54" d="M188.46,685.16 C171.63,704.8 150.18,729.81 134.05,748.63 " fill="none" id="RepositoryFactory-to-GradesOfExamRepository" style="stroke:#181818;stroke-width:1.0;"/><polygon fill="#181818" points="130.48,751.79,139.3741,747.5599,133.734,747.9937,133.3001,742.3535,130.48,751.79" style="stroke:#181818;stroke-width:1.0;"/></g><!--link RepositoryFactory to ExamRepository--><g id="link_RepositoryFactory_ExamRepository"><path codeLine="55" d="M242.54,685.16 C256.99,702.02 274.84,722.84 289.81,740.31 " fill="none" id="RepositoryFactory-to-ExamRepository" style="stroke:#181818;stroke-width:1.0;"/><polygon fill="#181818" points="293.55,743.67,290.7299,734.2335,290.296,739.8737,284.6559,739.4399,293.55,743.67" style="stroke:#181818;stroke-width:1.0;"/></g><!--link ListExamsService to PersistenceContext--><g id="link_ListExamsService_PersistenceContext"><path codeLine="56" d="M298.97,419.73 C284.53,436.89 267.59,457.01 252.76,474.63 " fill="none" id="ListExamsService-to-PersistenceContext" style="stroke:#181818;stroke-width:1.0;"/><polygon fill="#181818" points="249.03,478.05,257.8898,473.7484,252.2533,474.2277,251.7741,468.5911,249.03,478.05" style="stroke:#181818;stroke-width:1.0;"/></g><!--SRC=[ZLBBQiCm4BphAtniAVw17WgXz0Lf4sho0K9UEm9P2bgbn2tzzwxy5BBTs3UjPsPtPrOeZfXi9Rgd2w_my9Ryi8I-koFmN4aDDxVj6wgJgzy1aPTZJK45sc7qtbkf7TYksXK_UDNp57Lx9Va6yikO66R8t3adh1_bnH807ursrYW5jfyBwD-ks9goXBo3XoejRLTuYKyu6PJEs9h80s8F5gaLQ05U7IwkaquRRaozNv1ifx7zMmA6OspExaZ5R-waqHdOBocWtm39HAg6yAocWQe3Zcjo4g3LfE0ESlyZjgg9ArBcIZNb8O__lHgNUUQYiwdX2GlKTidMqCo9pGs_a3hVADKAXBULfW_NScRNxi1hJ3DSHOjzMqMQYt8LCVICpHw4HutHivdBz8X9J6mQNDmlkDDvS0IQNDI2oty0]--></g></svg>