<?xml version="1.0" encoding="UTF-8" standalone="no"?><svg xmlns="http://www.w3.org/2000/svg" xmlns:xlink="http://www.w3.org/1999/xlink" contentStyleType="text/css" height="975px" preserveAspectRatio="none" style="width:2397px;height:975px;background:#FFFFFF;" version="1.1" viewBox="0 0 2397 975" width="2397px" zoomAndPan="magnify"><defs/><g><rect fill="#FFFFFF" height="777.0742" style="stroke:#181818;stroke-width:1.0;" width="10" x="29.5" y="93.9766"/><rect fill="#FFFFFF" height="731.4531" style="stroke:#181818;stroke-width:1.0;" width="10" x="370.5" y="130.5977"/><rect fill="#FFFFFF" height="614.2109" style="stroke:#181818;stroke-width:1.0;" width="10" x="563.5" y="159.9082"/><rect fill="#FFFFFF" height="555.5898" style="stroke:#181818;stroke-width:1.0;" width="10" x="757.5" y="189.2188"/><rect fill="#FFFFFF" height="29.3105" style="stroke:#181818;stroke-width:1.0;" width="10" x="1005.5" y="218.5293"/><rect fill="#FFFFFF" height="87.9316" style="stroke:#181818;stroke-width:1.0;" width="10" x="1166" y="277.1504"/><rect fill="#FFFFFF" height="146.5527" style="stroke:#181818;stroke-width:1.0;" width="10" x="1166" y="418.7031"/><rect fill="#FFFFFF" height="87.9316" style="stroke:#181818;stroke-width:1.0;" width="10" x="1374" y="448.0137"/><rect fill="#FFFFFF" height="29.3105" style="stroke:#181818;stroke-width:1.0;" width="10" x="1483.5" y="306.4609"/><rect fill="#FFFFFF" height="29.3105" style="stroke:#181818;stroke-width:1.0;" width="10" x="1642.5" y="477.3242"/><rect fill="#FFFFFF" height="71.6211" style="stroke:#181818;stroke-width:1.0;" width="10" x="1980.5" y="594.5664"/><rect fill="#FFFFFF" height="29.3105" style="stroke:#181818;stroke-width:1.0;" width="10" x="2328.5" y="803.4297"/><rect fill="none" height="336.416" style="stroke:#000000;stroke-width:1.5;" width="1646" x="687.5" y="380.082"/><line style="stroke:#181818;stroke-width:0.5;stroke-dasharray:5.0,5.0;" x1="34" x2="34" y1="83.9766" y2="880.0508"/><line style="stroke:#181818;stroke-width:0.5;stroke-dasharray:5.0,5.0;" x1="375.5" x2="375.5" y1="83.9766" y2="880.0508"/><line style="stroke:#181818;stroke-width:0.5;stroke-dasharray:5.0,5.0;" x1="568.5" x2="568.5" y1="83.9766" y2="880.0508"/><line style="stroke:#181818;stroke-width:0.5;stroke-dasharray:5.0,5.0;" x1="762.5" x2="762.5" y1="83.9766" y2="880.0508"/><line style="stroke:#181818;stroke-width:0.5;stroke-dasharray:5.0,5.0;" x1="1010" x2="1010" y1="83.9766" y2="880.0508"/><line style="stroke:#181818;stroke-width:0.5;stroke-dasharray:5.0,5.0;" x1="1171" x2="1171" y1="83.9766" y2="880.0508"/><line style="stroke:#181818;stroke-width:0.5;stroke-dasharray:5.0,5.0;" x1="1378.5" x2="1378.5" y1="83.9766" y2="880.0508"/><line style="stroke:#181818;stroke-width:0.5;stroke-dasharray:5.0,5.0;" x1="1488.5" x2="1488.5" y1="83.9766" y2="880.0508"/><line style="stroke:#181818;stroke-width:0.5;stroke-dasharray:5.0,5.0;" x1="1647.5" x2="1647.5" y1="83.9766" y2="880.0508"/><line style="stroke:#181818;stroke-width:0.5;stroke-dasharray:5.0,5.0;" x1="1802.5" x2="1802.5" y1="83.9766" y2="880.0508"/><line style="stroke:#181818;stroke-width:0.5;stroke-dasharray:5.0,5.0;" x1="1985.5" x2="1985.5" y1="83.9766" y2="880.0508"/><line style="stroke:#181818;stroke-width:0.5;stroke-dasharray:5.0,5.0;" x1="2333" x2="2333" y1="83.9766" y2="880.0508"/><text fill="#000000" font-family="sans-serif" font-size="14" lengthAdjust="spacing" textLength="53" x="5" y="81.0234">Student</text><ellipse cx="34.5" cy="15.9883" fill="#E2E2F0" rx="8" ry="8" style="stroke:#181818;stroke-width:0.5;"/><path d="M34.5,23.9883 L34.5,50.9883 M21.5,31.9883 L47.5,31.9883 M34.5,50.9883 L21.5,65.9883 M34.5,50.9883 L47.5,65.9883 " fill="none" style="stroke:#181818;stroke-width:0.5;"/><text fill="#000000" font-family="sans-serif" font-size="14" lengthAdjust="spacing" textLength="53" x="5" y="892.5859">Student</text><ellipse cx="34.5" cy="904.0391" fill="#E2E2F0" rx="8" ry="8" style="stroke:#181818;stroke-width:0.5;"/><path d="M34.5,912.0391 L34.5,939.0391 M21.5,920.0391 L47.5,920.0391 M34.5,939.0391 L21.5,954.0391 M34.5,939.0391 L47.5,954.0391 " fill="none" style="stroke:#181818;stroke-width:0.5;"/><rect fill="#E2E2F0" height="46.9766" rx="2.5" ry="2.5" style="stroke:#181818;stroke-width:0.5;" width="114" x="318.5" y="36"/><text fill="#000000" font-family="sans-serif" font-size="14" font-style="italic" lengthAdjust="spacing" textLength="100" x="325.5" y="56.5352">«Presentation»</text><text fill="#000000" font-family="sans-serif" font-size="14" lengthAdjust="spacing" textLength="82" x="334.5" y="73.0234">ListExamsUI</text><rect fill="#E2E2F0" height="46.9766" rx="2.5" ry="2.5" style="stroke:#181818;stroke-width:0.5;" width="114" x="318.5" y="879.0508"/><text fill="#000000" font-family="sans-serif" font-size="14" font-style="italic" lengthAdjust="spacing" textLength="100" x="325.5" y="899.5859">«Presentation»</text><text fill="#000000" font-family="sans-serif" font-size="14" lengthAdjust="spacing" textLength="82" x="334.5" y="916.0742">ListExamsUI</text><text fill="#000000" font-family="sans-serif" font-size="14" font-style="italic" lengthAdjust="spacing" textLength="90" x="520.5" y="64.5352">«application»</text><text fill="#000000" font-family="sans-serif" font-size="14" lengthAdjust="spacing" textLength="232" x="449.5" y="81.0234">ListStudentExamGradesController</text><ellipse cx="568.5" cy="35" fill="#E2E2F0" rx="12" ry="12" style="stroke:#181818;stroke-width:0.5;"/><polygon fill="#181818" points="564.5,23,570.5,18,568.5,23,570.5,28,564.5,23" style="stroke:#181818;stroke-width:1.0;"/><text fill="#000000" font-family="sans-serif" font-size="14" font-style="italic" lengthAdjust="spacing" textLength="90" x="520.5" y="892.5859">«application»</text><text fill="#000000" font-family="sans-serif" font-size="14" lengthAdjust="spacing" textLength="232" x="449.5" y="909.0742">ListStudentExamGradesController</text><ellipse cx="568.5" cy="928.0273" fill="#E2E2F0" rx="12" ry="12" style="stroke:#181818;stroke-width:0.5;"/><polygon fill="#181818" points="564.5,916.0273,570.5,911.0273,568.5,916.0273,570.5,921.0273,564.5,916.0273" style="stroke:#181818;stroke-width:1.0;"/><rect fill="#E2E2F0" height="46.9766" rx="2.5" ry="2.5" style="stroke:#181818;stroke-width:0.5;" width="130" x="697.5" y="36"/><text fill="#000000" font-family="sans-serif" font-size="14" font-style="italic" lengthAdjust="spacing" textLength="90" x="717.5" y="56.5352">«application»</text><text fill="#000000" font-family="sans-serif" font-size="14" lengthAdjust="spacing" textLength="116" x="704.5" y="73.0234">ListExamsService</text><rect fill="#E2E2F0" height="46.9766" rx="2.5" ry="2.5" style="stroke:#181818;stroke-width:0.5;" width="130" x="697.5" y="879.0508"/><text fill="#000000" font-family="sans-serif" font-size="14" font-style="italic" lengthAdjust="spacing" textLength="90" x="717.5" y="899.5859">«application»</text><text fill="#000000" font-family="sans-serif" font-size="14" lengthAdjust="spacing" textLength="116" x="704.5" y="916.0742">ListExamsService</text><rect fill="#E2E2F0" height="46.9766" rx="2.5" ry="2.5" style="stroke:#181818;stroke-width:0.5;" width="155" x="933" y="36"/><text fill="#000000" font-family="sans-serif" font-size="14" font-style="italic" lengthAdjust="spacing" textLength="90" x="965.5" y="56.5352">«application»</text><text fill="#000000" font-family="sans-serif" font-size="14" lengthAdjust="spacing" textLength="141" x="940" y="73.0234">authorizationService</text><rect fill="#E2E2F0" height="46.9766" rx="2.5" ry="2.5" style="stroke:#181818;stroke-width:0.5;" width="155" x="933" y="879.0508"/><text fill="#000000" font-family="sans-serif" font-size="14" font-style="italic" lengthAdjust="spacing" textLength="90" x="965.5" y="899.5859">«application»</text><text fill="#000000" font-family="sans-serif" font-size="14" lengthAdjust="spacing" textLength="141" x="940" y="916.0742">authorizationService</text><rect fill="#E2E2F0" height="46.9766" rx="2.5" ry="2.5" style="stroke:#181818;stroke-width:0.5;" width="146" x="1098" y="36"/><text fill="#000000" font-family="sans-serif" font-size="14" font-style="italic" lengthAdjust="spacing" textLength="92" x="1125" y="56.5352">«persistence»</text><text fill="#000000" font-family="sans-serif" font-size="14" lengthAdjust="spacing" textLength="132" x="1105" y="73.0234">PersistenceContext</text><rect fill="#E2E2F0" height="46.9766" rx="2.5" ry="2.5" style="stroke:#181818;stroke-width:0.5;" width="146" x="1098" y="879.0508"/><text fill="#000000" font-family="sans-serif" font-size="14" font-style="italic" lengthAdjust="spacing" textLength="92" x="1125" y="899.5859">«persistence»</text><text fill="#000000" font-family="sans-serif" font-size="14" lengthAdjust="spacing" textLength="132" x="1105" y="916.0742">PersistenceContext</text><rect fill="#E2E2F0" height="46.9766" rx="2.5" ry="2.5" style="stroke:#181818;stroke-width:0.5;" width="75" x="1341.5" y="36"/><text fill="#000000" font-family="sans-serif" font-size="14" font-style="italic" lengthAdjust="spacing" textLength="61" x="1348.5" y="56.5352">«factory»</text><text fill="#000000" font-family="sans-serif" font-size="14" lengthAdjust="spacing" textLength="50" x="1354" y="73.0234">Factory</text><rect fill="#E2E2F0" height="46.9766" rx="2.5" ry="2.5" style="stroke:#181818;stroke-width:0.5;" width="75" x="1341.5" y="879.0508"/><text fill="#000000" font-family="sans-serif" font-size="14" font-style="italic" lengthAdjust="spacing" textLength="61" x="1348.5" y="899.5859">«factory»</text><text fill="#000000" font-family="sans-serif" font-size="14" lengthAdjust="spacing" textLength="50" x="1354" y="916.0742">Factory</text><text fill="#000000" font-family="sans-serif" font-size="14" font-style="italic" lengthAdjust="spacing" textLength="84" x="1443.5" y="64.5352">«repository»</text><text fill="#000000" font-family="sans-serif" font-size="14" lengthAdjust="spacing" textLength="118" x="1426.5" y="81.0234">ExamsRepository</text><path d="M1470.5,15 C1470.5,5 1488.5,5 1488.5,5 C1488.5,5 1506.5,5 1506.5,15 L1506.5,41 C1506.5,51 1488.5,51 1488.5,51 C1488.5,51 1470.5,51 1470.5,41 L1470.5,15 " fill="#E2E2F0" style="stroke:#181818;stroke-width:1.5;"/><path d="M1470.5,15 C1470.5,25 1488.5,25 1488.5,25 C1488.5,25 1506.5,25 1506.5,15 " fill="none" style="stroke:#181818;stroke-width:1.5;"/><text fill="#000000" font-family="sans-serif" font-size="14" font-style="italic" lengthAdjust="spacing" textLength="84" x="1443.5" y="892.5859">«repository»</text><text fill="#000000" font-family="sans-serif" font-size="14" lengthAdjust="spacing" textLength="118" x="1426.5" y="909.0742">ExamsRepository</text><path d="M1470.5,922.0273 C1470.5,912.0273 1488.5,912.0273 1488.5,912.0273 C1488.5,912.0273 1506.5,912.0273 1506.5,922.0273 L1506.5,948.0273 C1506.5,958.0273 1488.5,958.0273 1488.5,958.0273 C1488.5,958.0273 1470.5,958.0273 1470.5,948.0273 L1470.5,922.0273 " fill="#E2E2F0" style="stroke:#181818;stroke-width:1.5;"/><path d="M1470.5,922.0273 C1470.5,932.0273 1488.5,932.0273 1488.5,932.0273 C1488.5,932.0273 1506.5,932.0273 1506.5,922.0273 " fill="none" style="stroke:#181818;stroke-width:1.5;"/><text fill="#000000" font-family="sans-serif" font-size="14" font-style="italic" lengthAdjust="spacing" textLength="84" x="1602.5" y="64.5352">«repository»</text><text fill="#000000" font-family="sans-serif" font-size="14" lengthAdjust="spacing" textLength="168" x="1560.5" y="81.0234">GradeOfExamRepository</text><path d="M1629.5,15 C1629.5,5 1647.5,5 1647.5,5 C1647.5,5 1665.5,5 1665.5,15 L1665.5,41 C1665.5,51 1647.5,51 1647.5,51 C1647.5,51 1629.5,51 1629.5,41 L1629.5,15 " fill="#E2E2F0" style="stroke:#181818;stroke-width:1.5;"/><path d="M1629.5,15 C1629.5,25 1647.5,25 1647.5,25 C1647.5,25 1665.5,25 1665.5,15 " fill="none" style="stroke:#181818;stroke-width:1.5;"/><text fill="#000000" font-family="sans-serif" font-size="14" font-style="italic" lengthAdjust="spacing" textLength="84" x="1602.5" y="892.5859">«repository»</text><text fill="#000000" font-family="sans-serif" font-size="14" lengthAdjust="spacing" textLength="168" x="1560.5" y="909.0742">GradeOfExamRepository</text><path d="M1629.5,922.0273 C1629.5,912.0273 1647.5,912.0273 1647.5,912.0273 C1647.5,912.0273 1665.5,912.0273 1665.5,922.0273 L1665.5,948.0273 C1665.5,958.0273 1647.5,958.0273 1647.5,958.0273 C1647.5,958.0273 1629.5,958.0273 1629.5,948.0273 L1629.5,922.0273 " fill="#E2E2F0" style="stroke:#181818;stroke-width:1.5;"/><path d="M1629.5,922.0273 C1629.5,932.0273 1647.5,932.0273 1647.5,932.0273 C1647.5,932.0273 1665.5,932.0273 1665.5,922.0273 " fill="none" style="stroke:#181818;stroke-width:1.5;"/><rect fill="#E2E2F0" height="46.9766" rx="2.5" ry="2.5" style="stroke:#181818;stroke-width:0.5;" width="116" x="1744.5" y="36"/><text fill="#000000" font-family="sans-serif" font-size="14" font-style="italic" lengthAdjust="spacing" textLength="66" x="1769.5" y="56.5352">«domain»</text><text fill="#000000" font-family="sans-serif" font-size="14" lengthAdjust="spacing" textLength="102" x="1751.5" y="73.0234">theExam:Exam</text><rect fill="#E2E2F0" height="46.9766" rx="2.5" ry="2.5" style="stroke:#181818;stroke-width:0.5;" width="116" x="1744.5" y="879.0508"/><text fill="#000000" font-family="sans-serif" font-size="14" font-style="italic" lengthAdjust="spacing" textLength="66" x="1769.5" y="899.5859">«domain»</text><text fill="#000000" font-family="sans-serif" font-size="14" lengthAdjust="spacing" textLength="102" x="1751.5" y="916.0742">theExam:Exam</text><rect fill="#E2E2F0" height="46.9766" rx="2.5" ry="2.5" style="stroke:#181818;stroke-width:0.5;" width="230" x="1870.5" y="36"/><text fill="#000000" font-family="sans-serif" font-size="14" font-style="italic" lengthAdjust="spacing" textLength="66" x="1952.5" y="56.5352">«domain»</text><text fill="#000000" font-family="sans-serif" font-size="14" lengthAdjust="spacing" textLength="216" x="1877.5" y="73.0234">theGradeOfExam:GradeOfExam</text><rect fill="#E2E2F0" height="46.9766" rx="2.5" ry="2.5" style="stroke:#181818;stroke-width:0.5;" width="230" x="1870.5" y="879.0508"/><text fill="#000000" font-family="sans-serif" font-size="14" font-style="italic" lengthAdjust="spacing" textLength="66" x="1952.5" y="899.5859">«domain»</text><text fill="#000000" font-family="sans-serif" font-size="14" lengthAdjust="spacing" textLength="216" x="1877.5" y="916.0742">theGradeOfExam:GradeOfExam</text><rect fill="#E2E2F0" height="46.9766" rx="2.5" ry="2.5" style="stroke:#181818;stroke-width:0.5;" width="115" x="2276" y="36"/><text fill="#000000" font-family="sans-serif" font-size="14" font-style="italic" lengthAdjust="spacing" textLength="101" x="2283" y="56.5352">«presentation»</text><text fill="#000000" font-family="sans-serif" font-size="14" lengthAdjust="spacing" textLength="101" x="2283" y="73.0234">elementPrinter</text><rect fill="#E2E2F0" height="46.9766" rx="2.5" ry="2.5" style="stroke:#181818;stroke-width:0.5;" width="115" x="2276" y="879.0508"/><text fill="#000000" font-family="sans-serif" font-size="14" font-style="italic" lengthAdjust="spacing" textLength="101" x="2283" y="899.5859">«presentation»</text><text fill="#000000" font-family="sans-serif" font-size="14" lengthAdjust="spacing" textLength="101" x="2283" y="916.0742">elementPrinter</text><rect fill="#FFFFFF" height="777.0742" style="stroke:#181818;stroke-width:1.0;" width="10" x="29.5" y="93.9766"/><rect fill="#FFFFFF" height="731.4531" style="stroke:#181818;stroke-width:1.0;" width="10" x="370.5" y="130.5977"/><rect fill="#FFFFFF" height="614.2109" style="stroke:#181818;stroke-width:1.0;" width="10" x="563.5" y="159.9082"/><rect fill="#FFFFFF" height="555.5898" style="stroke:#181818;stroke-width:1.0;" width="10" x="757.5" y="189.2188"/><rect fill="#FFFFFF" height="29.3105" style="stroke:#181818;stroke-width:1.0;" width="10" x="1005.5" y="218.5293"/><rect fill="#FFFFFF" height="87.9316" style="stroke:#181818;stroke-width:1.0;" width="10" x="1166" y="277.1504"/><rect fill="#FFFFFF" height="146.5527" style="stroke:#181818;stroke-width:1.0;" width="10" x="1166" y="418.7031"/><rect fill="#FFFFFF" height="87.9316" style="stroke:#181818;stroke-width:1.0;" width="10" x="1374" y="448.0137"/><rect fill="#FFFFFF" height="29.3105" style="stroke:#181818;stroke-width:1.0;" width="10" x="1483.5" y="306.4609"/><rect fill="#FFFFFF" height="29.3105" style="stroke:#181818;stroke-width:1.0;" width="10" x="1642.5" y="477.3242"/><rect fill="#FFFFFF" height="71.6211" style="stroke:#181818;stroke-width:1.0;" width="10" x="1980.5" y="594.5664"/><rect fill="#FFFFFF" height="29.3105" style="stroke:#181818;stroke-width:1.0;" width="10" x="2328.5" y="803.4297"/><polygon fill="#181818" points="358.5,126.5977,368.5,130.5977,358.5,134.5977,362.5,130.5977" style="stroke:#181818;stroke-width:1.0;"/><line style="stroke:#181818;stroke-width:1.0;" x1="39.5" x2="364.5" y1="130.5977" y2="130.5977"/><text fill="#000000" font-family="sans-serif" font-size="13" font-weight="bold" lengthAdjust="spacing" textLength="9" x="46.5" y="118.2002">1</text><text fill="#000000" font-family="sans-serif" font-size="13" lengthAdjust="spacing" textLength="106" x="59.5" y="110.5449">Select the option</text><text fill="#000000" font-family="sans-serif" font-size="13" lengthAdjust="spacing" textLength="143" x="59.5" y="125.8555">to update Course state</text><polygon fill="#181818" points="551.5,155.9082,561.5,159.9082,551.5,163.9082,555.5,159.9082" style="stroke:#181818;stroke-width:1.0;"/><line style="stroke:#181818;stroke-width:1.0;" x1="380.5" x2="557.5" y1="159.9082" y2="159.9082"/><text fill="#000000" font-family="sans-serif" font-size="13" font-weight="bold" lengthAdjust="spacing" textLength="9" x="387.5" y="155.166">2</text><text fill="#000000" font-family="sans-serif" font-size="13" lengthAdjust="spacing" textLength="151" x="400.5" y="155.166">examOfLoggedStudent()</text><polygon fill="#181818" points="745.5,185.2188,755.5,189.2188,745.5,193.2188,749.5,189.2188" style="stroke:#181818;stroke-width:1.0;"/><line style="stroke:#181818;stroke-width:1.0;" x1="573.5" x2="751.5" y1="189.2188" y2="189.2188"/><text fill="#000000" font-family="sans-serif" font-size="13" font-weight="bold" lengthAdjust="spacing" textLength="9" x="580.5" y="184.4766">3</text><text fill="#000000" font-family="sans-serif" font-size="13" lengthAdjust="spacing" textLength="151" x="593.5" y="184.4766">examOfLoggedStudent()</text><polygon fill="#181818" points="993.5,214.5293,1003.5,218.5293,993.5,222.5293,997.5,218.5293" style="stroke:#181818;stroke-width:1.0;"/><line style="stroke:#181818;stroke-width:1.0;" x1="767.5" x2="999.5" y1="218.5293" y2="218.5293"/><text fill="#000000" font-family="sans-serif" font-size="13" font-weight="bold" lengthAdjust="spacing" textLength="9" x="774.5" y="213.7871">4</text><text fill="#000000" font-family="sans-serif" font-size="13" lengthAdjust="spacing" textLength="206" x="787.5" y="213.7871">session.get().authenticatedUser()</text><polygon fill="#181818" points="778.5,243.8398,768.5,247.8398,778.5,251.8398,774.5,247.8398" style="stroke:#181818;stroke-width:1.0;"/><line style="stroke:#181818;stroke-width:1.0;" x1="772.5" x2="1009.5" y1="247.8398" y2="247.8398"/><text fill="#000000" font-family="sans-serif" font-size="13" font-weight="bold" lengthAdjust="spacing" textLength="9" x="784.5" y="243.0977">5</text><text fill="#000000" font-family="sans-serif" font-size="13" lengthAdjust="spacing" textLength="71" x="797.5" y="243.0977">loggedUser</text><polygon fill="#181818" points="1154,273.1504,1164,277.1504,1154,281.1504,1158,277.1504" style="stroke:#181818;stroke-width:1.0;"/><line style="stroke:#181818;stroke-width:1.0;" x1="767.5" x2="1160" y1="277.1504" y2="277.1504"/><text fill="#000000" font-family="sans-serif" font-size="13" font-weight="bold" lengthAdjust="spacing" textLength="9" x="774.5" y="272.4082">6</text><text fill="#000000" font-family="sans-serif" font-size="13" lengthAdjust="spacing" textLength="50" x="787.5" y="272.4082">findAll()</text><polygon fill="#181818" points="1471.5,302.4609,1481.5,306.4609,1471.5,310.4609,1475.5,306.4609" style="stroke:#181818;stroke-width:1.0;"/><line style="stroke:#181818;stroke-width:1.0;" x1="1176" x2="1477.5" y1="306.4609" y2="306.4609"/><text fill="#000000" font-family="sans-serif" font-size="13" font-weight="bold" lengthAdjust="spacing" textLength="9" x="1183" y="301.7188">7</text><text fill="#000000" font-family="sans-serif" font-size="13" lengthAdjust="spacing" textLength="48" x="1196" y="301.7188">findall()</text><polygon fill="#181818" points="1187,331.7715,1177,335.7715,1187,339.7715,1183,335.7715" style="stroke:#181818;stroke-width:1.0;"/><line style="stroke:#181818;stroke-width:1.0;" x1="1181" x2="1487.5" y1="335.7715" y2="335.7715"/><text fill="#000000" font-family="sans-serif" font-size="13" font-weight="bold" lengthAdjust="spacing" textLength="9" x="1193" y="331.0293">8</text><text fill="#000000" font-family="sans-serif" font-size="13" lengthAdjust="spacing" textLength="101" x="1206" y="331.0293">Iterable&lt;Exam&gt;</text><polygon fill="#181818" points="778.5,361.082,768.5,365.082,778.5,369.082,774.5,365.082" style="stroke:#181818;stroke-width:1.0;"/><line style="stroke:#181818;stroke-width:1.0;" x1="772.5" x2="1170" y1="365.082" y2="365.082"/><text fill="#000000" font-family="sans-serif" font-size="13" font-weight="bold" lengthAdjust="spacing" textLength="9" x="784.5" y="360.3398">9</text><text fill="#000000" font-family="sans-serif" font-size="13" lengthAdjust="spacing" textLength="101" x="797.5" y="360.3398">Iterable&lt;Exam&gt;</text><path d="M687.5,380.082 L761.5,380.082 L761.5,387.3926 L751.5,397.3926 L687.5,397.3926 L687.5,380.082 " fill="#EEEEEE" style="stroke:#000000;stroke-width:1.5;"/><rect fill="none" height="336.416" style="stroke:#000000;stroke-width:1.5;" width="1646" x="687.5" y="380.082"/><text fill="#000000" font-family="sans-serif" font-size="13" font-weight="bold" lengthAdjust="spacing" textLength="29" x="702.5" y="393.6504">loop</text><text fill="#000000" font-family="sans-serif" font-size="11" font-weight="bold" lengthAdjust="spacing" textLength="144" x="776.5" y="392.7168">[Iterable&lt;GradeOfExam&gt;]</text><polygon fill="#181818" points="1154,414.7031,1164,418.7031,1154,422.7031,1158,418.7031" style="stroke:#181818;stroke-width:1.0;"/><line style="stroke:#181818;stroke-width:1.0;" x1="767.5" x2="1160" y1="418.7031" y2="418.7031"/><text fill="#000000" font-family="sans-serif" font-size="13" font-weight="bold" lengthAdjust="spacing" textLength="18" x="774.5" y="413.9609">10</text><text fill="#000000" font-family="sans-serif" font-size="13" lengthAdjust="spacing" textLength="50" x="796.5" y="413.9609">findAll()</text><polygon fill="#181818" points="1362,444.0137,1372,448.0137,1362,452.0137,1366,448.0137" style="stroke:#181818;stroke-width:1.0;"/><line style="stroke:#181818;stroke-width:1.0;" x1="1176" x2="1368" y1="448.0137" y2="448.0137"/><text fill="#000000" font-family="sans-serif" font-size="13" font-weight="bold" lengthAdjust="spacing" textLength="18" x="1183" y="443.2715">11</text><text fill="#000000" font-family="sans-serif" font-size="13" lengthAdjust="spacing" textLength="83" x="1205" y="443.2715">repositories()</text><polygon fill="#181818" points="1630.5,473.3242,1640.5,477.3242,1630.5,481.3242,1634.5,477.3242" style="stroke:#181818;stroke-width:1.0;"/><line style="stroke:#181818;stroke-width:1.0;" x1="1384" x2="1636.5" y1="477.3242" y2="477.3242"/><text fill="#000000" font-family="sans-serif" font-size="13" font-weight="bold" lengthAdjust="spacing" textLength="18" x="1391" y="472.582">12</text><text fill="#000000" font-family="sans-serif" font-size="13" lengthAdjust="spacing" textLength="50" x="1413" y="472.582">findAll()</text><polygon fill="#181818" points="1395,502.6348,1385,506.6348,1395,510.6348,1391,506.6348" style="stroke:#181818;stroke-width:1.0;"/><line style="stroke:#181818;stroke-width:1.0;" x1="1389" x2="1646.5" y1="506.6348" y2="506.6348"/><text fill="#000000" font-family="sans-serif" font-size="13" font-weight="bold" lengthAdjust="spacing" textLength="18" x="1401" y="501.8926">13</text><text fill="#000000" font-family="sans-serif" font-size="13" lengthAdjust="spacing" textLength="152" x="1423" y="501.8926">Iterable&lt;GradeOfExam&gt;</text><polygon fill="#181818" points="1187,531.9453,1177,535.9453,1187,539.9453,1183,535.9453" style="stroke:#181818;stroke-width:1.0;"/><line style="stroke:#181818;stroke-width:1.0;" x1="1181" x2="1378" y1="535.9453" y2="535.9453"/><text fill="#000000" font-family="sans-serif" font-size="13" font-weight="bold" lengthAdjust="spacing" textLength="18" x="1193" y="531.2031">14</text><text fill="#000000" font-family="sans-serif" font-size="13" lengthAdjust="spacing" textLength="152" x="1215" y="531.2031">Iterable&lt;GradeOfExam&gt;</text><polygon fill="#181818" points="778.5,561.2559,768.5,565.2559,778.5,569.2559,774.5,565.2559" style="stroke:#181818;stroke-width:1.0;"/><line style="stroke:#181818;stroke-width:1.0;" x1="772.5" x2="1170" y1="565.2559" y2="565.2559"/><text fill="#000000" font-family="sans-serif" font-size="13" font-weight="bold" lengthAdjust="spacing" textLength="18" x="784.5" y="560.5137">15</text><text fill="#000000" font-family="sans-serif" font-size="13" lengthAdjust="spacing" textLength="152" x="806.5" y="560.5137">Iterable&lt;GradeOfExam&gt;</text><polygon fill="#181818" points="1968.5,590.5664,1978.5,594.5664,1968.5,598.5664,1972.5,594.5664" style="stroke:#181818;stroke-width:1.0;"/><line style="stroke:#181818;stroke-width:1.0;" x1="767.5" x2="1974.5" y1="594.5664" y2="594.5664"/><text fill="#000000" font-family="sans-serif" font-size="13" font-weight="bold" lengthAdjust="spacing" textLength="18" x="774.5" y="589.8242">16</text><text fill="#000000" font-family="sans-serif" font-size="13" lengthAdjust="spacing" textLength="351" x="796.5" y="589.8242">gradeOfExam.studentWhoDidExam().equals(loggedUser)</text><line style="stroke:#181818;stroke-width:1.0;" x1="1990.5" x2="2032.5" y1="623.877" y2="623.877"/><line style="stroke:#181818;stroke-width:1.0;" x1="2032.5" x2="2032.5" y1="623.877" y2="636.877"/><line style="stroke:#181818;stroke-width:1.0;" x1="1991.5" x2="2032.5" y1="636.877" y2="636.877"/><polygon fill="#181818" points="2001.5,632.877,1991.5,636.877,2001.5,640.877,1997.5,636.877" style="stroke:#181818;stroke-width:1.0;"/><text fill="#000000" font-family="sans-serif" font-size="13" font-weight="bold" lengthAdjust="spacing" textLength="18" x="1997.5" y="619.1348">17</text><text fill="#000000" font-family="sans-serif" font-size="13" lengthAdjust="spacing" textLength="302" x="2019.5" y="619.1348">grade.studentWhoDidExam().equals(loggedUser)</text><polygon fill="#181818" points="778.5,662.1875,768.5,666.1875,778.5,670.1875,774.5,666.1875" style="stroke:#181818;stroke-width:1.0;"/><line style="stroke:#181818;stroke-width:1.0;" x1="772.5" x2="1984.5" y1="666.1875" y2="666.1875"/><text fill="#000000" font-family="sans-serif" font-size="13" font-weight="bold" lengthAdjust="spacing" textLength="18" x="784.5" y="661.4453">18</text><text fill="#000000" font-family="sans-serif" font-size="13" lengthAdjust="spacing" textLength="85" x="806.5" y="661.4453">GradeOfExam</text><line style="stroke:#181818;stroke-width:1.0;" x1="767.5" x2="809.5" y1="695.498" y2="695.498"/><line style="stroke:#181818;stroke-width:1.0;" x1="809.5" x2="809.5" y1="695.498" y2="708.498"/><line style="stroke:#181818;stroke-width:1.0;" x1="768.5" x2="809.5" y1="708.498" y2="708.498"/><polygon fill="#181818" points="778.5,704.498,768.5,708.498,778.5,712.498,774.5,708.498" style="stroke:#181818;stroke-width:1.0;"/><text fill="#000000" font-family="sans-serif" font-size="13" font-weight="bold" lengthAdjust="spacing" textLength="18" x="774.5" y="690.7559">19</text><text fill="#000000" font-family="sans-serif" font-size="13" lengthAdjust="spacing" textLength="116" x="796.5" y="690.7559">add(GradeOfExam)</text><polygon fill="#181818" points="584.5,740.8086,574.5,744.8086,584.5,748.8086,580.5,744.8086" style="stroke:#181818;stroke-width:1.0;"/><line style="stroke:#181818;stroke-width:1.0;" x1="578.5" x2="761.5" y1="744.8086" y2="744.8086"/><text fill="#000000" font-family="sans-serif" font-size="13" font-weight="bold" lengthAdjust="spacing" textLength="18" x="590.5" y="740.0664">20</text><text fill="#000000" font-family="sans-serif" font-size="13" lengthAdjust="spacing" textLength="132" x="612.5" y="740.0664">loggedStudentExams</text><polygon fill="#181818" points="391.5,770.1191,381.5,774.1191,391.5,778.1191,387.5,774.1191" style="stroke:#181818;stroke-width:1.0;"/><line style="stroke:#181818;stroke-width:1.0;" x1="385.5" x2="567.5" y1="774.1191" y2="774.1191"/><text fill="#000000" font-family="sans-serif" font-size="13" font-weight="bold" lengthAdjust="spacing" textLength="18" x="397.5" y="769.377">21</text><text fill="#000000" font-family="sans-serif" font-size="13" lengthAdjust="spacing" textLength="132" x="419.5" y="769.377">loggedStudentExams</text><polygon fill="#181818" points="2316.5,799.4297,2326.5,803.4297,2316.5,807.4297,2320.5,803.4297" style="stroke:#181818;stroke-width:1.0;"/><line style="stroke:#181818;stroke-width:1.0;" x1="380.5" x2="2322.5" y1="803.4297" y2="803.4297"/><text fill="#000000" font-family="sans-serif" font-size="13" font-weight="bold" lengthAdjust="spacing" textLength="18" x="387.5" y="798.6875">22</text><text fill="#000000" font-family="sans-serif" font-size="13" lengthAdjust="spacing" textLength="99" x="409.5" y="798.6875">elementPrinter()</text><polygon fill="#181818" points="391.5,828.7402,381.5,832.7402,391.5,836.7402,387.5,832.7402" style="stroke:#181818;stroke-width:1.0;"/><line style="stroke:#181818;stroke-width:1.0;" x1="385.5" x2="2332.5" y1="832.7402" y2="832.7402"/><text fill="#000000" font-family="sans-serif" font-size="13" font-weight="bold" lengthAdjust="spacing" textLength="18" x="397.5" y="827.998">23</text><text fill="#000000" font-family="sans-serif" font-size="13" lengthAdjust="spacing" textLength="123" x="419.5" y="827.998">Prints each element</text><polygon fill="#181818" points="50.5,858.0508,40.5,862.0508,50.5,866.0508,46.5,862.0508" style="stroke:#181818;stroke-width:1.0;"/><line style="stroke:#181818;stroke-width:1.0;" x1="44.5" x2="374.5" y1="862.0508" y2="862.0508"/><text fill="#000000" font-family="sans-serif" font-size="13" font-weight="bold" lengthAdjust="spacing" textLength="18" x="56.5" y="857.3086">24</text><text fill="#000000" font-family="sans-serif" font-size="13" lengthAdjust="spacing" textLength="285" x="78.5" y="857.3086">Shows the Grade of each exam of the student</text><!--SRC=[bLLDRzim3BthLmYzh3iqkHj6WA3xG842BLOKk-oYM4mYGBOyIUww_VgHyXTZACdcWo69V8yKzKHzECROXcAzRgrgObVRLUNgTO2V7JGLt6cZ3bxLGgWkkgQhT-1nN4NdvKliD3HHgY2tj43Bvar56AQjyj5KfaLQ-MX2_Fokwl3wGFxuByjd3m7nAXhNR3QYSatqpYRNWPeGNxtI4EvxemLFS3OhIzMsrbGZIpRe2_WtKm51n-4b76xrwBpvasmCkyNrVy4_WmyOckf7cS9xgX5RHNGxpnReBwcwlmao3ijotu_GLQkeTYg0J3lx1gqBPlHdixBqquIZKZcVzWG-nHwoXWKDp_Cc7e6y2_hT40KD4A5ThKoJyMQn2pPEM3O_Hm4MQXJ5ipTOqwI3SOZbFDMII0gKTnjKMe5dRg6A4ZEGhYKF-QE9JdQj9h7UkyvZOGA2OPRmwuD0aIB1hBL20cRtj7zqXmFeGQAt7sVCx2gOGf5Z4CrLWi5FZ293ADDS8GE4WEcl3e2m5SaK2KY3e5y3U4x5S8BhbcTZKnw451goI8PYyYtatZHwQoqFoEo2InsXivvwf3f5pcR1bBSC-O07hNOMIfB8XYVCy8l0qqxFWtdQ4Z_hN3kxCrLkafc-wqKPFSz6eM-Hwt3N2pbTE0CXnpKuJeQnII17zWvVJ2oBcDpoFO4dUxbIhCwN0x4zv0_z6lsoA5U5S8qmTsBiu7ahutjRXVvMVp-wJqRJ2bvKV4kL3RVpTSiS12ESZBmdPcF-RxG5uLILN71MYvmvrq-KrhVCjuyBZUPjXBTJo_jWUixupHnxq6ahfNv-6SUwSD_1XrUYM3mW9yshNnBZWp84IjCWaViuWazwnu3gmwGd1n-Re_iLqbkJIY7TVi1JqN52bk7OE1U-D-8l]--></g></svg>