<?xml version="1.0" encoding="UTF-8" standalone="no"?><svg xmlns="http://www.w3.org/2000/svg" xmlns:xlink="http://www.w3.org/1999/xlink" contentStyleType="text/css" height="786px" preserveAspectRatio="none" style="width:2158px;height:786px;background:#FFFFFF;" version="1.1" viewBox="0 0 2158 786" width="2158px" zoomAndPan="magnify"><defs/><g><rect fill="#FFFFFF" height="588.2109" style="stroke:#181818;stroke-width:1.0;" width="10" x="29.5" y="93.9766"/><rect fill="#FFFFFF" height="542.5898" style="stroke:#181818;stroke-width:1.0;" width="10" x="370.5" y="130.5977"/><rect fill="#FFFFFF" height="425.3477" style="stroke:#181818;stroke-width:1.0;" width="10" x="563.5" y="159.9082"/><rect fill="#FFFFFF" height="366.7266" style="stroke:#181818;stroke-width:1.0;" width="10" x="757.5" y="189.2188"/><rect fill="#FFFFFF" height="29.3105" style="stroke:#181818;stroke-width:1.0;" width="10" x="1005.5" y="218.5293"/><rect fill="#FFFFFF" height="87.9316" style="stroke:#181818;stroke-width:1.0;" width="10" x="1166" y="277.1504"/><rect fill="#FFFFFF" height="29.3105" style="stroke:#181818;stroke-width:1.0;" width="10" x="1314" y="306.4609"/><rect fill="#FFFFFF" height="29.3105" style="stroke:#181818;stroke-width:1.0;" width="10" x="1554.5" y="418.7031"/><rect fill="#FFFFFF" height="29.3105" style="stroke:#181818;stroke-width:1.0;" width="10" x="1907.5" y="448.0137"/><rect fill="#FFFFFF" height="29.3105" style="stroke:#181818;stroke-width:1.0;" width="10" x="2090" y="614.5664"/><rect fill="none" height="147.5527" style="stroke:#000000;stroke-width:1.5;" width="1350" x="687.5" y="380.082"/><line style="stroke:#181818;stroke-width:0.5;stroke-dasharray:5.0,5.0;" x1="34" x2="34" y1="83.9766" y2="691.1875"/><line style="stroke:#181818;stroke-width:0.5;stroke-dasharray:5.0,5.0;" x1="375.5" x2="375.5" y1="83.9766" y2="691.1875"/><line style="stroke:#181818;stroke-width:0.5;stroke-dasharray:5.0,5.0;" x1="568.5" x2="568.5" y1="83.9766" y2="691.1875"/><line style="stroke:#181818;stroke-width:0.5;stroke-dasharray:5.0,5.0;" x1="762.5" x2="762.5" y1="83.9766" y2="691.1875"/><line style="stroke:#181818;stroke-width:0.5;stroke-dasharray:5.0,5.0;" x1="1010" x2="1010" y1="83.9766" y2="691.1875"/><line style="stroke:#181818;stroke-width:0.5;stroke-dasharray:5.0,5.0;" x1="1171" x2="1171" y1="83.9766" y2="691.1875"/><line style="stroke:#181818;stroke-width:0.5;stroke-dasharray:5.0,5.0;" x1="1319" x2="1319" y1="83.9766" y2="691.1875"/><line style="stroke:#181818;stroke-width:0.5;stroke-dasharray:5.0,5.0;" x1="1559.5" x2="1559.5" y1="83.9766" y2="691.1875"/><line style="stroke:#181818;stroke-width:0.5;stroke-dasharray:5.0,5.0;" x1="1912.5" x2="1912.5" y1="83.9766" y2="691.1875"/><line style="stroke:#181818;stroke-width:0.5;stroke-dasharray:5.0,5.0;" x1="2094.5" x2="2094.5" y1="83.9766" y2="691.1875"/><text fill="#000000" font-family="sans-serif" font-size="14" lengthAdjust="spacing" textLength="53" x="5" y="81.0234">Student</text><ellipse cx="34.5" cy="15.9883" fill="#E2E2F0" rx="8" ry="8" style="stroke:#181818;stroke-width:0.5;"/><path d="M34.5,23.9883 L34.5,50.9883 M21.5,31.9883 L47.5,31.9883 M34.5,50.9883 L21.5,65.9883 M34.5,50.9883 L47.5,65.9883 " fill="none" style="stroke:#181818;stroke-width:0.5;"/><text fill="#000000" font-family="sans-serif" font-size="14" lengthAdjust="spacing" textLength="53" x="5" y="703.7227">Student</text><ellipse cx="34.5" cy="715.1758" fill="#E2E2F0" rx="8" ry="8" style="stroke:#181818;stroke-width:0.5;"/><path d="M34.5,723.1758 L34.5,750.1758 M21.5,731.1758 L47.5,731.1758 M34.5,750.1758 L21.5,765.1758 M34.5,750.1758 L47.5,765.1758 " fill="none" style="stroke:#181818;stroke-width:0.5;"/><rect fill="#E2E2F0" height="46.9766" rx="2.5" ry="2.5" style="stroke:#181818;stroke-width:0.5;" width="114" x="318.5" y="36"/><text fill="#000000" font-family="sans-serif" font-size="14" font-style="italic" lengthAdjust="spacing" textLength="100" x="325.5" y="56.5352">«Presentation»</text><text fill="#000000" font-family="sans-serif" font-size="14" lengthAdjust="spacing" textLength="82" x="334.5" y="73.0234">ListExamsUI</text><rect fill="#E2E2F0" height="46.9766" rx="2.5" ry="2.5" style="stroke:#181818;stroke-width:0.5;" width="114" x="318.5" y="690.1875"/><text fill="#000000" font-family="sans-serif" font-size="14" font-style="italic" lengthAdjust="spacing" textLength="100" x="325.5" y="710.7227">«Presentation»</text><text fill="#000000" font-family="sans-serif" font-size="14" lengthAdjust="spacing" textLength="82" x="334.5" y="727.2109">ListExamsUI</text><text fill="#000000" font-family="sans-serif" font-size="14" font-style="italic" lengthAdjust="spacing" textLength="92" x="519.5" y="64.5352">«Application»</text><text fill="#000000" font-family="sans-serif" font-size="14" lengthAdjust="spacing" textLength="232" x="449.5" y="81.0234">ListStudentExamGradesController</text><ellipse cx="568.5" cy="35" fill="#E2E2F0" rx="12" ry="12" style="stroke:#181818;stroke-width:0.5;"/><polygon fill="#181818" points="564.5,23,570.5,18,568.5,23,570.5,28,564.5,23" style="stroke:#181818;stroke-width:1.0;"/><text fill="#000000" font-family="sans-serif" font-size="14" font-style="italic" lengthAdjust="spacing" textLength="92" x="519.5" y="703.7227">«Application»</text><text fill="#000000" font-family="sans-serif" font-size="14" lengthAdjust="spacing" textLength="232" x="449.5" y="720.2109">ListStudentExamGradesController</text><ellipse cx="568.5" cy="739.1641" fill="#E2E2F0" rx="12" ry="12" style="stroke:#181818;stroke-width:0.5;"/><polygon fill="#181818" points="564.5,727.1641,570.5,722.1641,568.5,727.1641,570.5,732.1641,564.5,727.1641" style="stroke:#181818;stroke-width:1.0;"/><rect fill="#E2E2F0" height="46.9766" rx="2.5" ry="2.5" style="stroke:#181818;stroke-width:0.5;" width="130" x="697.5" y="36"/><text fill="#000000" font-family="sans-serif" font-size="14" font-style="italic" lengthAdjust="spacing" textLength="92" x="716.5" y="56.5352">«Application»</text><text fill="#000000" font-family="sans-serif" font-size="14" lengthAdjust="spacing" textLength="116" x="704.5" y="73.0234">ListExamsService</text><rect fill="#E2E2F0" height="46.9766" rx="2.5" ry="2.5" style="stroke:#181818;stroke-width:0.5;" width="130" x="697.5" y="690.1875"/><text fill="#000000" font-family="sans-serif" font-size="14" font-style="italic" lengthAdjust="spacing" textLength="92" x="716.5" y="710.7227">«Application»</text><text fill="#000000" font-family="sans-serif" font-size="14" lengthAdjust="spacing" textLength="116" x="704.5" y="727.2109">ListExamsService</text><rect fill="#E2E2F0" height="46.9766" rx="2.5" ry="2.5" style="stroke:#181818;stroke-width:0.5;" width="155" x="933" y="36"/><text fill="#000000" font-family="sans-serif" font-size="14" font-style="italic" lengthAdjust="spacing" textLength="92" x="964.5" y="56.5352">«Application»</text><text fill="#000000" font-family="sans-serif" font-size="14" lengthAdjust="spacing" textLength="141" x="940" y="73.0234">authorizationService</text><rect fill="#E2E2F0" height="46.9766" rx="2.5" ry="2.5" style="stroke:#181818;stroke-width:0.5;" width="155" x="933" y="690.1875"/><text fill="#000000" font-family="sans-serif" font-size="14" font-style="italic" lengthAdjust="spacing" textLength="92" x="964.5" y="710.7227">«Application»</text><text fill="#000000" font-family="sans-serif" font-size="14" lengthAdjust="spacing" textLength="141" x="940" y="727.2109">authorizationService</text><rect fill="#E2E2F0" height="46.9766" rx="2.5" ry="2.5" style="stroke:#181818;stroke-width:0.5;" width="146" x="1098" y="36"/><text fill="#000000" font-family="sans-serif" font-size="14" font-style="italic" lengthAdjust="spacing" textLength="92" x="1125" y="56.5352">«persistence»</text><text fill="#000000" font-family="sans-serif" font-size="14" lengthAdjust="spacing" textLength="132" x="1105" y="73.0234">PersistenceContext</text><rect fill="#E2E2F0" height="46.9766" rx="2.5" ry="2.5" style="stroke:#181818;stroke-width:0.5;" width="146" x="1098" y="690.1875"/><text fill="#000000" font-family="sans-serif" font-size="14" font-style="italic" lengthAdjust="spacing" textLength="92" x="1125" y="710.7227">«persistence»</text><text fill="#000000" font-family="sans-serif" font-size="14" lengthAdjust="spacing" textLength="132" x="1105" y="727.2109">PersistenceContext</text><text fill="#000000" font-family="sans-serif" font-size="14" font-style="italic" lengthAdjust="spacing" textLength="87" x="1272.5" y="64.5352">«Repository»</text><text fill="#000000" font-family="sans-serif" font-size="14" lengthAdjust="spacing" textLength="118" x="1257" y="81.0234">ExamsRepository</text><path d="M1301,15 C1301,5 1319,5 1319,5 C1319,5 1337,5 1337,15 L1337,41 C1337,51 1319,51 1319,51 C1319,51 1301,51 1301,41 L1301,15 " fill="#E2E2F0" style="stroke:#181818;stroke-width:1.5;"/><path d="M1301,15 C1301,25 1319,25 1319,25 C1319,25 1337,25 1337,15 " fill="none" style="stroke:#181818;stroke-width:1.5;"/><text fill="#000000" font-family="sans-serif" font-size="14" font-style="italic" lengthAdjust="spacing" textLength="87" x="1272.5" y="703.7227">«Repository»</text><text fill="#000000" font-family="sans-serif" font-size="14" lengthAdjust="spacing" textLength="118" x="1257" y="720.2109">ExamsRepository</text><path d="M1301,733.1641 C1301,723.1641 1319,723.1641 1319,723.1641 C1319,723.1641 1337,723.1641 1337,733.1641 L1337,759.1641 C1337,769.1641 1319,769.1641 1319,769.1641 C1319,769.1641 1301,769.1641 1301,759.1641 L1301,733.1641 " fill="#E2E2F0" style="stroke:#181818;stroke-width:1.5;"/><path d="M1301,733.1641 C1301,743.1641 1319,743.1641 1319,743.1641 C1319,743.1641 1337,743.1641 1337,733.1641 " fill="none" style="stroke:#181818;stroke-width:1.5;"/><rect fill="#E2E2F0" height="46.9766" rx="2.5" ry="2.5" style="stroke:#181818;stroke-width:0.5;" width="116" x="1501.5" y="36"/><text fill="#000000" font-family="sans-serif" font-size="14" font-style="italic" lengthAdjust="spacing" textLength="67" x="1526" y="56.5352">«Domain»</text><text fill="#000000" font-family="sans-serif" font-size="14" lengthAdjust="spacing" textLength="102" x="1508.5" y="73.0234">theExam:Exam</text><rect fill="#E2E2F0" height="46.9766" rx="2.5" ry="2.5" style="stroke:#181818;stroke-width:0.5;" width="116" x="1501.5" y="690.1875"/><text fill="#000000" font-family="sans-serif" font-size="14" font-style="italic" lengthAdjust="spacing" textLength="67" x="1526" y="710.7227">«Domain»</text><text fill="#000000" font-family="sans-serif" font-size="14" lengthAdjust="spacing" textLength="102" x="1508.5" y="727.2109">theExam:Exam</text><rect fill="#E2E2F0" height="46.9766" rx="2.5" ry="2.5" style="stroke:#181818;stroke-width:0.5;" width="230" x="1797.5" y="36"/><text fill="#000000" font-family="sans-serif" font-size="14" font-style="italic" lengthAdjust="spacing" textLength="67" x="1879" y="56.5352">«Domain»</text><text fill="#000000" font-family="sans-serif" font-size="14" lengthAdjust="spacing" textLength="216" x="1804.5" y="73.0234">theGradeOfExam:GradeOfExam</text><rect fill="#E2E2F0" height="46.9766" rx="2.5" ry="2.5" style="stroke:#181818;stroke-width:0.5;" width="230" x="1797.5" y="690.1875"/><text fill="#000000" font-family="sans-serif" font-size="14" font-style="italic" lengthAdjust="spacing" textLength="67" x="1879" y="710.7227">«Domain»</text><text fill="#000000" font-family="sans-serif" font-size="14" lengthAdjust="spacing" textLength="216" x="1804.5" y="727.2109">theGradeOfExam:GradeOfExam</text><rect fill="#E2E2F0" height="46.9766" rx="2.5" ry="2.5" style="stroke:#181818;stroke-width:0.5;" width="115" x="2037.5" y="36"/><text fill="#000000" font-family="sans-serif" font-size="14" font-style="italic" lengthAdjust="spacing" textLength="100" x="2045" y="56.5352">«Presentation»</text><text fill="#000000" font-family="sans-serif" font-size="14" lengthAdjust="spacing" textLength="101" x="2044.5" y="73.0234">elementPrinter</text><rect fill="#E2E2F0" height="46.9766" rx="2.5" ry="2.5" style="stroke:#181818;stroke-width:0.5;" width="115" x="2037.5" y="690.1875"/><text fill="#000000" font-family="sans-serif" font-size="14" font-style="italic" lengthAdjust="spacing" textLength="100" x="2045" y="710.7227">«Presentation»</text><text fill="#000000" font-family="sans-serif" font-size="14" lengthAdjust="spacing" textLength="101" x="2044.5" y="727.2109">elementPrinter</text><rect fill="#FFFFFF" height="588.2109" style="stroke:#181818;stroke-width:1.0;" width="10" x="29.5" y="93.9766"/><rect fill="#FFFFFF" height="542.5898" style="stroke:#181818;stroke-width:1.0;" width="10" x="370.5" y="130.5977"/><rect fill="#FFFFFF" height="425.3477" style="stroke:#181818;stroke-width:1.0;" width="10" x="563.5" y="159.9082"/><rect fill="#FFFFFF" height="366.7266" style="stroke:#181818;stroke-width:1.0;" width="10" x="757.5" y="189.2188"/><rect fill="#FFFFFF" height="29.3105" style="stroke:#181818;stroke-width:1.0;" width="10" x="1005.5" y="218.5293"/><rect fill="#FFFFFF" height="87.9316" style="stroke:#181818;stroke-width:1.0;" width="10" x="1166" y="277.1504"/><rect fill="#FFFFFF" height="29.3105" style="stroke:#181818;stroke-width:1.0;" width="10" x="1314" y="306.4609"/><rect fill="#FFFFFF" height="29.3105" style="stroke:#181818;stroke-width:1.0;" width="10" x="1554.5" y="418.7031"/><rect fill="#FFFFFF" height="29.3105" style="stroke:#181818;stroke-width:1.0;" width="10" x="1907.5" y="448.0137"/><rect fill="#FFFFFF" height="29.3105" style="stroke:#181818;stroke-width:1.0;" width="10" x="2090" y="614.5664"/><polygon fill="#181818" points="358.5,126.5977,368.5,130.5977,358.5,134.5977,362.5,130.5977" style="stroke:#181818;stroke-width:1.0;"/><line style="stroke:#181818;stroke-width:1.0;" x1="39.5" x2="364.5" y1="130.5977" y2="130.5977"/><text fill="#000000" font-family="sans-serif" font-size="13" font-weight="bold" lengthAdjust="spacing" textLength="9" x="46.5" y="118.2002">1</text><text fill="#000000" font-family="sans-serif" font-size="13" lengthAdjust="spacing" textLength="106" x="59.5" y="110.5449">Select the option</text><text fill="#000000" font-family="sans-serif" font-size="13" lengthAdjust="spacing" textLength="143" x="59.5" y="125.8555">to update Course state</text><polygon fill="#181818" points="551.5,155.9082,561.5,159.9082,551.5,163.9082,555.5,159.9082" style="stroke:#181818;stroke-width:1.0;"/><line style="stroke:#181818;stroke-width:1.0;" x1="380.5" x2="557.5" y1="159.9082" y2="159.9082"/><text fill="#000000" font-family="sans-serif" font-size="13" font-weight="bold" lengthAdjust="spacing" textLength="9" x="387.5" y="155.166">2</text><text fill="#000000" font-family="sans-serif" font-size="13" lengthAdjust="spacing" textLength="151" x="400.5" y="155.166">examOfLoggedStudent()</text><polygon fill="#181818" points="745.5,185.2188,755.5,189.2188,745.5,193.2188,749.5,189.2188" style="stroke:#181818;stroke-width:1.0;"/><line style="stroke:#181818;stroke-width:1.0;" x1="573.5" x2="751.5" y1="189.2188" y2="189.2188"/><text fill="#000000" font-family="sans-serif" font-size="13" font-weight="bold" lengthAdjust="spacing" textLength="9" x="580.5" y="184.4766">3</text><text fill="#000000" font-family="sans-serif" font-size="13" lengthAdjust="spacing" textLength="151" x="593.5" y="184.4766">examOfLoggedStudent()</text><polygon fill="#181818" points="993.5,214.5293,1003.5,218.5293,993.5,222.5293,997.5,218.5293" style="stroke:#181818;stroke-width:1.0;"/><line style="stroke:#181818;stroke-width:1.0;" x1="767.5" x2="999.5" y1="218.5293" y2="218.5293"/><text fill="#000000" font-family="sans-serif" font-size="13" font-weight="bold" lengthAdjust="spacing" textLength="9" x="774.5" y="213.7871">4</text><text fill="#000000" font-family="sans-serif" font-size="13" lengthAdjust="spacing" textLength="206" x="787.5" y="213.7871">session.get().authenticatedUser()</text><polygon fill="#181818" points="778.5,243.8398,768.5,247.8398,778.5,251.8398,774.5,247.8398" style="stroke:#181818;stroke-width:1.0;"/><line style="stroke:#181818;stroke-width:1.0;" x1="772.5" x2="1009.5" y1="247.8398" y2="247.8398"/><text fill="#000000" font-family="sans-serif" font-size="13" font-weight="bold" lengthAdjust="spacing" textLength="9" x="784.5" y="243.0977">5</text><text fill="#000000" font-family="sans-serif" font-size="13" lengthAdjust="spacing" textLength="71" x="797.5" y="243.0977">loggedUser</text><polygon fill="#181818" points="1154,273.1504,1164,277.1504,1154,281.1504,1158,277.1504" style="stroke:#181818;stroke-width:1.0;"/><line style="stroke:#181818;stroke-width:1.0;" x1="767.5" x2="1160" y1="277.1504" y2="277.1504"/><text fill="#000000" font-family="sans-serif" font-size="13" font-weight="bold" lengthAdjust="spacing" textLength="9" x="774.5" y="272.4082">6</text><text fill="#000000" font-family="sans-serif" font-size="13" lengthAdjust="spacing" textLength="50" x="787.5" y="272.4082">findAll()</text><polygon fill="#181818" points="1302,302.4609,1312,306.4609,1302,310.4609,1306,306.4609" style="stroke:#181818;stroke-width:1.0;"/><line style="stroke:#181818;stroke-width:1.0;" x1="1176" x2="1308" y1="306.4609" y2="306.4609"/><text fill="#000000" font-family="sans-serif" font-size="13" font-weight="bold" lengthAdjust="spacing" textLength="9" x="1183" y="301.7188">7</text><text fill="#000000" font-family="sans-serif" font-size="13" lengthAdjust="spacing" textLength="48" x="1196" y="301.7188">findall()</text><polygon fill="#181818" points="1187,331.7715,1177,335.7715,1187,339.7715,1183,335.7715" style="stroke:#181818;stroke-width:1.0;"/><line style="stroke:#181818;stroke-width:1.0;" x1="1181" x2="1318" y1="335.7715" y2="335.7715"/><text fill="#000000" font-family="sans-serif" font-size="13" font-weight="bold" lengthAdjust="spacing" textLength="9" x="1193" y="331.0293">8</text><text fill="#000000" font-family="sans-serif" font-size="13" lengthAdjust="spacing" textLength="101" x="1206" y="331.0293">Iterable&lt;Exam&gt;</text><polygon fill="#181818" points="778.5,361.082,768.5,365.082,778.5,369.082,774.5,365.082" style="stroke:#181818;stroke-width:1.0;"/><line style="stroke:#181818;stroke-width:1.0;" x1="772.5" x2="1170" y1="365.082" y2="365.082"/><text fill="#000000" font-family="sans-serif" font-size="13" font-weight="bold" lengthAdjust="spacing" textLength="9" x="784.5" y="360.3398">9</text><text fill="#000000" font-family="sans-serif" font-size="13" lengthAdjust="spacing" textLength="101" x="797.5" y="360.3398">Iterable&lt;Exam&gt;</text><path d="M687.5,380.082 L761.5,380.082 L761.5,387.3926 L751.5,397.3926 L687.5,397.3926 L687.5,380.082 " fill="#EEEEEE" style="stroke:#000000;stroke-width:1.5;"/><rect fill="none" height="147.5527" style="stroke:#000000;stroke-width:1.5;" width="1350" x="687.5" y="380.082"/><text fill="#000000" font-family="sans-serif" font-size="13" font-weight="bold" lengthAdjust="spacing" textLength="29" x="702.5" y="393.6504">loop</text><text fill="#000000" font-family="sans-serif" font-size="11" font-weight="bold" lengthAdjust="spacing" textLength="98" x="776.5" y="392.7168">[Iterable&lt;Exam&gt;]</text><polygon fill="#181818" points="1542.5,414.7031,1552.5,418.7031,1542.5,422.7031,1546.5,418.7031" style="stroke:#181818;stroke-width:1.0;"/><line style="stroke:#181818;stroke-width:1.0;" x1="767.5" x2="1548.5" y1="418.7031" y2="418.7031"/><text fill="#000000" font-family="sans-serif" font-size="13" font-weight="bold" lengthAdjust="spacing" textLength="18" x="774.5" y="413.9609">10</text><text fill="#000000" font-family="sans-serif" font-size="13" lengthAdjust="spacing" textLength="746" x="796.5" y="413.9609">exam.getExamGrades().stream().filter(grade -&gt; grade.studentWhoDidExam().equals(loggedUser)).findFirst().orElse(null);</text><polygon fill="#181818" points="1895.5,444.0137,1905.5,448.0137,1895.5,452.0137,1899.5,448.0137" style="stroke:#181818;stroke-width:1.0;"/><line style="stroke:#181818;stroke-width:1.0;" x1="1559.5" x2="1901.5" y1="448.0137" y2="448.0137"/><text fill="#000000" font-family="sans-serif" font-size="13" font-weight="bold" lengthAdjust="spacing" textLength="18" x="1566.5" y="443.2715">11</text><text fill="#000000" font-family="sans-serif" font-size="13" lengthAdjust="spacing" textLength="302" x="1588.5" y="443.2715">grade.studentWhoDidExam().equals(loggedUser)</text><polygon fill="#181818" points="778.5,473.3242,768.5,477.3242,778.5,481.3242,774.5,477.3242" style="stroke:#181818;stroke-width:1.0;"/><line style="stroke:#181818;stroke-width:1.0;" x1="772.5" x2="1911.5" y1="477.3242" y2="477.3242"/><text fill="#000000" font-family="sans-serif" font-size="13" font-weight="bold" lengthAdjust="spacing" textLength="18" x="784.5" y="472.582">12</text><text fill="#000000" font-family="sans-serif" font-size="13" lengthAdjust="spacing" textLength="85" x="806.5" y="472.582">GradeOfExam</text><line style="stroke:#181818;stroke-width:1.0;" x1="767.5" x2="809.5" y1="506.6348" y2="506.6348"/><line style="stroke:#181818;stroke-width:1.0;" x1="809.5" x2="809.5" y1="506.6348" y2="519.6348"/><line style="stroke:#181818;stroke-width:1.0;" x1="768.5" x2="809.5" y1="519.6348" y2="519.6348"/><polygon fill="#181818" points="778.5,515.6348,768.5,519.6348,778.5,523.6348,774.5,519.6348" style="stroke:#181818;stroke-width:1.0;"/><text fill="#000000" font-family="sans-serif" font-size="13" font-weight="bold" lengthAdjust="spacing" textLength="18" x="774.5" y="501.8926">13</text><text fill="#000000" font-family="sans-serif" font-size="13" lengthAdjust="spacing" textLength="116" x="796.5" y="501.8926">add(GradeOfExam)</text><polygon fill="#181818" points="584.5,551.9453,574.5,555.9453,584.5,559.9453,580.5,555.9453" style="stroke:#181818;stroke-width:1.0;"/><line style="stroke:#181818;stroke-width:1.0;" x1="578.5" x2="761.5" y1="555.9453" y2="555.9453"/><text fill="#000000" font-family="sans-serif" font-size="13" font-weight="bold" lengthAdjust="spacing" textLength="18" x="590.5" y="551.2031">14</text><text fill="#000000" font-family="sans-serif" font-size="13" lengthAdjust="spacing" textLength="132" x="612.5" y="551.2031">loggedStudentExams</text><polygon fill="#181818" points="391.5,581.2559,381.5,585.2559,391.5,589.2559,387.5,585.2559" style="stroke:#181818;stroke-width:1.0;"/><line style="stroke:#181818;stroke-width:1.0;" x1="385.5" x2="567.5" y1="585.2559" y2="585.2559"/><text fill="#000000" font-family="sans-serif" font-size="13" font-weight="bold" lengthAdjust="spacing" textLength="18" x="397.5" y="580.5137">15</text><text fill="#000000" font-family="sans-serif" font-size="13" lengthAdjust="spacing" textLength="132" x="419.5" y="580.5137">loggedStudentExams</text><polygon fill="#181818" points="2078,610.5664,2088,614.5664,2078,618.5664,2082,614.5664" style="stroke:#181818;stroke-width:1.0;"/><line style="stroke:#181818;stroke-width:1.0;" x1="380.5" x2="2084" y1="614.5664" y2="614.5664"/><text fill="#000000" font-family="sans-serif" font-size="13" font-weight="bold" lengthAdjust="spacing" textLength="18" x="387.5" y="609.8242">16</text><text fill="#000000" font-family="sans-serif" font-size="13" lengthAdjust="spacing" textLength="99" x="409.5" y="609.8242">elementPrinter()</text><polygon fill="#181818" points="391.5,639.877,381.5,643.877,391.5,647.877,387.5,643.877" style="stroke:#181818;stroke-width:1.0;"/><line style="stroke:#181818;stroke-width:1.0;" x1="385.5" x2="2094" y1="643.877" y2="643.877"/><text fill="#000000" font-family="sans-serif" font-size="13" font-weight="bold" lengthAdjust="spacing" textLength="18" x="397.5" y="639.1348">17</text><text fill="#000000" font-family="sans-serif" font-size="13" lengthAdjust="spacing" textLength="123" x="419.5" y="639.1348">Prints each element</text><polygon fill="#181818" points="50.5,669.1875,40.5,673.1875,50.5,677.1875,46.5,673.1875" style="stroke:#181818;stroke-width:1.0;"/><line style="stroke:#181818;stroke-width:1.0;" x1="44.5" x2="374.5" y1="673.1875" y2="673.1875"/><text fill="#000000" font-family="sans-serif" font-size="13" font-weight="bold" lengthAdjust="spacing" textLength="18" x="56.5" y="668.4453">18</text><text fill="#000000" font-family="sans-serif" font-size="13" lengthAdjust="spacing" textLength="285" x="78.5" y="668.4453">Shows the Grade of each exam of the student</text><!--SRC=[bLHDRzim3BthLmYzB3aqkNj6WA3jXW056gm8Tjb5iPXOW6nvajnr-_KZvIycSxlD1qCI-KYAxuaVoXYRaAtNZLLrR2kxAbor3l2zXRg0MstKsQjA2DL6LxVL4JokY-YyV8wjXZfA5UIM3kZOlAW8_RPHFfh2D1XMFfeG7rvL5GuxyiT_dkyz1CIhQ5ozsOZ2rT4xcrpxq8Jux9M6SDSPBNY2irsURvl6ccA8Cflq6VoBAO2Wm_8z75wrTDxyIZQ6tUBvl-3tu0EcflvHfV2QUiHE4TrCEqHh5TLH1P2ft2_Gk62mXJy9ntPvFcskSjx44WYSqU-6SBH0nBshbAbdl5DZdqu9nDO9o_PlXG0B5LAqzmPlc5WPbdymAv8UvEq6US-G0Gj5b5Y1T0rvo6zrTB9jD4ddphKU-n0G39EW3Zk1ai404_EP1ApkwVJepcVGlM0MomapkGgc5upHK_ZN0BsV62X7A5D09WE4WEMlpe2m5Oa60v0YG1y2U1wAuGHN4Q_6fZe8AJJC8XcAYIcJ9rFhhRKy8RCBBZo4JXBgaEeIEPa5KzvroXqIhOuMSfB8XXVCy5U9nvk-3UPbI_oiSysrk-m_resauKGdaJ5D3QGbH0-gmiN9M8opE9E1C6c1vaJxrzBT6qr0zCJHfsnOJ7mi2LthJyO7Ojhv1njWKRVMBZ-EvOnte2ZZQNf1c8q_jlzAFKPYNRh8C9wo5AEHlsFEm9mlIp1ddfEiqdh1VBjYeTPSgVp5MlxKqgZZv0yoltojD3BUnx67tWs9VX1bLpFgudrqHsAOMNsYj0qIOvS3-4AUFQfBawOQphFI_GXfdALMI7VgyTHqt92bvvh7mf4cVWC0]--></g></svg>