<?xml version="1.0" encoding="us-ascii" standalone="no"?><svg xmlns="http://www.w3.org/2000/svg" xmlns:xlink="http://www.w3.org/1999/xlink" contentStyleType="text/css" height="642px" preserveAspectRatio="none" style="width:448px;height:642px;background:#FFFFFF;" version="1.1" viewBox="0 0 448 642" width="448px" zoomAndPan="magnify"><defs/><g><!--class User--><g id="elem_User"><rect codeLine="2" fill="#F1F1F1" height="48" id="User" rx="2.5" ry="2.5" style="stroke:#181818;stroke-width:0.5;" width="63" x="184.5" y="7"/><ellipse cx="199.5" cy="23" fill="#ADD1B2" rx="11" ry="11" style="stroke:#181818;stroke-width:1.0;"/><path d="M202.4731,28.6431 Q201.8921,28.9419 201.2529,29.0913 Q200.6138,29.2407 199.9082,29.2407 Q197.4014,29.2407 196.0815,27.5889 Q194.7617,25.937 194.7617,22.8159 Q194.7617,19.6865 196.0815,18.0347 Q197.4014,16.3828 199.9082,16.3828 Q200.6138,16.3828 201.2612,16.5322 Q201.9087,16.6816 202.4731,16.9805 L202.4731,19.7031 Q201.8423,19.1221 201.2488,18.8523 Q200.6553,18.5825 200.0244,18.5825 Q198.6797,18.5825 197.9949,19.6492 Q197.3101,20.7158 197.3101,22.8159 Q197.3101,24.9077 197.9949,25.9744 Q198.6797,27.041 200.0244,27.041 Q200.6553,27.041 201.2488,26.7712 Q201.8423,26.5015 202.4731,25.9204 Z " fill="#000000"/><text fill="#000000" font-family="sans-serif" font-size="14" lengthAdjust="spacing" textLength="31" x="213.5" y="28.291">User</text><line style="stroke:#181818;stroke-width:0.5;" x1="185.5" x2="246.5" y1="39" y2="39"/><line style="stroke:#181818;stroke-width:0.5;" x1="185.5" x2="246.5" y1="47" y2="47"/></g><!--class UpdateSharedBoardUI--><g id="elem_UpdateSharedBoardUI"><rect codeLine="4" fill="#F1F1F1" height="80.9766" id="UpdateSharedBoardUI" rx="2.5" ry="2.5" style="stroke:#181818;stroke-width:0.5;" width="183" x="124.5" y="115"/><ellipse cx="139.5" cy="131" fill="#ADD1B2" rx="11" ry="11" style="stroke:#181818;stroke-width:1.0;"/><path d="M142.4731,136.6431 Q141.8921,136.9419 141.2529,137.0913 Q140.6138,137.2407 139.9082,137.2407 Q137.4014,137.2407 136.0815,135.5889 Q134.7617,133.937 134.7617,130.8159 Q134.7617,127.6865 136.0815,126.0347 Q137.4014,124.3828 139.9082,124.3828 Q140.6138,124.3828 141.2612,124.5322 Q141.9087,124.6816 142.4731,124.9805 L142.4731,127.7031 Q141.8423,127.1221 141.2488,126.8523 Q140.6553,126.5825 140.0244,126.5825 Q138.6797,126.5825 137.9949,127.6492 Q137.3101,128.7158 137.3101,130.8159 Q137.3101,132.9077 137.9949,133.9744 Q138.6797,135.041 140.0244,135.041 Q140.6553,135.041 141.2488,134.7712 Q141.8423,134.5015 142.4731,133.9204 Z " fill="#000000"/><text fill="#000000" font-family="sans-serif" font-size="14" lengthAdjust="spacing" textLength="151" x="153.5" y="136.291">UpdateSharedBoardUI</text><line style="stroke:#181818;stroke-width:0.5;" x1="125.5" x2="306.5" y1="147" y2="147"/><line style="stroke:#181818;stroke-width:0.5;" x1="125.5" x2="306.5" y1="155" y2="155"/><ellipse cx="135.5" cy="168.7441" fill="#84BE84" rx="3" ry="3" style="stroke:#038048;stroke-width:1.0;"/><text fill="#000000" font-family="sans-serif" font-size="14" lengthAdjust="spacing" textLength="65" x="144.5" y="172.5352">doShow()</text><ellipse cx="135.5" cy="185.2324" fill="#84BE84" rx="3" ry="3" style="stroke:#038048;stroke-width:1.0;"/><text fill="#000000" font-family="sans-serif" font-size="14" lengthAdjust="spacing" textLength="73" x="144.5" y="189.0234">showInfo()</text></g><!--class UpdateSharedBoardController--><g id="elem_UpdateSharedBoardController"><rect codeLine="9" fill="#F1F1F1" height="64.4883" id="UpdateSharedBoardController" rx="2.5" ry="2.5" style="stroke:#181818;stroke-width:0.5;" width="239" x="96.5" y="255.97"/><ellipse cx="111.5" cy="271.97" fill="#ADD1B2" rx="11" ry="11" style="stroke:#181818;stroke-width:1.0;"/><path d="M114.4731,277.6131 Q113.8921,277.9119 113.2529,278.0613 Q112.6138,278.2107 111.9082,278.2107 Q109.4014,278.2107 108.0815,276.5589 Q106.7617,274.907 106.7617,271.7859 Q106.7617,268.6565 108.0815,267.0047 Q109.4014,265.3528 111.9082,265.3528 Q112.6138,265.3528 113.2612,265.5022 Q113.9087,265.6516 114.4731,265.9505 L114.4731,268.6731 Q113.8423,268.0921 113.2488,267.8223 Q112.6553,267.5525 112.0244,267.5525 Q110.6797,267.5525 109.9949,268.6192 Q109.3101,269.6858 109.3101,271.7859 Q109.3101,273.8777 109.9949,274.9444 Q110.6797,276.011 112.0244,276.011 Q112.6553,276.011 113.2488,275.7412 Q113.8423,275.4715 114.4731,274.8904 Z " fill="#000000"/><text fill="#000000" font-family="sans-serif" font-size="14" lengthAdjust="spacing" textLength="207" x="125.5" y="277.261">UpdateSharedBoardController</text><line style="stroke:#181818;stroke-width:0.5;" x1="97.5" x2="334.5" y1="287.97" y2="287.97"/><line style="stroke:#181818;stroke-width:0.5;" x1="97.5" x2="334.5" y1="295.97" y2="295.97"/><ellipse cx="107.5" cy="309.7141" fill="#84BE84" rx="3" ry="3" style="stroke:#038048;stroke-width:1.0;"/><text fill="#000000" font-family="sans-serif" font-size="14" lengthAdjust="spacing" textLength="142" x="116.5" y="313.5052">listOfAllUserBoards()</text></g><!--class ListBoardsService--><g id="elem_ListBoardsService"><rect codeLine="13" fill="#F1F1F1" height="97.4648" id="ListBoardsService" rx="2.5" ry="2.5" style="stroke:#181818;stroke-width:0.5;" width="212" x="110" y="380.46"/><ellipse cx="152.9" cy="396.46" fill="#ADD1B2" rx="11" ry="11" style="stroke:#181818;stroke-width:1.0;"/><path d="M155.8731,402.1031 Q155.2921,402.4019 154.6529,402.5513 Q154.0138,402.7007 153.3082,402.7007 Q150.8014,402.7007 149.4815,401.0489 Q148.1617,399.397 148.1617,396.2759 Q148.1617,393.1465 149.4815,391.4947 Q150.8014,389.8428 153.3082,389.8428 Q154.0138,389.8428 154.6612,389.9922 Q155.3087,390.1416 155.8731,390.4405 L155.8731,393.1631 Q155.2423,392.5821 154.6488,392.3123 Q154.0553,392.0425 153.4244,392.0425 Q152.0797,392.0425 151.3949,393.1092 Q150.7101,394.1758 150.7101,396.2759 Q150.7101,398.3677 151.3949,399.4344 Q152.0797,400.501 153.4244,400.501 Q154.0553,400.501 154.6488,400.2312 Q155.2423,399.9615 155.8731,399.3804 Z " fill="#000000"/><text fill="#000000" font-family="sans-serif" font-size="14" lengthAdjust="spacing" textLength="118" x="173.1" y="401.751">ListBoardsService</text><line style="stroke:#181818;stroke-width:0.5;" x1="111" x2="321" y1="412.46" y2="412.46"/><line style="stroke:#181818;stroke-width:0.5;" x1="111" x2="321" y1="420.46" y2="420.46"/><ellipse cx="121" cy="434.2041" fill="#84BE84" rx="3" ry="3" style="stroke:#038048;stroke-width:1.0;"/><text fill="#000000" font-family="sans-serif" font-size="14" lengthAdjust="spacing" textLength="123" x="130" y="437.9952">listBoardsByUser()</text><ellipse cx="121" cy="450.6924" fill="#84BE84" rx="3" ry="3" style="stroke:#038048;stroke-width:1.0;"/><text fill="#000000" font-family="sans-serif" font-size="14" lengthAdjust="spacing" textLength="186" x="130" y="454.4834">listBoardsSharedWithUser()</text><ellipse cx="121" cy="467.1807" fill="#84BE84" rx="3" ry="3" style="stroke:#038048;stroke-width:1.0;"/><text fill="#000000" font-family="sans-serif" font-size="14" lengthAdjust="spacing" textLength="142" x="130" y="470.9717">listOfAllUserBoards()</text></g><!--class ShareBoardRepository--><g id="elem_ShareBoardRepository"><rect codeLine="20" fill="#F1F1F1" height="97.4648" id="ShareBoardRepository" rx="2.5" ry="2.5" style="stroke:#181818;stroke-width:0.5;" width="184" x="7" y="537.93"/><ellipse cx="22" cy="553.93" fill="#ADD1B2" rx="11" ry="11" style="stroke:#181818;stroke-width:1.0;"/><path d="M24.9731,559.5731 Q24.3921,559.8719 23.7529,560.0213 Q23.1138,560.1707 22.4082,560.1707 Q19.9014,560.1707 18.5815,558.5189 Q17.2617,556.867 17.2617,553.7459 Q17.2617,550.6165 18.5815,548.9647 Q19.9014,547.3128 22.4082,547.3128 Q23.1138,547.3128 23.7612,547.4622 Q24.4087,547.6116 24.9731,547.9105 L24.9731,550.6331 Q24.3423,550.0521 23.7488,549.7823 Q23.1553,549.5125 22.5244,549.5125 Q21.1797,549.5125 20.4949,550.5792 Q19.8101,551.6458 19.8101,553.7459 Q19.8101,555.8377 20.4949,556.9044 Q21.1797,557.971 22.5244,557.971 Q23.1553,557.971 23.7488,557.7012 Q24.3423,557.4315 24.9731,556.8504 Z " fill="#000000"/><text fill="#000000" font-family="sans-serif" font-size="14" lengthAdjust="spacing" textLength="152" x="36" y="559.221">ShareBoardRepository</text><line style="stroke:#181818;stroke-width:0.5;" x1="8" x2="190" y1="569.93" y2="569.93"/><line style="stroke:#181818;stroke-width:0.5;" x1="8" x2="190" y1="577.93" y2="577.93"/><ellipse cx="18" cy="591.6741" fill="#84BE84" rx="3" ry="3" style="stroke:#038048;stroke-width:1.0;"/><text fill="#000000" font-family="sans-serif" font-size="14" lengthAdjust="spacing" textLength="40" x="27" y="595.4652">save()</text><ellipse cx="18" cy="608.1624" fill="#84BE84" rx="3" ry="3" style="stroke:#038048;stroke-width:1.0;"/><text fill="#000000" font-family="sans-serif" font-size="14" lengthAdjust="spacing" textLength="121" x="27" y="611.9534">findByUsername()</text><ellipse cx="18" cy="624.6507" fill="#84BE84" rx="3" ry="3" style="stroke:#038048;stroke-width:1.0;"/><text fill="#000000" font-family="sans-serif" font-size="14" lengthAdjust="spacing" textLength="122" x="27" y="628.4417">findBoardByTitle()</text></g><!--class ShareBoardUserRepository--><g id="elem_ShareBoardUserRepository"><rect codeLine="26" fill="#F1F1F1" height="80.9766" id="ShareBoardUserRepository" rx="2.5" ry="2.5" style="stroke:#181818;stroke-width:0.5;" width="215" x="226.5" y="546.17"/><ellipse cx="241.5" cy="562.17" fill="#ADD1B2" rx="11" ry="11" style="stroke:#181818;stroke-width:1.0;"/><path d="M244.4731,567.8131 Q243.8921,568.1119 243.2529,568.2613 Q242.6138,568.4107 241.9082,568.4107 Q239.4014,568.4107 238.0815,566.7589 Q236.7617,565.107 236.7617,561.9859 Q236.7617,558.8565 238.0815,557.2047 Q239.4014,555.5528 241.9082,555.5528 Q242.6138,555.5528 243.2612,555.7022 Q243.9087,555.8516 244.4731,556.1505 L244.4731,558.8731 Q243.8423,558.2921 243.2488,558.0223 Q242.6553,557.7525 242.0244,557.7525 Q240.6797,557.7525 239.9949,558.8192 Q239.3101,559.8858 239.3101,561.9859 Q239.3101,564.0777 239.9949,565.1444 Q240.6797,566.211 242.0244,566.211 Q242.6553,566.211 243.2488,565.9412 Q243.8423,565.6715 244.4731,565.0904 Z " fill="#000000"/><text fill="#000000" font-family="sans-serif" font-size="14" lengthAdjust="spacing" textLength="183" x="255.5" y="567.461">ShareBoardUserRepository</text><line style="stroke:#181818;stroke-width:0.5;" x1="227.5" x2="440.5" y1="578.17" y2="578.17"/><line style="stroke:#181818;stroke-width:0.5;" x1="227.5" x2="440.5" y1="586.17" y2="586.17"/><ellipse cx="237.5" cy="599.9141" fill="#84BE84" rx="3" ry="3" style="stroke:#038048;stroke-width:1.0;"/><text fill="#000000" font-family="sans-serif" font-size="14" lengthAdjust="spacing" textLength="40" x="246.5" y="603.7052">save()</text><ellipse cx="237.5" cy="616.4024" fill="#84BE84" rx="3" ry="3" style="stroke:#038048;stroke-width:1.0;"/><text fill="#000000" font-family="sans-serif" font-size="14" lengthAdjust="spacing" textLength="83" x="246.5" y="620.1934">findByUser()</text></g><!--link User to UpdateSharedBoardUI--><g id="link_User_UpdateSharedBoardUI"><path codeLine="33" d="M216,55.32 C216,70.55 216,90.92 216,109.24 " fill="none" id="User-to-UpdateSharedBoardUI" style="stroke:#181818;stroke-width:1.0;"/><polygon fill="#181818" points="216,113.85,220,104.85,216,108.85,212,104.85,216,113.85" style="stroke:#181818;stroke-width:1.0;"/></g><!--link UpdateSharedBoardUI to UpdateSharedBoardController--><g id="link_UpdateSharedBoardUI_UpdateSharedBoardController"><path codeLine="34" d="M216,196.42 C216,213.55 216,233.45 216,250.25 " fill="none" id="UpdateSharedBoardUI-to-UpdateSharedBoardController" style="stroke:#181818;stroke-width:1.0;"/><polygon fill="#181818" points="216,254.81,220,245.81,216,249.81,212,245.81,216,254.81" style="stroke:#181818;stroke-width:1.0;"/></g><!--link UpdateSharedBoardController to ListBoardsService--><g id="link_UpdateSharedBoardController_ListBoardsService"><path codeLine="35" d="M216,320.75 C216,336.65 216,356.36 216,374.55 " fill="none" id="UpdateSharedBoardController-to-ListBoardsService" style="stroke:#181818;stroke-width:1.0;"/><polygon fill="#181818" points="216,379.14,220,370.14,216,374.14,212,370.14,216,379.14" style="stroke:#181818;stroke-width:1.0;"/></g><!--link ListBoardsService to ShareBoardRepository--><g id="link_ListBoardsService_ShareBoardRepository"><path codeLine="36" d="M179.94,478.11 C166.82,495.54 151.92,515.34 138.52,533.15 " fill="none" id="ListBoardsService-to-ShareBoardRepository" style="stroke:#181818;stroke-width:1.0;"/><polygon fill="#181818" points="135.14,536.64,143.74,531.84,138.14,532.64,137.34,527.04,135.14,536.64" style="stroke:#181818;stroke-width:1.0;"/></g><!--link ListBoardsService to ShareBoardUserRepository--><g id="link_ListBoardsService_ShareBoardUserRepository"><path codeLine="37" d="M252.37,478.11 C267.67,498.26 285.36,521.57 300.35,541.32 " fill="none" id="ListBoardsService-to-ShareBoardUserRepository" style="stroke:#181818;stroke-width:1.0;"/><polygon fill="#181818" points="303.7,544.74,301.4232,535.1579,300.6681,540.7642,295.0618,540.009,303.7,544.74" style="stroke:#181818;stroke-width:1.0;"/></g><!--SRC=[ZL5D2y8m3BttL-oeY7z1S9u6Wk0SdikQiK9THbCcG_pljkl6DbS_UafUyjvBqbnneYWZq8pbFgu5Dv2MN8E8aMkH9T63HVPj1AObtbThdv6Dawf0cpy_aWzO6OrAWHv4b2HpAlPAETEkXwOAHrlsQ0gwaJbCURuGjuuwZ37YtlOgJVbU3_hrXXshmyzG8qc3kkqjYJSmo1Io4jwuuhSvwhXnUv56mNIJKTYn_XJlHsCktcvtWSzW0IpKELwUVQbPvkBYR87Ohj2PVZJErtu1]--></g></svg>