<?xml version="1.0" encoding="us-ascii" standalone="no"?><svg xmlns="http://www.w3.org/2000/svg" xmlns:xlink="http://www.w3.org/1999/xlink" contentStyleType="text/css" height="576px" preserveAspectRatio="none" style="width:958px;height:576px;background:#FFFFFF;" version="1.1" viewBox="0 0 958 576" width="958px" zoomAndPan="magnify"><defs/><g><rect fill="#FFFFFF" height="373.7266" style="stroke:#181818;stroke-width:1.0;" width="10" x="129.5" y="112.7988"/><rect fill="#FFFFFF" height="34.3105" style="stroke:#181818;stroke-width:1.0;" width="10" x="134.5" y="384.5938"/><rect fill="#FFFFFF" height="29.3105" style="stroke:#181818;stroke-width:1.0;" width="10" x="134.5" y="448.2148"/><rect fill="#FFFFFF" height="205.1738" style="stroke:#181818;stroke-width:1.0;" width="10" x="332.5" y="142.1094"/><rect fill="#FFFFFF" height="146.5527" style="stroke:#181818;stroke-width:1.0;" width="10" x="519" y="171.4199"/><rect fill="#FFFFFF" height="29.3105" style="stroke:#181818;stroke-width:1.0;" width="10" x="674" y="200.7305"/><rect fill="#FFFFFF" height="29.3105" style="stroke:#181818;stroke-width:1.0;" width="10" x="857.5" y="259.3516"/><line style="stroke:#181818;stroke-width:0.5;stroke-dasharray:5.0,5.0;" x1="23" x2="23" y1="81.4883" y2="495.5254"/><line style="stroke:#181818;stroke-width:0.5;stroke-dasharray:5.0,5.0;" x1="134" x2="134" y1="81.4883" y2="495.5254"/><line style="stroke:#181818;stroke-width:0.5;stroke-dasharray:5.0,5.0;" x1="337" x2="337" y1="81.4883" y2="495.5254"/><line style="stroke:#181818;stroke-width:0.5;stroke-dasharray:5.0,5.0;" x1="524" x2="524" y1="81.4883" y2="495.5254"/><line style="stroke:#181818;stroke-width:0.5;stroke-dasharray:5.0,5.0;" x1="679" x2="679" y1="81.4883" y2="495.5254"/><line style="stroke:#181818;stroke-width:0.5;stroke-dasharray:5.0,5.0;" x1="862" x2="862" y1="81.4883" y2="495.5254"/><text fill="#000000" font-family="sans-serif" font-size="14" lengthAdjust="spacing" textLength="31" x="5" y="78.5352">User</text><ellipse cx="23.5" cy="13.5" fill="#E2E2F0" rx="8" ry="8" style="stroke:#181818;stroke-width:0.5;"/><path d="M23.5,21.5 L23.5,48.5 M10.5,29.5 L36.5,29.5 M23.5,48.5 L10.5,63.5 M23.5,48.5 L36.5,63.5 " fill="none" style="stroke:#181818;stroke-width:0.5;"/><text fill="#000000" font-family="sans-serif" font-size="14" lengthAdjust="spacing" textLength="31" x="5" y="508.0605">User</text><ellipse cx="23.5" cy="519.5137" fill="#E2E2F0" rx="8" ry="8" style="stroke:#181818;stroke-width:0.5;"/><path d="M23.5,527.5137 L23.5,554.5137 M10.5,535.5137 L36.5,535.5137 M23.5,554.5137 L10.5,569.5137 M23.5,554.5137 L36.5,569.5137 " fill="none" style="stroke:#181818;stroke-width:0.5;"/><rect fill="#E2E2F0" height="30.4883" rx="2.5" ry="2.5" style="stroke:#181818;stroke-width:0.5;" width="165" x="52" y="50"/><text fill="#000000" font-family="sans-serif" font-size="14" lengthAdjust="spacing" textLength="151" x="59" y="70.5352">UpdateSharedBoardUI</text><rect fill="#E2E2F0" height="30.4883" rx="2.5" ry="2.5" style="stroke:#181818;stroke-width:0.5;" width="165" x="52" y="494.5254"/><text fill="#000000" font-family="sans-serif" font-size="14" lengthAdjust="spacing" textLength="151" x="59" y="515.0605">UpdateSharedBoardUI</text><rect fill="#E2E2F0" height="30.4883" rx="2.5" ry="2.5" style="stroke:#181818;stroke-width:0.5;" width="221" x="227" y="50"/><text fill="#000000" font-family="sans-serif" font-size="14" lengthAdjust="spacing" textLength="207" x="234" y="70.5352">UpdateSharedBoardController</text><rect fill="#E2E2F0" height="30.4883" rx="2.5" ry="2.5" style="stroke:#181818;stroke-width:0.5;" width="221" x="227" y="494.5254"/><text fill="#000000" font-family="sans-serif" font-size="14" lengthAdjust="spacing" textLength="207" x="234" y="515.0605">UpdateSharedBoardController</text><rect fill="#E2E2F0" height="30.4883" rx="2.5" ry="2.5" style="stroke:#181818;stroke-width:0.5;" width="132" x="458" y="50"/><text fill="#000000" font-family="sans-serif" font-size="14" lengthAdjust="spacing" textLength="118" x="465" y="70.5352">ListBoardsService</text><rect fill="#E2E2F0" height="30.4883" rx="2.5" ry="2.5" style="stroke:#181818;stroke-width:0.5;" width="132" x="458" y="494.5254"/><text fill="#000000" font-family="sans-serif" font-size="14" lengthAdjust="spacing" textLength="118" x="465" y="515.0605">ListBoardsService</text><text fill="#000000" font-family="sans-serif" font-size="14" lengthAdjust="spacing" textLength="152" x="600" y="78.5352">ShareBoardRepository</text><path d="M661,29 C661,19 679,19 679,19 C679,19 697,19 697,29 L697,55 C697,65 679,65 679,65 C679,65 661,65 661,55 L661,29 " fill="#E2E2F0" style="stroke:#181818;stroke-width:1.5;"/><path d="M661,29 C661,39 679,39 679,39 C679,39 697,39 697,29 " fill="none" style="stroke:#181818;stroke-width:1.5;"/><text fill="#000000" font-family="sans-serif" font-size="14" lengthAdjust="spacing" textLength="152" x="600" y="508.0605">ShareBoardRepository</text><path d="M661,521.0137 C661,511.0137 679,511.0137 679,511.0137 C679,511.0137 697,511.0137 697,521.0137 L697,547.0137 C697,557.0137 679,557.0137 679,557.0137 C679,557.0137 661,557.0137 661,547.0137 L661,521.0137 " fill="#E2E2F0" style="stroke:#181818;stroke-width:1.5;"/><path d="M661,521.0137 C661,531.0137 679,531.0137 679,531.0137 C679,531.0137 697,531.0137 697,521.0137 " fill="none" style="stroke:#181818;stroke-width:1.5;"/><text fill="#000000" font-family="sans-serif" font-size="14" lengthAdjust="spacing" textLength="183" x="768" y="78.5352">ShareBoardUserRepository</text><path d="M844.5,29 C844.5,19 862.5,19 862.5,19 C862.5,19 880.5,19 880.5,29 L880.5,55 C880.5,65 862.5,65 862.5,65 C862.5,65 844.5,65 844.5,55 L844.5,29 " fill="#E2E2F0" style="stroke:#181818;stroke-width:1.5;"/><path d="M844.5,29 C844.5,39 862.5,39 862.5,39 C862.5,39 880.5,39 880.5,29 " fill="none" style="stroke:#181818;stroke-width:1.5;"/><text fill="#000000" font-family="sans-serif" font-size="14" lengthAdjust="spacing" textLength="183" x="768" y="508.0605">ShareBoardUserRepository</text><path d="M844.5,521.0137 C844.5,511.0137 862.5,511.0137 862.5,511.0137 C862.5,511.0137 880.5,511.0137 880.5,521.0137 L880.5,547.0137 C880.5,557.0137 862.5,557.0137 862.5,557.0137 C862.5,557.0137 844.5,557.0137 844.5,547.0137 L844.5,521.0137 " fill="#E2E2F0" style="stroke:#181818;stroke-width:1.5;"/><path d="M844.5,521.0137 C844.5,531.0137 862.5,531.0137 862.5,531.0137 C862.5,531.0137 880.5,531.0137 880.5,521.0137 " fill="none" style="stroke:#181818;stroke-width:1.5;"/><rect fill="#FFFFFF" height="373.7266" style="stroke:#181818;stroke-width:1.0;" width="10" x="129.5" y="112.7988"/><rect fill="#FFFFFF" height="34.3105" style="stroke:#181818;stroke-width:1.0;" width="10" x="134.5" y="384.5938"/><rect fill="#FFFFFF" height="29.3105" style="stroke:#181818;stroke-width:1.0;" width="10" x="134.5" y="448.2148"/><rect fill="#FFFFFF" height="205.1738" style="stroke:#181818;stroke-width:1.0;" width="10" x="332.5" y="142.1094"/><rect fill="#FFFFFF" height="146.5527" style="stroke:#181818;stroke-width:1.0;" width="10" x="519" y="171.4199"/><rect fill="#FFFFFF" height="29.3105" style="stroke:#181818;stroke-width:1.0;" width="10" x="674" y="200.7305"/><rect fill="#FFFFFF" height="29.3105" style="stroke:#181818;stroke-width:1.0;" width="10" x="857.5" y="259.3516"/><polygon fill="#181818" points="117.5,108.7988,127.5,112.7988,117.5,116.7988,121.5,112.7988" style="stroke:#181818;stroke-width:1.0;"/><line style="stroke:#181818;stroke-width:1.0;" x1="23.5" x2="123.5" y1="112.7988" y2="112.7988"/><text fill="#000000" font-family="sans-serif" font-size="13" lengthAdjust="spacing" textLength="80" x="30.5" y="108.0566">View a board</text><polygon fill="#181818" points="320.5,138.1094,330.5,142.1094,320.5,146.1094,324.5,142.1094" style="stroke:#181818;stroke-width:1.0;"/><line style="stroke:#181818;stroke-width:1.0;" x1="139.5" x2="326.5" y1="142.1094" y2="142.1094"/><text fill="#000000" font-family="sans-serif" font-size="13" lengthAdjust="spacing" textLength="130" x="146.5" y="137.3672">listOfAllUserBoards()</text><polygon fill="#181818" points="507,167.4199,517,171.4199,507,175.4199,511,171.4199" style="stroke:#181818;stroke-width:1.0;"/><line style="stroke:#181818;stroke-width:1.0;" x1="342.5" x2="513" y1="171.4199" y2="171.4199"/><text fill="#000000" font-family="sans-serif" font-size="13" lengthAdjust="spacing" textLength="130" x="349.5" y="166.6777">listOfAllUserBoards()</text><polygon fill="#181818" points="662,196.7305,672,200.7305,662,204.7305,666,200.7305" style="stroke:#181818;stroke-width:1.0;"/><line style="stroke:#181818;stroke-width:1.0;" x1="529" x2="668" y1="200.7305" y2="200.7305"/><text fill="#000000" font-family="sans-serif" font-size="13" lengthAdjust="spacing" textLength="112" x="536" y="195.9883">listBoardsByUser()</text><polygon fill="#181818" points="540,226.041,530,230.041,540,234.041,536,230.041" style="stroke:#181818;stroke-width:1.0;"/><line style="stroke:#181818;stroke-width:1.0;stroke-dasharray:2.0,2.0;" x1="534" x2="678" y1="230.041" y2="230.041"/><text fill="#000000" font-family="sans-serif" font-size="13" lengthAdjust="spacing" textLength="120" x="546" y="225.2988">listOfOwnedBoards</text><polygon fill="#181818" points="845.5,255.3516,855.5,259.3516,845.5,263.3516,849.5,259.3516" style="stroke:#181818;stroke-width:1.0;"/><line style="stroke:#181818;stroke-width:1.0;" x1="529" x2="851.5" y1="259.3516" y2="259.3516"/><text fill="#000000" font-family="sans-serif" font-size="13" lengthAdjust="spacing" textLength="168" x="536" y="254.6094">listBoardsSharedWithUser()</text><polygon fill="#181818" points="540,284.6621,530,288.6621,540,292.6621,536,288.6621" style="stroke:#181818;stroke-width:1.0;"/><line style="stroke:#181818;stroke-width:1.0;stroke-dasharray:2.0,2.0;" x1="534" x2="861.5" y1="288.6621" y2="288.6621"/><text fill="#000000" font-family="sans-serif" font-size="13" lengthAdjust="spacing" textLength="119" x="546" y="283.9199">listOfSharedBoards</text><polygon fill="#181818" points="353.5,313.9727,343.5,317.9727,353.5,321.9727,349.5,317.9727" style="stroke:#181818;stroke-width:1.0;"/><line style="stroke:#181818;stroke-width:1.0;stroke-dasharray:2.0,2.0;" x1="347.5" x2="523" y1="317.9727" y2="317.9727"/><text fill="#000000" font-family="sans-serif" font-size="13" lengthAdjust="spacing" textLength="61" x="359.5" y="313.2305">myBoards</text><polygon fill="#181818" points="150.5,343.2832,140.5,347.2832,150.5,351.2832,146.5,347.2832" style="stroke:#181818;stroke-width:1.0;"/><line style="stroke:#181818;stroke-width:1.0;stroke-dasharray:2.0,2.0;" x1="144.5" x2="336.5" y1="347.2832" y2="347.2832"/><text fill="#000000" font-family="sans-serif" font-size="13" lengthAdjust="spacing" textLength="61" x="156.5" y="342.541">myBoards</text><line style="stroke:#181818;stroke-width:1.0;" x1="139.5" x2="186.5" y1="371.5938" y2="371.5938"/><line style="stroke:#181818;stroke-width:1.0;" x1="186.5" x2="186.5" y1="371.5938" y2="384.5938"/><line style="stroke:#181818;stroke-width:1.0;" x1="145.5" x2="186.5" y1="384.5938" y2="384.5938"/><polygon fill="#181818" points="155.5,380.5938,145.5,384.5938,155.5,388.5938,151.5,384.5938" style="stroke:#181818;stroke-width:1.0;"/><text fill="#000000" font-family="sans-serif" font-size="13" lengthAdjust="spacing" textLength="80" x="151.5" y="366.8516">Show boards</text><polygon fill="#181818" points="34.5,414.9043,24.5,418.9043,34.5,422.9043,30.5,418.9043" style="stroke:#181818;stroke-width:1.0;"/><line style="stroke:#181818;stroke-width:1.0;stroke-dasharray:2.0,2.0;" x1="28.5" x2="128.5" y1="418.9043" y2="418.9043"/><text fill="#000000" font-family="sans-serif" font-size="13" lengthAdjust="spacing" textLength="76" x="40.5" y="414.1621">Select Board</text><polygon fill="#181818" points="122.5,444.2148,132.5,448.2148,122.5,452.2148,126.5,448.2148" style="stroke:#181818;stroke-width:1.0;"/><line style="stroke:#181818;stroke-width:1.0;" x1="23.5" x2="128.5" y1="448.2148" y2="448.2148"/><text fill="#000000" font-family="sans-serif" font-size="13" lengthAdjust="spacing" textLength="35" x="30.5" y="443.4727">Board</text><polygon fill="#181818" points="34.5,473.5254,24.5,477.5254,34.5,481.5254,30.5,477.5254" style="stroke:#181818;stroke-width:1.0;"/><line style="stroke:#181818;stroke-width:1.0;stroke-dasharray:2.0,2.0;" x1="28.5" x2="128.5" y1="477.5254" y2="477.5254"/><text fill="#000000" font-family="sans-serif" font-size="13" lengthAdjust="spacing" textLength="80" x="40.5" y="472.7832">Shows board</text><!--SRC=[XP31JiKW44NtVCMaArtq1rWq4LPDJ5vIWgxdjPYIO6a0NzE_Tu1gDMfSpfrpuTx1j-HnJFQ6oO1V6AF11z3H1C08cgqOaXtjYak2HgyJSMh6O2RXCKowRmhM_yD9lwJWdJEXyF8x_cXZAbXK9jpiQ0ga63s2Lum6cl9KGGQp-cWfuruXCVoAvG8_KSqOqz1s59W_MRC1mZNJJFTPbTnHailBWtFPNoFTtJFPTkgFbQAL63YupmfYpq1UYQ7DHgZEoxOSnuY7I_FJLM_rRDDykdLx_llbbjdUTfB3wtxCacPgT0gwBuAQ_LOB5eaq3ieuCoOGjNRr7SC7GQvut8Mz0m00]--></g></svg>