<?xml version="1.0" encoding="us-ascii" standalone="no"?><svg xmlns="http://www.w3.org/2000/svg" xmlns:xlink="http://www.w3.org/1999/xlink" contentStyleType="text/css" height="1094px" preserveAspectRatio="none" style="width:1587px;height:1094px;background:#FFFFFF;" version="1.1" viewBox="0 0 1587 1094" width="1587px" zoomAndPan="magnify"><defs/><g><rect fill="#FFFFFF" height="88.6211" style="stroke:#181818;stroke-width:1.0;" width="10" x="228.5" y="112.7988"/><rect fill="#FFFFFF" height="29.3105" style="stroke:#181818;stroke-width:1.0;" width="10" x="228.5" y="348.6621"/><rect fill="#FFFFFF" height="117.9316" style="stroke:#181818;stroke-width:1.0;" width="10" x="228.5" y="407.2832"/><rect fill="#FFFFFF" height="29.3105" style="stroke:#181818;stroke-width:1.0;" width="10" x="228.5" y="554.5254"/><rect fill="#FFFFFF" height="29.3105" style="stroke:#181818;stroke-width:1.0;" width="10" x="228.5" y="731.0781"/><rect fill="#FFFFFF" height="29.3105" style="stroke:#181818;stroke-width:1.0;" width="10" x="228.5" y="789.6992"/><rect fill="#FFFFFF" height="59.3105" style="stroke:#181818;stroke-width:1.0;" width="10" x="228.5" y="848.3203"/><rect fill="#FFFFFF" height="206.5527" style="stroke:#181818;stroke-width:1.0;" width="10" x="595.5" y="142.1094"/><rect fill="#FFFFFF" height="147.9316" style="stroke:#181818;stroke-width:1.0;" width="10" x="600.5" y="171.4199"/><rect fill="#FFFFFF" height="323.7949" style="stroke:#181818;stroke-width:1.0;" width="10" x="595.5" y="407.2832"/><rect fill="#FFFFFF" height="176.5527" style="stroke:#181818;stroke-width:1.0;" width="10" x="600.5" y="436.5938"/><rect fill="#FFFFFF" height="126.9316" style="stroke:#181818;stroke-width:1.0;" width="10" x="595.5" y="877.6309"/><rect fill="#FFFFFF" height="88.6211" style="stroke:#181818;stroke-width:1.0;" width="10" x="796" y="230.7305"/><rect fill="#FFFFFF" height="117.9316" style="stroke:#181818;stroke-width:1.0;" width="10" x="982" y="583.8359"/><rect fill="#FFFFFF" height="29.3105" style="stroke:#181818;stroke-width:1.0;" width="10" x="1135.5" y="936.9414"/><rect fill="#FFFFFF" height="30" style="stroke:#181818;stroke-width:1.0;" width="10" x="1238" y="465.9043"/><rect fill="#FFFFFF" height="30" style="stroke:#181818;stroke-width:1.0;" width="10" x="1373" y="642.457"/><rect fill="#FFFFFF" height="38.3105" style="stroke:#181818;stroke-width:1.0;" width="10" x="1373" y="966.252"/><rect fill="#FFFFFF" height="9" style="stroke:#181818;stroke-width:1.0;" width="10" x="1378" y="995.5625"/><rect fill="#FFFFFF" height="30" style="stroke:#181818;stroke-width:1.0;" width="10" x="1517.5" y="260.041"/><line style="stroke:#181818;stroke-width:0.5;stroke-dasharray:5.0,5.0;" x1="35" x2="35" y1="81.4883" y2="1013.5625"/><line style="stroke:#181818;stroke-width:0.5;stroke-dasharray:5.0,5.0;" x1="233.5" x2="233.5" y1="81.4883" y2="1013.5625"/><line style="stroke:#181818;stroke-width:0.5;stroke-dasharray:5.0,5.0;" x1="600.5" x2="600.5" y1="81.4883" y2="1013.5625"/><line style="stroke:#181818;stroke-width:0.5;stroke-dasharray:5.0,5.0;" x1="800.5" x2="800.5" y1="81.4883" y2="1013.5625"/><line style="stroke:#181818;stroke-width:0.5;stroke-dasharray:5.0,5.0;" x1="986.5" x2="986.5" y1="81.4883" y2="1013.5625"/><line style="stroke:#181818;stroke-width:0.5;stroke-dasharray:5.0,5.0;" x1="1140.5" x2="1140.5" y1="81.4883" y2="1013.5625"/><line style="stroke:#181818;stroke-width:0.5;stroke-dasharray:5.0,5.0;" x1="1242.5" x2="1242.5" y1="81.4883" y2="1013.5625"/><line style="stroke:#181818;stroke-width:0.5;stroke-dasharray:5.0,5.0;" x1="1377.5" x2="1377.5" y1="81.4883" y2="1013.5625"/><line style="stroke:#181818;stroke-width:0.5;stroke-dasharray:5.0,5.0;" x1="1522.5" x2="1522.5" y1="81.4883" y2="1013.5625"/><text fill="#000000" font-family="sans-serif" font-size="14" lengthAdjust="spacing" textLength="55" x="5" y="78.5352">Teacher</text><ellipse cx="35.5" cy="13.5" fill="#E2E2F0" rx="8" ry="8" style="stroke:#181818;stroke-width:0.5;"/><path d="M35.5,21.5 L35.5,48.5 M22.5,29.5 L48.5,29.5 M35.5,48.5 L22.5,63.5 M35.5,48.5 L48.5,63.5 " fill="none" style="stroke:#181818;stroke-width:0.5;"/><text fill="#000000" font-family="sans-serif" font-size="14" lengthAdjust="spacing" textLength="55" x="5" y="1026.0977">Teacher</text><ellipse cx="35.5" cy="1037.5508" fill="#E2E2F0" rx="8" ry="8" style="stroke:#181818;stroke-width:0.5;"/><path d="M35.5,1045.5508 L35.5,1072.5508 M22.5,1053.5508 L48.5,1053.5508 M35.5,1072.5508 L22.5,1087.5508 M35.5,1072.5508 L48.5,1087.5508 " fill="none" style="stroke:#181818;stroke-width:0.5;"/><rect fill="#E2E2F0" height="30.4883" rx="2.5" ry="2.5" style="stroke:#181818;stroke-width:0.5;" width="184" x="141.5" y="50"/><text fill="#000000" font-family="sans-serif" font-size="14" lengthAdjust="spacing" textLength="170" x="148.5" y="70.5352">UpdateExamQuestionsUI</text><rect fill="#E2E2F0" height="30.4883" rx="2.5" ry="2.5" style="stroke:#181818;stroke-width:0.5;" width="184" x="141.5" y="1012.5625"/><text fill="#000000" font-family="sans-serif" font-size="14" lengthAdjust="spacing" textLength="170" x="148.5" y="1033.0977">UpdateExamQuestionsUI</text><rect fill="#E2E2F0" height="30.4883" rx="2.5" ry="2.5" style="stroke:#181818;stroke-width:0.5;" width="240" x="480.5" y="50"/><text fill="#000000" font-family="sans-serif" font-size="14" lengthAdjust="spacing" textLength="226" x="487.5" y="70.5352">UpdateExamQuestionsController</text><rect fill="#E2E2F0" height="30.4883" rx="2.5" ry="2.5" style="stroke:#181818;stroke-width:0.5;" width="240" x="480.5" y="1012.5625"/><text fill="#000000" font-family="sans-serif" font-size="14" lengthAdjust="spacing" textLength="226" x="487.5" y="1033.0977">UpdateExamQuestionsController</text><rect fill="#E2E2F0" height="30.4883" rx="2.5" ry="2.5" style="stroke:#181818;stroke-width:0.5;" width="141" x="730.5" y="50"/><text fill="#000000" font-family="sans-serif" font-size="14" lengthAdjust="spacing" textLength="127" x="737.5" y="70.5352">ListCoursesService</text><rect fill="#E2E2F0" height="30.4883" rx="2.5" ry="2.5" style="stroke:#181818;stroke-width:0.5;" width="141" x="730.5" y="1012.5625"/><text fill="#000000" font-family="sans-serif" font-size="14" lengthAdjust="spacing" textLength="127" x="737.5" y="1033.0977">ListCoursesService</text><rect fill="#E2E2F0" height="30.4883" rx="2.5" ry="2.5" style="stroke:#181818;stroke-width:0.5;" width="211" x="881.5" y="50"/><text fill="#000000" font-family="sans-serif" font-size="14" lengthAdjust="spacing" textLength="197" x="888.5" y="70.5352">UpdateExamQuestionService</text><rect fill="#E2E2F0" height="30.4883" rx="2.5" ry="2.5" style="stroke:#181818;stroke-width:0.5;" width="211" x="881.5" y="1012.5625"/><text fill="#000000" font-family="sans-serif" font-size="14" lengthAdjust="spacing" textLength="197" x="888.5" y="1033.0977">UpdateExamQuestionService</text><rect fill="#E2E2F0" height="30.4883" rx="2.5" ry="2.5" style="stroke:#181818;stroke-width:0.5;" width="76" x="1102.5" y="50"/><text fill="#000000" font-family="sans-serif" font-size="14" lengthAdjust="spacing" textLength="62" x="1109.5" y="70.5352">Question</text><rect fill="#E2E2F0" height="30.4883" rx="2.5" ry="2.5" style="stroke:#181818;stroke-width:0.5;" width="76" x="1102.5" y="1012.5625"/><text fill="#000000" font-family="sans-serif" font-size="14" lengthAdjust="spacing" textLength="62" x="1109.5" y="1033.0977">Question</text><rect fill="#E2E2F0" height="30.4883" rx="2.5" ry="2.5" style="stroke:#181818;stroke-width:0.5;" width="109" x="1188.5" y="50"/><text fill="#000000" font-family="sans-serif" font-size="14" lengthAdjust="spacing" textLength="95" x="1195.5" y="70.5352">QuestionType</text><rect fill="#E2E2F0" height="30.4883" rx="2.5" ry="2.5" style="stroke:#181818;stroke-width:0.5;" width="109" x="1188.5" y="1012.5625"/><text fill="#000000" font-family="sans-serif" font-size="14" lengthAdjust="spacing" textLength="95" x="1195.5" y="1033.0977">QuestionType</text><text fill="#000000" font-family="sans-serif" font-size="14" lengthAdjust="spacing" textLength="135" x="1307.5" y="78.5352">QuestionRepository</text><path d="M1360,29 C1360,19 1378,19 1378,19 C1378,19 1396,19 1396,29 L1396,55 C1396,65 1378,65 1378,65 C1378,65 1360,65 1360,55 L1360,29 " fill="#E2E2F0" style="stroke:#181818;stroke-width:1.5;"/><path d="M1360,29 C1360,39 1378,39 1378,39 C1378,39 1396,39 1396,29 " fill="none" style="stroke:#181818;stroke-width:1.5;"/><text fill="#000000" font-family="sans-serif" font-size="14" lengthAdjust="spacing" textLength="135" x="1307.5" y="1026.0977">QuestionRepository</text><path d="M1360,1039.0508 C1360,1029.0508 1378,1029.0508 1378,1029.0508 C1378,1029.0508 1396,1029.0508 1396,1039.0508 L1396,1065.0508 C1396,1075.0508 1378,1075.0508 1378,1075.0508 C1378,1075.0508 1360,1075.0508 1360,1065.0508 L1360,1039.0508 " fill="#E2E2F0" style="stroke:#181818;stroke-width:1.5;"/><path d="M1360,1039.0508 C1360,1049.0508 1378,1049.0508 1378,1049.0508 C1378,1049.0508 1396,1049.0508 1396,1039.0508 " fill="none" style="stroke:#181818;stroke-width:1.5;"/><text fill="#000000" font-family="sans-serif" font-size="14" lengthAdjust="spacing" textLength="122" x="1458.5" y="78.5352">CourseRepository</text><path d="M1504.5,29 C1504.5,19 1522.5,19 1522.5,19 C1522.5,19 1540.5,19 1540.5,29 L1540.5,55 C1540.5,65 1522.5,65 1522.5,65 C1522.5,65 1504.5,65 1504.5,55 L1504.5,29 " fill="#E2E2F0" style="stroke:#181818;stroke-width:1.5;"/><path d="M1504.5,29 C1504.5,39 1522.5,39 1522.5,39 C1522.5,39 1540.5,39 1540.5,29 " fill="none" style="stroke:#181818;stroke-width:1.5;"/><text fill="#000000" font-family="sans-serif" font-size="14" lengthAdjust="spacing" textLength="122" x="1458.5" y="1026.0977">CourseRepository</text><path d="M1504.5,1039.0508 C1504.5,1029.0508 1522.5,1029.0508 1522.5,1029.0508 C1522.5,1029.0508 1540.5,1029.0508 1540.5,1039.0508 L1540.5,1065.0508 C1540.5,1075.0508 1522.5,1075.0508 1522.5,1075.0508 C1522.5,1075.0508 1504.5,1075.0508 1504.5,1065.0508 L1504.5,1039.0508 " fill="#E2E2F0" style="stroke:#181818;stroke-width:1.5;"/><path d="M1504.5,1039.0508 C1504.5,1049.0508 1522.5,1049.0508 1522.5,1049.0508 C1522.5,1049.0508 1540.5,1049.0508 1540.5,1039.0508 " fill="none" style="stroke:#181818;stroke-width:1.5;"/><rect fill="#FFFFFF" height="88.6211" style="stroke:#181818;stroke-width:1.0;" width="10" x="228.5" y="112.7988"/><rect fill="#FFFFFF" height="29.3105" style="stroke:#181818;stroke-width:1.0;" width="10" x="228.5" y="348.6621"/><rect fill="#FFFFFF" height="117.9316" style="stroke:#181818;stroke-width:1.0;" width="10" x="228.5" y="407.2832"/><rect fill="#FFFFFF" height="29.3105" style="stroke:#181818;stroke-width:1.0;" width="10" x="228.5" y="554.5254"/><rect fill="#FFFFFF" height="29.3105" style="stroke:#181818;stroke-width:1.0;" width="10" x="228.5" y="731.0781"/><rect fill="#FFFFFF" height="29.3105" style="stroke:#181818;stroke-width:1.0;" width="10" x="228.5" y="789.6992"/><rect fill="#FFFFFF" height="59.3105" style="stroke:#181818;stroke-width:1.0;" width="10" x="228.5" y="848.3203"/><rect fill="#FFFFFF" height="206.5527" style="stroke:#181818;stroke-width:1.0;" width="10" x="595.5" y="142.1094"/><rect fill="#FFFFFF" height="147.9316" style="stroke:#181818;stroke-width:1.0;" width="10" x="600.5" y="171.4199"/><rect fill="#FFFFFF" height="323.7949" style="stroke:#181818;stroke-width:1.0;" width="10" x="595.5" y="407.2832"/><rect fill="#FFFFFF" height="176.5527" style="stroke:#181818;stroke-width:1.0;" width="10" x="600.5" y="436.5938"/><rect fill="#FFFFFF" height="126.9316" style="stroke:#181818;stroke-width:1.0;" width="10" x="595.5" y="877.6309"/><rect fill="#FFFFFF" height="88.6211" style="stroke:#181818;stroke-width:1.0;" width="10" x="796" y="230.7305"/><rect fill="#FFFFFF" height="117.9316" style="stroke:#181818;stroke-width:1.0;" width="10" x="982" y="583.8359"/><rect fill="#FFFFFF" height="29.3105" style="stroke:#181818;stroke-width:1.0;" width="10" x="1135.5" y="936.9414"/><rect fill="#FFFFFF" height="30" style="stroke:#181818;stroke-width:1.0;" width="10" x="1238" y="465.9043"/><rect fill="#FFFFFF" height="30" style="stroke:#181818;stroke-width:1.0;" width="10" x="1373" y="642.457"/><rect fill="#FFFFFF" height="38.3105" style="stroke:#181818;stroke-width:1.0;" width="10" x="1373" y="966.252"/><rect fill="#FFFFFF" height="9" style="stroke:#181818;stroke-width:1.0;" width="10" x="1378" y="995.5625"/><rect fill="#FFFFFF" height="30" style="stroke:#181818;stroke-width:1.0;" width="10" x="1517.5" y="260.041"/><polygon fill="#181818" points="216.5,108.7988,226.5,112.7988,216.5,116.7988,220.5,112.7988" style="stroke:#181818;stroke-width:1.0;"/><line style="stroke:#181818;stroke-width:1.0;" x1="35.5" x2="222.5" y1="112.7988" y2="112.7988"/><text fill="#000000" font-family="sans-serif" font-size="13" lengthAdjust="spacing" textLength="113" x="42.5" y="108.0566">update a question</text><polygon fill="#181818" points="583.5,138.1094,593.5,142.1094,583.5,146.1094,587.5,142.1094" style="stroke:#181818;stroke-width:1.0;"/><line style="stroke:#181818;stroke-width:1.0;" x1="238.5" x2="589.5" y1="142.1094" y2="142.1094"/><text fill="#000000" font-family="sans-serif" font-size="13" lengthAdjust="spacing" textLength="38" x="245.5" y="137.3672">create</text><polygon fill="#181818" points="588.5,167.4199,598.5,171.4199,588.5,175.4199,592.5,171.4199" style="stroke:#181818;stroke-width:1.0;"/><line style="stroke:#181818;stroke-width:1.0;" x1="238.5" x2="594.5" y1="171.4199" y2="171.4199"/><text fill="#000000" font-family="sans-serif" font-size="13" lengthAdjust="spacing" textLength="112" x="245.5" y="166.6777">getOpenCourses()</text><polygon fill="#181818" points="784,226.7305,794,230.7305,784,234.7305,788,230.7305" style="stroke:#181818;stroke-width:1.0;"/><line style="stroke:#181818;stroke-width:1.0;" x1="610.5" x2="790" y1="230.7305" y2="230.7305"/><text fill="#000000" font-family="sans-serif" font-size="13" lengthAdjust="spacing" textLength="112" x="617.5" y="225.9883">getOpenCourses()</text><polygon fill="#181818" points="1505.5,256.041,1515.5,260.041,1505.5,264.041,1509.5,260.041" style="stroke:#181818;stroke-width:1.0;"/><line style="stroke:#181818;stroke-width:1.0;" x1="806" x2="1511.5" y1="260.041" y2="260.041"/><text fill="#000000" font-family="sans-serif" font-size="13" lengthAdjust="spacing" textLength="45" x="813" y="255.2988">getAll()</text><polygon fill="#181818" points="616.5,315.3516,606.5,319.3516,616.5,323.3516,612.5,319.3516" style="stroke:#181818;stroke-width:1.0;"/><line style="stroke:#181818;stroke-width:1.0;stroke-dasharray:2.0,2.0;" x1="610.5" x2="800" y1="319.3516" y2="319.3516"/><text fill="#000000" font-family="sans-serif" font-size="13" lengthAdjust="spacing" textLength="119" x="622.5" y="314.6094">listOfOpenCourses</text><polygon fill="#181818" points="249.5,344.6621,239.5,348.6621,249.5,352.6621,245.5,348.6621" style="stroke:#181818;stroke-width:1.0;"/><line style="stroke:#181818;stroke-width:1.0;stroke-dasharray:2.0,2.0;" x1="243.5" x2="599.5" y1="348.6621" y2="348.6621"/><text fill="#000000" font-family="sans-serif" font-size="13" lengthAdjust="spacing" textLength="119" x="255.5" y="343.9199">listOfOpenCourses</text><polygon fill="#181818" points="46.5,373.9727,36.5,377.9727,46.5,381.9727,42.5,377.9727" style="stroke:#181818;stroke-width:1.0;"/><line style="stroke:#181818;stroke-width:1.0;stroke-dasharray:2.0,2.0;" x1="40.5" x2="232.5" y1="377.9727" y2="377.9727"/><text fill="#000000" font-family="sans-serif" font-size="13" lengthAdjust="spacing" textLength="169" x="52.5" y="373.2305">Shows list of open courses</text><polygon fill="#181818" points="216.5,403.2832,226.5,407.2832,216.5,411.2832,220.5,407.2832" style="stroke:#181818;stroke-width:1.0;"/><line style="stroke:#181818;stroke-width:1.0;" x1="35.5" x2="222.5" y1="407.2832" y2="407.2832"/><text fill="#000000" font-family="sans-serif" font-size="13" lengthAdjust="spacing" textLength="93" x="42.5" y="402.541">Choose course</text><polygon fill="#181818" points="588.5,432.5938,598.5,436.5938,588.5,440.5938,592.5,436.5938" style="stroke:#181818;stroke-width:1.0;"/><line style="stroke:#181818;stroke-width:1.0;" x1="238.5" x2="594.5" y1="436.5938" y2="436.5938"/><text fill="#000000" font-family="sans-serif" font-size="13" lengthAdjust="spacing" textLength="139" x="245.5" y="431.8516">getAllQuestionTypes()</text><polygon fill="#181818" points="1226,461.9043,1236,465.9043,1226,469.9043,1230,465.9043" style="stroke:#181818;stroke-width:1.0;"/><line style="stroke:#181818;stroke-width:1.0;" x1="610.5" x2="1232" y1="465.9043" y2="465.9043"/><text fill="#000000" font-family="sans-serif" font-size="13" lengthAdjust="spacing" textLength="139" x="617.5" y="461.1621">getAllQuestionTypes()</text><polygon fill="#181818" points="46.5,521.2148,36.5,525.2148,46.5,529.2148,42.5,525.2148" style="stroke:#181818;stroke-width:1.0;"/><line style="stroke:#181818;stroke-width:1.0;stroke-dasharray:2.0,2.0;" x1="40.5" x2="232.5" y1="525.2148" y2="525.2148"/><text fill="#000000" font-family="sans-serif" font-size="13" lengthAdjust="spacing" textLength="137" x="52.5" y="520.4727">Shows question types</text><polygon fill="#181818" points="216.5,550.5254,226.5,554.5254,216.5,558.5254,220.5,554.5254" style="stroke:#181818;stroke-width:1.0;"/><line style="stroke:#181818;stroke-width:1.0;" x1="35.5" x2="222.5" y1="554.5254" y2="554.5254"/><text fill="#000000" font-family="sans-serif" font-size="13" lengthAdjust="spacing" textLength="85" x="42.5" y="549.7832">questionType</text><polygon fill="#181818" points="588.5,579.8359,598.5,583.8359,588.5,587.8359,592.5,583.8359" style="stroke:#181818;stroke-width:1.0;"/><line style="stroke:#181818;stroke-width:1.0;stroke-dasharray:2.0,2.0;" x1="233.5" x2="594.5" y1="583.8359" y2="583.8359"/><text fill="#000000" font-family="sans-serif" font-size="13" lengthAdjust="spacing" textLength="333" x="240.5" y="579.0938">getQuestionByTypeAndCourse(questionType, course)</text><polygon fill="#181818" points="970,609.1465,980,613.1465,970,617.1465,974,613.1465" style="stroke:#181818;stroke-width:1.0;"/><line style="stroke:#181818;stroke-width:1.0;stroke-dasharray:2.0,2.0;" x1="605.5" x2="976" y1="613.1465" y2="613.1465"/><text fill="#000000" font-family="sans-serif" font-size="13" lengthAdjust="spacing" textLength="333" x="612.5" y="608.4043">getQuestionByTypeAndCourse(questionType, course)</text><polygon fill="#181818" points="1361,638.457,1371,642.457,1361,646.457,1365,642.457" style="stroke:#181818;stroke-width:1.0;"/><line style="stroke:#181818;stroke-width:1.0;" x1="992" x2="1367" y1="642.457" y2="642.457"/><text fill="#000000" font-family="sans-serif" font-size="13" lengthAdjust="spacing" textLength="45" x="999" y="637.7148">getAll()</text><polygon fill="#181818" points="616.5,697.7676,606.5,701.7676,616.5,705.7676,612.5,701.7676" style="stroke:#181818;stroke-width:1.0;"/><line style="stroke:#181818;stroke-width:1.0;stroke-dasharray:2.0,2.0;" x1="610.5" x2="986" y1="701.7676" y2="701.7676"/><text fill="#000000" font-family="sans-serif" font-size="13" lengthAdjust="spacing" textLength="212" x="622.5" y="697.0254">listOfQuestionsByTypeAndCourse</text><polygon fill="#181818" points="249.5,727.0781,239.5,731.0781,249.5,735.0781,245.5,731.0781" style="stroke:#181818;stroke-width:1.0;"/><line style="stroke:#181818;stroke-width:1.0;stroke-dasharray:2.0,2.0;" x1="243.5" x2="599.5" y1="731.0781" y2="731.0781"/><text fill="#000000" font-family="sans-serif" font-size="13" lengthAdjust="spacing" textLength="212" x="255.5" y="726.3359">listOfQuestionsByTypeAndCourse</text><polygon fill="#181818" points="46.5,756.3887,36.5,760.3887,46.5,764.3887,42.5,760.3887" style="stroke:#181818;stroke-width:1.0;"/><line style="stroke:#181818;stroke-width:1.0;stroke-dasharray:2.0,2.0;" x1="40.5" x2="232.5" y1="760.3887" y2="760.3887"/><text fill="#000000" font-family="sans-serif" font-size="13" lengthAdjust="spacing" textLength="147" x="52.5" y="755.6465">Shows list of questions</text><polygon fill="#181818" points="216.5,785.6992,226.5,789.6992,216.5,793.6992,220.5,789.6992" style="stroke:#181818;stroke-width:1.0;"/><line style="stroke:#181818;stroke-width:1.0;" x1="35.5" x2="222.5" y1="789.6992" y2="789.6992"/><text fill="#000000" font-family="sans-serif" font-size="13" lengthAdjust="spacing" textLength="106" x="42.5" y="784.957">Choose question</text><polygon fill="#181818" points="46.5,815.0098,36.5,819.0098,46.5,823.0098,42.5,819.0098" style="stroke:#181818;stroke-width:1.0;"/><line style="stroke:#181818;stroke-width:1.0;stroke-dasharray:2.0,2.0;" x1="40.5" x2="232.5" y1="819.0098" y2="819.0098"/><text fill="#000000" font-family="sans-serif" font-size="13" lengthAdjust="spacing" textLength="77" x="52.5" y="814.2676">Asks for file</text><polygon fill="#181818" points="216.5,844.3203,226.5,848.3203,216.5,852.3203,220.5,848.3203" style="stroke:#181818;stroke-width:1.0;"/><line style="stroke:#181818;stroke-width:1.0;" x1="35.5" x2="222.5" y1="848.3203" y2="848.3203"/><text fill="#000000" font-family="sans-serif" font-size="13" lengthAdjust="spacing" textLength="67" x="42.5" y="843.5781">Inserts file</text><polygon fill="#181818" points="583.5,873.6309,593.5,877.6309,583.5,881.6309,587.5,877.6309" style="stroke:#181818;stroke-width:1.0;"/><line style="stroke:#181818;stroke-width:1.0;" x1="238.5" x2="589.5" y1="877.6309" y2="877.6309"/><text fill="#000000" font-family="sans-serif" font-size="13" lengthAdjust="spacing" textLength="334" x="245.5" y="872.8887">updateQuestion(question, file, questionType, course)</text><polygon fill="#181818" points="1123.5,932.9414,1133.5,936.9414,1123.5,940.9414,1127.5,936.9414" style="stroke:#181818;stroke-width:1.0;"/><line style="stroke:#181818;stroke-width:1.0;" x1="605.5" x2="1129.5" y1="936.9414" y2="936.9414"/><text fill="#000000" font-family="sans-serif" font-size="13" lengthAdjust="spacing" textLength="377" x="612.5" y="932.1992">updateQuestion(question, file, questionTypeOption, course)</text><polygon fill="#181818" points="616.5,962.252,606.5,966.252,616.5,970.252,612.5,966.252" style="stroke:#181818;stroke-width:1.0;"/><line style="stroke:#181818;stroke-width:1.0;stroke-dasharray:2.0,2.0;" x1="610.5" x2="1139.5" y1="966.252" y2="966.252"/><text fill="#000000" font-family="sans-serif" font-size="13" lengthAdjust="spacing" textLength="55" x="622.5" y="961.5098">question</text><polygon fill="#181818" points="1366,991.5625,1376,995.5625,1366,999.5625,1370,995.5625" style="stroke:#181818;stroke-width:1.0;"/><line style="stroke:#181818;stroke-width:1.0;" x1="605.5" x2="1372" y1="995.5625" y2="995.5625"/><text fill="#000000" font-family="sans-serif" font-size="13" lengthAdjust="spacing" textLength="91" x="612.5" y="990.8203">save(question)</text><!--SRC=[dLJBRiCW4Bpp5QkS6Yd-WHmifQY7I9KY0la0wf36gcjS86dpzrqCE3WFHUsHtTbXTWPR7foMbQkFqYdGBI5uq0Q4ajLU6P0M1EcaSNLLTx9rCDbqMuI-_CXFTb3MrRgrc-N40pVBXqYgMsTqqoZJJp0wddYjhQFwOAooN9bZNQaUnX_nvc1sWKwOqBpT4wSk3Wk2tF9DMdNkhbMdROskd09cdM62sWi4NHD211GbMZA7GoyN97n5Fh9P-XwZSwYCmXuMYXAFxygjEjL61vwcPAk6QD1SHekINuDuKTArBo-QPZpZbPvFg8eN_JqDshpQPIoZ8KhyJKM9sg-191U4iejIp87lzRS53mQz0urmg29Uz3n0zrgZNQ5AyhlEgwFyF0-_cj-OYJlDNBD8MeAKv3GuZqqYlZ824WPy1iYUg9zFlhTejs7TftnY5jLFC_ayECNuFrWOviRkviP6KGtVpmNrQ8XVn7Ptw4Q4umIJuEHSJ2zxlo7tXVsmiCE_nQvkL79vsLfbd0src6xy1fAYmP5PZvh1ROUkNp_x4zEg2vt1yHZuiCV8SDh7OUNn7DYK_080]--></g></svg>