<?xml version="1.0" encoding="us-ascii" standalone="no"?><svg xmlns="http://www.w3.org/2000/svg" xmlns:xlink="http://www.w3.org/1999/xlink" contentStyleType="text/css" height="580px" preserveAspectRatio="none" style="width:343px;height:580px;background:#FFFFFF;" version="1.1" viewBox="0 0 343 580" width="343px" zoomAndPan="magnify"><defs/><g><rect fill="#FFFFFF" height="389.9922" style="stroke:#181818;stroke-width:1.0;" width="10" x="45.5" y="91.4883"/><rect fill="#FFFFFF" height="29.3105" style="stroke:#181818;stroke-width:1.0;" width="10" x="290.5" y="112.7988"/><rect fill="#FFFFFF" height="29.3105" style="stroke:#181818;stroke-width:1.0;" width="10" x="290.5" y="171.4199"/><rect fill="#FFFFFF" height="53.6211" style="stroke:#181818;stroke-width:1.0;" width="10" x="290.5" y="230.041"/><rect fill="#FFFFFF" height="44.2656" style="stroke:#181818;stroke-width:1.0;" width="10" x="290.5" y="312.9727"/><rect fill="#FFFFFF" height="36.3105" style="stroke:#181818;stroke-width:1.0;" width="10" x="290.5" y="386.5488"/><rect fill="#FFFFFF" height="29.3105" style="stroke:#181818;stroke-width:1.0;" width="10" x="290.5" y="452.1699"/><rect fill="none" height="149.5078" style="stroke:#000000;stroke-width:1.5;" width="326.5" x="10" y="245.041"/><line style="stroke:#181818;stroke-width:0.5;stroke-dasharray:5.0,5.0;" x1="50" x2="50" y1="81.4883" y2="499.4805"/><line style="stroke:#181818;stroke-width:0.5;stroke-dasharray:5.0,5.0;" x1="295.5" x2="295.5" y1="81.4883" y2="499.4805"/><text fill="#000000" font-family="sans-serif" font-size="14" lengthAdjust="spacing" textLength="55" x="20" y="78.5352">Teacher</text><ellipse cx="50.5" cy="13.5" fill="#E2E2F0" rx="8" ry="8" style="stroke:#181818;stroke-width:0.5;"/><path d="M50.5,21.5 L50.5,48.5 M37.5,29.5 L63.5,29.5 M50.5,48.5 L37.5,63.5 M50.5,48.5 L63.5,63.5 " fill="none" style="stroke:#181818;stroke-width:0.5;"/><text fill="#000000" font-family="sans-serif" font-size="14" lengthAdjust="spacing" textLength="55" x="20" y="512.0156">Teacher</text><ellipse cx="50.5" cy="523.4688" fill="#E2E2F0" rx="8" ry="8" style="stroke:#181818;stroke-width:0.5;"/><path d="M50.5,531.4688 L50.5,558.4688 M37.5,539.4688 L63.5,539.4688 M50.5,558.4688 L37.5,573.4688 M50.5,558.4688 L63.5,573.4688 " fill="none" style="stroke:#181818;stroke-width:0.5;"/><rect fill="#E2E2F0" height="30.4883" rx="2.5" ry="2.5" style="stroke:#181818;stroke-width:0.5;" width="62" x="264.5" y="50"/><text fill="#000000" font-family="sans-serif" font-size="14" lengthAdjust="spacing" textLength="48" x="271.5" y="70.5352">System</text><rect fill="#E2E2F0" height="30.4883" rx="2.5" ry="2.5" style="stroke:#181818;stroke-width:0.5;" width="62" x="264.5" y="498.4805"/><text fill="#000000" font-family="sans-serif" font-size="14" lengthAdjust="spacing" textLength="48" x="271.5" y="519.0156">System</text><rect fill="#FFFFFF" height="389.9922" style="stroke:#181818;stroke-width:1.0;" width="10" x="45.5" y="91.4883"/><rect fill="#FFFFFF" height="29.3105" style="stroke:#181818;stroke-width:1.0;" width="10" x="290.5" y="112.7988"/><rect fill="#FFFFFF" height="29.3105" style="stroke:#181818;stroke-width:1.0;" width="10" x="290.5" y="171.4199"/><rect fill="#FFFFFF" height="53.6211" style="stroke:#181818;stroke-width:1.0;" width="10" x="290.5" y="230.041"/><rect fill="#FFFFFF" height="44.2656" style="stroke:#181818;stroke-width:1.0;" width="10" x="290.5" y="312.9727"/><rect fill="#FFFFFF" height="36.3105" style="stroke:#181818;stroke-width:1.0;" width="10" x="290.5" y="386.5488"/><rect fill="#FFFFFF" height="29.3105" style="stroke:#181818;stroke-width:1.0;" width="10" x="290.5" y="452.1699"/><polygon fill="#181818" points="278.5,108.7988,288.5,112.7988,278.5,116.7988,282.5,112.7988" style="stroke:#181818;stroke-width:1.0;"/><line style="stroke:#181818;stroke-width:1.0;" x1="55.5" x2="284.5" y1="112.7988" y2="112.7988"/><text fill="#000000" font-family="sans-serif" font-size="13" font-weight="bold" lengthAdjust="spacing" textLength="9" x="62.5" y="108.0566">1</text><text fill="#000000" font-family="sans-serif" font-size="13" lengthAdjust="spacing" textLength="195" x="75.5" y="108.0566">Asks to add/update a question</text><polygon fill="#181818" points="66.5,138.1094,56.5,142.1094,66.5,146.1094,62.5,142.1094" style="stroke:#181818;stroke-width:1.0;"/><line style="stroke:#181818;stroke-width:1.0;stroke-dasharray:2.0,2.0;" x1="60.5" x2="294.5" y1="142.1094" y2="142.1094"/><text fill="#000000" font-family="sans-serif" font-size="13" font-weight="bold" lengthAdjust="spacing" textLength="9" x="72.5" y="137.3672">2</text><text fill="#000000" font-family="sans-serif" font-size="13" lengthAdjust="spacing" textLength="143" x="85.5" y="137.3672">Asks to choose course</text><polygon fill="#181818" points="278.5,167.4199,288.5,171.4199,278.5,175.4199,282.5,171.4199" style="stroke:#181818;stroke-width:1.0;"/><line style="stroke:#181818;stroke-width:1.0;" x1="55.5" x2="284.5" y1="171.4199" y2="171.4199"/><text fill="#000000" font-family="sans-serif" font-size="13" font-weight="bold" lengthAdjust="spacing" textLength="9" x="62.5" y="166.6777">3</text><text fill="#000000" font-family="sans-serif" font-size="13" lengthAdjust="spacing" textLength="42" x="75.5" y="166.6777">course</text><polygon fill="#181818" points="66.5,196.7305,56.5,200.7305,66.5,204.7305,62.5,200.7305" style="stroke:#181818;stroke-width:1.0;"/><line style="stroke:#181818;stroke-width:1.0;stroke-dasharray:2.0,2.0;" x1="60.5" x2="294.5" y1="200.7305" y2="200.7305"/><text fill="#000000" font-family="sans-serif" font-size="13" font-weight="bold" lengthAdjust="spacing" textLength="9" x="72.5" y="195.9883">4</text><text fill="#000000" font-family="sans-serif" font-size="13" lengthAdjust="spacing" textLength="198" x="85.5" y="195.9883">Asks to choose a question type</text><polygon fill="#181818" points="278.5,226.041,288.5,230.041,278.5,234.041,282.5,230.041" style="stroke:#181818;stroke-width:1.0;"/><line style="stroke:#181818;stroke-width:1.0;" x1="55.5" x2="284.5" y1="230.041" y2="230.041"/><text fill="#000000" font-family="sans-serif" font-size="13" font-weight="bold" lengthAdjust="spacing" textLength="9" x="62.5" y="225.2988">5</text><text fill="#000000" font-family="sans-serif" font-size="13" lengthAdjust="spacing" textLength="86" x="75.5" y="225.2988">question type</text><path d="M10,245.041 L72,245.041 L72,252.3516 L62,262.3516 L10,262.3516 L10,245.041 " fill="#EEEEEE" style="stroke:#000000;stroke-width:1.5;"/><rect fill="none" height="149.5078" style="stroke:#000000;stroke-width:1.5;" width="326.5" x="10" y="245.041"/><text fill="#000000" font-family="sans-serif" font-size="13" font-weight="bold" lengthAdjust="spacing" textLength="17" x="25" y="258.6094">alt</text><text fill="#000000" font-family="sans-serif" font-size="11" font-weight="bold" lengthAdjust="spacing" textLength="80" x="87" y="257.6758">[add question]</text><polygon fill="#181818" points="66.5,279.6621,56.5,283.6621,66.5,287.6621,62.5,283.6621" style="stroke:#181818;stroke-width:1.0;"/><line style="stroke:#181818;stroke-width:1.0;stroke-dasharray:2.0,2.0;" x1="60.5" x2="294.5" y1="283.6621" y2="283.6621"/><text fill="#000000" font-family="sans-serif" font-size="13" font-weight="bold" lengthAdjust="spacing" textLength="9" x="72.5" y="278.9199">6</text><text fill="#000000" font-family="sans-serif" font-size="13" lengthAdjust="spacing" textLength="139" x="85.5" y="278.9199">Asks for a description</text><polygon fill="#181818" points="278.5,308.9727,288.5,312.9727,278.5,316.9727,282.5,312.9727" style="stroke:#181818;stroke-width:1.0;"/><line style="stroke:#181818;stroke-width:1.0;" x1="55.5" x2="284.5" y1="312.9727" y2="312.9727"/><text fill="#000000" font-family="sans-serif" font-size="13" font-weight="bold" lengthAdjust="spacing" textLength="9" x="62.5" y="308.2305">7</text><text fill="#000000" font-family="sans-serif" font-size="13" lengthAdjust="spacing" textLength="71" x="75.5" y="308.2305">description</text><line style="stroke:#000000;stroke-width:1.0;stroke-dasharray:2.0,2.0;" x1="10" x2="336.5" y1="321.9727" y2="321.9727"/><text fill="#000000" font-family="sans-serif" font-size="11" font-weight="bold" lengthAdjust="spacing" textLength="97" x="15" y="332.6074">[update question]</text><polygon fill="#181818" points="66.5,353.2383,56.5,357.2383,66.5,361.2383,62.5,357.2383" style="stroke:#181818;stroke-width:1.0;"/><line style="stroke:#181818;stroke-width:1.0;stroke-dasharray:2.0,2.0;" x1="60.5" x2="294.5" y1="357.2383" y2="357.2383"/><text fill="#000000" font-family="sans-serif" font-size="13" font-weight="bold" lengthAdjust="spacing" textLength="9" x="72.5" y="352.4961">8</text><text fill="#000000" font-family="sans-serif" font-size="13" lengthAdjust="spacing" textLength="180" x="85.5" y="352.4961">Asks to choose the question</text><polygon fill="#181818" points="278.5,382.5488,288.5,386.5488,278.5,390.5488,282.5,386.5488" style="stroke:#181818;stroke-width:1.0;"/><line style="stroke:#181818;stroke-width:1.0;" x1="55.5" x2="284.5" y1="386.5488" y2="386.5488"/><text fill="#000000" font-family="sans-serif" font-size="13" font-weight="bold" lengthAdjust="spacing" textLength="9" x="62.5" y="381.8066">9</text><text fill="#000000" font-family="sans-serif" font-size="13" lengthAdjust="spacing" textLength="55" x="75.5" y="381.8066">question</text><polygon fill="#181818" points="66.5,418.8594,56.5,422.8594,66.5,426.8594,62.5,422.8594" style="stroke:#181818;stroke-width:1.0;"/><line style="stroke:#181818;stroke-width:1.0;stroke-dasharray:2.0,2.0;" x1="60.5" x2="294.5" y1="422.8594" y2="422.8594"/><text fill="#000000" font-family="sans-serif" font-size="13" font-weight="bold" lengthAdjust="spacing" textLength="18" x="72.5" y="418.1172">10</text><text fill="#000000" font-family="sans-serif" font-size="13" lengthAdjust="spacing" textLength="77" x="94.5" y="418.1172">Asks for file</text><polygon fill="#181818" points="278.5,448.1699,288.5,452.1699,278.5,456.1699,282.5,452.1699" style="stroke:#181818;stroke-width:1.0;"/><line style="stroke:#181818;stroke-width:1.0;" x1="55.5" x2="284.5" y1="452.1699" y2="452.1699"/><text fill="#000000" font-family="sans-serif" font-size="13" font-weight="bold" lengthAdjust="spacing" textLength="18" x="62.5" y="447.4277">11</text><text fill="#000000" font-family="sans-serif" font-size="13" lengthAdjust="spacing" textLength="20" x="84.5" y="447.4277">file</text><polygon fill="#181818" points="61.5,477.4805,51.5,481.4805,61.5,485.4805,57.5,481.4805" style="stroke:#181818;stroke-width:1.0;"/><line style="stroke:#181818;stroke-width:1.0;stroke-dasharray:2.0,2.0;" x1="55.5" x2="294.5" y1="481.4805" y2="481.4805"/><text fill="#000000" font-family="sans-serif" font-size="13" font-weight="bold" lengthAdjust="spacing" textLength="18" x="67.5" y="476.7383">12</text><text fill="#000000" font-family="sans-serif" font-size="13" lengthAdjust="spacing" textLength="94" x="89.5" y="476.7383">Saves question</text><!--SRC=[ZL5T3e8m37xVANe1uxiF9fu1Br2t4XQ1uTgHS7i7JeTneczDlvz-RJ68wqDt8QyKnXgrs165mFMneSLvE1Fg9k8lwDbGAbMmEq8riL1tW1DV6SG16hCFWvdv2BT0B7QsVD1W5nL9d2MwSOu9j0kUgUITa7zCyaoGQIYwlHEmbJbpZlfrI1rlWc28jRV3GYsOhs5gOw1qYz_sUGTfLloD1HJrPZjkRTlY2PP-ILdXIBnwcw6Fxzy1]--></g></svg>