<?xml version="1.0" encoding="us-ascii" standalone="no"?><svg xmlns="http://www.w3.org/2000/svg" xmlns:xlink="http://www.w3.org/1999/xlink" contentStyleType="text/css" height="757px" preserveAspectRatio="none" style="width:1112px;height:757px;background:#FFFFFF;" version="1.1" viewBox="0 0 1112 757" width="1112px" zoomAndPan="magnify"><defs/><g><!--class Teacher--><g id="elem_Teacher"><rect codeLine="2" fill="#F1F1F1" height="48" id="Teacher" rx="2.5" ry="2.5" style="stroke:#181818;stroke-width:0.5;" width="87" x="643" y="7"/><ellipse cx="658" cy="23" fill="#ADD1B2" rx="11" ry="11" style="stroke:#181818;stroke-width:1.0;"/><path d="M660.9731,28.6431 Q660.3921,28.9419 659.7529,29.0913 Q659.1138,29.2407 658.4082,29.2407 Q655.9014,29.2407 654.5815,27.5889 Q653.2617,25.937 653.2617,22.8159 Q653.2617,19.6865 654.5815,18.0347 Q655.9014,16.3828 658.4082,16.3828 Q659.1138,16.3828 659.7612,16.5322 Q660.4087,16.6816 660.9731,16.9805 L660.9731,19.7031 Q660.3423,19.1221 659.7488,18.8523 Q659.1553,18.5825 658.5244,18.5825 Q657.1797,18.5825 656.4949,19.6492 Q655.8101,20.7158 655.8101,22.8159 Q655.8101,24.9077 656.4949,25.9744 Q657.1797,27.041 658.5244,27.041 Q659.1553,27.041 659.7488,26.7712 Q660.3423,26.5015 660.9731,25.9204 Z " fill="#000000"/><text fill="#000000" font-family="sans-serif" font-size="14" lengthAdjust="spacing" textLength="55" x="672" y="28.291">Teacher</text><line style="stroke:#181818;stroke-width:0.5;" x1="644" x2="729" y1="39" y2="39"/><line style="stroke:#181818;stroke-width:0.5;" x1="644" x2="729" y1="47" y2="47"/></g><!--class AddExamQuestionUI--><g id="elem_AddExamQuestionUI"><rect codeLine="3" fill="#F1F1F1" height="64.4883" id="AddExamQuestionUI" rx="2.5" ry="2.5" style="stroke:#181818;stroke-width:0.5;" width="174" x="723.5" y="115"/><ellipse cx="738.5" cy="131" fill="#ADD1B2" rx="11" ry="11" style="stroke:#181818;stroke-width:1.0;"/><path d="M741.4731,136.6431 Q740.8921,136.9419 740.2529,137.0913 Q739.6138,137.2407 738.9082,137.2407 Q736.4014,137.2407 735.0815,135.5889 Q733.7617,133.937 733.7617,130.8159 Q733.7617,127.6865 735.0815,126.0347 Q736.4014,124.3828 738.9082,124.3828 Q739.6138,124.3828 740.2612,124.5322 Q740.9087,124.6816 741.4731,124.9805 L741.4731,127.7031 Q740.8423,127.1221 740.2488,126.8523 Q739.6553,126.5825 739.0244,126.5825 Q737.6797,126.5825 736.9949,127.6492 Q736.3101,128.7158 736.3101,130.8159 Q736.3101,132.9077 736.9949,133.9744 Q737.6797,135.041 739.0244,135.041 Q739.6553,135.041 740.2488,134.7712 Q740.8423,134.5015 741.4731,133.9204 Z " fill="#000000"/><text fill="#000000" font-family="sans-serif" font-size="14" lengthAdjust="spacing" textLength="142" x="752.5" y="136.291">AddExamQuestionUI</text><line style="stroke:#181818;stroke-width:0.5;" x1="724.5" x2="896.5" y1="147" y2="147"/><line style="stroke:#181818;stroke-width:0.5;" x1="724.5" x2="896.5" y1="155" y2="155"/><ellipse cx="734.5" cy="168.7441" fill="#84BE84" rx="3" ry="3" style="stroke:#038048;stroke-width:1.0;"/><text fill="#000000" font-family="sans-serif" font-size="14" lengthAdjust="spacing" textLength="64" x="743.5" y="172.5352">doshow()</text></g><!--class UpdateExamQuestionUI--><g id="elem_UpdateExamQuestionUI"><rect codeLine="7" fill="#F1F1F1" height="64.4883" id="UpdateExamQuestionUI" rx="2.5" ry="2.5" style="stroke:#181818;stroke-width:0.5;" width="195" x="479" y="115"/><ellipse cx="494" cy="131" fill="#ADD1B2" rx="11" ry="11" style="stroke:#181818;stroke-width:1.0;"/><path d="M496.9731,136.6431 Q496.3921,136.9419 495.7529,137.0913 Q495.1138,137.2407 494.4082,137.2407 Q491.9014,137.2407 490.5815,135.5889 Q489.2617,133.937 489.2617,130.8159 Q489.2617,127.6865 490.5815,126.0347 Q491.9014,124.3828 494.4082,124.3828 Q495.1138,124.3828 495.7612,124.5322 Q496.4087,124.6816 496.9731,124.9805 L496.9731,127.7031 Q496.3423,127.1221 495.7488,126.8523 Q495.1553,126.5825 494.5244,126.5825 Q493.1797,126.5825 492.4949,127.6492 Q491.8101,128.7158 491.8101,130.8159 Q491.8101,132.9077 492.4949,133.9744 Q493.1797,135.041 494.5244,135.041 Q495.1553,135.041 495.7488,134.7712 Q496.3423,134.5015 496.9731,133.9204 Z " fill="#000000"/><text fill="#000000" font-family="sans-serif" font-size="14" lengthAdjust="spacing" textLength="163" x="508" y="136.291">UpdateExamQuestionUI</text><line style="stroke:#181818;stroke-width:0.5;" x1="480" x2="673" y1="147" y2="147"/><line style="stroke:#181818;stroke-width:0.5;" x1="480" x2="673" y1="155" y2="155"/><ellipse cx="490" cy="168.7441" fill="#84BE84" rx="3" ry="3" style="stroke:#038048;stroke-width:1.0;"/><text fill="#000000" font-family="sans-serif" font-size="14" lengthAdjust="spacing" textLength="64" x="499" y="172.5352">doshow()</text></g><!--class UpdateExamQuestionController--><g id="elem_UpdateExamQuestionController"><rect codeLine="10" fill="#F1F1F1" height="130.4414" id="UpdateExamQuestionController" rx="2.5" ry="2.5" style="stroke:#181818;stroke-width:0.5;" width="251" x="424" y="239.49"/><ellipse cx="439" cy="255.49" fill="#ADD1B2" rx="11" ry="11" style="stroke:#181818;stroke-width:1.0;"/><path d="M441.9731,261.1331 Q441.3921,261.4319 440.7529,261.5813 Q440.1138,261.7307 439.4082,261.7307 Q436.9014,261.7307 435.5815,260.0789 Q434.2617,258.427 434.2617,255.3059 Q434.2617,252.1765 435.5815,250.5247 Q436.9014,248.8728 439.4082,248.8728 Q440.1138,248.8728 440.7612,249.0222 Q441.4087,249.1716 441.9731,249.4705 L441.9731,252.1931 Q441.3423,251.6121 440.7488,251.3423 Q440.1553,251.0725 439.5244,251.0725 Q438.1797,251.0725 437.4949,252.1392 Q436.8101,253.2058 436.8101,255.3059 Q436.8101,257.3977 437.4949,258.4644 Q438.1797,259.531 439.5244,259.531 Q440.1553,259.531 440.7488,259.2612 Q441.3423,258.9915 441.9731,258.4104 Z " fill="#000000"/><text fill="#000000" font-family="sans-serif" font-size="14" lengthAdjust="spacing" textLength="219" x="453" y="260.781">UpdateExamQuestionController</text><line style="stroke:#181818;stroke-width:0.5;" x1="425" x2="674" y1="271.49" y2="271.49"/><line style="stroke:#181818;stroke-width:0.5;" x1="425" x2="674" y1="279.49" y2="279.49"/><ellipse cx="435" cy="293.2341" fill="#84BE84" rx="3" ry="3" style="stroke:#038048;stroke-width:1.0;"/><text fill="#000000" font-family="sans-serif" font-size="14" lengthAdjust="spacing" textLength="125" x="444" y="297.0252">getOpenCourses()</text><ellipse cx="435" cy="309.7224" fill="#84BE84" rx="3" ry="3" style="stroke:#038048;stroke-width:1.0;"/><text fill="#000000" font-family="sans-serif" font-size="14" lengthAdjust="spacing" textLength="152" x="444" y="313.5134">getAllQuestionTypes()</text><ellipse cx="435" cy="326.2107" fill="#84BE84" rx="3" ry="3" style="stroke:#038048;stroke-width:1.0;"/><text fill="#000000" font-family="sans-serif" font-size="14" lengthAdjust="spacing" textLength="127" x="444" y="330.0017">getQuestionType()</text><ellipse cx="435" cy="342.699" fill="#84BE84" rx="3" ry="3" style="stroke:#038048;stroke-width:1.0;"/><text fill="#000000" font-family="sans-serif" font-size="14" lengthAdjust="spacing" textLength="219" x="444" y="346.49">getQuestionByTypeAndCourse()</text><ellipse cx="435" cy="359.1873" fill="#84BE84" rx="3" ry="3" style="stroke:#038048;stroke-width:1.0;"/><text fill="#000000" font-family="sans-serif" font-size="14" lengthAdjust="spacing" textLength="120" x="444" y="362.9783">updateQuestion()</text></g><!--class ListCoursesService--><g id="elem_ListCoursesService"><rect codeLine="18" fill="#F1F1F1" height="80.9766" id="ListCoursesService" rx="2.5" ry="2.5" style="stroke:#181818;stroke-width:0.5;" width="159" x="946" y="471.15"/><ellipse cx="961" cy="487.15" fill="#ADD1B2" rx="11" ry="11" style="stroke:#181818;stroke-width:1.0;"/><path d="M963.9731,492.7931 Q963.3921,493.0919 962.7529,493.2413 Q962.1138,493.3907 961.4082,493.3907 Q958.9014,493.3907 957.5815,491.7389 Q956.2617,490.087 956.2617,486.9659 Q956.2617,483.8365 957.5815,482.1847 Q958.9014,480.5328 961.4082,480.5328 Q962.1138,480.5328 962.7612,480.6822 Q963.4087,480.8316 963.9731,481.1305 L963.9731,483.8531 Q963.3423,483.2721 962.7488,483.0023 Q962.1553,482.7325 961.5244,482.7325 Q960.1797,482.7325 959.4949,483.7992 Q958.8101,484.8658 958.8101,486.9659 Q958.8101,489.0577 959.4949,490.1244 Q960.1797,491.191 961.5244,491.191 Q962.1553,491.191 962.7488,490.9212 Q963.3423,490.6515 963.9731,490.0704 Z " fill="#000000"/><text fill="#000000" font-family="sans-serif" font-size="14" lengthAdjust="spacing" textLength="127" x="975" y="492.441">ListCoursesService</text><line style="stroke:#181818;stroke-width:0.5;" x1="947" x2="1104" y1="503.15" y2="503.15"/><line style="stroke:#181818;stroke-width:0.5;" x1="947" x2="1104" y1="511.15" y2="511.15"/><ellipse cx="957" cy="524.8941" fill="#84BE84" rx="3" ry="3" style="stroke:#038048;stroke-width:1.0;"/><text fill="#000000" font-family="sans-serif" font-size="14" lengthAdjust="spacing" textLength="125" x="966" y="528.6852">getOpenCourses()</text><ellipse cx="957" cy="541.3824" fill="#84BE84" rx="3" ry="3" style="stroke:#038048;stroke-width:1.0;"/><text fill="#000000" font-family="sans-serif" font-size="14" lengthAdjust="spacing" textLength="82" x="966" y="545.1734">allCourses()</text></g><!--class UpdateExamQuestionService--><g id="elem_UpdateExamQuestionService"><rect codeLine="23" fill="#F1F1F1" height="80.9766" id="UpdateExamQuestionService" rx="2.5" ry="2.5" style="stroke:#181818;stroke-width:0.5;" width="245" x="7" y="471.15"/><ellipse cx="29.2" cy="487.15" fill="#ADD1B2" rx="11" ry="11" style="stroke:#181818;stroke-width:1.0;"/><path d="M32.1731,492.7931 Q31.5921,493.0919 30.9529,493.2413 Q30.3138,493.3907 29.6082,493.3907 Q27.1014,493.3907 25.7815,491.7389 Q24.4617,490.087 24.4617,486.9659 Q24.4617,483.8365 25.7815,482.1847 Q27.1014,480.5328 29.6082,480.5328 Q30.3138,480.5328 30.9612,480.6822 Q31.6087,480.8316 32.1731,481.1305 L32.1731,483.8531 Q31.5423,483.2721 30.9488,483.0023 Q30.3553,482.7325 29.7244,482.7325 Q28.3797,482.7325 27.6949,483.7992 Q27.0101,484.8658 27.0101,486.9659 Q27.0101,489.0577 27.6949,490.1244 Q28.3797,491.191 29.7244,491.191 Q30.3553,491.191 30.9488,490.9212 Q31.5423,490.6515 32.1731,490.0704 Z " fill="#000000"/><text fill="#000000" font-family="sans-serif" font-size="14" lengthAdjust="spacing" textLength="197" x="44.8" y="492.441">UpdateExamQuestionService</text><line style="stroke:#181818;stroke-width:0.5;" x1="8" x2="251" y1="503.15" y2="503.15"/><line style="stroke:#181818;stroke-width:0.5;" x1="8" x2="251" y1="511.15" y2="511.15"/><ellipse cx="18" cy="524.8941" fill="#84BE84" rx="3" ry="3" style="stroke:#038048;stroke-width:1.0;"/><text fill="#000000" font-family="sans-serif" font-size="14" lengthAdjust="spacing" textLength="219" x="27" y="528.6852">getQuestionByTypeAndCourse()</text><ellipse cx="18" cy="541.3824" fill="#84BE84" rx="3" ry="3" style="stroke:#038048;stroke-width:1.0;"/><text fill="#000000" font-family="sans-serif" font-size="14" lengthAdjust="spacing" textLength="95" x="27" y="545.1734">allQuestions()</text></g><!--class AddExamQuestionController--><g id="elem_AddExamQuestionController"><rect codeLine="29" fill="#F1F1F1" height="97.4648" id="AddExamQuestionController" rx="2.5" ry="2.5" style="stroke:#181818;stroke-width:0.5;" width="230" x="709.5" y="255.97"/><ellipse cx="724.5" cy="271.97" fill="#ADD1B2" rx="11" ry="11" style="stroke:#181818;stroke-width:1.0;"/><path d="M727.4731,277.6131 Q726.8921,277.9119 726.2529,278.0613 Q725.6138,278.2107 724.9082,278.2107 Q722.4014,278.2107 721.0815,276.5589 Q719.7617,274.907 719.7617,271.7859 Q719.7617,268.6565 721.0815,267.0047 Q722.4014,265.3528 724.9082,265.3528 Q725.6138,265.3528 726.2612,265.5022 Q726.9087,265.6516 727.4731,265.9505 L727.4731,268.6731 Q726.8423,268.0921 726.2488,267.8223 Q725.6553,267.5525 725.0244,267.5525 Q723.6797,267.5525 722.9949,268.6192 Q722.3101,269.6858 722.3101,271.7859 Q722.3101,273.8777 722.9949,274.9444 Q723.6797,276.011 725.0244,276.011 Q725.6553,276.011 726.2488,275.7412 Q726.8423,275.4715 727.4731,274.8904 Z " fill="#000000"/><text fill="#000000" font-family="sans-serif" font-size="14" lengthAdjust="spacing" textLength="198" x="738.5" y="277.261">AddExamQuestionController</text><line style="stroke:#181818;stroke-width:0.5;" x1="710.5" x2="938.5" y1="287.97" y2="287.97"/><line style="stroke:#181818;stroke-width:0.5;" x1="710.5" x2="938.5" y1="295.97" y2="295.97"/><ellipse cx="720.5" cy="309.7141" fill="#84BE84" rx="3" ry="3" style="stroke:#038048;stroke-width:1.0;"/><text fill="#000000" font-family="sans-serif" font-size="14" lengthAdjust="spacing" textLength="125" x="729.5" y="313.5052">getOpenCourses()</text><ellipse cx="720.5" cy="326.2024" fill="#84BE84" rx="3" ry="3" style="stroke:#038048;stroke-width:1.0;"/><text fill="#000000" font-family="sans-serif" font-size="14" lengthAdjust="spacing" textLength="152" x="729.5" y="329.9934">getAllQuestionTypes()</text><ellipse cx="720.5" cy="342.6907" fill="#84BE84" rx="3" ry="3" style="stroke:#038048;stroke-width:1.0;"/><text fill="#000000" font-family="sans-serif" font-size="14" lengthAdjust="spacing" textLength="114" x="729.5" y="346.4817">createQuestion()</text></g><!--class Question--><g id="elem_Question"><rect codeLine="35" fill="#F1F1F1" height="163.418" id="Question" rx="2.5" ry="2.5" style="stroke:#181818;stroke-width:0.5;" width="198" x="287.5" y="429.93"/><ellipse cx="351.25" cy="445.93" fill="#ADD1B2" rx="11" ry="11" style="stroke:#181818;stroke-width:1.0;"/><path d="M354.2231,451.5731 Q353.6421,451.8719 353.0029,452.0213 Q352.3638,452.1707 351.6582,452.1707 Q349.1514,452.1707 347.8315,450.5189 Q346.5117,448.867 346.5117,445.7459 Q346.5117,442.6165 347.8315,440.9647 Q349.1514,439.3128 351.6582,439.3128 Q352.3638,439.3128 353.0112,439.4622 Q353.6587,439.6116 354.2231,439.9105 L354.2231,442.6331 Q353.5923,442.0521 352.9988,441.7823 Q352.4053,441.5125 351.7744,441.5125 Q350.4297,441.5125 349.7449,442.5792 Q349.0601,443.6458 349.0601,445.7459 Q349.0601,447.8377 349.7449,448.9044 Q350.4297,449.971 351.7744,449.971 Q352.4053,449.971 352.9988,449.7012 Q353.5923,449.4315 354.2231,448.8504 Z " fill="#000000"/><text fill="#000000" font-family="sans-serif" font-size="14" lengthAdjust="spacing" textLength="62" x="371.75" y="451.221">Question</text><line style="stroke:#181818;stroke-width:0.5;" x1="288.5" x2="484.5" y1="461.93" y2="461.93"/><rect fill="none" height="6" style="stroke:#C82930;stroke-width:1.0;" width="6" x="295.5" y="472.6741"/><text fill="#000000" font-family="sans-serif" font-size="14" lengthAdjust="spacing" textLength="93" x="307.5" y="479.4652">questionType</text><rect fill="none" height="6" style="stroke:#C82930;stroke-width:1.0;" width="6" x="295.5" y="489.1624"/><text fill="#000000" font-family="sans-serif" font-size="14" lengthAdjust="spacing" textLength="46" x="307.5" y="495.9534">course</text><rect fill="none" height="6" style="stroke:#C82930;stroke-width:1.0;" width="6" x="295.5" y="505.6507"/><text fill="#000000" font-family="sans-serif" font-size="14" lengthAdjust="spacing" textLength="21" x="307.5" y="512.4417">file</text><rect fill="none" height="6" style="stroke:#C82930;stroke-width:1.0;" width="6" x="295.5" y="522.139"/><text fill="#000000" font-family="sans-serif" font-size="14" lengthAdjust="spacing" textLength="77" x="307.5" y="528.93">description</text><line style="stroke:#181818;stroke-width:0.5;" x1="288.5" x2="484.5" y1="535.8831" y2="535.8831"/><ellipse cx="298.5" cy="549.6273" fill="#84BE84" rx="3" ry="3" style="stroke:#038048;stroke-width:1.0;"/><text fill="#000000" font-family="sans-serif" font-size="14" lengthAdjust="spacing" textLength="143" x="307.5" y="553.4183">getQuestionCourse()</text><ellipse cx="298.5" cy="566.1155" fill="#84BE84" rx="3" ry="3" style="stroke:#038048;stroke-width:1.0;"/><text fill="#000000" font-family="sans-serif" font-size="14" lengthAdjust="spacing" textLength="127" x="307.5" y="569.9066">getQuestionType()</text><ellipse cx="298.5" cy="582.6038" fill="#84BE84" rx="3" ry="3" style="stroke:#038048;stroke-width:1.0;"/><text fill="#000000" font-family="sans-serif" font-size="14" lengthAdjust="spacing" textLength="172" x="307.5" y="586.3948">getQuestionDescription()</text></g><!--class QuestionType--><g id="elem_QuestionType"><rect codeLine="45" fill="#F1F1F1" height="146.9297" id="QuestionType" rx="2.5" ry="2.5" style="stroke:#181818;stroke-width:0.5;" width="182" x="520.5" y="438.17"/><ellipse cx="560.25" cy="454.17" fill="#EB937F" rx="11" ry="11" style="stroke:#181818;stroke-width:1.0;"/><path d="M564.3643,460.17 L556.6445,460.17 L556.6445,447.7769 L564.3643,447.7769 L564.3643,449.9351 L559.0933,449.9351 L559.0933,452.608 L563.8662,452.608 L563.8662,454.7662 L559.0933,454.7662 L559.0933,458.0118 L564.3643,458.0118 Z " fill="#000000"/><text fill="#000000" font-family="sans-serif" font-size="14" lengthAdjust="spacing" textLength="95" x="579.75" y="459.461">QuestionType</text><line style="stroke:#181818;stroke-width:0.5;" x1="521.5" x2="701.5" y1="470.17" y2="470.17"/><text fill="#000000" font-family="sans-serif" font-size="14" lengthAdjust="spacing" textLength="75" x="526.5" y="487.7052">MATCHING</text><text fill="#000000" font-family="sans-serif" font-size="14" lengthAdjust="spacing" textLength="125" x="526.5" y="504.1934">MULTIPLE_CHOICE</text><text fill="#000000" font-family="sans-serif" font-size="14" lengthAdjust="spacing" textLength="111" x="526.5" y="520.6817">SHORT_ANSWER</text><text fill="#000000" font-family="sans-serif" font-size="14" lengthAdjust="spacing" textLength="80" x="526.5" y="537.17">NUMERICAL</text><text fill="#000000" font-family="sans-serif" font-size="14" lengthAdjust="spacing" textLength="170" x="526.5" y="553.6583">SELECT_MISSING_WORDS</text><text fill="#000000" font-family="sans-serif" font-size="14" lengthAdjust="spacing" textLength="84" x="526.5" y="570.1466">TRUE_FALSE</text><line style="stroke:#181818;stroke-width:0.5;" x1="521.5" x2="701.5" y1="577.0997" y2="577.0997"/></g><!--class QuestionRepository--><g id="elem_QuestionRepository"><rect codeLine="54" fill="#F1F1F1" height="80.9766" id="QuestionRepository" rx="2.5" ry="2.5" style="stroke:#181818;stroke-width:0.5;" width="173" x="738" y="471.15"/><ellipse cx="755.7" cy="487.15" fill="#ADD1B2" rx="11" ry="11" style="stroke:#181818;stroke-width:1.0;"/><path d="M758.6731,492.7931 Q758.0921,493.0919 757.4529,493.2413 Q756.8138,493.3907 756.1082,493.3907 Q753.6014,493.3907 752.2815,491.7389 Q750.9617,490.087 750.9617,486.9659 Q750.9617,483.8365 752.2815,482.1847 Q753.6014,480.5328 756.1082,480.5328 Q756.8138,480.5328 757.4612,480.6822 Q758.1087,480.8316 758.6731,481.1305 L758.6731,483.8531 Q758.0423,483.2721 757.4488,483.0023 Q756.8553,482.7325 756.2244,482.7325 Q754.8797,482.7325 754.1949,483.7992 Q753.5101,484.8658 753.5101,486.9659 Q753.5101,489.0577 754.1949,490.1244 Q754.8797,491.191 756.2244,491.191 Q756.8553,491.191 757.4488,490.9212 Q758.0423,490.6515 758.6731,490.0704 Z " fill="#000000"/><text fill="#000000" font-family="sans-serif" font-size="14" lengthAdjust="spacing" textLength="135" x="770.3" y="492.441">QuestionRepository</text><line style="stroke:#181818;stroke-width:0.5;" x1="739" x2="910" y1="503.15" y2="503.15"/><line style="stroke:#181818;stroke-width:0.5;" x1="739" x2="910" y1="511.15" y2="511.15"/><ellipse cx="749" cy="524.8941" fill="#84BE84" rx="3" ry="3" style="stroke:#038048;stroke-width:1.0;"/><text fill="#000000" font-family="sans-serif" font-size="14" lengthAdjust="spacing" textLength="40" x="758" y="528.6852">save()</text><ellipse cx="749" cy="541.3824" fill="#84BE84" rx="3" ry="3" style="stroke:#038048;stroke-width:1.0;"/><text fill="#000000" font-family="sans-serif" font-size="14" lengthAdjust="spacing" textLength="147" x="758" y="545.1734">findByQuestionType()</text></g><!--class CourseRepository--><g id="elem_CourseRepository"><rect codeLine="59" fill="#F1F1F1" height="97.4648" id="CourseRepository" rx="2.5" ry="2.5" style="stroke:#181818;stroke-width:0.5;" width="160" x="945.5" y="653.35"/><ellipse cx="963.2" cy="669.35" fill="#ADD1B2" rx="11" ry="11" style="stroke:#181818;stroke-width:1.0;"/><path d="M966.1731,674.9931 Q965.5921,675.2919 964.9529,675.4413 Q964.3138,675.5907 963.6082,675.5907 Q961.1014,675.5907 959.7815,673.9389 Q958.4617,672.287 958.4617,669.1659 Q958.4617,666.0365 959.7815,664.3847 Q961.1014,662.7328 963.6082,662.7328 Q964.3138,662.7328 964.9612,662.8822 Q965.6087,663.0316 966.1731,663.3305 L966.1731,666.0531 Q965.5423,665.4721 964.9488,665.2023 Q964.3553,664.9325 963.7244,664.9325 Q962.3797,664.9325 961.6949,665.9992 Q961.0101,667.0658 961.0101,669.1659 Q961.0101,671.2577 961.6949,672.3244 Q962.3797,673.391 963.7244,673.391 Q964.3553,673.391 964.9488,673.1212 Q965.5423,672.8515 966.1731,672.2704 Z " fill="#000000"/><text fill="#000000" font-family="sans-serif" font-size="14" lengthAdjust="spacing" textLength="122" x="977.8" y="674.641">CourseRepository</text><line style="stroke:#181818;stroke-width:0.5;" x1="946.5" x2="1104.5" y1="685.35" y2="685.35"/><line style="stroke:#181818;stroke-width:0.5;" x1="946.5" x2="1104.5" y1="693.35" y2="693.35"/><ellipse cx="956.5" cy="707.0941" fill="#84BE84" rx="3" ry="3" style="stroke:#038048;stroke-width:1.0;"/><text fill="#000000" font-family="sans-serif" font-size="14" lengthAdjust="spacing" textLength="40" x="965.5" y="710.8852">save()</text><ellipse cx="956.5" cy="723.5824" fill="#84BE84" rx="3" ry="3" style="stroke:#038048;stroke-width:1.0;"/><text fill="#000000" font-family="sans-serif" font-size="14" lengthAdjust="spacing" textLength="134" x="965.5" y="727.3734">findByDesignation()</text><ellipse cx="956.5" cy="740.0707" fill="#84BE84" rx="3" ry="3" style="stroke:#038048;stroke-width:1.0;"/><text fill="#000000" font-family="sans-serif" font-size="14" lengthAdjust="spacing" textLength="111" x="965.5" y="743.8617">findAllCourses()</text></g><!--link Teacher to UpdateExamQuestionUI--><g id="link_Teacher_UpdateExamQuestionUI"><path codeLine="65" d="M663.97,55.39 C648.66,71.29 628.12,92.63 610.79,110.62 " fill="none" id="Teacher-to-UpdateExamQuestionUI" style="stroke:#181818;stroke-width:1.0;"/><polygon fill="#181818" points="607.92,113.65,617.0466,109.9479,611.3907,110.0508,611.2878,104.3949,607.92,113.65" style="stroke:#181818;stroke-width:1.0;"/></g><!--link UpdateExamQuestionUI to UpdateExamQuestionController--><g id="link_UpdateExamQuestionUI_UpdateExamQuestionController"><path codeLine="66" d="M571.04,179.7 C568.34,195.22 564.97,214.61 561.71,233.41 " fill="none" id="UpdateExamQuestionUI-to-UpdateExamQuestionController" style="stroke:#181818;stroke-width:1.0;"/><polygon fill="#181818" points="560.7,238.22,566.1599,230.0231,561.5428,233.2915,558.2743,228.6745,560.7,238.22" style="stroke:#181818;stroke-width:1.0;"/></g><!--link UpdateExamQuestionController to ListCoursesService--><g id="link_UpdateExamQuestionController_ListCoursesService"><path codeLine="67" d="M675.34,363.64 C681.11,365.85 686.85,367.96 692.5,369.93 C794.69,405.56 832.08,380.77 928.5,429.93 C947.41,439.57 965.9,453.47 981.58,467.03 " fill="none" id="UpdateExamQuestionController-to-ListCoursesService" style="stroke:#181818;stroke-width:1.0;"/><polygon fill="#181818" points="984.93,470.84,980.8076,461.8954,981.1733,467.5404,975.5283,467.9061,984.93,470.84" style="stroke:#181818;stroke-width:1.0;"/></g><!--link UpdateExamQuestionController to QuestionType--><g id="link_UpdateExamQuestionController_QuestionType"><path codeLine="68" d="M569.03,370.27 C574.97,389.89 581.56,411.68 587.74,432.11 " fill="none" id="UpdateExamQuestionController-to-QuestionType" style="stroke:#181818;stroke-width:1.0;"/><polygon fill="#181818" points="589.48,436.84,590.7118,427.0685,588.0367,432.0528,583.0523,429.3777,589.48,436.84" style="stroke:#181818;stroke-width:1.0;"/></g><!--link UpdateExamQuestionController to Question--><g id="link_UpdateExamQuestionController_Question"><path codeLine="69" d="M498.15,370.27 C484.39,387.57 469.29,406.56 454.76,424.82 " fill="none" id="UpdateExamQuestionController-to-Question" style="stroke:#181818;stroke-width:1.0;"/><polygon fill="#181818" points="451.08,428.44,459.8217,423.9031,454.2,424.5329,453.5703,418.9112,451.08,428.44" style="stroke:#181818;stroke-width:1.0;"/></g><!--link UpdateExamQuestionController to UpdateExamQuestionService--><g id="link_UpdateExamQuestionController_UpdateExamQuestionService"><path codeLine="70" d="M423.78,358.12 C375.06,379.3 319.16,404.69 269.5,429.93 C246.6,441.57 222.17,455.21 200.23,467.93 " fill="none" id="UpdateExamQuestionController-to-UpdateExamQuestionService" style="stroke:#181818;stroke-width:1.0;"/><polygon fill="#181818" points="196.3,470.8,206.0915,469.7384,200.6235,468.2886,202.0733,462.8207,196.3,470.8" style="stroke:#181818;stroke-width:1.0;"/></g><!--link UpdateExamQuestionController to QuestionRepository--><g id="link_UpdateExamQuestionController_QuestionRepository"><path codeLine="71" d="M639.53,370.29 C665.76,389.33 694.39,410.32 720.5,429.93 C736.45,441.91 753.62,455.1 769.32,467.29 " fill="none" id="UpdateExamQuestionController-to-QuestionRepository" style="stroke:#181818;stroke-width:1.0;"/><polygon fill="#181818" points="772.7,470.7,768.0581,462.0136,768.7555,467.6273,763.1419,468.3248,772.7,470.7" style="stroke:#181818;stroke-width:1.0;"/></g><!--link Teacher to AddExamQuestionUI--><g id="link_Teacher_AddExamQuestionUI"><path codeLine="73" d="M711.89,55.39 C729.15,71.29 752.31,92.63 771.84,110.62 " fill="none" id="Teacher-to-AddExamQuestionUI" style="stroke:#181818;stroke-width:1.0;"/><polygon fill="#181818" points="775.21,113.65,771.307,104.6075,771.5349,110.2598,765.8826,110.4877,775.21,113.65" style="stroke:#181818;stroke-width:1.0;"/></g><!--link AddExamQuestionUI to AddExamQuestionController--><g id="link_AddExamQuestionUI_AddExamQuestionController"><path codeLine="74" d="M813.33,179.7 C815.15,199.82 817.54,226.45 819.65,249.87 " fill="none" id="AddExamQuestionUI-to-AddExamQuestionController" style="stroke:#181818;stroke-width:1.0;"/><polygon fill="#181818" points="820.18,254.75,823.368,245.4314,819.7376,249.7696,815.3994,246.1392,820.18,254.75" style="stroke:#181818;stroke-width:1.0;"/></g><!--link AddExamQuestionController to QuestionType--><g id="link_AddExamQuestionController_QuestionType"><path codeLine="75" d="M774.56,353.75 C749.72,377.66 719.08,407.13 691.1,434.05 " fill="none" id="AddExamQuestionController-to-QuestionType" style="stroke:#181818;stroke-width:1.0;"/><polygon fill="#181818" points="687.99,437,697.2518,433.6505,691.5961,433.5365,691.7101,427.8807,687.99,437" style="stroke:#181818;stroke-width:1.0;"/></g><!--link AddExamQuestionController to ListCoursesService--><g id="link_AddExamQuestionController_ListCoursesService"><path codeLine="76" d="M871.63,353.75 C905.19,387.97 949.94,433.6 982.52,466.82 " fill="none" id="AddExamQuestionController-to-ListCoursesService" style="stroke:#181818;stroke-width:1.0;"/><polygon fill="#181818" points="985.44,469.81,981.9975,460.5824,981.9404,466.2389,976.2838,466.1818,985.44,469.81" style="stroke:#181818;stroke-width:1.0;"/></g><!--link AddExamQuestionController to Question--><g id="link_AddExamQuestionController_Question"><path codeLine="77" d="M729.72,353.87 C717.32,359.56 704.69,365.07 692.5,369.93 C610.24,402.72 581.97,390.86 502.5,429.93 C498.72,431.79 494.92,433.76 491.12,435.83 " fill="none" id="AddExamQuestionController-to-Question" style="stroke:#181818;stroke-width:1.0;"/><polygon fill="#181818" points="486.95,438.7,496.76,437.8258,491.3208,436.2718,492.8748,430.8326,486.95,438.7" style="stroke:#181818;stroke-width:1.0;"/></g><!--link AddExamQuestionController to QuestionRepository--><g id="link_AddExamQuestionController_QuestionRepository"><path codeLine="78" d="M824.5,353.75 C824.5,387.42 824.5,432.12 824.5,465.19 " fill="none" id="AddExamQuestionController-to-QuestionRepository" style="stroke:#181818;stroke-width:1.0;"/><polygon fill="#181818" points="824.5,469.81,828.5,460.81,824.5,464.81,820.5,460.81,824.5,469.81" style="stroke:#181818;stroke-width:1.0;"/></g><!--link ListCoursesService to CourseRepository--><g id="link_ListCoursesService_CourseRepository"><path codeLine="81" d="M1025.5,552.6 C1025.5,580.15 1025.5,617.09 1025.5,647.23 " fill="none" id="ListCoursesService-to-CourseRepository" style="stroke:#181818;stroke-width:1.0;"/><polygon fill="#181818" points="1025.5,652.16,1029.5,643.16,1025.5,647.16,1021.5,643.16,1025.5,652.16" style="stroke:#181818;stroke-width:1.0;"/></g><!--SRC=[hLJBReCm4BpxAtniLUKNAZd4RP18Q7ceHsI1arXoWDgG5bNzzpg00-5zA2SyEpkxEsO9EP4IUfI49of0M9vG5E5lSdxFgSnO4lic_05GFKzH8a_9ryCZ-0KrrKyZaj5PzXZPIE9C99nJePEEDBDJgWAva5IgP8qYpdMMLwHteJO-0A-BQm35KIMg6NdPZIQrXxAOpEe6N2ekBAJJtH7E6sJ2chxOJ8kacRcM7hwXVx0n57J43OrLoYlusKgleR0iKnyEZElNYCfGiFJAhgh0ripteyBvUzmqQbL_DCxFi9rKJxz3dh4rzw_LmRSyyyt2WR6rJGENcBkr7Iz0U_S3EoMmztVOCGraLM5iOSCBTgRhAfNWmtOsRXdm71y7ByXoSTyUXwQ9P5aY2dq7abnkOnnO7AsBpe0tZSgA9GhA0tQCIUt1BO0wNs2zpt2rUXvSKJ04AlBKXeAfeChjRyrSHjkEfTmvtkZMBItGtCAzZRsV8kWXYZQwc60qqZLYYZZWyHBTHQJsuA1VI36xd-aV]--></g></svg>