<?xml version="1.0" encoding="us-ascii" standalone="no"?><svg xmlns="http://www.w3.org/2000/svg" xmlns:xlink="http://www.w3.org/1999/xlink" contentStyleType="text/css" height="857px" preserveAspectRatio="none" style="width:1486px;height:857px;background:#FFFFFF;" version="1.1" viewBox="0 0 1486 857" width="1486px" zoomAndPan="magnify"><defs/><g><rect fill="#FFFFFF" height="88.6211" style="stroke:#181818;stroke-width:1.0;" width="10" x="231.5" y="112.7988"/><rect fill="#FFFFFF" height="29.3105" style="stroke:#181818;stroke-width:1.0;" width="10" x="231.5" y="348.6621"/><rect fill="#FFFFFF" height="87.9316" style="stroke:#181818;stroke-width:1.0;" width="10" x="231.5" y="407.2832"/><rect fill="#FFFFFF" height="29.3105" style="stroke:#181818;stroke-width:1.0;" width="10" x="231.5" y="524.5254"/><rect fill="#FFFFFF" height="184.8633" style="stroke:#181818;stroke-width:1.0;" width="10" x="231.5" y="583.1465"/><rect fill="#FFFFFF" height="206.5527" style="stroke:#181818;stroke-width:1.0;" width="10" x="653.5" y="142.1094"/><rect fill="#FFFFFF" height="177.2422" style="stroke:#181818;stroke-width:1.0;" width="10" x="658.5" y="171.4199"/><rect fill="#FFFFFF" height="331.416" style="stroke:#181818;stroke-width:1.0;" width="10" x="653.5" y="436.5938"/><rect fill="#FFFFFF" height="155.5527" style="stroke:#181818;stroke-width:1.0;" width="10" x="658.5" y="612.457"/><rect fill="#FFFFFF" height="88.6211" style="stroke:#181818;stroke-width:1.0;" width="10" x="843.5" y="230.7305"/><rect fill="#FFFFFF" height="29.3105" style="stroke:#181818;stroke-width:1.0;" width="10" x="1034.5" y="700.3887"/><rect fill="#FFFFFF" height="302.1055" style="stroke:#181818;stroke-width:1.0;" width="10" x="1137" y="465.9043"/><rect fill="#FFFFFF" height="29.3105" style="stroke:#181818;stroke-width:1.0;" width="10" x="1142" y="641.7676"/><rect fill="#FFFFFF" height="9" style="stroke:#181818;stroke-width:1.0;" width="10" x="1272" y="759.0098"/><rect fill="#FFFFFF" height="30" style="stroke:#181818;stroke-width:1.0;" width="10" x="1416.5" y="260.041"/><line style="stroke:#181818;stroke-width:0.5;stroke-dasharray:5.0,5.0;" x1="35" x2="35" y1="81.4883" y2="777.0098"/><line style="stroke:#181818;stroke-width:0.5;stroke-dasharray:5.0,5.0;" x1="236" x2="236" y1="81.4883" y2="777.0098"/><line style="stroke:#181818;stroke-width:0.5;stroke-dasharray:5.0,5.0;" x1="658" x2="658" y1="81.4883" y2="777.0098"/><line style="stroke:#181818;stroke-width:0.5;stroke-dasharray:5.0,5.0;" x1="848" x2="848" y1="81.4883" y2="777.0098"/><line style="stroke:#181818;stroke-width:0.5;stroke-dasharray:5.0,5.0;" x1="1039.5" x2="1039.5" y1="81.4883" y2="777.0098"/><line style="stroke:#181818;stroke-width:0.5;stroke-dasharray:5.0,5.0;" x1="1141.5" x2="1141.5" y1="81.4883" y2="777.0098"/><line style="stroke:#181818;stroke-width:0.5;stroke-dasharray:5.0,5.0;" x1="1276.5" x2="1276.5" y1="81.4883" y2="777.0098"/><line style="stroke:#181818;stroke-width:0.5;stroke-dasharray:5.0,5.0;" x1="1421.5" x2="1421.5" y1="81.4883" y2="777.0098"/><text fill="#000000" font-family="sans-serif" font-size="14" lengthAdjust="spacing" textLength="55" x="5" y="78.5352">Teacher</text><ellipse cx="35.5" cy="13.5" fill="#E2E2F0" rx="8" ry="8" style="stroke:#181818;stroke-width:0.5;"/><path d="M35.5,21.5 L35.5,48.5 M22.5,29.5 L48.5,29.5 M35.5,48.5 L22.5,63.5 M35.5,48.5 L48.5,63.5 " fill="none" style="stroke:#181818;stroke-width:0.5;"/><text fill="#000000" font-family="sans-serif" font-size="14" lengthAdjust="spacing" textLength="55" x="5" y="789.5449">Teacher</text><ellipse cx="35.5" cy="800.998" fill="#E2E2F0" rx="8" ry="8" style="stroke:#181818;stroke-width:0.5;"/><path d="M35.5,808.998 L35.5,835.998 M22.5,816.998 L48.5,816.998 M35.5,835.998 L22.5,850.998 M35.5,835.998 L48.5,850.998 " fill="none" style="stroke:#181818;stroke-width:0.5;"/><rect fill="#E2E2F0" height="30.4883" rx="2.5" ry="2.5" style="stroke:#181818;stroke-width:0.5;" width="163" x="155" y="50"/><text fill="#000000" font-family="sans-serif" font-size="14" lengthAdjust="spacing" textLength="149" x="162" y="70.5352">AddExamQuestionsUI</text><rect fill="#E2E2F0" height="30.4883" rx="2.5" ry="2.5" style="stroke:#181818;stroke-width:0.5;" width="163" x="155" y="776.0098"/><text fill="#000000" font-family="sans-serif" font-size="14" lengthAdjust="spacing" textLength="149" x="162" y="796.5449">AddExamQuestionsUI</text><rect fill="#E2E2F0" height="30.4883" rx="2.5" ry="2.5" style="stroke:#181818;stroke-width:0.5;" width="219" x="549" y="50"/><text fill="#000000" font-family="sans-serif" font-size="14" lengthAdjust="spacing" textLength="205" x="556" y="70.5352">AddExamQuestionsController</text><rect fill="#E2E2F0" height="30.4883" rx="2.5" ry="2.5" style="stroke:#181818;stroke-width:0.5;" width="219" x="549" y="776.0098"/><text fill="#000000" font-family="sans-serif" font-size="14" lengthAdjust="spacing" textLength="205" x="556" y="796.5449">AddExamQuestionsController</text><rect fill="#E2E2F0" height="30.4883" rx="2.5" ry="2.5" style="stroke:#181818;stroke-width:0.5;" width="141" x="778" y="50"/><text fill="#000000" font-family="sans-serif" font-size="14" lengthAdjust="spacing" textLength="127" x="785" y="70.5352">ListCoursesService</text><rect fill="#E2E2F0" height="30.4883" rx="2.5" ry="2.5" style="stroke:#181818;stroke-width:0.5;" width="141" x="778" y="776.0098"/><text fill="#000000" font-family="sans-serif" font-size="14" lengthAdjust="spacing" textLength="127" x="785" y="796.5449">ListCoursesService</text><rect fill="#E2E2F0" height="30.4883" rx="2.5" ry="2.5" style="stroke:#181818;stroke-width:0.5;" width="76" x="1001.5" y="50"/><text fill="#000000" font-family="sans-serif" font-size="14" lengthAdjust="spacing" textLength="62" x="1008.5" y="70.5352">Question</text><rect fill="#E2E2F0" height="30.4883" rx="2.5" ry="2.5" style="stroke:#181818;stroke-width:0.5;" width="76" x="1001.5" y="776.0098"/><text fill="#000000" font-family="sans-serif" font-size="14" lengthAdjust="spacing" textLength="62" x="1008.5" y="796.5449">Question</text><rect fill="#E2E2F0" height="30.4883" rx="2.5" ry="2.5" style="stroke:#181818;stroke-width:0.5;" width="109" x="1087.5" y="50"/><text fill="#000000" font-family="sans-serif" font-size="14" lengthAdjust="spacing" textLength="95" x="1094.5" y="70.5352">QuestionType</text><rect fill="#E2E2F0" height="30.4883" rx="2.5" ry="2.5" style="stroke:#181818;stroke-width:0.5;" width="109" x="1087.5" y="776.0098"/><text fill="#000000" font-family="sans-serif" font-size="14" lengthAdjust="spacing" textLength="95" x="1094.5" y="796.5449">QuestionType</text><text fill="#000000" font-family="sans-serif" font-size="14" lengthAdjust="spacing" textLength="135" x="1206.5" y="78.5352">QuestionRepository</text><path d="M1259,29 C1259,19 1277,19 1277,19 C1277,19 1295,19 1295,29 L1295,55 C1295,65 1277,65 1277,65 C1277,65 1259,65 1259,55 L1259,29 " fill="#E2E2F0" style="stroke:#181818;stroke-width:1.5;"/><path d="M1259,29 C1259,39 1277,39 1277,39 C1277,39 1295,39 1295,29 " fill="none" style="stroke:#181818;stroke-width:1.5;"/><text fill="#000000" font-family="sans-serif" font-size="14" lengthAdjust="spacing" textLength="135" x="1206.5" y="789.5449">QuestionRepository</text><path d="M1259,802.498 C1259,792.498 1277,792.498 1277,792.498 C1277,792.498 1295,792.498 1295,802.498 L1295,828.498 C1295,838.498 1277,838.498 1277,838.498 C1277,838.498 1259,838.498 1259,828.498 L1259,802.498 " fill="#E2E2F0" style="stroke:#181818;stroke-width:1.5;"/><path d="M1259,802.498 C1259,812.498 1277,812.498 1277,812.498 C1277,812.498 1295,812.498 1295,802.498 " fill="none" style="stroke:#181818;stroke-width:1.5;"/><text fill="#000000" font-family="sans-serif" font-size="14" lengthAdjust="spacing" textLength="122" x="1357.5" y="78.5352">CourseRepository</text><path d="M1403.5,29 C1403.5,19 1421.5,19 1421.5,19 C1421.5,19 1439.5,19 1439.5,29 L1439.5,55 C1439.5,65 1421.5,65 1421.5,65 C1421.5,65 1403.5,65 1403.5,55 L1403.5,29 " fill="#E2E2F0" style="stroke:#181818;stroke-width:1.5;"/><path d="M1403.5,29 C1403.5,39 1421.5,39 1421.5,39 C1421.5,39 1439.5,39 1439.5,29 " fill="none" style="stroke:#181818;stroke-width:1.5;"/><text fill="#000000" font-family="sans-serif" font-size="14" lengthAdjust="spacing" textLength="122" x="1357.5" y="789.5449">CourseRepository</text><path d="M1403.5,802.498 C1403.5,792.498 1421.5,792.498 1421.5,792.498 C1421.5,792.498 1439.5,792.498 1439.5,802.498 L1439.5,828.498 C1439.5,838.498 1421.5,838.498 1421.5,838.498 C1421.5,838.498 1403.5,838.498 1403.5,828.498 L1403.5,802.498 " fill="#E2E2F0" style="stroke:#181818;stroke-width:1.5;"/><path d="M1403.5,802.498 C1403.5,812.498 1421.5,812.498 1421.5,812.498 C1421.5,812.498 1439.5,812.498 1439.5,802.498 " fill="none" style="stroke:#181818;stroke-width:1.5;"/><rect fill="#FFFFFF" height="88.6211" style="stroke:#181818;stroke-width:1.0;" width="10" x="231.5" y="112.7988"/><rect fill="#FFFFFF" height="29.3105" style="stroke:#181818;stroke-width:1.0;" width="10" x="231.5" y="348.6621"/><rect fill="#FFFFFF" height="87.9316" style="stroke:#181818;stroke-width:1.0;" width="10" x="231.5" y="407.2832"/><rect fill="#FFFFFF" height="29.3105" style="stroke:#181818;stroke-width:1.0;" width="10" x="231.5" y="524.5254"/><rect fill="#FFFFFF" height="184.8633" style="stroke:#181818;stroke-width:1.0;" width="10" x="231.5" y="583.1465"/><rect fill="#FFFFFF" height="206.5527" style="stroke:#181818;stroke-width:1.0;" width="10" x="653.5" y="142.1094"/><rect fill="#FFFFFF" height="177.2422" style="stroke:#181818;stroke-width:1.0;" width="10" x="658.5" y="171.4199"/><rect fill="#FFFFFF" height="331.416" style="stroke:#181818;stroke-width:1.0;" width="10" x="653.5" y="436.5938"/><rect fill="#FFFFFF" height="155.5527" style="stroke:#181818;stroke-width:1.0;" width="10" x="658.5" y="612.457"/><rect fill="#FFFFFF" height="88.6211" style="stroke:#181818;stroke-width:1.0;" width="10" x="843.5" y="230.7305"/><rect fill="#FFFFFF" height="29.3105" style="stroke:#181818;stroke-width:1.0;" width="10" x="1034.5" y="700.3887"/><rect fill="#FFFFFF" height="302.1055" style="stroke:#181818;stroke-width:1.0;" width="10" x="1137" y="465.9043"/><rect fill="#FFFFFF" height="29.3105" style="stroke:#181818;stroke-width:1.0;" width="10" x="1142" y="641.7676"/><rect fill="#FFFFFF" height="9" style="stroke:#181818;stroke-width:1.0;" width="10" x="1272" y="759.0098"/><rect fill="#FFFFFF" height="30" style="stroke:#181818;stroke-width:1.0;" width="10" x="1416.5" y="260.041"/><polygon fill="#181818" points="219.5,108.7988,229.5,112.7988,219.5,116.7988,223.5,112.7988" style="stroke:#181818;stroke-width:1.0;"/><line style="stroke:#181818;stroke-width:1.0;" x1="35.5" x2="225.5" y1="112.7988" y2="112.7988"/><text fill="#000000" font-family="sans-serif" font-size="13" lengthAdjust="spacing" textLength="93" x="42.5" y="108.0566">add a question</text><polygon fill="#181818" points="641.5,138.1094,651.5,142.1094,641.5,146.1094,645.5,142.1094" style="stroke:#181818;stroke-width:1.0;"/><line style="stroke:#181818;stroke-width:1.0;" x1="241.5" x2="647.5" y1="142.1094" y2="142.1094"/><text fill="#000000" font-family="sans-serif" font-size="13" lengthAdjust="spacing" textLength="38" x="248.5" y="137.3672">create</text><polygon fill="#181818" points="646.5,167.4199,656.5,171.4199,646.5,175.4199,650.5,171.4199" style="stroke:#181818;stroke-width:1.0;"/><line style="stroke:#181818;stroke-width:1.0;" x1="241.5" x2="652.5" y1="171.4199" y2="171.4199"/><text fill="#000000" font-family="sans-serif" font-size="13" lengthAdjust="spacing" textLength="112" x="248.5" y="166.6777">getOpenCourses()</text><polygon fill="#181818" points="831.5,226.7305,841.5,230.7305,831.5,234.7305,835.5,230.7305" style="stroke:#181818;stroke-width:1.0;"/><line style="stroke:#181818;stroke-width:1.0;" x1="668.5" x2="837.5" y1="230.7305" y2="230.7305"/><text fill="#000000" font-family="sans-serif" font-size="13" lengthAdjust="spacing" textLength="112" x="675.5" y="225.9883">getOpenCourses()</text><polygon fill="#181818" points="1404.5,256.041,1414.5,260.041,1404.5,264.041,1408.5,260.041" style="stroke:#181818;stroke-width:1.0;"/><line style="stroke:#181818;stroke-width:1.0;" x1="853.5" x2="1410.5" y1="260.041" y2="260.041"/><text fill="#000000" font-family="sans-serif" font-size="13" lengthAdjust="spacing" textLength="45" x="860.5" y="255.2988">getAll()</text><polygon fill="#181818" points="679.5,315.3516,669.5,319.3516,679.5,323.3516,675.5,319.3516" style="stroke:#181818;stroke-width:1.0;"/><line style="stroke:#181818;stroke-width:1.0;stroke-dasharray:2.0,2.0;" x1="673.5" x2="847.5" y1="319.3516" y2="319.3516"/><text fill="#000000" font-family="sans-serif" font-size="13" lengthAdjust="spacing" textLength="119" x="685.5" y="314.6094">listOfOpenCourses</text><polygon fill="#181818" points="252.5,344.6621,242.5,348.6621,252.5,352.6621,248.5,348.6621" style="stroke:#181818;stroke-width:1.0;"/><line style="stroke:#181818;stroke-width:1.0;stroke-dasharray:2.0,2.0;" x1="246.5" x2="657.5" y1="348.6621" y2="348.6621"/><text fill="#000000" font-family="sans-serif" font-size="13" lengthAdjust="spacing" textLength="119" x="258.5" y="343.9199">listOfOpenCourses</text><polygon fill="#181818" points="46.5,373.9727,36.5,377.9727,46.5,381.9727,42.5,377.9727" style="stroke:#181818;stroke-width:1.0;"/><line style="stroke:#181818;stroke-width:1.0;stroke-dasharray:2.0,2.0;" x1="40.5" x2="235.5" y1="377.9727" y2="377.9727"/><text fill="#000000" font-family="sans-serif" font-size="13" lengthAdjust="spacing" textLength="169" x="52.5" y="373.2305">Shows list of open courses</text><polygon fill="#181818" points="219.5,403.2832,229.5,407.2832,219.5,411.2832,223.5,407.2832" style="stroke:#181818;stroke-width:1.0;"/><line style="stroke:#181818;stroke-width:1.0;" x1="35.5" x2="225.5" y1="407.2832" y2="407.2832"/><text fill="#000000" font-family="sans-serif" font-size="13" lengthAdjust="spacing" textLength="93" x="42.5" y="402.541">Choose course</text><polygon fill="#181818" points="641.5,432.5938,651.5,436.5938,641.5,440.5938,645.5,436.5938" style="stroke:#181818;stroke-width:1.0;"/><line style="stroke:#181818;stroke-width:1.0;" x1="241.5" x2="647.5" y1="436.5938" y2="436.5938"/><text fill="#000000" font-family="sans-serif" font-size="13" lengthAdjust="spacing" textLength="139" x="248.5" y="431.8516">getAllQuestionTypes()</text><polygon fill="#181818" points="1125,461.9043,1135,465.9043,1125,469.9043,1129,465.9043" style="stroke:#181818;stroke-width:1.0;"/><line style="stroke:#181818;stroke-width:1.0;" x1="663.5" x2="1131" y1="465.9043" y2="465.9043"/><text fill="#000000" font-family="sans-serif" font-size="13" lengthAdjust="spacing" textLength="139" x="670.5" y="461.1621">getAllQuestionTypes()</text><polygon fill="#181818" points="46.5,491.2148,36.5,495.2148,46.5,499.2148,42.5,495.2148" style="stroke:#181818;stroke-width:1.0;"/><line style="stroke:#181818;stroke-width:1.0;stroke-dasharray:2.0,2.0;" x1="40.5" x2="235.5" y1="495.2148" y2="495.2148"/><text fill="#000000" font-family="sans-serif" font-size="13" lengthAdjust="spacing" textLength="137" x="52.5" y="490.4727">Shows question types</text><polygon fill="#181818" points="219.5,520.5254,229.5,524.5254,219.5,528.5254,223.5,524.5254" style="stroke:#181818;stroke-width:1.0;"/><line style="stroke:#181818;stroke-width:1.0;" x1="35.5" x2="225.5" y1="524.5254" y2="524.5254"/><text fill="#000000" font-family="sans-serif" font-size="13" lengthAdjust="spacing" textLength="128" x="42.5" y="519.7832">questionTypeOption</text><polygon fill="#181818" points="46.5,549.8359,36.5,553.8359,46.5,557.8359,42.5,553.8359" style="stroke:#181818;stroke-width:1.0;"/><line style="stroke:#181818;stroke-width:1.0;stroke-dasharray:2.0,2.0;" x1="40.5" x2="235.5" y1="553.8359" y2="553.8359"/><text fill="#000000" font-family="sans-serif" font-size="13" lengthAdjust="spacing" textLength="172" x="52.5" y="549.0938">Ask for description and file</text><polygon fill="#181818" points="219.5,579.1465,229.5,583.1465,219.5,587.1465,223.5,583.1465" style="stroke:#181818;stroke-width:1.0;"/><line style="stroke:#181818;stroke-width:1.0;" x1="35.5" x2="225.5" y1="583.1465" y2="583.1465"/><text fill="#000000" font-family="sans-serif" font-size="13" lengthAdjust="spacing" textLength="169" x="42.5" y="578.4043">Inserts description and file</text><polygon fill="#181818" points="646.5,608.457,656.5,612.457,646.5,616.457,650.5,612.457" style="stroke:#181818;stroke-width:1.0;"/><line style="stroke:#181818;stroke-width:1.0;" x1="241.5" x2="652.5" y1="612.457" y2="612.457"/><text fill="#000000" font-family="sans-serif" font-size="13" lengthAdjust="spacing" textLength="388" x="248.5" y="607.7148">createQuestion(file, questionTypeOption, course, description)</text><polygon fill="#181818" points="1130,637.7676,1140,641.7676,1130,645.7676,1134,641.7676" style="stroke:#181818;stroke-width:1.0;"/><line style="stroke:#181818;stroke-width:1.0;" x1="668.5" x2="1136" y1="641.7676" y2="641.7676"/><text fill="#000000" font-family="sans-serif" font-size="13" lengthAdjust="spacing" textLength="243" x="675.5" y="637.0254">getQuestionType(questionTypeOption)</text><polygon fill="#181818" points="679.5,667.0781,669.5,671.0781,679.5,675.0781,675.5,671.0781" style="stroke:#181818;stroke-width:1.0;"/><line style="stroke:#181818;stroke-width:1.0;stroke-dasharray:2.0,2.0;" x1="673.5" x2="1136" y1="671.0781" y2="671.0781"/><text fill="#000000" font-family="sans-serif" font-size="13" lengthAdjust="spacing" textLength="87" x="685.5" y="666.3359">QuestionType</text><polygon fill="#181818" points="1022.5,696.3887,1032.5,700.3887,1022.5,704.3887,1026.5,700.3887" style="stroke:#181818;stroke-width:1.0;"/><line style="stroke:#181818;stroke-width:1.0;" x1="668.5" x2="1028.5" y1="700.3887" y2="700.3887"/><text fill="#000000" font-family="sans-serif" font-size="13" lengthAdjust="spacing" textLength="347" x="675.5" y="695.6465">createQuestion(file, QuestionType, course, description)</text><polygon fill="#181818" points="679.5,725.6992,669.5,729.6992,679.5,733.6992,675.5,729.6992" style="stroke:#181818;stroke-width:1.0;"/><line style="stroke:#181818;stroke-width:1.0;stroke-dasharray:2.0,2.0;" x1="673.5" x2="1038.5" y1="729.6992" y2="729.6992"/><text fill="#000000" font-family="sans-serif" font-size="13" lengthAdjust="spacing" textLength="55" x="685.5" y="724.957">question</text><polygon fill="#181818" points="1260,755.0098,1270,759.0098,1260,763.0098,1264,759.0098" style="stroke:#181818;stroke-width:1.0;"/><line style="stroke:#181818;stroke-width:1.0;" x1="668.5" x2="1266" y1="759.0098" y2="759.0098"/><text fill="#000000" font-family="sans-serif" font-size="13" lengthAdjust="spacing" textLength="91" x="675.5" y="754.2676">save(question)</text><!--SRC=[VL91Ri8m4Bpx5IjE894Fv109MJr4geIIc0UuyLAifd6m3Is_xpfEYYdGexqpipDZovCtilNwB3s2wHcZWx4WKBO7j20T23P8wtMh1zbxM6oKUlcMdzK9dTUcTxjo4L2xydyODxstfklGZl2Aty9VjVFSdAn3rw0zwnP7M7EBcjMYnEEPk0oHMmccf9Tlqk5rMkDWdAQ4buYf4qpS_mV1QyQOWAoWX3b8fK32SH9Zkp8CAfv3Qv4Af8kieECx-ks0_HHekM8AVpkceYgU5SqzgCaANeVhJTVTSiX4autA7VMqtISy5jIoWipTZn85wZjrG3wpGkJG7CoNWy04imT3N6WdiXX5WH-CeNBYRPAFFAQD1_yXLYMU3AUDSU5S8FWmdLST4yfsc0gEFZVk0_RqBHMwrkfn1h9NiDSTplIoTsYzUuoPdKyFDRjRXk7wmURrb7YTogKHqtpBUpv1HNon51ZvJqoam6Vhe-Jr0uvwTUxa-MfYnNu0]--></g></svg>