<?xml version="1.0" encoding="UTF-8" standalone="no"?><svg xmlns="http://www.w3.org/2000/svg" xmlns:xlink="http://www.w3.org/1999/xlink" contentStyleType="text/css" height="970px" preserveAspectRatio="none" style="width:374px;height:970px;background:#FFFFFF;" version="1.1" viewBox="0 0 374 970" width="374px" zoomAndPan="magnify"><defs/><g><!--entity Teacher--><g id="elem_Teacher"><ellipse cx="187.33" cy="14" fill="#F1F1F1" rx="8" ry="8" style="stroke:#181818;stroke-width:0.5;"/><path d="M187.33,22 L187.33,49 M174.33,30 L200.33,30 M187.33,49 L174.33,64 M187.33,49 L200.33,64 " fill="none" style="stroke:#181818;stroke-width:0.5;"/><text fill="#000000" font-family="sans-serif" font-size="14" lengthAdjust="spacing" textLength="55" x="159.83" y="79.0352">Teacher</text></g><g id="elem_Authenticates to the system"><ellipse cx="187.325" cy="166.705" fill="#F1F1F1" rx="111.625" ry="24.725" style="stroke:#181818;stroke-width:0.5;"/><text fill="#000000" font-family="sans-serif" font-size="14" lengthAdjust="spacing" textLength="189" x="92.825" y="169.996">Authenticates to the system</text></g><g id="elem_Select the option Recurring Lesson"><ellipse cx="187.3265" cy="280.6693" fill="#F1F1F1" rx="134.1465" ry="29.2293" style="stroke:#181818;stroke-width:0.5;"/><text fill="#000000" font-family="sans-serif" font-size="14" lengthAdjust="spacing" textLength="237" x="68.8265" y="283.9603">Select the option Recurring Lesson</text></g><g id="elem_Chooses the option to Create a Recurring Lesson"><ellipse cx="187.3295" cy="408.5559" fill="#F1F1F1" rx="181.3295" ry="38.6659" style="stroke:#181818;stroke-width:0.5;"/><text fill="#000000" font-family="sans-serif" font-size="14" lengthAdjust="spacing" textLength="335" x="19.8295" y="411.8469">Chooses the option to Create a Recurring Lesson</text></g><g id="elem_Inputs the Lesson Title"><ellipse cx="187.3323" cy="528.7645" fill="#F1F1F1" rx="95.6723" ry="21.5345" style="stroke:#181818;stroke-width:0.5;"/><text fill="#000000" font-family="sans-serif" font-size="14" lengthAdjust="spacing" textLength="154" x="110.3323" y="532.0555">Inputs the Lesson Title</text></g><g id="elem_Inputs the Lesson Start date"><ellipse cx="187.3278" cy="635.1076" fill="#F1F1F1" rx="112.0878" ry="24.8176" style="stroke:#181818;stroke-width:0.5;"/><text fill="#000000" font-family="sans-serif" font-size="14" lengthAdjust="spacing" textLength="190" x="92.3278" y="638.3986">Inputs the Lesson Start date</text></g><g id="elem_Inputs the end Date"><ellipse cx="187.334" cy="739.6968" fill="#F1F1F1" rx="86.834" ry="19.7668" style="stroke:#181818;stroke-width:0.5;"/><text fill="#000000" font-family="sans-serif" font-size="14" lengthAdjust="spacing" textLength="134" x="120.334" y="742.9878">Inputs the end Date</text></g><g id="elem_Inputs the duration of the lesson"><ellipse cx="187.3326" cy="847.4585" fill="#F1F1F1" rx="127.9926" ry="27.9985" style="stroke:#181818;stroke-width:0.5;"/><text fill="#000000" font-family="sans-serif" font-size="14" lengthAdjust="spacing" textLength="224" x="75.3326" y="850.7495">Inputs the duration of the lesson</text></g><g id="elem_save"><ellipse cx="187.3285" cy="950.119" fill="#F1F1F1" rx="32.6985" ry="14.659" style="stroke:#181818;stroke-width:0.5;"/><text fill="#000000" font-family="sans-serif" font-size="14" lengthAdjust="spacing" textLength="30" x="172.3285" y="953.41">save</text></g><!--link Teacher to Authenticates to the system--><g id="link_Teacher_Authenticates to the system"><path d="M187.33,82.36 C187.33,99.65 187.33,119.87 187.33,136.07 " fill="none" id="Teacher-to-Authenticates to the system" style="stroke:#181818;stroke-width:1.0;"/><polygon fill="#181818" points="187.33,140.84,191.33,131.84,187.33,135.84,183.33,131.84,187.33,140.84" style="stroke:#181818;stroke-width:1.0;"/></g><!--link Authenticates to the system to Select the option Recurring Lesson--><g id="link_Authenticates to the system_Select the option Recurring Lesson"><path d="M187.33,191.73 C187.33,207.43 187.33,228.18 187.33,245.57 " fill="none" id="Authenticates to the system-to-Select the option Recurring Lesson" style="stroke:#181818;stroke-width:1.0;"/><polygon fill="#181818" points="187.33,250.33,191.33,241.33,187.33,245.33,183.33,241.33,187.33,250.33" style="stroke:#181818;stroke-width:1.0;"/></g><!--link Select the option Recurring Lesson to Chooses the option to Create a Recurring Lesson--><g id="link_Select the option Recurring Lesson_Chooses the option to Create a Recurring Lesson"><path d="M187.33,310.23 C187.33,326.01 187.33,345.94 187.33,363.64 " fill="none" id="Select the option Recurring Lesson-to-Chooses the option to Create a Recurring Lesson" style="stroke:#181818;stroke-width:1.0;"/><polygon fill="#181818" points="187.33,368.56,191.33,359.56,187.33,363.56,183.33,359.56,187.33,368.56" style="stroke:#181818;stroke-width:1.0;"/></g><!--link Chooses the option to Create a Recurring Lesson to Inputs the Lesson Title--><g id="link_Chooses the option to Create a Recurring Lesson_Inputs the Lesson Title"><path d="M187.33,447.61 C187.33,465.16 187.33,485.56 187.33,501.39 " fill="none" id="Chooses the option to Create a Recurring Lesson-to-Inputs the Lesson Title" style="stroke:#181818;stroke-width:1.0;"/><polygon fill="#181818" points="187.33,506,191.33,497,187.33,501,183.33,497,187.33,506" style="stroke:#181818;stroke-width:1.0;"/></g><!--link Inputs the Lesson Title to Inputs the Lesson Start date--><g id="link_Inputs the Lesson Title_Inputs the Lesson Start date"><path d="M187.33,550.63 C187.33,566.02 187.33,587.17 187.33,604.34 " fill="none" id="Inputs the Lesson Title-to-Inputs the Lesson Start date" style="stroke:#181818;stroke-width:1.0;"/><polygon fill="#181818" points="187.33,608.99,191.33,599.99,187.33,603.99,183.33,599.99,187.33,608.99" style="stroke:#181818;stroke-width:1.0;"/></g><!--link Inputs the Lesson Start date to Inputs the end Date--><g id="link_Inputs the Lesson Start date_Inputs the end Date"><path d="M187.33,660.42 C187.33,676.57 187.33,697.71 187.33,713.94 " fill="none" id="Inputs the Lesson Start date-to-Inputs the end Date" style="stroke:#181818;stroke-width:1.0;"/><polygon fill="#181818" points="187.33,718.69,191.33,709.69,187.33,713.69,183.33,709.69,187.33,718.69" style="stroke:#181818;stroke-width:1.0;"/></g><!--link Inputs the end Date to Inputs the duration of the lesson--><g id="link_Inputs the end Date_Inputs the duration of the lesson"><path d="M187.33,759.61 C187.33,774.45 187.33,795.48 187.33,813.13 " fill="none" id="Inputs the end Date-to-Inputs the duration of the lesson" style="stroke:#181818;stroke-width:1.0;"/><polygon fill="#181818" points="187.33,817.97,191.33,808.97,187.33,812.97,183.33,808.97,187.33,817.97" style="stroke:#181818;stroke-width:1.0;"/></g><!--link Inputs the duration of the lesson to save--><g id="link_Inputs the duration of the lesson_save"><path d="M187.33,875.7 C187.33,892.66 187.33,914.09 187.33,929.42 " fill="none" id="Inputs the duration of the lesson-to-save" style="stroke:#181818;stroke-width:1.0;"/><polygon fill="#181818" points="187.33,934.17,191.33,925.17,187.33,929.17,183.33,925.17,187.33,934.17" style="stroke:#181818;stroke-width:1.0;"/></g><!--SRC=[bP31Ri8m38RlVGhVs0wbznsG9dQPj1Fb1Qp4q4XfNCKEQ6-_jAa02Ses7wBO-V_lJxBgL0TvQvh1Oz3K-xNXlab2jS6yM8V7Y7qr5Xhb27j2qr6i8DUyXzhoETGRU7bFsb5GPr19G1bo2_8jIlthv7YgW7fajEJ9w3JdGHq7s959CRfmX2yIuJ2Z_Y0in6t7B6FQLPc3jv7o7G2NyFzrbQpFC2GjfZA7lLDFCtFfTCdRAaO5cnCN0JUIEme52nyFpPUJEuzD4QV7yc7g_UsV_AuhFC5J3gr-0000]--></g></svg>