<?xml version="1.0" encoding="UTF-8" standalone="no"?><svg xmlns="http://www.w3.org/2000/svg" xmlns:xlink="http://www.w3.org/1999/xlink" contentStyleType="text/css" height="733px" preserveAspectRatio="none" style="width:584px;height:733px;background:#FFFFFF;" version="1.1" viewBox="0 0 584 733" width="584px" zoomAndPan="magnify"><defs/><g><!--class RecurringLessonUI--><g id="elem_RecurringLessonUI"><rect codeLine="2" fill="#F1F1F1" height="64.4883" id="RecurringLessonUI" rx="2.5" ry="2.5" style="stroke:#181818;stroke-width:0.5;" width="160" x="214" y="7"/><ellipse cx="229" cy="23" fill="#ADD1B2" rx="11" ry="11" style="stroke:#181818;stroke-width:1.0;"/><path d="M231.9731,28.6431 Q231.3921,28.9419 230.7529,29.0913 Q230.1138,29.2407 229.4082,29.2407 Q226.9014,29.2407 225.5815,27.5889 Q224.2617,25.937 224.2617,22.8159 Q224.2617,19.6865 225.5815,18.0347 Q226.9014,16.3828 229.4082,16.3828 Q230.1138,16.3828 230.7612,16.5322 Q231.4087,16.6816 231.9731,16.9805 L231.9731,19.7031 Q231.3423,19.1221 230.7488,18.8523 Q230.1553,18.5825 229.5244,18.5825 Q228.1797,18.5825 227.4949,19.6492 Q226.8101,20.7158 226.8101,22.8159 Q226.8101,24.9077 227.4949,25.9744 Q228.1797,27.041 229.5244,27.041 Q230.1553,27.041 230.7488,26.7712 Q231.3423,26.5015 231.9731,25.9204 Z " fill="#000000"/><text fill="#000000" font-family="sans-serif" font-size="14" lengthAdjust="spacing" textLength="128" x="243" y="28.291">RecurringLessonUI</text><line style="stroke:#181818;stroke-width:0.5;" x1="215" x2="373" y1="39" y2="39"/><line style="stroke:#181818;stroke-width:0.5;" x1="215" x2="373" y1="47" y2="47"/><ellipse cx="225" cy="60.7441" fill="#84BE84" rx="3" ry="3" style="stroke:#038048;stroke-width:1.0;"/><text fill="#000000" font-family="sans-serif" font-size="14" lengthAdjust="spacing" textLength="65" x="234" y="64.5352">doShow()</text></g><!--class CreateRecurringLessonController--><g id="elem_CreateRecurringLessonController"><rect codeLine="6" fill="#F1F1F1" height="64.4883" id="CreateRecurringLessonController" rx="2.5" ry="2.5" style="stroke:#181818;stroke-width:0.5;" width="261" x="163.5" y="131.49"/><ellipse cx="178.5" cy="147.49" fill="#ADD1B2" rx="11" ry="11" style="stroke:#181818;stroke-width:1.0;"/><path d="M181.4731,153.1331 Q180.8921,153.4319 180.2529,153.5813 Q179.6138,153.7307 178.9082,153.7307 Q176.4014,153.7307 175.0815,152.0789 Q173.7617,150.427 173.7617,147.3059 Q173.7617,144.1765 175.0815,142.5247 Q176.4014,140.8728 178.9082,140.8728 Q179.6138,140.8728 180.2612,141.0222 Q180.9087,141.1716 181.4731,141.4705 L181.4731,144.1931 Q180.8423,143.6121 180.2488,143.3423 Q179.6553,143.0725 179.0244,143.0725 Q177.6797,143.0725 176.9949,144.1392 Q176.3101,145.2058 176.3101,147.3059 Q176.3101,149.3977 176.9949,150.4644 Q177.6797,151.531 179.0244,151.531 Q179.6553,151.531 180.2488,151.2612 Q180.8423,150.9915 181.4731,150.4104 Z " fill="#000000"/><text fill="#000000" font-family="sans-serif" font-size="14" lengthAdjust="spacing" textLength="229" x="192.5" y="152.781">CreateRecurringLessonController</text><line style="stroke:#181818;stroke-width:0.5;" x1="164.5" x2="423.5" y1="163.49" y2="163.49"/><line style="stroke:#181818;stroke-width:0.5;" x1="164.5" x2="423.5" y1="171.49" y2="171.49"/><ellipse cx="174.5" cy="185.2341" fill="#84BE84" rx="3" ry="3" style="stroke:#038048;stroke-width:1.0;"/><text fill="#000000" font-family="sans-serif" font-size="14" lengthAdjust="spacing" textLength="166" x="183.5" y="189.0252">createRecurringLesson()</text></g><!--class RecurringLesson--><g id="elem_RecurringLesson"><rect codeLine="10" fill="#F1F1F1" height="48" id="RecurringLesson" rx="2.5" ry="2.5" style="stroke:#181818;stroke-width:0.5;" width="146" x="7" y="280.71"/><ellipse cx="22" cy="296.71" fill="#ADD1B2" rx="11" ry="11" style="stroke:#181818;stroke-width:1.0;"/><path d="M24.9731,302.3531 Q24.3921,302.6519 23.7529,302.8013 Q23.1138,302.9507 22.4082,302.9507 Q19.9014,302.9507 18.5815,301.2989 Q17.2617,299.647 17.2617,296.5259 Q17.2617,293.3965 18.5815,291.7447 Q19.9014,290.0928 22.4082,290.0928 Q23.1138,290.0928 23.7612,290.2422 Q24.4087,290.3916 24.9731,290.6905 L24.9731,293.4131 Q24.3423,292.8321 23.7488,292.5623 Q23.1553,292.2925 22.5244,292.2925 Q21.1797,292.2925 20.4949,293.3592 Q19.8101,294.4258 19.8101,296.5259 Q19.8101,298.6177 20.4949,299.6844 Q21.1797,300.751 22.5244,300.751 Q23.1553,300.751 23.7488,300.4812 Q24.3423,300.2115 24.9731,299.6304 Z " fill="#000000"/><text fill="#000000" font-family="sans-serif" font-size="14" lengthAdjust="spacing" textLength="114" x="36" y="302.001">RecurringLesson</text><line style="stroke:#181818;stroke-width:0.5;" x1="8" x2="152" y1="312.71" y2="312.71"/><line style="stroke:#181818;stroke-width:0.5;" x1="8" x2="152" y1="320.71" y2="320.71"/></g><!--class ScheduleLessonService--><g id="elem_ScheduleLessonService"><rect codeLine="13" fill="#F1F1F1" height="97.4648" id="ScheduleLessonService" rx="2.5" ry="2.5" style="stroke:#181818;stroke-width:0.5;" width="212" x="188" y="255.98"/><ellipse cx="213.35" cy="271.98" fill="#ADD1B2" rx="11" ry="11" style="stroke:#181818;stroke-width:1.0;"/><path d="M216.3231,277.6231 Q215.7421,277.9219 215.1029,278.0713 Q214.4638,278.2207 213.7582,278.2207 Q211.2514,278.2207 209.9315,276.5689 Q208.6117,274.917 208.6117,271.7959 Q208.6117,268.6665 209.9315,267.0147 Q211.2514,265.3628 213.7582,265.3628 Q214.4638,265.3628 215.1112,265.5122 Q215.7587,265.6616 216.3231,265.9605 L216.3231,268.6831 Q215.6923,268.1021 215.0988,267.8323 Q214.5053,267.5625 213.8744,267.5625 Q212.5297,267.5625 211.8449,268.6292 Q211.1601,269.6958 211.1601,271.7959 Q211.1601,273.8877 211.8449,274.9544 Q212.5297,276.021 213.8744,276.021 Q214.5053,276.021 215.0988,275.7512 Q215.6923,275.4815 216.3231,274.9004 Z " fill="#000000"/><text fill="#000000" font-family="sans-serif" font-size="14" lengthAdjust="spacing" textLength="157" x="229.65" y="277.271">ScheduleLessonService</text><line style="stroke:#181818;stroke-width:0.5;" x1="189" x2="399" y1="287.98" y2="287.98"/><line style="stroke:#181818;stroke-width:0.5;" x1="189" x2="399" y1="295.98" y2="295.98"/><ellipse cx="199" cy="309.7241" fill="#84BE84" rx="3" ry="3" style="stroke:#038048;stroke-width:1.0;"/><text fill="#000000" font-family="sans-serif" font-size="14" lengthAdjust="spacing" textLength="134" x="208" y="313.5152">PropagateLessons()</text><ellipse cx="199" cy="326.2124" fill="#84BE84" rx="3" ry="3" style="stroke:#038048;stroke-width:1.0;"/><text fill="#000000" font-family="sans-serif" font-size="14" lengthAdjust="spacing" textLength="186" x="208" y="330.0034">ValidateRecurringLessons()</text><ellipse cx="199" cy="342.7007" fill="#84BE84" rx="3" ry="3" style="stroke:#038048;stroke-width:1.0;"/><text fill="#000000" font-family="sans-serif" font-size="14" lengthAdjust="spacing" textLength="147" x="208" y="346.4917">allRecurringLessons()</text></g><!--class RepositoryFactory--><g id="elem_RepositoryFactory"><rect codeLine="19" fill="#F1F1F1" height="64.4883" id="RepositoryFactory" rx="2.5" ry="2.5" style="stroke:#181818;stroke-width:0.5;" width="155" x="295.5" y="554.42"/><ellipse cx="310.5" cy="570.42" fill="#ADD1B2" rx="11" ry="11" style="stroke:#181818;stroke-width:1.0;"/><path d="M313.4731,576.0631 Q312.8921,576.3619 312.2529,576.5113 Q311.6138,576.6607 310.9082,576.6607 Q308.4014,576.6607 307.0815,575.0089 Q305.7617,573.357 305.7617,570.2359 Q305.7617,567.1065 307.0815,565.4547 Q308.4014,563.8028 310.9082,563.8028 Q311.6138,563.8028 312.2612,563.9522 Q312.9087,564.1016 313.4731,564.4005 L313.4731,567.1231 Q312.8423,566.5421 312.2488,566.2723 Q311.6553,566.0025 311.0244,566.0025 Q309.6797,566.0025 308.9949,567.0692 Q308.3101,568.1358 308.3101,570.2359 Q308.3101,572.3277 308.9949,573.3944 Q309.6797,574.461 311.0244,574.461 Q311.6553,574.461 312.2488,574.1912 Q312.8423,573.9215 313.4731,573.3404 Z " fill="#000000"/><text fill="#000000" font-family="sans-serif" font-size="14" lengthAdjust="spacing" textLength="123" x="324.5" y="575.711">RepositoryFactory</text><line style="stroke:#181818;stroke-width:0.5;" x1="296.5" x2="449.5" y1="586.42" y2="586.42"/><line style="stroke:#181818;stroke-width:0.5;" x1="296.5" x2="449.5" y1="594.42" y2="594.42"/><ellipse cx="306.5" cy="608.1641" fill="#84BE84" rx="3" ry="3" style="stroke:#038048;stroke-width:1.0;"/><text fill="#000000" font-family="sans-serif" font-size="14" lengthAdjust="spacing" textLength="52" x="315.5" y="611.9552">create()</text></g><!--class PersistenceContext--><g id="elem_PersistenceContext"><rect codeLine="23" fill="#F1F1F1" height="80.9766" id="PersistenceContext" rx="2.5" ry="2.5" style="stroke:#181818;stroke-width:0.5;" width="408" x="169" y="413.45"/><ellipse cx="302.75" cy="429.45" fill="#ADD1B2" rx="11" ry="11" style="stroke:#181818;stroke-width:1.0;"/><path d="M305.7231,435.0931 Q305.1421,435.3919 304.5029,435.5413 Q303.8638,435.6907 303.1582,435.6907 Q300.6514,435.6907 299.3315,434.0389 Q298.0117,432.387 298.0117,429.2659 Q298.0117,426.1365 299.3315,424.4847 Q300.6514,422.8328 303.1582,422.8328 Q303.8638,422.8328 304.5112,422.9822 Q305.1587,423.1316 305.7231,423.4305 L305.7231,426.1531 Q305.0923,425.5721 304.4988,425.3023 Q303.9053,425.0325 303.2744,425.0325 Q301.9297,425.0325 301.2449,426.0992 Q300.5601,427.1658 300.5601,429.2659 Q300.5601,431.3577 301.2449,432.4244 Q301.9297,433.491 303.2744,433.491 Q303.9053,433.491 304.4988,433.2212 Q305.0923,432.9515 305.7231,432.3704 Z " fill="#000000"/><text fill="#000000" font-family="sans-serif" font-size="14" lengthAdjust="spacing" textLength="132" x="323.25" y="434.741">PersistenceContext</text><line style="stroke:#181818;stroke-width:0.5;" x1="170" x2="576" y1="445.45" y2="445.45"/><rect fill="none" height="6" style="stroke:#C82930;stroke-width:1.0;" width="6" x="177" y="456.1941"/><text fill="#000000" font-family="sans-serif" font-size="14" lengthAdjust="spacing" textLength="382" x="189" y="462.9852">RecurringLessonRepository: RecurringLessonRepository</text><line style="stroke:#181818;stroke-width:0.5;" x1="170" x2="576" y1="469.9383" y2="469.9383"/><ellipse cx="180" cy="483.6824" fill="#84BE84" rx="3" ry="3" style="stroke:#038048;stroke-width:1.0;"/><text fill="#000000" font-family="sans-serif" font-size="14" lengthAdjust="spacing" textLength="92" x="189" y="487.4734">repositories()</text></g><!--class RecurringLessonRepository--><g id="elem_RecurringLessonRepository"><rect codeLine="28" fill="#F1F1F1" height="48" id="RecurringLessonRepository" rx="2.5" ry="2.5" style="stroke:#181818;stroke-width:0.5;" width="219" x="263.5" y="678.91"/><ellipse cx="278.5" cy="694.91" fill="#ADD1B2" rx="11" ry="11" style="stroke:#181818;stroke-width:1.0;"/><path d="M281.4731,700.5531 Q280.8921,700.8519 280.2529,701.0013 Q279.6138,701.1507 278.9082,701.1507 Q276.4014,701.1507 275.0815,699.4989 Q273.7617,697.847 273.7617,694.7259 Q273.7617,691.5965 275.0815,689.9447 Q276.4014,688.2928 278.9082,688.2928 Q279.6138,688.2928 280.2612,688.4422 Q280.9087,688.5916 281.4731,688.8905 L281.4731,691.6131 Q280.8423,691.0321 280.2488,690.7623 Q279.6553,690.4925 279.0244,690.4925 Q277.6797,690.4925 276.9949,691.5592 Q276.3101,692.6258 276.3101,694.7259 Q276.3101,696.8177 276.9949,697.8844 Q277.6797,698.951 279.0244,698.951 Q279.6553,698.951 280.2488,698.6812 Q280.8423,698.4115 281.4731,697.8304 Z " fill="#000000"/><text fill="#000000" font-family="sans-serif" font-size="14" lengthAdjust="spacing" textLength="187" x="292.5" y="700.201">RecurringLessonRepository</text><line style="stroke:#181818;stroke-width:0.5;" x1="264.5" x2="481.5" y1="710.91" y2="710.91"/><line style="stroke:#181818;stroke-width:0.5;" x1="264.5" x2="481.5" y1="718.91" y2="718.91"/></g><!--link RecurringLessonUI to CreateRecurringLessonController--><g id="link_RecurringLessonUI_CreateRecurringLessonController"><path codeLine="31" d="M294,71.79 C294,88.22 294,108.42 294,125.6 " fill="none" id="RecurringLessonUI-to-CreateRecurringLessonController" style="stroke:#181818;stroke-width:1.0;"/><polygon fill="#181818" points="294,130.3,298,121.3,294,125.3,290,121.3,294,130.3" style="stroke:#181818;stroke-width:1.0;"/></g><!--link CreateRecurringLessonController to ScheduleLessonService--><g id="link_CreateRecurringLessonController_ScheduleLessonService"><path codeLine="32" d="M294,196.27 C294,212.17 294,231.88 294,250.07 " fill="none" id="CreateRecurringLessonController-to-ScheduleLessonService" style="stroke:#181818;stroke-width:1.0;"/><polygon fill="#181818" points="294,254.66,298,245.66,294,249.66,290,245.66,294,254.66" style="stroke:#181818;stroke-width:1.0;"/></g><!--link ScheduleLessonService to PersistenceContext--><g id="link_ScheduleLessonService_PersistenceContext"><path codeLine="33" d="M319.87,353.92 C329.17,371.25 339.61,390.71 348.77,407.77 " fill="none" id="ScheduleLessonService-to-PersistenceContext" style="stroke:#181818;stroke-width:1.0;"/><polygon fill="#181818" points="351.56,411.98,350.8112,402.1596,349.1878,407.5786,343.7689,405.9552,351.56,411.98" style="stroke:#181818;stroke-width:1.0;"/></g><!--link CreateRecurringLessonController to PersistenceContext--><g id="link_CreateRecurringLessonController_PersistenceContext"><path codeLine="34" d="M358.47,196.28 C381.28,211.02 404.39,230.92 417,255.98 C441.47,304.6 420.04,366.74 399.4,408.09 " fill="none" id="CreateRecurringLessonController-to-PersistenceContext" style="stroke:#181818;stroke-width:1.0;"/><polygon fill="#181818" points="396.76,412.28,404.3946,406.058,399.0189,407.8194,397.2575,402.4437,396.76,412.28" style="stroke:#181818;stroke-width:1.0;"/></g><!--link PersistenceContext to RepositoryFactory--><g id="link_PersistenceContext_RepositoryFactory"><path codeLine="35" d="M373,494.87 C373,512 373,531.9 373,548.7 " fill="none" id="PersistenceContext-to-RepositoryFactory" style="stroke:#181818;stroke-width:1.0;"/><polygon fill="#181818" points="373,553.26,377,544.26,373,548.26,369,544.26,373,553.26" style="stroke:#181818;stroke-width:1.0;"/></g><!--link RepositoryFactory to RecurringLessonRepository--><g id="link_RepositoryFactory_RecurringLessonRepository"><path codeLine="36" d="M373,619.19 C373,635.89 373,656.28 373,672.64 " fill="none" id="RepositoryFactory-to-RecurringLessonRepository" style="stroke:#181818;stroke-width:1.0;"/><polygon fill="#181818" points="373,677.47,377,668.47,373,672.47,369,668.47,373,677.47" style="stroke:#181818;stroke-width:1.0;"/></g><!--link CreateRecurringLessonController to RecurringLesson--><g id="link_CreateRecurringLessonController_RecurringLesson"><path codeLine="37" d="M245.17,196.45 C207.51,220.9 156.04,254.33 120.61,277.34 " fill="none" id="CreateRecurringLessonController-to-RecurringLesson" style="stroke:#181818;stroke-width:1.0;"/><polygon fill="#181818" points="116.94,280.37,126.6663,278.8212,121.1329,277.6461,122.308,272.1126,116.94,280.37" style="stroke:#181818;stroke-width:1.0;"/></g><!--SRC=[ZL5B2i8m4Dtd55qgqWkuS5CG11TYqNr8Xne8YSoaVX3lRjFOMfFuoIOaxpF9Uq9necmBea6Kkbu3aT6xLNPZMRjcbIaFvZoPiZjZegCM2Dn282YCjcYK0ko58aKR-mHGgnkWKXoWQXHuf0GyIG6zyGRDaTUjjqUfzUpkzrp9AXuvu5of13Hwpj6Gj0QlIoxSzlwHCNK3I98iQ07ktt2nJsuU37XvphEFa9-2_La2VKdf9VDvnRtb-U9NHUnNXSuZsG5BD-FuSIX_ZKd84l4wPbGGYolpl4z1__EU06KF]--></g></svg>