<?xml version="1.0" encoding="UTF-8" standalone="no"?><svg xmlns="http://www.w3.org/2000/svg" xmlns:xlink="http://www.w3.org/1999/xlink" contentStyleType="text/css" height="1128px" preserveAspectRatio="none" style="width:2643px;height:1128px;background:#FFFFFF;" version="1.1" viewBox="0 0 2643 1128" width="2643px" zoomAndPan="magnify"><defs/><g><rect fill="#FFFFFF" height="930.9375" style="stroke:#181818;stroke-width:1.0;" width="10" x="21.5" y="93.9766"/><rect fill="#FFFFFF" height="874.3164" style="stroke:#181818;stroke-width:1.0;" width="10" x="386.5" y="150.5977"/><rect fill="#FFFFFF" height="806.6953" style="stroke:#181818;stroke-width:1.0;" width="10" x="933.5" y="179.9082"/><rect fill="#FFFFFF" height="87.9316" style="stroke:#181818;stroke-width:1.0;" width="10" x="1153" y="634.877"/><rect fill="#FFFFFF" height="87.9316" style="stroke:#181818;stroke-width:1.0;" width="10" x="1324" y="810.7402"/><rect fill="#FFFFFF" height="29.3105" style="stroke:#181818;stroke-width:1.0;" width="10" x="1484" y="840.0508"/><rect fill="#FFFFFF" height="29.3105" style="stroke:#181818;stroke-width:1.0;" width="10" x="1659" y="927.9824"/><rect fill="#FFFFFF" height="29.3105" style="stroke:#181818;stroke-width:1.0;" width="10" x="1832.5" y="459.0137"/><rect fill="#FFFFFF" height="29.3105" style="stroke:#181818;stroke-width:1.0;" width="10" x="1973.5" y="517.6348"/><rect fill="#FFFFFF" height="29.3105" style="stroke:#181818;stroke-width:1.0;" width="10" x="2161.5" y="576.2559"/><rect fill="#FFFFFF" height="29.3105" style="stroke:#181818;stroke-width:1.0;" width="10" x="2161.5" y="752.1191"/><rect fill="#FFFFFF" height="29.3105" style="stroke:#181818;stroke-width:1.0;" width="10" x="2390" y="400.3926"/><rect fill="#FFFFFF" height="29.3105" style="stroke:#181818;stroke-width:1.0;" width="10" x="2568.5" y="664.1875"/><line style="stroke:#181818;stroke-width:0.5;stroke-dasharray:5.0,5.0;" x1="26" x2="26" y1="83.9766" y2="1033.9141"/><line style="stroke:#181818;stroke-width:0.5;stroke-dasharray:5.0,5.0;" x1="391" x2="391" y1="83.9766" y2="1033.9141"/><line style="stroke:#181818;stroke-width:0.5;stroke-dasharray:5.0,5.0;" x1="938" x2="938" y1="83.9766" y2="1033.9141"/><line style="stroke:#181818;stroke-width:0.5;stroke-dasharray:5.0,5.0;" x1="1158" x2="1158" y1="83.9766" y2="1033.9141"/><line style="stroke:#181818;stroke-width:0.5;stroke-dasharray:5.0,5.0;" x1="1329" x2="1329" y1="83.9766" y2="1033.9141"/><line style="stroke:#181818;stroke-width:0.5;stroke-dasharray:5.0,5.0;" x1="1488.5" x2="1488.5" y1="83.9766" y2="1033.9141"/><line style="stroke:#181818;stroke-width:0.5;stroke-dasharray:5.0,5.0;" x1="1663.5" x2="1663.5" y1="83.9766" y2="1033.9141"/><line style="stroke:#181818;stroke-width:0.5;stroke-dasharray:5.0,5.0;" x1="1837.5" x2="1837.5" y1="83.9766" y2="1033.9141"/><line style="stroke:#181818;stroke-width:0.5;stroke-dasharray:5.0,5.0;" x1="1978.5" x2="1978.5" y1="83.9766" y2="1033.9141"/><line style="stroke:#181818;stroke-width:0.5;stroke-dasharray:5.0,5.0;" x1="2166.5" x2="2166.5" y1="83.9766" y2="1033.9141"/><line style="stroke:#181818;stroke-width:0.5;stroke-dasharray:5.0,5.0;" x1="2394.5" x2="2394.5" y1="83.9766" y2="1033.9141"/><line style="stroke:#181818;stroke-width:0.5;stroke-dasharray:5.0,5.0;" x1="2573.5" x2="2573.5" y1="83.9766" y2="1033.9141"/><text fill="#000000" font-family="sans-serif" font-size="14" lengthAdjust="spacing" textLength="37" x="5" y="81.0234">Actor</text><ellipse cx="26.5" cy="15.9883" fill="#E2E2F0" rx="8" ry="8" style="stroke:#181818;stroke-width:0.5;"/><path d="M26.5,23.9883 L26.5,50.9883 M13.5,31.9883 L39.5,31.9883 M26.5,50.9883 L13.5,65.9883 M26.5,50.9883 L39.5,65.9883 " fill="none" style="stroke:#181818;stroke-width:0.5;"/><text fill="#000000" font-family="sans-serif" font-size="14" lengthAdjust="spacing" textLength="37" x="5" y="1046.4492">Actor</text><ellipse cx="26.5" cy="1057.9023" fill="#E2E2F0" rx="8" ry="8" style="stroke:#181818;stroke-width:0.5;"/><path d="M26.5,1065.9023 L26.5,1092.9023 M13.5,1073.9023 L39.5,1073.9023 M26.5,1092.9023 L13.5,1107.9023 M26.5,1092.9023 L39.5,1107.9023 " fill="none" style="stroke:#181818;stroke-width:0.5;"/><rect fill="#E2E2F0" height="46.9766" rx="2.5" ry="2.5" style="stroke:#181818;stroke-width:0.5;" width="187" x="298" y="36"/><text fill="#000000" font-family="sans-serif" font-size="14" font-style="italic" lengthAdjust="spacing" textLength="100" x="341.5" y="56.5352">«Presentation»</text><text fill="#000000" font-family="sans-serif" font-size="14" lengthAdjust="spacing" textLength="173" x="305" y="73.0234">CreateRecurringLessonUI</text><rect fill="#E2E2F0" height="46.9766" rx="2.5" ry="2.5" style="stroke:#181818;stroke-width:0.5;" width="187" x="298" y="1032.9141"/><text fill="#000000" font-family="sans-serif" font-size="14" font-style="italic" lengthAdjust="spacing" textLength="100" x="341.5" y="1053.4492">«Presentation»</text><text fill="#000000" font-family="sans-serif" font-size="14" lengthAdjust="spacing" textLength="173" x="305" y="1069.9375">CreateRecurringLessonUI</text><rect fill="#E2E2F0" height="46.9766" rx="2.5" ry="2.5" style="stroke:#181818;stroke-width:0.5;" width="243" x="817" y="36"/><text fill="#000000" font-family="sans-serif" font-size="14" font-style="italic" lengthAdjust="spacing" textLength="92" x="892.5" y="56.5352">«Application»</text><text fill="#000000" font-family="sans-serif" font-size="14" lengthAdjust="spacing" textLength="229" x="824" y="73.0234">CreateRecurringLessonController</text><rect fill="#E2E2F0" height="46.9766" rx="2.5" ry="2.5" style="stroke:#181818;stroke-width:0.5;" width="243" x="817" y="1032.9141"/><text fill="#000000" font-family="sans-serif" font-size="14" font-style="italic" lengthAdjust="spacing" textLength="92" x="892.5" y="1053.4492">«Application»</text><text fill="#000000" font-family="sans-serif" font-size="14" lengthAdjust="spacing" textLength="229" x="824" y="1069.9375">CreateRecurringLessonController</text><rect fill="#E2E2F0" height="46.9766" rx="2.5" ry="2.5" style="stroke:#181818;stroke-width:0.5;" width="176" x="1070" y="36"/><text fill="#000000" font-family="sans-serif" font-size="14" font-style="italic" lengthAdjust="spacing" textLength="63" x="1126.5" y="56.5352">«builder»</text><text fill="#000000" font-family="sans-serif" font-size="14" lengthAdjust="spacing" textLength="162" x="1077" y="73.0234">RecurringLessonBuilder</text><rect fill="#E2E2F0" height="46.9766" rx="2.5" ry="2.5" style="stroke:#181818;stroke-width:0.5;" width="176" x="1070" y="1032.9141"/><text fill="#000000" font-family="sans-serif" font-size="14" font-style="italic" lengthAdjust="spacing" textLength="63" x="1126.5" y="1053.4492">«builder»</text><text fill="#000000" font-family="sans-serif" font-size="14" lengthAdjust="spacing" textLength="162" x="1077" y="1069.9375">RecurringLessonBuilder</text><rect fill="#E2E2F0" height="46.9766" rx="2.5" ry="2.5" style="stroke:#181818;stroke-width:0.5;" width="146" x="1256" y="36"/><text fill="#000000" font-family="sans-serif" font-size="14" font-style="italic" lengthAdjust="spacing" textLength="92" x="1283" y="56.5352">«persistence»</text><text fill="#000000" font-family="sans-serif" font-size="14" lengthAdjust="spacing" textLength="132" x="1263" y="73.0234">PersistenceContext</text><rect fill="#E2E2F0" height="46.9766" rx="2.5" ry="2.5" style="stroke:#181818;stroke-width:0.5;" width="146" x="1256" y="1032.9141"/><text fill="#000000" font-family="sans-serif" font-size="14" font-style="italic" lengthAdjust="spacing" textLength="92" x="1283" y="1053.4492">«persistence»</text><text fill="#000000" font-family="sans-serif" font-size="14" lengthAdjust="spacing" textLength="132" x="1263" y="1069.9375">PersistenceContext</text><rect fill="#E2E2F0" height="46.9766" rx="2.5" ry="2.5" style="stroke:#181818;stroke-width:0.5;" width="137" x="1420.5" y="36"/><text fill="#000000" font-family="sans-serif" font-size="14" font-style="italic" lengthAdjust="spacing" textLength="61" x="1458.5" y="56.5352">«factory»</text><text fill="#000000" font-family="sans-serif" font-size="14" lengthAdjust="spacing" textLength="123" x="1427.5" y="73.0234">RepositoryFactory</text><rect fill="#E2E2F0" height="46.9766" rx="2.5" ry="2.5" style="stroke:#181818;stroke-width:0.5;" width="137" x="1420.5" y="1032.9141"/><text fill="#000000" font-family="sans-serif" font-size="14" font-style="italic" lengthAdjust="spacing" textLength="61" x="1458.5" y="1053.4492">«factory»</text><text fill="#000000" font-family="sans-serif" font-size="14" lengthAdjust="spacing" textLength="123" x="1427.5" y="1069.9375">RepositoryFactory</text><text fill="#000000" font-family="sans-serif" font-size="14" font-style="italic" lengthAdjust="spacing" textLength="87" x="1617.5" y="64.5352">«Repository»</text><text fill="#000000" font-family="sans-serif" font-size="14" lengthAdjust="spacing" textLength="187" x="1567.5" y="81.0234">RecurringLessonRepository</text><path d="M1646,15 C1646,5 1664,5 1664,5 C1664,5 1682,5 1682,15 L1682,41 C1682,51 1664,51 1664,51 C1664,51 1646,51 1646,41 L1646,15 " fill="#E2E2F0" style="stroke:#181818;stroke-width:1.5;"/><path d="M1646,15 C1646,25 1664,25 1664,25 C1664,25 1682,25 1682,15 " fill="none" style="stroke:#181818;stroke-width:1.5;"/><text fill="#000000" font-family="sans-serif" font-size="14" font-style="italic" lengthAdjust="spacing" textLength="87" x="1617.5" y="1046.4492">«Repository»</text><text fill="#000000" font-family="sans-serif" font-size="14" lengthAdjust="spacing" textLength="187" x="1567.5" y="1062.9375">RecurringLessonRepository</text><path d="M1646,1075.8906 C1646,1065.8906 1664,1065.8906 1664,1065.8906 C1664,1065.8906 1682,1065.8906 1682,1075.8906 L1682,1101.8906 C1682,1111.8906 1664,1111.8906 1664,1111.8906 C1664,1111.8906 1646,1111.8906 1646,1101.8906 L1646,1075.8906 " fill="#E2E2F0" style="stroke:#181818;stroke-width:1.5;"/><path d="M1646,1075.8906 C1646,1085.8906 1664,1085.8906 1664,1085.8906 C1664,1085.8906 1682,1085.8906 1682,1075.8906 " fill="none" style="stroke:#181818;stroke-width:1.5;"/><text fill="#000000" font-family="sans-serif" font-size="14" font-style="italic" lengthAdjust="spacing" textLength="87" x="1791" y="64.5352">«Repository»</text><text fill="#000000" font-family="sans-serif" font-size="14" lengthAdjust="spacing" textLength="128" x="1770.5" y="81.0234">TeacherRepository</text><path d="M1819.5,15 C1819.5,5 1837.5,5 1837.5,5 C1837.5,5 1855.5,5 1855.5,15 L1855.5,41 C1855.5,51 1837.5,51 1837.5,51 C1837.5,51 1819.5,51 1819.5,41 L1819.5,15 " fill="#E2E2F0" style="stroke:#181818;stroke-width:1.5;"/><path d="M1819.5,15 C1819.5,25 1837.5,25 1837.5,25 C1837.5,25 1855.5,25 1855.5,15 " fill="none" style="stroke:#181818;stroke-width:1.5;"/><text fill="#000000" font-family="sans-serif" font-size="14" font-style="italic" lengthAdjust="spacing" textLength="87" x="1791" y="1046.4492">«Repository»</text><text fill="#000000" font-family="sans-serif" font-size="14" lengthAdjust="spacing" textLength="128" x="1770.5" y="1062.9375">TeacherRepository</text><path d="M1819.5,1075.8906 C1819.5,1065.8906 1837.5,1065.8906 1837.5,1065.8906 C1837.5,1065.8906 1855.5,1065.8906 1855.5,1075.8906 L1855.5,1101.8906 C1855.5,1111.8906 1837.5,1111.8906 1837.5,1111.8906 C1837.5,1111.8906 1819.5,1111.8906 1819.5,1101.8906 L1819.5,1075.8906 " fill="#E2E2F0" style="stroke:#181818;stroke-width:1.5;"/><path d="M1819.5,1075.8906 C1819.5,1085.8906 1837.5,1085.8906 1837.5,1085.8906 C1837.5,1085.8906 1855.5,1085.8906 1855.5,1075.8906 " fill="none" style="stroke:#181818;stroke-width:1.5;"/><text fill="#000000" font-family="sans-serif" font-size="14" font-style="italic" lengthAdjust="spacing" textLength="87" x="1932" y="64.5352">«Repository»</text><text fill="#000000" font-family="sans-serif" font-size="14" lengthAdjust="spacing" textLength="122" x="1914.5" y="81.0234">CourseRepository</text><path d="M1960.5,15 C1960.5,5 1978.5,5 1978.5,5 C1978.5,5 1996.5,5 1996.5,15 L1996.5,41 C1996.5,51 1978.5,51 1978.5,51 C1978.5,51 1960.5,51 1960.5,41 L1960.5,15 " fill="#E2E2F0" style="stroke:#181818;stroke-width:1.5;"/><path d="M1960.5,15 C1960.5,25 1978.5,25 1978.5,25 C1978.5,25 1996.5,25 1996.5,15 " fill="none" style="stroke:#181818;stroke-width:1.5;"/><text fill="#000000" font-family="sans-serif" font-size="14" font-style="italic" lengthAdjust="spacing" textLength="87" x="1932" y="1046.4492">«Repository»</text><text fill="#000000" font-family="sans-serif" font-size="14" lengthAdjust="spacing" textLength="122" x="1914.5" y="1062.9375">CourseRepository</text><path d="M1960.5,1075.8906 C1960.5,1065.8906 1978.5,1065.8906 1978.5,1065.8906 C1978.5,1065.8906 1996.5,1065.8906 1996.5,1075.8906 L1996.5,1101.8906 C1996.5,1111.8906 1978.5,1111.8906 1978.5,1111.8906 C1978.5,1111.8906 1960.5,1111.8906 1960.5,1101.8906 L1960.5,1075.8906 " fill="#E2E2F0" style="stroke:#181818;stroke-width:1.5;"/><path d="M1960.5,1075.8906 C1960.5,1085.8906 1978.5,1085.8906 1978.5,1085.8906 C1978.5,1085.8906 1996.5,1085.8906 1996.5,1075.8906 " fill="none" style="stroke:#181818;stroke-width:1.5;"/><rect fill="#E2E2F0" height="46.9766" rx="2.5" ry="2.5" style="stroke:#181818;stroke-width:0.5;" width="228" x="2052.5" y="36"/><text fill="#000000" font-family="sans-serif" font-size="14" font-style="italic" lengthAdjust="spacing" textLength="67" x="2133" y="56.5352">«Domain»</text><text fill="#000000" font-family="sans-serif" font-size="14" lengthAdjust="spacing" textLength="214" x="2059.5" y="73.0234">serviço:RecurringLessonService</text><rect fill="#E2E2F0" height="46.9766" rx="2.5" ry="2.5" style="stroke:#181818;stroke-width:0.5;" width="228" x="2052.5" y="1032.9141"/><text fill="#000000" font-family="sans-serif" font-size="14" font-style="italic" lengthAdjust="spacing" textLength="67" x="2133" y="1053.4492">«Domain»</text><text fill="#000000" font-family="sans-serif" font-size="14" lengthAdjust="spacing" textLength="214" x="2059.5" y="1069.9375">serviço:RecurringLessonService</text><rect fill="#E2E2F0" height="46.9766" rx="2.5" ry="2.5" style="stroke:#181818;stroke-width:0.5;" width="209" x="2290.5" y="36"/><text fill="#000000" font-family="sans-serif" font-size="14" font-style="italic" lengthAdjust="spacing" textLength="67" x="2361.5" y="56.5352">«Domain»</text><text fill="#000000" font-family="sans-serif" font-size="14" lengthAdjust="spacing" textLength="195" x="2297.5" y="73.0234">serviço:AuthorizationService</text><rect fill="#E2E2F0" height="46.9766" rx="2.5" ry="2.5" style="stroke:#181818;stroke-width:0.5;" width="209" x="2290.5" y="1032.9141"/><text fill="#000000" font-family="sans-serif" font-size="14" font-style="italic" lengthAdjust="spacing" textLength="67" x="2361.5" y="1053.4492">«Domain»</text><text fill="#000000" font-family="sans-serif" font-size="14" lengthAdjust="spacing" textLength="195" x="2297.5" y="1069.9375">serviço:AuthorizationService</text><rect fill="#E2E2F0" height="46.9766" rx="2.5" ry="2.5" style="stroke:#181818;stroke-width:0.5;" width="128" x="2509.5" y="36"/><text fill="#000000" font-family="sans-serif" font-size="14" font-style="italic" lengthAdjust="spacing" textLength="67" x="2540" y="56.5352">«Domain»</text><text fill="#000000" font-family="sans-serif" font-size="14" lengthAdjust="spacing" textLength="114" x="2516.5" y="73.0234">RecurringLesson</text><rect fill="#E2E2F0" height="46.9766" rx="2.5" ry="2.5" style="stroke:#181818;stroke-width:0.5;" width="128" x="2509.5" y="1032.9141"/><text fill="#000000" font-family="sans-serif" font-size="14" font-style="italic" lengthAdjust="spacing" textLength="67" x="2540" y="1053.4492">«Domain»</text><text fill="#000000" font-family="sans-serif" font-size="14" lengthAdjust="spacing" textLength="114" x="2516.5" y="1069.9375">RecurringLesson</text><rect fill="#FFFFFF" height="930.9375" style="stroke:#181818;stroke-width:1.0;" width="10" x="21.5" y="93.9766"/><rect fill="#FFFFFF" height="874.3164" style="stroke:#181818;stroke-width:1.0;" width="10" x="386.5" y="150.5977"/><rect fill="#FFFFFF" height="806.6953" style="stroke:#181818;stroke-width:1.0;" width="10" x="933.5" y="179.9082"/><rect fill="#FFFFFF" height="87.9316" style="stroke:#181818;stroke-width:1.0;" width="10" x="1153" y="634.877"/><rect fill="#FFFFFF" height="87.9316" style="stroke:#181818;stroke-width:1.0;" width="10" x="1324" y="810.7402"/><rect fill="#FFFFFF" height="29.3105" style="stroke:#181818;stroke-width:1.0;" width="10" x="1484" y="840.0508"/><rect fill="#FFFFFF" height="29.3105" style="stroke:#181818;stroke-width:1.0;" width="10" x="1659" y="927.9824"/><rect fill="#FFFFFF" height="29.3105" style="stroke:#181818;stroke-width:1.0;" width="10" x="1832.5" y="459.0137"/><rect fill="#FFFFFF" height="29.3105" style="stroke:#181818;stroke-width:1.0;" width="10" x="1973.5" y="517.6348"/><rect fill="#FFFFFF" height="29.3105" style="stroke:#181818;stroke-width:1.0;" width="10" x="2161.5" y="576.2559"/><rect fill="#FFFFFF" height="29.3105" style="stroke:#181818;stroke-width:1.0;" width="10" x="2161.5" y="752.1191"/><rect fill="#FFFFFF" height="29.3105" style="stroke:#181818;stroke-width:1.0;" width="10" x="2390" y="400.3926"/><rect fill="#FFFFFF" height="29.3105" style="stroke:#181818;stroke-width:1.0;" width="10" x="2568.5" y="664.1875"/><path d="M36,98.9766 L36,123.9766 L1036,123.9766 L1036,108.9766 L1026,98.9766 L36,98.9766 " fill="#FEFFDD" style="stroke:#181818;stroke-width:0.5;"/><path d="M1026,98.9766 L1026,108.9766 L1036,108.9766 L1026,98.9766 " fill="#FEFFDD" style="stroke:#181818;stroke-width:0.5;"/><text fill="#000000" font-family="sans-serif" font-size="13" lengthAdjust="spacing" textLength="979" x="42" y="116.5449">Existe um serviço com a responsabilidade de verificar a disponibilidade do professor no dia marcado e a propagação da lesson para a frequencia estipulada</text><polygon fill="#181818" points="374.5,146.5977,384.5,150.5977,374.5,154.5977,378.5,150.5977" style="stroke:#181818;stroke-width:1.0;"/><line style="stroke:#181818;stroke-width:1.0;" x1="31.5" x2="380.5" y1="150.5977" y2="150.5977"/><text fill="#000000" font-family="sans-serif" font-size="13" font-weight="bold" lengthAdjust="spacing" textLength="9" x="38.5" y="145.8555">1</text><text fill="#000000" font-family="sans-serif" font-size="13" lengthAdjust="spacing" textLength="152" x="51.5" y="145.8555">CreateRecurringLesson()</text><polygon fill="#181818" points="921.5,175.9082,931.5,179.9082,921.5,183.9082,925.5,179.9082" style="stroke:#181818;stroke-width:1.0;"/><line style="stroke:#181818;stroke-width:1.0;" x1="396.5" x2="927.5" y1="179.9082" y2="179.9082"/><text fill="#000000" font-family="sans-serif" font-size="13" font-weight="bold" lengthAdjust="spacing" textLength="9" x="403.5" y="175.166">2</text><text fill="#000000" font-family="sans-serif" font-size="13" lengthAdjust="spacing" textLength="128" x="416.5" y="175.166">getTeacherCourses()</text><polygon fill="#181818" points="407.5,205.2188,397.5,209.2188,407.5,213.2188,403.5,209.2188" style="stroke:#181818;stroke-width:1.0;"/><line style="stroke:#181818;stroke-width:1.0;" x1="401.5" x2="932.5" y1="209.2188" y2="209.2188"/><text fill="#000000" font-family="sans-serif" font-size="13" font-weight="bold" lengthAdjust="spacing" textLength="9" x="413.5" y="204.4766">3</text><text fill="#000000" font-family="sans-serif" font-size="13" lengthAdjust="spacing" textLength="49" x="426.5" y="204.4766">courses</text><polygon fill="#181818" points="42.5,234.5293,32.5,238.5293,42.5,242.5293,38.5,238.5293" style="stroke:#181818;stroke-width:1.0;"/><line style="stroke:#181818;stroke-width:1.0;" x1="36.5" x2="385.5" y1="238.5293" y2="238.5293"/><text fill="#000000" font-family="sans-serif" font-size="13" font-weight="bold" lengthAdjust="spacing" textLength="9" x="48.5" y="233.7871">4</text><text fill="#000000" font-family="sans-serif" font-size="13" lengthAdjust="spacing" textLength="139" x="61.5" y="233.7871">selectorCourse.show()</text><polygon fill="#181818" points="374.5,263.8398,384.5,267.8398,374.5,271.8398,378.5,267.8398" style="stroke:#181818;stroke-width:1.0;"/><line style="stroke:#181818;stroke-width:1.0;" x1="31.5" x2="380.5" y1="267.8398" y2="267.8398"/><text fill="#000000" font-family="sans-serif" font-size="13" font-weight="bold" lengthAdjust="spacing" textLength="9" x="38.5" y="263.0977">5</text><text fill="#000000" font-family="sans-serif" font-size="13" lengthAdjust="spacing" textLength="165" x="51.5" y="263.0977">Selects one of the courses</text><polygon fill="#181818" points="42.5,293.1504,32.5,297.1504,42.5,301.1504,38.5,297.1504" style="stroke:#181818;stroke-width:1.0;"/><line style="stroke:#181818;stroke-width:1.0;" x1="36.5" x2="385.5" y1="297.1504" y2="297.1504"/><text fill="#000000" font-family="sans-serif" font-size="13" font-weight="bold" lengthAdjust="spacing" textLength="9" x="48.5" y="292.4082">6</text><text fill="#000000" font-family="sans-serif" font-size="13" lengthAdjust="spacing" textLength="264" x="61.5" y="292.4082">Ask User the recurring lesson information</text><polygon fill="#181818" points="374.5,337.7715,384.5,341.7715,374.5,345.7715,378.5,341.7715" style="stroke:#181818;stroke-width:1.0;"/><line style="stroke:#181818;stroke-width:1.0;" x1="31.5" x2="380.5" y1="341.7715" y2="341.7715"/><text fill="#000000" font-family="sans-serif" font-size="13" font-weight="bold" lengthAdjust="spacing" textLength="9" x="38.5" y="329.374">7</text><text fill="#000000" font-family="sans-serif" font-size="13" lengthAdjust="spacing" textLength="318" x="51.5" y="321.7188">inputs Recurring Lesson title, start date, start time</text><text fill="#000000" font-family="sans-serif" font-size="13" lengthAdjust="spacing" textLength="208" x="55.5" y="337.0293">end date, duration and frequency</text><polygon fill="#181818" points="921.5,367.082,931.5,371.082,921.5,375.082,925.5,371.082" style="stroke:#181818;stroke-width:1.0;"/><line style="stroke:#181818;stroke-width:1.0;" x1="396.5" x2="927.5" y1="371.082" y2="371.082"/><text fill="#000000" font-family="sans-serif" font-size="13" font-weight="bold" lengthAdjust="spacing" textLength="9" x="403.5" y="366.3398">8</text><text fill="#000000" font-family="sans-serif" font-size="13" lengthAdjust="spacing" textLength="500" x="416.5" y="366.3398">createRecurringLesson(title, startDate, endDate, startTime, duration, frequency)</text><polygon fill="#181818" points="2378,396.3926,2388,400.3926,2378,404.3926,2382,400.3926" style="stroke:#181818;stroke-width:1.0;"/><line style="stroke:#181818;stroke-width:1.0;" x1="943.5" x2="2384" y1="400.3926" y2="400.3926"/><text fill="#000000" font-family="sans-serif" font-size="13" font-weight="bold" lengthAdjust="spacing" textLength="9" x="950.5" y="395.6504">9</text><text fill="#000000" font-family="sans-serif" font-size="13" lengthAdjust="spacing" textLength="287" x="963.5" y="395.6504">session().get().authenticatedUser().username()</text><polygon fill="#181818" points="954.5,425.7031,944.5,429.7031,954.5,433.7031,950.5,429.7031" style="stroke:#181818;stroke-width:1.0;"/><line style="stroke:#181818;stroke-width:1.0;" x1="948.5" x2="2394" y1="429.7031" y2="429.7031"/><text fill="#000000" font-family="sans-serif" font-size="13" font-weight="bold" lengthAdjust="spacing" textLength="18" x="960.5" y="424.9609">10</text><text fill="#000000" font-family="sans-serif" font-size="13" lengthAdjust="spacing" textLength="61" x="982.5" y="424.9609">username</text><polygon fill="#181818" points="1820.5,455.0137,1830.5,459.0137,1820.5,463.0137,1824.5,459.0137" style="stroke:#181818;stroke-width:1.0;"/><line style="stroke:#181818;stroke-width:1.0;" x1="943.5" x2="1826.5" y1="459.0137" y2="459.0137"/><text fill="#000000" font-family="sans-serif" font-size="13" font-weight="bold" lengthAdjust="spacing" textLength="18" x="950.5" y="454.2715">11</text><text fill="#000000" font-family="sans-serif" font-size="13" lengthAdjust="spacing" textLength="124" x="972.5" y="454.2715">getCurrentTeacher()</text><polygon fill="#181818" points="954.5,484.3242,944.5,488.3242,954.5,492.3242,950.5,488.3242" style="stroke:#181818;stroke-width:1.0;"/><line style="stroke:#181818;stroke-width:1.0;" x1="948.5" x2="1836.5" y1="488.3242" y2="488.3242"/><text fill="#000000" font-family="sans-serif" font-size="13" font-weight="bold" lengthAdjust="spacing" textLength="18" x="960.5" y="483.582">12</text><text fill="#000000" font-family="sans-serif" font-size="13" lengthAdjust="spacing" textLength="46" x="982.5" y="483.582">teacher</text><polygon fill="#181818" points="1961.5,513.6348,1971.5,517.6348,1961.5,521.6348,1965.5,517.6348" style="stroke:#181818;stroke-width:1.0;"/><line style="stroke:#181818;stroke-width:1.0;" x1="943.5" x2="1967.5" y1="517.6348" y2="517.6348"/><text fill="#000000" font-family="sans-serif" font-size="13" font-weight="bold" lengthAdjust="spacing" textLength="18" x="950.5" y="512.8926">13</text><text fill="#000000" font-family="sans-serif" font-size="13" lengthAdjust="spacing" textLength="128" x="972.5" y="512.8926">getTeacherCourses()</text><polygon fill="#181818" points="954.5,542.9453,944.5,546.9453,954.5,550.9453,950.5,546.9453" style="stroke:#181818;stroke-width:1.0;"/><line style="stroke:#181818;stroke-width:1.0;" x1="948.5" x2="1977.5" y1="546.9453" y2="546.9453"/><text fill="#000000" font-family="sans-serif" font-size="13" font-weight="bold" lengthAdjust="spacing" textLength="18" x="960.5" y="542.2031">14</text><text fill="#000000" font-family="sans-serif" font-size="13" lengthAdjust="spacing" textLength="49" x="982.5" y="542.2031">courses</text><polygon fill="#181818" points="2149.5,572.2559,2159.5,576.2559,2149.5,580.2559,2153.5,576.2559" style="stroke:#181818;stroke-width:1.0;"/><line style="stroke:#181818;stroke-width:1.0;" x1="943.5" x2="2155.5" y1="576.2559" y2="576.2559"/><text fill="#000000" font-family="sans-serif" font-size="13" font-weight="bold" lengthAdjust="spacing" textLength="18" x="950.5" y="571.5137">15</text><text fill="#000000" font-family="sans-serif" font-size="13" lengthAdjust="spacing" textLength="361" x="972.5" y="571.5137">generateRecurringLessons(startDate, endDate, frequency)</text><polygon fill="#181818" points="954.5,601.5664,944.5,605.5664,954.5,609.5664,950.5,605.5664" style="stroke:#181818;stroke-width:1.0;"/><line style="stroke:#181818;stroke-width:1.0;" x1="948.5" x2="2165.5" y1="605.5664" y2="605.5664"/><text fill="#000000" font-family="sans-serif" font-size="13" font-weight="bold" lengthAdjust="spacing" textLength="18" x="960.5" y="600.8242">16</text><text fill="#000000" font-family="sans-serif" font-size="13" lengthAdjust="spacing" textLength="210" x="982.5" y="600.8242">List&lt;Calendar&gt; dayOfOccurrence</text><polygon fill="#181818" points="1141,630.877,1151,634.877,1141,638.877,1145,634.877" style="stroke:#181818;stroke-width:1.0;"/><line style="stroke:#181818;stroke-width:1.0;" x1="943.5" x2="1147" y1="634.877" y2="634.877"/><text fill="#000000" font-family="sans-serif" font-size="13" font-weight="bold" lengthAdjust="spacing" textLength="18" x="950.5" y="630.1348">17</text><text fill="#000000" font-family="sans-serif" font-size="13" lengthAdjust="spacing" textLength="94" x="972.5" y="630.1348">buildOrThrow()</text><polygon fill="#181818" points="2556.5,660.1875,2566.5,664.1875,2556.5,668.1875,2560.5,664.1875" style="stroke:#181818;stroke-width:1.0;"/><line style="stroke:#181818;stroke-width:1.0;" x1="1163" x2="2562.5" y1="664.1875" y2="664.1875"/><text fill="#000000" font-family="sans-serif" font-size="13" font-weight="bold" lengthAdjust="spacing" textLength="18" x="1170" y="659.4453">18</text><text fill="#000000" font-family="sans-serif" font-size="13" lengthAdjust="spacing" textLength="462" x="1192" y="659.4453">RecurringLesson(title, startDate, endDate, startTime, duration, frequency)</text><polygon fill="#181818" points="1174,689.498,1164,693.498,1174,697.498,1170,693.498" style="stroke:#181818;stroke-width:1.0;"/><line style="stroke:#181818;stroke-width:1.0;" x1="1168" x2="2572.5" y1="693.498" y2="693.498"/><text fill="#000000" font-family="sans-serif" font-size="13" font-weight="bold" lengthAdjust="spacing" textLength="18" x="1180" y="688.7559">19</text><text fill="#000000" font-family="sans-serif" font-size="13" lengthAdjust="spacing" textLength="101" x="1202" y="688.7559">recurringLesson</text><polygon fill="#181818" points="954.5,718.8086,944.5,722.8086,954.5,726.8086,950.5,722.8086" style="stroke:#181818;stroke-width:1.0;"/><line style="stroke:#181818;stroke-width:1.0;" x1="948.5" x2="1157" y1="722.8086" y2="722.8086"/><text fill="#000000" font-family="sans-serif" font-size="13" font-weight="bold" lengthAdjust="spacing" textLength="18" x="960.5" y="718.0664">20</text><text fill="#000000" font-family="sans-serif" font-size="13" lengthAdjust="spacing" textLength="101" x="982.5" y="718.0664">recurringLesson</text><polygon fill="#181818" points="2149.5,748.1191,2159.5,752.1191,2149.5,756.1191,2153.5,752.1191" style="stroke:#181818;stroke-width:1.0;"/><line style="stroke:#181818;stroke-width:1.0;" x1="943.5" x2="2155.5" y1="752.1191" y2="752.1191"/><text fill="#000000" font-family="sans-serif" font-size="13" font-weight="bold" lengthAdjust="spacing" textLength="18" x="950.5" y="747.377">21</text><text fill="#000000" font-family="sans-serif" font-size="13" lengthAdjust="spacing" textLength="294" x="972.5" y="747.377">propagateLessonByFrequency(recurringLesson)</text><polygon fill="#181818" points="2154.5,777.4297,2164.5,781.4297,2154.5,785.4297,2158.5,781.4297" style="stroke:#181818;stroke-width:1.0;"/><line style="stroke:#181818;stroke-width:1.0;" x1="943.5" x2="2160.5" y1="781.4297" y2="781.4297"/><text fill="#000000" font-family="sans-serif" font-size="13" font-weight="bold" lengthAdjust="spacing" textLength="18" x="950.5" y="776.6875">22</text><text fill="#000000" font-family="sans-serif" font-size="13" lengthAdjust="spacing" textLength="316" x="972.5" y="776.6875">validateRecurringLesson(teacher, recurringLesson)</text><polygon fill="#181818" points="1312,806.7402,1322,810.7402,1312,814.7402,1316,810.7402" style="stroke:#181818;stroke-width:1.0;"/><line style="stroke:#181818;stroke-width:1.0;" x1="943.5" x2="1318" y1="810.7402" y2="810.7402"/><text fill="#000000" font-family="sans-serif" font-size="13" font-weight="bold" lengthAdjust="spacing" textLength="18" x="950.5" y="805.998">23</text><text fill="#000000" font-family="sans-serif" font-size="13" lengthAdjust="spacing" textLength="83" x="972.5" y="805.998">repositories()</text><polygon fill="#181818" points="1472,836.0508,1482,840.0508,1472,844.0508,1476,840.0508" style="stroke:#181818;stroke-width:1.0;"/><line style="stroke:#181818;stroke-width:1.0;" x1="1334" x2="1478" y1="840.0508" y2="840.0508"/><text fill="#000000" font-family="sans-serif" font-size="13" font-weight="bold" lengthAdjust="spacing" textLength="18" x="1341" y="835.3086">24</text><text fill="#000000" font-family="sans-serif" font-size="13" lengthAdjust="spacing" textLength="86" x="1363" y="835.3086">newInstance()</text><polygon fill="#181818" points="1345,865.3613,1335,869.3613,1345,873.3613,1341,869.3613" style="stroke:#181818;stroke-width:1.0;"/><line style="stroke:#181818;stroke-width:1.0;" x1="1339" x2="1488" y1="869.3613" y2="869.3613"/><text fill="#000000" font-family="sans-serif" font-size="13" font-weight="bold" lengthAdjust="spacing" textLength="18" x="1351" y="864.6191">25</text><text fill="#000000" font-family="sans-serif" font-size="13" lengthAdjust="spacing" textLength="104" x="1373" y="864.6191">RecurringLesson</text><polygon fill="#181818" points="954.5,894.6719,944.5,898.6719,954.5,902.6719,950.5,898.6719" style="stroke:#181818;stroke-width:1.0;"/><line style="stroke:#181818;stroke-width:1.0;" x1="948.5" x2="1328" y1="898.6719" y2="898.6719"/><text fill="#000000" font-family="sans-serif" font-size="13" font-weight="bold" lengthAdjust="spacing" textLength="18" x="960.5" y="893.9297">26</text><text fill="#000000" font-family="sans-serif" font-size="13" lengthAdjust="spacing" textLength="104" x="982.5" y="893.9297">RecurringLesson</text><polygon fill="#181818" points="1647,923.9824,1657,927.9824,1647,931.9824,1651,927.9824" style="stroke:#181818;stroke-width:1.0;"/><line style="stroke:#181818;stroke-width:1.0;" x1="943.5" x2="1653" y1="927.9824" y2="927.9824"/><text fill="#000000" font-family="sans-serif" font-size="13" font-weight="bold" lengthAdjust="spacing" textLength="18" x="950.5" y="923.2402">27</text><text fill="#000000" font-family="sans-serif" font-size="13" lengthAdjust="spacing" textLength="137" x="972.5" y="923.2402">save(recurringLesson)</text><polygon fill="#181818" points="954.5,953.293,944.5,957.293,954.5,961.293,950.5,957.293" style="stroke:#181818;stroke-width:1.0;"/><line style="stroke:#181818;stroke-width:1.0;" x1="948.5" x2="1663" y1="957.293" y2="957.293"/><text fill="#000000" font-family="sans-serif" font-size="13" font-weight="bold" lengthAdjust="spacing" textLength="18" x="960.5" y="952.5508">28</text><text fill="#000000" font-family="sans-serif" font-size="13" lengthAdjust="spacing" textLength="101" x="982.5" y="952.5508">recurringLesson</text><polygon fill="#181818" points="407.5,982.6035,397.5,986.6035,407.5,990.6035,403.5,986.6035" style="stroke:#181818;stroke-width:1.0;"/><line style="stroke:#181818;stroke-width:1.0;" x1="401.5" x2="937.5" y1="986.6035" y2="986.6035"/><text fill="#000000" font-family="sans-serif" font-size="13" font-weight="bold" lengthAdjust="spacing" textLength="18" x="413.5" y="981.8613">29</text><text fill="#000000" font-family="sans-serif" font-size="13" lengthAdjust="spacing" textLength="101" x="435.5" y="981.8613">recurringLesson</text><polygon fill="#181818" points="42.5,1011.9141,32.5,1015.9141,42.5,1019.9141,38.5,1015.9141" style="stroke:#181818;stroke-width:1.0;"/><line style="stroke:#181818;stroke-width:1.0;" x1="36.5" x2="385.5" y1="1015.9141" y2="1015.9141"/><text fill="#000000" font-family="sans-serif" font-size="13" font-weight="bold" lengthAdjust="spacing" textLength="18" x="48.5" y="1011.1719">30</text><text fill="#000000" font-family="sans-serif" font-size="13" lengthAdjust="spacing" textLength="86" x="70.5" y="1011.1719">back to menu</text><!--SRC=[hLPBRjim4Dtp54GtJO1yzePWm7KQ84201FdikXbBOuk8HAeavSIvJXSvI2xMeKHP52KxNHG876euxysNGtxFhQtCxFAoAa3QkYmkKbLU6lnTeqpnF1EmqL0o1hLLiYvNg6cTMgNvmlswjTY2HVyf5IsrsEIMgtKhc_6VRyAGk2wvGRqLdn-Aan4ENAEfb3Im4eN884DEVrlKOYrIqBIV2RSl-ct5AwtMQ0pPbuhsWPUWKw0D97tQh603dn-VVsWJUE4q9Qz00-skTHiLWT1OKTK5PC1equfKL1GzNsgaK1umhRKMSdFRm9zlE1XElqboJmwZj625alFvrz2babQhea3jA8Al95bKLK5HJZ1573zgKMGjGRTCabMxYf3tg8tBD1NEsS8twr21b91L_pMoMoaZg62xwwR0EmVkbacoRbS4oi322Wp6dlO43ZcI9Kd_4R8y8QGvwY5wB3m4NwfQ6noYHx8878RzhUl9MHJEevEd-CqH-ZNnNAaIX3p8iQXjhhHuRmeRChYDzqFuoBBJZqK1ah7cNF7pENNbRBhpJaxxa_bymwXxIRjlm1dVeFKvRfDbGaIlo8AczVRILjzp-YDki42tQiakJAvUYN3WvsEZOhYIw6Q3pN6QQc5U-3CbjD7GNLZTMHPohNJPf7T8BsHLso1llW6v5RR0CsuivPjcWjslhIZnb-GeCo_EQjtmSY1HDonsR29vwMJAGqjN3IDnN_KMdyXWR-MiDt7AeZGtpUAIQenmjRoWQj4lpU2SneyR6vYv596ifdyIIWpBry1Pst6Hvvqwop1I7temEdzDnomfNdB0RuOcH_fiV88ZLsoh47eoPXbw5P_hBzjugCv6So6kg-_7mAK9Zj0ZVyIT8nBrk2dCoLGx19NV6_9Ch1iraMktDBIJ9HJ40NfE7RkxMz-bQLEGT53EZcZegByxPhovEkxqKwwR8xg7UGNMNJA4YMAPyV_OyNkx4IUB1r_ekuvqWwXZcY2CC8r76Be472YmVrjOzDVoxheBvYGYdIZg0Sujk8VDn2HfM_gCZvY_h7DmsxjeVTkAuS48b5ZuF22yl_1dNEBhZQGgaZo4-dtMFGnYam-74zn18ujXUOwWGv-78SSl3HgSiCKZLOa1RFHM-VUk6N6DBymZwE2YRI-pvBo1h21zuLRn4cNDs5y0]--></g></svg>