<?xml version="1.0" encoding="UTF-8" standalone="no"?><svg xmlns="http://www.w3.org/2000/svg" xmlns:xlink="http://www.w3.org/1999/xlink" contentStyleType="text/css" height="733px" preserveAspectRatio="none" style="width:1267px;height:733px;background:#FFFFFF;" version="1.1" viewBox="0 0 1267 733" width="1267px" zoomAndPan="magnify"><defs/><g><!--class RecurringLessonUI--><g id="elem_RecurringLessonUI"><rect codeLine="2" fill="#F1F1F1" height="64.4883" id="RecurringLessonUI" rx="2.5" ry="2.5" style="stroke:#181818;stroke-width:0.5;" width="160" x="806.5" y="7"/><ellipse cx="821.5" cy="23" fill="#ADD1B2" rx="11" ry="11" style="stroke:#181818;stroke-width:1.0;"/><path d="M824.4731,28.6431 Q823.8921,28.9419 823.2529,29.0913 Q822.6138,29.2407 821.9082,29.2407 Q819.4014,29.2407 818.0815,27.5889 Q816.7617,25.937 816.7617,22.8159 Q816.7617,19.6865 818.0815,18.0347 Q819.4014,16.3828 821.9082,16.3828 Q822.6138,16.3828 823.2612,16.5322 Q823.9087,16.6816 824.4731,16.9805 L824.4731,19.7031 Q823.8423,19.1221 823.2488,18.8523 Q822.6553,18.5825 822.0244,18.5825 Q820.6797,18.5825 819.9949,19.6492 Q819.3101,20.7158 819.3101,22.8159 Q819.3101,24.9077 819.9949,25.9744 Q820.6797,27.041 822.0244,27.041 Q822.6553,27.041 823.2488,26.7712 Q823.8423,26.5015 824.4731,25.9204 Z " fill="#000000"/><text fill="#000000" font-family="sans-serif" font-size="14" lengthAdjust="spacing" textLength="128" x="835.5" y="28.291">RecurringLessonUI</text><line style="stroke:#181818;stroke-width:0.5;" x1="807.5" x2="965.5" y1="39" y2="39"/><line style="stroke:#181818;stroke-width:0.5;" x1="807.5" x2="965.5" y1="47" y2="47"/><ellipse cx="817.5" cy="60.7441" fill="#84BE84" rx="3" ry="3" style="stroke:#038048;stroke-width:1.0;"/><text fill="#000000" font-family="sans-serif" font-size="14" lengthAdjust="spacing" textLength="65" x="826.5" y="64.5352">doShow()</text></g><!--class CreateRecurringLessonController--><g id="elem_CreateRecurringLessonController"><rect codeLine="6" fill="#F1F1F1" height="64.4883" id="CreateRecurringLessonController" rx="2.5" ry="2.5" style="stroke:#181818;stroke-width:0.5;" width="261" x="756" y="131.49"/><ellipse cx="771" cy="147.49" fill="#ADD1B2" rx="11" ry="11" style="stroke:#181818;stroke-width:1.0;"/><path d="M773.9731,153.1331 Q773.3921,153.4319 772.7529,153.5813 Q772.1138,153.7307 771.4082,153.7307 Q768.9014,153.7307 767.5815,152.0789 Q766.2617,150.427 766.2617,147.3059 Q766.2617,144.1765 767.5815,142.5247 Q768.9014,140.8728 771.4082,140.8728 Q772.1138,140.8728 772.7612,141.0222 Q773.4087,141.1716 773.9731,141.4705 L773.9731,144.1931 Q773.3423,143.6121 772.7488,143.3423 Q772.1553,143.0725 771.5244,143.0725 Q770.1797,143.0725 769.4949,144.1392 Q768.8101,145.2058 768.8101,147.3059 Q768.8101,149.3977 769.4949,150.4644 Q770.1797,151.531 771.5244,151.531 Q772.1553,151.531 772.7488,151.2612 Q773.3423,150.9915 773.9731,150.4104 Z " fill="#000000"/><text fill="#000000" font-family="sans-serif" font-size="14" lengthAdjust="spacing" textLength="229" x="785" y="152.781">CreateRecurringLessonController</text><line style="stroke:#181818;stroke-width:0.5;" x1="757" x2="1016" y1="163.49" y2="163.49"/><line style="stroke:#181818;stroke-width:0.5;" x1="757" x2="1016" y1="171.49" y2="171.49"/><ellipse cx="767" cy="185.2341" fill="#84BE84" rx="3" ry="3" style="stroke:#038048;stroke-width:1.0;"/><text fill="#000000" font-family="sans-serif" font-size="14" lengthAdjust="spacing" textLength="166" x="776" y="189.0252">createRecurringLesson()</text></g><!--class RecurringLesson--><g id="elem_RecurringLesson"><rect codeLine="10" fill="#F1F1F1" height="64.4883" id="RecurringLesson" rx="2.5" ry="2.5" style="stroke:#181818;stroke-width:0.5;" width="557" x="7" y="272.47"/><ellipse cx="224.25" cy="288.47" fill="#ADD1B2" rx="11" ry="11" style="stroke:#181818;stroke-width:1.0;"/><path d="M227.2231,294.1131 Q226.6421,294.4119 226.0029,294.5613 Q225.3638,294.7107 224.6582,294.7107 Q222.1514,294.7107 220.8315,293.0589 Q219.5117,291.407 219.5117,288.2859 Q219.5117,285.1565 220.8315,283.5047 Q222.1514,281.8528 224.6582,281.8528 Q225.3638,281.8528 226.0112,282.0022 Q226.6587,282.1516 227.2231,282.4505 L227.2231,285.1731 Q226.5923,284.5921 225.9988,284.3223 Q225.4053,284.0525 224.7744,284.0525 Q223.4297,284.0525 222.7449,285.1192 Q222.0601,286.1858 222.0601,288.2859 Q222.0601,290.3777 222.7449,291.4444 Q223.4297,292.511 224.7744,292.511 Q225.4053,292.511 225.9988,292.2412 Q226.5923,291.9715 227.2231,291.3904 Z " fill="#000000"/><text fill="#000000" font-family="sans-serif" font-size="14" lengthAdjust="spacing" textLength="114" x="244.75" y="293.761">RecurringLesson</text><line style="stroke:#181818;stroke-width:0.5;" x1="8" x2="563" y1="304.47" y2="304.47"/><line style="stroke:#181818;stroke-width:0.5;" x1="8" x2="563" y1="312.47" y2="312.47"/><ellipse cx="18" cy="326.2141" fill="#84BE84" rx="3" ry="3" style="stroke:#038048;stroke-width:1.0;"/><text fill="#000000" font-family="sans-serif" font-size="14" lengthAdjust="spacing" textLength="531" x="27" y="330.0052">updateScheduleOfLesson(Calendar startDate, Calendar endDate, int duration)</text></g><!--class ScheduleLessonService--><g id="elem_ScheduleLessonService"><rect codeLine="14" fill="#F1F1F1" height="97.4648" id="ScheduleLessonService" rx="2.5" ry="2.5" style="stroke:#181818;stroke-width:0.5;" width="575" x="599" y="255.98"/><ellipse cx="803.75" cy="271.98" fill="#ADD1B2" rx="11" ry="11" style="stroke:#181818;stroke-width:1.0;"/><path d="M806.7231,277.6231 Q806.1421,277.9219 805.5029,278.0713 Q804.8638,278.2207 804.1582,278.2207 Q801.6514,278.2207 800.3315,276.5689 Q799.0117,274.917 799.0117,271.7959 Q799.0117,268.6665 800.3315,267.0147 Q801.6514,265.3628 804.1582,265.3628 Q804.8638,265.3628 805.5112,265.5122 Q806.1587,265.6616 806.7231,265.9605 L806.7231,268.6831 Q806.0923,268.1021 805.4988,267.8323 Q804.9053,267.5625 804.2744,267.5625 Q802.9297,267.5625 802.2449,268.6292 Q801.5601,269.6958 801.5601,271.7959 Q801.5601,273.8877 802.2449,274.9544 Q802.9297,276.021 804.2744,276.021 Q804.9053,276.021 805.4988,275.7512 Q806.0923,275.4815 806.7231,274.9004 Z " fill="#000000"/><text fill="#000000" font-family="sans-serif" font-size="14" lengthAdjust="spacing" textLength="157" x="824.25" y="277.271">ScheduleLessonService</text><line style="stroke:#181818;stroke-width:0.5;" x1="600" x2="1173" y1="287.98" y2="287.98"/><line style="stroke:#181818;stroke-width:0.5;" x1="600" x2="1173" y1="295.98" y2="295.98"/><ellipse cx="610" cy="309.7241" fill="#84BE84" rx="3" ry="3" style="stroke:#038048;stroke-width:1.0;"/><text fill="#000000" font-family="sans-serif" font-size="14" lengthAdjust="spacing" textLength="147" x="619" y="313.5152">allRecurringLessons()</text><ellipse cx="610" cy="326.2124" fill="#84BE84" rx="3" ry="3" style="stroke:#038048;stroke-width:1.0;"/><text fill="#000000" font-family="sans-serif" font-size="14" lengthAdjust="spacing" textLength="549" x="619" y="330.0034">generateRecurringLessons(Calendar startDate, Calendar endDate, int frequency)</text><ellipse cx="610" cy="342.7007" fill="#84BE84" rx="3" ry="3" style="stroke:#038048;stroke-width:1.0;"/><text fill="#000000" font-family="sans-serif" font-size="14" lengthAdjust="spacing" textLength="524" x="619" y="346.4917">validateRecurringLesson(Teacher teacher, RecurringLesson recurringLesson)</text></g><!--class RepositoryFactory--><g id="elem_RepositoryFactory"><rect codeLine="20" fill="#F1F1F1" height="64.4883" id="RepositoryFactory" rx="2.5" ry="2.5" style="stroke:#181818;stroke-width:0.5;" width="155" x="979" y="554.42"/><ellipse cx="994" cy="570.42" fill="#ADD1B2" rx="11" ry="11" style="stroke:#181818;stroke-width:1.0;"/><path d="M996.9731,576.0631 Q996.3921,576.3619 995.7529,576.5113 Q995.1138,576.6607 994.4082,576.6607 Q991.9014,576.6607 990.5815,575.0089 Q989.2617,573.357 989.2617,570.2359 Q989.2617,567.1065 990.5815,565.4547 Q991.9014,563.8028 994.4082,563.8028 Q995.1138,563.8028 995.7612,563.9522 Q996.4087,564.1016 996.9731,564.4005 L996.9731,567.1231 Q996.3423,566.5421 995.7488,566.2723 Q995.1553,566.0025 994.5244,566.0025 Q993.1797,566.0025 992.4949,567.0692 Q991.8101,568.1358 991.8101,570.2359 Q991.8101,572.3277 992.4949,573.3944 Q993.1797,574.461 994.5244,574.461 Q995.1553,574.461 995.7488,574.1912 Q996.3423,573.9215 996.9731,573.3404 Z " fill="#000000"/><text fill="#000000" font-family="sans-serif" font-size="14" lengthAdjust="spacing" textLength="123" x="1008" y="575.711">RepositoryFactory</text><line style="stroke:#181818;stroke-width:0.5;" x1="980" x2="1133" y1="586.42" y2="586.42"/><line style="stroke:#181818;stroke-width:0.5;" x1="980" x2="1133" y1="594.42" y2="594.42"/><ellipse cx="990" cy="608.1641" fill="#84BE84" rx="3" ry="3" style="stroke:#038048;stroke-width:1.0;"/><text fill="#000000" font-family="sans-serif" font-size="14" lengthAdjust="spacing" textLength="52" x="999" y="611.9552">create()</text></g><!--class PersistenceContext--><g id="elem_PersistenceContext"><rect codeLine="24" fill="#F1F1F1" height="80.9766" id="PersistenceContext" rx="2.5" ry="2.5" style="stroke:#181818;stroke-width:0.5;" width="408" x="852.5" y="413.45"/><ellipse cx="986.25" cy="429.45" fill="#ADD1B2" rx="11" ry="11" style="stroke:#181818;stroke-width:1.0;"/><path d="M989.2231,435.0931 Q988.6421,435.3919 988.0029,435.5413 Q987.3638,435.6907 986.6582,435.6907 Q984.1514,435.6907 982.8315,434.0389 Q981.5117,432.387 981.5117,429.2659 Q981.5117,426.1365 982.8315,424.4847 Q984.1514,422.8328 986.6582,422.8328 Q987.3638,422.8328 988.0112,422.9822 Q988.6587,423.1316 989.2231,423.4305 L989.2231,426.1531 Q988.5923,425.5721 987.9988,425.3023 Q987.4053,425.0325 986.7744,425.0325 Q985.4297,425.0325 984.7449,426.0992 Q984.0601,427.1658 984.0601,429.2659 Q984.0601,431.3577 984.7449,432.4244 Q985.4297,433.491 986.7744,433.491 Q987.4053,433.491 987.9988,433.2212 Q988.5923,432.9515 989.2231,432.3704 Z " fill="#000000"/><text fill="#000000" font-family="sans-serif" font-size="14" lengthAdjust="spacing" textLength="132" x="1006.75" y="434.741">PersistenceContext</text><line style="stroke:#181818;stroke-width:0.5;" x1="853.5" x2="1259.5" y1="445.45" y2="445.45"/><rect fill="none" height="6" style="stroke:#C82930;stroke-width:1.0;" width="6" x="860.5" y="456.1941"/><text fill="#000000" font-family="sans-serif" font-size="14" lengthAdjust="spacing" textLength="382" x="872.5" y="462.9852">RecurringLessonRepository: RecurringLessonRepository</text><line style="stroke:#181818;stroke-width:0.5;" x1="853.5" x2="1259.5" y1="469.9383" y2="469.9383"/><ellipse cx="863.5" cy="483.6824" fill="#84BE84" rx="3" ry="3" style="stroke:#038048;stroke-width:1.0;"/><text fill="#000000" font-family="sans-serif" font-size="14" lengthAdjust="spacing" textLength="92" x="872.5" y="487.4734">repositories()</text></g><!--class RecurringLessonRepository--><g id="elem_RecurringLessonRepository"><rect codeLine="29" fill="#F1F1F1" height="48" id="RecurringLessonRepository" rx="2.5" ry="2.5" style="stroke:#181818;stroke-width:0.5;" width="219" x="947" y="678.91"/><ellipse cx="962" cy="694.91" fill="#ADD1B2" rx="11" ry="11" style="stroke:#181818;stroke-width:1.0;"/><path d="M964.9731,700.5531 Q964.3921,700.8519 963.7529,701.0013 Q963.1138,701.1507 962.4082,701.1507 Q959.9014,701.1507 958.5815,699.4989 Q957.2617,697.847 957.2617,694.7259 Q957.2617,691.5965 958.5815,689.9447 Q959.9014,688.2928 962.4082,688.2928 Q963.1138,688.2928 963.7612,688.4422 Q964.4087,688.5916 964.9731,688.8905 L964.9731,691.6131 Q964.3423,691.0321 963.7488,690.7623 Q963.1553,690.4925 962.5244,690.4925 Q961.1797,690.4925 960.4949,691.5592 Q959.8101,692.6258 959.8101,694.7259 Q959.8101,696.8177 960.4949,697.8844 Q961.1797,698.951 962.5244,698.951 Q963.1553,698.951 963.7488,698.6812 Q964.3423,698.4115 964.9731,697.8304 Z " fill="#000000"/><text fill="#000000" font-family="sans-serif" font-size="14" lengthAdjust="spacing" textLength="187" x="976" y="700.201">RecurringLessonRepository</text><line style="stroke:#181818;stroke-width:0.5;" x1="948" x2="1165" y1="710.91" y2="710.91"/><line style="stroke:#181818;stroke-width:0.5;" x1="948" x2="1165" y1="718.91" y2="718.91"/></g><!--link RecurringLessonUI to CreateRecurringLessonController--><g id="link_RecurringLessonUI_CreateRecurringLessonController"><path codeLine="32" d="M886.5,71.79 C886.5,88.22 886.5,108.42 886.5,125.6 " fill="none" id="RecurringLessonUI-to-CreateRecurringLessonController" style="stroke:#181818;stroke-width:1.0;"/><polygon fill="#181818" points="886.5,130.3,890.5,121.3,886.5,125.3,882.5,121.3,886.5,130.3" style="stroke:#181818;stroke-width:1.0;"/></g><!--link CreateRecurringLessonController to ScheduleLessonService--><g id="link_CreateRecurringLessonController_ScheduleLessonService"><path codeLine="33" d="M886.5,196.27 C886.5,212.17 886.5,231.88 886.5,250.07 " fill="none" id="CreateRecurringLessonController-to-ScheduleLessonService" style="stroke:#181818;stroke-width:1.0;"/><polygon fill="#181818" points="886.5,254.66,890.5,245.66,886.5,249.66,882.5,245.66,886.5,254.66" style="stroke:#181818;stroke-width:1.0;"/></g><!--link ScheduleLessonService to PersistenceContext--><g id="link_ScheduleLessonService_PersistenceContext"><path codeLine="34" d="M942.16,353.92 C962.69,371.69 985.82,391.72 1005.87,409.09 " fill="none" id="ScheduleLessonService-to-PersistenceContext" style="stroke:#181818;stroke-width:1.0;"/><polygon fill="#181818" points="1009.37,412.98,1005.2116,404.0521,1005.6,409.6956,999.9565,410.084,1009.37,412.98" style="stroke:#181818;stroke-width:1.0;"/></g><!--link CreateRecurringLessonController to PersistenceContext--><g id="link_CreateRecurringLessonController_PersistenceContext"><path codeLine="35" d="M1017.35,187.81 C1089.91,203.55 1169.8,226.83 1191.5,255.98 C1217.37,290.72 1211.03,314.78 1191.5,353.45 C1180.03,376.15 1160.65,394.95 1140.11,409.86 " fill="none" id="CreateRecurringLessonController-to-PersistenceContext" style="stroke:#181818;stroke-width:1.0;"/><polygon fill="#181818" points="1136.44,413.18,1146.0944,411.2326,1140.5173,410.286,1141.4639,404.7089,1136.44,413.18" style="stroke:#181818;stroke-width:1.0;"/></g><!--link PersistenceContext to RepositoryFactory--><g id="link_PersistenceContext_RepositoryFactory"><path codeLine="36" d="M1056.5,494.87 C1056.5,512 1056.5,531.9 1056.5,548.7 " fill="none" id="PersistenceContext-to-RepositoryFactory" style="stroke:#181818;stroke-width:1.0;"/><polygon fill="#181818" points="1056.5,553.26,1060.5,544.26,1056.5,548.26,1052.5,544.26,1056.5,553.26" style="stroke:#181818;stroke-width:1.0;"/></g><!--link RepositoryFactory to RecurringLessonRepository--><g id="link_RepositoryFactory_RecurringLessonRepository"><path codeLine="37" d="M1056.5,619.19 C1056.5,635.89 1056.5,656.28 1056.5,672.64 " fill="none" id="RepositoryFactory-to-RecurringLessonRepository" style="stroke:#181818;stroke-width:1.0;"/><polygon fill="#181818" points="1056.5,677.47,1060.5,668.47,1056.5,672.47,1052.5,668.47,1056.5,677.47" style="stroke:#181818;stroke-width:1.0;"/></g><!--link CreateRecurringLessonController to RecurringLesson--><g id="link_CreateRecurringLessonController_RecurringLesson"><path codeLine="38" d="M755.72,194.98 C659.05,217.33 527.51,247.75 428.13,270.73 " fill="none" id="CreateRecurringLessonController-to-RecurringLesson" style="stroke:#181818;stroke-width:1.0;"/><polygon fill="#181818" points="423.53,272.02,433.2006,273.8855,428.401,270.8915,431.395,266.092,423.53,272.02" style="stroke:#181818;stroke-width:1.0;"/></g><!--SRC=[bL91JiCm4Bpx5Jw2Q3x0WKiG4X8IYC03B7lRMhBiTjSkL8Y_OpS9JMoNbXmIsJkpEvbPQGGHVmKP4BLTFG6Hi- -F_8ln-DmerwtTnzKr-sPC7g0jWl2G4LfdFJfZ04UYhC6cVRBIo0iR5NcTN8CA1fwN0x4L1gmIoCaBzFSHik2_T_7TtsZhkGeel7PsCchirlVg07TQmZXG69D9eIZpK5g11Ip_WlwXPecm3M3bVcYv4qQhYZ5l8A98vBx_BWfxS7wU6RbnfBt3_OEGwJEFOEhv2o1fyb4FfCJWqm_O9Xjtx7dBJvRwAJYUDT0V-HvfSMG4bHlND7VdbekTMxxKevesg-z0mfUcN3IcGglOcv15GAoChCUTCleIFLcL_G00]--></g></svg>