<?xml version="1.0" encoding="UTF-8" standalone="no"?><svg xmlns="http://www.w3.org/2000/svg" xmlns:xlink="http://www.w3.org/1999/xlink" contentStyleType="text/css" height="1304px" preserveAspectRatio="none" style="width:343px;height:1304px;background:#FFFFFF;" version="1.1" viewBox="0 0 343 1304" width="343px" zoomAndPan="magnify"><defs/><g><!--entity Teacher--><g id="elem_Teacher"><ellipse cx="171.8" cy="14" fill="#F1F1F1" rx="8" ry="8" style="stroke:#181818;stroke-width:0.5;"/><path d="M171.8,22 L171.8,49 M158.8,30 L184.8,30 M171.8,49 L158.8,64 M171.8,49 L184.8,64 " fill="none" style="stroke:#181818;stroke-width:0.5;"/><text fill="#000000" font-family="sans-serif" font-size="14" lengthAdjust="spacing" textLength="55" x="144.3" y="79.0352">Teacher</text></g><g id="elem_Authenticates to the system"><ellipse cx="171.795" cy="166.705" fill="#F1F1F1" rx="111.625" ry="24.725" style="stroke:#181818;stroke-width:0.5;"/><text fill="#000000" font-family="sans-serif" font-size="14" lengthAdjust="spacing" textLength="189" x="77.295" y="169.996">Authenticates to the system</text></g><g id="elem_Select the option Classes"><ellipse cx="171.8007" cy="274.4201" fill="#F1F1F1" rx="102.9007" ry="22.9801" style="stroke:#181818;stroke-width:0.5;"/><text fill="#000000" font-family="sans-serif" font-size="14" lengthAdjust="spacing" textLength="170" x="86.8007" y="277.7112">Select the option Classes</text></g><g id="elem_Selects the option &quot;Create Recurring Lesson&quot;"><ellipse cx="171.8048" cy="392.961" fill="#F1F1F1" rx="165.8048" ry="35.561" style="stroke:#181818;stroke-width:0.5;"/><text fill="#000000" font-family="sans-serif" font-size="14" lengthAdjust="spacing" textLength="303" x="20.3048" y="396.252">Selects the option "Create Recurring Lesson"</text></g><g id="elem_Selects one of the courses he teaches"><ellipse cx="171.799" cy="519.4738" fill="#F1F1F1" rx="142.719" ry="30.9438" style="stroke:#181818;stroke-width:0.5;"/><text fill="#000000" font-family="sans-serif" font-size="14" lengthAdjust="spacing" textLength="255" x="44.299" y="522.7648">Selects one of the courses he teaches</text></g><g id="elem_Inputs the Lesson Title"><ellipse cx="171.8023" cy="631.9445" fill="#F1F1F1" rx="95.6723" ry="21.5345" style="stroke:#181818;stroke-width:0.5;"/><text fill="#000000" font-family="sans-serif" font-size="14" lengthAdjust="spacing" textLength="154" x="94.8023" y="635.2355">Inputs the Lesson Title</text></g><g id="elem_Inputs the Lesson Start date"><ellipse cx="171.7978" cy="738.2976" fill="#F1F1F1" rx="112.0878" ry="24.8176" style="stroke:#181818;stroke-width:0.5;"/><text fill="#000000" font-family="sans-serif" font-size="14" lengthAdjust="spacing" textLength="190" x="76.7978" y="741.5886">Inputs the Lesson Start date</text></g><g id="elem_Inputs the end Date"><ellipse cx="171.804" cy="842.8768" fill="#F1F1F1" rx="86.834" ry="19.7668" style="stroke:#181818;stroke-width:0.5;"/><text fill="#000000" font-family="sans-serif" font-size="14" lengthAdjust="spacing" textLength="134" x="104.804" y="846.1678">Inputs the end Date</text></g><g id="elem_Inputs the start time"><ellipse cx="171.8012" cy="942.7562" fill="#F1F1F1" rx="88.5812" ry="20.1162" style="stroke:#181818;stroke-width:0.5;"/><text fill="#000000" font-family="sans-serif" font-size="14" lengthAdjust="spacing" textLength="138" x="102.8012" y="946.0473">Inputs the start time</text></g><g id="elem_Inputs the duration of the lesson"><ellipse cx="171.8026" cy="1050.8785" fill="#F1F1F1" rx="127.9926" ry="27.9985" style="stroke:#181818;stroke-width:0.5;"/><text fill="#000000" font-family="sans-serif" font-size="14" lengthAdjust="spacing" textLength="224" x="59.8026" y="1054.1695">Inputs the duration of the lesson</text></g><g id="elem_Inputs the frequency of the recurring lesson"><ellipse cx="171.7976" cy="1174.2375" fill="#F1F1F1" rx="164.8376" ry="35.3675" style="stroke:#181818;stroke-width:0.5;"/><text fill="#000000" font-family="sans-serif" font-size="14" lengthAdjust="spacing" textLength="301" x="21.2976" y="1177.5285">Inputs the frequency of the recurring lesson</text></g><g id="elem_save"><ellipse cx="171.7985" cy="1284.269" fill="#F1F1F1" rx="32.6985" ry="14.659" style="stroke:#181818;stroke-width:0.5;"/><text fill="#000000" font-family="sans-serif" font-size="14" lengthAdjust="spacing" textLength="30" x="156.7985" y="1287.56">save</text></g><!--link Teacher to Authenticates to the system--><g id="link_Teacher_Authenticates to the system"><path d="M171.8,82.36 C171.8,99.65 171.8,119.88 171.8,136.07 " fill="none" id="Teacher-to-Authenticates to the system" style="stroke:#181818;stroke-width:1.0;"/><polygon fill="#181818" points="171.8,140.84,175.8,131.84,171.8,135.84,167.8,131.84,171.8,140.84" style="stroke:#181818;stroke-width:1.0;"/></g><!--link Authenticates to the system to Select the option Classes--><g id="link_Authenticates to the system_Select the option Classes"><path d="M171.8,191.7 C171.8,207.54 171.8,228.37 171.8,245.04 " fill="none" id="Authenticates to the system-to-Select the option Classes" style="stroke:#181818;stroke-width:1.0;"/><polygon fill="#181818" points="171.8,249.97,175.8,240.97,171.8,244.97,167.8,240.97,171.8,249.97" style="stroke:#181818;stroke-width:1.0;"/></g><!--link Select the option Classes to Selects the option "Create Recurring Lesson"--><g id="link_Select the option Classes_Selects the option &quot;Create Recurring Lesson&quot;"><path d="M171.8,297.89 C171.8,312.98 171.8,333.31 171.8,351.21 " fill="none" id="Select the option Classes-to-Selects the option &quot;Create Recurring Lesson&quot;" style="stroke:#181818;stroke-width:1.0;"/><polygon fill="#181818" points="171.8,356.17,175.8,347.17,171.8,351.17,167.8,347.17,171.8,356.17" style="stroke:#181818;stroke-width:1.0;"/></g><!--link Selects the option "Create Recurring Lesson" to Selects one of the courses he teaches--><g id="link_Selects the option &quot;Create Recurring Lesson&quot;_Selects one of the courses he teaches"><path d="M171.8,428.97 C171.8,445.78 171.8,465.87 171.8,482.76 " fill="none" id="Selects the option &quot;Create Recurring Lesson&quot;-to-Selects one of the courses he teaches" style="stroke:#181818;stroke-width:1.0;"/><polygon fill="#181818" points="171.8,487.36,175.8,478.36,171.8,482.36,167.8,478.36,171.8,487.36" style="stroke:#181818;stroke-width:1.0;"/></g><!--link Selects one of the courses he teaches to Inputs the Lesson Title--><g id="link_Selects one of the courses he teaches_Inputs the Lesson Title"><path d="M171.8,550.65 C171.8,567.5 171.8,588.28 171.8,604.48 " fill="none" id="Selects one of the courses he teaches-to-Inputs the Lesson Title" style="stroke:#181818;stroke-width:1.0;"/><polygon fill="#181818" points="171.8,609.23,175.8,600.23,171.8,604.23,167.8,600.23,171.8,609.23" style="stroke:#181818;stroke-width:1.0;"/></g><!--link Inputs the Lesson Title to Inputs the Lesson Start date--><g id="link_Inputs the Lesson Title_Inputs the Lesson Start date"><path d="M171.8,653.81 C171.8,669.2 171.8,690.36 171.8,707.52 " fill="none" id="Inputs the Lesson Title-to-Inputs the Lesson Start date" style="stroke:#181818;stroke-width:1.0;"/><polygon fill="#181818" points="171.8,712.18,175.8,703.18,171.8,707.18,167.8,703.18,171.8,712.18" style="stroke:#181818;stroke-width:1.0;"/></g><!--link Inputs the Lesson Start date to Inputs the end Date--><g id="link_Inputs the Lesson Start date_Inputs the end Date"><path d="M171.8,763.61 C171.8,779.75 171.8,800.89 171.8,817.13 " fill="none" id="Inputs the Lesson Start date-to-Inputs the end Date" style="stroke:#181818;stroke-width:1.0;"/><polygon fill="#181818" points="171.8,821.87,175.8,812.87,171.8,816.87,167.8,812.87,171.8,821.87" style="stroke:#181818;stroke-width:1.0;"/></g><!--link Inputs the end Date to Inputs the start time--><g id="link_Inputs the end Date_Inputs the start time"><path d="M171.8,862.75 C171.8,877.99 171.8,899.58 171.8,916.34 " fill="none" id="Inputs the end Date-to-Inputs the start time" style="stroke:#181818;stroke-width:1.0;"/><polygon fill="#181818" points="171.8,921.28,175.8,912.28,171.8,916.28,167.8,912.28,171.8,921.28" style="stroke:#181818;stroke-width:1.0;"/></g><!--link Inputs the start time to Inputs the duration of the lesson--><g id="link_Inputs the start time_Inputs the duration of the lesson"><path d="M171.8,963.23 C171.8,978.17 171.8,999.16 171.8,1016.73 " fill="none" id="Inputs the start time-to-Inputs the duration of the lesson" style="stroke:#181818;stroke-width:1.0;"/><polygon fill="#181818" points="171.8,1021.55,175.8,1012.55,171.8,1016.55,167.8,1012.55,171.8,1021.55" style="stroke:#181818;stroke-width:1.0;"/></g><!--link Inputs the duration of the lesson to Inputs the frequency of the recurring lesson--><g id="link_Inputs the duration of the lesson_Inputs the frequency of the recurring lesson"><path d="M171.8,1079.12 C171.8,1094.94 171.8,1115.17 171.8,1132.82 " fill="none" id="Inputs the duration of the lesson-to-Inputs the frequency of the recurring lesson" style="stroke:#181818;stroke-width:1.0;"/><polygon fill="#181818" points="171.8,1137.7,175.8,1128.7,171.8,1132.7,167.8,1128.7,171.8,1137.7" style="stroke:#181818;stroke-width:1.0;"/></g><!--link Inputs the frequency of the recurring lesson to save--><g id="link_Inputs the frequency of the recurring lesson_save"><path d="M171.8,1210.02 C171.8,1227.77 171.8,1248.71 171.8,1263.65 " fill="none" id="Inputs the frequency of the recurring lesson-to-save" style="stroke:#181818;stroke-width:1.0;"/><polygon fill="#181818" points="171.8,1268.25,175.8,1259.25,171.8,1263.25,167.8,1259.25,171.8,1268.25" style="stroke:#181818;stroke-width:1.0;"/></g><!--SRC=[ZP71JiCm38RlVGfh5-1GUkU0XCO5YHFR2rYfjqPAayvsG7jxihHC7Lq6ELHf_N-V4_UkKntagMa6XrvZxnvDw9ieL1jCZzRYdh6lJWkD1eOjeUc8AqXhsaFTXYzVFyFzIzIEl5g3IW8Q8Bs274MfVyZ4pGJK9yU671dDtyEWDdXOEnGXcGpb-foNUM2rPahzu8DCPBP-3-ya4lpgGlbFvB9By0dPPTA4oEaOaBQQ1oE_zBUpe_VD3t4woTWGjbOTJQPIjSHk55cXJHSf2cQHXOLy2wzNuNDbmKZsgUslKBFQWciZOvxyD26NZxTq578Btuxf4CcRuq-Gpt-ofFuR6Ri8VgRBLTy0]--></g></svg>