<?xml version="1.0" encoding="UTF-8" standalone="no"?><svg xmlns="http://www.w3.org/2000/svg" xmlns:xlink="http://www.w3.org/1999/xlink" contentStyleType="text/css" height="777px" preserveAspectRatio="none" style="width:2120px;height:777px;background:#FFFFFF;" version="1.1" viewBox="0 0 2120 777" width="2120px" zoomAndPan="magnify"><defs/><g><rect fill="#FFFFFF" height="579.2109" style="stroke:#181818;stroke-width:1.0;" width="10" x="21.5" y="93.9766"/><rect fill="#FFFFFF" height="522.5898" style="stroke:#181818;stroke-width:1.0;" width="10" x="369.5" y="150.5977"/><rect fill="#FFFFFF" height="381.0371" style="stroke:#181818;stroke-width:1.0;" width="10" x="911.5" y="253.8398"/><rect fill="#FFFFFF" height="87.9316" style="stroke:#181818;stroke-width:1.0;" width="10" x="1131" y="283.1504"/><rect fill="#FFFFFF" height="87.9316" style="stroke:#181818;stroke-width:1.0;" width="10" x="1302" y="459.0137"/><rect fill="#FFFFFF" height="29.3105" style="stroke:#181818;stroke-width:1.0;" width="10" x="1462" y="488.3242"/><rect fill="#FFFFFF" height="29.3105" style="stroke:#181818;stroke-width:1.0;" width="10" x="1637" y="576.2559"/><rect fill="#FFFFFF" height="29.3105" style="stroke:#181818;stroke-width:1.0;" width="10" x="1857.5" y="400.3926"/><rect fill="#FFFFFF" height="29.3105" style="stroke:#181818;stroke-width:1.0;" width="10" x="2045.5" y="312.4609"/><line style="stroke:#181818;stroke-width:0.5;stroke-dasharray:5.0,5.0;" x1="26" x2="26" y1="83.9766" y2="682.1875"/><line style="stroke:#181818;stroke-width:0.5;stroke-dasharray:5.0,5.0;" x1="374" x2="374" y1="83.9766" y2="682.1875"/><line style="stroke:#181818;stroke-width:0.5;stroke-dasharray:5.0,5.0;" x1="916" x2="916" y1="83.9766" y2="682.1875"/><line style="stroke:#181818;stroke-width:0.5;stroke-dasharray:5.0,5.0;" x1="1136" x2="1136" y1="83.9766" y2="682.1875"/><line style="stroke:#181818;stroke-width:0.5;stroke-dasharray:5.0,5.0;" x1="1307" x2="1307" y1="83.9766" y2="682.1875"/><line style="stroke:#181818;stroke-width:0.5;stroke-dasharray:5.0,5.0;" x1="1466.5" x2="1466.5" y1="83.9766" y2="682.1875"/><line style="stroke:#181818;stroke-width:0.5;stroke-dasharray:5.0,5.0;" x1="1641.5" x2="1641.5" y1="83.9766" y2="682.1875"/><line style="stroke:#181818;stroke-width:0.5;stroke-dasharray:5.0,5.0;" x1="1862.5" x2="1862.5" y1="83.9766" y2="682.1875"/><line style="stroke:#181818;stroke-width:0.5;stroke-dasharray:5.0,5.0;" x1="2050.5" x2="2050.5" y1="83.9766" y2="682.1875"/><text fill="#000000" font-family="sans-serif" font-size="14" lengthAdjust="spacing" textLength="37" x="5" y="81.0234">Actor</text><ellipse cx="26.5" cy="15.9883" fill="#E2E2F0" rx="8" ry="8" style="stroke:#181818;stroke-width:0.5;"/><path d="M26.5,23.9883 L26.5,50.9883 M13.5,31.9883 L39.5,31.9883 M26.5,50.9883 L13.5,65.9883 M26.5,50.9883 L39.5,65.9883 " fill="none" style="stroke:#181818;stroke-width:0.5;"/><text fill="#000000" font-family="sans-serif" font-size="14" lengthAdjust="spacing" textLength="37" x="5" y="694.7227">Actor</text><ellipse cx="26.5" cy="706.1758" fill="#E2E2F0" rx="8" ry="8" style="stroke:#181818;stroke-width:0.5;"/><path d="M26.5,714.1758 L26.5,741.1758 M13.5,722.1758 L39.5,722.1758 M26.5,741.1758 L13.5,756.1758 M26.5,741.1758 L39.5,756.1758 " fill="none" style="stroke:#181818;stroke-width:0.5;"/><rect fill="#E2E2F0" height="46.9766" rx="2.5" ry="2.5" style="stroke:#181818;stroke-width:0.5;" width="187" x="281" y="36"/><text fill="#000000" font-family="sans-serif" font-size="14" font-style="italic" lengthAdjust="spacing" textLength="100" x="324.5" y="56.5352">«Presentation»</text><text fill="#000000" font-family="sans-serif" font-size="14" lengthAdjust="spacing" textLength="173" x="288" y="73.0234">CreateRecurringLessonUI</text><rect fill="#E2E2F0" height="46.9766" rx="2.5" ry="2.5" style="stroke:#181818;stroke-width:0.5;" width="187" x="281" y="681.1875"/><text fill="#000000" font-family="sans-serif" font-size="14" font-style="italic" lengthAdjust="spacing" textLength="100" x="324.5" y="701.7227">«Presentation»</text><text fill="#000000" font-family="sans-serif" font-size="14" lengthAdjust="spacing" textLength="173" x="288" y="718.2109">CreateRecurringLessonUI</text><rect fill="#E2E2F0" height="46.9766" rx="2.5" ry="2.5" style="stroke:#181818;stroke-width:0.5;" width="243" x="795" y="36"/><text fill="#000000" font-family="sans-serif" font-size="14" font-style="italic" lengthAdjust="spacing" textLength="92" x="870.5" y="56.5352">«Application»</text><text fill="#000000" font-family="sans-serif" font-size="14" lengthAdjust="spacing" textLength="229" x="802" y="73.0234">CreateRecurringLessonController</text><rect fill="#E2E2F0" height="46.9766" rx="2.5" ry="2.5" style="stroke:#181818;stroke-width:0.5;" width="243" x="795" y="681.1875"/><text fill="#000000" font-family="sans-serif" font-size="14" font-style="italic" lengthAdjust="spacing" textLength="92" x="870.5" y="701.7227">«Application»</text><text fill="#000000" font-family="sans-serif" font-size="14" lengthAdjust="spacing" textLength="229" x="802" y="718.2109">CreateRecurringLessonController</text><rect fill="#E2E2F0" height="46.9766" rx="2.5" ry="2.5" style="stroke:#181818;stroke-width:0.5;" width="176" x="1048" y="36"/><text fill="#000000" font-family="sans-serif" font-size="14" font-style="italic" lengthAdjust="spacing" textLength="63" x="1104.5" y="56.5352">«builder»</text><text fill="#000000" font-family="sans-serif" font-size="14" lengthAdjust="spacing" textLength="162" x="1055" y="73.0234">RecurringLessonBuilder</text><rect fill="#E2E2F0" height="46.9766" rx="2.5" ry="2.5" style="stroke:#181818;stroke-width:0.5;" width="176" x="1048" y="681.1875"/><text fill="#000000" font-family="sans-serif" font-size="14" font-style="italic" lengthAdjust="spacing" textLength="63" x="1104.5" y="701.7227">«builder»</text><text fill="#000000" font-family="sans-serif" font-size="14" lengthAdjust="spacing" textLength="162" x="1055" y="718.2109">RecurringLessonBuilder</text><rect fill="#E2E2F0" height="46.9766" rx="2.5" ry="2.5" style="stroke:#181818;stroke-width:0.5;" width="146" x="1234" y="36"/><text fill="#000000" font-family="sans-serif" font-size="14" font-style="italic" lengthAdjust="spacing" textLength="92" x="1261" y="56.5352">«persistence»</text><text fill="#000000" font-family="sans-serif" font-size="14" lengthAdjust="spacing" textLength="132" x="1241" y="73.0234">PersistenceContext</text><rect fill="#E2E2F0" height="46.9766" rx="2.5" ry="2.5" style="stroke:#181818;stroke-width:0.5;" width="146" x="1234" y="681.1875"/><text fill="#000000" font-family="sans-serif" font-size="14" font-style="italic" lengthAdjust="spacing" textLength="92" x="1261" y="701.7227">«persistence»</text><text fill="#000000" font-family="sans-serif" font-size="14" lengthAdjust="spacing" textLength="132" x="1241" y="718.2109">PersistenceContext</text><rect fill="#E2E2F0" height="46.9766" rx="2.5" ry="2.5" style="stroke:#181818;stroke-width:0.5;" width="137" x="1398.5" y="36"/><text fill="#000000" font-family="sans-serif" font-size="14" font-style="italic" lengthAdjust="spacing" textLength="61" x="1436.5" y="56.5352">«factory»</text><text fill="#000000" font-family="sans-serif" font-size="14" lengthAdjust="spacing" textLength="123" x="1405.5" y="73.0234">RepositoryFactory</text><rect fill="#E2E2F0" height="46.9766" rx="2.5" ry="2.5" style="stroke:#181818;stroke-width:0.5;" width="137" x="1398.5" y="681.1875"/><text fill="#000000" font-family="sans-serif" font-size="14" font-style="italic" lengthAdjust="spacing" textLength="61" x="1436.5" y="701.7227">«factory»</text><text fill="#000000" font-family="sans-serif" font-size="14" lengthAdjust="spacing" textLength="123" x="1405.5" y="718.2109">RepositoryFactory</text><text fill="#000000" font-family="sans-serif" font-size="14" font-style="italic" lengthAdjust="spacing" textLength="87" x="1595.5" y="64.5352">«Repository»</text><text fill="#000000" font-family="sans-serif" font-size="14" lengthAdjust="spacing" textLength="187" x="1545.5" y="81.0234">RecurringLessonRepository</text><path d="M1624,15 C1624,5 1642,5 1642,5 C1642,5 1660,5 1660,15 L1660,41 C1660,51 1642,51 1642,51 C1642,51 1624,51 1624,41 L1624,15 " fill="#E2E2F0" style="stroke:#181818;stroke-width:1.5;"/><path d="M1624,15 C1624,25 1642,25 1642,25 C1642,25 1660,25 1660,15 " fill="none" style="stroke:#181818;stroke-width:1.5;"/><text fill="#000000" font-family="sans-serif" font-size="14" font-style="italic" lengthAdjust="spacing" textLength="87" x="1595.5" y="694.7227">«Repository»</text><text fill="#000000" font-family="sans-serif" font-size="14" lengthAdjust="spacing" textLength="187" x="1545.5" y="711.2109">RecurringLessonRepository</text><path d="M1624,724.1641 C1624,714.1641 1642,714.1641 1642,714.1641 C1642,714.1641 1660,714.1641 1660,724.1641 L1660,750.1641 C1660,760.1641 1642,760.1641 1642,760.1641 C1642,760.1641 1624,760.1641 1624,750.1641 L1624,724.1641 " fill="#E2E2F0" style="stroke:#181818;stroke-width:1.5;"/><path d="M1624,724.1641 C1624,734.1641 1642,734.1641 1642,734.1641 C1642,734.1641 1660,734.1641 1660,724.1641 " fill="none" style="stroke:#181818;stroke-width:1.5;"/><rect fill="#E2E2F0" height="46.9766" rx="2.5" ry="2.5" style="stroke:#181818;stroke-width:0.5;" width="228" x="1748.5" y="36"/><text fill="#000000" font-family="sans-serif" font-size="14" font-style="italic" lengthAdjust="spacing" textLength="67" x="1829" y="56.5352">«Domain»</text><text fill="#000000" font-family="sans-serif" font-size="14" lengthAdjust="spacing" textLength="214" x="1755.5" y="73.0234">serviço:RecurringLessonService</text><rect fill="#E2E2F0" height="46.9766" rx="2.5" ry="2.5" style="stroke:#181818;stroke-width:0.5;" width="228" x="1748.5" y="681.1875"/><text fill="#000000" font-family="sans-serif" font-size="14" font-style="italic" lengthAdjust="spacing" textLength="67" x="1829" y="701.7227">«Domain»</text><text fill="#000000" font-family="sans-serif" font-size="14" lengthAdjust="spacing" textLength="214" x="1755.5" y="718.2109">serviço:RecurringLessonService</text><rect fill="#E2E2F0" height="46.9766" rx="2.5" ry="2.5" style="stroke:#181818;stroke-width:0.5;" width="128" x="1986.5" y="36"/><text fill="#000000" font-family="sans-serif" font-size="14" font-style="italic" lengthAdjust="spacing" textLength="67" x="2017" y="56.5352">«Domain»</text><text fill="#000000" font-family="sans-serif" font-size="14" lengthAdjust="spacing" textLength="114" x="1993.5" y="73.0234">RecurringLesson</text><rect fill="#E2E2F0" height="46.9766" rx="2.5" ry="2.5" style="stroke:#181818;stroke-width:0.5;" width="128" x="1986.5" y="681.1875"/><text fill="#000000" font-family="sans-serif" font-size="14" font-style="italic" lengthAdjust="spacing" textLength="67" x="2017" y="701.7227">«Domain»</text><text fill="#000000" font-family="sans-serif" font-size="14" lengthAdjust="spacing" textLength="114" x="1993.5" y="718.2109">RecurringLesson</text><rect fill="#FFFFFF" height="579.2109" style="stroke:#181818;stroke-width:1.0;" width="10" x="21.5" y="93.9766"/><rect fill="#FFFFFF" height="522.5898" style="stroke:#181818;stroke-width:1.0;" width="10" x="369.5" y="150.5977"/><rect fill="#FFFFFF" height="381.0371" style="stroke:#181818;stroke-width:1.0;" width="10" x="911.5" y="253.8398"/><rect fill="#FFFFFF" height="87.9316" style="stroke:#181818;stroke-width:1.0;" width="10" x="1131" y="283.1504"/><rect fill="#FFFFFF" height="87.9316" style="stroke:#181818;stroke-width:1.0;" width="10" x="1302" y="459.0137"/><rect fill="#FFFFFF" height="29.3105" style="stroke:#181818;stroke-width:1.0;" width="10" x="1462" y="488.3242"/><rect fill="#FFFFFF" height="29.3105" style="stroke:#181818;stroke-width:1.0;" width="10" x="1637" y="576.2559"/><rect fill="#FFFFFF" height="29.3105" style="stroke:#181818;stroke-width:1.0;" width="10" x="1857.5" y="400.3926"/><rect fill="#FFFFFF" height="29.3105" style="stroke:#181818;stroke-width:1.0;" width="10" x="2045.5" y="312.4609"/><path d="M36,98.9766 L36,123.9766 L1036,123.9766 L1036,108.9766 L1026,98.9766 L36,98.9766 " fill="#FEFFDD" style="stroke:#181818;stroke-width:0.5;"/><path d="M1026,98.9766 L1026,108.9766 L1036,108.9766 L1026,98.9766 " fill="#FEFFDD" style="stroke:#181818;stroke-width:0.5;"/><text fill="#000000" font-family="sans-serif" font-size="13" lengthAdjust="spacing" textLength="979" x="42" y="116.5449">Existe um serviço com a responsabilidade de verificar a disponibilidade do professor no dia marcado e a propagação da lesson para a frequencia estipulada</text><polygon fill="#181818" points="357.5,146.5977,367.5,150.5977,357.5,154.5977,361.5,150.5977" style="stroke:#181818;stroke-width:1.0;"/><line style="stroke:#181818;stroke-width:1.0;" x1="31.5" x2="363.5" y1="150.5977" y2="150.5977"/><text fill="#000000" font-family="sans-serif" font-size="13" font-weight="bold" lengthAdjust="spacing" textLength="9" x="38.5" y="145.8555">1</text><text fill="#000000" font-family="sans-serif" font-size="13" lengthAdjust="spacing" textLength="152" x="51.5" y="145.8555">CreateRecurringLesson()</text><polygon fill="#181818" points="42.5,175.9082,32.5,179.9082,42.5,183.9082,38.5,179.9082" style="stroke:#181818;stroke-width:1.0;"/><line style="stroke:#181818;stroke-width:1.0;" x1="36.5" x2="368.5" y1="179.9082" y2="179.9082"/><text fill="#000000" font-family="sans-serif" font-size="13" font-weight="bold" lengthAdjust="spacing" textLength="9" x="48.5" y="175.166">2</text><text fill="#000000" font-family="sans-serif" font-size="13" lengthAdjust="spacing" textLength="264" x="61.5" y="175.166">Ask User the recurring lesson information</text><polygon fill="#181818" points="357.5,220.5293,367.5,224.5293,357.5,228.5293,361.5,224.5293" style="stroke:#181818;stroke-width:1.0;"/><line style="stroke:#181818;stroke-width:1.0;" x1="31.5" x2="363.5" y1="224.5293" y2="224.5293"/><text fill="#000000" font-family="sans-serif" font-size="13" font-weight="bold" lengthAdjust="spacing" textLength="9" x="38.5" y="212.1318">3</text><text fill="#000000" font-family="sans-serif" font-size="13" lengthAdjust="spacing" textLength="301" x="51.5" y="204.4766">inputs frequency, start date, end date, duration,</text><text fill="#000000" font-family="sans-serif" font-size="13" lengthAdjust="spacing" textLength="117" x="55.5" y="219.7871">title and start time</text><polygon fill="#181818" points="899.5,249.8398,909.5,253.8398,899.5,257.8398,903.5,253.8398" style="stroke:#181818;stroke-width:1.0;"/><line style="stroke:#181818;stroke-width:1.0;" x1="379.5" x2="905.5" y1="253.8398" y2="253.8398"/><text fill="#000000" font-family="sans-serif" font-size="13" font-weight="bold" lengthAdjust="spacing" textLength="9" x="386.5" y="249.0977">4</text><text fill="#000000" font-family="sans-serif" font-size="13" lengthAdjust="spacing" textLength="500" x="399.5" y="249.0977">createRecurringLesson(title, startDate, endDate, startTime, duration, frequency)</text><polygon fill="#181818" points="1119,279.1504,1129,283.1504,1119,287.1504,1123,283.1504" style="stroke:#181818;stroke-width:1.0;"/><line style="stroke:#181818;stroke-width:1.0;" x1="921.5" x2="1125" y1="283.1504" y2="283.1504"/><text fill="#000000" font-family="sans-serif" font-size="13" font-weight="bold" lengthAdjust="spacing" textLength="9" x="928.5" y="278.4082">5</text><text fill="#000000" font-family="sans-serif" font-size="13" lengthAdjust="spacing" textLength="94" x="941.5" y="278.4082">buildOrThrow()</text><polygon fill="#181818" points="2033.5,308.4609,2043.5,312.4609,2033.5,316.4609,2037.5,312.4609" style="stroke:#181818;stroke-width:1.0;"/><line style="stroke:#181818;stroke-width:1.0;" x1="1141" x2="2039.5" y1="312.4609" y2="312.4609"/><text fill="#000000" font-family="sans-serif" font-size="13" font-weight="bold" lengthAdjust="spacing" textLength="9" x="1148" y="307.7188">6</text><text fill="#000000" font-family="sans-serif" font-size="13" lengthAdjust="spacing" textLength="462" x="1161" y="307.7188">RecurringLesson(title, startDate, endDate, startTime, duration, frequency)</text><polygon fill="#181818" points="1152,337.7715,1142,341.7715,1152,345.7715,1148,341.7715" style="stroke:#181818;stroke-width:1.0;"/><line style="stroke:#181818;stroke-width:1.0;" x1="1146" x2="2049.5" y1="341.7715" y2="341.7715"/><text fill="#000000" font-family="sans-serif" font-size="13" font-weight="bold" lengthAdjust="spacing" textLength="9" x="1158" y="337.0293">7</text><text fill="#000000" font-family="sans-serif" font-size="13" lengthAdjust="spacing" textLength="101" x="1171" y="337.0293">recurringLesson</text><polygon fill="#181818" points="932.5,367.082,922.5,371.082,932.5,375.082,928.5,371.082" style="stroke:#181818;stroke-width:1.0;"/><line style="stroke:#181818;stroke-width:1.0;" x1="926.5" x2="1135" y1="371.082" y2="371.082"/><text fill="#000000" font-family="sans-serif" font-size="13" font-weight="bold" lengthAdjust="spacing" textLength="9" x="938.5" y="366.3398">8</text><text fill="#000000" font-family="sans-serif" font-size="13" lengthAdjust="spacing" textLength="101" x="951.5" y="366.3398">recurringLesson</text><polygon fill="#181818" points="1845.5,396.3926,1855.5,400.3926,1845.5,404.3926,1849.5,400.3926" style="stroke:#181818;stroke-width:1.0;"/><line style="stroke:#181818;stroke-width:1.0;" x1="921.5" x2="1851.5" y1="400.3926" y2="400.3926"/><text fill="#000000" font-family="sans-serif" font-size="13" font-weight="bold" lengthAdjust="spacing" textLength="9" x="928.5" y="395.6504">9</text><text fill="#000000" font-family="sans-serif" font-size="13" lengthAdjust="spacing" textLength="294" x="941.5" y="395.6504">propagateLessonByFrequency(recurringLesson)</text><polygon fill="#181818" points="1850.5,425.7031,1860.5,429.7031,1850.5,433.7031,1854.5,429.7031" style="stroke:#181818;stroke-width:1.0;"/><line style="stroke:#181818;stroke-width:1.0;" x1="921.5" x2="1856.5" y1="429.7031" y2="429.7031"/><text fill="#000000" font-family="sans-serif" font-size="13" font-weight="bold" lengthAdjust="spacing" textLength="18" x="928.5" y="424.9609">10</text><text fill="#000000" font-family="sans-serif" font-size="13" lengthAdjust="spacing" textLength="265" x="950.5" y="424.9609">checkTeacherAvailability(recurringLesson)</text><polygon fill="#181818" points="1290,455.0137,1300,459.0137,1290,463.0137,1294,459.0137" style="stroke:#181818;stroke-width:1.0;"/><line style="stroke:#181818;stroke-width:1.0;" x1="921.5" x2="1296" y1="459.0137" y2="459.0137"/><text fill="#000000" font-family="sans-serif" font-size="13" font-weight="bold" lengthAdjust="spacing" textLength="18" x="928.5" y="454.2715">11</text><text fill="#000000" font-family="sans-serif" font-size="13" lengthAdjust="spacing" textLength="83" x="950.5" y="454.2715">repositories()</text><polygon fill="#181818" points="1450,484.3242,1460,488.3242,1450,492.3242,1454,488.3242" style="stroke:#181818;stroke-width:1.0;"/><line style="stroke:#181818;stroke-width:1.0;" x1="1312" x2="1456" y1="488.3242" y2="488.3242"/><text fill="#000000" font-family="sans-serif" font-size="13" font-weight="bold" lengthAdjust="spacing" textLength="18" x="1319" y="483.582">12</text><text fill="#000000" font-family="sans-serif" font-size="13" lengthAdjust="spacing" textLength="86" x="1341" y="483.582">newInstance()</text><polygon fill="#181818" points="1323,513.6348,1313,517.6348,1323,521.6348,1319,517.6348" style="stroke:#181818;stroke-width:1.0;"/><line style="stroke:#181818;stroke-width:1.0;" x1="1317" x2="1466" y1="517.6348" y2="517.6348"/><text fill="#000000" font-family="sans-serif" font-size="13" font-weight="bold" lengthAdjust="spacing" textLength="18" x="1329" y="512.8926">13</text><text fill="#000000" font-family="sans-serif" font-size="13" lengthAdjust="spacing" textLength="104" x="1351" y="512.8926">RecurringLesson</text><polygon fill="#181818" points="932.5,542.9453,922.5,546.9453,932.5,550.9453,928.5,546.9453" style="stroke:#181818;stroke-width:1.0;"/><line style="stroke:#181818;stroke-width:1.0;" x1="926.5" x2="1306" y1="546.9453" y2="546.9453"/><text fill="#000000" font-family="sans-serif" font-size="13" font-weight="bold" lengthAdjust="spacing" textLength="18" x="938.5" y="542.2031">14</text><text fill="#000000" font-family="sans-serif" font-size="13" lengthAdjust="spacing" textLength="104" x="960.5" y="542.2031">RecurringLesson</text><polygon fill="#181818" points="1625,572.2559,1635,576.2559,1625,580.2559,1629,576.2559" style="stroke:#181818;stroke-width:1.0;"/><line style="stroke:#181818;stroke-width:1.0;" x1="921.5" x2="1631" y1="576.2559" y2="576.2559"/><text fill="#000000" font-family="sans-serif" font-size="13" font-weight="bold" lengthAdjust="spacing" textLength="18" x="928.5" y="571.5137">15</text><text fill="#000000" font-family="sans-serif" font-size="13" lengthAdjust="spacing" textLength="137" x="950.5" y="571.5137">save(recurringLesson)</text><polygon fill="#181818" points="932.5,601.5664,922.5,605.5664,932.5,609.5664,928.5,605.5664" style="stroke:#181818;stroke-width:1.0;"/><line style="stroke:#181818;stroke-width:1.0;" x1="926.5" x2="1641" y1="605.5664" y2="605.5664"/><text fill="#000000" font-family="sans-serif" font-size="13" font-weight="bold" lengthAdjust="spacing" textLength="18" x="938.5" y="600.8242">16</text><text fill="#000000" font-family="sans-serif" font-size="13" lengthAdjust="spacing" textLength="101" x="960.5" y="600.8242">recurringLesson</text><polygon fill="#181818" points="390.5,630.877,380.5,634.877,390.5,638.877,386.5,634.877" style="stroke:#181818;stroke-width:1.0;"/><line style="stroke:#181818;stroke-width:1.0;" x1="384.5" x2="915.5" y1="634.877" y2="634.877"/><text fill="#000000" font-family="sans-serif" font-size="13" font-weight="bold" lengthAdjust="spacing" textLength="18" x="396.5" y="630.1348">17</text><text fill="#000000" font-family="sans-serif" font-size="13" lengthAdjust="spacing" textLength="101" x="418.5" y="630.1348">recurringLesson</text><polygon fill="#181818" points="42.5,660.1875,32.5,664.1875,42.5,668.1875,38.5,664.1875" style="stroke:#181818;stroke-width:1.0;"/><line style="stroke:#181818;stroke-width:1.0;" x1="36.5" x2="368.5" y1="664.1875" y2="664.1875"/><text fill="#000000" font-family="sans-serif" font-size="13" font-weight="bold" lengthAdjust="spacing" textLength="18" x="48.5" y="659.4453">18</text><text fill="#000000" font-family="sans-serif" font-size="13" lengthAdjust="spacing" textLength="86" x="70.5" y="659.4453">back to menu</text><!--SRC=[jLJDRjim3BxhAOXUrW7jUZUC0bcx0WK6hEZQsowCpIH2RKcJvBHvdXtw87snKROyAyfFUnaG11IfxoCfVkQdbVV65HSNfa7bkxRvKkdsmj7lZbH5vxN4fSLM2EoyLbqx9yjsvRM5MVWFjboZftXKcaqhboiFUZ7u2lZs8XsxknOSsRLyUzN0IG31aZDQEPpBHjPO4_1lJLOkP8MMuxKCSJc5DHYh5-GSvrUQumWjsWevG7oVWmQN-FRwzeU324sugS2WHOukxD0LWyXvQRe6QnGSzBAIXhk7AqlSoZrLdRLIBR_tyCTRG0VyNvPtN30fZrvgTNdvFlHAAszrqv0D5CcfB6V6DDpb7gQCusidcteW6Csod0zMXhmZwy9By-12Bdhn0PLu6MccqqvUevtaWMrk-W5l0dWqot8nM0ogqUCS7UMLJWG1kUCho-cGfJuPTL5ab3-3lwAJG1XjvhdMBSftdYqWSbU25ABN9fnVycIB_TCx_Jof-_5Mi0BuTfJqp3t18rSDViLw7t6ZuAHQQDlsmztE8vNflFkdnCqPECyzi5OzdG6fEbfrPtlqsIy5Nlg6nSsnuQwNBObOpIIf0ggzFVJecEPwp38OlU-1sP9yKsb9yrCMaMYOqqT15j3hyOTzM5dzd3vRl216vJ8cAx20_r5nnYbo9QIrs-nkJGTfaZRIbp_2C3x0zhj5AHVZml8Kl_NDpTZCQKQQD1VHXpYh5LLF3rp2YkniZRBfrwlVmvZKkPypMHsXo_ZrIdBfZ9DB8jqrZ8_Rem15pxUAfyT-Xiv6Q8oBSSlaAUyFF-m8pJAcOpc2JclURZbVMmKuNDEHQUG0iRFuFgwM7Qxjsi86EO9EFjDXwPJdFMIErHDu3IsfJeY_]--></g></svg>